<?xml version="1.0" encoding="utf-8"?>
<!-- Generator: Adobe Illustrator 21.1.0, SVG Export Plug-In . SVG Version: 6.00 Build 0)  -->
<svg version="1.1" xmlns="http://www.w3.org/2000/svg" xmlns:xlink="http://www.w3.org/1999/xlink" x="0px" y="0px"
	 viewBox="0 0 1257 420" style="enable-background:new 0 0 1257 420;" xml:space="preserve">
<style type="text/css">
	.st0{fill:#0064DC;}
	.st1{fill:#FFFFFF;}
	.st2{opacity:0.2;fill:#FFFFFF;}
	.st3{fill:url(#SVGID_1_);}
	.st4{fill:url(#SVGID_2_);}
	.st5{fill:url(#SVGID_3_);}
	.st6{fill:url(#SVGID_4_);}
	.st7{fill:url(#SVGID_5_);}
	.st8{fill:url(#SVGID_6_);}
	.st9{fill:url(#SVGID_7_);}
	.st10{fill:url(#SVGID_8_);}
	.st11{fill:url(#SVGID_9_);}
	.st12{fill:url(#SVGID_10_);}
	.st13{fill:url(#SVGID_11_);}
	.st14{fill:url(#SVGID_12_);}
	.st15{fill:url(#SVGID_13_);}
	.st16{fill:url(#SVGID_14_);}
	.st17{fill:url(#SVGID_15_);}
	.st18{fill:url(#SVGID_16_);}
	.st19{fill:url(#SVGID_17_);}
	.st20{fill:url(#SVGID_18_);}
	.st21{fill:url(#SVGID_19_);}
	.st22{fill:url(#SVGID_20_);}
	.st23{fill:url(#SVGID_21_);}
	.st24{fill:url(#SVGID_22_);}
	.st25{fill:url(#SVGID_23_);}
	.st26{fill:url(#SVGID_24_);}
	.st27{fill:url(#SVGID_25_);}
	.st28{fill:url(#SVGID_26_);}
	.st29{fill:url(#SVGID_27_);}
	.st30{opacity:0.5;}
	.st31{fill:#FEFEFE;}
	.st32{fill:#015596;}
	.st33{fill:#EE2F25;}
	.st34{opacity:0.2;fill:#EE2F25;}
	.st35{fill:#F48120;}
	.st36{fill:#F06725;}
	.st37{fill:#0F2C4F;}
	.st38{fill:none;}
	.st39{display:none;}
	.st40{display:inline;fill:#FFFFFF;}
</style>
<g id="Layer_1">
	<g>
		<rect x="99.5" y="84.5" class="st0" width="1070.9" height="247.5"/>
		<g>
			<path class="st1" d="M922.4,188.3c9.1-9.1,21.1-14.2,33.4-14.2c13.2,0,24.5,4.6,33.6,13.2c9.6,9.1,14.9,21.6,14.9,33.9
				c0,13.7-4.6,25-13.7,34.1c-9.3,9.3-20.8,14.2-34.5,14.2c-13.9,0-25-4.7-34.3-14.5c-8.8-9.1-13.3-20.8-13.3-33.4
				C908.5,209,913.4,197.3,922.4,188.3z M956.3,244.3c11.8,0,21.5-10,21.5-22.3c0-12.5-9.6-22.5-21.5-22.5s-21.5,10-21.5,22.5
				C934.9,234.3,944.7,244.3,956.3,244.3z"/>
			<path class="st1" d="M726.9,188.3c9.1-9.1,21.1-14.2,33.4-14.2c13.2,0,24.5,4.6,33.6,13.2c9.6,9.1,14.9,21.6,14.9,33.9
				c0,13.7-4.6,25-13.7,34.1c-9.3,9.3-20.8,14.2-34.5,14.2c-13.9,0-25-4.7-34.3-14.5c-8.8-9.1-13.3-20.8-13.3-33.4
				C713,209,717.9,197.3,726.9,188.3z M760.8,244.3c11.8,0,21.5-10,21.5-22.3c0-12.5-9.6-22.5-21.5-22.5c-11.8,0-21.5,10-21.5,22.5
				C739.4,234.3,749.2,244.3,760.8,244.3z"/>
			<polygon class="st1" points="436.5,267.1 463.1,267.1 463.1,141.4 436.5,147 			"/>
			<rect x="396.1" y="176.3" class="st1" width="26.5" height="90.7"/>
			<circle class="st1" cx="409.3" cy="149.7" r="16.3"/>
			<polygon class="st1" points="518.2,229.2 501.1,176.3 471.6,176.3 504.9,261.5 492,296.4 518.8,296.4 566.2,176.3 537.5,176.3 
							"/>
			<path class="st1" d="M274.2,221.3c0-10,2.4-19.4,7.1-27.8v-0.1v0v-52.3l-26.7,5.5v39.5c-6.1-7.8-14.5-11.5-25.5-11.5
				c-11.5,0-21.8,4.2-30.2,12.5c-9.5,9.1-14.5,20.8-14.5,33.8c0,14.2,5.4,26.3,15.9,35.6c7.9,7.1,17.4,10.6,28.4,10.6
				c10.8,0,18.9-2.9,26.9-10.6v10.1h25.8v-17.2C276.7,241.2,274.2,231.7,274.2,221.3z M234.6,243.1c-13.7,0-23.5-9.6-23.5-22.3
				c0-12.2,9.8-22.5,22.5-22.5c12.5,0,22.1,9.8,22.1,22.8C255.7,233.7,246,243.1,234.6,243.1z"/>
			<path class="st1" d="M707.9,196.3c-1.1-4.8-3-8.7-5.9-12.1c-5-5.9-12.1-8.7-20.7-9.4c-6.9-0.6-12.9,0.3-18.7,3.3
				c-6.2,3.3-13.3,11-13.3,11s-7-14.5-24.7-14.5c-12.4,0-20,5.3-25.1,13.8v-12.2h-24.2V267h25.3v-47.8c0-9.9,2.3-19.8,15.7-19.8
				c11.6,0,12.5,9.4,12.5,17.3V267H655V219c0-15.3,6.7-19.5,15.8-19.5c7.4,0,12.4,3.3,12.4,17.3V267h26v-17.3
				c-4.7-8.5-7.1-18.1-7.1-28.3C702.1,212.6,704.2,204.1,707.9,196.3z"/>
			<polygon class="st1" points="852.3,141.4 825.3,147 825.3,176.8 813.8,176.8 813.8,203.1 825.3,203.1 825.3,267 852.3,267 
				852.3,203.1 864.3,203.1 864.3,176.8 852.3,176.8 			"/>
			<circle class="st1" cx="889.3" cy="149.7" r="16.3"/>
			<path class="st1" d="M902.5,198.4v-22.1H876V267h26.5v-21.6c-3.2-7.3-4.9-15.3-4.9-23.8C897.6,213.5,899.4,205.7,902.5,198.4z"/>
			<path class="st1" d="M1065.3,174.7c-12,0-20.4,4.7-26,13.8l0.3-12.2h-25.3V267h26.2v-49.2c0-12.2,5.6-18.4,16-18.4
				c10.3,0,13,5.7,13,18.4V267h26.7v-59.8C1096.2,186.5,1084,174.7,1065.3,174.7z"/>
			<path class="st1" d="M356.2,256.9c-7.9,7.8-16,10.6-26.9,10.6c-11,0-20.4-3.5-28.4-10.6c-10.5-9.3-15.9-21.5-15.9-35.6
				c0-13,5.1-24.7,14.5-33.8c8.4-8.3,18.7-12.5,30.2-12.5c11,0,19.4,3.7,25.5,11.5v-10.1h26.7V267h-25.8V256.9z M335.3,243.4
				c11.5,0,21.1-9.5,21.1-22c0-13-9.6-22.8-22.1-22.8c-12.7,0-22.5,10.3-22.5,22.5C311.8,233.8,321.6,243.4,335.3,243.4z"/>
		</g>
	</g>
</g>
<g id="Layer_3">
</g>
<g id="Layer_2" class="st39">
</g>
</svg>
