<?xml version="1.0" encoding="utf-8"?>
<!-- Generator: Adobe Illustrator 21.1.0, SVG Export Plug-In . SVG Version: 6.00 Build 0)  -->
<svg version="1.1" xmlns="http://www.w3.org/2000/svg" xmlns:xlink="http://www.w3.org/1999/xlink" x="0px" y="0px"
	 viewBox="0 0 1231.8 420" style="enable-background:new 0 0 1231.8 420;" xml:space="preserve">
<style type="text/css">
	.st0{fill:#0064DC;}
	.st1{fill:#FFFFFF;}
	.st2{opacity:0.2;fill:#FFFFFF;}
	.st3{fill:url(#SVGID_1_);}
	.st4{fill:url(#SVGID_2_);}
	.st5{fill:url(#SVGID_3_);}
	.st6{fill:url(#SVGID_4_);}
	.st7{fill:url(#SVGID_5_);}
	.st8{fill:url(#SVGID_6_);}
	.st9{fill:url(#SVGID_7_);}
	.st10{fill:url(#SVGID_8_);}
	.st11{fill:url(#SVGID_9_);}
	.st12{fill:url(#SVGID_10_);}
	.st13{fill:url(#SVGID_11_);}
	.st14{fill:url(#SVGID_12_);}
	.st15{fill:url(#SVGID_13_);}
	.st16{fill:url(#SVGID_14_);}
	.st17{fill:url(#SVGID_15_);}
	.st18{fill:url(#SVGID_16_);}
	.st19{fill:url(#SVGID_17_);}
	.st20{fill:url(#SVGID_18_);}
	.st21{fill:url(#SVGID_19_);}
	.st22{fill:url(#SVGID_20_);}
	.st23{fill:url(#SVGID_21_);}
	.st24{fill:url(#SVGID_22_);}
	.st25{fill:url(#SVGID_23_);}
	.st26{fill:url(#SVGID_24_);}
	.st27{fill:url(#SVGID_25_);}
	.st28{fill:url(#SVGID_26_);}
	.st29{fill:url(#SVGID_27_);}
	.st30{opacity:0.5;}
	.st31{fill:#FEFEFE;}
	.st32{fill:#015596;}
	.st33{fill:#EE2F25;}
	.st34{opacity:0.2;fill:#EE2F25;}
	.st35{fill:#F48120;}
	.st36{fill:#F06725;}
	.st37{fill:#0F2C4F;}
	.st38{fill:none;}
	.st39{display:none;}
	.st40{display:inline;fill:#FFFFFF;}
</style>
<g id="Layer_1">
</g>
<g id="Layer_3">
	<g>
		<g>
			<g>
				<path class="st32" d="M1006.7,185.5v57.1h46.3l0,22.7c0,0-0.7,4.3-4.3,6.5c-10.1,4.7-18.9,4.2-28.6,4.1
					c-19.1-0.3-35.8-6.4-48.2-21.5c-15.5-18.9-18.4-40.7-12.2-63.6c7.5-27.5,29.3-41.7,51.9-43.7c23.4-2.1,43.9,6,62,20.2
					c1.8,1.4,4.2,3.3,4.2,3.3l50.2-61c0,0-1.1-1.1-3-2.8c-0.7-0.6-1.6-1.3-2.7-2.2c-3.1-2.4-6.1-5-9.4-7.2
					c-24.3-16.1-50.7-25.5-80-28c-23.3-2-46-0.7-68,6.7c-53.2,18-86.9,53.6-97.1,109.9c-0.7,4-2,14.1-2.3,15.8L814.2,78.9h-91
					L646.8,259V78.9h-94.3c0,0-50.4,82.5-56.8,93.1c-6.4-10.6-56.8-93.1-56.8-93.1h-96.6l0.3,270.6l83.7,0.1h6.4V215.4l63,96.9v0.1
					l0,0l0,0v-0.1l63-96.9v134.2h6.4l81.7-0.1v0h59.8v0l13.3-35.8h97.3l13.1,35.8h97.2L914,317c8.6,5.1,16.8,10.4,25.1,14.8
					c33.6,17.7,69.6,21.6,106.6,17c32.5-4,62-16.1,88.2-36.1c0.3-0.3,3.6-2.9,3.6-2.9V185.5H1006.7z M768.4,248.8l-24.4,0l24.4-66.5
					l24.4,66.5L768.4,248.8z"/>
				<path class="st33" d="M343.8,78.9c18.7,18.4,32.9,40,38.8,65.8c12,52-1,96.7-40,133.5c-0.1-9.1-0.3-31-0.3-31H338H172.3
					c0,0,0.3,2.1,1.2,4.2c7.6,17.6,21.7,27.4,39.8,30.9c22.7,4.4,44.7,1.7,64.3-11.9c1.6-1.1,3.5-2.7,3.5-2.7l3.1,3.7
					c0,0,16.1,19.8,24.1,29.7c-26.9,12.1-54.8,15.3-83.9,10.1c-74.9-13.5-124.7-90.6-106.1-164.3c5.4-21.6,15.7-40.5,29.7-57.6
					c12.2-7.6,25.9-11.3,39.7-14c17.8-3.5,35.9-3.7,53.7-1.2c41.7,5.9,75.9,24.3,98.3,61.3c0.3,0.5,1.2,1.8,2.5,4.5
					c0-11.4-0.1-25.5-0.1-36.8c0-6.6,0.1-19.9,0.1-19.9l0-4.4C342.3,78.9,343.7,78.9,343.8,78.9z M217.4,189.4
					c15,0,29.9,0.1,44.9-0.1c1.4,0,4.7,0,4.7,0s0-1.9-0.2-2.7c-5.8-32.8-32.1-51.4-64.7-41.7c-18.9,5.6-27.2,21.2-32.7,38.8
					c-0.9,2.8-1.1,5.6-1.1,5.6s3.5,0.1,5.4,0.1C188.3,189.3,202.8,189.4,217.4,189.4z"/>
				<path class="st32" d="M147.9,89.3c-13.9,17.1-24.2,36-29.7,57.6c-18.5,73.7,31.3,150.8,106.1,164.3c29.1,5.2,57,2.1,83.9-10.1
					c5.3,6.3,10.5,12.8,16,19c1.5,1.7,2.2,2.5,2.2,2.5s-2.3,2-2.8,2.3c-20.2,14.7-42.4,24.2-67.3,27.5c-17.3,2.4-34.6,3.1-52,1.1
					c-57.2-6.3-115.4-39-128.9-109c-10.2-52.6,3.1-99.3,43.6-136.4C127.6,100.4,137,93.7,147.9,89.3z"/>
			</g>
		</g>
		<g>
			<path class="st32" d="M1130.2,64.5c2,0,3.9,0.5,5.8,1.5c1.9,1,3.3,2.5,4.4,4.3c1.1,1.9,1.6,3.9,1.6,5.9c0,2-0.5,4-1.6,5.9
				c-1,1.9-2.5,3.3-4.3,4.3c-1.9,1-3.8,1.6-5.9,1.6c-2,0-4-0.5-5.9-1.6c-1.9-1-3.3-2.5-4.3-4.3c-1-1.9-1.6-3.8-1.6-5.9
				c0-2.1,0.5-4,1.6-5.9c1.1-1.9,2.5-3.3,4.4-4.3C1126.2,65,1128.1,64.5,1130.2,64.5z M1130.2,66.8c-1.6,0-3.2,0.4-4.6,1.2
				c-1.5,0.8-2.7,2-3.5,3.5c-0.9,1.5-1.3,3.1-1.3,4.8c0,1.6,0.4,3.2,1.3,4.7c0.8,1.5,2,2.7,3.5,3.5c1.5,0.8,3.1,1.3,4.7,1.3
				c1.6,0,3.2-0.4,4.7-1.3c1.5-0.8,2.7-2,3.5-3.5c0.8-1.5,1.3-3.1,1.3-4.7c0-1.7-0.4-3.2-1.3-4.8c-0.9-1.5-2-2.7-3.5-3.5
				C1133.3,67.3,1131.8,66.8,1130.2,66.8z M1124.9,82.6V70.1h2.5c2.4,0,3.7,0,4,0c0.8,0.1,1.5,0.2,2,0.5c0.5,0.3,0.9,0.7,1.2,1.2
				c0.3,0.5,0.5,1.1,0.5,1.8c0,0.9-0.3,1.7-0.9,2.3c-0.6,0.6-1.4,1-2.5,1.2c0.4,0.1,0.7,0.3,0.9,0.5c0.2,0.2,0.5,0.5,0.8,1
				c0.1,0.1,0.4,0.6,0.9,1.5l1.5,2.5h-3.1l-1-2c-0.7-1.4-1.3-2.2-1.7-2.6c-0.5-0.4-1-0.5-1.7-0.5h-0.7v5.1H1124.9z M1127.4,75.5h1
				c1.5,0,2.4-0.1,2.7-0.2c0.4-0.1,0.6-0.3,0.8-0.6c0.2-0.3,0.3-0.6,0.3-1c0-0.3-0.1-0.7-0.3-0.9c-0.2-0.3-0.5-0.5-0.9-0.6
				c-0.4-0.1-1.3-0.2-2.7-0.2h-1V75.5z"/>
		</g>
	</g>
</g>
<g id="Layer_2" class="st39">
</g>
</svg>
