<?xml version="1.0" encoding="utf-8"?>
<!-- Generator: Adobe Illustrator 21.1.0, SVG Export Plug-In . SVG Version: 6.00 Build 0)  -->
<svg version="1.1" id="Layer_1" xmlns="http://www.w3.org/2000/svg" xmlns:xlink="http://www.w3.org/1999/xlink" x="0px" y="0px"
	 viewBox="0 0 53.6 95.7" style="enable-background:new 0 0 53.6 95.7;" xml:space="preserve">
<style type="text/css">
	.st0{fill:#DCCE9A;}
	.st1{fill:url(#SVGID_1_);}
	.st2{fill:url(#SVGID_2_);}
	.st3{fill:#C2C0BF;}
	.st4{fill:url(#SVGID_3_);}
	.st5{fill:url(#SVGID_4_);}
	.st6{fill:url(#SVGID_5_);}
	.st7{fill:#35BCA8;}
	.st8{fill:url(#SVGID_6_);}
	.st9{fill:url(#SVGID_7_);}
	.st10{fill:url(#SVGID_8_);}
	.st11{fill:url(#SVGID_9_);}
	.st12{fill:#27B0E5;}
	.st13{fill:url(#SVGID_10_);}
	.st14{fill:url(#SVGID_11_);}
	.st15{fill:url(#SVGID_12_);}
	.st16{fill:url(#SVGID_13_);}
	.st17{fill:url(#SVGID_14_);}
	.st18{fill:url(#SVGID_15_);}
	.st19{fill:url(#SVGID_16_);}
	.st20{fill:url(#SVGID_17_);}
	.st21{fill:url(#SVGID_18_);}
	.st22{fill:url(#SVGID_19_);}
	.st23{fill:#5170B6;}
	.st24{fill:#80C344;}
	.st25{fill:#99D094;}
	.st26{fill:#62C3A7;}
	.st27{fill:#64BC46;}
	.st28{fill:#5CBA47;}
	.st29{fill:#2F385E;}
	.st30{fill:#4A58A7;}
	.st31{fill:#FFFFFF;}
	.st32{fill:url(#SVGID_20_);}
	.st33{fill:url(#SVGID_21_);}
	.st34{fill:url(#SVGID_22_);}
	.st35{fill:url(#SVGID_23_);}
	.st36{fill:url(#SVGID_24_);}
	.st37{fill:url(#SVGID_25_);}
	.st38{fill:url(#SVGID_26_);}
	.st39{fill:url(#SVGID_27_);}
	.st40{fill:url(#SVGID_28_);}
	.st41{fill:url(#SVGID_29_);}
	.st42{fill:url(#SVGID_30_);}
	.st43{fill:url(#SVGID_31_);}
	.st44{fill:url(#SVGID_32_);}
	.st45{fill:url(#SVGID_33_);}
	.st46{fill:url(#SVGID_34_);}
	.st47{fill:url(#SVGID_35_);}
	.st48{fill:url(#SVGID_36_);}
	.st49{fill:url(#SVGID_37_);}
	.st50{fill:url(#SVGID_38_);}
	.st51{fill:url(#SVGID_39_);}
	.st52{fill:url(#SVGID_40_);}
	.st53{fill:url(#SVGID_41_);}
	.st54{fill:url(#SVGID_42_);}
	.st55{fill:url(#SVGID_43_);}
	.st56{fill:url(#SVGID_44_);}
	.st57{fill:url(#SVGID_45_);}
	.st58{fill:url(#SVGID_46_);}
	.st59{fill:url(#SVGID_47_);}
	.st60{fill:url(#SVGID_48_);}
	.st61{fill:url(#SVGID_49_);}
	.st62{fill:#E9294C;}
	.st63{fill:#FFE300;}
	.st64{fill:#F15B40;}
	.st65{fill:#F5865A;}
	.st66{fill:url(#SVGID_50_);}
	.st67{fill:url(#SVGID_51_);}
	.st68{fill:url(#SVGID_52_);}
	.st69{fill:url(#SVGID_53_);}
	.st70{fill:url(#SVGID_54_);}
	.st71{fill:url(#SVGID_55_);}
	.st72{fill:url(#SVGID_56_);}
	.st73{fill:url(#SVGID_57_);}
	.st74{fill:url(#SVGID_58_);}
	.st75{fill:url(#SVGID_59_);}
	.st76{fill:url(#SVGID_60_);}
	.st77{fill:url(#SVGID_61_);}
	.st78{fill:url(#SVGID_62_);}
	.st79{fill:url(#SVGID_63_);}
	.st80{fill:url(#SVGID_64_);}
	.st81{fill:url(#SVGID_65_);}
	.st82{fill:url(#SVGID_66_);}
	.st83{fill:url(#SVGID_67_);}
	.st84{fill:url(#SVGID_68_);}
	.st85{fill:#F3714D;}
	.st86{fill:url(#SVGID_69_);}
	.st87{fill:url(#SVGID_70_);}
	.st88{opacity:0.5;fill:#F15B40;}
	.st89{fill:#90D7EB;}
	.st90{fill:#2F88C9;}
	.st91{fill:url(#SVGID_71_);}
	.st92{fill:url(#SVGID_72_);}
	.st93{fill:url(#SVGID_73_);}
	.st94{fill:url(#SVGID_74_);}
	.st95{fill:url(#SVGID_75_);}
	.st96{fill:#B11F61;}
	.st97{fill:url(#SVGID_76_);}
	.st98{fill:url(#SVGID_77_);}
	.st99{fill:url(#SVGID_78_);}
	.st100{fill:url(#SVGID_79_);}
	.st101{fill:url(#SVGID_80_);}
	.st102{fill:url(#SVGID_81_);}
	.st103{fill:url(#SVGID_82_);}
	.st104{fill:url(#SVGID_83_);}
	.st105{fill:url(#SVGID_84_);}
	.st106{fill:url(#SVGID_85_);}
	.st107{fill:url(#SVGID_86_);}
	.st108{fill:url(#SVGID_87_);}
	.st109{fill:url(#SVGID_88_);}
	.st110{fill:url(#SVGID_89_);}
	.st111{fill:url(#SVGID_90_);}
	.st112{fill:url(#SVGID_91_);}
	.st113{fill:url(#SVGID_92_);}
	.st114{fill:url(#SVGID_93_);}
	.st115{opacity:0.5;fill:url(#SVGID_94_);}
	.st116{opacity:0.3;fill:url(#SVGID_95_);}
	.st117{fill:url(#SVGID_96_);}
	.st118{fill:url(#SVGID_97_);}
	.st119{fill:url(#SVGID_98_);}
	.st120{fill:url(#SVGID_99_);}
	.st121{fill:url(#SVGID_100_);}
	.st122{opacity:0.5;fill:url(#SVGID_101_);}
	.st123{opacity:0.6;fill:url(#SVGID_102_);}
	.st124{fill:url(#SVGID_103_);}
	.st125{fill:url(#SVGID_104_);}
	.st126{fill:url(#SVGID_105_);}
	.st127{fill:url(#SVGID_106_);}
	.st128{fill:url(#SVGID_107_);}
	.st129{fill:url(#SVGID_108_);}
	.st130{fill:url(#SVGID_109_);}
	.st131{fill:url(#SVGID_110_);}
	.st132{fill:url(#SVGID_111_);}
	.st133{opacity:0.5;fill:url(#SVGID_112_);}
	.st134{opacity:0.3;fill:url(#SVGID_113_);}
	.st135{fill:url(#SVGID_114_);}
	.st136{fill:url(#SVGID_115_);}
	.st137{fill:url(#SVGID_116_);}
	.st138{fill:url(#SVGID_117_);}
	.st139{fill:url(#SVGID_118_);}
	.st140{fill:url(#SVGID_119_);}
	.st141{fill:url(#SVGID_120_);}
	.st142{opacity:0.5;fill:url(#SVGID_121_);}
	.st143{opacity:0.6;fill:url(#SVGID_122_);}
	.st144{opacity:0.5;fill:url(#SVGID_123_);}
	.st145{opacity:0.3;fill:url(#SVGID_124_);}
	.st146{opacity:0.5;fill:url(#SVGID_125_);}
	.st147{opacity:0.6;fill:url(#SVGID_126_);}
	.st148{fill:url(#SVGID_127_);}
	.st149{opacity:0.5;fill:url(#SVGID_128_);}
	.st150{opacity:0.3;fill:url(#SVGID_129_);}
	.st151{fill:url(#SVGID_130_);}
	.st152{fill:url(#SVGID_131_);}
	.st153{fill:url(#SVGID_132_);}
	.st154{fill:url(#SVGID_133_);}
	.st155{fill:url(#SVGID_134_);}
	.st156{fill:url(#SVGID_135_);}
	.st157{fill:url(#SVGID_136_);}
	.st158{opacity:0.5;fill:url(#SVGID_137_);}
	.st159{opacity:0.6;fill:url(#SVGID_138_);}
	.st160{opacity:0.5;fill:url(#SVGID_139_);}
	.st161{opacity:0.3;fill:url(#SVGID_140_);}
	.st162{opacity:0.5;fill:url(#SVGID_141_);}
	.st163{opacity:0.6;fill:url(#SVGID_142_);}
	.st164{opacity:0.5;fill:url(#SVGID_143_);}
	.st165{opacity:0.3;fill:url(#SVGID_144_);}
	.st166{opacity:0.5;fill:url(#SVGID_145_);}
	.st167{opacity:0.6;fill:url(#SVGID_146_);}
	.st168{opacity:0.5;fill:url(#SVGID_147_);}
	.st169{opacity:0.3;fill:url(#SVGID_148_);}
	.st170{opacity:0.5;fill:url(#SVGID_149_);}
	.st171{opacity:0.6;fill:url(#SVGID_150_);}
	.st172{fill:url(#SVGID_151_);}
	.st173{opacity:0.5;fill:url(#SVGID_152_);}
	.st174{opacity:0.3;fill:url(#SVGID_153_);}
	.st175{fill:url(#SVGID_154_);}
	.st176{fill:url(#SVGID_155_);}
	.st177{fill:url(#SVGID_156_);}
	.st178{fill:url(#SVGID_157_);}
	.st179{fill:url(#SVGID_158_);}
	.st180{fill:url(#SVGID_159_);}
	.st181{fill:url(#SVGID_160_);}
	.st182{opacity:0.5;fill:url(#SVGID_161_);}
	.st183{opacity:0.6;fill:url(#SVGID_162_);}
	.st184{opacity:0.5;fill:url(#SVGID_163_);}
	.st185{opacity:0.3;fill:url(#SVGID_164_);}
	.st186{opacity:0.5;fill:url(#SVGID_165_);}
	.st187{opacity:0.6;fill:url(#SVGID_166_);}
	.st188{opacity:0.5;fill:url(#SVGID_167_);}
	.st189{opacity:0.3;fill:url(#SVGID_168_);}
	.st190{opacity:0.5;fill:url(#SVGID_169_);}
	.st191{opacity:0.6;fill:url(#SVGID_170_);}
	.st192{opacity:0.5;fill:url(#SVGID_171_);}
	.st193{opacity:0.3;fill:url(#SVGID_172_);}
	.st194{opacity:0.5;fill:url(#SVGID_173_);}
	.st195{opacity:0.6;fill:url(#SVGID_174_);}
	.st196{opacity:0.5;fill:url(#SVGID_175_);}
	.st197{opacity:0.3;fill:url(#SVGID_176_);}
	.st198{opacity:0.5;fill:url(#SVGID_177_);}
	.st199{opacity:0.6;fill:url(#SVGID_178_);}
	.st200{opacity:0.5;fill:url(#SVGID_179_);}
	.st201{opacity:0.3;fill:url(#SVGID_180_);}
	.st202{opacity:0.5;fill:url(#SVGID_181_);}
	.st203{opacity:0.6;fill:url(#SVGID_182_);}
	.st204{opacity:0.5;fill:url(#SVGID_183_);}
	.st205{opacity:0.3;fill:url(#SVGID_184_);}
	.st206{opacity:0.5;fill:url(#SVGID_185_);}
	.st207{opacity:0.6;fill:url(#SVGID_186_);}
	.st208{opacity:0.5;fill:url(#SVGID_187_);}
	.st209{opacity:0.5;fill:url(#SVGID_188_);}
	.st210{fill:url(#SVGID_189_);}
	.st211{opacity:0.5;fill:url(#SVGID_190_);}
	.st212{fill:url(#SVGID_191_);}
	.st213{opacity:0.5;fill:url(#SVGID_192_);}
	.st214{fill:url(#SVGID_193_);}
	.st215{opacity:0.5;fill:url(#SVGID_194_);}
	.st216{opacity:0.5;fill:url(#SVGID_195_);}
	.st217{opacity:0.3;fill:url(#SVGID_196_);}
	.st218{opacity:0.5;fill:url(#SVGID_197_);}
	.st219{opacity:0.5;fill:url(#SVGID_198_);}
	.st220{opacity:0.3;fill:url(#SVGID_199_);}
	.st221{opacity:0.5;fill:url(#SVGID_200_);}
	.st222{opacity:0.3;fill:url(#SVGID_201_);}
	.st223{opacity:0.5;fill:url(#SVGID_202_);}
	.st224{opacity:0.3;fill:url(#SVGID_203_);}
	.st225{opacity:0.5;fill:url(#SVGID_204_);}
	.st226{opacity:0.3;fill:url(#SVGID_205_);}
	.st227{opacity:0.6;fill:url(#SVGID_206_);}
	.st228{opacity:0.3;fill:url(#SVGID_207_);}
	.st229{opacity:0.3;fill:url(#SVGID_208_);}
	.st230{opacity:0.5;fill:url(#SVGID_209_);}
	.st231{opacity:0.3;fill:url(#SVGID_210_);}
	.st232{opacity:0.5;fill:url(#SVGID_211_);}
	.st233{opacity:0.3;fill:url(#SVGID_212_);}
	.st234{fill:url(#SVGID_213_);}
	.st235{opacity:0.5;fill:url(#SVGID_214_);}
	.st236{opacity:0.3;fill:url(#SVGID_215_);}
	.st237{fill:url(#SVGID_216_);}
	.st238{opacity:0.5;fill:url(#SVGID_217_);}
	.st239{opacity:0.5;fill:url(#SVGID_218_);}
	.st240{fill:url(#SVGID_219_);}
	.st241{fill:url(#SVGID_220_);}
	.st242{fill:url(#SVGID_221_);}
	.st243{fill:url(#SVGID_222_);}
	.st244{fill:url(#SVGID_223_);}
	.st245{fill:url(#SVGID_224_);}
	.st246{fill:url(#SVGID_225_);}
	.st247{fill:url(#SVGID_226_);}
	.st248{fill:url(#SVGID_227_);}
	.st249{fill:url(#SVGID_228_);}
	.st250{fill:url(#SVGID_229_);}
	.st251{fill:url(#SVGID_230_);}
	.st252{fill:url(#SVGID_231_);}
	.st253{fill:url(#SVGID_232_);}
	.st254{fill:url(#SVGID_233_);}
	.st255{fill:url(#SVGID_234_);}
	.st256{opacity:0.5;fill:url(#SVGID_235_);}
	.st257{opacity:0.3;fill:url(#SVGID_236_);}
	.st258{fill:url(#SVGID_237_);}
	.st259{fill:url(#SVGID_238_);}
	.st260{fill:url(#SVGID_239_);}
	.st261{fill:url(#SVGID_240_);}
	.st262{fill:url(#SVGID_241_);}
	.st263{opacity:0.5;fill:url(#SVGID_242_);}
	.st264{opacity:0.6;fill:url(#SVGID_243_);}
	.st265{fill:url(#SVGID_244_);}
	.st266{fill:url(#SVGID_245_);}
	.st267{fill:url(#SVGID_246_);}
	.st268{fill:url(#SVGID_247_);}
	.st269{fill:url(#SVGID_248_);}
	.st270{fill:url(#SVGID_249_);}
	.st271{fill:url(#SVGID_250_);}
	.st272{fill:url(#SVGID_251_);}
	.st273{fill:url(#SVGID_252_);}
	.st274{fill:url(#SVGID_253_);}
	.st275{fill:url(#SVGID_254_);}
	.st276{fill:url(#SVGID_255_);}
	.st277{fill:url(#SVGID_256_);}
	.st278{fill:url(#SVGID_257_);}
	.st279{fill:url(#SVGID_258_);}
	.st280{fill:url(#SVGID_259_);}
	.st281{fill:url(#SVGID_260_);}
	.st282{fill:url(#SVGID_261_);}
	.st283{fill:url(#SVGID_262_);}
	.st284{fill:url(#SVGID_263_);}
	.st285{fill:url(#SVGID_264_);}
	.st286{fill:url(#SVGID_265_);}
	.st287{fill:url(#SVGID_266_);}
	.st288{fill:url(#SVGID_267_);}
	.st289{fill:url(#SVGID_268_);}
	.st290{fill:url(#SVGID_269_);}
	.st291{fill:url(#SVGID_270_);}
	.st292{fill:url(#SVGID_271_);}
	.st293{fill:#5070B6;}
	.st294{fill:url(#SVGID_272_);}
	.st295{fill:url(#SVGID_273_);}
	.st296{fill:url(#SVGID_274_);}
	.st297{fill:url(#SVGID_275_);}
	.st298{fill:url(#SVGID_276_);}
	.st299{fill:url(#SVGID_277_);}
	.st300{fill:url(#SVGID_278_);}
	.st301{fill:url(#SVGID_279_);}
	.st302{fill:url(#SVGID_280_);}
	.st303{fill:url(#SVGID_281_);}
	.st304{fill:url(#SVGID_282_);}
	.st305{fill:url(#SVGID_283_);}
	.st306{fill:url(#SVGID_284_);}
	.st307{fill:url(#SVGID_285_);}
	.st308{fill:url(#SVGID_286_);}
	.st309{fill:url(#SVGID_287_);}
	.st310{fill:url(#SVGID_288_);}
	.st311{fill:url(#SVGID_289_);}
	.st312{fill:url(#SVGID_290_);}
	.st313{fill:url(#SVGID_291_);}
	.st314{fill:url(#SVGID_292_);}
	.st315{fill:#87BD40;}
	.st316{fill:url(#SVGID_293_);}
	.st317{fill:url(#SVGID_294_);}
	.st318{fill:url(#SVGID_295_);}
	.st319{fill:url(#SVGID_296_);}
	.st320{fill:url(#SVGID_297_);}
	.st321{fill:url(#SVGID_298_);}
	.st322{fill:url(#SVGID_299_);}
	.st323{fill:url(#SVGID_300_);}
	.st324{fill:url(#SVGID_301_);}
	.st325{fill:url(#SVGID_302_);}
	.st326{fill:url(#SVGID_303_);}
	.st327{fill:url(#SVGID_304_);}
	.st328{fill:url(#SVGID_305_);}
	.st329{fill:url(#SVGID_306_);}
	.st330{fill:url(#SVGID_307_);}
	.st331{fill:url(#SVGID_308_);}
	.st332{fill:url(#SVGID_309_);}
	.st333{fill:url(#SVGID_310_);}
	.st334{fill:url(#SVGID_311_);}
	.st335{fill:url(#SVGID_312_);}
	.st336{fill:url(#SVGID_313_);}
	.st337{fill:url(#SVGID_314_);}
	.st338{fill:url(#SVGID_315_);}
	.st339{fill:url(#SVGID_316_);}
	.st340{fill:url(#SVGID_317_);}
	.st341{fill:url(#SVGID_318_);}
	.st342{fill:url(#SVGID_319_);}
	.st343{fill:url(#SVGID_320_);}
	.st344{fill:url(#SVGID_321_);}
	.st345{fill:url(#SVGID_322_);}
	.st346{fill:url(#SVGID_323_);}
	.st347{fill:url(#SVGID_324_);}
	.st348{fill:url(#SVGID_325_);}
	.st349{fill:url(#SVGID_326_);}
	.st350{fill:url(#SVGID_327_);}
	.st351{fill:url(#SVGID_328_);}
	.st352{fill:url(#SVGID_329_);}
	.st353{fill:url(#SVGID_330_);}
	.st354{fill:url(#SVGID_331_);}
	.st355{fill:url(#SVGID_332_);}
	.st356{fill:url(#SVGID_333_);}
	.st357{fill:url(#SVGID_334_);}
	.st358{fill:url(#SVGID_335_);}
	.st359{fill:url(#SVGID_336_);}
	.st360{fill:url(#SVGID_337_);}
	.st361{fill:url(#SVGID_338_);}
	.st362{fill:url(#SVGID_339_);}
	.st363{fill:url(#SVGID_340_);}
	.st364{fill:#C2B69C;}
	.st365{fill:url(#SVGID_341_);}
	.st366{fill:url(#SVGID_342_);}
	.st367{fill:url(#SVGID_343_);}
	.st368{fill:url(#SVGID_344_);}
	.st369{fill:url(#SVGID_345_);}
	.st370{fill:url(#SVGID_346_);}
	.st371{fill:url(#SVGID_347_);}
	.st372{fill:url(#SVGID_348_);}
	.st373{fill:url(#SVGID_349_);}
	.st374{fill:url(#SVGID_350_);}
	.st375{fill:url(#SVGID_351_);}
	.st376{fill:url(#SVGID_352_);}
	.st377{fill:url(#SVGID_353_);}
	.st378{fill:url(#SVGID_354_);}
	.st379{fill:url(#SVGID_355_);}
	.st380{fill:url(#SVGID_356_);}
	.st381{fill:url(#SVGID_357_);}
	.st382{fill:url(#SVGID_358_);}
	.st383{fill:url(#SVGID_359_);}
	.st384{opacity:0.3;}
	.st385{fill:url(#SVGID_360_);}
	.st386{opacity:0.5;}
	.st387{fill:url(#SVGID_361_);}
	.st388{fill:url(#SVGID_362_);}
	.st389{fill:url(#SVGID_363_);}
	.st390{fill:url(#SVGID_364_);}
	.st391{fill-rule:evenodd;clip-rule:evenodd;fill:#2F385E;}
	.st392{fill-rule:evenodd;clip-rule:evenodd;fill:#DCCE9A;}
	.st393{opacity:0.5;fill-rule:evenodd;clip-rule:evenodd;fill:url(#SVGID_365_);}
	.st394{opacity:0.5;fill-rule:evenodd;clip-rule:evenodd;fill:url(#SVGID_366_);}
	.st395{fill:#231F20;}
	.st396{fill:#43B049;}
	.st397{fill:#63B5E5;}
	.st398{fill:#5BBC6E;}
	.st399{fill:#C2B69D;}
	.st400{clip-path:url(#SVGID_368_);}
	.st401{clip-path:url(#SVGID_370_);fill-rule:evenodd;clip-rule:evenodd;}
	.st402{clip-path:url(#SVGID_368_);fill-rule:evenodd;clip-rule:evenodd;fill:#FFFFFF;}
	.st403{clip-path:url(#SVGID_368_);fill:none;stroke:#FFFFFF;stroke-width:0.2002;stroke-linejoin:round;stroke-miterlimit:10;}
	.st404{clip-path:url(#SVGID_368_);fill-rule:evenodd;clip-rule:evenodd;fill:#80C343;}
	.st405{clip-path:url(#SVGID_368_);fill-rule:evenodd;clip-rule:evenodd;fill:#94CA54;}
	.st406{clip-path:url(#SVGID_488_);}
	.st407{clip-path:url(#SVGID_506_);}
	.st408{clip-path:url(#SVGID_368_);fill-rule:evenodd;clip-rule:evenodd;}
	.st409{clip-path:url(#SVGID_368_);fill:none;stroke:#000000;stroke-width:2;stroke-linejoin:round;stroke-miterlimit:10;}
	.st410{clip-path:url(#SVGID_510_);}
	.st411{clip-path:url(#SVGID_512_);fill-rule:evenodd;clip-rule:evenodd;fill:#FFFFFF;}
	.st412{clip-path:url(#SVGID_510_);fill-rule:evenodd;clip-rule:evenodd;fill:#E7F6FD;}
	.st413{clip-path:url(#SVGID_510_);fill-rule:evenodd;clip-rule:evenodd;fill:#33B34A;}
	.st414{clip-path:url(#SVGID_510_);fill-rule:evenodd;clip-rule:evenodd;fill:#231F20;}
	.st415{clip-path:url(#SVGID_510_);fill-rule:evenodd;clip-rule:evenodd;fill:#D9D9D9;}
	.st416{clip-path:url(#SVGID_510_);fill-rule:evenodd;clip-rule:evenodd;fill:#FFFFFF;}
	.st417{clip-path:url(#SVGID_578_);}
	.st418{clip-path:url(#SVGID_582_);}
	.st419{clip-path:url(#SVGID_586_);}
	.st420{clip-path:url(#SVGID_590_);}
	.st421{clip-path:url(#SVGID_594_);}
	.st422{clip-path:url(#SVGID_598_);}
	.st423{clip-path:url(#SVGID_602_);}
	.st424{clip-path:url(#SVGID_606_);}
	.st425{clip-path:url(#SVGID_610_);}
	.st426{clip-path:url(#SVGID_614_);}
	.st427{clip-path:url(#SVGID_618_);}
	.st428{clip-path:url(#SVGID_622_);}
	.st429{clip-path:url(#SVGID_626_);}
	.st430{clip-path:url(#SVGID_630_);}
	.st431{clip-path:url(#SVGID_634_);}
	.st432{clip-path:url(#SVGID_638_);}
	.st433{clip-path:url(#SVGID_642_);}
	.st434{clip-path:url(#SVGID_646_);}
	.st435{clip-path:url(#SVGID_650_);}
	.st436{clip-path:url(#SVGID_654_);}
	.st437{clip-path:url(#SVGID_658_);}
	.st438{clip-path:url(#SVGID_662_);}
	.st439{clip-path:url(#SVGID_666_);}
	.st440{clip-path:url(#SVGID_696_);}
	.st441{clip-path:url(#SVGID_700_);}
	.st442{clip-path:url(#SVGID_510_);fill-rule:evenodd;clip-rule:evenodd;fill:#39BA90;}
	.st443{clip-path:url(#SVGID_722_);}
	.st444{clip-path:url(#SVGID_726_);}
	.st445{clip-path:url(#SVGID_730_);}
	.st446{clip-path:url(#SVGID_734_);}
	.st447{clip-path:url(#SVGID_738_);}
	.st448{clip-path:url(#SVGID_742_);}
	.st449{clip-path:url(#SVGID_746_);}
	.st450{clip-path:url(#SVGID_750_);}
	.st451{clip-path:url(#SVGID_754_);}
	.st452{clip-path:url(#SVGID_758_);}
	.st453{clip-path:url(#SVGID_510_);fill-rule:evenodd;clip-rule:evenodd;fill:#63B5E5;}
	.st454{clip-path:url(#SVGID_510_);fill:none;stroke:#FFFFFF;stroke-width:3;stroke-linejoin:round;stroke-miterlimit:10;}
	.st455{fill:#97999D;}
	.st456{fill:url(#SVGID_853_);}
	.st457{fill:url(#SVGID_854_);}
	.st458{fill:url(#SVGID_855_);}
	.st459{fill:url(#SVGID_856_);}
	.st460{fill:url(#SVGID_857_);}
	.st461{fill:url(#SVGID_858_);}
	.st462{fill:url(#SVGID_859_);}
	.st463{fill:url(#SVGID_860_);}
	.st464{fill:#6AC183;}
	.st465{fill:url(#SVGID_861_);}
	.st466{fill:url(#SVGID_862_);}
	.st467{fill:url(#SVGID_863_);}
	.st468{fill:url(#SVGID_864_);}
	.st469{fill:#CBCCCD;}
	.st470{fill:url(#SVGID_865_);}
	.st471{fill:url(#SVGID_866_);}
	.st472{fill:url(#SVGID_867_);}
	.st473{fill:url(#SVGID_868_);}
	.st474{fill:url(#SVGID_869_);}
	.st475{fill:url(#SVGID_870_);}
	.st476{fill:url(#SVGID_871_);}
	.st477{fill:url(#SVGID_872_);}
	.st478{fill:#38455B;}
	.st479{fill:#39BA90;}
	.st480{clip-path:url(#SVGID_874_);}
	.st481{clip-path:url(#SVGID_876_);fill-rule:evenodd;clip-rule:evenodd;}
	.st482{clip-path:url(#SVGID_874_);fill-rule:evenodd;clip-rule:evenodd;fill:#FFFFFF;}
	.st483{clip-path:url(#SVGID_874_);fill:none;stroke:#FFFFFF;stroke-width:0.2002;stroke-linejoin:round;stroke-miterlimit:10;}
	.st484{clip-path:url(#SVGID_874_);fill-rule:evenodd;clip-rule:evenodd;fill:#80C343;}
	.st485{clip-path:url(#SVGID_874_);fill-rule:evenodd;clip-rule:evenodd;fill:#94CA54;}
	.st486{clip-path:url(#SVGID_994_);}
	.st487{clip-path:url(#SVGID_1012_);}
	.st488{clip-path:url(#SVGID_874_);fill-rule:evenodd;clip-rule:evenodd;}
	.st489{clip-path:url(#SVGID_874_);fill:none;stroke:#000000;stroke-width:2;stroke-linejoin:round;stroke-miterlimit:10;}
	.st490{fill:#435056;}
	.st491{fill:url(#SVGID_1015_);}
	.st492{fill:url(#SVGID_1016_);}
	.st493{fill:url(#SVGID_1017_);}
	.st494{fill:url(#SVGID_1018_);}
	.st495{fill:url(#SVGID_1019_);}
	.st496{fill:url(#SVGID_1020_);}
	.st497{fill:url(#SVGID_1021_);}
	.st498{fill:url(#SVGID_1022_);}
	.st499{opacity:0.5;fill:#2F385E;}
	.st500{fill:url(#SVGID_1023_);}
	.st501{fill:url(#SVGID_1024_);}
	.st502{fill:url(#SVGID_1025_);}
	.st503{fill:url(#SVGID_1026_);}
	.st504{fill-rule:evenodd;clip-rule:evenodd;fill:#80C343;}
	.st505{fill:none;stroke:#FFFFFF;stroke-miterlimit:10;}
	.st506{fill:none;stroke:#2F385E;stroke-miterlimit:10;}
	.st507{fill:#2A323A;}
	.st508{fill:#323B45;}
	.st509{fill:url(#SVGID_1027_);}
	.st510{fill:url(#SVGID_1028_);}
	.st511{fill:url(#SVGID_1029_);}
	.st512{fill:url(#SVGID_1030_);}
	.st513{clip-path:url(#SVGID_1032_);}
	.st514{clip-path:url(#SVGID_1034_);fill-rule:evenodd;clip-rule:evenodd;}
	.st515{clip-path:url(#SVGID_1032_);fill-rule:evenodd;clip-rule:evenodd;fill:#FFFFFF;}
	.st516{clip-path:url(#SVGID_1032_);fill:none;stroke:#FFFFFF;stroke-width:0.2002;stroke-linejoin:round;stroke-miterlimit:10;}
	.st517{clip-path:url(#SVGID_1032_);fill-rule:evenodd;clip-rule:evenodd;fill:#80C343;}
	.st518{clip-path:url(#SVGID_1032_);fill-rule:evenodd;clip-rule:evenodd;fill:#94CA54;}
	.st519{clip-path:url(#SVGID_1152_);}
	.st520{clip-path:url(#SVGID_1170_);}
	.st521{clip-path:url(#SVGID_1032_);fill-rule:evenodd;clip-rule:evenodd;}
	.st522{clip-path:url(#SVGID_1032_);fill:none;stroke:#000000;stroke-width:2;stroke-linejoin:round;stroke-miterlimit:10;}
	.st523{fill:url(#SVGID_1173_);}
	.st524{fill:url(#SVGID_1174_);}
	.st525{fill:url(#SVGID_1175_);}
	.st526{fill:url(#SVGID_1176_);}
	.st527{fill:#49C1EB;}
	.st528{fill:#32353C;}
	.st529{fill:#383D47;}
	.st530{fill:#464A54;}
	.st531{fill:#72BC7A;}
	.st532{fill:url(#SVGID_1177_);}
	.st533{fill:url(#SVGID_1178_);}
	.st534{fill:#3BB5A5;}
	.st535{fill:url(#SVGID_1179_);}
	.st536{fill:url(#SVGID_1180_);}
	.st537{fill:url(#SVGID_1181_);}
	.st538{fill:url(#SVGID_1182_);}
	.st539{fill:url(#SVGID_1183_);}
	.st540{fill:url(#SVGID_1184_);}
	.st541{fill:#272A32;}
</style>
<g>
	<g>
		<path class="st531" d="M5,87.4l0.4,1.4h0.1l3.7-10.3h1.5L5.4,92.6c-0.3,0.8-0.7,1.5-1.2,2.1C3.7,95.3,3,95.6,2,95.6
			c-0.2,0-0.3,0-0.6-0.1c-0.2,0-0.4-0.1-0.5-0.1l0.2-1.1c0.1,0,0.2,0,0.4,0.1c0.2,0,0.3,0,0.4,0c0.6,0,1.1-0.2,1.4-0.6
			c0.4-0.4,0.7-0.9,0.9-1.6l0.6-1.6l-4.7-12h1.5L5,87.4z"/>
		<path class="st531" d="M37.6,87.6c0-0.6-0.2-1.1-0.7-1.5c-0.5-0.4-1.3-0.8-2.5-1c-1.5-0.3-2.5-0.7-3.2-1.2c-0.7-0.5-1-1.2-1-2.2
			c0-0.9,0.4-1.7,1.2-2.4c0.8-0.6,1.8-1,3.1-1c1.4,0,2.5,0.3,3.3,1c0.8,0.7,1.2,1.5,1.1,2.5l0,0.1h-1.2c0-0.7-0.3-1.2-0.8-1.7
			c-0.6-0.5-1.3-0.7-2.3-0.7c-1,0-1.7,0.2-2.2,0.6c-0.5,0.4-0.7,0.9-0.7,1.5c0,0.6,0.2,1,0.6,1.4c0.4,0.4,1.3,0.7,2.5,1
			c1.4,0.3,2.5,0.8,3.2,1.3c0.7,0.6,1.1,1.3,1.1,2.3c0,1-0.4,1.8-1.2,2.5c-0.8,0.6-1.9,0.9-3.2,0.9c-1.5,0-2.6-0.4-3.5-1.1
			c-0.8-0.7-1.2-1.5-1.2-2.5l0-0.1H31c0.1,0.9,0.4,1.5,1.1,1.9c0.7,0.4,1.4,0.6,2.3,0.6c1,0,1.7-0.2,2.3-0.6
			C37.3,88.7,37.6,88.2,37.6,87.6z"/>
		<path class="st531" d="M53.5,84.9c0-1.9-0.4-3.4-1.2-4.6c-0.8-1.1-1.9-1.7-3.4-1.7h-0.6c-1.4,0-2.4,0.5-3.2,1.5v-1.5h-1.3v6v0.2
			v10.8H45v-6.1c0.8,1,1.9,1.6,3.2,1.6h0.6c1.4,0,2.5-0.5,3.4-1.6c0.8-1.1,1.2-2.5,1.2-4.3V84.9C53.5,84.9,53.5,84.9,53.5,84.9
			L53.5,84.9z M51.2,88.6c-0.5,0.8-1.3,1.2-2.3,1.3c0,0-0.2,0-0.3,0c-0.1,0-0.3,0-0.3,0c-1-0.1-1.8-0.6-2.3-1.4
			c-0.6-0.9-0.9-2.1-0.9-3.6l0-0.3c0-1.5,0.3-2.6,0.9-3.5c0.5-0.8,1.3-1.2,2.3-1.3c0,0,0.2,0,0.3,0c0.1,0,0.3,0,0.3,0
			c1,0.1,1.8,0.6,2.3,1.4c0.6,0.9,0.9,2.1,0.9,3.6h0c0,0,0,0.3,0,0.3C52.1,86.6,51.8,87.8,51.2,88.6z"/>
	</g>
	<path class="st531" d="M23.6,78.6V86v0.3v0c0,1.8-1.5,3.3-3.3,3.3c-1.8,0-3.3-1.5-3.3-3.3v0v-0.4v-7.3h-1.3v7.7c0,0,0,0,0,0h0
		c0,0,0,0,0,0c0,2.6,2.1,4.7,4.7,4.7c2.6,0,4.6-2.1,4.6-4.6h0v-7.8H23.6z"/>
</g>
<g>
	<g>
		<path class="st531" d="M52.4,53.3c-0.7-0.7-1.5-1-2.5-1s-1.8,0.3-2.5,1c-0.7,0.7-1,1.5-1,2.5c0,1,0.3,1.8,1,2.5
			c0.7,0.7,1.5,1,2.5,1s1.8-0.3,2.5-1c0.7-0.7,1-1.5,1-2.5C53.5,54.8,53.1,53.9,52.4,53.3z M52.4,55.8c0,0.7-0.2,1.3-0.7,1.8
			c-0.5,0.5-1.1,0.7-1.8,0.7s-1.3-0.2-1.8-0.7c-0.5-0.5-0.7-1.1-0.7-1.8c0-0.7,0.2-1.3,0.7-1.8c0.5-0.5,1.1-0.7,1.8-0.7
			c0.7,0,1.3,0.2,1.8,0.7C52.2,54.5,52.4,55.1,52.4,55.8z"/>
		<path class="st531" d="M51.2,54.2c-0.3-0.3-0.8-0.4-1.3-0.4c-0.6,0-1.1,0.2-1.5,0.6c-0.4,0.4-0.6,0.9-0.6,1.4c0,0.6,0.2,1,0.6,1.4
			c0.4,0.4,0.9,0.6,1.5,0.6c0.5,0,0.9-0.1,1.3-0.4c0.3-0.3,0.6-0.6,0.6-1l0-0.2h-1.1l0,0.1c0,0.2-0.1,0.3-0.3,0.4
			c-0.2,0.1-0.3,0.1-0.5,0.1c-0.3,0-0.5-0.1-0.7-0.3c-0.2-0.2-0.3-0.5-0.3-0.8c0-0.3,0.1-0.5,0.3-0.8c0.2-0.2,0.4-0.3,0.7-0.3
			c0.2,0,0.4,0,0.5,0.1c0.2,0.1,0.2,0.2,0.3,0.4l0,0.1h1.1l0-0.2C51.7,54.8,51.5,54.4,51.2,54.2z"/>
	</g>
	<linearGradient id="SVGID_1_" gradientUnits="userSpaceOnUse" x1="23.5027" y1="14.1154" x2="46.4041" y2="14.1154">
		<stop  offset="0" style="stop-color:#3186C8;stop-opacity:0"/>
		<stop  offset="1" style="stop-color:#49C1EB"/>
	</linearGradient>
	<polygon class="st1" points="46.4,13.6 46.4,5.4 23.5,18.7 30.5,22.8 	"/>
	<linearGradient id="SVGID_2_" gradientUnits="userSpaceOnUse" x1="49.9151" y1="5.4824" x2="49.9151" y2="29.1695">
		<stop  offset="0" style="stop-color:#4D4F9D;stop-opacity:0"/>
		<stop  offset="0.8216" style="stop-color:#49C1EB;stop-opacity:0.974"/>
		<stop  offset="1" style="stop-color:#49C1EB"/>
	</linearGradient>
	<polygon class="st2" points="46.4,29.1 49.9,29.1 53.4,29.2 53.4,9.3 46.4,5.5 46.4,13.4 	"/>
	<polygon class="st534" points="53.4,40.1 49.9,42.2 46.8,40.3 46.4,29.8 53.4,29.8 	"/>
	<linearGradient id="SVGID_3_" gradientUnits="userSpaceOnUse" x1="24.9889" y1="71.1166" x2="24.9889" y2="13.5754">
		<stop  offset="0" style="stop-color:#72BC7A"/>
		<stop  offset="1" style="stop-color:#49C1EB"/>
	</linearGradient>
	<polygon class="st4" points="42.9,38.1 49.9,42.2 0.1,71.1 0.1,13.9 0.6,13.6 7.1,17.3 7.1,58.9 	"/>
	<linearGradient id="SVGID_4_" gradientUnits="userSpaceOnUse" x1="0.6013" y1="24.8255" x2="46.4041" y2="24.8255">
		<stop  offset="0" style="stop-color:#3186C8;stop-opacity:0"/>
		<stop  offset="1" style="stop-color:#49C1EB"/>
	</linearGradient>
	<polyline class="st5" points="0.6,13.6 46.4,40.1 46.4,32 7.6,9.5 0.6,13.6 	"/>
	<polyline class="st527" points="46.4,40.1 49.9,42.2 53.4,40.1 53.4,28.5 46.4,28.5 46.4,40.1 	"/>
</g>
</svg>
