<?xml version="1.0" encoding="utf-8"?>
<!-- Generator: Adobe Illustrator 20.0.0, SVG Export Plug-In . SVG Version: 6.00 Build 0)  -->
<svg version="1.1" id="Layer_1" xmlns="http://www.w3.org/2000/svg" xmlns:xlink="http://www.w3.org/1999/xlink" x="0px" y="0px"
	 viewBox="0 0 137.7 172.2" style="enable-background:new 0 0 137.7 172.2;" xml:space="preserve">
<style type="text/css">
	.st0{fill:url(#SVGID_1_);}
	.st1{fill:url(#SVGID_2_);}
	.st2{fill:url(#SVGID_3_);}
	.st3{fill:#00C6AD;}
	.st4{fill:url(#SVGID_4_);}
	.st5{fill:url(#SVGID_5_);}
</style>
<linearGradient id="SVGID_1_" gradientUnits="userSpaceOnUse" x1="117.435" y1="204.6459" x2="61.5" y2="204.6459" gradientTransform="matrix(1 0 0 -1 0 231.89)">
	<stop  offset="0.1173" style="stop-color:#00C6AD"/>
	<stop  offset="1" style="stop-color:#3E46D7"/>
</linearGradient>
<polygon class="st0" points="117.4,25.1 115.9,6.6 61.5,38.2 78.2,47.9 "/>
<g>
	<g>
		
			<linearGradient id="SVGID_2_" gradientUnits="userSpaceOnUse" x1="112.5535" y1="186.5404" x2="13.623" y2="169.0963" gradientTransform="matrix(1 0 0 -1 0 231.89)">
			<stop  offset="0" style="stop-color:#00C6AD"/>
			<stop  offset="0.3619" style="stop-color:#2CE5B5"/>
			<stop  offset="1" style="stop-color:#4275F4"/>
		</linearGradient>
		<polygon class="st1" points="116.9,89.4 7.1,25.8 23.7,16.2 116.9,70 		"/>
		
			<linearGradient id="SVGID_3_" gradientUnits="userSpaceOnUse" x1="124.3" y1="225.29" x2="124.3" y2="166.39" gradientTransform="matrix(1 0 0 -1 0 231.89)">
			<stop  offset="9.693876e-02" style="stop-color:#2CE5B5"/>
			<stop  offset="0.815" style="stop-color:#00C6AD"/>
		</linearGradient>
		<polygon class="st2" points="115.9,65.4 124.3,65.4 132.7,65.5 132.6,15.7 115.9,6.6 115.9,25.5 		"/>
		<polygon class="st3" points="132.7,88.9 124.3,93.8 116.9,89.4 115.9,64.5 132.7,64.5 		"/>
		
			<linearGradient id="SVGID_4_" gradientUnits="userSpaceOnUse" x1="5.8" y1="137.69" x2="124.3" y2="137.69" gradientTransform="matrix(1 0 0 -1 0 231.89)">
			<stop  offset="0" style="stop-color:#2CE5B5"/>
			<stop  offset="0.305" style="stop-color:#00C6AD"/>
			<stop  offset="1" style="stop-color:#3E46D7"/>
		</linearGradient>
		<polygon class="st4" points="107.6,84.1 124.3,93.8 5.8,162.6 5.8,26.6 7.1,25.8 22.5,34.8 22.5,133.5 		"/>
		
			<linearGradient id="SVGID_5_" gradientUnits="userSpaceOnUse" x1="115.9" y1="179.34" x2="7.1" y2="179.34" gradientTransform="matrix(1 0 0 -1 0 231.89)">
			<stop  offset="0" style="stop-color:#00C6AD"/>
			<stop  offset="3.202707e-03" style="stop-color:#01C6AD"/>
			<stop  offset="0.1417" style="stop-color:#19D7B1"/>
			<stop  offset="0.2701" style="stop-color:#27E1B4"/>
			<stop  offset="0.3781" style="stop-color:#2CE5B5"/>
			<stop  offset="0.5063" style="stop-color:#2FD3BF"/>
			<stop  offset="0.7614" style="stop-color:#39A5D9"/>
			<stop  offset="1" style="stop-color:#4275F4"/>
		</linearGradient>
		<polyline class="st5" points="7.1,25.8 115.9,88.9 115.9,69.6 23.7,16.2 7.1,25.8 		"/>
		<polyline class="st3" points="115.9,88.9 124.3,93.8 132.7,88.9 132.7,61.2 115.9,61.2 115.9,88.9 		"/>
	</g>
</g>
</svg>
