<!-- Generator: Adobe Illustrator 21.1.0, SVG Export Plug-In  -->
<svg version="1.0"
	 xmlns="http://www.w3.org/2000/svg" xmlns:xlink="http://www.w3.org/1999/xlink" xmlns:a="http://ns.adobe.com/AdobeSVGViewerExtensions/3.0/"
	 x="0px" y="0px" width="182px" height="351px" viewBox="0 0 182 351" style="overflow:scroll;enable-background:new 0 0 182 351;"
	 xml:space="preserve">
<defs>
</defs>
<linearGradient id="SVGID_1_" gradientUnits="userSpaceOnUse" x1="63.1278" y1="321.4064" x2="179.6574" y2="1.2439">
	<stop  offset="0" style="stop-color:#00C6AD"/>
	<stop  offset="1" style="stop-color:#65C08A;stop-opacity:0.3"/>
</linearGradient>
<path style="fill:url(#SVGID_1_);" d="M175,337L175,337c-89-0.3-161-72.5-161-161.5S86,14.3,175,14v0c3.9,0,7-3.1,7-7
	c0-3.9-3.1-7-7-7c-0.1,0-0.1,0-0.2,0C78.2,0.4,0,78.8,0,175.5S78.2,350.6,174.8,351c0.1,0,0.1,0,0.2,0c3.9,0,7-3.1,7-7
	C182,340.1,178.9,337,175,337z"/>
</svg>
