<svg xmlns="http://www.w3.org/2000/svg" xmlns:xlink="http://www.w3.org/1999/xlink" viewBox="0 0 179.87 135.87"><defs><style>.cls-1{isolation:isolate;}.cls-2{fill:#ebeded;}.cls-3,.cls-7{opacity:0.7;}.cls-3{fill:url(#linear-gradient);}.cls-4{fill:#f6f7f7;}.cls-5{fill:#96d6da;}.cls-6{fill:#c0e5ea;}.cls-7{fill:#221f1f;}.cls-7,.cls-8,.cls-9{mix-blend-mode:multiply;}.cls-8{fill:url(#linear-gradient-2);}.cls-9{fill:url(#linear-gradient-3);}</style><linearGradient id="linear-gradient" x1="121.45" y1="80.96" x2="80.9" y2="80.96" gradientUnits="userSpaceOnUse"><stop offset="0" stop-color="#231f20" stop-opacity="0"/><stop offset="1" stop-color="#231f20"/></linearGradient><linearGradient id="linear-gradient-2" x1="6379.06" y1="2129.06" x2="6365.31" y2="2099.61" gradientUnits="userSpaceOnUse"><stop offset="0" stop-color="#6fcbdc"/><stop offset="1" stop-color="#f2f2f2"/></linearGradient><linearGradient id="linear-gradient-3" x1="100.77" y1="56.5" x2="99.48" y2="53.75" gradientUnits="userSpaceOnUse"><stop offset="0" stop-color="#b3b2b3"/><stop offset="0.86" stop-color="#fff"/><stop offset="0.92" stop-color="#fff"/></linearGradient></defs><g class="cls-1"><g id="Layer_4" data-name="Layer 4"><polygon id="_Path_" data-name="&lt;Path&gt;" class="cls-2" points="0 76.14 77.21 31.86 179.87 91.13 101.86 135.87 0 76.14"/><polygon class="cls-3" points="80.9 96.83 121.45 87.92 87.91 65.09 80.9 96.83"/><g id="_Group_" data-name="&lt;Group&gt;"><g id="_Group_2" data-name="&lt;Group&gt;"><path id="_Path_2" data-name="&lt;Path&gt;" class="cls-4" d="M6363.83,2135.84c-1-.47-2.08-.34-2.36.28l-4.15,9.09c-.28.62.3,1.49,1.34,2s2.08.34,2.36-.28l4.15-9.09C6365.45,2137.18,6364.87,2136.31,6363.83,2135.84Z" transform="translate(-6260.73 -2088.95)"/><path id="_Path_3" data-name="&lt;Path&gt;" class="cls-5" d="M6384.88,2089.69c-3.5-1.6-7.27-.51-8.58,2.35l-19.19,42.07c-1.31,2.86.35,6.42,3.85,8s7.27.51,8.58-2.35l19.19-42.07C6390,2094.84,6388.38,2091.28,6384.88,2089.69Z" transform="translate(-6260.73 -2088.95)"/><path id="_Path_4" data-name="&lt;Path&gt;" class="cls-6" d="M6345.07,2138.61l28.87,13.17a2.78,2.78,0,0,1,.47,4.78l-31,29.28a2.78,2.78,0,0,1-4.39-2l2.1-42.46A2.78,2.78,0,0,1,6345.07,2138.61Z" transform="translate(-6260.73 -2088.95)"/><path id="_Path_5" data-name="&lt;Path&gt;" class="cls-7" d="M6355.54,2148.66s.91,3.56,3.69,1.69l-14.82,28Z" transform="translate(-6260.73 -2088.95)"/><path id="_Path_6" data-name="&lt;Path&gt;" class="cls-8" d="M6384.88,2089.69c-3.5-1.6-7.27-.51-8.58,2.35l-19.19,42.07c-1.31,2.86.35,6.42,3.85,8s7.27.51,8.58-2.35l19.19-42.07C6390,2094.84,6388.38,2091.28,6384.88,2089.69Z" transform="translate(-6260.73 -2088.95)"/></g><polyline id="_Path_7" data-name="&lt;Path&gt;" class="cls-9" points="97.34 54.2 100.48 57.16 101.96 54.02"/></g></g></g></svg>