<svg xmlns="http://www.w3.org/2000/svg" xmlns:xlink="http://www.w3.org/1999/xlink" viewBox="0 0 179.87 117.87"><defs><style>.cls-1{isolation:isolate;}.cls-2{fill:#ebeded;}.cls-3{opacity:0.2;fill:url(#linear-gradient);}.cls-4{fill:#e5e5e4;}.cls-5{fill:#d5d5d5;}.cls-6{fill:#efeeee;}.cls-11,.cls-7{fill:none;stroke-miterlimit:10;}.cls-7{stroke:#7d7d7d;}.cls-8{fill:#96d6da;}.cls-8,.cls-9{mix-blend-mode:multiply;}.cls-9{fill:#b1b2b1;}.cls-10{fill:#eef7f7;}.cls-11{stroke:#eef7f7;}</style><linearGradient id="linear-gradient" x1="77" y1="87.87" x2="118.9" y2="37.93" gradientUnits="userSpaceOnUse"><stop offset="0" stop-color="#231f20" stop-opacity="0.3"/><stop offset="1" stop-color="#231f20"/></linearGradient></defs><g class="cls-1"><g id="Layer_4" data-name="Layer 4"><polygon id="_Path_" data-name="&lt;Path&gt;" class="cls-2" points="0 58.14 77.21 13.86 179.87 73.13 101.86 117.87 0 58.14"/><polygon class="cls-3" points="60.8 74.27 65.99 74.27 76.4 83.28 135.1 51.53 115.96 40.48 60.8 74.27"/><g id="_Group_" data-name="&lt;Group&gt;"><polygon id="_Path_2" data-name="&lt;Path&gt;" class="cls-4" points="68.6 24.71 99.82 6.68 107.62 47.24 60.8 74.27 68.6 24.71"/><polygon id="_Path_3" data-name="&lt;Path&gt;" class="cls-4" points="76.4 83.28 68.6 24.71 60.8 74.27 68.25 72.03 76.4 83.28"/><polygon id="_Path_4" data-name="&lt;Path&gt;" class="cls-4" points="76.4 83.28 109.59 64.12 107.62 47.24 73.7 62.98 76.4 83.28"/><polygon id="_Path_5" data-name="&lt;Path&gt;" class="cls-4" points="67.13 15.7 95.78 0 99.82 6.68 68.12 27.8 67.13 15.7"/><polygon id="_Path_6" data-name="&lt;Path&gt;" class="cls-5" points="68.25 72.03 68.12 27.8 60.8 74.27 68.25 72.03"/><polygon id="_Path_7" data-name="&lt;Path&gt;" class="cls-6" points="68.6 24.71 76.4 83.28 68.25 72.03 68.6 24.71"/><polygon id="_Path_8" data-name="&lt;Path&gt;" class="cls-6" points="102.99 25.94 93.7 34.68 104.66 31.86 102.99 25.94"/><polygon id="_Path_9" data-name="&lt;Path&gt;" class="cls-6" points="73.36 59.76 86.67 58.28 73.36 62.98 73.36 59.76"/><line id="_Path_10" data-name="&lt;Path&gt;" class="cls-7" x1="69.31" y1="15.3" x2="71.03" y2="20.2"/><line id="_Path_11" data-name="&lt;Path&gt;" class="cls-7" x1="72.32" y1="12.86" x2="75.12" y2="17.75"/><line id="_Path_12" data-name="&lt;Path&gt;" class="cls-7" x1="76.52" y1="10.56" x2="79.11" y2="16.94"/><line id="_Path_13" data-name="&lt;Path&gt;" class="cls-7" x1="79.11" y1="9.14" x2="81.63" y2="15.69"/><line id="_Path_14" data-name="&lt;Path&gt;" class="cls-7" x1="83.47" y1="7.11" x2="85.25" y2="13.9"/><line id="_Path_15" data-name="&lt;Path&gt;" class="cls-7" x1="86.76" y1="4.95" x2="89.31" y2="12.42"/><line id="_Path_16" data-name="&lt;Path&gt;" class="cls-7" x1="89.31" y1="3.74" x2="92.11" y2="10.5"/><line id="_Path_17" data-name="&lt;Path&gt;" class="cls-7" x1="92.11" y1="2.23" x2="97.11" y2="7.12"/><line id="_Path_18" data-name="&lt;Path&gt;" class="cls-7" x1="90.71" y1="2.93" x2="94.86" y2="9.14"/><polygon id="_Path_19" data-name="&lt;Path&gt;" class="cls-8" points="107.62 47.24 99.82 6.68 95.78 0 67.13 15.7 68.11 27.79 60.8 74.27 68.25 72.03 68.24 69.97 68.26 69.96 68.25 72.03 76.4 83.28 74.17 66.55 74.17 66.55 76.4 83.28 109.59 64.12 107.62 47.24"/><polygon id="_Path_20" data-name="&lt;Path&gt;" class="cls-9" points="68.25 22.06 99.82 6.68 95.78 0 67.13 15.7 68.25 22.06"/><ellipse id="_Path_21" data-name="&lt;Path&gt;" class="cls-10" cx="90.76" cy="42.96" rx="1.02" ry="1.19"/><ellipse id="_Path_22" data-name="&lt;Path&gt;" class="cls-11" cx="90.74" cy="42.95" rx="2.22" ry="2.59"/><ellipse id="_Path_23" data-name="&lt;Path&gt;" class="cls-10" cx="97.86" cy="46.76" rx="1.02" ry="1.19"/><ellipse id="_Path_24" data-name="&lt;Path&gt;" class="cls-11" cx="97.85" cy="46.75" rx="2.22" ry="2.59"/><ellipse id="_Path_25" data-name="&lt;Path&gt;" class="cls-10" cx="86.91" cy="49.87" rx="1.02" ry="1.19"/><ellipse id="_Path_26" data-name="&lt;Path&gt;" class="cls-11" cx="86.9" cy="49.86" rx="2.22" ry="2.59"/><path id="_Path_27" data-name="&lt;Path&gt;" class="cls-11" d="M6439.78,2106.64l-2.82,11.1a71.5,71.5,0,0,0-2.22-13.24" transform="translate(-6344 -2058.97)"/><line id="_Path_28" data-name="&lt;Path&gt;" class="cls-11" x1="88.35" y1="51.53" x2="92.96" y2="58.77"/><line id="_Path_29" data-name="&lt;Path&gt;" class="cls-11" x1="88.53" y1="61.57" x2="97.86" y2="57.83"/></g></g></g></svg>