<svg xmlns="http://www.w3.org/2000/svg" xmlns:xlink="http://www.w3.org/1999/xlink" viewBox="0 0 854.38 763.02"><defs><style>.cls-1{isolation:isolate;}.cls-2{fill:#ebeded;}.cls-3,.cls-4{fill:#98d6da;}.cls-4{opacity:0.41;}.cls-5{opacity:0.5;fill:url(#linear-gradient);}.cls-15,.cls-20,.cls-21,.cls-23,.cls-24,.cls-26,.cls-27,.cls-32,.cls-33,.cls-34,.cls-36,.cls-37,.cls-38,.cls-45,.cls-46,.cls-5,.cls-7{mix-blend-mode:multiply;}.cls-10,.cls-39,.cls-44,.cls-48,.cls-6{fill:none;stroke-miterlimit:10;}.cls-6{stroke:#fff;}.cls-43,.cls-7{fill:#efeeee;}.cls-8{opacity:0.21;fill:url(#linear-gradient-2);}.cls-13,.cls-9{fill:#636968;}.cls-10{stroke:#595b5c;}.cls-11{fill:#9dd8d9;}.cls-12{fill:#595b5c;opacity:0.15;}.cls-13{opacity:0.48;}.cls-14{fill:#5b5b5c;}.cls-15{fill:#dcddd8;}.cls-16{fill:#cecdc9;}.cls-17{fill:#2fe0e0;}.cls-18{opacity:0.59;fill:url(#linear-gradient-3);}.cls-19{fill:url(#linear-gradient-4);}.cls-20{fill:url(#linear-gradient-5);}.cls-21{fill:#9f9fa0;}.cls-22{fill:#cbdff7;}.cls-23,.cls-38{opacity:0.76;}.cls-23{fill:url(#linear-gradient-6);}.cls-24{fill:#2070b2;}.cls-25{fill:#e8ecef;opacity:0.45;}.cls-26{fill:#c8ccce;}.cls-27{fill:#5193bc;opacity:0.29;}.cls-28,.cls-32{opacity:0.7;}.cls-28{fill:url(#linear-gradient-7);}.cls-29{fill:#f6f7f7;}.cls-30,.cls-45{fill:#96d6da;}.cls-31{fill:#c0e5ea;}.cls-32{fill:#221f1f;}.cls-33{fill:url(#linear-gradient-8);}.cls-34{fill:url(#linear-gradient-9);}.cls-35{opacity:0.3;fill:url(#linear-gradient-10);}.cls-36{fill:#bdc0c0;}.cls-37{fill:#a9a9a9;opacity:0.23;}.cls-38{fill:url(#linear-gradient-11);}.cls-39{stroke:#edeeee;}.cls-40{opacity:0.2;fill:url(#linear-gradient-12);}.cls-41{fill:#e5e5e4;}.cls-42{fill:#d5d5d5;}.cls-44{stroke:#7d7d7d;}.cls-46{fill:#b1b2b1;}.cls-47{fill:#eef7f7;}.cls-48{stroke:#eef7f7;}</style><linearGradient id="linear-gradient" x1="6459.21" y1="2589.74" x2="6489.56" y2="2690.84" gradientUnits="userSpaceOnUse"><stop offset="0" stop-color="#fff"/><stop offset="1" stop-color="#b3b2b3"/></linearGradient><linearGradient id="linear-gradient-2" x1="6467.32" y1="2621.54" x2="6444.11" y2="2697.93" gradientUnits="userSpaceOnUse"><stop offset="0" stop-color="#fff"/><stop offset="0.16" stop-color="#fcfcfc"/><stop offset="0.28" stop-color="#f1f1f1"/><stop offset="0.41" stop-color="#e0e0e0"/><stop offset="0.52" stop-color="#c8c8c8"/><stop offset="0.63" stop-color="#a8a8a8"/><stop offset="0.74" stop-color="#818181"/><stop offset="0.84" stop-color="#535353"/><stop offset="0.95" stop-color="#1f1f1f"/><stop offset="1"/></linearGradient><linearGradient id="linear-gradient-3" x1="5995.89" y1="2395.91" x2="6120.88" y2="2395.91" gradientUnits="userSpaceOnUse"><stop offset="0" stop-color="gray"/><stop offset="0.99" stop-color="#e3df7f"/></linearGradient><linearGradient id="linear-gradient-4" x1="6017.95" y1="2360.31" x2="6047.15" y2="2380.24" gradientUnits="userSpaceOnUse"><stop offset="0" stop-color="#0071bc"/><stop offset="1" stop-color="#0048bc"/></linearGradient><linearGradient id="linear-gradient-5" x1="6016.72" y1="2359.6" x2="6049.55" y2="2382.01" gradientUnits="userSpaceOnUse"><stop offset="0" stop-color="#4275f4"/><stop offset="1" stop-color="#3e46d7"/></linearGradient><linearGradient id="linear-gradient-6" x1="5995.85" y1="2410.61" x2="6062.84" y2="2410.61" gradientUnits="userSpaceOnUse"><stop offset="0" stop-color="#0071bc"/><stop offset="0.99" stop-color="#e3df7f"/></linearGradient><linearGradient id="linear-gradient-7" x1="417.23" y1="153.18" x2="376.68" y2="153.18" gradientUnits="userSpaceOnUse"><stop offset="0" stop-color="#231f20" stop-opacity="0"/><stop offset="1" stop-color="#231f20"/></linearGradient><linearGradient id="linear-gradient-8" x1="6379.06" y1="2129.06" x2="6365.31" y2="2099.61" gradientUnits="userSpaceOnUse"><stop offset="0" stop-color="#6fcbdc"/><stop offset="1" stop-color="#f2f2f2"/></linearGradient><linearGradient id="linear-gradient-9" x1="396.54" y1="128.72" x2="395.26" y2="125.97" gradientUnits="userSpaceOnUse"><stop offset="0" stop-color="#b3b2b3"/><stop offset="0.86" stop-color="#fff"/><stop offset="0.92" stop-color="#fff"/></linearGradient><linearGradient id="linear-gradient-10" x1="592.88" y1="40.48" x2="582.04" y2="70.26" gradientUnits="userSpaceOnUse"><stop offset="0.08" stop-color="#231f20" stop-opacity="0"/><stop offset="1" stop-color="#231f20"/></linearGradient><linearGradient id="linear-gradient-11" x1="6484.44" y1="2079.79" x2="6533.35" y2="2065.65" xlink:href="#linear-gradient-9"/><linearGradient id="linear-gradient-12" x1="456.05" y1="130.11" x2="497.95" y2="80.17" gradientUnits="userSpaceOnUse"><stop offset="0" stop-color="#231f20" stop-opacity="0.3"/><stop offset="1" stop-color="#231f20"/></linearGradient></defs><g class="cls-1"><g id="Layer_4" data-name="Layer 4"><polygon id="_Path_" data-name="&lt;Path&gt;" class="cls-2" points="414.99 653.69 493.55 608.33 603.53 671.84 524.12 717.69 414.99 653.69"/><path id="_Path_2" data-name="&lt;Path&gt;" class="cls-3" d="M6478.1,2559.18s-27.2,31.23-26.19,133l52.39-30.22S6508.32,2575.3,6478.1,2559.18Z" transform="translate(-5964.95 -2016.73)"/><path id="_Path_3" data-name="&lt;Path&gt;" class="cls-4" d="M6504.24,2661.33l-52.07,27.8q-.13,12.54.31,23.67l36.6,21.62,16-9.12A577.68,577.68,0,0,0,6504.24,2661.33Z" transform="translate(-5964.95 -2016.73)"/><path id="_Path_4" data-name="&lt;Path&gt;" class="cls-5" d="M6477.85,2558.67s-27.2,31.23-26.19,133l52.39-30.22S6508.07,2574.79,6477.85,2558.67Z" transform="translate(-5964.95 -2016.73)"/><path id="_Path_5" data-name="&lt;Path&gt;" class="cls-6" d="M6459.43,2696.46s41.18-8.31,47.6-29.09" transform="translate(-5964.95 -2016.73)"/><path id="_Path_6" data-name="&lt;Path&gt;" class="cls-6" d="M6474.54,2699.49s27.92-5.82,36.64-22.39" transform="translate(-5964.95 -2016.73)"/><path id="_Path_7" data-name="&lt;Path&gt;" class="cls-7" d="M6480.59,2580.86s9.82,65-2.64,96.33l8.31-4.53S6491.17,2611.84,6480.59,2580.86Z" transform="translate(-5964.95 -2016.73)"/><path id="_Path_8" data-name="&lt;Path&gt;" class="cls-8" d="M6478.6,2558.67l.47,5.19s-28,68.38-18.13,122.78l-8.53,5S6451.31,2588.24,6478.6,2558.67Z" transform="translate(-5964.95 -2016.73)"/><path id="_Path_9" data-name="&lt;Path&gt;" class="cls-6" d="M6450.37,2665.11s-7.18,4.91-9.44,12.09" transform="translate(-5964.95 -2016.73)"/><polygon id="_Path_10" data-name="&lt;Path&gt;" class="cls-2" points="665.83 698.03 744.39 652.67 854.38 716.17 774.96 762.02 665.83 698.03"/><g id="_Group_" data-name="&lt;Group&gt;"><path id="_Path_11" data-name="&lt;Path&gt;" class="cls-9" d="M6719.84,2656.94s-28.12,17.11-27.71,35l6.52,42.78,48.9-28.52.81-39.93S6745.1,2650.42,6719.84,2656.94Z" transform="translate(-5964.95 -2016.73)"/><polygon id="_Path_12" data-name="&lt;Path&gt;" class="cls-9" points="744.65 638.29 744.7 650.39 764.67 641.84 763.29 633.52 744.65 638.29"/><path id="_Path_13" data-name="&lt;Path&gt;" class="cls-9" d="M6700.84,2679.3l4.31,1.69a4.48,4.48,0,0,1,2.56,5.74l-20.23,54.08a4.48,4.48,0,0,1-2.26,2.47h0a4.47,4.47,0,0,1-6.35-4.8c2.63-15.06,8.78-45.92,16.66-57.57A4.45,4.45,0,0,1,6700.84,2679.3Z" transform="translate(-5964.95 -2016.73)"/><path id="_Path_14" data-name="&lt;Path&gt;" class="cls-9" d="M6746.92,2664l19.44,23.61a6.14,6.14,0,0,1-1.24,9h0a6.14,6.14,0,0,1-8.12-1.08l-12.9-15a6.14,6.14,0,0,1-.39-7.49l.07-.11C6746.1,2669.57,6744.31,2660.89,6746.92,2664Z" transform="translate(-5964.95 -2016.73)"/><path id="_Path_15" data-name="&lt;Path&gt;" class="cls-10" d="M6710.47,2663.86s16.3,5.7,18.74-7.74" transform="translate(-5964.95 -2016.73)"/><path id="_Path_16" data-name="&lt;Path&gt;" class="cls-10" d="M6697.84,2678.12s15.48,5.7-.81,37.9" transform="translate(-5964.95 -2016.73)"/><polygon id="_Path_17" data-name="&lt;Path&gt;" class="cls-11" points="761.41 665.47 774.04 658.14 774.04 663.43 762.63 669.95 761.41 665.47"/><line id="_Path_18" data-name="&lt;Path&gt;" class="cls-10" x1="783.41" y1="649.58" x2="783.01" y2="668.32"/></g><path id="_Path_19" data-name="&lt;Path&gt;" class="cls-12" d="M6785.94,2753.06l-4.65-4.38c9.6-14,.69-22.25.69-22.25l-6-17.53-16.1-9.29,5.82,17.51-18.41-10.57-49.64,27.21,13.19,10.94L6685,2739.9l-6.13,4,13.33,7.82c14,5.12,34,11.69,46.46,12.4,8.18,1.34,17.84-1,25.19-3.6l4.78,2.62,16.41-9.48Z" transform="translate(-5964.95 -2016.73)"/><polyline id="_Path_20" data-name="&lt;Path&gt;" class="cls-13" points="782.39 689.82 783.86 757.18 774.96 763.02 740.79 742.82 733.7 718.03"/><path id="_Path_21" data-name="&lt;Path&gt;" class="cls-6" d="M6716.32,2735.75s27.92-5.82,36.64-22.39" transform="translate(-5964.95 -2016.73)"/><path id="_Path_22" data-name="&lt;Path&gt;" class="cls-6" d="M6725.39,2738.78s23.22-4.84,30.47-18.62" transform="translate(-5964.95 -2016.73)"/><ellipse id="_Path_23" data-name="&lt;Path&gt;" class="cls-14" cx="6718.92" cy="2652.64" rx="9.62" ry="2.6" transform="translate(-6412.97 -267.07) rotate(-14.36)"/><polygon id="_Path_24" data-name="&lt;Path&gt;" class="cls-15" points="0 381.78 91.87 328.74 188.43 383.1 95.56 436.72 0 381.78"/><path class="cls-16" d="M6065.22,2457a1.43,1.43,0,0,1-.72-2.66l89.17-51.58a1.43,1.43,0,1,1,1.43,2.47l-89.17,51.58A1.42,1.42,0,0,1,6065.22,2457Z" transform="translate(-5964.95 -2016.73)"/><path class="cls-16" d="M6070.75,2461.4a1.43,1.43,0,0,1-.72-2.66l50.48-29.48a1.43,1.43,0,1,1,1.44,2.47l-50.48,29.48A1.42,1.42,0,0,1,6070.75,2461.4Z" transform="translate(-5964.95 -2016.73)"/><g id="_Group_2" data-name="&lt;Group&gt;"><path id="_Path_25" data-name="&lt;Path&gt;" class="cls-17" d="M6117.05,2390.12l-60.94-35.41a5.71,5.71,0,0,0-5.72,0l-50.19,29a5.71,5.71,0,0,0-2.13,7.73,5.78,5.78,0,0,0,.69,9.52L6061,2437.1a5.78,5.78,0,0,0,5.84,0l50.22-29.65,0,0h0c.42-.32.72-.41.93-.69a8.41,8.41,0,0,0,1.79-3.28,11.83,11.83,0,0,0-.38-10.64,5.56,5.56,0,0,0-.9-1.46,6.14,6.14,0,0,0-1.47-1.22" transform="translate(-5964.95 -2016.73)"/><path id="_Path_26" data-name="&lt;Path&gt;" class="cls-18" d="M6117.05,2390.12l-60.94-35.41a5.71,5.71,0,0,0-5.72,0l-50.19,29a5.71,5.71,0,0,0-2.13,7.73,5.78,5.78,0,0,0,.69,9.52L6061,2437.1a5.78,5.78,0,0,0,5.84,0l50.22-29.65,0,0h0c.42-.32.72-.41.93-.69a8.41,8.41,0,0,0,1.79-3.28,11.83,11.83,0,0,0-.38-10.64,5.56,5.56,0,0,0-.9-1.46,6.14,6.14,0,0,0-1.47-1.22" transform="translate(-5964.95 -2016.73)"/><path id="_Path_27" data-name="&lt;Path&gt;" class="cls-19" d="M6052.69,2373.62c0,5.49-7.27,9.93-16.24,9.93s-22.3-6.16-18.42-10c1.09-1.09,13.56-7.83,20.42-11.79C6044.73,2358.09,6052.69,2368.13,6052.69,2373.62Z" transform="translate(-5964.95 -2016.73)"/><path id="_Path_28" data-name="&lt;Path&gt;" class="cls-20" d="M6055.78,2374.56c0,6.17-8.17,11.17-18.26,11.17s-25.07-6.93-20.71-11.29c1.23-1.23,15.24-8.8,23-13.26C6046.83,2357.1,6055.78,2368.39,6055.78,2374.56Z" transform="translate(-5964.95 -2016.73)"/><path id="_Path_29" data-name="&lt;Path&gt;" class="cls-21" d="M6052.11,2376.44c-1.27,2,.76-.28-4.24-7.29-5.44-7.61-7.39-4.89-27.11,4.51-1.34.64,13-7.51,19.6-11.31C6046.38,2358.88,6055.48,2371.22,6052.11,2376.44Z" transform="translate(-5964.95 -2016.73)"/><polygon id="_Path_30" data-name="&lt;Path&gt;" class="cls-22" points="61.71 354.63 65.3 356.51 73.09 352.13 69.4 350 61.71 354.63"/><path id="_Path_31" data-name="&lt;Path&gt;" class="cls-23" d="M5998.08,2391.42l64.77,38.38-66.95-34.17A4,4,0,0,1,5998.08,2391.42Z" transform="translate(-5964.95 -2016.73)"/><polygon id="_Path_32" data-name="&lt;Path&gt;" class="cls-24" points="98.5 360.78 110.67 353.75 122.86 360.78 110.67 367.81 98.5 360.78"/><polygon id="_Path_33" data-name="&lt;Path&gt;" class="cls-25" points="100.76 362.08 112.74 354.94 113.74 355.52 101.84 362.71 100.76 362.08"/><path id="_Path_34" data-name="&lt;Path&gt;" class="cls-26" d="M6063.36,2377.31v1.3l11.51,7.1,11.49-7v-1.45S6074.36,2386.16,6063.36,2377.31Z" transform="translate(-5964.95 -2016.73)"/><path id="_Path_35" data-name="&lt;Path&gt;" class="cls-27" d="M5999,2384.85s75.65,41.91,114.4,8.7c3-2.61,7.25,2.75,7.25,2.75a11.89,11.89,0,0,1-3.61,11.1l-48.74,28.78s-4.06,4.06-11.6-1.16l-58-34.08s-6.3-3.54-.69-9.52C5998.08,2391.42,5995.86,2387.17,5999,2384.85Z" transform="translate(-5964.95 -2016.73)"/></g><polygon id="_Path_36" data-name="&lt;Path&gt;" class="cls-2" points="379.05 100.38 456.26 56.1 558.92 115.37 480.91 160.11 379.05 100.38"/><polygon id="_Path_37" data-name="&lt;Path&gt;" class="cls-2" points="462.21 53.45 535.54 10.12 638.2 69.39 564.07 112.18 462.21 53.45"/><polygon id="_Path_38" data-name="&lt;Path&gt;" class="cls-2" points="295.78 148.36 372.99 104.08 475.65 163.35 397.64 208.09 295.78 148.36"/><polygon class="cls-28" points="376.68 169.05 417.23 160.14 383.69 137.31 376.68 169.05"/><g id="_Group_3" data-name="&lt;Group&gt;"><g id="_Group_4" data-name="&lt;Group&gt;"><path id="_Path_39" data-name="&lt;Path&gt;" class="cls-29" d="M6363.83,2135.84c-1-.47-2.08-.34-2.36.28l-4.15,9.09c-.28.62.3,1.49,1.34,2s2.08.34,2.36-.28l4.15-9.09C6365.45,2137.18,6364.87,2136.31,6363.83,2135.84Z" transform="translate(-5964.95 -2016.73)"/><path id="_Path_40" data-name="&lt;Path&gt;" class="cls-30" d="M6384.88,2089.69c-3.5-1.6-7.27-.51-8.58,2.35l-19.19,42.07c-1.31,2.86.35,6.42,3.85,8s7.27.51,8.58-2.35l19.19-42.07C6390,2094.84,6388.38,2091.28,6384.88,2089.69Z" transform="translate(-5964.95 -2016.73)"/><path id="_Path_41" data-name="&lt;Path&gt;" class="cls-31" d="M6345.07,2138.61l28.87,13.17a2.78,2.78,0,0,1,.47,4.78l-31,29.28a2.78,2.78,0,0,1-4.39-2l2.1-42.46A2.78,2.78,0,0,1,6345.07,2138.61Z" transform="translate(-5964.95 -2016.73)"/><path id="_Path_42" data-name="&lt;Path&gt;" class="cls-32" d="M6355.54,2148.66s.91,3.56,3.69,1.69l-14.82,28Z" transform="translate(-5964.95 -2016.73)"/><path id="_Path_43" data-name="&lt;Path&gt;" class="cls-33" d="M6384.88,2089.69c-3.5-1.6-7.27-.51-8.58,2.35l-19.19,42.07c-1.31,2.86.35,6.42,3.85,8s7.27.51,8.58-2.35l19.19-42.07C6390,2094.84,6388.38,2091.28,6384.88,2089.69Z" transform="translate(-5964.95 -2016.73)"/></g><polyline id="_Path_44" data-name="&lt;Path&gt;" class="cls-34" points="393.12 126.42 396.26 129.38 397.73 126.24"/></g><polygon class="cls-35" points="610.28 53.27 575.9 73.78 563.3 61.15 581.52 36.67 610.28 53.27"/><g id="_Group_5" data-name="&lt;Group&gt;"><path id="_Path_45" data-name="&lt;Path&gt;" class="cls-30" d="M6550.9,2042.3a14.61,14.61,0,0,0,.67-5.14l-.14-.35-1.54.39,1.91.2c0-11.76-16.31-20.67-36.09-20.67s-36.05,7.88-36.09,21.88h0l.06-.25a11.54,11.54,0,0,0,.34,3.1l6.39,42.31v-.38c0,9.11,13.18,16.43,28.5,16.43s28.5-7.42,28.5-16.53v-.07Z" transform="translate(-5964.95 -2016.73)"/><ellipse id="_Path_46" data-name="&lt;Path&gt;" class="cls-36" cx="550.79" cy="20.46" rx="28.33" ry="16.84"/><path id="_Path_47" data-name="&lt;Path&gt;" class="cls-37" d="M6489.76,2030.09s29.58-5.85,33.12,23c0,0,19.66-1.77,21.19-15.92,0,0,.41-15.25-27-17C6517,2020.17,6500.56,2019.11,6489.76,2030.09Z" transform="translate(-5964.95 -2016.73)"/><path id="_Path_48" data-name="&lt;Path&gt;" class="cls-38" d="M6544.69,2073.57l-.56.68c-1.94-8.11-10.09-10.5-17.44-10.92a71.57,71.57,0,0,1-11.23.88l-1.53,0-.77.15.35-.15c-16.89-1-25.63-6.27-32-14.3l5.13,33.73h-.26v-.22c0,9.11,13.39,16.43,28.71,16.43,10.27,0,19.47-3.33,24.47-8.26a11.59,11.59,0,0,0,3.82-8.26v-.07Z" transform="translate(-5964.95 -2016.73)"/><line id="_Path_49" data-name="&lt;Path&gt;" class="cls-39" x1="525.99" y1="48.31" x2="528.82" y2="51.62"/><line id="_Path_50" data-name="&lt;Path&gt;" class="cls-39" x1="531.66" y1="62.01" x2="537.32" y2="55.87"/><line id="_Path_51" data-name="&lt;Path&gt;" class="cls-39" x1="538.27" y1="65.32" x2="541.58" y2="69.57"/><line id="_Path_52" data-name="&lt;Path&gt;" class="cls-39" x1="545.35" y1="59.18" x2="547.72" y2="62.01"/><line id="_Path_53" data-name="&lt;Path&gt;" class="cls-39" x1="555.75" y1="53.98" x2="558.58" y2="50.2"/><line id="_Path_54" data-name="&lt;Path&gt;" class="cls-39" x1="558.58" y1="64.85" x2="560.94" y2="61.07"/><line id="_Path_55" data-name="&lt;Path&gt;" class="cls-39" x1="549.13" y1="70.99" x2="552.44" y2="74.29"/><line id="_Path_56" data-name="&lt;Path&gt;" class="cls-39" x1="561.89" y1="70.99" x2="564.72" y2="72.88"/><line id="_Path_57" data-name="&lt;Path&gt;" class="cls-39" x1="569.92" y1="55.4" x2="571.8" y2="53.04"/><line id="_Path_58" data-name="&lt;Path&gt;" class="cls-39" x1="567.08" y1="51.62" x2="568.97" y2="49.26"/><line id="_Path_59" data-name="&lt;Path&gt;" class="cls-39" x1="532.13" y1="69.57" x2="534.02" y2="73.35"/><line id="_Path_60" data-name="&lt;Path&gt;" class="cls-39" x1="524.57" y1="60.12" x2="527.41" y2="64.37"/><line id="_Path_61" data-name="&lt;Path&gt;" class="cls-39" x1="571.8" y1="64.85" x2="576.53" y2="60.6"/></g><polygon class="cls-40" points="439.85 116.51 445.04 116.51 455.45 125.52 514.15 93.77 495.01 82.72 439.85 116.51"/><g id="_Group_6" data-name="&lt;Group&gt;"><polygon id="_Path_62" data-name="&lt;Path&gt;" class="cls-41" points="447.65 66.95 478.87 48.92 486.67 89.48 439.85 116.51 447.65 66.95"/><polygon id="_Path_63" data-name="&lt;Path&gt;" class="cls-41" points="455.45 125.52 447.65 66.95 439.85 116.51 447.29 114.27 455.45 125.52"/><polygon id="_Path_64" data-name="&lt;Path&gt;" class="cls-41" points="455.45 125.52 488.64 106.36 486.67 89.48 452.75 105.22 455.45 125.52"/><polygon id="_Path_65" data-name="&lt;Path&gt;" class="cls-41" points="446.18 57.94 474.83 42.24 478.87 48.92 447.17 70.04 446.18 57.94"/><polygon id="_Path_66" data-name="&lt;Path&gt;" class="cls-42" points="447.29 114.27 447.17 70.04 439.85 116.51 447.29 114.27"/><polygon id="_Path_67" data-name="&lt;Path&gt;" class="cls-43" points="447.65 66.95 455.45 125.52 447.29 114.27 447.65 66.95"/><polygon id="_Path_68" data-name="&lt;Path&gt;" class="cls-43" points="482.04 68.18 472.75 76.92 483.71 74.09 482.04 68.18"/><polygon id="_Path_69" data-name="&lt;Path&gt;" class="cls-43" points="452.41 102 465.72 100.52 452.41 105.22 452.41 102"/><line id="_Path_70" data-name="&lt;Path&gt;" class="cls-44" x1="448.36" y1="57.54" x2="450.08" y2="62.44"/><line id="_Path_71" data-name="&lt;Path&gt;" class="cls-44" x1="451.37" y1="55.1" x2="454.17" y2="59.99"/><line id="_Path_72" data-name="&lt;Path&gt;" class="cls-44" x1="455.57" y1="52.8" x2="458.16" y2="59.18"/><line id="_Path_73" data-name="&lt;Path&gt;" class="cls-44" x1="458.16" y1="51.38" x2="460.68" y2="57.93"/><line id="_Path_74" data-name="&lt;Path&gt;" class="cls-44" x1="462.52" y1="49.35" x2="464.3" y2="56.14"/><line id="_Path_75" data-name="&lt;Path&gt;" class="cls-44" x1="465.81" y1="47.19" x2="468.36" y2="54.66"/><line id="_Path_76" data-name="&lt;Path&gt;" class="cls-44" x1="468.36" y1="45.98" x2="471.15" y2="52.74"/><line id="_Path_77" data-name="&lt;Path&gt;" class="cls-44" x1="471.15" y1="44.47" x2="476.16" y2="49.36"/><line id="_Path_78" data-name="&lt;Path&gt;" class="cls-44" x1="469.76" y1="45.17" x2="473.91" y2="51.38"/><polygon id="_Path_79" data-name="&lt;Path&gt;" class="cls-45" points="486.67 89.48 478.87 48.92 474.83 42.24 446.18 57.94 447.16 70.03 439.85 116.51 447.29 114.27 447.29 112.21 447.31 112.2 447.29 114.27 455.45 125.52 453.22 108.79 453.22 108.79 455.45 125.52 488.64 106.36 486.67 89.48"/><polygon id="_Path_80" data-name="&lt;Path&gt;" class="cls-46" points="447.3 64.3 478.87 48.92 474.83 42.24 446.18 57.94 447.3 64.3"/><ellipse id="_Path_81" data-name="&lt;Path&gt;" class="cls-47" cx="469.8" cy="85.2" rx="1.02" ry="1.19"/><ellipse id="_Path_82" data-name="&lt;Path&gt;" class="cls-48" cx="469.79" cy="85.19" rx="2.22" ry="2.59"/><ellipse id="_Path_83" data-name="&lt;Path&gt;" class="cls-47" cx="476.91" cy="89" rx="1.02" ry="1.19"/><ellipse id="_Path_84" data-name="&lt;Path&gt;" class="cls-48" cx="476.9" cy="88.99" rx="2.22" ry="2.59"/><ellipse id="_Path_85" data-name="&lt;Path&gt;" class="cls-47" cx="465.96" cy="92.11" rx="1.02" ry="1.19"/><ellipse id="_Path_86" data-name="&lt;Path&gt;" class="cls-48" cx="465.95" cy="92.1" rx="2.22" ry="2.59"/><path id="_Path_87" data-name="&lt;Path&gt;" class="cls-48" d="M6439.78,2106.64l-2.82,11.1a71.5,71.5,0,0,0-2.22-13.24" transform="translate(-5964.95 -2016.73)"/><line id="_Path_88" data-name="&lt;Path&gt;" class="cls-48" x1="467.4" y1="93.77" x2="472.01" y2="101.01"/><line id="_Path_89" data-name="&lt;Path&gt;" class="cls-48" x1="467.58" y1="103.81" x2="476.91" y2="100.07"/></g></g></g></svg>