<svg xmlns="http://www.w3.org/2000/svg" xmlns:xlink="http://www.w3.org/1999/xlink" viewBox="0 0 190.87 115.93"><defs><style>.cls-1{isolation:isolate;}.cls-2{fill:#dcddd8;}.cls-10,.cls-11,.cls-13,.cls-14,.cls-2,.cls-7,.cls-8{mix-blend-mode:multiply;}.cls-3{fill:#cecdc9;}.cls-4{fill:#2fe0e0;}.cls-5{opacity:0.59;fill:url(#linear-gradient);}.cls-6{fill:url(#linear-gradient-2);}.cls-7{fill:url(#linear-gradient-3);}.cls-8{fill:#9f9fa0;}.cls-9{fill:#cbdff7;}.cls-10{opacity:0.76;fill:url(#linear-gradient-4);}.cls-11{fill:#2070b2;}.cls-12{fill:#e8ecef;opacity:0.45;}.cls-13{fill:#c8ccce;}.cls-14{fill:#5193bc;opacity:0.29;}</style><linearGradient id="linear-gradient" x1="5995.89" y1="2395.91" x2="6120.88" y2="2395.91" gradientUnits="userSpaceOnUse"><stop offset="0" stop-color="gray"/><stop offset="0.99" stop-color="#e3df7f"/></linearGradient><linearGradient id="linear-gradient-2" x1="6017.95" y1="2360.31" x2="6047.15" y2="2380.24" gradientUnits="userSpaceOnUse"><stop offset="0" stop-color="#0071bc"/><stop offset="1" stop-color="#0048bc"/></linearGradient><linearGradient id="linear-gradient-3" x1="6016.72" y1="2359.6" x2="6049.55" y2="2382.01" gradientUnits="userSpaceOnUse"><stop offset="0" stop-color="#4275f4"/><stop offset="1" stop-color="#3e46d7"/></linearGradient><linearGradient id="linear-gradient-4" x1="5995.85" y1="2410.61" x2="6062.84" y2="2410.61" gradientUnits="userSpaceOnUse"><stop offset="0" stop-color="#0071bc"/><stop offset="0.99" stop-color="#e3df7f"/></linearGradient></defs><g class="cls-1"><g id="Layer_4" data-name="Layer 4"><polygon id="_Path_" data-name="&lt;Path&gt;" class="cls-2" points="0 53.04 91.87 0 188.43 54.36 95.56 107.98 0 53.04"/><path class="cls-3" d="M6065.22,2457a1.43,1.43,0,0,1-.72-2.66l89.17-51.58a1.43,1.43,0,1,1,1.43,2.47l-89.17,51.58A1.42,1.42,0,0,1,6065.22,2457Z" transform="translate(-5964.95 -2345.47)"/><path class="cls-3" d="M6070.75,2461.4a1.43,1.43,0,0,1-.72-2.66l50.48-29.48a1.43,1.43,0,1,1,1.44,2.47l-50.48,29.48A1.42,1.42,0,0,1,6070.75,2461.4Z" transform="translate(-5964.95 -2345.47)"/><g id="_Group_" data-name="&lt;Group&gt;"><path id="_Path_2" data-name="&lt;Path&gt;" class="cls-4" d="M6117.05,2390.12l-60.94-35.41a5.71,5.71,0,0,0-5.72,0l-50.19,29a5.71,5.71,0,0,0-2.13,7.73,5.78,5.78,0,0,0,.69,9.52L6061,2437.1a5.78,5.78,0,0,0,5.84,0l50.22-29.65,0,0h0c.42-.32.72-.41.93-.69a8.41,8.41,0,0,0,1.79-3.28,11.83,11.83,0,0,0-.38-10.64,5.56,5.56,0,0,0-.9-1.46,6.14,6.14,0,0,0-1.47-1.22" transform="translate(-5964.95 -2345.47)"/><path id="_Path_3" data-name="&lt;Path&gt;" class="cls-5" d="M6117.05,2390.12l-60.94-35.41a5.71,5.71,0,0,0-5.72,0l-50.19,29a5.71,5.71,0,0,0-2.13,7.73,5.78,5.78,0,0,0,.69,9.52L6061,2437.1a5.78,5.78,0,0,0,5.84,0l50.22-29.65,0,0h0c.42-.32.72-.41.93-.69a8.41,8.41,0,0,0,1.79-3.28,11.83,11.83,0,0,0-.38-10.64,5.56,5.56,0,0,0-.9-1.46,6.14,6.14,0,0,0-1.47-1.22" transform="translate(-5964.95 -2345.47)"/><path id="_Path_4" data-name="&lt;Path&gt;" class="cls-6" d="M6052.69,2373.62c0,5.49-7.27,9.93-16.24,9.93s-22.3-6.16-18.42-10c1.09-1.09,13.56-7.83,20.42-11.79C6044.73,2358.09,6052.69,2368.13,6052.69,2373.62Z" transform="translate(-5964.95 -2345.47)"/><path id="_Path_5" data-name="&lt;Path&gt;" class="cls-7" d="M6055.78,2374.56c0,6.17-8.17,11.17-18.26,11.17s-25.07-6.93-20.71-11.29c1.23-1.23,15.24-8.8,23-13.26C6046.83,2357.1,6055.78,2368.39,6055.78,2374.56Z" transform="translate(-5964.95 -2345.47)"/><path id="_Path_6" data-name="&lt;Path&gt;" class="cls-8" d="M6052.11,2376.44c-1.27,2,.76-.28-4.24-7.29-5.44-7.61-7.39-4.89-27.11,4.51-1.34.64,13-7.51,19.6-11.31C6046.38,2358.88,6055.48,2371.22,6052.11,2376.44Z" transform="translate(-5964.95 -2345.47)"/><polygon id="_Path_7" data-name="&lt;Path&gt;" class="cls-9" points="61.71 25.89 65.3 27.77 73.09 23.39 69.4 21.26 61.71 25.89"/><path id="_Path_8" data-name="&lt;Path&gt;" class="cls-10" d="M5998.08,2391.42l64.77,38.38-66.95-34.17A4,4,0,0,1,5998.08,2391.42Z" transform="translate(-5964.95 -2345.47)"/><polygon id="_Path_9" data-name="&lt;Path&gt;" class="cls-11" points="98.5 32.04 110.67 25 122.86 32.04 110.67 39.07 98.5 32.04"/><polygon id="_Path_10" data-name="&lt;Path&gt;" class="cls-12" points="100.76 33.34 112.74 26.2 113.74 26.78 101.84 33.97 100.76 33.34"/><path id="_Path_11" data-name="&lt;Path&gt;" class="cls-13" d="M6063.36,2377.31v1.3l11.51,7.1,11.49-7v-1.45S6074.36,2386.16,6063.36,2377.31Z" transform="translate(-5964.95 -2345.47)"/><path id="_Path_12" data-name="&lt;Path&gt;" class="cls-14" d="M5999,2384.85s75.65,41.91,114.4,8.7c3-2.61,7.25,2.75,7.25,2.75a11.89,11.89,0,0,1-3.61,11.1l-48.74,28.78s-4.06,4.06-11.6-1.16l-58-34.08s-6.3-3.54-.69-9.52C5998.08,2391.42,5995.86,2387.17,5999,2384.85Z" transform="translate(-5964.95 -2345.47)"/></g></g></g></svg>