<?xml version="1.0" encoding="utf-8"?>
<!-- Generator: Adobe Illustrator 20.0.0, SVG Export Plug-In . SVG Version: 6.00 Build 0)  -->
<svg version="1.1" id="Layer_1" xmlns="http://www.w3.org/2000/svg" xmlns:xlink="http://www.w3.org/1999/xlink" x="0px" y="0px"
	 viewBox="0 0 595.3 841.9" style="enable-background:new 0 0 595.3 841.9;" xml:space="preserve">
<style type="text/css">
	.st0{fill:#DCDDD8;}
	.st1{fill:#CECDC9;}
	.st2{fill:#2FE0E0;}
	.st3{opacity:0.59;fill:url(#XMLID_2_);}
	.st4{fill:url(#XMLID_3_);}
	.st5{fill:url(#XMLID_4_);}
	.st6{fill:#9F9FA0;}
	.st7{fill:#CBDFF7;}
	.st8{opacity:0.76;fill:url(#XMLID_5_);}
	.st9{fill:#2070B2;}
	.st10{opacity:0.45;fill:#E8ECEF;}
	.st11{fill:#C8CCCE;}
	.st12{opacity:0.29;fill:#5193BC;}
</style>
<g>
	<polygon id="XMLID_5681_" class="st0" points="202,416.5 293.8,363.5 390.4,417.8 297.5,471.4 	"/>
	<path class="st1" d="M302.2,475c-0.5,0-1-0.3-1.2-0.7c-0.4-0.7-0.2-1.6,0.5-2l89.2-51.6c0.7-0.4,1.6-0.2,2,0.5
		c0.4,0.7,0.2,1.6-0.5,2l-89.2,51.6C302.7,474.9,302.5,475,302.2,475z"/>
	<path class="st1" d="M307.8,479.4c-0.5,0-1-0.3-1.2-0.7c-0.4-0.7-0.2-1.6,0.5-2l50.5-29.5c0.7-0.4,1.6-0.2,2,0.5
		c0.4,0.7,0.2,1.6-0.5,2l-50.5,29.5C308.2,479.3,308,479.4,307.8,479.4z"/>
</g>
<g id="XMLID_5668_">
	<path id="XMLID_5679_" class="st2" d="M354.1,408.1l-60.9-35.4c-1.8-1-4-1-5.7,0l-50.2,29c-2.9,1.6-3.6,5.2-2.1,7.7
		c-3.1,2.5-2.9,7.4,0.7,9.5l62.2,36.2c1.8,1,4,1,5.8,0l50.2-29.7c0,0,0,0,0,0l0,0c0.4-0.3,0.7-0.4,0.9-0.7c1.1-1.4,1.4-1.8,1.8-3.3
		c1.9-4.5,0.9-8.2-0.4-10.6c-0.2-0.5-0.5-1-0.9-1.5C354.6,408.4,354.1,408.1,354.1,408.1"/>
	<linearGradient id="XMLID_2_" gradientUnits="userSpaceOnUse" x1="232.8878" y1="413.9105" x2="357.8823" y2="413.9105">
		<stop  offset="1.969677e-03" style="stop-color:#808080"/>
		<stop  offset="0.9934" style="stop-color:#E3DF7F"/>
	</linearGradient>
	<path id="XMLID_5678_" class="st3" d="M354.1,408.1l-60.9-35.4c-1.8-1-4-1-5.7,0l-50.2,29c-2.9,1.6-3.6,5.2-2.1,7.7
		c-3.1,2.5-2.9,7.4,0.7,9.5l62.2,36.2c1.8,1,4,1,5.8,0l50.2-29.7c0,0,0,0,0,0l0,0c0.4-0.3,0.7-0.4,0.9-0.7c1.1-1.4,1.4-1.8,1.8-3.3
		c1.9-4.5,0.9-8.2-0.4-10.6c-0.2-0.5-0.5-1-0.9-1.5C354.6,408.4,354.1,408.1,354.1,408.1"/>
	<linearGradient id="XMLID_3_" gradientUnits="userSpaceOnUse" x1="254.9538" y1="378.3141" x2="284.149" y2="398.2421">
		<stop  offset="0" style="stop-color:#0071BC"/>
		<stop  offset="1" style="stop-color:#0048BC"/>
	</linearGradient>
	<path id="XMLID_5677_" class="st4" d="M289.7,391.6c0,5.5-7.3,9.9-16.2,9.9c-9,0-22.3-6.2-18.4-10c1.1-1.1,13.6-7.8,20.4-11.8
		C281.7,376.1,289.7,386.1,289.7,391.6z"/>
	<linearGradient id="XMLID_4_" gradientUnits="userSpaceOnUse" x1="253.7246" y1="377.6011" x2="286.5487" y2="400.006">
		<stop  offset="0" style="stop-color:#4275F4"/>
		<stop  offset="1" style="stop-color:#3E46D7"/>
	</linearGradient>
	<path id="XMLID_5676_" class="st5" d="M292.8,392.6c0,6.2-8.2,11.2-18.3,11.2s-25.1-6.9-20.7-11.3c1.2-1.2,15.2-8.8,23-13.3
		C283.8,375.1,292.8,386.4,292.8,392.6z"/>
	<path id="XMLID_5675_" class="st6" d="M289.1,394.4c-1.3,2,0.8-0.3-4.2-7.3c-5.4-7.6-7.4-4.9-27.1,4.5c-1.3,0.6,13-7.5,19.6-11.3
		C283.4,376.9,292.5,389.2,289.1,394.4z"/>
	<polygon id="XMLID_5674_" class="st7" points="263.7,389.4 267.2,391.2 275,386.9 271.4,384.7 	"/>
	<linearGradient id="XMLID_5_" gradientUnits="userSpaceOnUse" x1="232.8541" y1="428.6075" x2="299.8422" y2="428.6075">
		<stop  offset="0" style="stop-color:#0071BC"/>
		<stop  offset="0.9934" style="stop-color:#E3DF7F"/>
	</linearGradient>
	<path id="XMLID_5673_" class="st8" d="M235.1,409.4l64.8,38.4l-66.9-34.2C232.9,413.6,232.4,410.8,235.1,409.4z"/>
	<polygon id="XMLID_5672_" class="st9" points="300.4,395.5 312.6,388.5 324.8,395.5 312.6,402.5 	"/>
	<polygon id="XMLID_5671_" class="st10" points="302.7,396.8 314.7,389.7 315.7,390.2 303.8,397.4 	"/>
	<path id="XMLID_5670_" class="st11" d="M300,395.3v1.3l11.5,7.1l11.5-7v-1.4C323,395.3,311,404.2,300,395.3z"/>
	<path id="XMLID_5669_" class="st12" d="M236,402.9c0,0,75.6,41.9,114.4,8.7c3-2.6,7.2,2.8,7.2,2.8s1.6,6.4-3.6,11.1l-48.7,28.8
		c0,0-4.1,4.1-11.6-1.2l-58-34.1c0,0-6.3-3.5-0.7-9.5C235.1,409.4,232.9,405.2,236,402.9z"/>
</g>
</svg>
