<!-- Generator: Adobe Illustrator 21.1.0, SVG Export Plug-In  -->
<svg version="1.0"
	 xmlns="http://www.w3.org/2000/svg" xmlns:xlink="http://www.w3.org/1999/xlink" xmlns:a="http://ns.adobe.com/AdobeSVGViewerExtensions/3.0/"
	 x="0px" y="0px" width="410px" height="408.9px" viewBox="0 0 410 408.9"
	 style="overflow:scroll;enable-background:new 0 0 410 408.9;" xml:space="preserve">
<defs>
</defs>
<path style="opacity:0.2;fill:#65C08A;" d="M190,408.9c-3.3-0.2-5.8-3.1-5.6-6.4l0,0c0.2-3.3,3.1-5.8,6.4-5.6l0,0
	c3.3,0.2,5.8,3.1,5.6,6.4l0,0c-0.2,3.2-2.9,5.6-6,5.6l0,0C190.3,408.9,190.2,408.9,190,408.9z M214.2,403.3
	c-0.3-3.3,2.2-6.2,5.5-6.4l0,0c3.3-0.3,6.2,2.2,6.4,5.5l0,0c0.3,3.3-2.2,6.2-5.5,6.4l0,0l0,0l0,0c-0.2,0-0.3,0-0.5,0l0,0
	C217.1,408.9,214.5,406.5,214.2,403.3z M159.7,404.4c-3.2-0.7-5.3-3.9-4.5-7.2l0,0c0.7-3.2,3.9-5.3,7.2-4.5l0,0
	c3.2,0.7,5.3,3.9,4.5,7.2l0,0c-0.6,2.8-3.1,4.7-5.8,4.7l0,0C160.6,404.6,160.2,404.6,159.7,404.4z M243.8,399.8
	c-0.7-3.2,1.3-6.4,4.5-7.2l0,0c3.2-0.7,6.4,1.3,7.2,4.5l0,0c0.7,3.2-1.3,6.5-4.5,7.2l0,0c-0.4,0.1-0.9,0.1-1.3,0.1l0,0
	C246.9,404.4,244.4,402.6,243.8,399.8z M130.4,395.5c-3.1-1.2-4.6-4.7-3.4-7.8l0,0c1.2-3.1,4.7-4.6,7.8-3.4l0,0
	c3.1,1.2,4.6,4.7,3.4,7.8l0,0c-0.9,2.4-3.2,3.8-5.6,3.8l0,0C131.9,395.9,131.1,395.8,130.4,395.5z M272.4,391.8
	c-1.2-3.1,0.3-6.6,3.4-7.8l0,0c3.1-1.2,6.6,0.3,7.8,3.4l0,0c1.2,3.1-0.3,6.6-3.4,7.8l0,0c-0.7,0.3-1.5,0.4-2.2,0.4l0,0
	C275.6,395.6,273.3,394.2,272.4,391.8z M102.8,382.2L102.8,382.2L102.8,382.2c-2.9-1.7-3.9-5.3-2.2-8.2l0,0c1.6-2.9,5.3-3.9,8.2-2.2
	l0,0c2.9,1.7,3.9,5.3,2.2,8.2l0,0c-1.1,1.9-3.1,3-5.2,3l0,0C104.8,383,103.7,382.7,102.8,382.2z M299.6,379.7
	c-1.7-2.9-0.7-6.5,2.2-8.2l0,0c2.9-1.7,6.5-0.7,8.2,2.2l0,0c1.7,2.9,0.7,6.5-2.2,8.2l0,0c-1,0.5-2,0.8-3,0.8l0,0
	C302.7,382.7,300.7,381.6,299.6,379.7z M77.5,365c-2.6-2.1-3-5.8-1-8.4l0,0c2.1-2.6,5.8-3,8.4-1l0,0c2.6,2.1,3,5.8,1,8.4l0,0
	c-1.2,1.5-2.9,2.3-4.7,2.3l0,0C79.9,366.3,78.6,365.8,77.5,365z M324.6,363.6c-2.1-2.6-1.7-6.4,0.9-8.4l0,0c2.6-2.1,6.4-1.7,8.4,0.9
	l0,0c2.1,2.6,1.6,6.4-0.9,8.4l0,0c-1.1,0.9-2.4,1.3-3.8,1.3l0,0C327.5,365.9,325.8,365.1,324.6,363.6z M55,344.2
	c-2.3-2.4-2.1-6.2,0.3-8.5l0,0c2.4-2.3,6.2-2.1,8.5,0.3h0c2.3,2.4,2.1,6.2-0.3,8.5l0,0c-1.1,1.1-2.6,1.6-4.1,1.6l0,0
	C57.8,346.1,56.2,345.4,55,344.2z M347,344c-2.4-2.3-2.6-6-0.3-8.5l0,0c2.3-2.4,6-2.6,8.5-0.3l0,0c2.4,2.3,2.6,6,0.3,8.5l0,0
	c-1.2,1.3-2.8,1.9-4.4,1.9l0,0C349.6,345.6,348.1,345.1,347,344z M35.8,320.3c-1.9-2.7-1.2-6.5,1.6-8.3l0,0c2.7-1.9,6.5-1.2,8.3,1.5
	l0,0c1.9,2.7,1.2,6.5-1.6,8.3l0,0c-1,0.7-2.2,1.1-3.4,1.1l0,0C38.9,322.9,37,322,35.8,320.3z M366.2,321.3c-2.7-1.9-3.4-5.6-1.6-8.3
	l0,0c1.9-2.7,5.6-3.4,8.3-1.6l0,0c2.7,1.9,3.4,5.6,1.6,8.3l0,0c-1.2,1.7-3.1,2.6-5,2.6l0,0C368.4,322.4,367.2,322,366.2,321.3z
	 M20.4,293.8C20.4,293.8,20.4,293.8,20.4,293.8L20.4,293.8c-1.5-3-0.2-6.6,2.8-8l0,0c3-1.4,6.6-0.2,8,2.8l0,0c1.4,3,0.2,6.6-2.8,8
	l0,0c-0.9,0.4-1.7,0.6-2.6,0.6l0,0C23.6,297.2,21.5,295.9,20.4,293.8z M381.8,296c-3-1.4-4.3-5-2.8-8l0,0c1.4-3,5-4.2,8-2.8l0,0
	c3,1.4,4.2,5,2.8,8l0,0c-1,2.1-3.2,3.4-5.4,3.4l0,0C383.6,296.6,382.7,296.4,381.8,296z M9.2,265.3L9.2,265.3L9.2,265.3
	c-1-3.2,0.8-6.5,4-7.5l0,0c3.2-1,6.5,0.8,7.5,4l0,0c1,3.2-0.8,6.5-3.9,7.5l0,0c-0.6,0.2-1.2,0.3-1.8,0.3l0,0
	C12.3,269.5,10,267.9,9.2,265.3z M393.5,268.6c-3.2-1-5-4.3-4-7.5l0,0c1-3.2,4.3-5,7.5-4l0,0c3.2,1,5,4.3,4,7.5l0,0
	c-0.8,2.6-3.2,4.2-5.7,4.2l0,0C394.7,268.9,394.1,268.8,393.5,268.6z M2.3,235.4c-0.5-3.3,1.8-6.3,5-6.8l0,0c3.3-0.5,6.3,1.8,6.8,5
	l0,0c0.5,3.3-1.8,6.3-5,6.8l0,0c-0.3,0-0.6,0.1-0.9,0.1l0,0C5.3,240.5,2.8,238.4,2.3,235.4z M401,239.8c-3.3-0.5-5.5-3.5-5.1-6.8
	l0,0c0.5-3.3,3.5-5.5,6.8-5.1l0,0c3.3,0.5,5.5,3.5,5,6.8l0,0l0,0l0,0c-0.4,3-3,5.1-5.9,5.1l0,0C401.5,239.9,401.3,239.9,401,239.8z
	 M0,204.9c0-0.1,0-0.2,0-0.2l0,0c0-0.1,0-0.2,0-0.2l0,0l0,0l0,0c0-3.3,2.7-6,6-6l0,0c3.3,0,6,2.7,6,6l0,0c0,0.1,0,0.1,0,0.2l0,0
	c0,0.1,0,0.1,0,0.2l0,0c0,3.3-2.7,6-6,6l0,0h0l0,0C2.7,210.9,0,208.2,0,204.9z M398,204.3c0-3.3,2.7-6,6-6l0,0c3.3,0,6,2.7,6,6l0,0
	c0,3.3-2.7,6-6,6l0,0C400.7,210.3,398,207.6,398,204.3z M7.3,180.7c-3.3-0.5-5.5-3.5-5.1-6.8l0,0c0.5-3.3,3.5-5.5,6.8-5l0,0
	c3.3,0.5,5.5,3.5,5.1,6.8l0,0c-0.5,3-3,5.1-5.9,5.1l0,0C7.9,180.8,7.6,180.8,7.3,180.7z M395.8,175.5L395.8,175.5
	c-0.5-3.3,1.8-6.3,5-6.8l0,0c3.3-0.5,6.3,1.8,6.8,5l0,0c0,0,0,0,0,0l0,0c0.5,3.3-1.8,6.3-5,6.8l0,0c-0.3,0-0.6,0.1-0.9,0.1l0,0
	C398.8,180.6,396.3,178.5,395.8,175.5z M13,151.6c-3.2-1-5-4.3-4-7.5l0,0c1-3.2,4.3-5,7.5-4l0,0c3.2,1,4.9,4.3,4,7.5l0,0
	c-0.8,2.6-3.2,4.2-5.7,4.2l0,0C14.2,151.8,13.6,151.7,13,151.6z M389.4,147.4c-1-3.2,0.8-6.5,4-7.5l0,0c3.2-1,6.5,0.8,7.5,4l0,0
	c1,3.2-0.8,6.5-4,7.5l0,0c-0.6,0.2-1.2,0.3-1.8,0.3l0,0C392.6,151.6,390.2,150,389.4,147.4z M23,123.5c-3-1.4-4.2-5-2.8-8l0,0
	c1.4-3,5-4.2,8-2.8l0,0c3,1.4,4.2,5,2.8,8l0,0c-1,2.1-3.2,3.4-5.4,3.4l0,0C24.8,124.1,23.9,123.9,23,123.5z M378.8,120.6
	c-1.4-3-0.2-6.6,2.8-8l0,0c3-1.4,6.6-0.2,8,2.8l0,0c1.4,3,0.2,6.6-2.8,8l0,0c-0.8,0.4-1.7,0.6-2.6,0.6l0,0
	C382,123.9,379.9,122.7,378.8,120.6z M37.2,97.3c-2.7-1.9-3.4-5.6-1.6-8.3l0,0c1.9-2.7,5.6-3.4,8.3-1.6l0,0c2.7,1.9,3.4,5.6,1.6,8.3
	l0,0c-1.2,1.7-3,2.6-5,2.6l0,0C39.4,98.4,38.2,98,37.2,97.3z M364.4,95.6c-1.9-2.7-1.2-6.5,1.6-8.3l0,0c2.7-1.9,6.5-1.2,8.3,1.6l0,0
	c1.9,2.7,1.2,6.5-1.6,8.4l0,0c-1,0.7-2.2,1-3.4,1l0,0C367.4,98.2,365.6,97.3,364.4,95.6z M55,73.5c-2.4-2.3-2.6-6.1-0.3-8.5l0,0l0,0
	l0,0c2.3-2.4,6.1-2.6,8.5-0.3l0,0c2.4,2.3,2.6,6,0.3,8.5l0,0c-1.2,1.3-2.8,1.9-4.4,1.9l0,0C57.6,75.1,56.2,74.6,55,73.5z
	 M346.4,73.1c-2.3-2.4-2.1-6.2,0.3-8.5l0,0c2.4-2.3,6.2-2.1,8.5,0.3l0,0c2.3,2.4,2.1,6.2-0.3,8.5l0,0c-1.2,1.1-2.6,1.6-4.1,1.6l0,0
	C349.2,75,347.6,74.4,346.4,73.1z M76.2,52.6c-2.1-2.6-1.6-6.4,1-8.4l0,0c2.6-2.1,6.4-1.6,8.4,1l0,0c2.1,2.6,1.7,6.4-0.9,8.4l0,0
	c-1.1,0.9-2.4,1.3-3.7,1.3l0,0C79.1,54.9,77.4,54.1,76.2,52.6z M325.2,53.5c-2.6-2.1-3-5.9-0.9-8.4l0,0c2.1-2.6,5.8-3,8.4-0.9l0,0
	l0,0l0,0c2.6,2.1,3,5.9,1,8.4l0,0c-1.2,1.5-2.9,2.3-4.7,2.3l0,0C327.7,54.8,326.3,54.4,325.2,53.5z M100.2,35.1
	c-1.7-2.9-0.7-6.5,2.2-8.2l0,0c2.9-1.7,6.5-0.7,8.2,2.2l0,0c1.7,2.9,0.7,6.5-2.2,8.2l0,0c-0.9,0.6-2,0.8-3,0.8l0,0
	C103.4,38.1,101.3,37.1,100.2,35.1z M301.4,37.2L301.4,37.2c-2.9-1.7-3.8-5.3-2.2-8.2l0,0c1.7-2.9,5.3-3.9,8.2-2.2l0,0l0,0l0,0
	c2.9,1.7,3.9,5.3,2.2,8.2l0,0c-1.1,1.9-3.1,3-5.2,3l0,0C303.4,38,302.3,37.8,301.4,37.2z M126.6,21.4c-1.2-3.1,0.3-6.6,3.4-7.8l0,0
	c3.1-1.2,6.6,0.3,7.8,3.4l0,0c1.2,3.1-0.3,6.6-3.4,7.8l0,0c-0.7,0.3-1.5,0.4-2.2,0.4l0,0C129.8,25.2,127.5,23.8,126.6,21.4z
	 M275.4,24.7c-3.1-1.2-4.6-4.7-3.4-7.8l0,0c1.2-3.1,4.7-4.6,7.8-3.4l0,0c3.1,1.2,4.6,4.7,3.4,7.8l0,0c-0.9,2.4-3.2,3.8-5.6,3.8l0,0
	C276.9,25.1,276.1,25,275.4,24.7z M154.8,11.8c-0.7-3.2,1.3-6.4,4.5-7.2l0,0c3.2-0.7,6.4,1.3,7.2,4.5l0,0c0.7,3.2-1.3,6.4-4.5,7.2
	l0,0c-0.5,0.1-0.9,0.1-1.3,0.1l0,0C157.9,16.4,155.4,14.5,154.8,11.8z M247.8,16.2c-3.2-0.7-5.3-4-4.5-7.2l0,0
	c0.7-3.2,4-5.3,7.2-4.5l0,0c3.2,0.7,5.3,3.9,4.5,7.2l0,0c-0.6,2.8-3.1,4.7-5.8,4.7l0,0C248.7,16.4,248.3,16.3,247.8,16.2z M184,6.5
	c-0.3-3.3,2.2-6.2,5.5-6.4l0,0c0,0,0,0,0,0l0,0c3.3-0.2,6.2,2.2,6.4,5.5l0,0c0.3,3.3-2.2,6.2-5.5,6.4l0,0c-0.1,0-0.3,0-0.5,0l0,0
	C186.9,12,184.3,9.6,184,6.5z M219.3,12c-3.3-0.2-5.8-3.1-5.5-6.4l0,0c0.2-3.3,3.1-5.8,6.4-5.5l0,0c3.3,0.3,5.8,3.1,5.5,6.4l0,0
	c-0.2,3.1-2.9,5.6-6,5.6l0,0C219.6,12,219.5,12,219.3,12z"/>
</svg>
