<!-- Generator: Adobe Illustrator 21.1.0, SVG Export Plug-In  -->
<svg version="1.1"
	 xmlns="http://www.w3.org/2000/svg" xmlns:xlink="http://www.w3.org/1999/xlink" xmlns:a="http://ns.adobe.com/AdobeSVGViewerExtensions/3.0/"
	 x="0px" y="0px" width="284.2px" height="308.8px" viewBox="0 0 284.2 308.8"
	 style="overflow:scroll;enable-background:new 0 0 284.2 308.8;" xml:space="preserve">
<defs>
</defs>
<g>
	<g>
		<g>
			<defs>
				<path id="SVGID_1_" d="M22.3,45.1L22,45.3l-0.2,0.1c-2.2,1.7-5.3,1.3-7-0.8c-1.7-2.2-1.4-5.3,0.8-7l0.3-0.2L22.3,45.1z"/>
			</defs>
			<clipPath id="SVGID_2_">
				<use xlink:href="#SVGID_1_"  style="overflow:visible;"/>
			</clipPath>
			<g style="clip-path:url(#SVGID_2_);">
				
					<image style="overflow:visible;" width="22.8" height="20.8" xlink:href="DDBD82A9.png"  transform="matrix(1 0 0 1 0 36.9577)"/>
			</g>
		</g>
		
			<image style="overflow:visible;" width="268.5" height="296.6" xlink:href="DDBD82AB.png"  transform="matrix(1 0 0 1 15.6694 0)"/>
		<g>
			<defs>
				<path id="SVGID_3_" d="M217,296.4l-0.3,0.2c-2.2,1.7-5.3,1.3-7-0.9c-1.7-2.2-1.3-5.3,0.9-7l0.2-0.2l0.3-0.2L217,296.4z"/>
			</defs>
			<clipPath id="SVGID_4_">
				<use xlink:href="#SVGID_3_"  style="overflow:visible;"/>
			</clipPath>
			<g style="clip-path:url(#SVGID_4_);">
				
					<image style="overflow:visible;" width="22.5" height="20.9" xlink:href="DDBD82AE.png"  transform="matrix(1 0 0 1 195.0039 287.9185)"/>
			</g>
		</g>
	</g>
</g>
</svg>
