<!-- Generator: Adobe Illustrator 21.1.0, SVG Export Plug-In  -->
<svg version="1.1"
	 xmlns="http://www.w3.org/2000/svg" xmlns:xlink="http://www.w3.org/1999/xlink" xmlns:a="http://ns.adobe.com/AdobeSVGViewerExtensions/3.0/"
	 x="0px" y="0px" width="3232px" height="1809.9px" viewBox="0 0 3232 1809.9"
	 style="overflow:scroll;enable-background:new 0 0 3232 1809.9;" xml:space="preserve">
<style type="text/css">
	.st0{opacity:0.4;fill:#404852;}
	.st1{clip-path:url(#SVGID_2_);}
	.st2{fill:#404852;}
	.st3{fill:none;stroke:url(#SVGID_3_);stroke-width:10;stroke-linecap:round;stroke-miterlimit:10;}
	.st4{fill:none;stroke:url(#SVGID_4_);stroke-width:10;stroke-linecap:round;stroke-miterlimit:10;}
	.st5{fill:none;stroke:url(#SVGID_5_);stroke-width:10;stroke-linecap:round;stroke-miterlimit:10;}
	.st6{fill:none;stroke:url(#SVGID_6_);stroke-width:10;stroke-linecap:round;stroke-miterlimit:10;}
	.st7{fill:none;stroke:url(#SVGID_7_);stroke-width:10;stroke-linecap:round;stroke-miterlimit:10;}
	.st8{fill:none;stroke:url(#SVGID_8_);stroke-width:10;stroke-linecap:round;stroke-miterlimit:10;}
	.st9{fill:none;stroke:url(#SVGID_9_);stroke-width:10;stroke-linecap:round;stroke-miterlimit:10;}
	.st10{fill:none;stroke:url(#SVGID_10_);stroke-width:10;stroke-linecap:round;stroke-miterlimit:10;}
	.st11{opacity:0.2;fill:url(#SVGID_11_);}
	.st12{opacity:0.2;fill:url(#SVGID_12_);}
	.st13{opacity:0.2;fill:url(#SVGID_13_);}
	.st14{opacity:0.2;fill:url(#SVGID_14_);}
	.st15{opacity:0.2;fill:url(#SVGID_15_);}
	.st16{fill:none;stroke:url(#SVGID_16_);stroke-width:10;stroke-linecap:round;stroke-miterlimit:10;}
	.st17{fill:none;stroke:url(#SVGID_17_);stroke-width:10;stroke-linecap:round;stroke-miterlimit:10;}
	.st18{fill:none;stroke:url(#SVGID_18_);stroke-width:10;stroke-linecap:round;stroke-miterlimit:10;}
	.st19{fill:none;stroke:url(#SVGID_19_);stroke-width:10;stroke-linecap:round;stroke-miterlimit:10;}
	.st20{fill:none;stroke:url(#SVGID_20_);stroke-width:10;stroke-linecap:round;stroke-miterlimit:10;}
	.st21{opacity:0.2;}
	.st22{fill:none;stroke:#65C08A;stroke-width:12;stroke-linecap:round;stroke-miterlimit:10;stroke-dasharray:0,29.7715;}
	.st23{fill:none;stroke:#65C08A;stroke-width:12;stroke-linecap:round;stroke-miterlimit:10;stroke-dasharray:0,29.8812;}
	.st24{fill:none;stroke:url(#SVGID_49_);stroke-width:10;stroke-linecap:round;stroke-miterlimit:10;}
	.st25{fill:none;stroke:url(#SVGID_50_);stroke-width:10;stroke-linecap:round;stroke-miterlimit:10;}
	.st26{opacity:0.2;fill:url(#SVGID_51_);}
	.st27{opacity:0.6;fill:#404852;}
	.st28{clip-path:url(#SVGID_53_);}
	.st29{fill:none;stroke:url(#SVGID_54_);stroke-width:10;stroke-linecap:round;stroke-miterlimit:10;}
	.st30{fill:none;stroke:url(#SVGID_55_);stroke-width:10;stroke-linecap:round;stroke-miterlimit:10;}
	.st31{fill:none;stroke:url(#SVGID_56_);stroke-width:10;stroke-linecap:round;stroke-miterlimit:10;}
	.st32{fill:none;stroke:url(#SVGID_57_);stroke-width:10;stroke-linecap:round;stroke-miterlimit:10;}
	.st33{fill:none;stroke:url(#SVGID_58_);stroke-width:10;stroke-linecap:round;stroke-miterlimit:10;}
	.st34{fill:none;stroke:url(#SVGID_59_);stroke-width:10;stroke-linecap:round;stroke-miterlimit:10;}
	.st35{fill:none;stroke:url(#SVGID_60_);stroke-width:10;stroke-linecap:round;stroke-miterlimit:10;}
	.st36{fill:none;stroke:url(#SVGID_61_);stroke-width:10;stroke-linecap:round;stroke-miterlimit:10;}
	.st37{opacity:0.2;fill:url(#SVGID_62_);}
	.st38{opacity:0.2;fill:url(#SVGID_63_);}
	.st39{opacity:0.2;fill:url(#SVGID_64_);}
	.st40{opacity:0.2;fill:url(#SVGID_65_);}
	.st41{opacity:0.2;fill:url(#SVGID_66_);}
	.st42{fill:none;stroke:url(#SVGID_67_);stroke-width:10;stroke-linecap:round;stroke-miterlimit:10;}
	.st43{fill:none;stroke:url(#SVGID_68_);stroke-width:10;stroke-linecap:round;stroke-miterlimit:10;}
	.st44{fill:none;stroke:url(#SVGID_69_);stroke-width:10;stroke-linecap:round;stroke-miterlimit:10;}
	.st45{fill:none;stroke:url(#SVGID_70_);stroke-width:10;stroke-linecap:round;stroke-miterlimit:10;}
	.st46{fill:none;stroke:url(#SVGID_71_);stroke-width:10;stroke-linecap:round;stroke-miterlimit:10;}
	.st47{fill:none;stroke:url(#SVGID_100_);stroke-width:10;stroke-linecap:round;stroke-miterlimit:10;}
	.st48{fill:none;stroke:url(#SVGID_101_);stroke-width:10;stroke-linecap:round;stroke-miterlimit:10;}
	.st49{opacity:0.2;fill:url(#SVGID_102_);}
</style>
<defs>
</defs>
<polygon class="st0" points="757,473 757,1706 2677,1472 2677,473 "/>
<g>
	<defs>
		<polygon id="SVGID_1_" points="757,480 757,1713 2677,1479 2677,480 		"/>
	</defs>
	<clipPath id="SVGID_2_">
		<use xlink:href="#SVGID_1_"  style="overflow:visible;"/>
	</clipPath>
	<g class="st1">
		
			<image style="overflow:visible;" width="1905" height="974" xlink:href="../../../../Desktop/Capture.JPG"  transform="matrix(0.75 0 0 0.75 1689.0001 813)">
		</image>
		
			<image style="overflow:visible;" width="1920" height="976" xlink:href="../../../../Desktop/home-page.JPG"  transform="matrix(0.75 0 0 0.75 1719.0001 0)">
		</image>
		<polygon class="st2" points="757,480 757,1713 2677,1479 2677,480 		"/>
		
			<linearGradient id="SVGID_3_" gradientUnits="userSpaceOnUse" x1="18229.584" y1="6978.8149" x2="19309.584" y2="6978.8149" gradientTransform="matrix(-0.866 0.5 -0.5 -0.866 21058.3457 -2275.9612)">
			<stop  offset="0" style="stop-color:#2AFFA3"/>
			<stop  offset="1" style="stop-color:#65C08A;stop-opacity:0.3"/>
		</linearGradient>
		<line class="st3" x1="1777.3" y1="797.5" x2="850.7" y2="1332.5"/>
		
			<linearGradient id="SVGID_4_" gradientUnits="userSpaceOnUse" x1="18129.9219" y1="7243.436" x2="19209.9219" y2="7243.436" gradientTransform="matrix(-0.866 0.5 -0.5 -0.866 21058.3457 -2275.9612)">
			<stop  offset="0" style="stop-color:#2AFFA3"/>
			<stop  offset="1" style="stop-color:#65C08A;stop-opacity:0.3"/>
		</linearGradient>
		<line class="st4" x1="1731.3" y1="518.5" x2="804.7" y2="1053.5"/>
		
			<linearGradient id="SVGID_5_" gradientUnits="userSpaceOnUse" x1="18697.2559" y1="6469.4019" x2="17617.2559" y2="6469.4019" gradientTransform="matrix(-0.866 0.5 -0.5 -0.866 21058.3457 -2275.9612)">
			<stop  offset="0" style="stop-color:#25B0E5"/>
			<stop  offset="1" style="stop-color:#65C08A;stop-opacity:0.3"/>
		</linearGradient>
		<line class="st5" x1="2562.3" y1="932.5" x2="1635.7" y2="1467.5"/>
		
			<linearGradient id="SVGID_6_" gradientUnits="userSpaceOnUse" x1="18746.4648" y1="7193.542" x2="18545.541" y2="7193.542" gradientTransform="matrix(-0.866 0.5 -0.5 -0.866 21058.3457 -2275.9612)">
			<stop  offset="0" style="stop-color:#25B0E5"/>
			<stop  offset="1" style="stop-color:#65C08A;stop-opacity:0.3"/>
		</linearGradient>
		<line class="st6" x1="1396.3" y1="769.5" x2="1231" y2="865"/>
		
			<linearGradient id="SVGID_7_" gradientUnits="userSpaceOnUse" x1="18605.1465" y1="7173.0068" x2="18657.8594" y2="7264.3071" gradientTransform="matrix(-0.866 0.5 -0.5 -0.866 21058.3457 -2275.9612)">
			<stop  offset="0" style="stop-color:#25B0E5"/>
			<stop  offset="1" style="stop-color:#65C08A;stop-opacity:0.3"/>
		</linearGradient>
		<line class="st7" x1="1396.3" y1="740.5" x2="1231" y2="836"/>
		
			<linearGradient id="SVGID_8_" gradientUnits="userSpaceOnUse" x1="17788.8984" y1="6666.0947" x2="17587.9746" y2="6666.0947" gradientTransform="matrix(-0.866 0.5 -0.5 -0.866 21058.3457 -2275.9612)">
			<stop  offset="0" style="stop-color:#25B0E5"/>
			<stop  offset="1" style="stop-color:#65C08A;stop-opacity:0.3"/>
		</linearGradient>
		<line class="st8" x1="2489.3" y1="747.5" x2="2324" y2="843"/>
		
			<linearGradient id="SVGID_9_" gradientUnits="userSpaceOnUse" x1="19108.2344" y1="7173.6343" x2="19160.9453" y2="7264.9346" gradientTransform="matrix(-0.866 0.5 -0.5 -0.866 21058.3457 -2275.9612)">
			<stop  offset="0" style="stop-color:#25B0E5"/>
			<stop  offset="1" style="stop-color:#65C08A;stop-opacity:0.3"/>
		</linearGradient>
		<line class="st9" x1="960.3" y1="991.5" x2="795" y2="1087"/>
		
			<linearGradient id="SVGID_10_" gradientUnits="userSpaceOnUse" x1="17895.5176" y1="6620.1196" x2="17948.2305" y2="6711.4199" gradientTransform="matrix(-0.866 0.5 -0.5 -0.866 21058.3457 -2275.9612)">
			<stop  offset="0" style="stop-color:#2AFFA3"/>
			<stop  offset="1" style="stop-color:#65C08A;stop-opacity:0.3"/>
		</linearGradient>
		<line class="st10" x1="2287.3" y1="864.5" x2="2122" y2="960"/>
		
			<linearGradient id="SVGID_11_" gradientUnits="userSpaceOnUse" x1="16301.9268" y1="3425.5037" x2="17574" y2="3425.5037" gradientTransform="matrix(-1 0.5774 0.5774 0.6667 16738.248 -10890.8105)">
			<stop  offset="0" style="stop-color:#2AFFA3"/>
			<stop  offset="1" style="stop-color:#65C08A;stop-opacity:0.3"/>
		</linearGradient>
		<polygon class="st11" points="2313,1038.1 2313,688.1 1243,1305.9 1243,1655.9 		"/>
		
			<linearGradient id="SVGID_12_" gradientUnits="userSpaceOnUse" x1="16178.2822" y1="2852.4333" x2="17141.6152" y2="2852.4333" gradientTransform="matrix(-1 0.5774 0.5774 0.6667 16738.248 -10890.8105)">
			<stop  offset="0" style="stop-color:#33C3EA"/>
			<stop  offset="1" style="stop-color:#65C08A;stop-opacity:0.3"/>
		</linearGradient>
		<polygon class="st12" points="2130.3,528.1 2130.3,263 1320,730.8 1320,995.9 		"/>
		
			<linearGradient id="SVGID_13_" gradientUnits="userSpaceOnUse" x1="16157.5186" y1="3834.9153" x2="17120.8516" y2="3834.9153" gradientTransform="matrix(-1 0.5774 0.5774 0.6667 16738.248 -10890.8105)">
			<stop  offset="0" style="stop-color:#33C3EA"/>
			<stop  offset="1" style="stop-color:#65C08A;stop-opacity:0.3"/>
		</linearGradient>
		<polygon class="st13" points="2718.3,1171.1 2718.3,906 1908,1373.8 1908,1638.9 		"/>
		
			<linearGradient id="SVGID_14_" gradientUnits="userSpaceOnUse" x1="16626.6836" y1="3187.6367" x2="18267.5781" y2="3187.6367" gradientTransform="matrix(-1 0.5774 0.5774 0.6667 16738.248 -10890.8105)">
			<stop  offset="0" style="stop-color:#2AFFA3"/>
			<stop  offset="1" style="stop-color:#65C08A;stop-opacity:0.3"/>
		</linearGradient>
		<polygon class="st14" points="1927,891.3 1927,804.9 336,1723.5 336,1809.9 		"/>
		
			<linearGradient id="SVGID_15_" gradientUnits="userSpaceOnUse" x1="16839.7129" y1="2974.647" x2="18480.6074" y2="2974.647" gradientTransform="matrix(-1 0.5774 0.5774 0.6667 16738.248 -10890.8105)">
			<stop  offset="0" style="stop-color:#2AFFA3"/>
			<stop  offset="1" style="stop-color:#65C08A;stop-opacity:0.3"/>
		</linearGradient>
		<polygon class="st15" points="1591,872.3 1591,785.9 0,1704.5 0,1790.9 		"/>
		<linearGradient id="SVGID_16_" gradientUnits="userSpaceOnUse" x1="1662.0001" y1="1414.9348" x2="2329" y2="1414.9348">
			<stop  offset="0" style="stop-color:#2AFFA3"/>
			<stop  offset="1" style="stop-color:#00C6AD"/>
		</linearGradient>
		<polyline class="st16" points="1951,1250 2085,1172 2085,1340 1735,1136 1667,1175 1667,1691 2324,1313 		"/>
		<linearGradient id="SVGID_17_" gradientUnits="userSpaceOnUse" x1="2810.3137" y1="1166.9006" x2="2914.9392" y2="573.5399">
			<stop  offset="0" style="stop-color:#2AFFA3"/>
			<stop  offset="1" style="stop-color:#00C6AD"/>
		</linearGradient>
		<polyline class="st17" points="2854,674 2988,596 2988,764 2638,560 2570,599 2570,1115 3227,737 		"/>
		<linearGradient id="SVGID_18_" gradientUnits="userSpaceOnUse" x1="1586.0001" y1="1080.6759" x2="2078" y2="1080.6759">
			<stop  offset="0" style="stop-color:#2AFFA3"/>
			<stop  offset="1" style="stop-color:#00C6AD"/>
		</linearGradient>
		<polyline class="st18" points="1875,919 2073,805 2073,1119 1591,838 1591,1360 		"/>
		<linearGradient id="SVGID_19_" gradientUnits="userSpaceOnUse" x1="1214.9612" y1="1108.5177" x2="1921.0001" y2="1108.5177">
			<stop  offset="0" style="stop-color:#33C3EA"/>
			<stop  offset="1" style="stop-color:#00C6AD"/>
		</linearGradient>
		<polyline class="st19" points="1535,1067 1222,884 1220,1333 1916,927 		"/>
		
			<linearGradient id="SVGID_20_" gradientUnits="userSpaceOnUse" x1="19337" y1="-5511.4824" x2="18630.9609" y2="-5511.4824" gradientTransform="matrix(-1 0 0 -1 20398 -4843)">
			<stop  offset="0" style="stop-color:#33C3EA"/>
			<stop  offset="1" style="stop-color:#65C08A;stop-opacity:0.3"/>
		</linearGradient>
		<polyline class="st20" points="1447,710 1760,893 1762,444 1066,850 		"/>
		<g>
			<g>
				<g>
					<g>
						<defs>
							<path id="SVGID_21_" d="M2318.5,1309.9l0.3-0.1l0.1-0.1c2.5-1.2,5.5-0.2,6.7,2.2c1.2,2.5,0.2,5.5-2.2,6.7l-0.3,0.2
								L2318.5,1309.9z"/>
						</defs>
						<clipPath id="SVGID_22_">
							<use xlink:href="#SVGID_21_"  style="overflow:visible;"/>
						</clipPath>
						<g style="clip-path:url(#SVGID_22_);">
							
								<image style="overflow:visible;" width="23.3" height="18.3" xlink:href="B69288D5.png"  transform="matrix(1 0 0 1 2317.9661 1300.8457)"/>
						</g>
					</g>
					
						<image style="overflow:visible;" width="239.4" height="273.8" xlink:href="B69288D7.png"  transform="matrix(1 0 0 1 2084.0002 1063.2314)"/>
					<g>
						<defs>
							<path id="SVGID_23_" d="M2125.9,1063.5l0.2-0.3c1.8-2.1,5-2.3,7.1-0.5c2.1,1.8,2.3,5,0.5,7.1l-0.1,0.2l-0.2,0.2
								L2125.9,1063.5z"/>
						</defs>
						<clipPath id="SVGID_24_">
							<use xlink:href="#SVGID_23_"  style="overflow:visible;"/>
						</clipPath>
						<g style="clip-path:url(#SVGID_24_);">
							
								<image style="overflow:visible;" width="21.1" height="22.6" xlink:href="B69288D2.png"  transform="matrix(1 0 0 1 2125.4902 1048.0858)"/>
						</g>
					</g>
				</g>
			</g>
			<g>
				<g>
					<g>
						<defs>
							<path id="SVGID_25_" d="M2150.1,1054.1l-0.2,0.2l-0.2,0.1c-2.2,1.7-5.3,1.3-7-0.8c-1.7-2.2-1.4-5.3,0.8-7l0.3-0.2
								L2150.1,1054.1z"/>
						</defs>
						<clipPath id="SVGID_26_">
							<use xlink:href="#SVGID_25_"  style="overflow:visible;"/>
						</clipPath>
						<g style="clip-path:url(#SVGID_26_);">
							
								<image style="overflow:visible;" width="22.8" height="20.8" xlink:href="B69288D3.png"  transform="matrix(1 0 0 1 2127.8464 1045.958)"/>
						</g>
					</g>
					
						<image style="overflow:visible;" width="268.5" height="296.6" xlink:href="B69288DD.png"  transform="matrix(1 0 0 1 2143.5156 1009.0002)"/>
					<g>
						<defs>
							<path id="SVGID_27_" d="M2344.8,1305.4l-0.3,0.2c-2.2,1.7-5.3,1.3-7-0.9c-1.7-2.2-1.3-5.3,0.9-7l0.2-0.2l0.3-0.2
								L2344.8,1305.4z"/>
						</defs>
						<clipPath id="SVGID_28_">
							<use xlink:href="#SVGID_27_"  style="overflow:visible;"/>
						</clipPath>
						<g style="clip-path:url(#SVGID_28_);">
							
								<image style="overflow:visible;" width="22.5" height="20.9" xlink:href="B69288DF.png"  transform="matrix(1 0 0 1 2322.8501 1296.9187)"/>
						</g>
					</g>
				</g>
			</g>
		</g>
		<g>
			<g>
				<g>
					<g>
						<defs>
							<path id="SVGID_29_" d="M1509.5,1330.9l0.3-0.1l0.1-0.1c2.5-1.2,5.5-0.2,6.7,2.2c1.2,2.5,0.2,5.5-2.2,6.7l-0.3,0.2
								L1509.5,1330.9z"/>
						</defs>
						<clipPath id="SVGID_30_">
							<use xlink:href="#SVGID_29_"  style="overflow:visible;"/>
						</clipPath>
						<g style="clip-path:url(#SVGID_30_);">
							
								<image style="overflow:visible;" width="23.3" height="18.3" xlink:href="B69288D0.png"  transform="matrix(1 0 0 1 1508.9659 1321.8457)"/>
						</g>
					</g>
					
						<image style="overflow:visible;" width="239.4" height="273.8" xlink:href="B69288D1.png"  transform="matrix(1 0 0 1 1275.0002 1084.2314)"/>
					<g>
						<defs>
							<path id="SVGID_31_" d="M1316.9,1084.5l0.2-0.3c1.8-2.1,5-2.3,7.1-0.5c2.1,1.8,2.3,5,0.5,7.1l-0.1,0.2l-0.2,0.2
								L1316.9,1084.5z"/>
						</defs>
						<clipPath id="SVGID_32_">
							<use xlink:href="#SVGID_31_"  style="overflow:visible;"/>
						</clipPath>
						<g style="clip-path:url(#SVGID_32_);">
							
								<image style="overflow:visible;" width="21.1" height="22.6" xlink:href="B69288D6.png"  transform="matrix(1 0 0 1 1316.4904 1069.0858)"/>
						</g>
					</g>
				</g>
			</g>
			<g>
				<g>
					<g>
						<defs>
							<path id="SVGID_33_" d="M1341.1,1075.1l-0.2,0.2l-0.2,0.1c-2.2,1.7-5.3,1.3-7-0.8c-1.7-2.2-1.4-5.3,0.8-7l0.3-0.2
								L1341.1,1075.1z"/>
						</defs>
						<clipPath id="SVGID_34_">
							<use xlink:href="#SVGID_33_"  style="overflow:visible;"/>
						</clipPath>
						<g style="clip-path:url(#SVGID_34_);">
							
								<image style="overflow:visible;" width="22.8" height="20.8" xlink:href="632DC6DE.png"  transform="matrix(1 0 0 1 1318.8463 1066.958)"/>
						</g>
					</g>
					
						<image style="overflow:visible;" width="268.5" height="296.6" xlink:href="632DC6D9.png"  transform="matrix(1 0 0 1 1334.5157 1030.0002)"/>
					<g>
						<defs>
							<path id="SVGID_35_" d="M1535.8,1326.4l-0.3,0.2c-2.2,1.7-5.3,1.3-7-0.9c-1.7-2.2-1.3-5.3,0.9-7l0.2-0.2l0.3-0.2
								L1535.8,1326.4z"/>
						</defs>
						<clipPath id="SVGID_36_">
							<use xlink:href="#SVGID_35_"  style="overflow:visible;"/>
						</clipPath>
						<g style="clip-path:url(#SVGID_36_);">
							
								<image style="overflow:visible;" width="22.5" height="20.9" xlink:href="632DC6DA.png"  transform="matrix(1 0 0 1 1513.8502 1317.9187)"/>
						</g>
					</g>
				</g>
			</g>
			<g class="st21">
				<circle class="st22" cx="1442" cy="1193" r="199"/>
			</g>
		</g>
		<g>
			<g>
				<g>
					<g>
						<defs>
							<path id="SVGID_37_" d="M2363.1,644.1l-0.2,0.2l-0.2,0.1c-2.2,1.7-5.3,1.3-7-0.8c-1.7-2.2-1.4-5.3,0.8-7l0.3-0.2
								L2363.1,644.1z"/>
						</defs>
						<clipPath id="SVGID_38_">
							<use xlink:href="#SVGID_37_"  style="overflow:visible;"/>
						</clipPath>
						<g style="clip-path:url(#SVGID_38_);">
							
								<image style="overflow:visible;" width="22.8" height="20.8" xlink:href="632DC6D8.png"  transform="matrix(1 0 0 1 2340.8464 635.9579)"/>
						</g>
					</g>
					
						<image style="overflow:visible;" width="268.5" height="296.6" xlink:href="632DC6D6.png"  transform="matrix(1 0 0 1 2356.5156 599.0002)"/>
					<g>
						<defs>
							<path id="SVGID_39_" d="M2557.8,895.4l-0.3,0.2c-2.2,1.7-5.3,1.3-7-0.9c-1.7-2.2-1.3-5.3,0.9-7l0.2-0.2l0.3-0.2L2557.8,895.4
								z"/>
						</defs>
						<clipPath id="SVGID_40_">
							<use xlink:href="#SVGID_39_"  style="overflow:visible;"/>
						</clipPath>
						<g style="clip-path:url(#SVGID_40_);">
							
								<image style="overflow:visible;" width="22.5" height="20.9" xlink:href="632DC6C9.png"  transform="matrix(1 0 0 1 2535.8501 886.9187)"/>
						</g>
					</g>
				</g>
			</g>
			<g class="st21">
				<circle class="st22" cx="2464" cy="762" r="199"/>
			</g>
		</g>
		<g>
			<g>
				<g>
					<g>
						<defs>
							<path id="SVGID_41_" d="M802.5,1049.9l0.3-0.1l0.1-0.1c2.5-1.2,5.5-0.2,6.7,2.2c1.2,2.5,0.2,5.5-2.2,6.7l-0.3,0.2
								L802.5,1049.9z"/>
						</defs>
						<clipPath id="SVGID_42_">
							<use xlink:href="#SVGID_41_"  style="overflow:visible;"/>
						</clipPath>
						<g style="clip-path:url(#SVGID_42_);">
							
								<image style="overflow:visible;" width="23.3" height="18.3" xlink:href="632DC6CA.png"  transform="matrix(1 0 0 1 801.966 1040.8457)"/>
						</g>
					</g>
					
						<image style="overflow:visible;" width="239.4" height="273.8" xlink:href="632DC6C8.png"  transform="matrix(1 0 0 1 568.0002 803.2314)"/>
					<g>
						<defs>
							<path id="SVGID_43_" d="M609.9,803.5l0.2-0.3c1.8-2.1,5-2.3,7.1-0.5c2.1,1.8,2.3,5,0.5,7.1l-0.1,0.2l-0.2,0.2L609.9,803.5z"
								/>
						</defs>
						<clipPath id="SVGID_44_">
							<use xlink:href="#SVGID_43_"  style="overflow:visible;"/>
						</clipPath>
						<g style="clip-path:url(#SVGID_44_);">
							
								<image style="overflow:visible;" width="21.1" height="22.6" xlink:href="632DC6CE.png"  transform="matrix(1 0 0 1 609.4904 788.0858)"/>
						</g>
					</g>
				</g>
			</g>
			<g>
				<g>
					<g>
						<defs>
							<path id="SVGID_45_" d="M634.1,794.1l-0.2,0.2l-0.2,0.1c-2.2,1.7-5.3,1.3-7-0.8c-1.7-2.2-1.4-5.3,0.8-7l0.3-0.2L634.1,794.1z
								"/>
						</defs>
						<clipPath id="SVGID_46_">
							<use xlink:href="#SVGID_45_"  style="overflow:visible;"/>
						</clipPath>
						<g style="clip-path:url(#SVGID_46_);">
							
								<image style="overflow:visible;" width="22.8" height="20.8" xlink:href="632DC6CB.png"  transform="matrix(1 0 0 1 611.8463 785.9579)"/>
						</g>
					</g>
					
						<image style="overflow:visible;" width="268.5" height="296.6" xlink:href="632DC6ED.png"  transform="matrix(1 0 0 1 627.5157 749.0002)"/>
					<g>
						<defs>
							<path id="SVGID_47_" d="M828.8,1045.4l-0.3,0.2c-2.2,1.7-5.3,1.3-7-0.9c-1.7-2.2-1.3-5.3,0.9-7l0.2-0.2l0.3-0.2L828.8,1045.4
								z"/>
						</defs>
						<clipPath id="SVGID_48_">
							<use xlink:href="#SVGID_47_"  style="overflow:visible;"/>
						</clipPath>
						<g style="clip-path:url(#SVGID_48_);">
							
								<image style="overflow:visible;" width="22.5" height="20.9" xlink:href="632DC6EF.png"  transform="matrix(1 0 0 1 806.8502 1036.9187)"/>
						</g>
					</g>
				</g>
			</g>
			<g class="st21">
				<circle class="st23" cx="735" cy="912" r="214"/>
			</g>
		</g>
		
			<linearGradient id="SVGID_49_" gradientUnits="userSpaceOnUse" x1="19166.5781" y1="7359.8843" x2="18965.6543" y2="7359.8843" gradientTransform="matrix(-0.866 0.5 -0.5 -0.866 21058.3457 -2275.9612)">
			<stop  offset="0" style="stop-color:#25B0E5"/>
			<stop  offset="1" style="stop-color:#65C08A;stop-opacity:0.3"/>
		</linearGradient>
		<line class="st24" x1="949.3" y1="835.5" x2="784" y2="931"/>
		
			<linearGradient id="SVGID_50_" gradientUnits="userSpaceOnUse" x1="19024.2598" y1="7341.0811" x2="19076.9727" y2="7432.3813" gradientTransform="matrix(-0.866 0.5 -0.5 -0.866 21058.3457 -2275.9612)">
			<stop  offset="0" style="stop-color:#25B0E5"/>
			<stop  offset="1" style="stop-color:#65C08A;stop-opacity:0.3"/>
		</linearGradient>
		<line class="st25" x1="949.3" y1="804.5" x2="784" y2="900"/>
		<linearGradient id="SVGID_51_" gradientUnits="userSpaceOnUse" x1="952.0001" y1="1413.826" x2="1672.0001" y2="1413.826">
			<stop  offset="0" style="stop-color:#2AFFA3"/>
			<stop  offset="1" style="stop-color:#65C08A;stop-opacity:0.3"/>
		</linearGradient>
		<polygon class="st26" points="1672,1067.8 952,1483.5 952,1759.9 1672,1344.2 		"/>
	</g>
</g>
<polygon class="st27" points="757,480 757,1713 2677,1479 2677,480 "/>
</svg>
