<?xml version="1.0" encoding="utf-8"?>
<!-- Generator: Adobe Illustrator 22.1.0, SVG Export Plug-In . SVG Version: 6.00 Build 0)  -->
<svg version="1.1" xmlns="http://www.w3.org/2000/svg" xmlns:xlink="http://www.w3.org/1999/xlink" x="0px" y="0px"
	 viewBox="0 0 1670.1 910.1" style="enable-background:new 0 0 1670.1 910.1;" xml:space="preserve">
<style type="text/css">
	.st0{display:none;}
	.st1{display:inline;fill:#FFFFFF;}
	.st2{display:inline;fill:#F1F5FC;}
	.st3{display:inline;}
	.st4{fill:#F1F5FC;}
	.st5{fill-rule:evenodd;clip-rule:evenodd;fill:#E4E4E4;}
	.st6{fill:#FFFFFF;}
	.st7{fill:none;stroke:#FCFCFC;stroke-width:0.25;stroke-miterlimit:10;}
	.st8{display:inline;fill:#C2DDFE;stroke:#C2DDFE;stroke-width:0.8289;stroke-miterlimit:10;}
	.st9{display:inline;fill:#91FFD5;}
	.st10{display:inline;fill:#E4E4E4;}
	.st11{display:inline;fill:#DDEAFC;stroke:#DDEAFC;stroke-width:0.6126;stroke-miterlimit:10;}
	.st12{fill:#FFDEAC;}
	.st13{fill:#DDEAFC;}
	.st14{fill:#3B4B99;}
	.st15{fill:#6C3B00;}
	.st16{fill:#4DB1FF;}
	.st17{fill:#B9966D;}
	.st18{fill:#FFEF37;}
	.st19{fill:#A8C1F0;}
	.st20{display:inline;fill:#FFEF37;}
	.st21{display:inline;fill:#A8C1F0;}
	.st22{opacity:0.7;fill:#DDEAFC;stroke:#DDEAFC;stroke-width:0.7235;stroke-miterlimit:10;}
	.st23{opacity:0.5;fill:#DDEAFC;stroke:#DDEAFC;stroke-width:0.7235;stroke-miterlimit:10;}
	.st24{fill:#91FFD5;}
	.st25{fill:#E4E4E4;stroke:#E4E4E4;stroke-miterlimit:10;}
	.st26{fill:#E4E4E4;stroke:#E4E4E4;stroke-width:1.2014;stroke-miterlimit:10;}
	.st27{fill:#E4E4E4;}
	.st28{fill:#DAE4FC;}
	.st29{fill-rule:evenodd;clip-rule:evenodd;fill:#FFFFFF;}
	.st30{fill-rule:evenodd;clip-rule:evenodd;fill:#3BE2B4;}
	.st31{fill:#3BE2B4;}
	.st32{fill-rule:evenodd;clip-rule:evenodd;fill:#76FFD3;}
	.st33{fill:#E4E4E4;stroke:#E4E4E4;stroke-width:1.1223;stroke-miterlimit:10;}
	.st34{fill-rule:evenodd;clip-rule:evenodd;fill:#8FAFF5;}
	.st35{fill:#C0DBFC;}
	.st36{fill:#DDEAFC;stroke:#DDEAFC;stroke-width:0.7235;stroke-miterlimit:10;}
	.st37{fill:none;stroke:#9BB7F6;stroke-width:0.25;stroke-miterlimit:10;}
	.st38{fill:none;stroke:#DBE5FC;stroke-width:0.25;stroke-miterlimit:10;}
	.st39{fill:#4479EE;}
	.st40{fill:#C2DDFE;stroke:#C2DDFE;stroke-width:0.8289;stroke-miterlimit:10;}
	.st41{fill:#92BEAE;}
	.st42{fill:#8FAFF5;}
	.st43{fill-rule:evenodd;clip-rule:evenodd;fill:#B4C9F8;}
	.st44{fill-rule:evenodd;clip-rule:evenodd;fill:#C2DDFE;stroke:#C2DDFE;stroke-width:0.8289;stroke-miterlimit:10;}
	.st45{fill:#E4E4E4;stroke:#E4E4E4;stroke-width:0.8047;stroke-miterlimit:10;}
	.st46{fill:#E4E4E4;stroke:#E4E4E4;stroke-width:0.9711;stroke-miterlimit:10;}
	.st47{fill-rule:evenodd;clip-rule:evenodd;fill:#4479EF;}
	.st48{fill:#FFFF33;}
	.st49{fill:#EF5632;}
	.st50{fill:#4275F2;}
	.st51{fill:#979797;}
	.st52{fill:url(#SVGID_1_);}
	.st53{fill:url(#SVGID_2_);}
	.st54{fill:none;stroke:#FCFCFC;stroke-width:0.5371;stroke-miterlimit:10;}
	.st55{fill-rule:evenodd;clip-rule:evenodd;fill:#4479EE;}
	.st56{fill:none;stroke:#BEF5E6;stroke-width:0.2581;stroke-miterlimit:10;}
	.st57{fill:none;stroke:#9BB7F6;stroke-width:0.2;stroke-miterlimit:10;}
	.st58{fill:#E4E4E4;stroke:#E4E4E4;stroke-width:0.8698;stroke-miterlimit:10;}
	.st59{fill:#C2DDFE;}
	.st60{fill:none;stroke:#9BB7F6;stroke-miterlimit:10;}
	.st61{fill:#F5EDDF;}
	.st62{fill:#B1B7D6;}
	.st63{fill:#DDEAFC;stroke:#DDEAFC;stroke-width:0.6325;stroke-miterlimit:10;}
	.st64{fill:#EBF2FD;}
	.st65{fill-rule:evenodd;clip-rule:evenodd;fill:#DDEAFC;}
	.st66{fill:#C7B4FF;}
	.st67{fill:#FFD24D;}
	.st68{fill:#8A8BC3;}
	.st69{fill:#D6BEDB;stroke:#DDEAFC;stroke-width:0.7235;stroke-miterlimit:10;}
	.st70{fill:#FFE5D7;stroke:#DDEAFC;stroke-width:0.7235;stroke-miterlimit:10;}
	.st71{fill:#FC5C05;}
	.st72{fill:#303654;}
	.st73{fill:#F5911E;}
	.st74{fill:#C0C5E1;}
	.st75{fill:#76FFD3;}
	.st76{fill:#4479EF;}
	.st77{fill:#AF88A1;}
	.st78{fill:#D58E76;}
	.st79{fill:#FF6666;}
	.st80{fill:#FF8C8C;}
	.st81{fill:#8B3214;}
	.st82{fill:#B9071A;}
	.st83{fill:#9CFFDA;}
	.st84{fill:#84FFD0;}
	.st85{fill:#F0A0C8;}
	.st86{fill:#CECAEF;}
	.st87{fill:none;stroke:#FCFDFF;stroke-miterlimit:10;}
	.st88{fill:#D0D66F;}
	.st89{fill:#C3965C;}
	.st90{fill:#C48563;}
	.st91{fill:#3294EF;}
	.st92{fill:#0E50BA;}
	.st93{fill:#CB5300;}
	.st94{fill:#FDDC00;}
	.st95{fill:#B8E0FF;}
	.st96{fill:#A77666;}
	.st97{fill:#2A237E;stroke:#DDEAFC;stroke-width:0.7235;stroke-miterlimit:10;}
	.st98{fill:#DDEAFC;stroke:#DDEAFC;stroke-width:0.5669;stroke-miterlimit:10;}
	.st99{fill-rule:evenodd;clip-rule:evenodd;fill:#303654;}
	.st100{fill:#805E00;}
	.st101{fill:#FF777F;}
	.st102{fill-rule:evenodd;clip-rule:evenodd;fill:#FFDEAC;}
	.st103{fill:#FFDEAC;stroke:#FFDEAC;stroke-miterlimit:10;}
	.st104{fill:#34E5F9;}
	.st105{fill-rule:evenodd;clip-rule:evenodd;fill:#EF5632;}
	.st106{fill:url(#SVGID_3_);}
	.st107{opacity:0.8;}
	.st108{fill:#94D0FF;}
	.st109{fill:none;}
	.st110{fill:#30EAF9;}
	.st111{fill:#17C9FF;}
	.st112{fill:#FF5A60;}
	.st113{fill:#66B0BC;}
	.st114{fill:#E7C3B0;}
	.st115{fill:#FF8985;}
	.st116{fill:none;stroke:#C6E8D1;stroke-miterlimit:10;}
	.st117{fill:#BDFFFF;}
	.st118{fill:#EBFFFF;}
	.st119{fill-rule:evenodd;clip-rule:evenodd;fill:#3B4B99;}
	.st120{fill:none;stroke:#9BB7F6;stroke-width:0.5;stroke-miterlimit:10;}
	.st121{fill:#4479EE;stroke:#4479EE;stroke-width:0.25;stroke-miterlimit:10;}
	.st122{fill:none;stroke:#9BB7F6;stroke-width:0.199;stroke-miterlimit:10;}
	.st123{fill:none;stroke:#9BB7F6;stroke-width:0.1862;stroke-miterlimit:10;}
	.st124{fill:none;stroke:#9BB7F6;stroke-width:0.2704;stroke-miterlimit:10;}
	.st125{fill:none;stroke:#9BB7F6;stroke-width:0.2345;stroke-miterlimit:10;}
	.st126{fill:none;stroke:#9BB7F6;stroke-width:0.2214;stroke-miterlimit:10;}
	.st127{fill:none;stroke:#9BB7F6;stroke-width:0.2417;stroke-miterlimit:10;}
	.st128{fill-rule:evenodd;clip-rule:evenodd;fill:#FFD24D;}
	.st129{fill-rule:evenodd;clip-rule:evenodd;fill:#30EAF9;}
	.st130{fill-rule:evenodd;clip-rule:evenodd;fill:#3BACB4;}
	.st131{fill:#DDEAFC;stroke:#DDEAFC;stroke-width:0.9614;stroke-miterlimit:10;}
	.st132{fill:#95EAF9;}
	.st133{fill:none;stroke:#9BB7F6;stroke-width:0.4414;stroke-miterlimit:10;}
	.st134{fill:none;stroke:#C2DDFE;stroke-miterlimit:10;}
	.st135{fill:none;stroke:#9BB7F6;stroke-width:9.904722e-02;stroke-miterlimit:10;}
	.st136{fill:none;stroke:#9BB7F6;stroke-width:0.1158;stroke-miterlimit:10;}
	.st137{fill:#DFECFE;}
	.st138{fill:#EDD5A6;}
	.st139{fill:#7DA7D7;}
	.st140{fill:none;stroke:#FCFCFC;stroke-width:0.1523;stroke-miterlimit:10;}
	.st141{fill:#4479EE;stroke:#4479EE;stroke-width:0.75;stroke-miterlimit:10;}
	.st142{fill:#7CA7D9;stroke:#FFFFFF;stroke-width:0.25;stroke-miterlimit:10;}
	.st143{fill:#4479EE;stroke:#FFFFFF;stroke-width:0.25;stroke-miterlimit:10;}
	.st144{fill:#4479EE;stroke:#4479EE;stroke-miterlimit:10;}
	.st145{fill:#7CA7D9;}
	.st146{fill:#C2DDFE;stroke:#C2DDFE;stroke-width:0.2351;stroke-miterlimit:10;}
	.st147{fill:#E4E4E4;stroke:#E4E4E4;stroke-width:0.2282;stroke-miterlimit:10;}
	.st148{fill:#E4E4E4;stroke:#E4E4E4;stroke-width:0.2836;stroke-miterlimit:10;}
	.st149{fill:#E4E4E4;stroke:#E4E4E4;stroke-width:0.2754;stroke-miterlimit:10;}
	.st150{fill:#2CE3B6;}
	.st151{fill:none;stroke:#E4E4E4;stroke-width:0.2754;stroke-miterlimit:10;}
	.st152{fill:none;stroke:#91FFD5;stroke-width:0.2836;stroke-miterlimit:10;}
	.st153{fill:#777777;}
	.st154{fill:none;stroke:#8FAFF5;stroke-width:2.836;stroke-miterlimit:10;}
	.st155{fill:none;stroke:#C2DDFE;stroke-width:2.836;stroke-miterlimit:10;}
	.st156{fill:#00B5AE;}
	.st157{fill:#01A69A;}
	.st158{fill:#FC642D;}
	.st159{fill:#335C71;}
	.st160{fill:#00B36A;}
	.st161{fill:#00995B;}
	.st162{fill:#99003B;}
	.st163{fill:#1AFFA1;}
	.st164{fill:#00663D;}
	.st165{fill:#B31800;}
	.st166{fill:#E61E17;}
	.st167{fill:#660E00;}
	.st168{fill:#903200;}
	.st169{fill:#C33F14;}
	.st170{fill:#16C1DD;}
	.st171{fill:#003A43;}
	.st172{fill:#6674B7;}
	.st173{fill:#FF4400;}
	.st174{fill:#B33000;}
	.st175{fill:#476D15;}
	.st176{fill:#B98D00;}
	.st177{fill:#6D5200;}
	.st178{fill:#327DAC;}
	.st179{fill:#0C3853;}
	.st180{fill:#B9421B;}
	.st181{fill:#461100;}
	.st182{fill:#460008;}
	.st183{fill:#035336;}
	.st184{fill:#1BAC77;}
	.st185{fill:#213A00;}
	.st186{fill:#7DA5D5;}
	.st187{fill:#7754F5;}
	.st188{fill:#EBD3A4;}
	.st189{fill:#25AEE3;}
	.st190{fill:#909DDB;}
	.st191{fill:#5C6AC2;}
	.st192{fill:#2CE1B4;}
	.st193{fill:url(#SVGID_4_);}
	.st194{fill:url(#SVGID_5_);}
	.st195{fill:url(#SVGID_6_);}
	.st196{fill:url(#SVGID_7_);}
	.st197{fill:url(#SVGID_8_);}
	.st198{fill:url(#SVGID_9_);}
	.st199{fill:url(#SVGID_10_);}
	.st200{fill:url(#SVGID_11_);}
	.st201{fill:url(#SVGID_12_);}
	.st202{fill:#90666B;}
	.st203{fill:#F7F0E8;}
</style>
<g id="fill_color_-_browser" class="st0">
</g>
<g id="browser">
</g>
<g id="Layer_6">
	<path class="st6" d="M439.8,588.1c-36.7-23,24.4-42.1,42.5-43.8c21.8-2,43.7,1.3,65.3,4.6c-17.8-27-29.6-59.9-23.5-91.6
		c6.1-31.8,34.2-60.4,66.5-59.2c30.8,1.2,54.9,27.1,69.6,54.1c9.2-75.6,61.1-144.5,131.1-174.3c24.4-10.4,69.8-20.8,93.2-8.3
		c20.9,11.1,16.5,39.2,36.6,51.8c25,15.6,60.4,2.6,81.4,23.2c13.9,13.7,17.7,45.5,15.1,64.9s-6.3,35.3-15.5,52.5
		c-4.6,8.6-9.5,17.7-9.1,27.5c0.4,9.8,3.4,22,13.1,20.8c15.1-1.8,25.1-19.6,25.7-19.9c14.2-7.5,31.9,7,34,22.9
		c2,15.9-6.1,31.2-14.1,45.1c15.3,10,33.7-14.5,51.5-10.4c13.1,3.1,17.5,21.1,11.4,33.1s-18.7,19-30.8,24.8
		c-135.8,65.8-291.9,77.4-438.8,48.4c-15.5-3.1-31-6.6-46.4-10.5c-30.8-7.8-61.1-17.3-90.9-28.3c-25.4-9.4-54.2-17.8-73.8-37.3
		c-2.7-2.7-5.4-5.9-5.9-9.7c-0.6-3.8,1.7-8.3,5.6-8.7"/>
	<path class="st59" d="M931.5,353.6c10.5,6.9,39.8,23.5,40.8,33.4c1.2,11.6,1.4,7-0.8,8.6c-1.8,1.3-5.7-0.6-8.3-0.3
		c-20.2,2.4-40.4-0.3-60.6,2.1c4.2-0.5-23.6-29.1-25.6-31.3c-6.6-7.1-22.6-15.4-16.7-24.8C872.2,322.3,918,344.6,931.5,353.6z"/>
	<g>
		<g>
			<path class="st55" d="M1003.2,501.7c-0.4-1.9,1.2-3,1.9-4.5c0.1-0.3,0.3-0.6,0.4-0.9l0-0.1l0.2-0.4c0.2-0.3,0.3-0.6,0.5-1l0.9-2
				c0.6-1.3,1.3-2.6,1.9-3.9c1.1-2.7,2.4-5.4,3.4-8.1c0.5-1.4,1.1-2.8,1.6-4.2c0.5-1.4,1-2.8,1.5-4.2c0.5-1.4,0.9-2.8,1.4-4.3
				c0.4-1.4,0.9-2.9,1.3-4.3c0.8-2.9,1.6-5.9,2.2-8.9c1.4-5.9,2.3-12,3.1-18.1c0.7-6.1,1-12.3,1.1-18.5l-0.1-4.6
				c0-0.8,0-1.5-0.1-2.3l-0.1-2.3c-0.1-1.5-0.2-3.1-0.3-4.6l-0.5-4.6c-0.7-6.1-1.7-12.1-3.1-18c-0.6-3-1.5-5.9-2.3-8.8
				c-0.4-1.4-0.9-2.9-1.4-4.3c-0.5-1.4-0.9-2.9-1.4-4.2c-6.4-15.8-14.5-29.6-25.4-42.3c-10.9-12.8-25.2-24.1-44.5-33.1
				c-1-0.5-2.1-1-3.1-1.5l-3.2-1.3c-2.1-0.9-4.2-1.8-6.4-2.6c-4.3-1.5-8.6-3.2-12.9-4.4c-2.2-0.7-4.3-1.4-6.5-2
				c-2.2-0.6-4.3-1.2-6.5-1.7c-1.1-0.3-2.2-0.6-3.2-0.9c-1.1-0.2-2.2-0.5-3.2-0.7c-2.2-0.5-4.3-1-6.4-1.5c-2.3-0.5-4.7-0.9-7-1.4
				l-3.5-0.7l-3.5-0.5c-2.3-0.4-4.7-0.7-7-1.1c-2.3-0.3-4.7-0.5-7-0.8c-1.2-0.1-2.3-0.3-3.5-0.4l-3.5-0.2c-2.3-0.1-4.7-0.4-7-0.4
				c-2.3,0-4.6-0.1-7-0.1c-1.2,0-2.3,0-3.5,0.1l-3.5,0.1l-3.5,0.1l-3.4,0.3l-3.4,0.3c-1.1,0.1-2.3,0.2-3.4,0.4l-6.9,1l-3.4,0.5
				l-3.4,0.7l-6.8,1.3c-2.3,0.4-4.5,1.1-6.7,1.6l-3.4,0.8c-1.1,0.3-2.2,0.5-3.3,0.9l-6.6,1.9c-2.2,0.6-4.4,1.4-6.6,2.1l-3.3,1.1
				c-1.1,0.4-2.2,0.7-3.2,1.2l-6.4,2.6l-1.6,0.6l-1.6,0.7L758,287c-4.2,1.8-8.3,4.1-12.4,6.2c-4,2.4-8,4.6-11.8,7.2
				c-15.5,10.1-29.2,23.1-40.5,38.3c-1.1,1.6-2.3,3.2-3.5,4.8c-1.2,1.6-2.4,3.3-3.5,5.1c-1.1,1.8-2.2,3.5-3.3,5.3
				c-0.6,0.9-1.1,1.8-1.7,2.7c-0.6,0.9-1,1.9-1.6,2.8c-1.2,2.2-2.4,4.4-3.6,6.7c-1.1,2.3-2.1,4.8-3.2,7.2l-0.8,1.8
				c-0.3,0.6-0.5,1.2-0.7,1.9c-0.4,1.3-0.9,2.5-1.3,3.8l-1.4,3.8c-0.4,1.3-0.7,2.6-1.1,3.9c-3,10.3-4.5,20.8-4.8,30.1
				c-0.4,10.2,0,19.2,0,26.1c0,3.4-0.1,6.3-0.4,8.4c-0.3,2.1-0.7,3.5-1.3,4c-1-3.5-2.2-8.3-3.3-14.2c-1.1-5.9-1.9-12.8-2.1-20.5
				c-0.2-7.6,0.5-15.9,2-24.4c0.4-2.1,0.8-4.2,1.3-6.3c0.6-2.1,1.2-4.2,1.7-6.3c0.3-1,0.5-2.1,0.9-3.1l1.1-3.1
				c0.7-2.1,1.4-4.1,2.2-6.2c5.4-13.6,13.5-27.7,23.7-40.9c5.1-6.6,10.8-13,17-19c6.3-5.9,13-11.4,20.1-16.5
				c1.8-1.2,3.6-2.4,5.4-3.6l2.7-1.8l2.8-1.6c1.9-1.1,3.7-2.2,5.6-3.2c1.9-1,3.8-2,5.7-3c1-0.5,1.9-1,2.8-1.5c1-0.4,1.9-0.9,2.9-1.3
				c1.9-0.9,3.9-1.7,5.8-2.6c2-0.8,3.9-1.5,5.8-2.3c1.9-0.7,3.8-1.6,5.8-2.2c15.5-5.5,30.8-8.9,44.6-11.1c2.7-0.4,5.3-0.8,8-1.2
				c1.3-0.2,2.7-0.3,4.1-0.4l4.1-0.4l2-0.2l2-0.1l4.1-0.1c1.4,0,2.7-0.1,4.1-0.1l4.1,0.1c2.7,0.1,5.4,0.1,8.1,0.3
				c2.7,0.2,5.4,0.3,8.1,0.6c2.7,0.3,5.4,0.6,8.1,0.9c1.3,0.1,2.7,0.4,4,0.6l4,0.6c10.6,1.8,21.1,4,31.4,7.1l3.8,1.1l3.8,1.3
				c2.5,0.9,5,1.6,7.5,2.6c2.5,1,4.9,1.9,7.4,2.8c1.2,0.4,2.4,1,3.6,1.5c1.2,0.5,2.4,1.1,3.6,1.6l3.7,1.6l3.6,1.8l3.6,1.8l1.8,0.9
				l1.8,1c2.3,1.3,4.7,2.7,7,4c2.2,1.5,4.5,3,6.7,4.4c8.8,6.2,16.9,13.4,23.7,21.5c13.8,16.1,23.8,35.1,29.4,55.2
				c0.5,1.8,1,3.6,1.4,5.5c0.4,1.8,0.8,3.7,1.2,5.5c0.3,1.9,0.6,3.7,1,5.5c0.3,1.8,0.5,3.7,0.8,5.6c0.8,7.4,1.2,14.8,1,22.1
				c-0.2,7.3-0.9,14.6-2,21.8c-1.1,7.2-2.8,14.2-4.7,21.2c-3.6,12.7-8.6,24.9-14.8,36.4C1005.6,498.5,1004.4,500.1,1003.2,501.7z"/>
		</g>
	</g>
	<g>
		<g>
			<path class="st55" d="M953.2,309.4c0.1,1.3-0.4,2.2-1.1,3.1c-0.7,0.9-1.5,1.7-2,2.6c-0.2,0.4-0.4,0.8-0.7,1.2
				c-2.7,5.5-4.4,12.5-8.2,17.8c-1.3,4.9-3.8,8.3-6.4,13.9c-1.1,2.4-1.6,5.1-2.6,7.5c-4.5,10.1-8.9,19.4-13.5,29.5
				c-0.5,1-1,2.1-1.6,3.2c-1.4,2.6-2.5,5.9-4.1,8.1c-0.8,1.2-2.1,2.1-3.5,2.4c-1.4,0.3-3,0.4-4.6-0.1c-2.4-3.5,0.3-8,2.2-12.5
				c3.2-7.6,8.4-17.8,12.1-24.8c2.8-5.4,5.5-11,8.5-16.1c3.1-5.2,5.8-10.5,9.1-15.4c2.4-3.6,5.3-6.6,7.7-10c1.1-1.5,2.3-3,3.4-4.5
				c0.8-1,1.7-2.1,2.6-3.1C951.3,311.4,952.3,310.4,953.2,309.4z"/>
		</g>
	</g>
	<g>
		<g>
			<path class="st55" d="M942.3,304.7c-0.5,2.5-3.1,3-4.7,4.4c-0.3,0.3-0.7,0.6-1,0.9c-4,3.9-7.5,9.5-12.5,12.7
				c-2.7,3.8-5.9,5.9-10.2,9.6c-1.8,1.6-3.3,3.8-5.1,5.3c-2,1.6-3.9,3.2-5.9,4.7c-1,0.7-2,1.5-3,2.2l-3.1,2.1
				c-4.1,2.8-8.5,5.4-13,7.8c-0.9,0.5-2,1-3.1,1.5c-2.5,1.1-5.3,2.9-7.8,3.4c-2.8,0.7-5.7-1.1-7.1-4c0.2-2,1.4-3.3,3-4.4
				c0.8-0.5,1.7-1,2.7-1.5c0.9-0.5,1.9-1,2.9-1.5c3.2-1.7,7-3.8,10.8-5.9c1.8-1.1,3.7-2.1,5.5-3.2c1.7-1.1,3.4-2,4.9-3
				c4.5-2.9,8.8-6.2,13.1-9.2c4.4-3.1,8.4-6.6,12.7-9.6c3.1-2.2,6.7-3.9,9.8-5.9c1.4-0.9,2.9-1.9,4.4-2.7
				C937.6,307.2,939.9,306,942.3,304.7z"/>
		</g>
	</g>
	<g>
		<g>
			<path class="st55" d="M955,319c1.5,2.1,0.1,4.3,0,6.5c0,0.4,0,0.9,0,1.4c0.2,4.4,1.8,9.5,0.7,14.1c1,3.6,0.2,6.5,0.3,11
				c0,1.9,0.8,3.8,0.9,5.7c0.3,7.9,0.3,15.3,0.3,23.3c0,0.8,0,1.7-0.1,2.6c-0.2,2.1,0.2,4.6-0.3,6.5c-0.5,2.1-3.3,3.6-6.5,3.8
				c-3.5-1.6-2.9-5.3-3.1-8.8c-0.3-5.9,0.1-14.1,0.4-19.8c0.2-4.4,0.3-8.8,0.8-13c0.5-4.3,0.7-8.6,1.4-12.7c0.5-3,1.8-5.9,2.4-8.8
				c0.3-1.3,0.6-2.6,0.9-3.9C953.7,324.1,954.3,321.5,955,319z"/>
		</g>
	</g>
	<g>
		<path class="st6" d="M73.7,531.1c0,0-22.5-3.1-22.5-28.1s23-36,42-31c0,0-10-104,81-117s101,63,94,110c0,0,23-16,40-6s14,33,11,43
			c0,0,32,1,24,27C343.2,529,191,546.1,73.7,531.1z"/>
	</g>
	<g>
		<path class="st6" d="M271.9,291.1c0,0-15.6-4.4-10-19.7c5.6-15.3,17.7-12.8,17.7-12.8s-9.3-35.7,25.2-55
			c27.9-15.6,59.9-13.3,84-1.2c24.1,12,28.1,35.3,20.9,51.4c0,0,19.9-4,26,10.8c0,0,6.4,23.3-11.2,23.3
			C411.6,287.9,359.4,283.8,271.9,291.1z"/>
	</g>
	<g>
		<path class="st6" d="M1411.8,428.9c39.2-45.8-24.8-59.8-24.8-59.8s34-90-51-106c-90.3-17-103,72-103,72s-30-20-62,13
			c-30.7,31.7,1.8,70.4,1.8,70.4s65.2,12.6,135.2,5.6S1411.8,428.9,1411.8,428.9z"/>
	</g>
	<g>
		<path class="st6" d="M1623,627.1c12.5-33.2-31-30-31-30s45-133-70-138c-97.1-4.2-102.9,66.4-102.4,88.5c0,2-2.3,2.9-3.7,1.5
			c-8.3-9-28.7-25.4-55.9-8c-36,23-14,60-14,60s-10-4-23,0c-22.1,6.8-25,35,7,38C1330,639.1,1608,667.1,1623,627.1z"/>
	</g>
	<path class="st6" d="M446,785.1c7.7,6.6,15.7,12.8,24.9,17.1c9.2,4.2,19.6,6.3,29.4,4.1c3.4-0.8,6.8-2,10.1-3.3
		c16.1-6.2,32.2-12.3,48.1-19.1c1.4-0.6,2.9-1.2,3.7-2.5c0.9-1.3,1-2.9,1.1-4.5c0.3-5.4,0.5-11.2-2.3-15.8c-1.3-2.1-3.1-3.8-5-5.3
		c-7.3-6.2-15.7-11.1-24.6-14.5c-2.5-1-5.1-1.8-7.7-2.2c-3.2-0.5-6.4-0.3-9.6-0.1c-17.2,1.5-33.8,6.5-50.9,8.8
		c-4.3,0.6-8.6,1-12.9,1.1c-3.1,0.1-7.1-0.6-10,0.9c-4.6,2.3-4.6,8.7-4.9,13.2C434.7,772.9,438.7,778.8,446,785.1z"/>
	<path class="st6" d="M999.9,768c-1.5-0.4-3.1-0.9-4.5-0.4c-1.3,0.4-2.4,1.4-3.4,2.5c-8.3,8.6-17.1,18.4-17.2,30.4
		c0,7.8,3.9,15.3,9.4,20.8c5.5,5.6,12.4,9.5,19.4,12.9c19.5,9.4,40.7,15.4,62.3,17.5c4.2,0.4,8.6,0.7,12.6-0.6
		c6.9-2.3,11.4-8.6,15.7-14.4c10.2-13.9,21.6-27,33.9-39.1c0.4-0.3,0.7-0.7,1.2-0.8c1-0.1,1.6,1,2,1.9c3.4,8.2,8.7,15.6,15.2,21.5
		c10.4-21.8,7.7-47.4,13.8-70.8c5.5,4.3,11.9,7.6,18.7,9.5c3-14.3,6-28.5,9-42.8c-37.8,1.8-75.5,5.5-112.9,11.2
		c-2,0.3-4,0.6-5.8,1.6c-2.3,1.3-4,3.5-5.5,5.6c-3.2,4.4-6.4,8.8-9.5,13.1c-4.1-0.5-8.1-1.1-12.2-1.6c-1.2-0.2-2.5-0.3-3.5,0.3
		c-0.9,0.6-1.4,1.6-1.8,2.6c-3.3,8-5.9,17-12.1,23.3c-3.6,3.6-4.9,4-8.9,2C1010.7,771.5,1005.4,769.6,999.9,768z"/>
</g>
<g id="fill_color">
	<path class="st6" d="M895.3,193.4c-1.6-1.5-1-4.4,0.7-5.9s4-1.9,6.1-2.3c43.6-6.9,89.6,1.5,127.7,23.7c6.8,3.9,13.4,8.4,19,13.9
		c9.1,9,15.2,20.6,21.1,32c2.8,5.4,5.6,10.8,8.3,16.1c1.9,3.6,3.8,7.3,4.7,11.3c1.3,5.6,0.6,11.4-0.1,17.1c-0.2,1.3-0.4,2.8-1.1,3.9
		c-0.9,1.2-2.3,1.9-3.7,2.4c-5.6,2.1-11.6,3-17.6,3.2c-7.6,0.3-15.2-0.4-22.6-2.1c-21-4.8-39.6-17.5-60.3-23.3
		c-6.1-1.7-12.5-2.9-18.5-4.8c-22.1-6.9-40-23.8-53.1-43c-5.4-7.9-10.2-16.5-11.8-25.9c-1.6-9.4,0.4-19.9,7.2-26.7"/>
	<path class="st59" d="M163.3,504.4c-3.8-20,2.9-40.7,11.9-58.2c11.2-21.7,29.8-42.4,51.2-39.3c13.3,1.9,24.6,13,31.8,26.3
		c7.2,13.3,10.8,28.7,14.3,44c9.1-9.4,24-9.7,33.5-0.8c9.4,9,12.3,26.2,6.5,38.7c5.8,1.3,10.9,6.1,13.2,12.5
		c-55.1,15.5-112.9,17.7-168.7,6.3c-13-2.7-56.3,6.4-53.9-18.2C105.7,487,150.5,493.6,163.3,504.4z"/>
	<path class="st36" d="M428.5,277.1c-0.7-4.2-5.6-6.3-9.8-6.9c-4.2-0.6-8.9-0.6-12.2-3.4c7-12.8-0.1-30-12.6-37.5
		c-12.5-7.5-28.4-6.9-42.3-2.5c-18.4,5.8-36.3,20.9-35.8,40.2c0,1.5,0.2,3.1-0.6,4.4c-0.7,1.2-1.9,1.9-3.2,2.5
		c-4.4,2-9.3,2.6-13.8,4.2c-4.6,1.6-9.1,4.4-10.8,8.9c-0.3,0.9-0.5,1.8-0.5,2.7c2.4,0.2,4.2,0.9,6.5,1.9
		c39.5-6.8,80.6-2.4,120.9-4.6c3.3-0.2,6.6-0.4,9.5-2C426.8,283.5,429.1,280.3,428.5,277.1z"/>
	<path class="st36" d="M1165.2,340.9c7.8-6.2,17-11.1,26.9-12.1s20.6,2.3,26.8,10.1c2.4,2.9,4,6.4,6.6,9.2c2.6,2.8,6.6,4.7,10.1,3.4
		c3.5-1.3,5.2-5,7-8.3c11-20.1,34.6-29.6,57-34.3c11.2-2.3,22.9-3.8,33.9-0.7s21.1,11.8,22.8,23.1c1.5,9.8-3.4,19.3-6.4,28.8
		c-3,9.5-3.3,21.5,4.6,27.6c4.3,3.3,10,3.9,15.3,5.1c7.2,1.6,14.1,4.4,20.3,8.4c3.7,2.3,7.5,5.5,8,9.9c0.6,4.6-2.9,8.9-7,11
		c-4.2,2-9,2.2-13.6,2.4c-49.4,1.7-98.7,3.5-148.1,5.2c-22.2,0.8-53.4-1-69.5-19.3C1141.6,389.7,1144,357.8,1165.2,340.9z"/>
	<path class="st59" d="M1341.1,643.5c-6.6-3.4-13.2-6.8-19.8-10.2c-7-3.6-15.2-9.5-13.5-17.2c1-4.5,5.2-7.5,9.4-9.4
		c9-4.1,19.6-4.7,29.1-1.9c2.1-3.7-1-8-3.2-11.5c-8.1-12.8-5.3-31.4,6.1-41.3s30.2-10,41.7-0.2c6.7,5.7,10.7,13.8,16.8,20.2
		s15.7,11,23.5,6.8c5.7-3,8.2-9.6,10.4-15.7c7.6-21.7,16.9-45.8,37.9-55.4c8.1-3.7,17.1-4.7,26-5c9.4-0.3,19.1,0.3,27.8,4
		c12.9,5.6,22.2,17.9,26,31.4c3.8,13.5,2.6,28.1-1.4,41.6c-3.1,10.5-7.3,23.8,1,31c4.1,3.6,9.8,4.2,15,5.6s10.9,4.5,11.6,9.9
		c1,6.8-6.2,11.7-12.6,14.3c-35.6,14.2-75.3,11.8-113.5,9.2c-38.6-2.6-77.2-5.3-115.7-7.9c-6.1-0.4-12.2-0.8-18.4-1.3"/>
	<path class="st36" d="M987.7,796.6c-2.6,6.7,1,14.5,6.4,19.3c7.2,6.5,17.1,8.9,26.6,11.2c12.8,3,25.5,6.1,38.3,9.1
		c5.2,1.2,10.8,2.5,15.9,0.7c3.6-1.2,6.5-3.8,9.3-6.3c12.1-10.7,25-22.7,27.9-38.6c-23.3-1.8-46.6-4.3-69.8-7.6
		c-0.1,2.9-0.2,5.7-0.3,8.6c-6.6,2.1-13.7,2.6-20.6,1.3c2.7,5-2.8,11.6-8.4,11.1c-13.4-1.2-7.5-14.1-8.3-21.4
		C1003.2,773.1,989.6,791.6,987.7,796.6z"/>
	<path class="st36" d="M1047.8,754.4c0.8-1.5,1.7-3,3.1-3.8c1.4-0.9,3.1-1,4.7-1.1c5.2-0.3,10.3-0.6,15.5-0.9
		c4.1-0.2,8.2-0.5,12.2,0c0.9,0.1,1.8,0.3,2.3,0.9c1.1,1.3-0.2,3.3-1.3,4.5c-6.4,7-11.4,15.3-14.5,24.2c-0.5,1.3-1,2.8-2.2,3.5
		c-0.7,0.4-1.6,0.5-2.4,0.6c-5.4,0.4-26,2.2-28.8-3.9C1033.9,773.2,1045.3,758.8,1047.8,754.4z"/>
	<path class="st36" d="M1086.9,750.2c-4-0.2-7.9,3-8.6,6.9c3.8,0.1,7.7,0.3,11.5,0.4c3.4,0.1,7.5,0.6,9,3.6
		c-4.3,4.2-4,12.1,0.6,15.9c0.7,0.6,1.4,1.1,1.9,1.8c0.7,1.2,0.6,2.6,0.9,4c0.8,3.4,4.5,5.4,7.9,6.2c3.4,0.8,7.1,1,10.1,2.9
		c3.6,2.3,5.4,6.5,8.8,9.2c1.5,1.2,3.9,2,5.4,0.7c0.6-0.5,0.9-1.3,1.2-2c5.7-14.4,9.9-29.4,12.6-44.6c-5.5-1.5-11.3-1.9-17-2.3
		c-5.5-0.4-11-0.8-16.6-1.3c-7.9-0.6-15.8-1.2-23.6-0.9c-1.8,0.1-3.7,0.2-5.3,1.1c-1.6,0.9-2.8,2.8-2.2,4.6"/>
	<path class="st36" d="M1068.7,748.1c-1.1-4.1,1.8-8.4,5.6-10.3c3.8-1.9,8.2-2,12.4-2c29.9-0.6,59.8-3.6,89.2-9.1
		c0.2,6.3-4.3,11.6-8.6,16.1c-1.9,2.1-3.9,4.2-6.4,5.6s-5.6,2-8.2,0.9c-2.1-0.9-3.6-2.8-5.8-3.5c-1.7-0.6-3.5-0.5-5.2-1
		c-2.9-0.8-4.9-3.3-7.2-5.2s-5.8-3.1-8.2-1.4c-3.3,2.4-1.9,8.2-5,10.8c-1.9,1.6-4.7,1.2-7.2,0.9c-14.3-1.8-28.8,0.6-43.1-0.9
		c-1-0.1-2.1-0.3-2.7-1.1c-1.1-1.5,0.2-3.6-0.1-5.4"/>
	<path class="st59" d="M577.3,503.6c10,18.6,22.6,35.9,37.2,51.1c3,3.1,6.4,6.9,5.6,11.2c-1.1,6.1-10.1,8.7-10.3,14.9
		c-0.1,2.9,1.7,5.4,3.6,7.5c16.4,19,41.5,31.1,51.5,54.1c1.2,2.7,2,6,0.2,8.3c-1.5,1.9-4.1,2.3-6.5,2.5
		c-54.7,4.8-108.5-13.8-160.3-32.2c-24.6-8.7-50.6-18.4-66.8-38.8c-3.3-4.1-6.2-8.9-6.3-14.1c-0.2-7,4.6-13.4,10.7-17
		c6.1-3.5,13.2-4.7,20.2-5.6c31.9-3.9,64.5-2.3,95.9,4.8C532.6,534,514.5,513,513,487.8c-0.5-8.2,0.8-16.3,3.1-24.2
		c6.1-21,31.8-63.6,58.4-60c-6.4,15.8-14.5,27.2-14,45.6C561.1,468.4,568.3,487,577.3,503.6z"/>
	<path class="st59" d="M1130.6,537.1c-5.9-3.3-12.7-3.9-19.3-3.8c-14.9,0.2-29.8,3.4-43.7,9.4c8.3-7.7,15.4-17.1,20.6-27.6
		c4.2-8.5,3.3-15.9-0.6-24.5c-3-6.6-6-10-13-11c-6.7-1-12.4-1.5-19.1-0.5c-16.9,2.5-35.3,6-46.9,20.5c7.6-21.4,10.5-32.3,14-55
		c-19,29-33.8,45.9-53.8,68.9c-4.4,5.1-9.2,12.1-6.4,18.5c3.7,8.2,17.4,7.6,18.6,16.7c1.1,7.6-8.5,15.7-3.9,21.5
		c1.2,1.5,2.9,2.2,4.7,2.6c4.9,1.4,10.1,1.7,14.9,3.6c4.8,1.9,9.4,5.8,10.3,11.4c0.7,4.1-0.7,8.2-2.8,11.7c-5.4,9-14.9,13.8-24,18
		c-35.4,16.4-71.7,30.4-108.6,41.8c0,0.1,0,0.2,0,0.2c2.8,0.7,5.4,1.7,8,3.2c1.2,0.7,2.3,1.6,3.5,2.3c0.6,0.3,2.3,1.2,2.1,1.2
		c0.5,0.2,1,0.4,1.5,0.6c0.2,0,0.5,0,0.7,0.1c2.3,0.3,10.7,1.5,4.2,0.5c4.4,0.7,8.8,1.1,13.1,1.5c9.9,0.9,19.5,0.7,29.4-0.5
		c2.1-0.2,4.3-0.5,6.4-0.7c0.4-0.1,0.6-0.1,0.8-0.1c0.8-0.1,1.6-0.2,2.4-0.3c4.9-0.7,9.8-1.5,14.7-2.5c19-3.5,37.7-8.5,56.1-14.5
		c8.9-2.9,17.7-6,26.4-9.4c10.4-4,14-5.6,24.4-10.3c6.1-2.8,12.4-3.1,17.8-0.6c6-2.7,12-5.6,17.9-8.7c10.3-5.4,20.6-11.3,28.9-19.9
		c8.3-8.6,14.7-20.1,15.6-32.6S1140.8,542.8,1130.6,537.1z M887.2,663.4c2.3-0.2,4.1,1,5.8,2.8L887.2,663.4z"/>
	<path class="st36" d="M459,772.8c-3.5-3.1-6.5-6.8-8.9-10.9c-0.7-1.2-1.3-2.8-0.4-3.8c0.4-0.5,1-0.7,1.6-0.9
		c6.3-1.8,12.8,0.7,18.9,2.9c16.3,5.7,33.4,9.4,50.6,10.8c1.5,0.1,3.3,0.5,3.6,2c0.2,0.9-0.4,1.8-1,2.5c-2.8,3.1-7.1,4.4-11.1,5.4
		c-10.3,2.6-21.1,4.6-31.6,3.1c-10.5-1.5-21-7.2-26-16.6"/>
	<path class="st36" d="M496.7,755c11.6,2.4,23.3,4.8,35.3,5.4c3.1,0.2,6.3,0.2,9.4-0.2c0.7-0.1,1.5-0.3,1.8-0.8
		c0.3-0.6-0.4-1.2-1-1.7c-3.4-2.5-7-4.8-10.7-7.1c-2-1.2-4.1-2.4-6.5-3.1c-3.1-0.9-6.5-0.8-9.8-0.8c-9.6,0.1-19.1,0.3-28.6,1.3
		c-2.7,0.3-7.7,0.5-9.5,2.2c1.7,1.5,5.4,1.8,7.8,2.3C488.8,753.4,492.7,754.2,496.7,755z"/>
	<path class="st6" d="M894.1,185.7c-15.1,26.9-17.4,60.8-5.9,89.5c11.5,28.7,36.4,51.7,66,60.7c12.9,4,26.4,5.4,39.9,6.1
		c8.6,0.5,17.3,0.6,25.8-0.4c25.6-3.1,49.6-17.4,64.4-38.5c-35.3-0.7-72.4-2-102.5-20.4c-15.4-9.4-28.1-22.7-40.5-35.8
		c-11.6-12.3-23.3-24.7-31.1-39.7c-2.6-5.1-5-10.6-9.4-14.2c-4.4-3.6-11.9-4.3-15.3,0.3"/>
	<path class="st110" d="M1013,296.6c-15.3-4.1-30-10.8-44.3-18.2c-5.4-2.8-12.8-5.9-17.6-0.1c-2.1,2.6-2.5,6.3-1.9,9.5
		c1.1,5.5,4.9,10.1,8.9,14.1c4,4.1,12.6,9.8,10.3,16.3c-2,5.5-10.2,9.5-15.4,10.6c-7.8,1.6-14.9-1.3-21.5-5.2
		c-0.2,0.2-0.5,0.4-0.7,0.5c1.6,1.7,3.4,3.2,5.3,4.5c6.9,4.7,14.9,6.8,22.8,8c28.9,4.3,58.9-1.3,83.3-17.6
		c8.4-5.6,16.1-12.4,22.2-20.6c0.6-0.8,3.5-6.8,4.1-7C1053.1,295.1,1028.3,300.6,1013,296.6z"/>
	<path class="st14" d="M545.7,764.1c3.8,1.8,9.9,2.2,10.7-3.3c0.7-5-5.7-7.4-8.6-10.4c-4-4.2-7.1-9.8-13-11.4
		c-2.9-0.7-5.9-0.4-8.9,0c-29.8,3.6-60.1,4.4-89.4,10.4c5.7,3.5,12.8,5.3,19.7,5.2c1.1,0.2,2.3,0.3,3.5,0.3
		c20.1,0,39.7-6.9,59.8-6.6c2.5,0,5.1,0.2,7.3,1.2c1.6,0.7,2.8,1.9,4.1,3c3.4,3.1,6.8,6.2,10.5,9C542.5,762.3,544,763.3,545.7,764.1
		z"/>
	<path class="st14" d="M448.8,759c0.1-2.8-1.3-5.6-3.6-7.2c-2.3-1.6-5.5-1.9-8.1-0.8c-1.4,0.6-2.7,1.6-3.1,3.1
		c-0.7,2.1,0.4,4.3,0.7,6.5c0.3,2.9-0.9,5.8-0.8,8.7c0.1,4.9,3.9,8.9,7.3,12.4c6.3,6.4,12.7,12.8,20.2,17.8c7.4,5,16.1,8.7,25,8.9
		c9.9,0.3,19.5-3.6,28.6-7.5c6.4-2.7,12.5-5.6,19.2-7.3c0.9-0.2,1.7-0.5,2.6-0.7c3.3-1,6.6-2.2,9.7-3.6c3.2-1.4,6.4-2.8,9.6-4.2
		c2.2-1,4.3-2.1,6.4-3.3c1.3-0.7,2.5-1.5,2.9-3c0.2-1,0.3-2,0.2-3c-0.1-0.8-0.2-1.9-0.9-2.3c-2.2,2.1-4.3,4-7.1,5.4
		c-2.7,1.4-5.5,2.4-8.5,3.1c-0.1,0-0.1,0-0.2,0c-3.4,0.9-7,1.4-10.6,1c-2.5-0.3-5-1.2-7.5-1.6c-12.9-2.4-25.6,5-38.7,5.9
		c-10.5,0.7-21.2-2.9-29.6-9.3c-8.4-6.4-10.6-9.5-14.1-19.4"/>
	<path class="st110" d="M968.4,277.8c-1.9-4.3-6.1-7-10.1-9.7c-21.2-14.1-38.6-33.8-50.1-56.4c4.4-4,11.4-3.3,16.7-0.4
		c5.2,2.8,9.4,7.3,14.3,10.5c10.6,6.9,23.9,7.7,36.4,9.5c17.7,2.5,35.2,7.2,51.7,14c15.7,6.5,31.4,15.7,39.4,30.6
		c2.9,5.4,4.5,12.5,0.7,17.3c-3.3,4.2-9.4,5-14.7,4.5c-5.3-0.5-10.7-2-16-0.9"/>
</g>
<g id="outline">
	<g>
		<g>
			<path class="st55" d="M552.1,335.9c-0.7,1.5,0.6,2.5,1.1,3.6c1.3,3.7,1.5,8.7,3.6,12.4c0.3,3.1,1.6,5.4,2.7,9
				c0.5,1.6,0.4,3.3,0.8,4.8c1.8,6.5,3.6,12.6,5.4,19.2c0.2,0.7,0.4,1.4,0.7,2.1c0.6,1.7,0.9,3.8,1.7,5.3c0.8,1.7,3.2,2.4,5.6,1.8
				c2.1-2,0.9-4.9,0.2-7.9c-1.1-5-3.4-11.7-5-16.3c-1.2-3.6-2.4-7.2-3.9-10.6c-1.5-3.4-2.8-6.9-4.4-10.1c-1.2-2.3-2.9-4.4-4.2-6.6
				C555.1,340.4,553.7,338.1,552.1,335.9z"/>
		</g>
	</g>
	<g>
		<g>
			<path class="st55" d="M552.4,550.4c-1.7,0.9-3.2-0.5-4.8-0.8c-0.3-0.1-0.6-0.1-0.9-0.2l-0.9-0.2l-1-0.2c-1.4-0.2-2.8-0.5-4.2-0.7
				c-1.4-0.3-2.9-0.4-4.3-0.6c-1.5-0.2-2.9-0.4-4.4-0.5c-3-0.3-5.9-0.6-8.9-0.8c-1.5-0.1-2.9-0.3-4.4-0.5c-1.5-0.1-2.9-0.3-4.3-0.5
				c-8.3,0.3-15.2-0.3-25.5,0.4c-1.1,0.1-2.2,0.2-3.3,0.3c-1.1,0.2-2.2,0.3-3.3,0.5c-1.1,0.2-2.1,0.3-3.2,0.5
				c-1.1,0.2-2.1,0.4-3.2,0.5c-9.1,1.3-17.8,3-26.4,5.1l-3.2,0.8c-1,0.3-2,0.6-2.9,0.9c-1.9,0.7-3.7,1.6-5.3,2.7
				c-1.6,1.1-3,2.3-4,3.8c-1,1.4-1.7,3-2,4.8c-0.2,1.4-0.3,3.1-0.1,4.8c0.1,1,0.4,2.1,0.7,3.1c0.4,1.1,0.8,2.2,1.3,3.3
				c1,2.2,2.2,4.2,3.3,6c1.2,2,2,3.9,2.4,5.6c0.4,1.7,0.5,3.2-0.2,4.3c-2.2-0.2-5-2.1-7.5-5.1c-2.5-3-4.7-6.9-6.2-11.2
				c-1.3-3.6-2.2-8.1-1.2-12.9c0.5-2.4,1.5-4.8,3-6.8c1.4-2.1,3.3-3.8,5.2-5.2c3.9-2.8,8.3-4.4,12.3-5.3c1.9-0.4,3.8-0.9,5.6-1.3
				c1.8-0.4,3.6-0.7,5.2-1.1c10.2-2,20.7-3.4,30.8-3.8c10.3-0.4,20.5-0.3,30.4,1c7.2,0.9,14,2.6,20.8,4.4c1.5,0.3,3.1,0.8,4.6,1.2
				c1.5,0.5,3,0.8,4.5,1.4C548.8,548.8,550.6,549.6,552.4,550.4z"/>
		</g>
	</g>
	<g>
		<g>
			<path class="st55" d="M662.8,456.9c-1.6-1-1.2-3-1.6-4.5c-0.1-0.3-0.2-0.6-0.3-0.9c-0.4-1.2-0.7-2.5-1.1-3.7
				c-0.8-2.6-1.6-5.3-2.5-7.9c-1.8-5.3-4.2-10.6-7-15.7c-5.5-10.2-12.9-19.4-21.7-26.1c-6.7-4.2-13.6-6.9-21.2-7.9
				c-7.6-0.9-16.1-0.3-25.5,2.7c-8.2,2.6-15.5,6.9-22.4,11.3c-7.4,4.8-14,10.4-19.5,16.9c-2.8,3.2-5.2,6.7-7.3,10.3
				c-2.1,3.6-3.9,7.4-5.3,11.4c-5.5,15.9-5.7,33.5-1.3,50.5c0.9,3.5,2,7.2,3.4,11c1.5,4.4,3.6,9.1,5.9,13.6
				c2.3,4.5,4.7,8.9,6.9,12.7c4.7,8.4,7.5,15.5,6.1,17.6c-3.1-2-7.1-6.5-11.1-12.4c-2-3-4-6.3-5.9-9.7c-1.9-3.5-3.8-7.2-5.5-10.9
				c-2.8-6.3-5.5-13.4-7.4-21.1c-0.9-3.9-1.7-7.9-2.2-11.9c-0.5-4.1-0.8-8.2-0.8-12.4c0-8.3,1.1-16.6,3.4-24.3l0.4-1.4l0.5-1.4
				c0.3-0.9,0.6-1.9,1-2.8c0.7-1.8,1.4-3.6,2.2-5.3c1.5-3.4,3.4-6.6,5.2-9.5c2.9-4.4,6.2-8.5,9.9-12.2c3.7-3.7,7.7-7.1,11.9-10.2
				c4.2-3.1,8.6-5.8,13.1-8.1c4.5-2.4,9.2-4.4,14-6c4.9-1.7,10-2.9,15.1-3.6c5.1-0.7,10.4-0.8,15.6-0.1c5.2,0.7,10.3,2.2,15,4.4
				c4.7,2.3,8.9,5.2,12.7,8.5c5.5,4.9,9.9,10.7,13.4,16.7c1.8,3,3.3,6.1,4.7,9.3c1.4,3.1,2.7,6.3,3.8,9.5c2.1,5.9,3.5,11.9,4.9,17.8
				C662.4,453,662.6,454.9,662.8,456.9z"/>
		</g>
	</g>
	<g>
		<g>
			<path class="st55" d="M1003.3,504.3c-0.4-1.8,1.3-3,2.1-4.3c0.2-0.3,0.3-0.5,0.5-0.8c0.3-0.5,0.7-1.1,1-1.6
				c0.8-1.1,1.6-2.2,2.4-3.3c0.8-1.1,1.7-2.2,2.6-3.3c1-1,1.9-2.1,2.9-3.1c4.1-4,8.9-7.5,14.1-9.6c0.9-0.5,1.7-1,2.6-1.5
				c0.9-0.4,1.8-0.8,2.7-1.2c0.9-0.4,1.8-0.7,2.7-1c0.9-0.3,1.9-0.6,2.8-0.9c3.9-1,8.1-1.7,13.2-2c4.4-0.3,8.9-0.5,13.1,0.4
				c2.3,0.5,4.6,1.2,6.7,2.2c2.2,1,4.3,2.2,6.2,3.7c1.9,1.5,3.6,3.3,5,5.4c1.4,2.1,2.4,4.4,3.1,6.8c1.3,4.8,1.1,9.8,0.2,14.4
				c-0.9,4.6-2.5,9.1-4.4,13.3c-0.8,1.7-1.7,3.6-2.8,5.4c-2.4,4.2-5.5,9.3-8.7,12.7c-3.5,3.7-7.7,4.9-9.6,3.4
				c0.3-2.1,1.8-4.5,3.7-7.2c1.9-2.7,4.2-5.7,6.1-9c1.6-2.7,3.2-5.8,4.7-9c1.5-3.3,2.7-6.7,3.6-10.2c0.8-3.4,1.1-6.9,0.7-10
				c-0.2-1.5-0.6-3-1.1-4.3c-0.3-0.6-0.5-1.3-0.9-1.8c-0.2-0.3-0.3-0.6-0.5-0.9c-0.2-0.3-0.4-0.5-0.6-0.8c-2.3-3.1-6-5.4-10-6.8
				c-4.1-1.4-8.5-2.1-12.8-2.1c-9-0.2-17.8,2.3-25.7,6.1c-5.8,2.7-11.4,5.9-15.9,10.2c-1,1-2.1,2-3,3.1l-1.5,1.6l-1.4,1.7
				C1005.7,501.3,1004.6,502.9,1003.3,504.3z"/>
		</g>
	</g>
	<g>
		<g>
			<path class="st55" d="M1065.5,540.2c0.8-2.4,3.5-2.5,5.3-3.5c0.4-0.2,0.7-0.4,1.1-0.6l0.1,0l0.3-0.1l0.3-0.1l1.3-0.6
				c0.9-0.4,1.7-0.7,2.6-1.1c1.7-0.7,3.5-1.4,5.3-2c7.2-2.4,14.9-4,22.7-4.6c3.9-0.3,7.9-0.3,11.9,0.2c4,0.5,7.9,1.4,11.6,3.2
				c3.7,1.8,7,4.3,9.7,7.5c2.6,3.2,4.6,6.9,5.9,10.8c2.6,7.9,2.7,16.5,0.5,24.6c-0.3,1-0.6,2-0.9,3c-0.4,1-0.8,2-1.2,2.9l-1.3,2.8
				c-0.4,0.9-1,1.8-1.5,2.7c-2.1,3.6-4.4,7-7,10.2c-2.7,3.2-5.5,6.1-8.6,8.8c-3.1,2.7-6.3,5.2-9.6,7.5c-6.7,4.6-13.8,8.4-20.9,11.7
				c-10.1,5.1-20.3,9-30.6,12.4c-10.3,3.4-20.7,6.3-31.5,9.1c-10.8,2.8-22,5.4-34,8c-12,2.5-24.8,5-38.7,7.3
				c-24.1,4-47.9,7.6-71.2,9.5c-6.3,0.5-12.6,1-18.8,1.3c-6.3,0.4-12.5,0.6-18.7,0.9c-12.5,0.4-24.9,0.6-37.2,0.4
				c-24.7-0.1-49.2-1.1-73.7-2.7c-49-3.3-97.9-9.4-147.9-19.3c-10.2-2.1-21.2-4.5-32.6-7.4c-13-3.3-27.3-7.2-41.2-11.7
				c-13.9-4.5-27.5-9.6-39-14.9c-1.6-0.7-3.1-1.5-4.7-2.2c-0.8-0.4-1.5-0.7-2.3-1.1c-0.7-0.4-1.5-0.8-2.2-1.2
				c-2.9-1.5-5.6-3-8.2-4.5c-2.5-1.6-4.9-3.1-7.1-4.6c-1.1-0.7-2.2-1.4-3.1-2.2c-1-0.8-1.9-1.5-2.8-2.2c-1.8-1.4-3.4-2.7-4.8-4
				c-1.4-1.3-2.5-2.5-3.4-3.5c-1.9-2.1-2.9-3.7-2.9-4.7c8.8,4,22.8,11.9,40.6,19.5c2.2,0.9,4.5,1.9,6.8,2.9c2.3,1,4.7,1.9,7.1,2.8
				c4.8,2,9.8,3.7,14.8,5.6c10.2,3.6,20.8,7,31.4,10c35.7,10.1,79.5,18.6,123.3,24.6c21.9,3,43.8,5.4,64.8,7.1
				c20.9,1.7,40.9,2.8,58.9,3.4c13.8,0.5,27.7,0.7,41.6,0.7c13.8,0,27.7-0.4,41.5-1c6.9-0.3,13.8-0.8,20.6-1.3
				c6.8-0.6,13.7-1.1,20.5-1.8c6.8-0.6,13.5-1.4,20.3-2.2c6.7-0.9,13.4-1.7,20-2.7c6.8-0.9,13.5-2.1,20.3-3.2
				c3.4-0.6,6.7-1.2,10.1-1.8c3.4-0.6,6.7-1.3,10-1.9c6.7-1.3,13.3-2.8,19.9-4.2c3.3-0.7,6.6-1.5,9.8-2.3l4.9-1.2l4.9-1.2
				c13-3.3,25.9-6.8,38.4-11c6.2-2.1,12.4-4.4,18.4-6.9c6-2.6,11.8-5.4,17.4-8.6c8.1-4.6,15.7-10,22.1-16.4
				c3.2-3.2,6.1-6.7,8.5-10.4c2.4-3.7,4.6-7.7,6-11.7c2.7-8.1,2.8-17.3-0.2-25.3c-1.5-4-3.9-7.6-6.9-10.3c-0.4-0.3-0.8-0.7-1.2-1
				l-1.3-0.9c-0.8-0.6-1.7-1.2-2.7-1.7c-1.9-1-3.9-1.7-5.9-2.3c-7.6-2.1-16.1-1.8-24.2-0.8c-8.2,1.1-16.2,3.4-23.7,6.7
				C1070.4,538.5,1067.9,539.3,1065.5,540.2z"/>
		</g>
	</g>
	<g>
		<g>
			<path class="st55" d="M903.6,435.3c-1.1-1.6,0.1-3.2,0.3-4.9c0-0.8,0.1-1.7,0.1-2.5c0-0.5,0-1.1,0-1.6c0-0.5-0.1-1.1-0.1-1.6
				c-0.1-1.1-0.1-2.2-0.2-3.3c-0.1-1.1-0.3-2.2-0.4-3.3c-0.7-4.5-1.6-8.9-2.3-13.1c-0.6-1.4-1.1-2.8-1.6-4.2c-0.6-1.4-1-2.8-1.6-4.2
				c-1.1-2.8-2.3-5.8-4.3-9.1c-0.4-0.7-0.8-1.4-1.3-2.1c-0.5-0.6-1-1.3-1.5-1.9c-1-1.3-2.1-2.4-3.1-3.7c-4.2-5.3-9.1-9.7-14.3-13.7
				c-5.3-3.9-11-7.3-17.2-10.4c-1.3-0.6-2.6-1.4-4-2.1c-3.2-1.7-7.4-3.3-10.4-5c-3.3-1.9-5.1-5-4.4-7.3c3.5-1.3,9.3,1.6,15.1,4.2
				c4.9,2.1,10.6,5,16,8.3c5.5,3.3,10.6,7.2,14.5,10.8c6,5.5,11.5,12,15.1,19c3.8,7.2,6.7,14.6,7.9,22.3c0.9,5.6,0.7,11.1,0.4,16.5
				l-0.3,3.7c-0.1,1.2-0.4,2.4-0.6,3.6L905,431l-0.4,1.4C904.2,433.4,903.9,434.3,903.6,435.3z"/>
		</g>
	</g>
	<g>
		<g>
			<path class="st55" d="M989.4,405.4c-1.8,0.6-3.1-1-4.6-1.6c-0.3-0.1-0.6-0.2-1-0.3c-5.4-1.8-12-2.3-17.5-4.1
				c-2.3-0.1-4.3-0.4-6.6-0.7c-1.1-0.2-2.2-0.4-3.4-0.5c-1.2-0.1-2.5-0.3-3.9-0.4c-1.2-0.1-2.4,0-3.6,0.1c-1.2,0.1-2.4,0.2-3.5,0.2
				c-5,0-9.8,0.1-14.6,0.6c-4.8,0.4-9.6,1.1-14.5,2.1c-1,0.2-2.1,0.4-3.2,0.6c-0.6,0.1-1.3,0.3-2,0.4c-0.7,0.2-1.4,0.4-2,0.6
				c-1.3,0.4-2.7,0.7-3.9,1c-2.6,0.5-5.2-0.8-6.3-3c0.5-1.5,1.9-2.6,3.8-3.5c1.9-0.9,4.2-1.4,6.4-2.1c1.9-0.5,4-1,6.2-1.5
				c2.2-0.4,4.5-0.8,6.8-1.1c4.6-0.6,9.2-0.8,13-0.9c1.4,0,2.9,0,4.4-0.1c1.5,0,2.9,0.1,4.4,0.1c1.4,0,2.9,0.1,4.3,0.3
				c1.4,0.1,2.8,0.2,4.2,0.5c5.7,0.8,11.3,1.7,16.6,3.3c1.9,0.6,3.8,1.4,5.6,2.2c1.8,0.8,3.5,1.7,5.3,2.4c1.6,0.7,3.2,1.5,4.7,2.3
				C986.1,403.2,987.7,404.3,989.4,405.4z"/>
		</g>
	</g>
	<g>
		<g>
			<path class="st55" d="M1083.3,295.5c0.3,2.5-2.1,3.7-3.3,5.5c-0.2,0.4-0.5,0.7-0.7,1c-0.9,1.1-1.7,2.2-2.6,3.3
				c-0.5,0.6-0.9,1.2-1.4,1.7c-0.5,0.6-1,1.1-1.5,1.7c-1,1.1-2,2.2-3,3.4c-4.3,4.3-8.8,8.7-13.9,12.5c-10,7.8-21.8,13.7-33.7,16.9
				c-8.3,3.1-16.4,4.8-25.2,5.4c-8.8,0.6-18.2,0.3-29.2-1.7c-9.5-1.7-18.9-3.9-27.4-7.7c-18.4-8.2-34.3-20.6-46.4-36.3
				c-12.1-15.7-19.8-34.7-22.6-55.1c-0.1-0.5-0.2-1-0.2-1.6c0-0.5-0.1-1.1-0.1-1.6c-0.1-1.1-0.2-2.2-0.3-3.3
				c-0.2-2.2-0.2-4.5-0.3-6.9c-0.1-5.4,0.2-11.3,0.7-17.2c0.2-1.5,0.4-2.9,0.6-4.3c0.2-1.4,0.4-2.9,0.7-4.2c0.3-1.4,0.6-2.7,0.9-4
				c0.3-1.3,0.6-2.6,1-3.8c1.6-5.4,4.1-9.7,6.4-12.6c2.5-2.8,4.7-4.3,6.4-4c0.1,2.1-0.3,4.6-1,7.4c-0.5,2.9-1.5,6.1-2.3,9.7
				c-1.7,7.1-3.3,15.5-3.6,23.8c-0.3,7,0.1,14.7,1.2,22.5c1.2,7.9,3.2,16,6.1,23.7c2.9,7.7,6.7,15,11.1,21.5
				c4.4,6.5,9.2,12.2,14,16.8c7.3,7.2,15.9,13.3,24.9,18.2c9.1,4.9,18.7,8.6,28.4,10.9c10,2.4,20.1,3.2,30.1,2.6
				c10-0.6,19.8-2.6,29.2-5.7c6.9-2.3,13.5-5,19.8-8.2c6.3-3.3,12.3-7.1,17.8-11.6c2.4-2.1,5-4.1,7.2-6.4c2.4-2.2,4.5-4.6,6.7-7
				C1079.6,299.1,1081.4,297.2,1083.3,295.5z"/>
		</g>
	</g>
	<g>
		<g>
			<path class="st55" d="M1098.9,297.1c-1.5,2-4.1,1.2-6.2,1.7c-0.4,0.1-0.8,0.2-1.2,0.3l-0.1,0l-0.2,0l-0.4,0.1l-0.9,0.1
				c-0.6,0.1-1.1,0.2-1.7,0.3c-2.3,0.4-4.6,0.9-7,1.2c-2.4,0.3-4.8,0.7-7.2,1c-2.4,0.2-4.9,0.5-7.4,0.7c-9.9,0.7-20.1,0.5-29.6-1.2
				c-1.7-0.1-3.4-0.2-5.1-0.3c-1.7-0.2-3.3-0.4-5-0.7c-3.3-0.4-6.5-1.2-9.9-1.9c-1.7-0.3-3.4-0.8-5.1-1.3c-1.7-0.5-3.5-0.9-5.3-1.5
				c-3.6-1.2-7.5-2.3-11.5-3.8c-7.1-2.4-14.3-4.7-20.8-7.8c-14.1-6.9-27-15.2-38.7-25.1c-11.8-9.8-22.3-21.1-31.7-33.9
				c-1-1.3-1.9-2.7-2.9-4.2c-1-1.5-2-2.9-2.9-4.5c-4.4-7.1-9.6-15.8-12.5-23.1c-0.8-2-1.4-4-1.8-5.8c-0.4-1.8-0.5-3.5-0.5-5
				c0.1-3,0.8-5.2,2.2-6c2.7,2.1,5.1,6.4,7.8,11.6c1.3,2.6,2.8,5.4,4.3,8.3c0.7,1.5,1.6,2.9,2.4,4.3c0.8,1.4,1.7,2.9,2.5,4.3
				c5.8,9.5,13.7,20.3,22.5,30.1c2.1,2.5,4.5,4.8,6.8,7.2c1.1,1.2,2.3,2.3,3.5,3.4c1.2,1.1,2.3,2.2,3.5,3.3c2.4,2,4.7,4.1,6.9,6
				c2.3,1.8,4.5,3.6,6.7,5.2c6.6,5,13.7,9.3,20.8,13.4c1.8,1,3.6,1.9,5.4,2.9c1.8,0.9,3.7,1.8,5.5,2.7c1.8,0.9,3.7,1.7,5.5,2.5
				c0.9,0.4,1.9,0.8,2.8,1.2l1.4,0.6l1.4,0.5c1.9,0.7,3.8,1.5,5.7,2.2c1.9,0.7,3.9,1.3,5.8,1.9c1,0.3,1.9,0.7,2.9,0.9l2.9,0.8
				l2.9,0.8c1,0.3,1.9,0.5,2.9,0.8c2,0.5,3.9,0.9,5.9,1.4c2,0.4,3.9,0.8,5.9,1.2l2.9,0.6l2.9,0.5c2,0.3,3.9,0.7,5.9,0.9
				c11.4,1.6,22.7,2.8,33.9,2.4c2.6-0.1,5.1-0.2,7.7-0.4c2.5-0.2,5.1-0.4,7.6-0.7C1093.6,297.2,1096.2,297.1,1098.9,297.1z"/>
		</g>
	</g>
	<g>
		<g>
			<path class="st55" d="M1084.3,283.3c-2.3-1.2-1.9-3.9-2.8-5.9c-0.2-0.4-0.3-0.8-0.5-1.2c-0.4-0.9-0.9-1.8-1.3-2.7
				c-0.5-0.9-0.9-1.9-1.4-2.9c-0.5-0.9-1-1.9-1.6-2.8c-1.1-1.9-2.1-3.8-3.4-5.6c-1.2-1.8-2.3-3.7-3.7-5.5
				c-5.1-7.2-10.8-14.1-16.3-20.6c-4.7-4-8.7-7.9-13.4-11.7c-4.6-3.9-9.7-7.8-16.2-11.9c-5.6-3.5-11.7-5.9-17.3-8.5
				c-6.1-2.8-12.4-5.2-18.7-7.3c-6.3-2-12.6-3.8-19.1-5.2c-12.9-2.8-26-4.4-39.6-4.8c-2.8-0.1-5.8-0.1-8.9-0.3
				c-3.6,0-7.5,0.1-11.4,0.3c-1.9,0.1-3.9,0.2-5.7,0.3c-1.8,0.1-3.7,0.2-5.3,0.2c-3.5,0.1-6-0.1-8.1-0.1c-1.1,0-2.1,0-3,0
				c-1,0-1.9,0-2.7-0.3c0-1.7,1.3-4,3.5-5.6c2.2-1.6,5-2.6,7.9-3.1c1.5-0.3,2.9-0.4,4.4-0.6c1.5-0.1,2.9-0.3,4.5-0.4
				c3-0.2,6.2-0.4,9.3-0.5c10.5-0.5,23-0.1,35.5,1.4c12.4,1.5,24.6,4.3,34.3,7.3c7.5,2.3,14.9,5,22.1,8.2c7.2,3.2,14.1,7,20.5,11.2
				c6.6,4.2,12.8,8.9,18.6,14c2.9,2.5,5.7,5.2,8.4,7.8c2.6,2.8,5.2,5.5,7.6,8.5c7,8.5,12.2,17.8,16.8,27.2c1,2.2,2,4.4,2.9,6.5
				c0.9,2.2,1.7,4.5,2.5,6.7C1083.3,278.1,1083.8,280.7,1084.3,283.3z"/>
		</g>
	</g>
	<g>
		<g>
			<path class="st55" d="M1050.1,141.1c-0.4,1.2-1.7,1.3-2.6,1.9c-0.2,0.1-0.4,0.2-0.5,0.4c-0.6,0.3-1.1,0.7-1.7,1
				c-1.2,0.7-2.4,1.5-3.6,2.3c-2.4,1.6-4.9,3.2-7.4,4.8c-5,3.2-10,6.4-15.1,9.2c-6.7,4.7-12.9,8.1-21.6,13.6
				c-3.8,2.4-7.3,5-10.8,7.3c-15.4,9.9-30,19.3-45.5,29.4c-1.6,1-3.3,2.1-5.1,3.3c-4.1,2.6-8.9,6-12.8,8.3c-4.3,2.6-8.2,3.5-9.5,2.4
				c2-3.4,9.2-7.8,15.9-12.3c5.7-3.8,12.5-8.3,19.4-12.6c6.8-4.4,13.7-8.7,19.3-12.1c8.6-5.4,17.3-10.9,25.8-15.9
				c8.7-5.1,17.1-10.3,25.6-15c6.2-3.5,12.3-6.5,18.3-9.7c2.7-1.5,5.5-3,8.2-4.4C1047.7,142.1,1048.9,141.6,1050.1,141.1z"/>
		</g>
	</g>
	<g>
		<g>
			<path class="st55" d="M1050.1,135.5c0.7,1,0,2.2,0,3.2c0,0.2,0,0.4,0,0.6c-0.1,0.7-0.1,1.3-0.2,2c-0.1,1.4-0.2,2.9-0.3,4.3
				c-0.2,2.9-0.4,5.9-0.6,8.9c-0.4,6-0.9,12.1-1.7,17.9c-0.3,8.4-1.3,15.5-2.3,25.9c-0.4,4.5-0.5,9-0.8,13.3
				c-1.6,18.7-3.3,36.2-5.1,55c-0.2,1.9-0.4,4-0.7,6.1c-0.6,4.9-1,10.9-1.7,15.5c-0.8,5.1-2.5,8.8-4.2,9c-1.4-3.7-0.2-12.3,0.5-20.6
				c1.2-13.9,3.3-33.2,4.7-46.6c1.1-10.3,2.1-20.7,3.3-30.7c1.2-10.2,2.2-20.2,3.5-30c0.9-7.2,2.2-14,3.2-20.9
				c0.4-3.1,0.9-6.3,1.3-9.4C1049.4,138,1049.8,136.7,1050.1,135.5z"/>
		</g>
	</g>
	<g>
		<g>
			<path class="st55" d="M1048.6,141.4c0.2,1.2-0.9,2-1.4,2.9c-2.4,4.3-4.9,8.9-7.5,13.6c-2.9,5.2-5.8,10.3-9,15.1
				c-3.8,7.3-7.7,13-13,21.8c-2.3,3.8-4.2,7.7-6.4,11.3c-9.4,15.7-18.6,30.3-28.5,45.8c-1,1.6-2.1,3.3-3.3,5c-2.7,4-5.7,9-8.4,12.7
				c-2.9,4.1-6.2,6.4-7.7,5.9c0.5-3.9,5.3-10.8,9.6-17.6c7.2-11.5,17.5-27.4,24.6-38.5c5.4-8.5,10.8-17.2,16.1-25.4
				c5.4-8.4,10.6-16.8,15.8-24.9c3.8-5.9,7.8-11.4,11.5-17.1c1.7-2.6,3.4-5.2,5.1-7.7C1046.9,143.4,1047.7,142.4,1048.6,141.4z"/>
		</g>
	</g>
	<g>
		<circle class="st6" cx="1046.2" cy="145.6" r="13"/>
		<g>
			<path class="st55" d="M1058.6,144.4c0.2-0.4,0.2-0.8,0.2-1.2c0-0.4-0.1-0.8-0.2-1.2c-0.3-0.8-0.7-1.6-1.1-2.3
				c-0.6-1.2-1.3-2.3-2.2-3.4c-0.9-1.1-2-2-3.3-2.8c-1.3-0.8-2.7-1.4-4.2-1.6c-1.5-0.2-3-0.2-4.5,0.2c-2.1,0.1-4.1,0.9-5.8,2.2
				c-1.7,1.3-3.3,3-4.5,5.5c-1,2.1-1.8,4.4-1.8,6.8c0.1,2.5,0.9,5,2.2,7.2c1.3,2.2,3.2,4,5.4,5.2c2.2,1.2,4.8,2,7.4,2
				c2.6,0,5.3-0.6,7.6-1.9c0.5-0.3,1-0.6,1.4-0.9c0.2-0.2,0.5-0.4,0.7-0.5c0.2-0.2,0.4-0.4,0.7-0.6c2.1-1.9,4.1-4.9,4.5-7.6
				c0.3-1.4,0-2.8-0.6-3.7C1060.1,144.9,1059.3,144.4,1058.6,144.4c-0.9,0.9-1.2,2.1-1.7,3.5c-0.5,1.4-1.2,2.9-2.2,4.2
				c-0.9,1-2,2-3.4,2.7c-1.4,0.7-2.9,1.1-4.5,1.2c-1.6,0.1-3.2-0.2-4.6-0.8c-1.4-0.6-2.6-1.4-3.5-2.4c-0.7-0.7-1.3-1.5-1.7-2.4
				c-0.4-0.9-0.8-1.8-1-2.8c-0.4-1.9-0.2-3.9,0.4-5.7c0.1-0.5,0.4-0.9,0.6-1.4c0.3-0.4,0.5-0.9,0.8-1.2c0.6-0.8,1.3-1.5,2-2.1
				c1.5-1.2,3.3-2,5.3-2.3c2.8-0.5,5.8-0.2,8.3,1.5C1056,138.2,1058,141.1,1058.6,144.4z"/>
		</g>
	</g>
	<g>
		<circle class="st39" cx="551.3" cy="332.8" r="12.7"/>
	</g>
	<g>
		<g>
			<path class="st55" d="M542,755.9c1-1.6,2.5-2.3,4.1-2.7c1.6-0.4,3.4-0.4,4.9-1.1c0.6-0.3,1.2-0.5,1.9-0.8
				c4.4-1.9,8.8-4.7,13.2-7.3c2.2-1.4,4.4-2.7,6.6-3.9c2.2-1.3,4.5-2.4,6.8-3.3c1.4-1.3,2.9-2.5,4.3-3.5c0.7-0.5,1.5-1,2.3-1.5
				c0.7-0.5,1.5-1,2.3-1.5c1.5-1,3.2-2,4.9-3.1c1.7-1.2,3.4-2.4,5.3-3.9c1.6-1.2,3-2.8,4.3-4.3c0.7-0.7,1.4-1.5,2-2.2
				c0.7-0.7,1.3-1.5,2-2.1c6.2-5.6,11.8-11.4,17.1-17.4c5.3-6,10.3-12.3,14.9-19.2c0.9-1.4,2.1-2.9,3.2-4.3c1.2-1.6,2.2-3.5,3-5.3
				c0.8-1.8,1.3-3.4,1.8-4.5c0.6-1.3,1.7-2.2,3.2-3.5c1.5-1.3,3.2-3,5.4-4.2c0.8,0.2,1.5,0.5,2.2,1c0.6,0.5,1.3,1.2,1.7,2
				c1,1.7,1.4,3.8,1.4,6.1c0,2.3-0.6,4.5-1.3,6.7c-0.8,2.2-1.8,4.2-2.7,6.1c-0.8,1.6-1.8,3.2-2.8,4.8c-1,1.5-2,3-3.1,4.6
				c-0.5,0.8-1.1,1.6-1.6,2.4c-0.6,0.8-1.2,1.5-1.8,2.3c-1.2,1.5-2.4,3.1-3.6,4.6c-1.3,1.5-2.5,3-3.8,4.4c-0.6,0.7-1.3,1.5-1.9,2.2
				c-0.7,0.7-1.3,1.4-1.9,2.1c-1.3,1.4-2.5,2.7-3.7,3.9c-1.3,1.2-2.5,2.4-3.6,3.5c-7.1,6.8-14.5,13.4-22.5,18.7
				c-8.2,5.3-16.2,10.4-24.8,14.2c-3.2,1.3-6.3,2.4-9.6,3.2c-1.6,0.4-3.2,0.9-4.8,1.3c-1.6,0.4-3.2,0.8-4.7,1.3
				c-1.4,0.4-2.8,0.9-4.3,1.2c-1.4,0.3-2.9,0.7-4.3,1l-2.9,0.6c-1,0.2-2,0.3-2.9,0.5C546,755.3,544,755.6,542,755.9z"/>
		</g>
	</g>
	<g>
		<g>
			<path class="st55" d="M1042.6,762.5c-1.5,1.1-3.2,1.1-4.8,0.7c-1.6-0.3-3.2-1.1-4.8-1.2c-0.7-0.1-1.3-0.1-2-0.2
				c-5.5-0.7-11.6-1.2-17.6-2.3c-6-1.1-12-2.9-17.3-5.7c-2.3-0.5-4.4-1.1-6.4-1.9c-1-0.4-2-0.8-3.1-1.2c-1-0.5-2-1-3-1.5
				c-4.1-2-8.2-4.5-13.2-7.3c-2.1-1.3-4.4-2.3-6.6-3.4c-2.2-1.1-4.4-2.2-6.4-3.5c-8.6-5.8-16.4-12.3-23.6-19.4
				c-7.2-7.2-13.8-15-19.8-23.7c-1.2-1.8-2.5-3.8-3.6-5.9c-2.8-4.8-6.4-10.5-8.1-15.5c-0.4-1.4-0.6-2.8-0.6-4.1
				c0-1.3,0.3-2.6,0.8-3.8c0.9-2.3,2.6-4.2,4.7-5.3c3.2,0.8,5.3,3.3,7.4,6.5c2,3.2,3.9,7.1,6.2,10.7c0.9,1.5,2,3.1,3,4.7
				c1.1,1.6,2.2,3.3,3.3,5c1.2,1.7,2.4,3.4,3.6,5.1c1.3,1.7,2.5,3.4,3.9,5c5.3,6.6,11,12.8,16,17.6c3.8,3.7,7.9,7.1,12.1,10.4
				c1,0.8,2.1,1.6,3.1,2.4c1.1,0.8,2.1,1.6,3.1,2.4c2.1,1.5,4.2,3.1,6.3,4.5c2.1,1.6,4.4,2.9,6.6,4.3c1.1,0.7,2.2,1.3,3.4,2l1.7,1
				l1.7,0.9c4.5,2.5,9.1,4.7,13.7,7c6.6,3.3,13,7,19.9,9.4c1.6,0.5,3.1,1.1,4.7,1.6c1.6,0.5,3.2,1,4.8,1.5c1.8,0.6,3.7,1.2,5.5,1.7
				C1038.8,761.4,1040.7,762,1042.6,762.5z"/>
		</g>
	</g>
	<g>
		<g>
			<path class="st30" d="M579.6,334c-0.8-1-0.1-2.2-0.2-3.2c0-0.2,0-0.4,0-0.7c-0.2-2.3-1.3-4.8-1.3-7.1c-0.9-1.6-0.9-3.1-2-5
				c-0.4-0.8-1.3-1.3-1.8-2c-0.3-0.3-0.6-0.6-0.9-0.9l-0.5-0.5c-0.2-0.1-0.3-0.3-0.5-0.4l-1-0.8l-1.1-0.6c-0.7-0.5-1.6-0.7-2.4-1
				c-0.8-0.3-1.7-0.4-2.6-0.6c-0.4-0.1-0.8-0.1-1.2-0.2c-0.5-0.1-1-0.1-1.5-0.2c-0.5,0-1.1,0-1.5-0.2c-1-0.3-1.8-1.7-1.9-3.3
				c0.4-0.9,1.1-1.2,2-1.3c0.8-0.1,1.8-0.1,2.8,0c0.8,0.1,1.7,0.1,2.7,0.3c0.9,0.2,1.9,0.5,2.9,0.8c0.9,0.4,1.9,0.8,2.8,1.3
				c0.8,0.5,1.7,1,2.3,1.6c2.1,1.6,3.8,3.9,4.8,6.2c1,2.4,1.6,4.7,1.7,7.1c0.1,1.7-0.3,3.3-0.5,4.9c-0.1,0.7-0.2,1.4-0.3,2.1
				C580.2,331.4,579.9,332.7,579.6,334z"/>
		</g>
	</g>
	<g>
		<g>
			<path class="st30" d="M597.5,339.3c-0.4-1.3,0.7-2,1-3.1c0.1-0.2,0.1-0.4,0.2-0.6c0.1-0.3,0.2-0.6,0.2-0.8
				c0.1-0.6,0.2-1.2,0.3-1.8c0.1-0.6,0.1-1.2,0.2-1.9c0.1-0.6,0.1-1.2,0.1-1.9c0-2.5-0.1-5-0.2-7.4c-0.5-1.7-0.8-3.2-1.2-4.9
				c-0.4-1.6-0.9-3.4-1.7-5.3c-0.8-1.7-1.9-3.1-2.9-4.6c-1-1.6-2.1-3-3.3-4.4c-1.2-1.3-2.5-2.6-3.9-3.8c-1.4-1.1-2.8-2.2-4.4-3
				c-1.5-0.9-3.2-1.6-4.9-2.2c-0.7-0.3-1.5-0.4-2.2-0.7c-1.8-0.5-4.1-0.6-5.9-0.8c-1.9-0.2-3.6-1.4-4-3c1.3-1.9,5.3-2,9-1.4
				c3.1,0.4,6.8,1.6,10.1,3.5c3.3,1.9,6.1,4.3,8.1,6.6c1.6,1.7,3,3.5,4.3,5.5c1.2,2,2.3,4,3.1,6.1c1.7,4.3,2.7,8.7,2.8,13.1
				c0,3.2-0.6,6.3-1.4,9.2l-0.3,1l-0.3,1c-0.2,0.7-0.4,1.3-0.8,1.9c-0.3,0.6-0.6,1.2-1,1.8C598.2,338.2,597.8,338.7,597.5,339.3z"/>
		</g>
	</g>
	<g>
		<g>
			<path class="st30" d="M617.5,342.3c-0.4-1.3,0.7-2.1,1-3.1c0.1-0.2,0.1-0.4,0.2-0.6c0.1-0.4,0.2-0.8,0.3-1.3
				c0.3-0.9,0.3-1.8,0.5-2.7c0.2-0.9,0.2-1.9,0.3-2.8c0.1-0.9,0.1-1.9,0.1-2.9c0-3.8-0.3-7.7-0.5-11.4c-0.3-1.3-0.6-2.5-0.9-3.8
				c-0.3-1.2-0.5-2.5-0.9-3.7c-0.3-1.3-0.6-2.6-1.1-3.9c-0.4-1.4-0.9-2.8-1.5-4.3c-1.2-2.6-2.7-5-4.2-7.1c-3.3-4.7-7.5-8.6-12-11.9
				c-4.6-3.2-9.6-5.8-15.1-7.7c-1.1-0.3-2.3-0.8-3.6-1.1c-2.9-0.9-6.6-1.3-9.4-1.8c-1.5-0.3-2.9-0.8-3.9-1.3c-1-0.6-1.7-1.4-1.8-2.2
				c1.2-0.8,3.2-1.2,5.6-1.1c2.4,0,5.2,0.5,7.9,1c4.6,0.9,9.9,2.7,14.8,5.2c4.9,2.5,9.4,5.8,12.8,8.8c1.3,1.1,2.5,2.4,3.7,3.7
				c1.1,1.3,2.3,2.6,3.3,4.1c1.1,1.4,2,2.9,2.9,4.4c0.4,0.8,0.8,1.6,1.2,2.3c0.3,0.8,0.7,1.6,1,2.4c2.5,6.5,4,13,4.3,19.6
				c0.2,4.8-0.3,9.4-1.2,13.9c-0.2,1-0.5,2.1-0.8,3.1c-0.2,0.5-0.3,1-0.5,1.5l-0.6,1.5C619,340.1,618.2,341.2,617.5,342.3z"/>
		</g>
	</g>
	<g>
		<g>
			<path class="st30" d="M523.7,324.5c0.4,1.2-0.6,2.1-0.9,3.1c-0.1,0.2-0.1,0.4-0.2,0.7c-0.2,1.1-0.2,2.3-0.2,3.4
				c0,1.2,0,2.3-0.2,3.4c0.6,1.7,0.4,3.1,1.1,5c0.3,0.8,1,1.5,1.4,2.1c1.8,3,4.3,5.2,7.4,6.7c0.3,0.1,0.6,0.3,1,0.5
				c0.8,0.4,1.9,0.5,2.6,0.9c0.8,0.4,1.3,1.9,1.2,3.5c-1,1.6-3,1-4.9,0.4c-1.6-0.5-3.3-1.4-4.9-2.5c-1.6-1.1-3-2.5-4-3.8
				c-1.5-1.9-2.8-4.1-3.4-6.5c-0.6-2.4-0.9-4.8-0.5-7.1c0.3-1.7,1-3.1,1.6-4.5c0.3-0.7,0.6-1.3,0.9-1.9
				C522.3,326.7,523,325.6,523.7,324.5z"/>
		</g>
	</g>
	<g>
		<g>
			<path class="st30" d="M503.5,305.9c0.5,1.2-0.4,2.1-0.7,3.1c-0.1,0.5-0.2,1-0.4,1.5c-0.1,0.6-0.3,1.3-0.4,1.9
				c-0.3,1.3-0.5,2.6-0.7,4c-0.4,2.7-0.8,5.4-1.4,7.9c0,1.9-0.1,3.6-0.1,5.4c0,1.8-0.1,3.7,0.4,6c0.4,1.9,1.2,3.8,1.8,5.6
				c1.2,3.9,2.9,7.4,5,10.6c0.5,0.8,1.1,1.5,1.7,2.3c0.6,0.8,1.3,1.4,1.9,2.2c1.4,1.4,2.8,2.7,4.4,3.8c0.3,0.2,0.7,0.5,1,0.7
				c0.3,0.2,0.7,0.5,1.1,0.7c0.8,0.6,1.9,1,2.9,1.5c0.5,0.2,1,0.4,1.5,0.6c0.5,0.2,1,0.4,1.4,0.6c0.5,0.2,0.9,0.5,1.3,0.8
				c0.4,0.3,0.7,0.6,1,1c0.5,0.7,0.8,1.6,0.8,2.4c-1,0.6-2.5,0.7-4.2,0.3c-0.4-0.1-0.9-0.2-1.3-0.3c-0.4-0.2-0.9-0.3-1.3-0.5
				c-0.9-0.3-1.8-0.8-2.7-1.2c-3-1.5-6.4-3.8-9.1-6.7c-2.8-2.9-4.9-6.3-6.3-9.2c-2.2-4.4-3.7-9.2-4.4-13.9c-0.7-5-0.4-9.9,0.6-14.3
				c0.7-3.3,2-6.3,3.1-9.2c0.5-1.4,1-2.7,1.5-4C502.4,308.3,502.9,307.1,503.5,305.9z"/>
		</g>
	</g>
	<g>
		<g>
			<path class="st30" d="M481.9,292.5c0.3,1.2-0.7,2-1.2,3c-0.1,0.2-0.2,0.4-0.2,0.6c-0.2,0.4-0.4,0.9-0.6,1.3
				c-0.4,0.9-0.8,1.9-1.1,2.9c-0.3,1-0.7,2-1,3c-0.3,1-0.6,2.1-0.9,3.1c-1.1,4.2-2.1,8.4-3.1,12.4c-0.1,1.5-0.3,2.9-0.4,4.3
				c-0.1,0.7-0.2,1.4-0.2,2.1c-0.1,0.7-0.1,1.4-0.2,2.2c-0.3,2.9-0.4,6-0.2,9.7c0.2,1.6,0.3,3.2,0.7,4.7c0.2,0.8,0.3,1.5,0.5,2.3
				c0.2,0.7,0.4,1.5,0.6,2.2c0.2,0.8,0.4,1.6,0.7,2.3c0.3,0.8,0.4,1.5,0.7,2.3c0.6,1.5,1.1,3,1.8,4.4c0.6,1.4,1.4,2.8,2.2,4.2
				c0.4,0.7,0.8,1.3,1.3,2c0.4,0.7,0.8,1.3,1.3,1.9l1.4,1.9l1.5,1.8c0.5,0.6,1,1.2,1.6,1.8l1.6,1.7c2.2,2.3,4.6,4.4,7.2,6.5
				c1,0.8,2.2,1.7,3.4,2.6c2.8,2.1,6.4,4.1,9.1,5.9c3,1.9,4.8,4.4,4.4,6c-3.1,0.4-8.6-2.7-13.7-6c-4.3-2.8-9.2-6.6-13.4-11
				c-4.3-4.4-7.9-9.4-10.3-13.9c-1-1.7-1.7-3.5-2.5-5.3c-0.7-1.8-1.4-3.6-1.9-5.6c-0.6-1.9-0.9-3.8-1.3-5.7
				c-0.2-1.9-0.5-3.8-0.6-5.7c-0.1-1.9-0.1-3.8-0.1-5.7c0.1-1.9,0.1-3.8,0.4-5.6c0.3-3.7,1-7.3,1.9-10.8c1.3-5.1,3.3-9.9,5.3-14.5
				l1.5-3.1l1.6-3C480.4,294.7,481.1,293.6,481.9,292.5z"/>
		</g>
	</g>
	<g>
		<g>
			<path class="st55" d="M720.5,597.5c-0.5-0.3-0.5-1-0.6-1.5c-0.2-0.5-0.4-1-0.6-1.5c-0.2-0.6-0.5-1.1-0.7-1.7
				c-0.4-1.2-0.8-2.4-0.9-3.6c-0.6-1.7-0.6-3.2-0.9-5.3c-0.1-0.9-0.3-1.9-0.4-2.8c-0.2-3.9,0.1-7.6,0.8-11.5
				c0.1-0.4,0.2-0.8,0.3-1.3c0.2-1,0.5-2.3,0.9-3.2c0.4-1,1.3-1.5,2.1-1.3c0.6,1-0.1,2.6-0.4,4.2c-0.6,2.7-1.2,6.6-1.4,9.3
				c-0.2,2.1-0.1,4.2,0,6.2c0,2.1,0.3,4.1,0.5,6c0.2,1.4,0.2,2.9,0.5,4.3c0.1,0.6,0.2,1.3,0.4,1.9
				C720.3,596.2,720.4,596.8,720.5,597.5z"/>
		</g>
	</g>
	<g>
		<g>
			<path class="st55" d="M733.2,594.7c-0.6-0.1-0.8-0.8-1.1-1.2c-0.1-0.1-0.1-0.2-0.2-0.3c-0.9-1.1-2.1-2.4-2.5-3.9
				c-0.7-1-0.8-2-1.2-3.5c-0.2-0.6-0.5-1.2-0.6-1.8c-0.5-2.6-0.7-5.1-0.8-7.8c0-0.3,0-0.6,0-0.9c0-0.7,0-1.5,0.1-2.2
				c0.1-0.7,0.9-1.2,1.7-1.2c0.9,0.5,0.7,1.7,0.7,2.9c0.1,1.9,0.1,4.5,0.2,6.4c0.1,1.4,0.3,2.8,0.5,4.1c0.2,1.3,0.6,2.6,0.9,3.9
				c0.3,0.9,0.4,1.8,0.8,2.7c0.1,0.4,0.4,0.8,0.5,1.2C732.5,593.6,732.9,594.1,733.2,594.7z"/>
		</g>
	</g>
	<g>
		<g>
			<path class="st55" d="M859.9,565.5c0.5,0.3,0.4,1,0.6,1.5c0,0.1,0.1,0.2,0.1,0.3c0.5,1.2,1.3,2.6,1.3,4c0.5,1,0.5,1.9,0.7,3.3
				c0.1,0.6,0.4,1.1,0.4,1.7c0.3,2.4,0.4,4.7,0.3,7.2c0,0.3,0,0.5-0.1,0.8c-0.1,0.6-0.1,1.4-0.2,2c-0.2,0.6-1,1-1.8,0.9
				c-0.8-0.6-0.5-1.6-0.5-2.6c0.1-1.7,0.2-4.1,0.1-5.8c0-1.3-0.2-2.6-0.2-3.8c-0.1-1.3-0.3-2.5-0.4-3.7c-0.1-0.9,0-1.8-0.1-2.7
				c0-0.4-0.1-0.8-0.1-1.2C860.1,566.8,860,566.1,859.9,565.5z"/>
		</g>
	</g>
	<g>
		<g>
			<path class="st55" d="M869.7,551.4c0.5,0.4,0.4,1,0.5,1.5c0.4,1.3,0.8,2.7,1.2,4.2c0.4,1.5,0.8,3.1,0.9,4.7c0.6,2.1,0.7,4,1,6.8
				c0.1,1.2,0.4,2.4,0.5,3.5c0.4,4.9,0.5,9.6,0.2,14.7c0,0.5-0.1,1.1-0.1,1.6c-0.1,1.3-0.2,2.9-0.4,4.1c-0.3,1.3-1.1,2.3-1.9,2.2
				c-0.7-1.1-0.3-3.3-0.2-5.4c0.3-3.6,0.5-8.7,0.4-12.2c0-2.7-0.2-5.4-0.3-8c-0.1-2.7-0.5-5.3-0.7-7.8c-0.2-1.9-0.2-3.7-0.5-5.5
				c-0.1-0.8-0.2-1.6-0.3-2.5C869.8,552.7,869.7,552,869.7,551.4z"/>
		</g>
	</g>
	<g>
		<g>
			<path class="st55" d="M562.6,762.1c-1.3,0-1.8-1.2-2.6-1.9c-0.2-0.1-0.3-0.3-0.5-0.4c-0.5-0.4-1.1-0.9-1.6-1.3
				c-1.1-0.9-2.3-1.8-3.5-2.8c-2.4-1.9-4.8-3.8-7.3-5.7c-2.5-1.9-4.9-3.9-7.3-5.9c-1.2-1-2.4-2.1-3.5-2.8c-1.2-0.7-2.6-0.9-4.1-1
				c-8.6,0.5-16,0.5-26.7,1.5c-4.6,0.4-9.2,1.4-13.6,1.9c-9.6,1.3-18.9,2.7-28.2,4c-4.7,0.6-9.4,1.3-14.1,1.8
				c-2.4,0.3-4.8,0.6-7.2,0.8l-1.8,0.2l-0.9,0.1l-0.6,0.1c-0.8,0.2-1.5,0.6-2,1.1c-0.9,0.8-1.5,2.1-1.3,3.4c0,0.2,0.1,0.4,0.1,0.5
				c0,0.2,0.1,0.4,0.2,0.5l0.1,0.1l0.1,0.2l0.2,0.4c0.2,0.3,0.3,0.6,0.5,0.9c0.7,1.2,1.4,2.3,2.1,3.4c1.5,2.2,3,4.4,4.4,6.1
				c1.5,2,2.8,3.7,3.7,5.2c0.9,1.5,1.4,2.7,1.1,3.5c-2-0.3-4.9-2.1-7.7-4.9c-2.8-2.8-5.4-6.6-7.6-10.4c-0.2-0.4-0.5-0.8-0.7-1.2
				l-0.4-0.6c-0.1-0.2-0.2-0.4-0.4-0.7c-0.6-1.1-0.9-2.5-0.9-3.8c0-2.7,1.4-5.5,3.7-7.1c1.1-0.8,2.4-1.4,3.8-1.7l1-0.2l0.8-0.1
				l1.6-0.2c2.1-0.2,4.2-0.4,6.3-0.7c8.5-0.9,16.9-2,23.8-2.9c10.6-1.4,21.4-2.8,31.8-3.6c5.3-0.4,10.6-0.7,15.9-0.9
				c2.6-0.1,5.2-0.1,7.8-0.1c1.3,0,2.6,0,3.9,0c1.3,0,2.7,0,4.3,0.4c1.2,0.3,2.4,0.9,3.3,1.6c0.9,0.7,1.5,1.3,2.2,2
				c1.3,1.3,2.7,2.5,4,3.8c2.6,2.5,5.3,5,7.9,7.4c2.4,2.2,4.8,4.4,7.2,6.6C560.9,760.1,561.8,761.1,562.6,762.1z"/>
		</g>
	</g>
	<g>
		<g>
			<path class="st55" d="M563.9,768.7c0.5,0.3,0.7,0.8,0.7,1.4c0,0.6-0.2,1.1-0.4,1.6c0,0.2-0.1,0.4-0.2,0.6c0,0-0.1,0.2-0.1,0.3
				c-0.1,0.1-0.1,0.3-0.2,0.4c-0.1,0.3-0.3,0.5-0.4,0.8c-0.6,1-1.6,1.9-2.6,2.6c-2.1,1.5-4.5,2.4-6.9,3.5c-4.7,2.1-9.6,4.1-14.4,5.6
				c-6.6,2.9-12.6,4.5-21.2,7.2c-3.7,1.1-7.4,2.5-11,3.5c-3.9,1.1-7.7,2.1-11.7,2.9c-4,0.7-8.1,1.2-12.3,0.7
				c-2.1-0.2-4.2-0.7-6.2-1.4c-2-0.7-3.9-1.6-5.7-2.6c-3.6-1.9-7.1-4-10.5-6.3c-1.4-0.9-2.9-2-4.4-3.2c-3.5-2.7-7.6-5.9-10.4-8.9
				c-3.1-3.3-4.4-6.7-3.4-8.1c1.7,0.5,3.7,2.2,6.1,4.2c2.3,2,5,4.4,7.7,6.5c4.6,3.6,10.4,7.6,16.5,10.9c3,1.7,6,3.1,9,3.7
				c3,0.6,6,0.6,8.7,0.4c4.2-0.4,8.4-1.4,12.7-2.4c4.3-1,8.5-2.1,12.7-3.2c8.5-2.2,16.7-4.9,24.7-7.5c5.8-1.9,11.7-3.5,17.2-5.6
				c2.4-1,4.5-2.3,5.5-4.4C563.7,771,564.1,769.9,563.9,768.7z"/>
		</g>
	</g>
	<g>
		<g>
			<path class="st30" d="M409.7,778.1c-1.9-0.3-2.2-2.3-3-3.6c-0.2-0.3-0.4-0.6-0.5-0.9c-0.9-1.2-2-2.5-2.9-4
				c-0.9-1.4-1.6-3.1-1.7-4.7c-1.4-2.3-1.3-4.5-1.6-7.7c-0.1-1.4-0.7-2.8-0.7-4.2c0-2.9,0.3-5.8,1-8.6c0.6-2.8,1.6-5.6,2.8-8.3
				c0.2-0.6,0.6-1.1,0.9-1.7c0.8-1.3,1.5-3.1,2.6-4.2c1.2-1.2,3.6-0.8,5.5,0.6c1.4,2.4-0.2,4.1-1.1,6.1c-0.8,1.7-1.7,3.7-2.5,5.8
				c-0.8,2.1-1.4,4.1-1.8,5.9c-0.6,2.7-0.8,5.4-1,8c-0.2,2.7,0.2,5.3,0.5,7.9c0.2,1.9,0.1,3.9,0.5,5.8c0.2,0.8,0.4,1.7,0.7,2.6
				C407.9,774.7,408.7,776.4,409.7,778.1z"/>
		</g>
	</g>
	<g>
		<g>
			<path class="st30" d="M392,791.3c-0.9,0.1-1.6-0.4-2.2-1c-0.5-0.6-1-1.3-1.6-1.9c-0.2-0.2-0.5-0.5-0.7-0.7
				c-2.1-2-4.2-4.4-5.9-7.2c-1.7-2.7-3.1-5.8-3.5-9c-1-2.2-1.5-4.5-1.7-6.9c-0.2-2.4-0.3-5-0.2-8c0.1-2.6-0.2-5.3,0.1-7.8
				c0.7-5.4,2.1-10.6,3.8-15.6c0.9-2.5,1.8-4.9,2.8-7.4c1-2.4,2.1-4.9,3.3-7.4c0.5-1,1.1-2.1,1.8-3.2c1.5-2.5,3.5-5.8,5.8-7.7
				c1.3-1.1,2.8-1.6,4.1-1.5c1.3,0.1,2.5,0.7,3.2,1.7c-0.1,1.6-1,2.9-2.1,4.4c-1.1,1.4-2.5,3.1-3.5,4.9c-1.8,3.1-3.7,7.2-5.6,11.4
				c-1.8,4.2-3.5,8.3-4.6,11.8c-1.8,5.3-2.9,10.8-3.5,16c-0.6,5.4-0.1,10.6,0.9,15.6c0.8,3.6,1.5,7.3,3.2,10.6
				c0.8,1.5,1.6,3,2.6,4.3C389.5,788.3,390.7,789.8,392,791.3z"/>
		</g>
	</g>
	<g>
		<g>
			<path class="st30" d="M352.8,783.8c-1.5-1.1-1-3.1-1.4-4.6c-0.4-1.8-0.9-3.7-1.4-5.6c-0.5-2.2-1-4.4-1.5-6.6
				c-0.9-4.5-1.4-9.2-0.9-13.7c-0.3-3.2-0.2-6.2,0.4-9.4c0.5-3.2,1.3-6.5,2.5-10.4c1-3.4,1.7-6.8,3.1-9.9c2.9-6.7,6.7-12.8,11-18.5
				c4.3-5.7,9.2-10.9,14.5-15.9c1.1-1,2.3-2.1,3.6-3.1c3-2.4,6.4-5.6,9.4-7.5c3.3-2.1,6.9-2.2,8.6-0.4c-0.6,3.7-6,7.2-10.7,11.3
				c-3.9,3.4-8.4,7.6-12.6,12c-4.2,4.4-8,9-10.8,13c-4.3,6.2-7.8,12.9-10.3,19.7c-2.7,6.9-3.8,14-4.2,21.2
				c-0.3,5.2-0.6,10.4-0.2,15.6c0.2,2.4,0.4,4.7,0.7,7.1C352.6,779.9,352.7,781.8,352.8,783.8z"/>
		</g>
	</g>
	<g>
		<g>
			<path class="st55" d="M463.1,752.6c0.9-0.9,2.1-0.5,3.2-0.7c0.2,0,0.4-0.1,0.6-0.1c0.9-0.1,1.8-0.3,2.7-0.4
				c1.9-0.3,3.8-0.6,5.8-1c3.9-0.7,7.9-1.4,11.9-2.1c8.1-1.4,16.2-2.9,24.2-3.5c2.8-0.4,5.6-0.8,8.5-0.5c1.4,0.1,2.9,0.4,4.2,1
				c1.4,0.5,2.7,1.2,3.9,2c2.4,1.6,4.6,3.5,7.1,5.3c2.4,1.9,5,3.9,7.9,6.1c2.4,1.9,4.9,3.6,7.4,5.4l0.9,0.7c0.1,0,0.2,0.1,0.3,0.2
				c0.1,0.1,0.2,0.2,0.3,0.3c0.2,0.2,0.4,0.4,0.6,0.6c0.7,0.9,1.1,2.2,0.6,3.6c-0.2,0.7-0.7,1.3-1.1,1.7c-0.5,0.4-0.9,0.6-1.4,0.8
				c-0.4,0.2-0.9,0.3-1.2,0.4l-1.1,0.3c-12.2,3.6-24,7.1-35.9,10.6c-3,0.9-5.9,1.7-8.9,2.6c-3,0.9-6.1,1.8-9.4,2.3
				c-3.3,0.5-6.8,0.5-10.1,0c-3.4-0.5-6.6-1.5-9.8-2.8c-2.6-1.1-5.2-2.5-7.7-4.3c-2.9-2-6-4.4-8.7-7.1c-2.7-2.6-5.2-5.4-7.2-7.9
				c-4.3-5.6-6.2-10.7-5.3-12.1c2.2,1.4,4.9,4.5,8.1,8.2c3.2,3.7,6.9,7.9,11.1,11.3c3.5,2.9,7.7,5.6,12.4,7.5
				c4.7,1.9,10,2.9,15.1,2.4c2.6-0.3,5.2-0.9,7.8-1.6c2.7-0.8,5.3-1.5,7.8-2.2c5.1-1.5,10-2.8,14.4-4.1c6.7-1.9,13.5-3.9,20.3-5.8
				c1.7-0.5,3.4-1,5.1-1.4c0.9-0.2,1.6-0.5,1.7-0.6c0,0,0,0,0,0c0.1,0.2,0.2,0.2,0.3,0.4c0.1,0.2,0.3,0.2,0.3,0.2c0,0-0.1,0-0.1,0
				c-0.1,0-0.1,0-0.3,0c-0.1,0-0.1,0-0.2,0l0,0c-0.1,0,0.2,0,0.1,0l0,0h0l0,0c0,0-0.1,0-0.1,0c0,0-0.1,0-0.1,0l-0.1,0l0,0
				c0,0,0,0,0-0.1s0-0.1-0.1-0.1l-0.4-0.3l-2-1.6c-1.3-1.1-2.7-2.1-4-3.2c-2.7-2.2-5.5-4.3-8.2-6.5c-1.4-1.1-2.7-2.1-4.1-3.2
				c-1.4-1.1-2.7-2.1-4-3c-1.3-0.9-2.6-1.6-3.9-2.1c-1.3-0.5-2.8-0.7-4.3-0.8c-3-0.1-6.4,0.3-9.7,0.6c-9.7,1.1-19.1,2-28.5,3.1
				c-4.3,0.5-8.5,1-12.8,1.4C465.7,752.7,464.4,752.7,463.1,752.6z"/>
		</g>
	</g>
	<g>
		<g>
			<path class="st55" d="M566.4,776.2c0.2,0.6-0.3,1-0.6,1.5l-0.1,0.3l-0.1,0.1l-0.1,0.2l-0.3,0.5c-0.2,0.3-0.4,0.6-0.7,0.9
				c-0.9,1.2-2.1,2.2-3.4,3c-1.3,0.8-2.8,1.5-4.2,2.1c-1.5,0.6-2.9,1.2-4.4,1.8c-5.9,2.5-11.9,4.9-17.7,7.1c-4.1,1.8-7.9,3.3-12,4.9
				c-2,0.8-4.2,1.6-6.4,2.5c-2.2,0.9-4.6,1.9-7.3,2.7c-4.6,1.6-9.1,3-13.7,4c-2.5,0.5-4.9,0.9-7.4,1.1c-1.3,0.1-2.5,0.2-3.8,0.1
				c-0.6,0-1.3-0.1-1.9-0.2c-0.6-0.1-1.2-0.2-1.8-0.3c-2.4-0.5-4.8-1.1-7.2-1.9c-2.3-0.8-4.6-1.6-6.9-2.7c-1.1-0.6-2.2-1.2-3.3-1.9
				c-1-0.7-2-1.4-3-2.1c-2-1.4-3.9-2.9-5.8-4.5c-3.8-3.1-7.5-6.5-11.1-10.1c-1.5-1.5-3-3.1-4.5-4.8c-1.8-2-3.7-4.3-5.1-7.1
				c-0.7-1.4-1.1-2.9-1.3-4.4c-0.2-1.5-0.2-2.9-0.2-4.1c0.1-2.8,0.3-5.1,0.4-6.8c0.1-1.7,0-2.9,0.4-3.3c0.5,0.8,1,2.1,1.3,3.7
				c0.3,1.6,0.3,3.4,0.3,5.3c0,1.9,0,3.9,0.5,5.9c0.4,1.9,1.4,3.8,2.6,5.5c1,1.4,2.3,2.9,3.6,4.3c1.3,1.5,2.8,3,4.2,4.4
				c3,3,6.2,5.9,9.5,8.7c3.3,2.8,6.8,5.4,10.2,7.7c3.4,2.1,7.1,3.4,10.4,4.5c2.6,0.8,5.3,1.5,7.8,1.8c2.5,0.3,5.2,0,7.9-0.4
				c5.3-0.8,10.6-2.2,15.6-3.7c2.6-0.8,5.1-1.7,7.6-2.7c2.5-1,5-2,7.5-2.9c5-1.9,9.9-3.8,14.8-5.7c7.1-2.7,14.2-5.2,21-7.8
				c1.5-0.6,3-1.3,4.3-2.3c1.3-1,2.4-2.2,3.2-3.5C565.7,777.3,566.1,776.8,566.4,776.2z"/>
		</g>
	</g>
	<g>
		<g>
			<path class="st55" d="M1067.4,850c-1.6,1-3.2-0.2-4.8-0.5c-4.8-0.7-10-1.4-15.3-2.2c-5.6-0.9-11.4-2-16.6-3.8
				c-3.9-0.7-7.5-1.7-11.2-3c-3.7-1.3-7.6-2.9-12.3-4.9c-4-1.7-8.1-3.2-11.8-5.2c-4-2.2-7.7-4.7-11.3-7.4c-1.8-1.4-3.5-2.8-5.2-4.3
				c-1.7-1.5-3.4-3.2-4.9-5.2c-1.5-2-2.8-4.3-3.5-7c-0.7-2.7-0.6-5.6,0.1-8.2c0.6-2.6,1.7-4.8,2.9-6.9c1.2-2.1,2.4-4,3.6-5.9
				c1-1.6,2.2-3.2,3.4-4.9c2.8-3.9,6.2-8.6,9.4-11.8c3.5-3.5,7.6-4.7,9.6-3.3c-0.5,4.2-6.2,9.8-10.6,16.1c-1.9,2.6-3.9,5.5-5.9,8.6
				c-2,3.1-4.1,6.3-5,9.3c-1,3-0.7,5.5,0.7,8.1c1.4,2.5,3.7,4.8,6,6.8c7,6.2,15.2,11.2,23.4,15.3c8.4,4.3,17.3,7.2,26,10
				c6.4,2,12.6,4.2,18.9,5.9c2.9,0.8,5.8,1.5,8.7,2.3C1063.8,848.6,1065.6,849.3,1067.4,850z"/>
		</g>
	</g>
	<g>
		<g>
			<path class="st55" d="M1122.6,789.7c-1.4,1.3-3.2,0.4-4.8,0.5c-1.9,0.1-3.9,0.3-6,0.4c-2.3,0.1-4.7,0.4-7.1,0.5
				c-2.4,0.1-4.8,0.2-7.2,0.1c-2.4-0.1-4.8-0.2-7.1-0.5c-3.3,0.2-6.4,0-9.7-0.3c-3.3-0.4-6.8-0.7-10.9-1.3c-1.8-0.2-3.6-0.3-5.4-0.4
				c-1.8-0.1-3.5-0.2-5.2-0.5c-1.9-0.2-3.7-0.5-5.5-0.9c-1.8-0.3-3.6-0.6-5.4-0.9c-1.8-0.4-3.6-0.7-5.4-1.1l-2.7-0.5l-2.7-0.6
				c-1.8-0.4-3.5-0.8-5.3-1.3c-1.8-0.5-3.5-0.9-5.3-1.4c-0.9-0.2-1.8-0.5-2.7-0.7c-0.9-0.3-1.8-0.5-2.7-0.8
				c-1.8-0.5-3.6-1.1-5.4-1.6c-1.5-0.5-3-1-4.7-1.6c-0.9-0.3-1.9-0.7-2.9-1c-1-0.4-2-0.7-3-1.1c-2-0.7-4-1.5-5.7-2.3
				c-3.7-1.9-5.7-5-5.1-7.3c1.8-0.7,4.2-0.3,7,0.5c2.7,0.8,5.8,2,8.9,3c2.6,0.8,5.4,1.7,8.4,2.7c3,0.9,6.1,1.9,9.2,2.8
				c3.1,0.9,6.2,1.8,9.2,2.5c1.5,0.4,2.9,0.8,4.3,1.1c1.4,0.3,2.8,0.6,4,0.9c3.9,1,7.9,1.7,11.9,2.5c4,0.7,7.9,1.5,11.8,2.1
				c7.9,1.4,15.7,2.2,23.4,3c2.8,0.3,5.6,0.8,8.3,1.1c2.7,0.4,5.5,0.8,8.2,0.9c2.5,0.2,5,0.4,7.4,0.5
				C1118.8,789.1,1120.7,789.4,1122.6,789.7z"/>
		</g>
	</g>
	<g>
		<g>
			<path class="st55" d="M1148.4,821.4c-1.9,0-2.6-1.9-3.8-2.9c-1.2-1.1-2.5-2.2-3.9-3.3c-1.4-1.2-2.9-2.5-4.3-3.8
				c-2.9-2.7-5.6-5.6-7.5-8.8c-0.5-0.5-1-1-1.4-1.5c-0.2-0.3-0.4-0.5-0.6-0.7l-0.3-0.4l-0.2-0.2c0,0-0.1-0.1-0.1-0.1
				c-0.4-0.4-1.1-0.5-1.6-0.2c-0.1,0.1-0.2,0.2-0.3,0.3c0,0.1-0.1,0.1-0.1,0.2l-0.1,0.1l-0.1,0.2c-0.3,0.6-0.7,1.2-1,1.9
				c-0.7,1.3-1.4,2.7-2.2,4.2c-0.7,1.3-1.3,2.6-1.9,4c-0.6,1.3-1.2,2.6-1.9,3.9c-6.2,10.5-13.3,19.7-22,28.6
				c-0.9,0.9-1.9,1.9-2.9,2.8c-1.2,1.1-2.5,2.4-3.8,3.5c-1.3,1.2-2.6,2.3-3.9,3.2c-2.8,1.9-6.1,1.8-7.7,0c0.2-3.5,4.6-6.5,8.3-10.2
				c3.1-3.1,6.8-6.8,10.2-10.7c3.5-3.8,6.8-7.8,9.3-11.2c3.9-5.1,7.5-10.7,10.8-16c0.8-1.4,1.7-2.7,2.5-4.1c0.4-0.7,0.8-1.4,1.2-2.1
				l0.3-0.5l0.2-0.4c0.1-0.2,0.2-0.4,0.4-0.6c0.6-0.8,1.3-1.4,2.1-1.8c1.7-0.9,3.6-1.1,5.4-0.4c0.9,0.3,1.7,0.8,2.3,1.5
				c0.3,0.3,0.6,0.7,0.9,1l0.3,0.5c0.9,1.3,1.7,2.6,2.6,3.9c2.5,3.7,4.7,7.6,7.5,11c1.3,1.6,2.5,3.1,3.8,4.6
				C1146,818.4,1147.2,819.9,1148.4,821.4z"/>
		</g>
	</g>
	<g>
		<g>
			<path class="st55" d="M1160.5,750.9c-0.8,1-2.1,0.6-3.1,0.8c-0.2,0-0.4,0.1-0.6,0.1c-0.7,0.1-1.3,0.2-2,0.3
				c-1.4,0.3-2.8,0.4-4.2,0.7c-2.9,0.4-5.8,0.7-8.8,1c-6,0.4-12.1,0.5-17.9-0.1c-8.4,0.1-15.4-0.9-25.8-1.8c-4.5-0.4-9-0.4-13.2-0.7
				c-9.3-0.8-18.3-1.5-27.3-2.2c-4.5-0.4-9-0.8-13.6-1.2c-1.1-0.1-2.3-0.2-3.4-0.3l-0.4,0c-0.1,0-0.1,0-0.2,0c-0.1,0-0.2,0-0.3,0
				c-0.2,0.1-0.4,0.2-0.6,0.3c-0.2,0.1-0.3,0.3-0.4,0.5l-0.6,1.5c-0.4,1.1-0.9,2.2-1.3,3.3c-0.8,1.8-1.7,3.7-2.7,5.7
				c-2.3,4.5-5.3,9.8-8.2,13.6c-3.2,4.2-6.8,6.2-8.3,5.5c0.5-1.9,2.1-4.5,4-7.4c1.9-3,4.2-6.4,6.1-10c1.6-3,3.2-6.3,4.7-9.9
				c0.4-0.9,0.7-1.8,1.1-2.7l0.3-0.7l0.1-0.3l0.2-0.5c0.3-0.8,0.8-1.5,1.4-2.1c1.2-1.2,2.9-1.8,4.6-1.8l0.6,0l0.4,0l0.8,0.1l1.5,0.1
				c8.2,0.8,16.3,1.6,23,2.2c10.2,1,20.6,1.9,30.6,3c10.2,1.1,20.1,2.1,29.8,2.9c7.1,0.5,13.9,1.1,20.8,0.8c3.1-0.1,6.2-0.4,9.3-0.7
				C1157.9,751,1159.2,750.9,1160.5,750.9z"/>
		</g>
	</g>
	<g>
		<g>
			<path class="st55" d="M1194.3,713.9c-0.8,1-2.1,0.5-3.1,0.7c-0.2,0-0.4,0.1-0.6,0.1c-0.6,0.1-1.2,0.2-1.8,0.3
				c-1.3,0.2-2.6,0.4-3.9,0.7c-2.6,0.5-5.3,0.9-8,1.4c-5.4,0.9-10.9,1.8-16.2,2.3c-7.5,1.6-14,2.1-23.5,3.5c-4.1,0.6-8.1,1.5-12,2.1
				c-8.5,1.2-16.7,2.4-24.9,3.6c-8.2,1.1-16.6,2.2-25.5,2.2c-0.9,0-1.9,0-2.8-0.1c-0.9,0-1.7-0.1-2.3,0c-0.3,0.1-0.5,0.1-0.7,0.3
				c-0.2,0.1-0.5,0.4-0.8,0.7c-0.3,0.3-0.7,0.8-1.1,1.3l-1.1,1.4c-1.5,1.9-2.9,3.8-4.1,5.5c-2.8,3.6-5.7,5.9-7.3,5.4
				c0.1-1.9,1.2-4.5,3-7.4c1.8-2.9,4.1-6,6.6-9.1c0.6-0.7,1.3-1.5,2.3-2.1c1.1-0.7,2.4-1,3.5-1.1c1.1-0.1,2.1,0,2.9,0
				c0.9,0,1.7,0,2.6,0c3.5,0,7.3-0.2,11-0.5c7.4-0.6,14.8-1.7,20.9-2.4c9.4-1.2,18.8-2.5,27.9-3.5c9.3-1.1,18.4-2.3,27.4-3.2
				c6.5-0.7,12.9-0.9,19.2-1.5c2.9-0.3,5.8-0.5,8.6-0.8C1191.7,713.8,1193,713.9,1194.3,713.9z"/>
		</g>
	</g>
	<g>
		<g>
			<path class="st55" d="M1187.3,720.5c0.7,1.1-0.2,2.2-0.3,3.2c0,0.2-0.1,0.4-0.1,0.6c-0.1,0.5-0.2,1.1-0.2,1.6
				c-0.2,1.1-0.3,2.3-0.5,3.4c-0.3,2.3-0.6,4.7-0.9,7c-0.6,4.8-1.4,9.6-2.4,14.1c-0.2,1.7-0.4,3.3-0.6,4.8l-0.2,1.2
				c0,0.2-0.1,0.4-0.1,0.7c-0.1,0.3-0.2,0.5-0.3,0.8c-0.5,1-1.4,1.7-2.5,2c-1.1,0.3-2.3,0.2-3.3-0.4c-0.5-0.4-0.8-0.6-1.2-0.9
				c-0.3-0.3-0.7-0.6-1-0.9c-1.4-1.1-2.9-2.4-4.5-3.7c-0.7-0.6-1.4-1.1-2.1-1.6l-0.5-0.4l-0.3-0.2c-0.1-0.1-0.2-0.1-0.2-0.2
				c-0.2-0.1-0.4-0.2-0.7-0.2c-0.5,0-0.9,0.1-1.2,0.4c-0.1,0.1-0.3,0.3-0.3,0.5c-0.2,0.4-0.3,0.7-0.5,1.1
				c-2.8,6.6-4.1,13.6-5.3,20.7c-1.1,7.2-2.2,14.3-3.4,21.7c-0.2,1.5-0.5,3.1-0.8,4.8c-0.7,3.9-1.3,8.6-2.1,12.2
				c-0.9,4-2.8,6.8-4.4,6.9c-1.3-3.1,0.1-9.8,1.1-16.3c0.8-5.5,1.9-12,2.9-18.5c1.1-6.5,2.1-12.9,3.3-18.3c0.9-4.1,1.9-8.3,3.5-12.3
				c0.4-1,0.8-2,1.3-3l0.4-0.7c0-0.1,0.2-0.3,0.3-0.5c0.1-0.2,0.3-0.4,0.4-0.6c0.6-0.8,1.3-1.4,2.2-1.7c1.7-0.8,3.8-0.6,5.4,0.4
				c0.2,0.1,0.4,0.3,0.6,0.4l0.3,0.3l0.6,0.5l1.1,1c1.6,1.3,3.1,2.6,4.7,4c0.8,0.7,1.5,1.3,2.3,1.9c0,0,0.1,0.1,0.1,0.1l0,0
				c0,0,0,0,0.1,0c0,0,0.1,0,0.1,0.1c0.1,0,0.2,0,0.3,0c0.2,0,0.4-0.2,0.4-0.3c0,0.1,0.1-0.6,0.2-1.1l0.3-1.5
				c0.4-1.9,0.8-3.9,1.2-5.8c1.2-5.6,2.8-11,4-16.3c0.6-2.5,1.2-4.9,1.7-7.3C1186.5,723,1186.9,721.7,1187.3,720.5z"/>
		</g>
	</g>
	<g>
		<g>
			<path class="st55" d="M1113.7,793.4c-2,3-3.8,7.3-5.8,10.8c-1.6,2.8-3.4,5.7-5.3,8.6c-1.9,2.9-4,5.7-6.2,8.5
				c-4.5,5.5-9.5,10.7-14.9,14.9c-0.5,0.4-1,0.7-1.5,1.1c-0.5,0.3-1,0.7-1.5,1c-1,0.7-2,1.3-3,1.9c-1,0.5-2.1,1-3.2,1.2
				c-1.1,0.2-2.3,0.1-3.4,0c-4.7-0.9-9.9-2-15.8-3.6c-5.2-1.4-10.1-3.1-14.9-4.8c-10.4-3.6-20.3-7.8-29.8-12.7
				c-4.7-2.5-9.3-5.2-13.4-8.6c-2.1-1.7-4-3.5-5.7-5.6c-0.4-0.5-0.8-1-1.2-1.6l-1.2-1.6c-0.4-0.5-0.7-1.1-0.8-1.5
				c-0.2-0.5-0.2-0.9-0.1-1.3c0.2-0.7,0.8-1.6,1.5-2.6c0.7-1,1.5-1.9,2.3-3c3.6-4.6,8.2-9.9,11.9-14c4-4.5,6.7-8.2,6.5-9.1
				c-3.6,2.3-10.7,9.8-16.9,17.4c-1.3,1.6-2.7,3.3-4.1,5c-0.7,0.9-1.4,1.8-2.1,2.7c-0.7,1-1.6,2.2-1.6,3.8c-0.1,1.7,0.8,3,1.4,4
				c0.7,1,1.4,2,2.3,3c1.6,1.9,3.4,3.7,5.3,5.3c3.8,3.3,8,5.9,12.1,8.2c4.1,2.3,8.2,4.1,11.8,5.8c11.2,5,23,9.3,34.5,12.3
				c5.9,1.6,11.7,2.9,17.7,4c1.5,0.2,3.3,0.3,4.9-0.2c1.6-0.4,3-1.3,4.3-2.1c1.2-0.8,2.5-1.7,3.7-2.6c1.2-0.9,2.4-1.8,3.5-2.8
				c3.3-2.8,6.3-5.9,8.9-9.1c2.7-3.2,5.1-6.6,7.4-10C1106,809,1110.1,801.3,1113.7,793.4z"/>
		</g>
	</g>
	<g>
		<g>
			<path class="st55" d="M1053.7,744.5c-0.8,0.3-1.1,1.2-1.6,1.8c-1.6,1.9-3.9,4-5.2,6.3c-1.3,1.4-2.2,2.9-3.6,4.9
				c-0.6,0.9-1.3,1.6-1.9,2.5c-2.4,3.6-4.5,7.2-6.5,11.1c-0.2,0.4-0.4,0.8-0.6,1.3c-0.5,1-1.3,2.4-1.3,3.8c0,0.8,0.3,1.5,0.8,1.9
				c0.5,0.4,1,0.3,1.3,0.1c0.1-0.6,0.1-1,0.3-1.6c0.1-0.6,0.4-1.4,0.8-2.2c0.7-1.4,1.6-3.1,2.5-4.8c0.9-1.7,1.8-3.3,2.6-4.7
				c1.2-2.1,2.5-4.1,3.6-6.1c1.2-2,2.5-3.9,3.7-5.9c0.9-1.4,1.6-2.9,2.5-4.2C1051.8,747.4,1052.8,746,1053.7,744.5z"/>
		</g>
	</g>
	<g>
		<g>
			<path class="st55" d="M1151.5,751.4c-0.7,0.9-0.7,2.3-1,3.4c-1,3.6-2.6,7.7-3.4,11.6c-1,2.7-1.5,5.1-2.5,8.5
				c-0.4,1.5-1.1,2.9-1.5,4.3c-1.9,6.1-3.8,11.8-5.8,17.9c-0.2,0.6-0.4,1.3-0.6,2c-0.5,1.6-1.2,3.5-1.6,5.1
				c-0.5,1.7-0.2,3.2,0.5,3.6c1.2-0.9,2.1-3.7,3-6.4c1.6-4.5,3.6-10.8,4.9-15.3c1-3.4,2.1-6.8,2.9-10.2c0.9-3.4,1.8-6.7,2.5-10
				c0.5-2.4,0.9-4.8,1.3-7.1C1150.6,756.4,1151.1,753.9,1151.5,751.4z"/>
		</g>
	</g>
	<g>
		<g>
			<path class="st55" d="M1167.8,746.9c1.9-1.6,3.4-4.4,4.7-6.9c1-1.9,2-4,2.7-6.3c0.4-1.1,0.7-2.3,1-3.4c0.2-0.6,0.3-1.2,0.4-1.8
				c0.1-0.6,0.2-1.2,0.3-1.9l0.1-1.1l0.1-0.6c0-0.1,0.1-0.2,0-0.2l-0.2,0.1l-2,0.8c-1.2,0.5-2.3,0.8-3.4,1.3
				c-1.1,0.4-2.3,0.8-3.4,1.1c-1.1,0.3-2.3,0.7-3.4,1.1c-3.3,0.8-6.3,1.4-9.6,2c-3.3,0.6-6.8,1.2-10.9,1.6
				c-3.6,0.4-7.2,0.5-10.7,0.6c-15,0.7-29.2,0.2-44.4,1c-1.6,0.1-3.2,0.2-5,0.3c-2,0.2-4.2,0.3-6.4,0.6c-2.2,0.3-4.6,1-6.3,2.4
				c-1.9,1.5-2.8,3.7-2.7,5.2c0,0.8,0.2,1.4,0.5,1.8c0.2,0.4,0.5,0.6,0.7,0.6c0-0.7,0-1.6,0.4-2.5c0.3-0.9,1-2,2-2.8
				c0.9-0.8,2.3-1.4,3.7-1.8c1.5-0.4,3.1-0.6,4.7-0.7c5.6-0.5,12.2-0.8,18.9-1c6.7-0.1,13.3-0.2,18.7-0.3c8.3-0.2,16.8-0.5,24.9-1.4
				c8.3-1,16.4-2.4,24-4.8c2.8-0.9,5.5-1.9,8.1-3.1l0.7-0.3c0,0,0,0,0,0l0,0.1l0,0.2c0,0.1,0,0.2,0,0.4l0,0.1l0,0.2l-0.1,0.5l-0.1,1
				c-0.1,0.7-0.2,1.3-0.4,2C1173.9,736.9,1171.4,742.3,1167.8,746.9z"/>
		</g>
	</g>
	<g>
		<g>
			<path class="st55" d="M1079.4,800.3c-1,0.2-1.7,1.2-2.5,1.8c-2.6,2-6,3.8-8.6,6.1c-2.2,1.3-3.8,2.6-6.3,4.4
				c-1.1,0.8-2.3,1.4-3.4,2.1c-4.6,3.1-9,6-13.7,9c-0.5,0.3-1,0.7-1.5,1c-1.2,0.8-2.8,1.7-3.9,2.5c-1.2,0.9-1.8,2.1-1.5,2.9
				c1.4,0.2,3.5-1.3,5.6-2.6c3.5-2.2,8.3-5.4,11.6-7.7c2.5-1.8,5.1-3.5,7.5-5.4c2.4-1.9,4.9-3.6,7.1-5.5c1.7-1.4,3.1-2.8,4.7-4.2
				C1076.2,803.3,1077.8,801.9,1079.4,800.3z"/>
		</g>
	</g>
	<g>
		<g>
			<path class="st55" d="M1095.8,799.7c-0.9,0.3-1.5,1.3-2.2,2c-2.3,2.2-5.3,4.3-7.6,6.8c-2,1.4-3.4,2.9-5.6,4.9
				c-1,0.9-2.1,1.5-3,2.3c-4.1,3.4-8.1,6.6-12.3,10c-0.4,0.3-0.9,0.7-1.4,1.1c-1.1,0.9-2.5,1.9-3.5,2.8c-1.1,1-1.5,2.2-1.2,2.9
				c1.3,0.1,3.2-1.6,5.2-3c3.2-2.4,7.5-6,10.5-8.5c2.3-1.9,4.6-3.9,6.7-5.9c2.2-2,4.3-4,6.3-6c1.4-1.5,2.7-3.1,4.1-4.6
				C1093.1,802.9,1094.5,801.3,1095.8,799.7z"/>
		</g>
	</g>
	<g>
		<g>
			<path class="st55" d="M1040.3,782.8c0.3,0.8,0.7,1.6,0.9,2.6c0.2,0.9,0.4,1.9,0.3,2.8c-0.3,2.9-2.2,5.8-4.9,7.5
				c-1.3,0.8-2.9,1.3-4.4,1.6c-1.5,0.3-3.1,0.4-4.6,0.3c-1.2-0.2-2.4-0.4-3.5-0.7c-0.6-0.1-1.1-0.3-1.7-0.5c-0.6-0.2-1-0.3-2-0.8
				c-0.5,0-0.9-0.1-1.2-0.2c-0.1-0.1-0.2-0.1-0.2-0.2c0,0,0-0.1,0-0.1l0,0.1l0,0.2c0,0.1-0.1,0.2-0.1,0.4c0,0.1-0.1,0.3-0.3,0.4
				c0.1,0.4,0.1,0.7,0.1,1.1c0,0.2,0,0.4,0,0.5l0,0.4c0,0.5-0.1,1-0.2,1.5c-0.4,2.3-1.7,4.3-3.3,5.4c-1.8,1.3-4.2,1.6-6,0.7
				c-1.8-0.9-2.9-3-3.8-5.1c-0.9-2.1-1.5-4.4-1.3-6.5c0.2-2.1,1.2-4.3,2.4-6.4c0.5-0.9,1-1.8,1.6-2.7c1.4-2.2,3.4-4.5,5-6.3
				c1.7-2,2.8-3.8,2.4-4.6c-2,0.6-5.4,3.9-8.1,7.6c-1.1,1.5-2.3,3.3-3.4,5.2c-1.1,1.9-2.1,4-2.5,6.5c-0.4,2.5,0.2,4.9,0.9,7
				c0.8,2,1.6,4,2.9,5.6c1,1.2,2.5,2.3,4.1,2.6c1.7,0.3,3.3,0.1,4.8-0.5c1.5-0.6,2.8-1.6,3.8-2.9c1-1.3,1.5-2.7,1.9-4.2
				c0.2-0.7,0.2-1.4,0.3-2.1l0-0.5l0-0.3c0-0.1,0,0,0-0.1l0,0c0,0,0-0.1,0-0.1c0,0,0,0,0.1,0l0,0l0.5,0.2l1.1,0.3
				c0.7,0.2,1.5,0.4,2.2,0.6c1.5,0.3,3,0.5,4.5,0.4c2,0,4.1-0.4,5.9-1.3c0.9-0.4,1.8-0.9,2.6-1.5c0.8-0.6,1.5-1.3,2.1-2.1
				c1.3-1.7,2.1-3.6,2.3-5.7c0.1-1,0-2.1-0.2-3.1C1041.4,784.6,1041,783.6,1040.3,782.8z"/>
		</g>
	</g>
	<g>
		<g>
			<path class="st55" d="M1063.1,795.9c-0.9,0.1-1.7,0.9-2.5,1.4c-2.6,1.5-6,2.8-8.6,4.7c-2.1,0.9-3.8,2.1-6.3,3.5
				c-1.1,0.6-2.3,1.1-3.3,1.6c-2.3,1.3-4.5,2.5-6.6,3.7c-2.2,1.2-4.4,2.5-6.6,3.8c-0.5,0.3-1,0.6-1.5,0.9c-1.2,0.8-2.6,1.6-3.6,2.5
				c-1.1,0.9-1.5,2.2-1.1,2.9c1.3,0.1,3.1-1.4,5-2.6c3.2-2,7.8-4.7,11-6.6c2.5-1.5,5-2.9,7.3-4.4c2.4-1.5,4.8-2.9,7.1-4.4
				c1.7-1.1,3.2-2.3,4.8-3.4C1059.8,798.2,1061.5,797.1,1063.1,795.9z"/>
		</g>
	</g>
	<g>
		<g>
			<path class="st55" d="M1006,798.4c-0.4-0.3-0.6,0.2-0.9,0.3c-0.9,0.4-2.3,0.5-3.1,1.2c-0.8,0.1-1.3,0.6-2.2,1.1
				c-0.4,0.2-0.9,0.3-1.2,0.5c-1.6,0.9-3,1.8-4.4,2.9c-0.1,0.1-0.3,0.2-0.4,0.4c-0.4,0.3-0.9,0.6-1.1,1c-0.3,0.4-0.1,1.2,0.4,1.8
				c0.8,0.4,1.3-0.2,2-0.6c1-0.7,2.4-1.8,3.4-2.6c0.8-0.6,1.6-1.1,2.3-1.6c0.8-0.6,1.5-1,2.3-1.6c0.5-0.4,1-0.9,1.5-1.3
				C1005,799.3,1005.5,798.9,1006,798.4z"/>
		</g>
	</g>
	<g>
		<g>
			<path class="st55" d="M1086.8,833.6c-1.3-0.6-3.1-0.5-4.6-0.7c-4.9-0.8-10.4-2.4-15.6-3.5c-1.8-0.6-3.5-1.1-5.2-1.6
				c-0.9-0.3-1.8-0.5-2.8-0.8c-1-0.3-2-0.7-3.1-1.1c-1.9-0.6-3.7-1.6-5.5-2.3c-3.9-1.6-7.6-3.3-11.3-5.1c-3.7-1.8-7.2-3.8-10.9-6
				c-0.7-0.4-1.5-0.9-2.4-1.4c-1-0.6-2-1.2-3-1.9c-1-0.7-2-1.3-2.9-1.9c-1.9-1.2-3.8-1.7-4.4-1.1c0.4,0.8,1.4,1.8,2.7,2.8
				c1.3,1,2.9,2,4.5,3.1c1.3,0.9,2.8,1.8,4.4,2.7c1.6,0.9,3.2,1.9,4.9,2.8c3.3,1.8,6.7,3.4,9.5,4.7c4.3,2,8.7,3.7,13.1,5.2
				c4.5,1.5,8.9,2.7,13.2,3.7c1.6,0.3,3.2,0.6,4.8,0.9c1.6,0.2,3.2,0.4,4.7,0.7c1.7,0.2,3.3,0.4,5,0.6
				C1083.5,833.3,1085.1,833.4,1086.8,833.6z"/>
		</g>
	</g>
	<g>
		<g>
			<path class="st55" d="M1084.4,814.5c-1-0.4-2.4-0.2-3.6-0.2c-3.7-0.2-8-1.2-12-1.6c-1.4-0.4-2.7-0.6-4-0.9
				c-0.7-0.1-1.4-0.3-2.2-0.4c-0.7-0.2-1.5-0.4-2.4-0.6c-1.5-0.4-2.9-1-4.3-1.4c-3-1-5.9-2-8.8-3.2c-2.9-1.1-5.6-2.5-8.5-3.9
				c-0.6-0.3-1.2-0.6-1.9-0.9c-1.5-0.7-3.2-1.8-4.6-2.5c-1.5-0.8-3-0.9-3.6-0.3c0.6,1.4,3.2,2.8,5.7,4.3c1,0.6,2.2,1.2,3.4,1.9
				c1.2,0.6,2.5,1.2,3.8,1.8c2.6,1.2,5.2,2.2,7.4,3c3.4,1.2,6.8,2.3,10.2,3.1c3.5,0.8,6.9,1.5,10.3,1.9c1.2,0.1,2.5,0.2,3.7,0.2
				c1.2,0,2.4,0,3.6,0.1c1.3,0,2.5,0,3.8,0C1081.9,814.6,1083.1,814.5,1084.4,814.5z"/>
		</g>
	</g>
	<g>
		<g>
			<path class="st55" d="M1088.3,800.5c-0.9-0.4-2-0.2-3.1-0.2c-3.2-0.2-6.9-1-10.4-1.2c-2.4-0.6-4.5-0.7-7.5-1.2
				c-1.3-0.2-2.6-0.7-3.8-0.9c-5.4-1.2-10.4-2.5-15.6-4.1c-0.5-0.2-1.1-0.4-1.7-0.5c-1.4-0.4-3-1.1-4.3-1.4
				c-1.4-0.4-2.7-0.1-3.1,0.6c0.7,1.2,3.1,1.9,5.5,2.8c2,0.7,4.3,1.4,6.7,2.1c2.4,0.7,4.7,1.2,6.7,1.7c3,0.7,6.1,1.3,9,1.7
				c3,0.4,6,0.8,8.9,1c2.1,0.1,4.2,0,6.3,0C1083.9,800.7,1086.1,800.6,1088.3,800.5z"/>
		</g>
	</g>
	<g>
		<g>
			<path class="st55" d="M1102,788.7c0.6-0.4,1.1-1,1.4-1.8c0.3-0.8,0.4-1.6,0.4-2.4c0.1-1.2-0.1-2.6-0.6-3.8
				c-0.5-1.3-1.4-2.4-2.6-3.2c-1.2-0.8-2.6-1.2-3.6-2c-0.5-0.4-0.9-0.8-1.1-1.4c-0.2-0.6-0.2-1.2-0.1-1.8c0.3-0.9,0.7-1.7,1.1-2.5
				c0.4-0.8,0.7-1.8,0.9-2.8c0.3-2,0.3-4.2-0.7-6.6c-0.4-1-1.1-2-1.9-2.8c-0.9-0.8-1.9-1.3-3-1.6c-2.3-0.6-4.7-0.4-6.8,0.2
				c-2.2,0.6-4.2,1.6-6,2.9c-3.6,2.5-6.4,6.1-8.4,10.1c-0.4,0.8-0.8,1.7-1.2,2.7c-0.9,2.2-1.8,4.8-2.3,6.9c-0.5,2.3-0.3,4.2,0.4,4.6
				c1.3-1.4,2.1-5.2,3.4-8.7c1.1-2.9,2.7-6.3,4.9-9.2c2.2-2.9,5.1-5.2,7.7-6.3c2-0.9,4.2-1.4,6.3-1.3c2.1,0.2,4,1,4.9,2.6
				c0.5,0.8,0.8,1.8,0.9,2.9c0.1,1,0.1,2.1,0,3.1c-0.2,1-0.5,1.9-1,3c-0.4,1.1-0.9,2.3-0.8,3.9c0.1,1.1,0.7,2.2,1.6,2.9
				c0.8,0.6,1.7,1,2.4,1.2c0.8,0.3,1.5,0.5,2.1,0.9c0.6,0.3,1.2,0.8,1.6,1.4C1103.8,782.3,1104.1,786.2,1102,788.7z"/>
		</g>
	</g>
	<g>
		<g>
			<path class="st55" d="M1060.8,747.6c-0.3,0.2-0.5,0.6-0.6,0.9c-0.1,0.4-0.2,0.7-0.4,1.1c-1,2.1-2.8,4.1-3.8,6.3
				c-1.1,1.3-1.8,2.7-3,4.5c-0.5,0.8-1.2,1.5-1.7,2.2c-2.2,3.2-4.3,6.2-6.3,9.7c-0.2,0.4-0.4,0.7-0.6,1.2c-0.5,0.9-1.1,2-1.4,3
				c-0.4,1,0,2.1,0.7,2.5c1.1-0.3,1.7-2,2.6-3.5c0.7-1.3,1.5-2.7,2.4-4.2c0.8-1.5,1.7-2.9,2.5-4.1c1.1-1.8,2.4-3.6,3.4-5.5
				c1.1-1.9,2.2-3.6,3.1-5.5c0.7-1.4,1.2-2.8,1.7-4.1C1059.9,750.7,1060.5,749.2,1060.8,747.6z"/>
		</g>
	</g>
	<g>
		<g>
			<path class="st55" d="M1081.4,763.5c-0.6-0.5-1.6-0.3-2.3-0.4c-2.5-0.4-5.3-1.3-8-1.5c-1.8-0.6-3.5-0.6-5.8-1.1
				c-1-0.2-2-0.6-3-0.7c-4.2-0.8-8.1-1.6-12.3-2.5c-0.4-0.1-0.9-0.2-1.4-0.3c-1.1-0.2-2.4-0.5-3.5-0.6c-1.2-0.1-2.2,0.4-2.4,1.2
				c0.6,1,2.6,1.3,4.4,1.7c3.1,0.7,7.5,1.5,10.5,2c2.3,0.4,4.7,0.8,7,1.1c2.3,0.3,4.6,0.6,6.9,0.8c1.6,0.1,3.3,0.1,4.8,0.2
				C1078,763.4,1079.7,763.5,1081.4,763.5z"/>
		</g>
	</g>
	<g>
		<g>
			<path class="st55" d="M1065.5,775.8c-0.4-0.5-1-0.3-1.5-0.5c-1.6-0.4-3.3-1.4-5-1.5c-1.1-0.6-2.2-0.6-3.7-1
				c-0.6-0.2-1.2-0.5-1.8-0.7c-2.6-0.8-5.1-1.4-7.8-2.1c-0.3-0.1-0.6-0.1-0.9-0.2c-0.7-0.1-1.5-0.4-2.2-0.5
				c-0.8-0.1-1.5,0.5-1.7,1.3c0.3,1,1.6,1.1,2.7,1.5c2,0.6,4.7,1.2,6.7,1.6c1.5,0.3,3,0.7,4.4,1c1.5,0.3,2.9,0.6,4.4,0.8
				c1,0.1,2.1,0.1,3.1,0.2C1063.4,775.6,1064.4,775.7,1065.5,775.8z"/>
		</g>
	</g>
	<g>
		<g>
			<path class="st55" d="M1093.2,744.6c0.4,0.1,0.3-0.2,0.5-0.4c0.4-0.4,1.3-0.7,1.5-1.3c0.5-0.2,0.6-0.6,1-1.1
				c0.2-0.2,0.5-0.3,0.7-0.5c0.7-0.8,1.3-1.7,1.9-2.6c0.1-0.1,0.1-0.2,0.2-0.3c0.1-0.3,0.4-0.5,0.4-0.8c0-0.3-0.5-0.8-1.3-1.1
				c-0.9-0.2-1,0.3-1.2,0.7c-0.4,0.6-0.9,1.5-1.3,2.2c-0.3,0.5-0.6,0.9-0.8,1.4c-0.2,0.5-0.6,0.9-0.8,1.4c-0.2,0.4-0.2,0.8-0.3,1.2
				C1093.5,743.7,1093.3,744.2,1093.2,744.6z"/>
		</g>
	</g>
	<g>
		<g>
			<path class="st55" d="M1135.4,741.3c-1-0.4-2.1,0-3.1,0.1c-3.3,0.1-7.2-0.2-10.7,0.1c-2.5-0.2-4.7,0-7.9-0.1
				c-1.4,0-2.7-0.2-4-0.3c-5.6-0.2-11-0.4-16.6-0.8c-0.6,0-1.2-0.1-1.9-0.1c-1.5-0.1-3.3-0.3-4.7-0.3c-1.5,0-2.8,0.6-3,1.4
				c1,1,3.6,1,6.1,1.3c4.2,0.4,10.1,0.6,14.2,0.7c3.1,0.1,6.3,0.1,9.4,0c3.1-0.1,6.2-0.2,9.2-0.4c2.2-0.2,4.3-0.5,6.4-0.8
				C1131,742,1133.2,741.7,1135.4,741.3z"/>
		</g>
	</g>
	<g>
		<g>
			<path class="st55" d="M1151.7,751.4c0.2-0.8-0.5-1.6-0.9-2.3c-0.7-1.1-1.7-2.2-3-3.1c-1.3-0.8-2.8-1.4-4.2-1.5
				c-1-0.3-2-0.4-3-0.5c-1-0.1-2.2,0.1-2.5-0.7c-0.2-0.3-0.1-0.8-0.1-1.4c0-0.5,0-1.2-0.3-1.9c-0.4-0.8-1.1-1.2-1.7-1.5
				c-0.6-0.3-1.2-0.5-1.8-0.6c-1.1-0.3-2.3-0.5-3.5-0.6c-1.2,0-2.7,0.2-3.9,1c-0.6,0.4-1.1,1-1.5,1.6c-0.4,0.6-0.6,1.2-0.8,1.8
				c-0.2,0.5-0.3,1-0.4,1.5c-0.3,1.2-0.7,2.6-0.9,3.7c-0.2,1.2,0.2,2.3,1,2.6c1.1-0.6,1.5-2.7,2-4.7c0.5-1.6,0.9-3.7,1.9-4.5
				c1-0.9,2.9-0.8,4.4-0.6c1.1,0.2,2.5,0.5,3,0.9c0.2,0.2,0.3,0.3,0.4,0.8c0.1,0.5,0,1.1,0.3,2c0.1,0.4,0.4,1,0.9,1.4
				c0.4,0.4,1,0.6,1.4,0.7c0.9,0.2,1.5,0.1,2.1,0.1c1.2,0,2.3,0.1,3.4,0.3c1.6,0.3,3.2,0.6,4.5,1.5
				C1149.9,748.5,1151.1,749.8,1151.7,751.4z"/>
		</g>
	</g>
	<g>
		<g>
			<path class="st55" d="M1141,739.9c0.5,0.4,0.9,0,1.4,0c1.5-0.1,3.2,0.3,4.8-0.1c1.2,0.2,2.1-0.1,3.5-0.2c0.6,0,1.2,0.1,1.8,0.1
				c2.5-0.1,4.9-0.3,7.4-0.5c0.3,0,0.5-0.1,0.8-0.1c0.7-0.1,1.5-0.1,2.1-0.2c0.7-0.2,1.1-0.9,1.1-1.7c-0.6-0.8-1.7-0.6-2.8-0.5
				c-1.9,0.1-4.5,0.4-6.3,0.6c-1.4,0.2-2.8,0.3-4.1,0.5c-1.4,0.2-2.7,0.4-4,0.6c-1,0.2-1.9,0.6-2.8,0.8
				C1142.9,739.4,1142,739.6,1141,739.9z"/>
		</g>
	</g>
	<g>
		<g>
			<path class="st55" d="M1110.4,747.2c0.4,0.1,0.3-0.2,0.5-0.4c0.4-0.5,1.3-0.7,1.5-1.4c0.5-0.2,0.6-0.7,1-1.1
				c0.2-0.2,0.5-0.3,0.6-0.5c0.7-0.9,1.2-1.7,1.8-2.7c0.1-0.1,0.1-0.2,0.1-0.3c0.1-0.3,0.3-0.5,0.4-0.8c0-0.3-0.5-0.8-1.3-1.1
				c-0.9-0.1-1,0.3-1.2,0.7c-0.4,0.6-0.9,1.6-1.2,2.2c-0.3,0.5-0.6,1-0.8,1.5c-0.2,0.5-0.5,1-0.7,1.5c-0.1,0.4-0.1,0.8-0.3,1.2
				C1110.6,746.3,1110.5,746.8,1110.4,747.2z"/>
		</g>
	</g>
	<g>
		<g>
			<path class="st55" d="M1152.3,751.8c0.5,0,0.6-0.5,0.8-0.8c0.8-0.9,2-1.8,2.5-3c0.7-0.7,1-1.4,1.5-2.5c0.3-0.4,0.6-0.8,0.9-1.3
				c0.9-1.9,1.6-3.8,2.1-5.9c0-0.2,0.1-0.5,0.1-0.7c0.1-0.6,0.3-1.2,0.2-1.8c0-0.6-0.7-1.1-1.5-1.2c-0.9,0.3-0.9,1.2-1.1,2.1
				c-0.2,0.7-0.4,1.6-0.6,2.4c-0.2,0.8-0.5,1.7-0.7,2.3c-0.3,1-0.8,2-1.1,3c-0.4,1-0.9,1.9-1.3,2.9c-0.3,0.7-0.5,1.5-0.8,2.1
				C1153,750.4,1152.7,751.1,1152.3,751.8z"/>
		</g>
	</g>
	<g>
		<g>
			<path class="st55" d="M1106.2,784.7c0.7-0.4,0.8-1.2,1.2-1.9c1.1-2,2.8-4.2,3.7-6.5c1-1.5,1.5-2.9,2.5-4.9c0.4-0.9,1-1.6,1.4-2.5
				c1.7-3.6,3.2-7,4.7-10.7c0.2-0.4,0.3-0.8,0.5-1.2c0.3-1,0.9-2.2,1.1-3.1c0.2-1.1-0.2-2.1-0.9-2.4c-1.1,0.5-1.5,2.2-2.1,3.8
				c-1.1,2.7-2.6,6.5-3.7,9.1c-0.8,2-1.7,4-2.5,6c-0.8,2-1.6,3.9-2.5,5.8c-0.6,1.4-1,2.8-1.5,4.2
				C1107.4,781.8,1106.8,783.2,1106.2,784.7z"/>
		</g>
	</g>
	<g>
		<g>
			<path class="st55" d="M1123.3,788.4c0.8-0.2,1.1-1,1.6-1.6c0.8-0.9,1.6-1.9,2.4-3c0.8-1.1,1.4-2.3,1.8-3.6c1-1.6,1.4-3.2,2.3-5.3
				c0.4-0.9,1-1.7,1.4-2.6c0.9-1.9,1.6-3.8,2.3-5.8c0.7-1.9,1.2-3.9,1.8-5.9c0.1-0.4,0.2-0.9,0.3-1.4c0.2-1.1,0.6-2.4,0.6-3.5
				c0-0.6-0.2-1.2-0.5-1.6c-0.3-0.4-0.7-0.6-1.1-0.6c-0.2,0.2-0.3,0.5-0.4,0.7c-0.1,0.3-0.2,0.6-0.3,1c-0.2,0.7-0.3,1.6-0.5,2.5
				c-0.7,2.9-1.8,7-2.8,9.8c-0.4,1.1-0.7,2.1-1.1,3.1c-0.4,1-0.9,2.1-1.3,3.2c-0.8,2.1-1.5,4.2-2.2,6.2c-0.5,1.5-1,2.9-1.7,4.2
				C1125.2,785.8,1124.3,787.1,1123.3,788.4z"/>
		</g>
	</g>
	<g>
		<g>
			<path class="st55" d="M1144.2,763.2c-0.8-0.4-1.8,0-2.7,0c-2.8,0-6.1-0.5-9.2-0.2c-2.2-0.3-4-0.2-6.7-0.3
				c-1.2-0.1-2.3-0.3-3.4-0.4c-4.8-0.4-9.3-0.7-14.2-1.3c-0.5-0.1-1-0.1-1.6-0.1c-1.3-0.1-2.8-0.4-4-0.4c-1.3,0-2.4,0.5-2.6,1.3
				c0.8,1,3.1,1.1,5.2,1.4c3.6,0.5,8.6,0.9,12.1,1.1c2.7,0.2,5.4,0.3,8,0.3c2.7,0,5.3,0,7.8-0.1c1.9-0.1,3.7-0.4,5.5-0.5
				C1140.4,763.7,1142.3,763.5,1144.2,763.2z"/>
		</g>
	</g>
	<g>
		<path class="st31" d="M1106.9,769.2c4.3,5.7,10.1,10.3,16.6,13.1c1.8,0.8,3.8,1.5,5.7,1.2c1.7-0.2,3.1-1.2,4.5-2.2
			c2.1-1.7,4.1-4.1,3.8-6.8c-0.3-2.4-2.3-4.3-4.6-5.2c-2.3-0.8-4.8-0.8-7.2-0.7c-5.8,0.1-11.6,0.2-17.4,0.4"/>
		<g>
			<path class="st55" d="M1108.4,768.7c1.3,0.4,2.9,0.1,4.4,0.1c4.6,0,10.1,0.4,15,0.2c1.7,0.2,3.3,0.3,4.9,0.9
				c0.8,0.3,1.5,0.7,2.2,1.2c0.7,0.6,1.3,1.3,1.7,2.2c0.3,0.8,0.4,1.6,0.2,2.4c-0.2,0.8-0.6,1.5-1,2.2c-1,1.5-2.5,2.7-4,3.6
				c-0.8,0.5-1.6,0.8-2.3,0.9c-0.8,0.2-1.6,0.1-2.4-0.1c-1.7-0.4-3.4-1.2-5.1-2.1c-1.7-0.9-3.3-1.9-4.9-3c-0.6-0.5-1.3-1-2-1.5
				c-1.6-1.2-3.3-3-4.7-4.4c-1.5-1.5-3-2.3-3.7-2c0.2,1.8,2.7,4.6,5.4,7c2.2,2.1,5.2,4.2,8.4,5.9c1.6,0.8,3.2,1.6,4.9,2.1
				c0.9,0.3,1.8,0.4,2.7,0.5c0.9,0,1.8-0.1,2.6-0.4c1.2-0.4,2.3-1,3.3-1.7c1-0.7,1.9-1.5,2.7-2.4c0.8-0.9,1.5-2,1.9-3.2
				c0.4-1.2,0.5-2.7,0.1-4c-0.4-1.3-1.2-2.4-2.2-3.2c-0.9-0.8-2-1.5-3.2-1.9c-2.3-0.8-4.6-0.8-6.7-0.7c-3.1,0.1-6,0.5-8.9,0.6
				C1114.6,768.3,1111.5,768.5,1108.4,768.7z"/>
		</g>
	</g>
	<g>
		<path class="st39" d="M1129.1,775.3c0.8-0.4,1-1.7,0.5-2.5c-0.5-0.8-1.5-1.2-2.4-1.2c-1.5,0-2.9,0.8-3.6,2.1c-0.7,1.3-0.4,3,0.6,4
			c1,1,2.8,1.2,4,0.3c1.1-0.8,1.5-2.5,1.1-3.8s-1.6-2.4-2.9-2.8"/>
	</g>
	<g>
		<g>
			<path class="st55" d="M73.8,530.3c3.7,0.7,7.6,1.3,11.7,1.9c2.1,0.3,4.1,0.5,6.3,0.8c2.1,0.2,4.3,0.5,6.5,0.6
				c4.4,0.3,8.8,0.6,13.1,0.9c2.2,0.1,4.4,0.3,6.5,0.4c2.2,0.2,4.3,0.2,6.4,0.3c53.3,3.4,115.9,3.5,172.8-1.2
				c7.5-0.4,14.8-0.8,22.1-1.4c3.6-0.3,7.2-0.6,10.8-0.9c1.8-0.2,3.6-0.3,5.4-0.5c1.8-0.2,3.7-0.4,5.5-0.5l1.9-0.2l0.9-0.1l0.5-0.1
				l0.2,0c0.1,0,0.1-0.1,0.1-0.2c0.3-1.2,0.7-2.5,1-3.7c0.2-1,0.4-1.9,0.5-2.9c0-0.5,0.1-1,0.1-1.5l0-1.5c-0.1-2-0.4-4-1.1-6
				c-0.7-1.9-1.8-3.8-3.2-5.3c-2.8-3.1-6.5-5.2-10.3-6.6c-1.9-0.7-3.9-1.2-5.9-1.7c-0.5-0.1-1-0.2-1.5-0.3l-0.5-0.1l-0.4-0.1
				c-0.6-0.1-1.2-0.1-1.7-0.2c-0.1,0,0-0.1,0-0.1l0-0.2l0.1-0.3l0.2-0.6c0.1-0.4,0.2-0.8,0.3-1.2l0.2-1l0.2-1.1
				c0.1-0.8,0.2-1.5,0.4-2.3c0.4-3.1,0.6-6.2,0.5-9.4c-0.1-3.2-0.5-6.5-1.4-9.8c-0.9-3.3-2.3-6.5-4.4-9.5c-2.8-3.9-6.6-7-10.9-9
				c-4.4-2-9.2-2.6-13.9-2.3c-4.6,0.3-9.1,1.4-13.4,3c-1.1,0.4-2.1,0.8-3.1,1.3c-0.5,0.2-1,0.4-1.5,0.7l-1,0.5
				c-0.8,0.4-1.4,0.7-2.1,1.1l-0.1,0.1c0,0,0-0.1,0-0.1l0-0.3l0.1-0.6c0.1-0.4,0.1-0.7,0.2-1.1c0.1-0.4,0.1-0.4,0.2-1.8
				c0.1-1,0.2-2.1,0.3-3.1c0.9-11.6,0.7-23.2-1-34.6c-1.7-11.4-5.1-22.6-10.7-32.9c-2.8-5.1-6.3-9.8-10.3-14.1c-2-2.2-4.2-4.1-6.4-6
				l-3.5-2.6c-0.6-0.5-1.2-0.8-1.8-1.2l-1.9-1.1c-5-3-10.4-5.4-16-6.9l-2.1-0.6c-0.7-0.2-1.4-0.3-2.1-0.5l-4.2-0.9
				c-1.4-0.3-2.9-0.4-4.3-0.6c-1.4-0.2-2.9-0.4-4.3-0.5c-2.9-0.2-5.7-0.5-8.6-0.4l-4.3,0c-1.4,0-2.8,0.1-4.3,0.2l-4.3,0.2l-4.2,0.5
				l-4.2,0.5l-4.2,0.7c-11.3,2-22.5,5.7-32.7,11.6c-5,3.1-9.9,6.4-14.2,10.5l-1.6,1.5c-0.6,0.5-1,1.1-1.6,1.6l-3.1,3.2
				c-1,1.1-1.9,2.3-2.8,3.4c-0.5,0.6-0.9,1.1-1.4,1.7l-1.3,1.8c-3.5,4.7-6.5,9.9-9.1,15.2c-2.6,5.3-4.7,10.9-6.4,16.6
				c-2.9,9.3-4.8,19.6-5.7,30.4c-0.3,3.6-0.5,7.3-0.5,11c0,1.9,0,3.8,0,5.7l0,0.7l0,0l0,0.1l-0.1,0l0,0l0,0l-0.4-0.1
				c-0.6-0.1-1.3-0.1-1.9-0.2c-2.6-0.2-5.2-0.1-7.8,0.2c-5.1,0.7-10.2,2.3-14.6,4.9c-4.5,2.6-8.3,6.2-11,10.4
				c-1.4,2.1-2.5,4.3-3.4,6.5c-0.8,2.2-1.4,4.5-1.8,6.7c-0.6,3.4-0.6,6.8-0.3,9.9c0.3,3.2,1,6.3,2.1,9c1.1,2.8,2.6,5.2,4.2,7.3
				c1.7,2.1,3.6,3.7,5.4,4.9c3.7,2.5,7.2,3.4,9.7,3.8c2.6,0.3,4.3,0,4.8-0.5c-1.9-0.7-4.3-1.7-6.6-3.1c-2.4-1.4-4.8-3.2-6.9-5.6
				c-2.1-2.4-3.9-5.4-4.9-8.8c-0.5-1.7-0.9-3.6-1.1-5.5c-0.2-1.9-0.2-4-0.1-6c0.2-2,0.4-4.1,1-6.1c0.5-2,1.3-4,2.2-5.9
				c1.9-3.8,4.8-7.1,8.5-9.6c3.6-2.5,8-4.2,12.5-5c2.3-0.4,4.6-0.5,6.9-0.4c0.6,0,1.1,0.1,1.7,0.1c0.3,0,0.6,0.1,0.9,0.1l0.8,0.1
				c0.3,0,0.6,0.1,0.9,0.1c2.4,0.5,4.8,1.1,7.2,1.6c0.1,0,0.2,0,0.3,0.1c-0.1-2-0.4-4.1-0.5-6.1c0-1-0.1-2-0.2-3.1l0-1.8
				c0-2.1,0-4.3,0.1-6.4c0.1-4.3,0.5-8.8,1-13.2c0.2-2.2,0.6-4.5,0.9-6.7c0.4-2.2,0.8-4.5,1.3-6.8c0.9-4.5,2.2-9,3.6-13.5
				c3-8.9,7-17.7,12.6-25.5c5.5-7.8,12.3-14.9,20.3-20.2c8-5.4,16.9-9.2,26.1-11.7c2.3-0.6,4.6-1.3,7-1.6c1.2-0.2,2.3-0.4,3.5-0.6
				l1.8-0.3c0.6-0.1,1.2-0.1,1.8-0.2c2.4-0.3,4.7-0.6,7.1-0.8c2.3-0.1,4.7-0.3,7-0.4c9.3-0.2,18.3,0.6,26.6,2.8
				c8.2,2.2,15.7,5.9,21.7,10.6c0.9,0.6,1.6,1.3,2.4,2c0.8,0.7,1.6,1.3,2.3,2.1c1.4,1.5,3,2.9,4.2,4.6c2.7,3.1,5,6.7,7.1,10.3
				c4,7.4,6.9,15.5,8.6,23.9l0.6,3.1l0.5,3.2l0.3,1.6l0.2,1.6l0.4,3.2c0.4,4.3,0.7,8.6,0.7,12.8c0.1,4.3-0.1,8.6-0.4,12.8l-0.2,3.2
				l-0.5,5c-0.6,4.4-1.2,8.8-1.8,13.1c1.8-1.3,3.7-2.5,5.5-3.8c0.9-0.6,1.8-1.2,2.7-1.8c0.9-0.5,1.7-1.1,2.5-1.5l1.3-0.7l1.1-0.6
				l0.6-0.3l0.4-0.2l0.6-0.3c0.8-0.4,1.6-0.7,2.4-1.1c3.2-1.3,6.6-2.4,9.9-3c1.7-0.3,3.3-0.5,4.9-0.5c1.6,0,3.2,0.1,4.7,0.3
				c1.5,0.2,3,0.7,4.4,1.3c1.4,0.6,2.7,1.4,4,2.3c5.3,3.7,8.4,10,9.3,16.8c0.5,3.4,0.5,6.9,0.2,10.4c-0.2,1.7-0.4,3.5-0.7,5.2
				l-0.1,0.6l-0.1,0.3l-0.2,0.7c-0.2,0.9-0.4,1.8-0.7,2.7c-0.5,1.8-1,3.6-1.5,5.4c2.2,0.1,4.6,0.1,6.7,0.4c0.5,0.1,1.1,0.1,1.6,0.2
				l1,0.2c0.5,0.1,1,0.2,1.5,0.3c1.9,0.4,3.8,0.9,5.6,1.7c3.5,1.4,6.6,3.5,8.4,6.2c1.8,2.7,2.2,6.1,1.6,9.7l-0.2,1.2
				c0,0.1,0,0.1,0,0.1c0,0.1-0.1,0.1-0.2,0.1c-1.9,0.2-3.8,0.4-5.6,0.6c-16.9,1.7-33.7,3.1-50.4,4.3c-17.5,1.3-34.8,2.3-51.9,3.2
				c-4.3,0.2-8.5,0.4-12.8,0.5c-4.3,0.2-8.5,0.4-12.7,0.5c-4.2,0.1-8.5,0.2-12.7,0.3l-6.3,0.1l-6.3,0
				C145.2,535.2,109.4,534.1,73.8,530.3z"/>
		</g>
	</g>
	<g>
		<g>
			<path class="st55" d="M271.8,290.6c4.3,0.1,9.1-0.2,14-0.6c5-0.4,10-0.8,14.8-1.1c15.2-0.8,31.7-1.3,48.4-1.3
				c16.7-0.1,33.7,0.1,49.9,0.3c5.8,0.3,11.4,0.6,17,0.8c2.8,0.1,5.6,0.2,8.4,0.3c1.5,0,3-0.1,4.5-0.5c1.5-0.4,2.9-1.1,4.2-2.1
				c1.3-1,2.3-2.3,3-3.7c0.7-1.4,1.2-3,1.5-4.5c0.6-3.1,0.5-6.3,0-9.5c-0.1-0.8-0.2-1.6-0.4-2.4l-0.3-1.2l-0.1-0.3
				c0-0.1-0.1-0.3-0.1-0.4l-0.3-0.6c-0.7-1.6-1.6-3.1-2.8-4.5c-2.4-2.8-5.7-4.7-9.4-5.8c-2.4-0.7-4.9-1.1-7.3-1.2
				c-0.6,0-1.2,0-1.8-0.1l-0.9,0l-0.7,0c-0.6,0-1.1,0.1-1.7,0.1c0,0-0.1,0-0.1,0l0-0.1l0.1-0.2l0.1-0.3l0.3-0.6
				c0.1-0.2,0.2-0.4,0.2-0.6l0.4-1.4c0.3-0.9,0.5-1.9,0.7-2.9l0.3-1.5c0.1-0.5,0.1-1,0.2-1.5c0.1-1,0.3-2,0.3-3c0-1,0.1-2,0.1-3
				c-0.1-2-0.2-3.9-0.6-5.8c-1.1-6.7-4.2-13-8.4-18.2c-4.2-5.2-9.7-9.3-15.5-12.3c-11.6-5.9-24.3-9.3-37.3-10.2
				c-12.9-0.9-26.1,1.2-38.4,5.8c-1.5,0.6-3,1.3-4.5,1.9c-1.5,0.6-3,1.5-4.4,2.2c-3,1.5-5.8,3.3-8.6,5.2c-5.4,4-10.3,9-13.8,15
				c-1.5,2.4-2.8,5.1-3.8,7.9c-1.1,2.8-1.9,5.8-2.4,8.9c-0.6,3.4-0.9,7-0.9,10.6c0,1.8,0.1,3.7,0.3,5.5c0,0.5,0.1,0.9,0.2,1.4
				l0.1,0.7c0,0,0,0,0,0c0,0,0,0,0,0l0,0l0,0l0,0l0,0c0,0,0,0,0,0l-0.1,0c-1.1,0.1-2.3,0.3-3.4,0.6c-2.2,0.6-4.3,1.7-6,3.1
				c-3.5,2.8-5.6,6.5-7,9.9c-0.4,0.9-0.7,1.8-0.9,2.8c-0.1,0.5-0.2,0.9-0.4,1.4c-0.1,0.5-0.1,1-0.2,1.4c-0.1,0.5-0.1,0.9-0.2,1.4
				c0,0.5,0,0.9,0.1,1.4c0,0.5,0,0.9,0.1,1.4c0.1,0.4,0.2,0.9,0.3,1.3c0.8,3.5,3,6.1,5,7.6c2.1,1.5,4,2.2,5.4,2.5
				c1.5,0.3,2.5,0.2,2.8-0.1c-1.8-1-4.3-2.5-6.3-4.7c-1-1.1-1.9-2.5-2.4-4.1c-0.6-1.5-0.7-3.3-0.5-5.2c0.2-0.9,0.2-1.9,0.6-2.8
				c0.2-0.5,0.3-1,0.5-1.4c0.2-0.5,0.4-1,0.6-1.5c0.8-2,2-3.8,3.4-5.4c1.4-1.6,3.1-2.9,5.1-3.7c1-0.4,2-0.7,3.1-0.8l0.8-0.1l1.8,0
				c1.3,0.1,2.7,0.3,3.9,0.5c-0.2-1.2-0.6-2.6-0.9-3.8c-0.1-0.6-0.3-1.3-0.4-1.9l-0.1-0.7l-0.1-0.5c-0.2-1.3-0.3-2.6-0.3-3.9
				c-0.2-4.6,0.2-9.5,1.3-14.4c1.1-4.9,3.2-9.7,6-14.1c2.9-4.4,6.6-8.4,10.9-11.6c2.1-1.7,4.5-3.1,6.9-4.5l3.7-1.9
				c0.6-0.3,1.2-0.7,1.9-0.9l1.9-0.8l1.9-0.8c0.6-0.3,1.3-0.5,1.9-0.8c1.3-0.5,2.6-0.9,3.9-1.4c1.3-0.4,2.7-0.8,4-1.1
				c0.7-0.2,1.3-0.4,2-0.5l2-0.4l2-0.4l1-0.2l1-0.1c1.4-0.2,2.7-0.4,4-0.6c1.3-0.1,2.7-0.2,4-0.3c1.3-0.1,2.7-0.2,4-0.2
				c2.7-0.1,5.3,0,7.8,0.1c1.3,0.1,2.6,0.2,3.8,0.4c0.6,0.1,1.3,0.1,1.9,0.2c0.6,0.1,1.2,0.2,1.9,0.3c4.9,0.7,9.6,1.9,14,3.2
				c1.5,0.5,2.9,1,4.4,1.5c1.4,0.6,2.9,1.1,4.3,1.7l4.2,2l4,2.2c5.2,3.2,9.6,7.4,12.9,12.3c0.4,0.6,0.8,1.2,1.2,1.9l1,2l0.5,1
				c0.1,0.3,0.3,0.7,0.4,1l0.8,2.1c0.9,2.8,1.6,5.7,1.7,8.6c0.2,1.5,0.1,2.9,0.1,4.4c0,0.7-0.1,1.5-0.2,2.2
				c-0.1,0.7-0.1,1.5-0.3,2.2l-0.4,2.1c-0.2,0.7-0.4,1.4-0.6,2.1l-0.2,0.8c-0.1,0.4-0.3,0.8-0.4,1.1l-0.9,2.2
				c-0.6,1.5-1.1,2.9-1.7,4.4c1.8-0.3,3.7-0.7,5.4-1l1.3-0.2l1.2-0.1c0.2,0,0.4,0,0.6,0l0.3,0l0.6,0c1.5,0,3,0,4.4,0.2
				c3.2,0.4,6.4,1.3,8.9,3c1.3,0.8,2.4,1.9,3.3,3c0.5,0.6,0.9,1.2,1.2,1.9c0.2,0.3,0.4,0.7,0.5,1l0.2,0.4l0.1,0.4
				c0.7,3.2,1.1,6.6,0.9,9.7c-0.2,3.1-1.2,6.1-3.1,7.8c-1,0.9-2.2,1.4-3.5,1.8l-0.5,0.1l-0.5,0.1c-0.4,0-0.7,0.1-1.1,0.1
				c-0.4,0-0.7,0-1.2,0l-1.3,0c-3.4,0-6.9-0.2-10.4-0.3c-6.9-0.2-13.8-0.4-20.7-0.5c-20.1-0.2-39.5,0.5-58.8,1.4
				C312.5,287,292.2,288.5,271.8,290.6z"/>
		</g>
	</g>
	<g>
		<g>
			<path class="st55" d="M1411.6,429.3c-6.2-2.4-13.7-3.9-21.4-4.9c-7.7-1-15.8-1.6-23.3-2c-11.9-0.6-24.4-0.6-37.2-0.1
				c-3.2,0.2-6.4,0.3-9.6,0.5c-3.2,0.2-6.5,0.5-9.7,0.7c-3.2,0.2-6.5,0.5-9.8,0.7c-1.6,0.1-3.3,0.2-4.9,0.4
				c-1.6,0.1-3.3,0.2-4.9,0.2c-13.1,0.7-26.4,0.7-39.5,0.3c-13.1-0.4-26.2-1.1-38.9-2.2c-9.1-1-17.8-2.1-26.4-3.4
				c-2.2-0.3-4.3-0.7-6.5-1l-3.2-0.6l-2.9-0.5c-0.3-0.3-1.1-1.4-1.7-2.2c-0.6-0.9-1.2-1.8-1.8-2.7c-1.2-1.8-2.3-3.8-3.4-5.7
				c-2.1-3.9-3.9-8.1-5.2-12.5c-1.3-4.4-2.2-9.1-2.3-14c-0.1-4.8,0.5-9.9,2.3-14.7c1.7-4.9,4.4-9.6,8.1-13.9
				c6.4-7.3,14.2-13.4,22.9-17.2c4.4-1.8,8.9-3.1,13.5-3.5c4.6-0.5,9.2-0.2,13.7,0.7c2.3,0.5,4.5,1.1,6.6,1.9
				c1.1,0.4,2.1,0.8,3.1,1.3c1.7,0.8,3.5,2,5.3,3.1c0.2-0.9,0.3-2,0.5-3c0.2-1.1,0.4-1.9,0.5-2.9l0.1-0.6l0.1-0.4l0.2-0.9
				c0.1-0.6,0.3-1.1,0.4-1.7c0.6-2.3,1.3-4.5,2-6.7c1.5-4.4,3.2-8.8,5.2-13c4-8.4,9.1-16.2,15.4-22.9c12.4-13.6,30.1-21.4,48.4-22.5
				c9.1-0.6,18.4,0.1,27.4,1.8c9.1,1.7,17.9,4.4,26,8.7c8.1,4.3,15,10.5,20.2,18c2.5,3.8,4.5,8,6.1,12.3c1.5,4.4,2.6,8.9,3.3,13.6
				c0.5,4.1,0.8,8.3,0.8,12.7c0,4.4-0.3,8.9-0.9,13.5c-0.5,3.9-1.2,7.9-2.2,11.9c-0.5,2-1,4.1-1.6,6.1c-0.3,1-0.6,2-0.9,3l-0.4,1.1
				l-0.5,1.5l-1.1,3.1l2.8,0.6c0.9,0.2,1.8,0.5,2.7,0.7c0.9,0.2,1.7,0.5,2.6,0.8c1.7,0.6,3.4,1.2,5.1,1.8c3.3,1.3,6.6,2.8,9.5,4.6
				c6,3.5,11,8,13.6,13.1c0.3,0.5,0.5,1.1,0.8,1.7c0.2,0.6,0.5,1.1,0.6,1.7c0.2,0.6,0.3,1.1,0.5,1.7c0.1,0.6,0.2,1.2,0.3,1.7
				l0.1,0.9l0,0.9c0,0.6,0,1.1,0.1,1.7c-0.1,1.1-0.2,2.2-0.3,3.3c-0.2,1.1-0.4,2.1-0.7,3.2c-0.3,1-0.6,2-0.9,3
				c-0.8,1.9-1.4,3.7-2.2,5.2c-3.1,6.4-5.8,10.3-5.7,11.6c2.6-2.6,6.2-6.3,9.2-11.5c0.7-1.3,1.5-2.7,2.2-4.2
				c0.6-1.6,1.3-3.1,1.7-4.8c0.1-0.4,0.2-0.9,0.3-1.3l0.2-0.7l0.1-0.7c0.1-0.9,0.3-1.8,0.4-2.8c0-1,0-1.9,0-2.9c0-1-0.2-2-0.3-3
				c-0.6-4-2.4-8-5-11.4c-2.6-3.4-5.9-6.3-9.5-8.7c-3.6-2.5-7.5-4.5-11.5-6.2c-2-0.9-4.1-1.6-6.2-2.3c-1-0.4-2.1-0.7-3.2-1l-0.8-0.2
				l0.1-0.4l0.4-1.2l0.4-1.3c2.2-7.4,3.8-15.4,4.7-23.8c0.8-8.4,0.8-17.2-0.7-26.1c-1.4-8.9-4.7-17.7-9.9-25.6
				c-5.3-7.7-12.5-14.2-20.7-18.8c-8.2-4.7-17.1-7.5-26-9.3c-8.9-1.8-17.9-2.7-26.7-2.6c-8.8,0.2-17.4,1.6-25.4,4.3
				c-7.9,2.7-15.1,6.6-21.1,11.3c-4.8,3.6-9.1,7.8-12.9,12.5c-3.8,4.6-7.1,9.6-10,14.8c-2.9,5.2-5.3,10.7-7.3,16.3
				c-1,2.8-1.9,5.6-2.6,8.5c-0.4,1.4-0.7,2.9-1.1,4.3c-0.2,1-0.1,0.6-0.1,0.7l0,0c-0.1,0,0.3,0.1-0.7-0.3c-1.3-0.6-2.7-1.2-4.1-1.6
				c-2.7-1-5.6-1.6-8.4-2.1c-5.7-0.9-11.6-0.7-17.3,0.5c-5.6,1.2-11,3.4-15.9,6.3c-4.9,2.8-9.3,6.4-13.2,10.2
				c-4.2,4-8,8.6-10.8,13.8c-1.4,2.6-2.5,5.3-3.5,8.2c-0.4,1.4-0.8,2.8-1.1,4.3c-0.1,0.7-0.3,1.4-0.4,2.2l-0.3,2.2
				c-0.3,2.9-0.3,5.9-0.1,8.8c0.1,1.5,0.3,2.9,0.5,4.3c0.3,1.4,0.5,2.8,0.9,4.2c1.3,5.6,3.5,10.9,6.1,16c1.3,2.5,2.8,4.9,4.3,7.3
				c0.8,1.2,1.6,2.3,2.5,3.5l0.9,1.1l0.6,0.8l0.2,0.2l0.2,0l0.5,0.1l1,0.2l0.6,0.1l1,0.2c5.4,0.9,10.9,1.7,16.3,2.4
				c10.9,1.4,21.7,2.5,32.5,3.2c15.8,1.1,31.4,1.4,46.8,1c3.8-0.1,7.7-0.3,11.5-0.4c3.8-0.2,7.6-0.5,11.5-0.7
				c7.6-0.6,15.2-1.4,22.7-2.1c16.1-1.4,32.1-2.1,48.2-1.6c8,0.3,16,0.8,23.9,1.7c2,0.3,4,0.5,5.9,0.8c2,0.3,4,0.6,5.9,1
				C1403.9,427.4,1407.9,428.2,1411.6,429.3z"/>
		</g>
	</g>
	<g>
		<g>
			<path class="st55" d="M1623.7,627.3c-0.5,1-1.1,1.9-1.8,2.8c-0.7,0.8-1.5,1.6-2.3,2.3c-1.7,1.4-3.6,2.5-5.7,3.6
				c-4.1,2-8.5,3.5-13.1,4.8c-9.2,2.5-18.9,4.2-28,5.2c-14.5,1.6-29.7,2.2-45.3,2.4c-15.6,0.2-31.5-0.1-47.5-0.7
				c-32.1-1.1-64.6-3.1-95.6-5.1c-11.1-1-21.7-2-32.4-3c-5.3-0.5-10.6-1-16-1.5c-2.6-0.3-5.4-0.5-8-0.9c-2.6-0.4-5.2-0.9-7.6-1.8
				c-2.5-0.9-4.8-2.1-6.8-3.7c-2-1.6-3.7-3.6-4.7-6c-0.5-1.2-0.8-2.4-0.9-3.7c-0.1-0.6-0.1-1.3-0.1-1.9c0-0.3,0.1-0.7,0.1-1
				c0-0.3,0.1-0.7,0.1-1c0.4-2.6,1.6-5.1,3.3-7.3c1.7-2.2,3.9-4.1,6.4-5.6c2.5-1.5,5.4-2.5,8.4-3.2c3-0.7,6.2-1,9.4-0.9
				c0.8,0,1.6,0.1,2.4,0.1l0.7,0.1c0.3,0,0.6,0.1,0.9,0.1l1.9,0.3c2.5,0.6,5.6,1.7,8.4,2.6c0,0,0-0.1,0-0.1c0,0-0.1-0.2-0.1-0.3
				l-0.2-0.4l-0.4-0.8l-0.9-1.6c-0.6-1.1-1.2-2.2-1.7-3.2c-0.5-1.1-1-2.1-1.4-3.1l-0.3-0.8l-0.3-0.7c-0.1-0.3-0.2-0.7-0.4-1
				c-0.9-2.8-1.6-5.6-2.1-8.4c-0.9-5.7-0.8-11.5,0.6-16.9c1.4-5.4,4.1-10.3,7.8-14.5c3.6-4.2,8.1-7.5,12.8-10.3
				c5.1-3,10.7-5.1,16.4-5.8c5.7-0.7,11.5,0.1,16.8,2.3c5.3,2.1,10.2,5.5,14.4,9.4c1,0.8,1.9,2,2.9,2.8l0.7,0.6l0.4,0.3
				c0.1,0.1,0.2,0.1,0.3,0.2c0.4,0.2,0.9,0.5,1.3,0.6c0.8,0.3,2,0.3,3-0.1c1-0.4,1.9-1.2,2.3-1.9l0.2-0.3c0-0.1,0.1-0.3,0.1-0.4
				l0.2-0.8l0.4-1.6c0-0.1,0.1-0.2,0.1-0.4l0-0.5l0-1l0-1.9l0-0.5l0-0.4l0-0.6l0-1.1c0-0.7,0.1-1.5,0.1-2.2
				c0.8-11.8,3.5-23.5,8.5-34c2.5-5.2,5.7-10.2,9.4-14.6c3.7-4.4,8-8.4,12.7-11.8c4.7-3.4,9.9-6.1,15.3-8.3l2-0.8l1-0.4l1-0.3
				l4.2-1.4c1.4-0.4,2.8-0.7,4.3-1.1l2.1-0.6c0.7-0.2,1.4-0.3,2.2-0.4c11.6-2.3,23.6-3,35.6-2.5c11.9,0.5,23.9,2.4,34.8,6.9
				c5.5,2.2,10.6,5.2,15.2,8.7c2.3,1.8,4.5,3.7,6.5,5.9c1,1,2,2.2,2.9,3.3c0.5,0.6,0.9,1.2,1.4,1.7c0.5,0.6,0.9,1.2,1.3,1.8
				c5.6,7.9,9.6,17.9,11.6,28.7c2.3,11.8,2.5,25.4,1.1,38.6c-0.7,6.6-1.7,13.2-3.1,19.5c-0.7,3.2-1.4,6.3-2.1,9.3
				c-0.2,0.8-0.4,1.5-0.6,2.2l-0.3,1.1c-0.2,0.6-0.4,1.3-0.5,1.9c-0.8,2.9-1.9,6-2.8,8.8c3.1-0.2,5.9-0.5,8.4-0.5c0.8,0,1.6,0,2.4,0
				l1.2,0c0.8,0,1.6,0.1,2.3,0.1c1.5,0.1,3,0.3,4.5,0.5c2.9,0.4,5.6,1.1,8,2.1c2.4,0.9,4.4,2.2,5.9,3.6c1.5,1.5,2.6,3.2,3.3,4.9
				c1.3,3.6,1.3,7.2,1.2,9.9c0,0.7,0,1.3,0,1.9c0,0.6-0.1,1.1-0.1,1.5c0,0.9,0.1,1.5,0.3,1.9c1.3-2.5,2.7-5.7,3.2-9.7
				c0.3-2,0.2-4.3-0.2-6.6c-0.5-2.4-1.6-4.8-3.3-6.9c-1.7-2.1-3.9-3.9-6.3-5.3c-2.4-1.4-5.1-2.4-7.8-3.1c-2.8-0.8-5.6-1.2-8.5-1.5
				c-0.7-0.1-1.5-0.1-2.2-0.2c-0.5,0-1-0.1-1.5-0.1c-0.3,0-0.6,0-0.9,0c0-0.2,0.1-0.4,0.2-0.6l0.1-0.3l0.3-1.1
				c0.6-2.2,1.2-4.3,1.7-6.6c1.1-4.4,2-9,2.8-13.6c1.6-9.2,2.5-18.8,2.7-28.4c0.1-9.5-0.7-19.5-3.1-29.7
				c-2.5-10.1-6.7-20.5-13.6-29.4c-6.8-9-16.3-16.1-26.8-20.7c-10.5-4.6-21.9-6.9-33.2-7.9c-11.3-0.7-22.5-0.7-33.6,0.7
				c-1.4,0.2-2.8,0.4-4.1,0.6c-1.4,0.2-2.7,0.5-4.1,0.8c-1.4,0.3-2.7,0.5-4.1,0.8c-1.3,0.4-2.7,0.7-4,1.1l-2,0.5l-2,0.6
				c-1.3,0.4-2.6,0.9-3.9,1.3c-1.3,0.5-2.6,1-3.8,1.5c-1.3,0.5-2.5,1-3.8,1.7c-1.2,0.6-2.5,1.2-3.7,1.8c-1.2,0.6-2.4,1.4-3.5,2
				l-1.8,1l-1.7,1.1c-1.1,0.8-2.3,1.5-3.3,2.3c-4.3,3.2-8.2,6.9-11.6,10.8c-3.4,3.9-6.3,8.1-8.8,12.4c-0.6,1.1-1.2,2.1-1.8,3.3
				c-0.5,1.1-1.1,2.2-1.6,3.3c-1,2.2-1.9,4.4-2.7,6.6c-2.5,6.8-4,13.8-5,20.9c-0.5,3.6-0.8,7.1-0.9,10.7l-0.1,1.7c0,0,0,0,0,0
				c0,0,0,0,0,0l0,0l0,0l0,0l0,0c0,0,0,0,0,0c-1.3-1.3-2.8-2.5-4.2-3.6c-2.9-2.3-6.1-4.3-9.5-5.9c-6.8-3.3-14.6-4.8-22.2-3.9
				c-7.6,0.8-14.7,3.7-20.9,7.6c-0.8,0.5-1.5,1-2.3,1.5c-0.7,0.5-1.5,1-2.2,1.6c-1.4,1.1-2.9,2.2-4.3,3.5c-2.7,2.5-5.3,5.3-7.3,8.4
				c-2.1,3.1-3.8,6.5-5,10.1c-1.2,3.6-1.9,7.3-2.1,11c-0.4,7.4,0.9,14.6,3.4,21.3l0.3,0.9l0,0l0,0.1c0,0,0.1,0.1,0.1,0.1
				c0,0-0.1,0-0.1,0l-0.1,0c-0.9-0.1-1.8-0.1-2.7-0.2c-3.5-0.1-7.1,0.2-10.5,0.9l-1.3,0.3l-1.3,0.3l-1.3,0.4l-1.3,0.4
				c-1.7,0.6-3.4,1.4-5,2.2c-3.2,1.8-6.1,4.2-8.5,7.1c-1.1,1.5-2.2,3.1-2.9,4.9c-0.8,1.8-1.4,3.6-1.6,5.6c-0.3,1.9-0.3,3.9,0,5.9
				c0.3,2,1,3.9,1.9,5.7c1.9,3.5,4.7,6.3,7.8,8.3c3.1,2,6.5,3.2,9.9,4.1c0.8,0.2,1.7,0.4,2.5,0.6c0.8,0.1,1.7,0.3,2.5,0.4l2.5,0.3
				l2.4,0.2c3.2,0.3,6.3,0.6,9.4,0.9c6.3,0.6,12.6,1.1,18.8,1.6c12.5,1,25,1.8,37.5,2.6c38.4,2.2,75.6,3.1,112.7,2.7
				c19.8-0.3,39.5-1,59-3.2c9.8-1.1,19.5-2.6,29.1-5.1c4.8-1.3,9.5-2.8,14-4.9c2.2-1.1,4.4-2.4,6.4-4
				C1621.1,631.9,1622.8,629.8,1623.7,627.3z"/>
		</g>
	</g>
	<g>
		<path class="st31" d="M501,754.1c-1,0-22.5,13.5-22.5,13.5h45l-20.5-6.5L501,754.1z"/>
		<g>
			<path class="st55" d="M501.3,754c0.1,1.8,1,3.9,1.5,5.9c0.1,0.4,0.2,0.7,0.3,1.1c2.8,1,5.9,2.1,9,3.2c1.4,0.5,2.8,1,4.2,1.5
				c1.1,0.4,2.1,0.7,3.5,1.1c0.3,0.1,0.5,0.2,0.8,0.4c-1.8-0.1-3-0.1-4.2-0.1c-1.8,0-3.7,0-5.9,0c-2.6,0-5.2-0.3-7.8-0.3
				c-5.5-0.1-10.8-0.2-16.1-0.2c-1.2,0-2.3,0-3.5,0c-0.2,0-0.3,0-0.3,0c0.1-0.1,0.3-0.1,0.3-0.2c1-0.6,2-1.2,2.9-1.8
				c1-0.6,2-1.2,3.1-1.9c2.5-1.5,5.5-3.2,7.8-4.7c1.3-0.8,2.3-1.6,3-2.3c0.3-0.4,0.6-0.7,0.8-1c0.1-0.3,0.3-0.5,0.4-0.7
				c-0.2,0-0.4,0-0.6,0c-0.2,0-0.3,0.1-0.5,0.1c-0.4,0.1-0.7,0.2-1.1,0.4c-0.8,0.3-1.7,0.7-2.6,1.2c-1.9,1-4,2.3-6.1,3.5
				c-1.7,1-3.7,2.2-5.7,3.4c-1.1,0.7-2.3,1.4-3.4,2.1c-2,1.2-4,2.5-6,3.7l-0.8,0.5l-0.2,0.1c0,0,0.1,0,0.2,0l0.4,0l1.7,0
				c1.2,0,2.3,0,3.5,0c1.7,0,3.4,0,5.1,0c2.3,0,4.5,0,6.4,0c6,0,12.1,0.1,18,0c7.4,0,14.7-0.1,21.8-0.1c-2.3-0.7-4.5-1.4-6.7-2.1
				c-1.9-0.6-3.8-1.1-5.7-1.7l-2.7-0.8l-1-0.3l-0.7-0.2c-2-0.5-3.9-1.1-5.9-1.6l-2.7-0.8l-1.3-0.4l-0.7-0.2l-0.4-0.1
				C502.7,758.4,502,756.2,501.3,754z"/>
		</g>
	</g>
	<path class="st39" d="M822.2,596.8c-0.2-1.7,0.2-3.4,0.1-5.1c-0.1-1.4-0.6-3.4-2-4.1c-0.6-0.2-1.2-0.4-1.7-0.6
		c-0.5-0.3-1-0.8-0.9-1.4c0.1-0.7,0.8-1.1,1.4-1.4c1.1-0.5,5.5-1.8,3.5-3.8c-0.8-1.4-3.4-2.4-3.4-4.2c0-0.7,2.8-2.1,3.3-2.6
		c-0.9-0.9-4.4-0.9-4.6-2.3c-0.1-1.4,1-2.2,1.9-3.2c1.4-1.8,1.4-4.2,1.8-6.5c0.4-2.4,1.4-4.7,2.9-6.6c0.4-0.5,0.9-1.1,1.5-1.2
		c1.8-0.5,2.8,1.9,3.1,3.8c0.4,2.9-0.2,5.8,0.3,8.7c0.1,1,0.3,2.1,0.9,2.9c0.8,1.1,3.3,1.7,4,2.9c1,1.8-0.1,3.9-1.2,5.6
		c-1.2,1.7-2.5,3.6-2,5.5c0.5,1.9,2.5,3,1.7,5.2c-0.4,1-1.2,1.7-1.8,2.5c-1,1.3-0.8,2.5-0.7,4c0.1,2.6-0.2,4.9-3.1,5.5
		C824.7,600.8,822.5,599.3,822.2,596.8z"/>
	<path class="st39" d="M753.6,587.7c0-0.4,0-0.7-0.1-1c-0.3-0.6-1-0.8-1.6-1c-2.1-0.8-3.6-3.4-2.5-5.4c0.6-0.9,1.6-1.5,2.6-1.9
		c1-0.4,2-0.9,2.7-1.7c0.7-0.8,0.8-2.2,0-2.9c-0.5-0.4-1.2-0.5-1.8-0.7c-1.9-0.6-3.2-2.7-2.9-4.6c1.9-0.5,3-2.4,3.6-4.3
		c0.5-1.9,0.7-3.8,1.3-5.7c0.7-1.8,3.2-6.5,5.1-6.7c0.3,0,0.5,0,0.7,0.1c0.2,0.1,0.4,0.4,0.5,0.6c1.2,2.6-0.5,6,0.9,8.6
		c0.5,0.8,1,1.5,1.7,2.1c1.6,1.4,1.6,4.4-0.4,5.6c-1,0.6-1.9,1.7-1.9,2.9c0,0.6,0.8,1.1,1.3,1.4c0.6,0.4,1.2,0.7,1.4,1.5
		c0.1,0.8-0.3,1.6-0.6,2.4c-0.2,0.4-0.2,0.8-0.3,1.2c-0.1,0.4-0.6,0.6-0.9,0.7c-1.3,0.4-2.7,0.1-4,0.8c-0.4,0.2-1,0.9-0.9,1.3
		c0.1,0.4,0.4,0.7,0.8,0.9c0.8,0.4,1.8,0.4,2.8,0.5c0.9,0.2,1.9,0.9,1.9,1.8c0,0.5-0.3,0.9-0.5,1.3c-1.4,2.3-2.3,4.9-2.5,7.6
		c-0.2,1.8,0.7,4.4-1.3,5.3C752.9,600.8,753.5,590.5,753.6,587.7z"/>
	<g>
		<g>
			<path class="st129" d="M1096.2,145.1c-0.7-1.1-0.6-2.2-0.4-3.3c0.2-1.1,0.6-2.2,0.6-3.3c0-0.5,0-0.9,0-1.4
				c-0.3-2.4-1.1-4.8-2.1-7.1c-1-2.3-2-4.4-2.8-6.6c-1.4-1.3-2.3-2.5-3.5-3.8c-1.1-1.3-2.3-2.7-4.1-3.9c-1.5-1.1-3.6-1.4-5.1-2.1
				c-7-3.1-14.3-4.2-22.1-4.3c-0.8,0-1.7-0.1-2.6-0.1c-1-0.1-2.2,0-3.3,0.1c-1.1,0.1-2.2,0.2-3.2,0c-2.2-0.3-4.1-2.8-4.6-6
				c1.2-3.6,5.3-3.6,9.2-3.9c3.3-0.3,7.3-0.3,11.2,0.2c4,0.5,7.9,1.4,11,2.4c4.8,1.6,9.8,3.8,13.7,7.3c2,1.7,3.9,3.7,5.5,5.8
				c1.6,2.1,2.9,4.4,3.8,6.8c1.3,3.6,1.2,7.3,1.2,10.6l-0.1,2.3c-0.1,0.8-0.2,1.5-0.3,2.3C1097.8,139.9,1097.1,142.6,1096.2,145.1z"
				/>
		</g>
	</g>
	<g>
		<g>
			<path class="st129" d="M1126.8,152.3c-0.4-1.2-0.2-2.3,0.3-3.3c0.2-0.5,0.5-1,0.8-1.5c0.2-0.5,0.4-1,0.6-1.5
				c0.1-0.4,0.2-0.8,0.3-1.3c0.1-0.6,0.3-1.3,0.4-2c0.2-1.4,0.3-2.8,0.4-4.2c0.1-1.4,0-2.9,0-4.3c0-0.4,0-0.7,0-1.1l-0.1-1.1
				c-0.1-0.7-0.1-1.4-0.2-2.2c-0.7-5.8-2.2-11.3-3.7-16.6c-1-1.7-1.8-3.4-2.9-5c-0.5-0.8-1-1.6-1.4-2.4c-0.5-0.8-1.1-1.6-1.6-2.4
				c-0.6-0.8-1.1-1.6-1.7-2.4c-0.6-0.8-1.3-1.6-2-2.4c-0.3-0.4-0.7-0.8-1-1.3c-0.3-0.4-0.8-0.8-1.2-1.2c-0.8-0.8-1.7-1.6-2.5-2.5
				c-1.6-1.4-3.4-2.5-5.1-3.7c-1.9-1-3.6-2-5.3-3c-1.9-1-3.8-2.1-5.7-2.9c-1.8-0.8-3.8-1.5-5.8-2.2c-2-0.7-4.1-1.2-6.1-1.8
				c-2.1-0.5-4.1-1-6.3-1.4c-8.4-1.7-17-2.7-25.8-2.9c-1.8-0.1-3.7-0.1-5.7-0.1c-0.6,0-1.2,0-1.8,0c-0.6,0-1.2,0.1-1.8,0.1
				c-1.2,0.1-2.5,0.2-3.7,0.3c-1.2,0.2-2.5,0.3-3.6,0.4c-0.6,0-1.2,0.1-1.7,0.1c-0.6,0.1-1.1,0.1-1.6,0.2c-1.2,0.1-2.3,0-3.4-0.2
				c-1-0.2-2-0.4-2.9-0.8c-1.8-0.8-3.2-2-3.8-3.5c0.6-1,1.7-1.9,3-2.7c0.7-0.4,1.4-0.7,2.2-1.1c0.8-0.3,1.6-0.5,2.5-0.8
				s1.8-0.5,2.8-0.7c1-0.2,2-0.3,3-0.4c1-0.1,2.1-0.2,3.1-0.4c1-0.1,2.1-0.2,3.1-0.2c7-0.6,15.4-0.4,23.7,0.6
				c4.1,0.5,8.2,1.2,12.1,2c3.9,0.9,7.5,1.7,10.8,2.8c2.5,0.7,5,1.6,7.6,2.6l1.9,0.8c0.6,0.3,1.3,0.6,1.9,0.9
				c1.3,0.6,2.4,1.3,3.6,1.9c1.2,0.7,2.3,1.3,3.5,2c1.1,0.8,2.2,1.6,3.3,2.3c2.2,1.5,4.2,3.3,6.2,5.1l0.8,0.7
				c0.2,0.2,0.5,0.5,0.7,0.7l1.4,1.5l1.4,1.5c0.5,0.5,0.9,1,1.3,1.5c1.6,2.1,3.4,4.2,4.7,6.5l1.1,1.7l0.5,0.8l0.5,0.9
				c0.6,1.2,1.2,2.4,1.8,3.5c0.3,0.6,0.5,1.2,0.8,1.8l0.7,1.8c0.5,1.2,0.9,2.5,1.2,3.7c2,7.4,1.8,14.9,0.7,21.9l-0.4,2.4
				c-0.1,0.8-0.4,1.6-0.6,2.4l-0.6,2.3c-0.2,0.8-0.5,1.5-0.8,2.3l-0.8,1.9l-0.4,0.9c-0.1,0.3-0.3,0.6-0.5,0.9
				C1128.1,150,1127.5,151.2,1126.8,152.3z"/>
		</g>
	</g>
	<g>
		<g>
			<path class="st129" d="M1165.5,154.2c-0.5-1.2-0.4-2.2,0-3.3c0.4-1,0.9-2.1,1.1-3.1c0.1-0.4,0.2-0.8,0.2-1.3c0.2-1,0.3-2,0.5-3
				c0.2-1,0.2-2.1,0.4-3.2c0.1-1.1,0.2-2.1,0.2-3.2c0.2-4.3,0.1-8.7-0.4-13.2c-0.9-8.8-3-17.5-5.4-25.7c-2.5-5.6-5-10.6-8-15.8
				c-3-5.2-6.6-10.5-11.7-16.1c-4.5-4.7-9.9-8.4-15-11.7c-2.8-1.8-5.6-3.4-8.6-4.9c-3-1.4-5.9-2.8-9-3.9c-6.1-2.3-12.4-4-18.8-5.3
				c-6.4-1.3-12.9-2.1-19.6-2.7c-6.6-0.6-13.4-0.8-20.2-0.8c-2.8,0-5.8,0-9,0.1c-7.2,0.1-15.8,1.1-22.6,1.6
				c-7.4,0.4-13.4-1.3-14.6-4.3c2.3-2.2,6.7-3.7,12.1-4.7c5.4-1,11.8-1.6,18-2.1c10.5-0.8,23.1-0.9,35.6,0.2
				c12.5,1,24.9,3.4,34.9,6.6c7.6,2.5,15.1,5.6,22.1,9.8c7,4.2,13.3,9.4,18.7,15.2c10.9,11.9,18.8,25.9,22.7,40.8
				c2.8,10.9,3.1,21.8,2.2,32.4c-0.4,4.8-1.3,9.6-2.5,14.2c-0.5,1.3-1,2.5-1.5,3.7C1166.7,151.8,1166.1,153,1165.5,154.2z"/>
		</g>
	</g>
	<path class="st110" d="M1044.5,141c-0.7-0.5-1.4-1.1-1.3-1.8c0.1-0.4,0.5-0.7,0.9-1c0.9-0.6,1.9-1.1,3-1.2c2.1-0.2,4.2,1,5.6,2.4
		c2.6,2.8,3.1,6.7,1.1,9.4c-0.6,0.8-1.5,1.5-2.4,2.1c-2.2,1.4-6.6,3.2-9.7,2c2-1.7,5.2-1.7,6.8-4.1
		C1050.5,145.8,1047.5,143.2,1044.5,141z"/>
	<g>
		<g>
			<path class="st29" d="M559.9,334.2c0.9-0.3,0.3-0.8,0.4-1.2c0.1-0.7,0.2-1.5,0.2-2.3c0-0.8-0.3-1.7-0.9-2.3
				c-0.2-1.3-1.2-1.9-2.3-2.8c-0.5-0.4-1-1.1-1.6-1.4c-1.3-0.6-2.7-0.9-4.2-0.9c-1.4,0-2.9,0.3-4.3,0.8c-0.3,0.1-0.6,0.3-0.9,0.5
				c-0.4,0.3-0.7,0.4-1.2,0.8c-0.5,0.4-1,1-1.1,1.5c-0.2,0.6,0.1,1.3,0.8,1.7c0.3,0.2,0.7,0.3,1.2,0.4c0.2,0.1,0.5,0.1,0.7,0.1
				c0.1,0,0.3,0,0.5,0.1c0.4,0,0.7-0.1,0.9-0.1c0.1,0,0.1,0,0.2,0c0,0,0.1,0,0.3-0.1c0.6-0.3,1.3-0.5,2.1-0.7
				c0.7-0.2,1.5-0.2,2.1-0.2c0.9,0.1,1.8,0.4,2.5,0.7c0.8,0.3,1.4,1,2.1,1.6c0.5,0.4,1.3,0.9,1.6,1.5
				C559.3,332.6,559.7,333.3,559.9,334.2z"/>
		</g>
	</g>
</g>
<g id="Layer_7">
</g>
<g id="colorz">
</g>
</svg>
