<?xml version="1.0" encoding="utf-8"?>
<!-- Generator: Adobe Illustrator 21.1.0, SVG Export Plug-In . SVG Version: 6.00 Build 0)  -->
<svg version="1.1" xmlns="http://www.w3.org/2000/svg" xmlns:xlink="http://www.w3.org/1999/xlink" x="0px" y="0px"
	 viewBox="0 0 630 317" style="enable-background:new 0 0 630 317;" xml:space="preserve">
<style type="text/css">
	.st0{display:none;}
	.st1{display:inline;fill:#2CE3B6;}
	.st2{fill-rule:evenodd;clip-rule:evenodd;fill:#E6E6E6;}
	.st3{fill:#E6E6E6;stroke:#E6E6E6;stroke-miterlimit:10;}
	.st4{fill:#C2DDFE;stroke:#C2DDFE;stroke-miterlimit:10;}
	.st5{fill:#E6E6E6;}
	.st6{fill:#FFFFFF;}
	.st7{fill-rule:evenodd;clip-rule:evenodd;fill:#93FFD7;}
	.st8{fill-rule:evenodd;clip-rule:evenodd;fill:#FFFFFF;}
	.st9{fill:#93FFD7;}
	.st10{fill:#93FFD7;stroke:#93FFD7;stroke-miterlimit:10;}
	.st11{fill-rule:evenodd;clip-rule:evenodd;fill:#DFECFE;}
	.st12{fill-rule:evenodd;clip-rule:evenodd;fill:#C2DDFE;}
	.st13{fill:#C2DDFE;}
	.st14{fill:#AFAFAF;}
	.st15{fill:#7CA7D9;}
	.st16{fill:#DFECFE;}
	.st17{fill:#DBB97B;}
	.st18{fill:#C9B6FF;}
	.st19{fill:#EDD5A6;}
	.st20{fill:#7DA7D7;}
	.st21{fill:#25B0E5;}
	.st22{fill:#5C6AC4;}
	.st23{fill:#303654;}
	.st24{fill-rule:evenodd;clip-rule:evenodd;fill:#7CA7D9;}
	.st25{fill-rule:evenodd;clip-rule:evenodd;fill:#DBB97B;}
	.st26{fill-rule:evenodd;clip-rule:evenodd;fill:#CCCCCC;}
	.st27{fill:url(#SVGID_1_);}
	.st28{fill:url(#SVGID_2_);}
	.st29{fill:#929FDD;}
	.st30{fill:#BEC5EB;}
	.st31{fill:#D3D9F1;}
	.st32{fill:#DEE0E8;}
	.st33{fill:url(#SVGID_3_);}
	.st34{fill:#E2E4EB;}
	.st35{fill-rule:evenodd;clip-rule:evenodd;fill:#7DA7D7;}
	.st36{fill:url(#SVGID_4_);}
	.st37{fill:#4275F4;}
	.st38{fill:#3B4B9B;}
	.st39{fill-rule:evenodd;clip-rule:evenodd;fill:#3B4B9B;}
	.st40{fill:#DFECFE;stroke:#DFECFE;stroke-width:0.8289;stroke-miterlimit:10;}
	.st41{fill:#7754F7;}
	.st42{fill:#2CE3B6;}
	.st43{fill:url(#SVGID_5_);}
	.st44{fill:url(#SVGID_6_);}
	.st45{fill:url(#SVGID_7_);}
	.st46{fill:url(#SVGID_8_);}
	.st47{fill:url(#SVGID_9_);}
	.st48{fill:url(#SVGID_10_);}
	.st49{fill:url(#SVGID_11_);}
	.st50{fill:url(#SVGID_12_);}
	.st51{fill:url(#SVGID_13_);}
</style>
<g id="sketch" class="st0">
</g>
<g id="bg" class="st0">
</g>
<g id="browser">
	<g>
		<polygon class="st14" points="382,159.5 382,158.9 385.6,158.9 385.6,159.5 384.2,159.5 384.2,163.4 383.6,163.4 383.6,159.5 		
			"/>
		<polygon class="st14" points="390.4,159.4 388.9,163.4 388.3,163.4 387,159.4 387,159.4 387,163.4 386.4,163.4 386.4,158.9 
			387.5,158.9 388.7,162.6 388.7,162.6 390,158.9 391,158.9 391,163.4 390.4,163.4 		"/>
		<path id="polygon3581" class="st14" d="M318.4,152.3v22.4h14.4V171h-9.7v-18.7H318.4z M335.6,152.3v4h4.9v-4H335.6z M364.2,152.3
			v22.4h4.6v-8.4l0,0l4.8,8.4h5.4l-5.6-8.9l5.4-6.7h-5.1l-4.6,6.5l0,0v-13.2H364.2L364.2,152.3z M354.3,158.7c-2.3,0-3.8,1-4.8,2.4
			V161v-1.8h-4.6v15.5h4.6v-9.4c0.1-2.2,1.3-3.5,2.8-3.5c2.3,0,2.7,1.8,2.8,3.5v9.4h4.6v-10.2c0-0.5-0.1-1.6-0.4-2.4
			C358.8,159.9,355.8,158.7,354.3,158.7L354.3,158.7z M335.7,159.2v15.5h4.6v-15.5H335.7z"/>
		<path id="path3590" class="st14" d="M216.6,151.9c-6.5,0.5-8.6,6.5-8.6,11.6c0,6.2,2.6,11.6,9.2,11.6c4.4,0,8.2-2.4,8.4-6.2h-3.3
			c-0.4,2.3-2.6,3.5-4.9,3.5c-4.9,0-6.2-4.3-6.2-8.9c0-3.9,1-8.9,6.6-8.9c2.3,0,4.6,1.5,4.8,3.5h3.2c-0.4-4-3.5-6.1-7.8-6.2
			C217.4,151.8,216.9,151.8,216.6,151.9z M266.2,154.9l-2.9,1v3.3h-2.7v2.1h2.7v9.8c0,2.1,0.1,2.2,0.6,2.9c0.5,0.7,1.3,1,1.8,1.1
			c0.7,0.1,1.2,0.1,2,0.1c0.7,0,1.3-0.1,2-0.1v-2.3c-0.5,0.1-1,0.2-1.5,0.2c-1.1,0-2-0.6-2-1.7v-10h3.5v-2.1h-3.5V154.9L266.2,154.9
			z M235.3,158.7c-4.9,0-7.2,3.8-7.2,8.3s2,8.1,7,8.1c3.7,0,6.4-1.7,6.9-5.3h-3.1c-0.4,2.2-1.5,3.2-3.8,3.2c-3.1,0-4.2-2.8-3.9-5.5
			h11V166C242.1,161.7,239.9,158.8,235.3,158.7z M252.8,158.7c-1.6,0-3.7,0.9-4.8,2.8l0,0v-2.3h-2.9v15.5h2.9v-8.4
			c0-3.1,0.7-3.7,1.2-4.2c1.2-1.2,2.9-1.2,2.9-1.2c2.4,0,3.5,1.5,3.5,4v9.8h2.9v-10.8C258.7,158.9,253.9,158.7,252.8,158.7z
			 M297.2,158.9c-2.2,0-4.2,1.1-4.5,3.2l0,0v-2.9h-2.9v15.5h2.9V167c0-3.3,0.6-5.3,4.4-5.4c0.4,0,0.9,0,1.2,0.1v-2.8
			C297.9,159,297.6,158.9,297.2,158.9z M272.4,159.2v10.4c0,3.2,1.8,5.6,5.1,5.6c2.2,0,4.2-0.7,5.4-2.7l0,0v2.3h2.9v-15.7h-2.9v8
			c0,0.4,0,2.2-0.6,3.7c-0.6,1.6-2.2,2.2-3.4,2.2c-2.8,0-3.4-2-3.4-4.6v-9.2H272.4z M299.9,159.2l6.5,15.5l-2.4,6h2.9l9.2-21.5h-3.2
			l-4.9,12.2l-4.9-12.2C303.1,159.2,299.9,159.2,299.9,159.2z M235,160.9c2.8,0,4,2,4,4.6h-7.8C231.1,162.8,232.6,160.9,235,160.9z"
			/>
		<path id="path3606" class="st14" d="M172.5,139.2v16.1l8.1-13.9C178,140.2,175.4,139.5,172.5,139.2z M156.3,143.6
			c-2.3,1.6-4.3,3.5-5.9,5.9l13.9,8.1L156.3,143.6z M184.4,143.6l-8,13.9l13.9-8.1C188.7,147.2,186.6,145.2,184.4,143.6z
			 M164.3,169.4l-13.9,8.1c1.6,2.3,3.5,4.3,5.9,6L164.3,169.4z M176.3,169.4l8.1,13.9c2.3-1.6,4.3-3.7,6-6L176.3,169.4z
			 M168.1,171.6l-8.1,13.9c2.4,1.1,5.1,2,8.1,2.2V171.6z"/>
		<path id="path3618" class="st14" d="M168.1,139.2c-2.8,0.2-5.5,1-8.1,2.2l8.1,13.9V139.2z M148.2,153.3c-1.1,2.4-2,5.1-2.2,8.1
			h16.1L148.2,153.3z M192.5,153.3l-13.9,8.1h16C194.3,158.4,193.6,155.7,192.5,153.3z M146.1,165.6c0.2,2.8,1,5.5,2.2,8.1l13.9-8.1
			H146.1z M178.5,165.6l13.9,8.1c1.1-2.4,2-5.1,2.2-8.1H178.5z M172.5,171.6v16.1c2.8-0.2,5.5-1,8.1-2.2L172.5,171.6z"/>
		<polygon id="polygon3631" class="st14" points="187.3,139.8 187.3,139.2 191,139.2 191,139.8 189.4,139.8 189.4,143.8 
			188.8,143.8 188.8,139.8 		"/>
		<polygon id="polygon3633" class="st14" points="195.8,139.7 194.3,143.8 193.7,143.8 192.2,139.7 192.2,139.7 192.2,143.8 
			191.6,143.8 191.6,139.2 192.7,139.2 194.1,142.9 194.1,142.9 195.3,139.2 196.4,139.2 196.4,143.8 195.8,143.8 		"/>
	</g>
	<g id="Layer_1_1_">
		<g>
			<rect x="12.6" y="23.6" class="st14" width="212.4" height="49.1"/>
			<g>
				<path class="st6" d="M175.8,44.2c1.8-1.8,4.2-2.8,6.6-2.8c2.6,0,4.9,0.9,6.6,2.6c2,1.8,2.9,4.3,2.9,6.7c0,2.7-0.9,5-2.7,6.7
					c-1.8,1.8-4.2,2.8-6.9,2.8c-2.8,0-5-1-6.9-2.9c-1.7-1.8-2.7-4.2-2.7-6.6C173,48.3,174,46,175.8,44.2z M182.6,55.3
					c2.3,0,4.3-2,4.3-4.4c0-2.4-2-4.4-4.3-4.4c-2.3,0-4.3,2-4.3,4.4C178.3,53.3,180.2,55.3,182.6,55.3z"/>
				<path class="st6" d="M137,44.2c1.8-1.8,4.2-2.8,6.6-2.8c2.6,0,4.9,0.9,6.6,2.6c2,1.8,2.9,4.3,2.9,6.7c0,2.7-0.9,5-2.7,6.7
					c-1.8,1.8-4.2,2.8-6.9,2.8c-2.8,0-5-1-6.9-2.9c-1.7-1.8-2.7-4.2-2.7-6.6C134.4,48.3,135.2,46,137,44.2z M143.8,55.3
					c2.3,0,4.3-2,4.3-4.4c0-2.4-2-4.4-4.3-4.4s-4.3,2-4.3,4.4C139.5,53.3,141.5,55.3,143.8,55.3z"/>
				<polygon class="st6" points="79.4,59.8 84.7,59.8 84.7,34.9 79.4,36 				"/>
				<rect x="71.5" y="41.8" class="st6" width="5.3" height="18"/>
				<circle class="st6" cx="74" cy="36.5" r="3.2"/>
				<polygon class="st6" points="95.7,52.2 92.3,41.8 86.4,41.8 93,58.7 90.4,65.6 95.8,65.6 105.2,41.8 99.5,41.8 				"/>
				<path class="st6" d="M47.3,50.8c0-2,0.5-3.8,1.5-5.5l0,0l0,0V34.9L43.5,36v7.8c-1.2-1.6-2.9-2.3-5-2.3c-2.3,0-4.3,0.9-6,2.4
					c-1.8,1.8-2.9,4.2-2.9,6.7c0,2.8,1.1,5.3,3.2,7.1c1.6,1.5,3.4,2.1,5.6,2.1c2.2,0,3.8-0.6,5.4-2.1v2h5.1v-3.4
					C47.7,54.7,47.3,52.7,47.3,50.8z M39.4,55.1c-2.7,0-4.6-2-4.6-4.4c0-2.4,2-4.4,4.4-4.4c2.4,0,4.4,2,4.4,4.5
					C43.6,53.2,41.8,55.1,39.4,55.1z"/>
				<path class="st6" d="M133.3,45.8c-0.2-1-0.6-1.7-1.2-2.4c-1-1.2-2.4-1.7-4.2-1.8c-1.3-0.1-2.6,0-3.7,0.6
					c-1.2,0.6-2.7,2.2-2.7,2.2s-1.3-2.9-4.9-2.9c-2.4,0-3.9,1.1-5,2.7v-2.4H107v18h5v-9.4c0-2,0.5-3.9,3.1-3.9
					c2.3,0,2.4,1.8,2.4,3.4v10h5.1v-9.5c0-3.1,1.3-3.9,3.2-3.9c1.5,0,2.4,0.6,2.4,3.4v9.9h5.1v-3.4c-1-1.7-1.5-3.5-1.5-5.6
					C132.2,48.9,132.5,47.3,133.3,45.8z"/>
				<polygon class="st6" points="161.9,34.9 156.6,36 156.6,41.8 154.3,41.8 154.3,47.1 156.6,47.1 156.6,59.8 161.9,59.8 
					161.9,47.1 164.3,47.1 164.3,41.8 161.9,41.8 				"/>
				<circle class="st6" cx="169.2" cy="36.5" r="3.2"/>
				<path class="st6" d="M171.9,46.1v-4.4h-5.3v18h5.3v-4.3c-0.6-1.5-1-3.1-1-4.8C170.9,49.2,171.3,47.6,171.9,46.1z"/>
				<path class="st6" d="M204.2,41.5c-2.3,0-4,1-5.1,2.7v-2.4h-5v18h5.1v-9.8c0-2.4,1.1-3.7,3.2-3.7c2.1,0,2.6,1.1,2.6,3.7v9.8h5.3
					V47.8C210.3,43.8,207.9,41.5,204.2,41.5z"/>
				<path class="st6" d="M63.5,57.7c-1.6,1.6-3.2,2.1-5.4,2.1c-2.2,0-4-0.7-5.6-2.1c-2.1-1.8-3.2-4.3-3.2-7.1c0-2.6,1-4.9,2.9-6.7
					c1.7-1.6,3.7-2.4,6-2.4c2.2,0,3.8,0.7,5,2.3v-2h5.3v18h-5.1L63.5,57.7L63.5,57.7z M59.4,55.1c2.3,0,4.2-1.8,4.2-4.4
					s-2-4.5-4.4-4.5c-2.6,0-4.4,2.1-4.4,4.4C54.7,53.2,56.7,55.1,59.4,55.1z"/>
			</g>
		</g>
	</g>
	<g>
		<path class="st14" d="M248,262h-12.6v12.6H248V262L248,262z M236,233.4l-0.6,21.5l3.3,0.6c0.6-6.4,2.3-11,5-14.1
			c2.9-3.2,6.9-4.9,12-5v45c0,2.3-0.1,4-0.5,5.3c-0.6,2.2-2.1,3.5-4.4,4c-1.1,0.2-2.9,0.4-5.4,0.4v3.4h30.2v-3.4
			c-1.7,0-2.9,0-3.5-0.1c-2.3-0.2-4-0.9-5-1.8c-1.2-1.2-1.7-3.7-1.7-7.7v-45.1c5.1,0.1,9.2,1.8,12.1,5c2.8,3.1,4.4,7.8,5,14.1
			l3.3-0.6l-0.7-21.4H236z M273.1,274.6h12.6V262h-12.6V274.6z M310.8,274.6h12.6V262h-12.6V274.6z M348.4,262v12.6H361V262H348.4z"
			/>
	</g>
	<g>
		<path class="st14" d="M614.4,260.8c-0.4,0.6-0.7,0.6-1.3,0.4c-0.9-0.4-1.6-0.4-2.4-0.2c-1.1,0.1-2,0.6-2.7,1.2
			c-0.9,0.7-1.5,1.7-1.7,2.8c0,0.2-0.1,0.5-0.1,0.6c0,2.1,0,4.2,0,6.2c0,0.2,0,0.5-0.1,0.6c-0.2,0.2-0.6,0.5-0.9,0.4
			c-0.2-0.1-0.5-0.2-0.5-0.7c0-4,0-8,0-12c0-0.5,0.2-0.7,0.6-0.7c0.5,0,0.7,0.2,0.9,0.6c0.1,0.5,0,1.1,0.1,1.7
			c0.5-0.5,1-0.9,1.5-1.2c0.9-0.6,1.8-1,2.9-1.1c1-0.1,2,0,3.1,0.4c0.4,0.1,0.6,0.2,0.9,0.6C614.4,260.3,614.4,260.5,614.4,260.8z"
			/>
		<path class="st14" d="M466.3,259.2c0.1,0,0.2,0,0.2,0c5.3,0,10.6,0,15.9,0c0.1,0,0.2,0,0.4,0c-0.4,0.6-0.7,1.1-1.1,1.6
			c-1,1.3-1.8,2.7-2.8,4.2c-0.9,1.2-1.6,2.3-2.4,3.5c-1,1.3-1.8,2.7-2.8,4c-0.1,0.1-0.2,0.1-0.4,0.1c-4.4,0-8.8,0-13.2,0
			c-0.1,0-0.2,0-0.4,0c-2.7,0-5.5,0-8.2,0c-0.1,0-0.2,0-0.4,0c-0.2-0.1-0.1-0.2-0.1-0.4c0.2-0.4,0.5-0.7,0.7-1.1
			c0.6-0.9,1.1-1.7,1.7-2.6c0.1-0.1,0.1-0.2,0.1-0.4c0.6-0.9,1.2-1.7,1.7-2.7c0.1-0.1,0.1-0.2,0.2-0.2c0.1-0.1,0.2,0,0.4,0.1
			c1.2,0.9,2.6,1.7,3.9,2.7c0.1,0,0.1-0.1,0.2-0.2c1.6-2.4,3.2-4.8,4.8-7.1C465.6,260.3,466,259.7,466.3,259.2z"/>
		<path class="st14" d="M440.7,272.6c-0.1,0-0.2,0-0.2,0c-5.3,0-10.5,0-15.8,0c-0.1,0-0.2,0-0.4,0c0.4-0.5,0.6-0.9,0.9-1.3
			c1-1.6,2.1-3.1,3.1-4.6c1.3-2.1,2.7-4,4-6.1c0.2-0.4,0.6-0.9,0.9-1.2c0.1-0.2,0.2-0.2,0.5-0.2c4.4,0,8.8,0,13.2,0
			c0.1,0,0.2,0,0.4,0c2.8,0,5.5,0,8.3,0c0.1,0,0.2,0,0.4,0c0.2,0.1,0.1,0.2,0.1,0.4c-0.2,0.4-0.5,0.7-0.7,1.2c-0.6,1-1.2,1.8-2,2.8
			c-0.6,0.9-1.2,1.8-1.8,2.7c-0.1,0.1-0.1,0.2-0.2,0.2c-0.2,0.1-0.2-0.1-0.4-0.1c-1.2-0.9-2.6-1.7-3.8-2.6c-0.1,0-0.2,0.1-0.2,0.2
			c-0.6,0.9-1.2,1.7-1.7,2.6c-1.3,2-2.6,3.9-3.9,5.7C440.8,272.5,440.8,272.6,440.7,272.6z"/>
		<path class="st14" d="M446.8,263.7c1.1,0.7,2.2,1.5,3.3,2.2c0.4,0.2,0.6,0.5,1,0.6c0.1-0.1,0.2,0,0.2,0.1c0.9,0.6,1.7,1.1,2.6,1.7
			c0.1,0,0.1,0.1,0.1,0.1c0.1,0.1,0,0.2-0.1,0.2c-0.9,1.2-1.7,2.6-2.6,3.8l-0.1,0.1c0,0.1,0.1,0.1,0.2,0.2c2.1,1.5,4.2,2.8,6.4,4.3
			c0.7,0.5,1.5,1,2.2,1.5c0.1,0.1,0.1,0.1,0.2,0.2c0,0.1,0,0.1,0,0.2c0,5.4,0,10.6,0,16c0,0.1,0,0.1,0,0.2c-0.4-0.2-0.7-0.5-1.1-0.6
			c-1-0.7-2.1-1.3-3.1-2.1c-2-1.3-4-2.7-6.1-4c-1-0.7-2.1-1.3-3.1-2.1c-0.2-0.1-0.2-0.2-0.2-0.5c0-4.4,0-8.8,0-13.2
			c0-0.1,0-0.2,0-0.4c0-2.7,0-5.4,0-8.2C446.8,263.9,446.6,263.8,446.8,263.7z"/>
		<path class="st14" d="M453,263.5c0.9-1.3,1.8-2.7,2.7-4l0.1-0.1c-2-1.3-3.9-2.6-5.7-3.9c-1-0.6-1.8-1.2-2.8-1.8
			c-0.1-0.1-0.4-0.2-0.5-0.4c0-0.1,0-0.2,0-0.4c0-5.3,0-10.5,0-15.7c0-0.1-0.1-0.2,0-0.4c0.1-0.1,0.2,0.1,0.2,0.1
			c2.3,1.6,4.6,3.1,7,4.6c2,1.3,4,2.7,6,4c0.2,0.1,0.2,0.2,0.2,0.5c0,4.4,0,8.8,0,13.1c0,0.1,0,0.2,0,0.4c0,2.7,0,5.5,0,8.2
			c0,0.1,0,0.4-0.1,0.5c-1.3-0.9-2.6-1.8-3.9-2.7c-0.1-0.1-0.1-0.1-0.2-0.1c-0.1,0-0.2,0-0.2-0.1c-0.9-0.6-1.7-1.1-2.4-1.7
			C453.1,263.6,453,263.6,453,263.5z"/>
		<path class="st14" d="M520.8,264.7c0,1.2,0,2.4,0,3.7c0,0.7,0.2,1.5,0.9,2c0.5,0.4,1,0.6,1.6,0.7c0.4,0.1,0.7,0,1.1,0.1
			c0.4,0.1,0.5,0.5,0.5,0.9c0,0.2-0.4,0.6-0.6,0.6c-1.1,0-2.3-0.1-3.2-0.9c-0.9-0.6-1.2-1.3-1.5-2.3c-0.1-0.9-0.2-1.7-0.2-2.6
			c0-2,0-3.9,0-5.9c0-0.2,0-0.2-0.2-0.2c-2.4,0-4.8,0-7.2,0c-0.2,0-0.2,0-0.2,0.2c0,2.3,0,4.5,0,6.9c0,0.7,0.1,1.6,0.6,2.2
			c0.4,0.5,0.9,0.9,1.5,1c0.4,0.1,0.9,0.1,1.2,0.1c0.4,0,0.7,0.4,0.7,0.7c0,0.4-0.4,0.9-0.6,0.9c-1.1,0-2.2-0.1-3.2-0.9
			c-0.9-0.6-1.2-1.3-1.5-2.3c-0.1-0.5-0.1-1.1-0.1-1.7c0-2.3,0-4.5,0-6.9c0-0.2,0-0.2-0.2-0.2c-0.4,0-0.6,0-1,0
			c-0.5,0-0.7-0.4-0.7-0.9c0-0.4,0.4-0.9,0.9-0.7c0.4,0,0.6,0,1,0c0.2,0,0.2,0,0.2-0.2c0-1.3,0-2.7,0-3.9c0-0.5,0.2-0.7,0.7-0.9
			c0.5-0.1,0.9,0.2,0.9,0.6c0,1.3,0,2.8,0,4.2c0,0.2,0,0.2,0.2,0.2c2.4,0,4.8,0,7.2,0c0.2,0,0.2,0,0.2-0.2c0-1.3,0-2.6,0-3.9
			c0-0.2,0-0.5,0.2-0.6c0.2-0.2,0.5-0.4,1-0.2c0.2,0.1,0.5,0.5,0.5,0.9c0,1.3,0,2.7,0,3.9c0,0.2,0.1,0.4,0.4,0.4c0.6,0,1.2,0,1.8,0
			c0.5,0,0.9,0.4,0.9,0.7c0,0.5-0.4,0.9-0.9,0.7c-0.6,0-1.3,0-2,0c-0.2,0-0.2,0.1-0.2,0.2C520.8,262.2,520.8,263.5,520.8,264.7z"/>
		<path class="st14" d="M585,270.7c-1.1,1-2.3,1.6-3.8,2c-1.2,0.2-2.4,0.1-3.5-0.1c-0.7-0.2-1.5-0.5-2.2-1c-0.6-0.5-1.2-1.1-1.6-1.8
			c-0.4-0.6-0.6-1.3-0.7-2.1c0-0.2-0.1-0.5-0.1-0.7c0-2.3,0-4.5,0-6.9c0-0.5,0.2-0.9,0.7-0.9c0.5,0,0.9,0.4,0.9,0.9c0,2,0,4,0,6
			c0,0.7,0,1.6,0.4,2.3c0.4,0.9,0.9,1.5,1.7,2c1.1,0.6,2.3,1,3.5,0.9c1.5-0.1,2.8-0.6,3.8-1.8c0.6-0.7,1-1.7,1-2.7
			c0-2.2,0-4.4,0-6.6c0-0.4,0.1-0.6,0.4-0.7c0.4-0.1,0.6-0.1,1,0.1c0.2,0.2,0.2,0.5,0.2,0.9c0,1.5,0,2.9,0,4.4c0,2.4,0,4.9,0,7.3
			c0,0.9,0,1.7-0.4,2.6c-0.4,0.9-0.9,1.6-1.6,2.2c-0.5,0.4-1.1,0.9-1.6,1.1c-0.6,0.2-1.3,0.5-2,0.6c-0.6,0.1-1.2,0.1-1.8,0
			c-1.3-0.1-2.4-0.5-3.5-1.3c-0.7-0.6-1.5-1.2-2-2.1c-0.1-0.2-0.4-0.6-0.2-1c0.1-0.4,0.2-0.5,0.6-0.6c0.4-0.1,0.6,0.1,0.9,0.4
			c0.4,0.6,0.7,1.1,1.2,1.6c0.9,0.7,1.8,1.2,2.9,1.5c1,0.1,2,0.1,2.9-0.2c0.6-0.2,1.1-0.6,1.6-1c0.7-0.6,1.1-1.3,1.3-2.2
			c0.1-0.2,0-0.4,0-0.6C585,271.9,585,271.3,585,270.7z"/>
		<path class="st14" d="M460.2,268.2c0-2.9,0-5.7,0-8.7c0-0.1,0-0.2,0.1-0.4c2,0,3.8,0,5.7,0c0.1,0,0.2,0,0.4,0
			c-0.2,0.5-0.5,0.9-0.7,1.2c-0.6,0.9-1.1,1.7-1.7,2.6c-1.1,1.7-2.3,3.4-3.4,5.1C460.3,268.2,460.3,268.4,460.2,268.2z"/>
		<path class="st14" d="M446.8,253.1c0.5,0.2,0.7,0.5,1.2,0.7c1.5,1,2.9,2,4.4,2.9c1.1,0.7,2.2,1.5,3.3,2.2c0,0,0.2,0,0.1,0.1
			c-2.9,0-5.9,0-8.8,0c-0.1,0-0.2,0-0.4-0.1c0-1.8,0-3.8,0-5.6C446.8,253.3,446.8,253.2,446.8,253.1z"/>
		<path class="st14" d="M460.2,278.7c-0.7-0.4-1.3-0.9-2.1-1.3c-0.9-0.5-1.6-1.1-2.3-1.6c-1.5-1-2.9-2-4.5-3.1c0,0-0.4,0-0.1-0.2
			c2.9,0,5.7,0,8.7,0c0.1,0,0.2,0,0.4,0.1c0,2,0,3.8,0,5.7C460.2,278.5,460.2,278.6,460.2,278.7z"/>
		<path class="st14" d="M446.8,263.7c0,2.9,0,5.7,0,8.7c0,0.1,0,0.2-0.1,0.4c-1.8,0-3.7,0-5.6,0c-0.1,0-0.4,0-0.5,0
			c0.4-0.6,0.7-1.2,1.2-1.8c1-1.5,2-2.9,2.9-4.4c0.6-0.9,1.1-1.7,1.7-2.6C446.6,263.8,446.6,263.6,446.8,263.7z"/>
		<path class="st14" d="M527,265.9c0-2,0-3.9,0-6c0-0.5,0.4-0.7,0.7-0.7c0.5,0,0.9,0.4,0.9,0.7c0,4,0,8,0,12c0,0.5-0.4,0.7-0.9,0.7
			c-0.5,0-0.7-0.4-0.7-0.7C527,269.9,527,267.9,527,265.9z"/>
		<path class="st14" d="M549.6,265.9c0,2,0,4,0,6c0,0.5-0.4,0.7-0.7,0.7c-0.5,0-0.7-0.4-0.7-0.7c0-4,0-8,0-12c0-0.5,0.4-0.7,0.7-0.7
			c0.5,0,0.7,0.4,0.7,0.7C549.6,262,549.6,263.9,549.6,265.9z"/>
		<path class="st14" d="M505.5,265.9c0,2,0,4,0,6c0,0.5-0.4,0.7-0.7,0.7c-0.5,0-0.9-0.4-0.9-0.7c0-3.9,0-8,0-11.9
			c0-0.4,0.1-0.6,0.5-0.9c0.2-0.1,0.6,0,0.9,0.2c0.1,0.1,0.1,0.2,0.1,0.5C505.5,261.9,505.5,263.9,505.5,265.9z"/>
		<path class="st14" d="M570.1,265.9c0,2,0,4,0,6c0,0.5-0.4,0.7-0.7,0.7c-0.4,0-0.9-0.4-0.9-0.7c0-4,0-8,0-12c0-0.5,0.4-0.7,0.9-0.7
			c0.4,0,0.7,0.4,0.7,0.7C570.1,261.9,570.1,263.9,570.1,265.9z"/>
		<path class="st14" d="M526.8,291c0.1,0.1,0.2,0,0.4,0.1c0.2,0.1,0.4,0.2,0.4,0.4c0,0.2-0.1,0.4-0.2,0.5c-0.4,0.2-0.7,0.1-1.1,0
			c-0.1,0-0.1-0.1-0.1-0.2c0-0.1,0.1-0.1,0.1-0.1c0.2,0,0.5,0.1,0.6,0c0.1,0,0.1-0.1,0.1-0.2c0-0.1-0.1-0.1-0.2-0.1s-0.1,0-0.2,0
			c-0.1,0-0.2,0.1-0.2,0c0-0.1,0-0.2,0.1-0.4c0,0,0-0.1,0.1-0.1c-0.2-0.1-0.5-0.1-0.7-0.2c-0.4-0.1-0.6-0.4-0.6-0.7
			c0-0.1-0.1-0.2,0-0.2c0.1,0,0.4-0.1,0.5,0.1c0.2,0.6,0.6,0.6,1.2,0.6c0.2,0,0.6,0,0.9-0.1c0.2-0.1,0.4-0.2,0.4-0.5
			c0-0.2-0.1-0.4-0.4-0.4c-0.4-0.1-0.7-0.1-1.2-0.2c-0.4,0-0.7-0.1-1-0.4c-0.4-0.4-0.2-1.1,0.4-1.5c0.7-0.4,1.5-0.2,2.2,0
			c0.2,0.1,0.4,0.4,0.5,0.6c0,0.1,0.1,0.2-0.1,0.2c-0.1,0-0.4,0.1-0.5-0.1c-0.2-0.5-0.7-0.7-1.3-0.6c-0.1,0-0.4,0-0.5,0.1
			c-0.2,0.1-0.2,0.2-0.2,0.5c0,0.1,0.1,0.2,0.2,0.2c0.5,0.1,1,0.1,1.5,0.2c0.2,0,0.5,0.1,0.6,0.2c0.5,0.4,0.4,1.3-0.1,1.6
			c-0.2,0.1-0.6,0.2-0.9,0.2C526.9,290.9,526.8,290.9,526.8,291z"/>
		<path class="st14" d="M533.1,288.9c0.5-0.4,1-0.7,1.3-1.1c0.2-0.1,0.4-0.4,0.6-0.5c0.2-0.1,0.5,0,0.9-0.1c0,0.1-0.1,0.1-0.1,0.2
			c-0.5,0.4-0.9,0.7-1.3,1c-0.1,0.1-0.1,0.1,0,0.2c0.2,0.4,0.5,0.6,0.9,1c0.2,0.4,0.6,0.6,0.9,1c-0.5,0.1-0.9,0-1.2-0.5
			c-0.2-0.4-0.6-0.7-0.9-1L534,289c-0.1,0-0.6,0.5-0.6,0.6c0,0.2,0,0.6,0,0.9c0,0.2-0.2,0.1-0.4,0.1c-0.1,0-0.2,0.1-0.2-0.1
			c0-1.6,0-3.1,0-4.6c0-0.2,0.2-0.1,0.4-0.1c0.1,0,0.2,0,0.2,0.2c0,0.9,0,1.7,0,2.4C533.1,288.5,533.1,288.7,533.1,288.9z"/>
		<path class="st14" d="M570.1,255.8c0,0.4,0,0.6,0,1s-0.4,0.7-0.7,0.7c-0.5,0-0.9-0.4-0.9-0.6c0-0.6,0-1.3,0-2
			c0-0.4,0.4-0.7,0.7-0.7c0.5,0,0.7,0.4,0.7,0.7C570.1,255.1,570.1,255.4,570.1,255.8z"/>
		<path class="st14" d="M549.6,255.8c0,0.4,0.1,0.7,0,1.1c-0.1,0.4-0.5,0.5-0.9,0.5c-0.4,0-0.6-0.4-0.6-0.7c0-0.6,0-1.3,0-2
			c0-0.4,0.4-0.7,0.7-0.7s0.7,0.4,0.7,0.7C549.6,255,549.6,255.4,549.6,255.8z"/>
		<path class="st14" d="M528.6,255.8c0,0.4,0,0.6,0,1s-0.2,0.7-0.9,0.7c-0.4,0-0.7-0.4-0.7-0.7c0-0.6,0-1.2,0-1.8
			c0-0.5,0.4-0.9,0.7-0.9s0.9,0.4,0.9,0.7S528.6,255.4,528.6,255.8z"/>
		<path class="st14" d="M505.5,255.8c0,0.2,0,0.6,0,0.9c0,0.5-0.4,0.7-0.7,0.7c-0.5,0-0.9-0.2-0.9-0.7c0-0.6,0-1.2,0-1.8
			c0-0.4,0.4-0.7,0.7-0.7c0.5,0,0.7,0.4,0.7,0.9C505.5,255.1,505.5,255.4,505.5,255.8z"/>
		<path class="st14" d="M540.7,289c0-0.4,0-0.7,0-1.1c0-0.2,0-0.2-0.2-0.2c-0.1,0-0.2,0-0.2,0c-0.1,0-0.1-0.1-0.1-0.2
			c0-0.1,0-0.2,0.2-0.2c0.5,0,0.5,0,0.5-0.6c0-0.1,0-0.1,0-0.1c0-0.2,0-0.4,0.2-0.4c0.2,0,0.2,0.1,0.2,0.2c0,0.2-0.1,0.6,0,0.7
			c0.1,0.1,0.5,0,0.7,0.1c0.1,0,0.2,0,0.2,0.2c0,0.1,0,0.2-0.2,0.2c-0.2,0-0.4,0-0.6,0c-0.1,0-0.1,0-0.1,0.1c0,0.7,0,1.3,0,2.1
			c0,0.4,0.2,0.5,0.6,0.4s0.4,0,0.4,0.2c0,0.1-0.1,0.1-0.2,0.1c-0.2,0-0.5,0-0.6,0c-0.4,0-0.6-0.2-0.6-0.7
			C540.7,289.8,540.7,289.4,540.7,289z"/>
		<path class="st14" d="M493.3,287.9c0.4-0.5,0.6-0.6,1.1-0.7c0.4,0,0.5,0.1,0.5,0.4s-0.1,0.2-0.2,0.2c-0.4,0-0.7,0-1.1,0.4
			c-0.2,0.2-0.2,0.5-0.2,0.7c0,0.6,0,1.1,0,1.7c0,0.2-0.1,0.2-0.4,0.2c-0.1,0-0.2,0-0.2-0.2c0-1,0-2,0-2.9c0-0.2,0.1-0.2,0.4-0.2
			c0.2,0,0.4,0,0.2,0.2C493.3,287.7,493.3,287.7,493.3,287.9z"/>
		<path class="st14" d="M550.1,287.9c0.2-0.5,0.6-0.6,1.1-0.7c0.1,0,0.2,0,0.4,0.1c0.1,0.1,0.1,0.2,0,0.5c0,0.1-0.2,0.1-0.4,0.1
			c-0.5,0-0.9,0.1-1.1,0.6c-0.1,0.2-0.1,0.5-0.1,0.7c0,0.5,0,1,0,1.5c0,0.2-0.1,0.2-0.2,0.2s-0.2,0-0.2-0.2c0-1,0-2,0-3.1
			c0-0.2,0.1-0.2,0.2-0.2s0.2,0,0.2,0.2C550,287.6,550,287.7,550.1,287.9C550,287.9,550,287.9,550.1,287.9z"/>
		<path class="st14" d="M530.7,287.8c0.4-0.4,0.7-0.6,1.1-0.7c0.1,0,0.4,0,0.4,0.1c0.1,0.1,0,0.2,0,0.4c0,0.1-0.1,0.1-0.2,0.1
			c-0.2,0-0.6,0-0.9,0.1c-0.4,0.2-0.5,0.5-0.5,0.9c0,0.5,0,1.1,0,1.6c0,0.2,0,0.2-0.2,0.2c-0.2,0-0.2-0.1-0.2-0.2c0-1,0-2,0-2.9
			c0-0.2,0.1-0.2,0.2-0.2c0.2,0,0.2,0,0.2,0.2C530.6,287.6,530.7,287.7,530.7,287.8z"/>
		<path class="st14" d="M491.4,289c0-0.5,0-1,0-1.5c0-0.2,0.1-0.2,0.2-0.2s0.2,0,0.2,0.2c0,1,0,2.1,0,3.1c0,0.2-0.1,0.2-0.2,0.2
			s-0.2,0-0.2-0.2C491.5,290,491.4,289.5,491.4,289z"/>
		<path class="st14" d="M529.3,289c0,0.5,0,1,0,1.5c0,0.2-0.1,0.2-0.2,0.2s-0.2,0-0.2-0.2c0-1,0-2.1,0-3.1c0-0.2,0.1-0.2,0.2-0.2
			s0.2,0,0.2,0.2C529.3,287.9,529.3,288.5,529.3,289z"/>
		<path class="st14" d="M543.2,289c0,0.5,0,1,0,1.5c0,0.2,0,0.2-0.2,0.2c-0.2,0-0.2,0-0.2-0.2c0-1,0-2,0-2.9c0-0.2,0.1-0.2,0.2-0.2
			c0.2,0,0.2,0,0.2,0.2C543.2,288,543.2,288.5,543.2,289z"/>
		<path class="st14" d="M548.8,289c0,0.5,0,1,0,1.5c0,0.2-0.1,0.2-0.2,0.2c-0.2,0-0.2,0-0.2-0.2c0-1,0-2,0-2.9
			c0-0.2,0.1-0.2,0.2-0.2c0.2,0,0.2,0,0.2,0.2C548.8,288,548.8,288.5,548.8,289z"/>
		<path class="st14" d="M548.8,286.6c-0.1,0.1,0.1,0.4-0.2,0.4c-0.2,0-0.4,0-0.4-0.4v-0.1c0-0.2,0-0.4,0.2-0.4
			C548.8,286.2,548.8,286.3,548.8,286.6C548.8,286.5,548.8,286.6,548.8,286.6z"/>
		<path class="st14" d="M491.4,286.6c0-0.1-0.1-0.4,0.2-0.4c0.2,0,0.4,0.1,0.2,0.2c0,0.1,0,0.1,0,0.1c0,0.2,0,0.4-0.2,0.4
			C491.5,286.9,491.4,286.8,491.4,286.6L491.4,286.6z"/>
		<path class="st14" d="M542.7,286.6c0-0.1-0.1-0.4,0.2-0.4c0.2,0,0.4,0.1,0.4,0.4v0.1c0,0.2,0,0.4-0.2,0.4
			C542.7,286.9,542.7,286.8,542.7,286.6L542.7,286.6z"/>
		<path class="st14" d="M528.9,286.6c0.1-0.1-0.1-0.4,0.2-0.4c0.2,0,0.4,0,0.4,0.4v0.1c0,0.2,0,0.4-0.2,0.4
			C528.9,286.9,528.9,286.8,528.9,286.6L528.9,286.6z"/>
		<path class="st14" d="M523.6,287.3c-0.4,0-0.9,0-1.2,0c-0.1,0-0.2,0.1-0.4,0.2c-0.2,0.4-0.4,0.7-0.6,1.2c-0.5,1.1-1.1,2.2-1.6,3.3
			c-0.1-0.1-0.1-0.1-0.1-0.2c-0.7-1.3-1.3-2.8-2.1-4.2c-0.1-0.1-0.1-0.2-0.4-0.2c-0.4,0-0.7,0-1.2,0c-0.2,0-0.4,0-0.2,0.2v0.1
			c-0.1,0-0.2-0.1-0.4-0.2c-1.2-0.6-2.6-0.6-3.9-0.1c-0.7,0.2-1.1,0.7-1.3,1.5c0,0.2,0,0.2,0.2,0.2c0.4,0,0.6,0,1,0
			c0.2,0,0.4,0,0.4-0.2c0.1-0.2,0.2-0.4,0.4-0.5c0.4-0.4,0.9-0.2,1.3-0.2c1,0.1,1.2,0.5,1.3,1.2c0,0.1,0,0.2-0.2,0.2
			c-0.7,0-1.6,0-2.3,0c-1,0.1-1.8,0.2-2.4,1.1c0.1-1.6-0.5-2.7-2-3.3c-1.3-0.6-2.7-0.4-3.9,0.6c0-0.9,0-1.7,0-2.4
			c0-0.2,0.1-0.6-0.1-0.9c-0.1-0.1-0.5,0-0.7,0c-0.6,0-0.6,0-0.6,0.6c0,1.3,0,2.7,0,4c-0.4-1.1-1-1.8-2.2-2.1
			c-0.6-0.1-1.2-0.2-2-0.1c-1,0.1-1.8,0.5-2.4,1.3c-0.6,0.9-0.6,2-0.5,2.9c0.2,0.9,0.7,1.6,1.6,2c1.2,0.5,2.4,0.5,3.8,0
			c0.7-0.2,1.2-0.7,1.5-1.5c0.1-0.2,0-0.2-0.2-0.2c-0.4,0-0.7,0-1.1,0c-0.1,0-0.2,0-0.2,0.1c-0.1,0.1-0.2,0.4-0.4,0.5
			c-1.2,0.9-3.1,0.5-3.4-1.2c0-0.2,0-0.4,0.2-0.4c1.7,0,3.3,0,5,0c0.2,0,0.2,0,0.2,0.2c0,0.6,0,1.2,0,1.7c0,0.7,0,0.7,0.7,0.7
			c0.6,0,0.6,0,0.7-0.7l0,0c0.9,0.9,1.8,1,2.9,0.9c1.2-0.1,2.2-0.7,2.7-2c0.1,0.9,0.5,1.5,1.2,1.7c0.2,0.1,0.6,0.2,0.9,0.2
			c0.7,0,1.5,0.1,2.2-0.2c0.4-0.1,0.6-0.5,1-0.7c0,0.2,0,0.4,0,0.6c0,0.2,0.1,0.2,0.2,0.2c0.2,0,0.6,0,0.9,0s0.2-0.1,0.2-0.2
			c0-0.5,0-1,0-1.5c0-0.7,0.1-1.6,0-2.3c0-0.1,0-0.2,0-0.5c0.9,1.5,1.6,2.9,2.3,4.4c0.1,0.1,0.1,0.2,0,0.4c-0.2,0.4-0.4,0.6-0.5,1
			c-0.2,0.4-0.4,0.9-0.6,1.2c0.6,0,1.1,0,1.7,0c0-0.1,0-0.1,0.1-0.2c0.4-0.7,0.7-1.5,1.1-2.1c1-2,2-3.9,2.9-5.9
			C523.5,287.4,523.6,287.4,523.6,287.3z M501.1,289.8c-0.6,0-1.2,0-1.7,0c-0.6,0-1.2,0-1.8,0c-0.2,0-0.2,0-0.2-0.2
			c0.2-0.9,1-1.5,1.8-1.5c0.6,0,1.2,0.1,1.7,0.6c0.2,0.2,0.4,0.6,0.5,0.9C501.3,289.8,501.2,289.8,501.1,289.8z M508.3,291.3
			c-0.4,0.9-1.1,1.3-2,1.3c-1.1,0.1-1.8-0.7-2.1-1.7c-0.1-0.6,0-1.1,0.2-1.7c0.5-1,1.7-1.3,2.6-1.1c1,0.2,1.3,1.1,1.5,2
			C508.5,290.5,508.4,290.9,508.3,291.3z M515,290.9c-0.1,1-0.5,1.6-1.5,1.8c-0.6,0.1-1.2,0.1-1.8-0.2c-0.5-0.4-0.7-1.2,0.1-1.6
			c0.4-0.1,0.7-0.2,1.2-0.2c0.2,0,0.5,0,0.9,0c0.2,0,0.6,0,0.9,0C515,290.5,515,290.6,515,290.9z"/>
		<path class="st14" d="M545.1,265.9c0-0.7-0.1-1.5-0.4-2.1c-0.4-1.3-1.2-2.4-2.3-3.2c-1.1-0.9-2.3-1.3-3.8-1.3c-0.4,0-0.7,0-1.1,0
			c-0.7,0.1-1.5,0.2-2.1,0.6c-1,0.5-1.8,1.2-2.6,2.1c-0.9,1.1-1.2,2.3-1.3,3.8c0,0.4,0,0.9,0,1.2c0.1,0.6,0.2,1.2,0.5,1.8
			c0.6,1.3,1.6,2.3,2.8,3.1c0.9,0.5,1.8,0.7,2.8,0.9c0.6,0,1.3,0,2-0.1s1.2-0.4,1.7-0.6c0.7-0.4,1.5-1,2.1-1.6c0,0.1,0,0.2,0,0.4
			c0,0.7,0,1.3,0,2.1c0,0.2,0,0.5-0.1,0.6c-0.4,1.3-1.2,2.3-2.4,2.9c-1.1,0.6-2.2,0.7-3.4,0.5c-1.2-0.1-2.2-0.6-3.1-1.5
			c-0.5-0.5-0.9-1-1.2-1.5c-0.2-0.4-0.7-0.5-1.2-0.2c-0.4,0.2-0.4,0.6-0.2,1.1c0.4,0.7,1,1.3,1.6,2s1.3,1,2.1,1.3
			c1.2,0.5,2.4,0.6,3.7,0.5c0.9-0.1,1.6-0.2,2.3-0.6c0.9-0.5,1.7-1.1,2.3-1.8c0.7-0.9,1.1-2,1.1-3.1
			C545.1,270.6,545.1,268.2,545.1,265.9z M538.3,271.2c-2.7,0.1-5.4-2.4-5.1-5.5c0.1-2.4,2.3-5,5.4-4.9c2.7,0.1,5,2.3,5,5.3
			C543.5,268.7,541.1,271.3,538.3,271.2z"/>
		<path class="st14" d="M500.6,265.3c0-0.7-0.2-1.5-0.5-2.1c-0.5-1-1.1-1.8-2.1-2.6c-1.1-0.9-2.3-1.3-3.8-1.5c-0.4,0-0.7,0-1.1,0
			c-0.7,0.1-1.5,0.2-2.1,0.6c-1,0.5-1.8,1.2-2.6,2.1c-0.9,1.1-1.2,2.3-1.3,3.7c0,0.5,0,1,0,1.3c0.1,1,0.4,1.8,0.9,2.6
			c0.6,1,1.3,1.7,2.3,2.3c1,0.6,2,0.9,3.1,0.9c0.5,0,0.9,0,1.3,0c0.6-0.1,1.2-0.2,1.7-0.5c1-0.4,1.8-1,2.6-1.8c0,0.6,0,1.1,0,1.6
			c0,0.5,0,1-0.1,1.5c-0.2,1-0.9,1.8-1.7,2.4c-1,0.7-2.2,1.1-3.4,1.1c-0.2,0-0.5,0-0.7,0c-0.6-0.1-1.2-0.2-1.8-0.6
			c-1-0.6-1.8-1.3-2.4-2.4c-0.1-0.4-0.7-0.5-1.1-0.2c-0.2,0.1-0.4,0.5-0.4,0.9c0.1,0.4,0.2,0.6,0.4,0.9c0.5,0.6,1,1.2,1.7,1.7
			c1.1,1,2.4,1.3,3.9,1.5c0.5,0,1,0,1.3,0c0.7-0.1,1.6-0.2,2.2-0.6c0.9-0.5,1.7-1.1,2.3-1.8c0.7-0.9,1.1-1.8,1.1-3.1
			C500.6,270.4,500.7,267.9,500.6,265.3z M493.9,271.2c-2.7,0.1-5.4-2.4-5.1-5.5c0.1-2.4,2.3-5,5.4-4.9c2.7,0.1,5,2.2,5,5.3
			C499.1,268.7,496.7,271.3,493.9,271.2z"/>
		<path class="st14" d="M565.4,262.8c0-2.7,0-5.4,0-8.1c0-0.4-0.2-0.6-0.5-0.7c-0.6-0.1-1.1,0.1-1.1,0.9c0,2.2,0,4.3,0,6.6
			c-0.6-0.6-1.1-1.1-1.7-1.5c-0.7-0.5-1.6-0.7-2.3-0.9c-0.6-0.1-1.2-0.1-1.8,0c-0.7,0.1-1.3,0.2-2,0.5c-1,0.5-1.8,1.1-2.6,2
			c-0.5,0.6-0.9,1.2-1.1,2c-0.2,0.9-0.4,1.7-0.4,2.6c0,1,0.2,1.8,0.6,2.7c0.5,0.9,1.1,1.6,1.8,2.3c1.1,1,2.4,1.5,3.9,1.5
			c0.4,0,0.7,0,1.1,0c0.6-0.1,1.3-0.2,2-0.5c1-0.5,1.8-1.1,2.6-2c0.9-1.1,1.3-2.3,1.5-3.7C565.4,265.2,565.4,264.1,565.4,262.8z
			 M558.5,271.2c-1.3-0.1-2.6-0.6-3.5-1.6c-1-1-1.5-2.2-1.5-3.5c0-1.5,0.5-2.7,1.6-3.7c1.1-1.1,2.3-1.6,3.9-1.5
			c2.4,0.1,5,2.3,4.9,5.3C564,268.7,561.5,271.3,558.5,271.2z"/>
		<path class="st14" d="M596,259.2c-4-0.2-7.2,3.2-7.1,6.7c-0.1,3.8,3.1,6.6,6.4,6.7c4.2,0.2,7.1-3.2,7.2-6.7
			C602.4,262.1,599.3,259.3,596,259.2z M599.1,269.8c-1,0.9-2.2,1.3-3.5,1.3c-2.6,0.1-5.4-2.3-5.1-5.6c0.1-2.3,2.3-5,5.4-4.8
			c1.5,0.1,2.6,0.6,3.5,1.7c1,1,1.3,2.2,1.3,3.5C600.8,267.5,600.2,268.7,599.1,269.8z"/>
		<path class="st14" d="M490.7,287.9c-0.4-0.5-0.9-0.7-1.5-0.7c-0.6-0.1-1.1,0.2-1.6,0.6c0-0.6,0-1.2,0-1.8c0-0.2-0.1-0.2-0.2-0.2
			c-0.2,0-0.2,0-0.2,0.2c0,0.7,0,1.5,0,2.2c0,0.7,0,1.5,0,2.3c0,0.1,0,0.2,0.1,0.2c0.2,0.1,0.5,0,0.5-0.4c0-0.1,0-0.1,0-0.2
			c0.5,0.9,2,1,2.7,0.2C490.9,289.9,491.2,288.8,490.7,287.9z M489,290.4c-0.7,0-1.5-0.6-1.3-1.3c0-0.9,0.6-1.5,1.3-1.3
			c0.9,0,1.3,0.5,1.3,1.3C490.4,289.8,490,290.4,489,290.4z"/>
		<path class="st14" d="M547.6,286.1c0-0.2,0-0.2-0.2-0.2s-0.2,0-0.2,0.2c0,0.6,0,1.1,0,1.8c-0.4-0.5-0.9-0.7-1.3-0.7
			c-0.5,0-1,0.1-1.3,0.5c-0.6,0.6-0.6,2,0,2.6c0.2,0.2,0.6,0.5,1,0.5c0.6,0.1,1.2,0,1.7-0.6c0,0.1,0,0.1,0,0.2c0,0.2,0,0.4,0.2,0.4
			c0.2,0,0.2-0.1,0.2-0.4C547.6,288.9,547.6,287.6,547.6,286.1z M545.6,290.4c-0.7,0.1-1.3-0.6-1.3-1.3c0-0.9,0.6-1.3,1.3-1.3
			c0.9,0,1.3,0.5,1.3,1.3C547.1,289.9,546.5,290.5,545.6,290.4z"/>
		<path class="st14" d="M536.7,289.1c0.5,0,1,0,1.5,0s1,0,1.5,0c0.1,0,0.2,0,0.2-0.1c-0.1-0.2,0-0.4-0.1-0.6c-0.4-1.3-2.1-1.5-2.9-1
			c-0.5,0.2-0.7,0.7-0.9,1.3s0.1,1.5,0.7,1.8c0.6,0.4,1.2,0.4,1.8,0.2s1-0.5,1.2-1c0-0.1,0.1-0.1,0-0.2s-0.5,0-0.5,0.1
			c-0.1,0.4-0.5,0.5-0.9,0.6c-0.1,0-0.4,0-0.5,0c-0.6,0-1.1-0.4-1.2-1C536.6,289.1,536.6,289.1,536.7,289.1z M536.6,288.5
			c0.1-0.4,0.4-0.6,0.7-0.7c0.7-0.4,1.7,0.1,1.8,0.7c0,0.2,0,0.2-0.1,0.2c-0.4,0-0.7,0-1.2,0c-0.4,0-0.7,0-1.1,0
			C536.4,288.8,536.6,288.7,536.6,288.5z"/>
	</g>
	<g id="Layer_3">
		<g>
			<g>
				<g>
					<path class="st14" d="M131.1,265v7.6h6.2v3.1c0,0-0.1,0.6-0.6,0.9c-1.3,0.6-2.6,0.6-3.8,0.5c-2.6,0-4.8-0.9-6.5-2.8
						c-2.1-2.6-2.4-5.4-1.6-8.4c1-3.7,3.9-5.6,7-5.9c3.2-0.2,5.9,0.9,8.3,2.7c0.2,0.2,0.6,0.5,0.6,0.5l6.7-8.2c0,0-0.1-0.1-0.4-0.4
						c-0.1-0.1-0.2-0.1-0.4-0.2c-0.4-0.4-0.9-0.6-1.2-1c-3.3-2.2-6.7-3.4-10.6-3.8c-3.1-0.2-6.1-0.1-9.1,0.9
						c-7.1,2.4-11.6,7.2-13,14.7c-0.1,0.5-0.2,1.8-0.4,2.1l-6.9-16.4H93.5L83,274.8v-24H70.4c0,0-6.7,11-7.6,12.5
						c-0.9-1.5-7.6-12.5-7.6-12.5H42.4v36.1h11.1h0.9v-18l8.4,13l0,0l0,0l0,0l0,0l8.4-13v18h0.9H83l0,0h8l0,0l1.8-4.8h13l1.7,4.8h13
						l-1.8-4.3c1.1,0.7,2.2,1.3,3.3,2c4.5,2.3,9.3,2.9,14.2,2.3c4.3-0.5,8.3-2.2,11.7-4.8l0.5-0.4V265H131.1z M99.3,273.5H96
						l3.3-8.9l3.3,8.9H99.3z"/>
					<path class="st14" d="M42.5,250.9c2.4,2.4,4.4,5.4,5.1,8.8c1.6,7-0.1,13-5.4,17.9c0-1.2,0-4.2,0-4.2h-0.6h-22
						c0,0,0,0.2,0.1,0.6c1,2.3,2.9,3.7,5.3,4.2c3.1,0.6,6,0.2,8.6-1.6c0.2-0.1,0.5-0.4,0.5-0.4l0.4,0.5c0,0,2.2,2.7,3.2,3.9
						c-3.5,1.6-7.3,2.1-11.3,1.3c-10-1.8-16.6-12.1-14.2-21.9c0.7-2.9,2.1-5.4,3.9-7.7c1.6-1,3.4-1.5,5.3-1.8
						c2.3-0.5,4.8-0.5,7.2-0.1c5.6,0.7,10.2,3.3,13.1,8.2c0,0.1,0.1,0.2,0.4,0.6c0-1.5,0-3.4,0-4.9c0-0.9,0-2.7,0-2.7V251
						C42.4,250.9,42.5,250.9,42.5,250.9z M25.6,265.7c2,0,4,0,6,0c0.2,0,0.6,0,0.6,0s0-0.2,0-0.4c-0.7-4.4-4.3-6.9-8.7-5.6
						c-2.6,0.7-3.7,2.8-4.4,5.1c-0.1,0.4-0.1,0.7-0.1,0.7s0.5,0,0.7,0C21.7,265.5,23.7,265.7,25.6,265.7z"/>
					<path class="st14" d="M16.3,252.2c-1.8,2.3-3.2,4.8-3.9,7.7c-2.4,9.8,4.2,20.2,14.2,21.9c3.9,0.7,7.6,0.2,11.3-1.3
						c0.7,0.9,1.3,1.7,2.1,2.6c0.2,0.2,0.2,0.4,0.2,0.4s-0.4,0.2-0.4,0.4c-2.7,2-5.6,3.2-8.9,3.7c-2.3,0.4-4.6,0.4-7,0.1
						c-7.6-0.9-15.4-5.3-17.2-14.6c-1.3-7,0.4-13.2,5.9-18.2C13.6,253.7,14.9,252.8,16.3,252.2z"/>
				</g>
			</g>
			<g>
				<path class="st14" d="M147.6,248.9c0.2,0,0.5,0.1,0.7,0.2c0.2,0.1,0.5,0.4,0.6,0.6s0.2,0.5,0.2,0.7c0,0.2-0.1,0.5-0.2,0.7
					c-0.1,0.2-0.4,0.5-0.6,0.6c-0.2,0.1-0.5,0.2-0.7,0.2s-0.5-0.1-0.7-0.2c-0.2-0.1-0.5-0.4-0.6-0.6c-0.1-0.2-0.2-0.5-0.2-0.7
					c0-0.2,0.1-0.5,0.2-0.7s0.4-0.5,0.6-0.6C147,249,147.2,248.9,147.6,248.9z M147.6,249.3c-0.2,0-0.4,0-0.6,0.1
					c-0.2,0.1-0.4,0.2-0.5,0.5c-0.1,0.2-0.1,0.4-0.1,0.6c0,0.2,0,0.4,0.1,0.6c0.1,0.2,0.2,0.4,0.5,0.5c0.2,0.1,0.4,0.1,0.6,0.1
					s0.4,0,0.6-0.1c0.2-0.1,0.4-0.2,0.5-0.5c0.1-0.2,0.1-0.4,0.1-0.6c0-0.2,0-0.4-0.1-0.6c-0.1-0.2-0.2-0.4-0.5-0.5
					C148,249.3,147.7,249.3,147.6,249.3z M146.9,251.3v-1.7h0.4c0.4,0,0.5,0,0.5,0c0.1,0,0.2,0,0.2,0.1c0.1,0,0.1,0.1,0.1,0.1
					c0,0.1,0.1,0.1,0.1,0.2s0,0.2-0.1,0.4c-0.1,0.1-0.2,0.1-0.4,0.1c0,0,0.1,0,0.1,0.1l0.1,0.1c0,0,0,0.1,0.1,0.2l0.2,0.4H148
					l-0.1-0.2c-0.1-0.2-0.1-0.2-0.2-0.4c-0.1,0-0.1-0.1-0.2-0.1h-0.1v0.7h-0.4V251.3z M147.2,250.4h0.1c0.2,0,0.4,0,0.4,0
					s0.1,0,0.1-0.1v-0.1V250l-0.1-0.1c0,0-0.1,0-0.4,0h-0.1V250.4L147.2,250.4z"/>
			</g>
		</g>
	</g>
	<g>
		<path class="st14" d="M7,163.4c0-18.6,18.5-33.6,41.2-33.6s41.2,15,41.2,33.6S71,197,48.3,197S7,182,7,163.4L7,163.4z M48.3,188.7
			c21.4,0,38.9-11.3,38.9-25.3c0-14.1-17.5-25.2-38.9-25.2S9.4,149.4,9.4,163.4C9.4,177.3,26.7,188.7,48.3,188.7L48.3,188.7z"/>
		<path class="st14" d="M26.6,159.6h5c-0.2-2.7-2.9-6.9-8.9-6.9S13,157.3,13,163c0,5.7,4.4,10,10,10s8.6-3.7,8.7-7.3H27
			c-0.6,1.7-1.1,3.4-4.3,3.4c-2.3,0-4.8-1.5-4.8-6.2c0-4.9,2.6-6.4,4.6-6.4C24.8,156.6,26.4,158.1,26.6,159.6L26.6,159.6z"/>
		<path class="st14" d="M53.2,153.3v19.4l5.1,0.1v-11.5c0.4-2.4,2.4-4.3,5.7-4.3v-4c-2.6,0-3.8,0.4-5.9,2.8v-2.6H53.2L53.2,153.3z"
			/>
		<path class="st14" d="M42.1,152.6c4.5,0,10.2,3.3,10.2,10.8c0,7.5-6.6,9.8-10,9.8s-10.4-2-10.4-10.4
			C31.9,155.4,37.9,152.6,42.1,152.6L42.1,152.6z M36.9,162.8c0,5.5,3.2,6.6,5.3,6.6c2.2,0,5.3-1.6,5.3-6.5s-3.2-6.6-5.4-6.6
			C39.7,156.4,36.9,158.2,36.9,162.8L36.9,162.8z"/>
		<path class="st14" d="M72.5,152.7c7.8,0,8.6,4.8,8.6,6.1V169c0,0.5,0.2,2.8,1,3.7h-4.9c-0.4-0.5-0.7-1.5-0.7-1.5
			c-0.7,0.2-1.8,1.8-6.1,1.8s-7.3-2.4-7.3-5.6c0-3.2,2.3-5.3,7.2-6.1c4.9-0.9,5.6-1.2,5.6-2.6c0-1.3-1.5-2.6-3.5-2.6s-3.5,1-3.8,2.8
			h-4.5C64.2,158.1,64.6,152.7,72.5,152.7L72.5,152.7z M72,164c-2,0.4-3.9,1.2-3.9,3.1c0,1.7,1.6,2.6,3.7,2.6c2.1,0,4.4-1.2,4.4-2.9
			V163C75.5,163.4,73.6,163.6,72,164L72,164z"/>
	</g>
</g>
<g id="fill_color">
</g>
<g id="char">
</g>
<g id="Layer_2">
</g>
</svg>
