<?xml version="1.0" encoding="utf-8"?>
<!-- Generator: Adobe Illustrator 21.1.0, SVG Export Plug-In . SVG Version: 6.00 Build 0)  -->
<svg version="1.1" xmlns="http://www.w3.org/2000/svg" xmlns:xlink="http://www.w3.org/1999/xlink" x="0px" y="0px"
	 viewBox="0 0 658 1024" style="enable-background:new 0 0 658 1024;" xml:space="preserve">
<style type="text/css">
	.st0{fill:#F1F5FC;}
	.st1{fill-rule:evenodd;clip-rule:evenodd;fill:#E4E4E4;}
	.st2{fill:#FFFFFF;}
	.st3{fill:none;stroke:#FCFCFC;stroke-width:0.25;stroke-miterlimit:10;}
	.st4{fill:#C2DDFE;stroke:#C2DDFE;stroke-width:0.8289;stroke-miterlimit:10;}
	.st5{fill:#91FFD5;}
	.st6{fill:#E4E4E4;}
	.st7{fill:#DDEAFC;stroke:#DDEAFC;stroke-width:0.6126;stroke-miterlimit:10;}
	.st8{fill:#FFDEAC;}
	.st9{fill:#DDEAFC;}
	.st10{fill:#3B4B99;}
	.st11{fill:#6C3B00;}
	.st12{fill:#4DB1FF;}
	.st13{fill:#B9966D;}
	.st14{fill:#FFEF37;}
	.st15{fill:#A8C1F0;}
	.st16{opacity:0.7;fill:#DDEAFC;stroke:#DDEAFC;stroke-width:0.7235;stroke-miterlimit:10;}
	.st17{opacity:0.5;fill:#DDEAFC;stroke:#DDEAFC;stroke-width:0.7235;stroke-miterlimit:10;}
	.st18{fill:#E4E4E4;stroke:#E4E4E4;stroke-miterlimit:10;}
	.st19{fill:#E4E4E4;stroke:#E4E4E4;stroke-width:1.2014;stroke-miterlimit:10;}
	.st20{fill:#DAE4FC;}
	.st21{fill-rule:evenodd;clip-rule:evenodd;fill:#FFFFFF;}
	.st22{fill-rule:evenodd;clip-rule:evenodd;fill:#3BE2B4;}
	.st23{fill:#3BE2B4;}
	.st24{fill-rule:evenodd;clip-rule:evenodd;fill:#76FFD3;}
	.st25{fill:#E4E4E4;stroke:#E4E4E4;stroke-width:1.1223;stroke-miterlimit:10;}
	.st26{fill-rule:evenodd;clip-rule:evenodd;fill:#8FAFF5;}
	.st27{fill:#C0DBFC;}
	.st28{fill:#DDEAFC;stroke:#DDEAFC;stroke-width:0.7235;stroke-miterlimit:10;}
	.st29{fill:none;stroke:#9BB7F6;stroke-width:0.25;stroke-miterlimit:10;}
	.st30{fill:none;stroke:#DBE5FC;stroke-width:0.25;stroke-miterlimit:10;}
	.st31{fill:#4479EE;}
	.st32{fill:#92BEAE;}
	.st33{fill:#8FAFF5;}
	.st34{fill-rule:evenodd;clip-rule:evenodd;fill:#B4C9F8;}
	.st35{fill-rule:evenodd;clip-rule:evenodd;fill:#C2DDFE;stroke:#C2DDFE;stroke-width:0.8289;stroke-miterlimit:10;}
	.st36{fill:#E4E4E4;stroke:#E4E4E4;stroke-width:0.8047;stroke-miterlimit:10;}
	.st37{fill:#E4E4E4;stroke:#E4E4E4;stroke-width:0.9711;stroke-miterlimit:10;}
	.st38{fill-rule:evenodd;clip-rule:evenodd;fill:#4479EF;}
	.st39{fill:#FFFF33;}
	.st40{fill:#EF5632;}
	.st41{fill:#4275F2;}
	.st42{fill:#979797;}
	.st43{fill:url(#SVGID_1_);}
	.st44{fill:url(#SVGID_2_);}
	.st45{fill:none;stroke:#FCFCFC;stroke-width:0.5371;stroke-miterlimit:10;}
	.st46{fill-rule:evenodd;clip-rule:evenodd;fill:#4479EE;}
	.st47{fill:none;stroke:#BEF5E6;stroke-width:0.2581;stroke-miterlimit:10;}
	.st48{fill:none;stroke:#9BB7F6;stroke-width:0.2;stroke-miterlimit:10;}
	.st49{fill:#E4E4E4;stroke:#E4E4E4;stroke-width:0.8698;stroke-miterlimit:10;}
	.st50{fill:none;stroke:#9BB7F6;stroke-miterlimit:10;}
	.st51{fill:#B1B7D6;}
	.st52{fill:#DDEAFC;stroke:#DDEAFC;stroke-width:0.6325;stroke-miterlimit:10;}
	.st53{fill:#EBF2FD;}
	.st54{fill-rule:evenodd;clip-rule:evenodd;fill:#DDEAFC;}
	.st55{fill:#C7B4FF;}
	.st56{fill:#FFD24D;}
	.st57{fill:#8A8BC3;}
	.st58{fill:#D6BEDB;stroke:#DDEAFC;stroke-width:0.7235;stroke-miterlimit:10;}
	.st59{fill:#FFE5D7;stroke:#DDEAFC;stroke-width:0.7235;stroke-miterlimit:10;}
	.st60{fill:#FC5C05;}
	.st61{fill:#303654;}
	.st62{fill:#F5911E;}
	.st63{fill:#C0C5E1;}
	.st64{fill:#76FFD3;}
	.st65{fill:#4479EF;}
	.st66{fill:#AF88A1;}
	.st67{fill:#D58E76;}
	.st68{fill:#FF6666;}
	.st69{fill:#FF8C8C;}
	.st70{fill:#8B3214;}
	.st71{fill:#B9071A;}
	.st72{fill:#9CFFDA;}
	.st73{fill:#84FFD0;}
	.st74{fill:#F0A0C8;}
	.st75{fill:#CECAEF;}
	.st76{fill:none;stroke:#FCFDFF;stroke-miterlimit:10;}
	.st77{fill:#D0D66F;}
	.st78{fill:#C3965C;}
	.st79{fill:#C48563;}
	.st80{fill:#3294EF;}
	.st81{fill:#0E50BA;}
	.st82{fill:#CB5300;}
	.st83{fill:#FDDC00;}
	.st84{fill:#B8E0FF;}
	.st85{fill:#A77666;}
	.st86{fill:#2A237E;stroke:#DDEAFC;stroke-width:0.7235;stroke-miterlimit:10;}
	.st87{fill:#DDEAFC;stroke:#DDEAFC;stroke-width:0.5669;stroke-miterlimit:10;}
	.st88{fill-rule:evenodd;clip-rule:evenodd;fill:#303654;}
	.st89{fill:#805E00;}
	.st90{fill:#FF777F;}
	.st91{fill-rule:evenodd;clip-rule:evenodd;fill:#FFDEAC;}
	.st92{fill:#FFDEAC;stroke:#FFDEAC;stroke-miterlimit:10;}
	.st93{fill:#34E5F9;}
	.st94{fill-rule:evenodd;clip-rule:evenodd;fill:#EF5632;}
	.st95{fill:url(#SVGID_3_);}
	.st96{opacity:0.8;}
	.st97{fill:#94D0FF;}
	.st98{fill:url(#SVGID_4_);}
	.st99{fill:#30EAF9;}
	.st100{fill-rule:evenodd;clip-rule:evenodd;fill:#3B4B99;}
	.st101{fill:none;stroke:#99B5F5;stroke-width:0.5;stroke-miterlimit:10;}
	.st102{fill:#4479EE;stroke:#4479EE;stroke-width:0.25;stroke-miterlimit:10;}
	.st103{fill:none;stroke:#9BB7F6;stroke-width:0.199;stroke-miterlimit:10;}
	.st104{fill:none;stroke:#9BB7F6;stroke-width:0.1862;stroke-miterlimit:10;}
	.st105{fill:none;stroke:#9BB7F6;stroke-width:0.2704;stroke-miterlimit:10;}
	.st106{fill:none;stroke:#9BB7F6;stroke-width:0.2345;stroke-miterlimit:10;}
	.st107{fill:none;stroke:#9BB7F6;stroke-width:0.2214;stroke-miterlimit:10;}
	.st108{fill:none;stroke:#9BB7F6;stroke-width:0.2417;stroke-miterlimit:10;}
	.st109{fill-rule:evenodd;clip-rule:evenodd;fill:#FFD24D;}
	.st110{fill-rule:evenodd;clip-rule:evenodd;fill:#30EAF9;}
	.st111{fill:none;stroke:#F7AB99;stroke-miterlimit:10;}
	.st112{display:none;}
	.st113{display:inline;fill:#4479EE;}
	.st114{display:inline;fill:#A8C1F0;}
	.st115{display:inline;fill:#D6BEDB;stroke:#DDEAFC;stroke-width:0.7235;stroke-miterlimit:10;}
	.st116{display:inline;fill:#FFE5D7;stroke:#DDEAFC;stroke-width:0.7235;stroke-miterlimit:10;}
	.st117{display:inline;fill:#8A8BC3;}
	.st118{display:inline;fill:#6674B7;}
	.st119{display:inline;fill:#C0C5E1;}
	.st120{display:inline;fill:#FF4400;}
	.st121{display:inline;fill:#B33000;}
	.st122{display:inline;fill:#FF777F;}
	.st123{display:inline;fill:#476D15;}
	.st124{display:inline;fill:#B98D00;}
	.st125{display:inline;fill:#6D5200;}
	.st126{display:inline;fill:#B9966D;}
	.st127{display:inline;fill:#327DAC;}
	.st128{display:inline;fill:#0C3853;}
	.st129{display:inline;fill:#B9421B;}
	.st130{display:inline;fill:#461100;}
	.st131{display:inline;fill:#B9071A;}
	.st132{display:inline;fill:#460008;}
	.st133{display:inline;fill:#035336;}
	.st134{display:inline;fill:#1BAC77;}
	.st135{display:inline;fill:#213A00;}
	.st136{display:inline;}
	.st137{display:inline;fill:#C0DBFC;}
	.st138{display:inline;fill:#7DA5D5;}
	.st139{display:inline;fill:#C7B4FF;}
	.st140{display:inline;fill:#7754F5;}
	.st141{display:inline;fill:#91FFD5;}
	.st142{display:inline;fill:#EBD3A4;}
	.st143{fill:#25AEE3;}
	.st144{fill:#909DDB;}
	.st145{fill:#5C6AC2;}
	.st146{fill:#2CE1B4;}
	.st147{fill:url(#SVGID_5_);}
	.st148{fill:url(#SVGID_6_);}
	.st149{fill:url(#SVGID_7_);}
	.st150{fill:url(#SVGID_8_);}
	.st151{fill:url(#SVGID_9_);}
	.st152{fill:url(#SVGID_10_);}
	.st153{fill:url(#SVGID_11_);}
	.st154{fill:url(#SVGID_12_);}
	.st155{fill:url(#SVGID_13_);}
	.st156{display:inline;fill:#76FFD3;}
	.st157{display:inline;fill:#3BE2B4;}
	.st158{display:inline;fill:#C2DDFE;stroke:#C2DDFE;stroke-width:0.8289;stroke-miterlimit:10;}
	.st159{display:inline;fill:#DDEAFC;stroke:#DDEAFC;stroke-width:0.7235;stroke-miterlimit:10;}
	.st160{display:inline;fill:#90666B;}
	.st161{display:inline;fill:#D58E76;}
	.st162{display:inline;fill:#F7F0E8;}
	.st163{display:inline;fill:#F1F5FC;}
</style>
<g id="fill_color_-_browser">
</g>
<g id="browser">
</g>
<g id="Layer_6">
</g>
<g id="fill_color">
</g>
<g id="outline">
	<g>
		<g>
			<g>
				<path class="st1" d="M412.7,508.6c-1-0.1-1.9,0.6-2.9,0.9c-3,1.1-6.6,1.8-9.7,3.2c-2.4,0.6-4.3,1.4-7.1,2.3
					c-1.2,0.4-2.5,0.6-3.7,1c-5.2,1.6-10,3.2-15.2,4.8c-0.5,0.2-1.1,0.4-1.7,0.6c-1.4,0.5-3,0.9-4.3,1.4c-1.4,0.6-2.2,1.6-2.1,2.4
					c1.2,0.5,3.6-0.3,5.9-1c3.9-1.1,9.2-2.9,12.9-4.2c2.8-1,5.7-1.9,8.4-3c2.8-1.1,5.5-2,8.2-3.1c1.9-0.8,3.7-1.8,5.6-2.6
					C408.9,510.4,410.8,509.5,412.7,508.6z"/>
			</g>
		</g>
		<path class="st2" d="M297.3,531.3c-4.1,1.3-8.6-0.7-11.6-3.8c-2.9-3.1-4.5-7.2-5.9-11.3c-0.6-1.7-1.1-3.5-0.6-5.2
			c0.4-1.3,1.4-2.4,2.3-3.4c3.7-3.7,8.2-7,13.3-8c5.2-1,11.1,0.6,14.1,4.9c1.9,2.8,2.4,6.3,2,9.6c-0.4,3.3-1.7,6.5-3.1,9.5
			c-1.9,4.1-4.4,8.3-8.5,10.1c-2.9,1.3-6.2,1.1-9.3,1c-3.3-0.2-7-0.6-9-3.2"/>
		<path class="st52" d="M410.1,997.1c1.4,0.3,2.8,0.6,4.2,0.9c36.1,7.9,73.5,11.2,110.6,9.6c25.3-1.1,49.7-5.5,71.6-17.7
			c2.1-1.2,4.2-2.4,6.2-3.7c7.4-4.8,14.7-12.3,12.6-20.4c-1.2-4.5-5.1-8-9-10.9c-43.5-33.1-105.1-38.6-161.5-33.3
			c-28.9,2.7-57.7,7.9-85.3,16.2c-10.9,3.3-23.4,9.1-24.4,19.5c-1.3,13.6,14.4,21.1,26.2,25.2C377.3,988.3,393.5,993.3,410.1,997.1z
			"/>
		<path class="st65" d="M306,516.3c-1,5.3-5.3,9.2-9.4,12.7c26,1,52-4.1,77-11.6c3.9-1.2,7.9-2.5,10.8-5.2c3-2.8,4.6-7.4,2.7-11
			c-1.7-3.3-5.8-4.6-9.5-4.4c-3.7,0.3-7.1,1.8-10.6,3.1c-15.2,5.6-31.7,6.1-47.8,6.5c-5.4,0.1-10.8,0.3-16.2,0.3
			C306.1,508,306.6,513.2,306,516.3z"/>
		<path class="st8" d="M471.5,242.1c0.4,2.5,1.4,4.8,2.5,7c1.5,3.5,3.1,6.9,4.6,10.4c2.8,6.4,7.5,13.9,14.4,13.1
			c6.5-0.7,9.6-8.2,11.4-14.5c7.1,1.7,15-0.4,20.2-5.5c5.2-5.1,7.6-12.9,6.1-20c-5.4-1.4-11.2-0.8-16.8-0.4
			c-5.6,0.4-11.5,0.4-16.5-2.1c-5-2.5-8.9-8.2-7.4-13.7c2.8-10.2,19.1-11.7,25.6-19.3c6-6.9,5.1-11.2-3.9-7.8
			c-9.2,3.5-16,10.7-21.4,18.5C483.7,217.4,469.4,229.1,471.5,242.1z"/>
		<path class="st8" d="M508.3,299c13.5-0.6,26.9-1.9,40.2-3.9c0.7-0.1,1.5-0.2,1.9-0.8c0.3-0.4,0.5-0.9,0.6-1.4
			c0.9-3.4,1.7-6.8,2.6-10.3c-0.9,3.5-30-18.2-31.5-18.4C513.1,262.9,509.5,292.5,508.3,299z"/>
		<path class="st8" d="M466,262c-0.3,4.7-4,8.4-7.2,12s-6.2,8.2-4.7,12.7c0.7,2,2.2,3.7,2.9,5.7c0.7,2,0.2,4.7-1.9,5.4
			c1.8,0.1,3.5,0.3,5.3,0.4c-1.1,4.6-2.9,9.1-5.3,13.3c-0.6,1.1-1.4,2.2-2.5,2.9c-5,3.3-31.8,6.4-37.4,4.3
			c-7.4-2.8-4.5-10.7-1.3-16.1c5.3-8.9,15.4-13.2,24.1-18.6C443.9,280.5,465.5,269.3,466,262z"/>
		<path class="st8" d="M408,488.5c-0.3,7.2-0.7,14.4-1,21.6c-0.1,1.4-0.1,2.9-0.6,4.3c-1.6,4.6-7,6.3-11.4,8.4
			c-3.2,1.5-6.2,3.4-9.7,3.8c-4.2,0.5-8.2-1.4-12-3.1c4.8-4.8,9.5-9.6,14.3-14.3c1-1,2-2,2.3-3.4c0.7-2.7-1.7-5.2-4.1-6.7
			c-3.9-2.4-12.9-1.7-15.1-4.3c4.7-4.1,12.1-6.1,18.2-7.1C390.6,487.4,408.1,486.4,408,488.5z"/>
		<path class="st8" d="M481,832.9c-7-18.2-16.6-35.6-20.4-54.8c-1-4.9-1.5-10-0.5-14.9c2.7-12.5,15.4-20.9,18.7-33.4
			c0.4-1.6,0.6-3.4-0.2-4.7c-0.6-1-1.7-1.6-2.7-2.1c-11.3-5.4-25.2-3.5-37-6.7c0,0-0.1,0-0.1,0c-9.8,21.8-3.9,48,2.2,71.6
			c5.9,22.5,11.7,45,17.6,67.5c2,7.5,4,15.2,8.1,21.7c4.1,6.6,10.8,12,18.5,12.7C492.3,871.8,488,851.1,481,832.9z"/>
		<path class="st8" d="M536.7,863.2c0,1.9,0,3.8,0.7,5.5c0.8,1.7,2.3,3,3.7,4.2c3.6,3,7.2,6,10.8,8.9c8.1-13.8,10.3-30.2,11.1-46.1
			c1.1-22.9-0.5-45.9-4.8-68.4c-0.6-3.2-1.3-6.5-0.9-9.8c0.4-3.2,1.7-6.2,3.1-9.1c5.4-11.6,10.7-23.2,16.1-34.8
			c-1.9,4-16.8,6.9-20.9,8.1c-4.8,1.4-10.2,2-13.6,6.2c-6.3,7.6-3.6,23.7-3.8,32.6C537.8,794.7,537.3,829,536.7,863.2z"/>
		<g>
			<path class="st99" d="M366.4,390.4c5.7,1.9,11.4-2.1,17-4.2c5.7-2.2,12.2-2.6,17.2-6.2c5.3-3.8,7.8-10.3,9.2-16.6
				c1.3-5.7,1.9-11.6,1.8-17.5c0.1,4.2-32.2,5.9-35.7,9.4c-2.9,2.9-3.2,9.6-4.1,13.3C370,375.9,368.2,383.2,366.4,390.4z"/>
			<path class="st99" d="M405.4,370.3c-0.2,27.7-0.3,55.4-0.5,83.2c0,4.1-0.1,8.3-1.5,12.2c-1.4,3.9-4.5,7.4-8.6,8.1
				c-5.5,1-10.6-3.3-13.8-7.9c-9.4-13.5-10.5-31.1-8.3-47.4s7.5-32,9.7-48.2"/>
			<path class="st99" d="M408,428c9.2-3,15.2-8.4,20.3-16.9c7.2-12.1,11.8-26.3,17-39.4c7.1-17.7,15.4-33.2,27.8-47.7
				c12-14,28.7-17.7,46.6-19.6c10.7-1.2,21.5-1.9,32.2-2.2c6-0.2,12.1-0.1,17.7,2.1c11,4.6,16.7,17.2,17,29.1
				c0.3,11.9-3.7,23.4-6.9,34.8c-6.7,24.1-10,49.5-6,74.2c2.5,15.3,7.7,29.9,11.3,45c0.6,2.3,1,4.9-0.2,7c-0.8,1.3-2.1,2.1-3.4,2.9
				c-10.5,6.5-21,13-31.8,18.9c-9.9,5.4-20.3,10.3-31.3,12.7c-11,2.4-22.9,2.3-33.3-2.2c-5-2.2-9.8-5.6-11.8-10.7
				c-2.1-5.4-0.6-11.4,1-17c5.2-18.2,11.3-37.2,7.8-55.8c-2.2-11.5-7.9-22-13.9-32.1c-7.5,12.9-15.4,25.7-25.7,36.5
				s-22.9,19.8-37.3,23.7c-5.5,1.5-12.2,1.8-15.8-2.6c-2.5-3.1-2.5-7.6-1.8-11.6c2.1-13.1,9.4-25.2,19.9-33.2"/>
			<path class="st61" d="M431.2,619.7c-17.6,27.6-26.9,43-25.2,75.3c1,19.2,32.2,22.8,47.9,25.5c31.4,5.3,65.4,3.6,96.8-0.8
				c20.3-2.8,40.2-9.3,58.3-18.9c6.1-3.2,20.3-7.1,24.1-13c5.7-8.9-7.4-19.7-12.4-25.4c-9.8-11.3-14.4-26.3-15.7-41.2
				c-2.5-29.6,7.1-60.1-1.4-89.3c-4.4-15.3-12.4-38.5-28.6-41c-8.6-1.3-21.4,9.5-29.7,12.1c-17.9,5.4-51.4,8.1-60.3,25.9
				c-15.6,31.1-23.9,55.1-18,44C460.3,585.6,438.9,607.6,431.2,619.7z"/>
		</g>
		<path class="st61" d="M493.4,975c5-3.7,6.8-10.3,7.8-16.5c1-6.4,1.4-13.2-0.6-19.4c-1.6-4.9-4.6-9.3-6.2-14.2
			c-2.9-8.8-1.1-18.6-4.1-27.3c-5.5,0-10-4.3-14-8.1c-4-3.8-9-7.7-14.4-6.7c-0.8,0.1-1.6,0.4-2.1,1c-0.6,0.8-0.6,1.9-0.6,2.8
			c0.6,14.4,1.1,28.7,1.7,43.1c-13.4,8.2-27.8,16.6-43.5,16.4c-1.6,3.5,2.4,6.9,5.9,8.6c6.7,3.2,13.6,5.9,20.7,8
			c6.1,1.8,14.5,1.9,19.7,5.7c3.6,2.7,5.1,6.6,9.5,8.5C479,979.4,488.1,978.9,493.4,975z"/>
		<path class="st61" d="M539.8,916.8c-3.4-12-4.8-24.5-4.4-37c0-1.1,0.2-2.3,1-2.9c0.9-0.7,2.3-0.4,3.3,0.1c3.5,1.6,6.1,4.7,9.5,6.3
			c3.5,1.6,8.7,0.6,9.4-3.2c3.4,12.1,6.8,24.1,10.2,36.2c1.3,4.8,2.7,9.6,3,14.6c0.6,10.3-3.4,20.3-7.4,29.9
			c-3.7,0.9-7.5,1.5-11.3,1.8c-3.4,0.2-7.1,0.2-10.1-1.5c-3-1.6-5.3-5.2-4.4-8.5c0.4-1.3,1.1-2.8,0.3-3.9c-0.4-0.5-0.9-0.7-1.5-0.9
			c-4.4-1.7-9-3.5-13.7-3.6c-3.4-0.1-6.8,0.6-10.2,0.8c-4.1,0.2-12.2-0.8-12.8-6.3c-0.5-5,6.8-5.1,10.3-6.2
			c5.2-1.6,10.3-3.7,15.1-6.4C527.7,925.3,540.2,918.4,539.8,916.8z"/>
		<g>
			<path class="st99" d="M466.5,461.5c-8.8,6.6-17.6,13.1-26.4,19.7c4.8,5.2,3.1,13.6,5.7,20.3c0.7,1.9,2.4,4,4.4,3.6
				c0.7-0.1,1.3-0.6,1.9-1c6-4.8,8.9-12.6,10.3-20.2s1.5-15.4,3.3-22.9"/>
		</g>
		<path class="st56" d="M642.8,244.2c-2-1.6-4.6-2.1-7.2-2.6c-5.2-1-10.4-2.1-15.6-3.1c-3.5-0.7-7.2-1.5-9.8-4
			c-4.1-3.9,2.6-10.4,4-14.7c1.8-5.5,3.8-10.9,5.5-16.4c3.5-11,6.4-23,3.6-34.5c-2-8.5-7.4-16.1-14.6-20.9
			c-11.5-7.6-26.2-7.7-40-7.5c3.6-2.6,3.6-8.9-0.1-11.4c-1.6-1.1-3.7-1.5-5.6-1.8c-18.6-2.8-37.9-1.2-55.9,4.2
			c-10.9,3.3-24.2,8.2-34.4,15.8c-5,3.7-9.2,8-12.1,13c-1,1.7-1.7,3.5-2.1,5.4c-0.8,1.3-1.4,2.6-1.7,4c-2.5,9.6,7.3,17.1,15.9,17.9
			c15.9,1.6,32.1-1.2,47.8,1.7c0.7,0.1,1.5,0.3,2.2,0.4c-6.2,5.5-12.4,11-18.6,16.6c-3.2,2.8-6.4,5.7-8.5,9.4
			c-2.1,3.7-2.9,8.4-0.9,12.2c1.8,3.6,5.6,5.5,9.4,7c0.6,0.7,1.3,1.3,2.3,1.3c1.2,0.1,2.3-0.3,3.4-0.8c4.5-1.9,8.7-4.6,13.4-5.6
			c4.7-1.1,10.5,0.1,12.9,4.3c4.5,7.8-7,17.3-12.7,21.1c-1.1,0.7-2.3,1.5-2.8,2.8c-0.4,1-0.4,2.2-0.2,3.3
			c1.3,9.4,8.9,17.1,17.7,20.6c15.7,6.3,33.1,5.5,48.9,1.9c11.1-2.5,18.1-3.8,28.9-7.6c8.8-3.2,21.1-8.8,26.4-17.4
			C644.8,254.6,647.6,248,642.8,244.2z"/>
		<path class="st31" d="M486.1,203.2c-6.7,5.4-14.2,9.8-22.1,13.1c2.6,2.3,6.1,3.5,9.5,3.1c0.5-0.1,1.1-0.1,1.6-0.4
			c0.4-0.3,0.8-0.7,1.1-1.1c4.6-6,8.8-12.4,12.6-19"/>
		<path class="st9" d="M74,851.5c0.7,3.5,1.5,7.2,3.8,9.9c2.6,3,6.7,4.3,10.6,5.3c20.9,5.3,42.4,8,63.8,10.7
			c18.5,2.3,37.2,4.7,55.9,3.9c39-1.7,75.9-16.7,112-31.6c28-57.8,45.8-120.4,52.6-184.3c-32.9-10.8-68.7-1.6-101.9,8.3
			c-60.8,18-121.3,37.3-185,40.8c-30.3,1.6-37.1,6.5-31.1,37.3C61.1,785,67.5,818.2,74,851.5z"/>
		<path class="st28" d="M391.5,315.5c-8.8,11.8-15.8,24.9-20.8,38.7c7.1,0.2,14.3,0,21.4-0.6c4.8-0.4,9.9-1.2,13.3-4.6
			c1.9-2,3-4.5,4.1-7.1c3.3-7.9,6.6-15.8,9.9-23.7c-8.4-0.5-16.9-0.3-25.2,0.5c-5.9,0.6-12.7,2.1-15.5,7.3"/>
		<path class="st28" d="M438.6,520.8c2.5-14.5,3.5-31.9-0.6-46.2c-2.2-7.6-4.3-8.4-8.8-1.6c-4.8,7.3-7.1,18-8.2,26.6
			c-0.6,4.5-2.6,15.3-0.3,19C422,520.8,437.8,525.4,438.6,520.8z"/>
		<path class="st2" d="M282.9,801.3c-0.2,10.8,0.5,22.7,8,30.6c2,2.1,5.1,3.9,7.7,2.5c1.6-0.9,2.4-2.7,3.1-4.4
			c9.9-23.9,19.9-47.9,27.9-72.5c5.5-16.7,20-45.1-5.7-48.4C280.2,703.4,283.4,773.8,282.9,801.3z"/>
		<path class="st2" d="M261.1,710.4c6.2,14.8-2.3,31.2-7.6,46.4c-5.2,14.9-7.2,30.8-6,46.5c0.3,3.6,0.4,8-2.7,10
			c-1.3,0.8-2.9,1-4.4,1.2c-27.6,2.9-55.3,5.8-82.9,8.8c-5.2,0.5-10.6,1.1-15.5-0.7c-10-3.5-14.7-14.9-17.1-25.3
			c-2.9-12.5-9.7-37.8-1.7-49.6c6.6-9.7,19.5-8.3,29.8-9C163.5,738.1,261.5,711.3,261.1,710.4z"/>
		<path class="st15" d="M53.2,895.7c-2.7-3.1-4.8-6.9-5.9-10.9c-0.4-1.4-0.7-3,0.1-4.3c0.6-1.1,1.8-1.7,3-2
			c5.3-1.7,11.5-0.6,15.9,2.9s6.9,9.3,6.4,14.9c-0.1,1.2-0.4,2.5-1.2,3.3c-1.4,1.6-3.9,1.4-5.9,0.9c-6.3-1.5-12.1-5.1-16.1-10.2"/>
		<path class="st15" d="M240.5,918.9c-9.5-6.5-13.5-19.8-9.3-30.5c0.4-0.9,0.8-1.9,1.6-2.4c1.7-1.2,4,0,5.8,1.2
			c3.6,2.5,7.1,5.1,9.6,8.6c2.6,3.5,4.1,8,3.1,12.2c-1.5,6.3-8.7,10.4-15,8.9c-6.3-1.5-10.9-7.9-10.9-14.3"/>
		<path class="st15" d="M312.7,887c-3.7-2.6-6.2-6.9-6.6-11.5c-0.2-2.5,0.3-5.3,2.1-7.1s5.2-2.1,6.8-0.1c0.7,0.8,1,1.9,1.2,2.9
			c0.8,3.4,1,7,0.7,10.5c-0.1,1.4-0.4,3-1.3,4.1c-1.7,2-5.1,1.5-7.1-0.2s-2.9-4.4-3.7-6.9"/>
		<path class="st15" d="M143.6,877.6c0.5,2.7,1.6,5.4,3,7.8c0.6,0.9,1.2,1.9,2.1,2.4c1.4,0.8,3.2,0.6,4.7-0.1
			c1.5-0.7,2.7-1.8,4.1-2.7c2-1.3,4.7-2.9,4.4-5.2c-0.3-2.4-3.5-3.2-5.9-3.4c-6.4-0.4-12.8-0.9-19.2-1.3"/>
		<g>
			<g>
				<path class="st40" d="M553.2,98.8c-2-9-4.2-11.7-6.1-15.4c-6.3-12.5-12.6-25-18.9-37.5c-1.7-3.5-3.5-7.3-2.5-11.1
					c0.6-2,2.5-4,4.6-3.5c0.7,0.2,1.4,0.7,2,1.2c4.9,4.4,7.7,10.5,11,16.2c2.2,3.7,4.6,7.3,7.3,10.7"/>
				<g>
					<path class="st94" d="M549.7,60.1c0.1-2.6-2.3-3.9-3.5-5.9c-1.9-3.1-3.2-6.7-4.6-10.4c-1.4-3.7-3.2-7.5-6.2-10.2
						c-0.5-0.9-1.1-1.7-1.8-2.5c-0.3-0.4-0.8-0.8-1.3-1.2c-0.5-0.4-1.3-0.7-2.2-0.8c-0.8-0.1-1.7,0-2.4,0.3
						c-0.7,0.3-1.3,0.7-1.9,1.2c-1,1-1.8,2.1-2.2,3.5c-0.6,2.1-0.5,4.4,0,6.6c0.7,3.3,1.5,6.4,2.6,8.9c4.8,11.2,9.6,21.6,14.7,32.8
						c0.5,1.2,1.1,2.3,1.8,3.6c0.9,1.6,1.7,3.1,2.3,4.5c0.6,1.4,1.1,2.7,1.7,4c1.3,2.6,4.5,4.4,7.7,4c1.4-1.5,1.7-3.7,1.3-6.3
						c-0.2-1.3-0.6-2.6-1.1-4c-0.5-1.4-1.2-2.8-1.8-4.1c-0.5-1.1-1-2.1-1.4-3.1c-0.5-1.1-1-2.3-1.6-3.5c-1.1-2.4-2.3-4.8-3.4-7.2
						c-2.3-4.8-4.7-9.6-6.7-13.5c-1.5-3-3-6.1-4.4-9.1c-0.8-1.5-1.5-3-2.2-4.5c-0.7-1.4-1.3-2.7-1.8-3.8c-0.6-1.5-0.7-2.6-0.5-3.3
						c0,0,0-0.1,0-0.2c0,0,0-0.1,0-0.1l0,0c0,0,0,0-0.1-0.1c-0.1-0.1-0.2-0.2-0.3-0.3c-0.4-0.5-0.7-1-0.7-1.4c0-0.1,0-0.1,0-0.2
						l0-0.1c0,0,0,0.1,0,0.1c0,0,0,0.2-0.1,0.3c-0.1,0.2-0.2,0.4-0.3,0.7l-0.3,0.5l-0.3,0.4c0,0,0.1,0,0.2,0.1
						c0.3,0.2,0.6,0.5,1,0.8c0.7,0.6,1.3,1.2,1.9,1.9c2.8,2.9,5.7,6.4,8.3,10.2C542.9,53,546.2,56.8,549.7,60.1z"/>
				</g>
			</g>
			<g>
				<path class="st40" d="M548,57.8c1.4-6.1,9.2-43,15.9-21.5c5.4,17.7-1.4,47.5-10.8,63.2c-0.5,1.6,0.5-1.5,0.4-1.1"/>
				<g>
					<path class="st94" d="M552.7,98.3c0.2,0.1,0.5,0.1,0.8,0.1c0,0,0.1,0,0.1,0c0,0,0,0,0,0c0.1,0,0.2,0.1,0.3,0.1
						c0.7,0.3,0.4,0.2,0.5,0.2c0,0-0.1,0-0.1,0.1c-0.1,0.1-0.2,0.1-0.2,0.2c-0.2,0.1-0.3,0.3-0.4,0.4c-0.1,0.1-0.2,0.3-0.3,0.5
						l0,0.1l0,0l0,0l0,0l0,0c0,0,0,0.1-0.2,0c-0.1-0.1-0.1-0.1-0.1-0.2l0,0l0,0c0,0,0,0,0,0l0.1-0.1l0.1-0.3l0,0l0,0
						c0.8-1.2,1.1-2.7,1.8-3.9c1.7-3,3.7-6.1,5.5-9.5c1.7-3.4,3.3-7,3.7-10.7c0.3-0.6,0.6-1.2,0.8-1.8c0.2-0.6,0.4-1.2,0.6-1.8
						c0.4-1.2,0.7-2.5,0.9-3.8c0.5-2.6,0.9-5.4,1.4-8.7c0.4-2.9,1.4-5.7,1.6-8.6c0-1.5,0.2-3.1,0.1-4.6c-0.1-1.5-0.1-3.1-0.3-4.6
						l-0.3-2.3l-0.6-2.7c-0.3-1.5-1.1-4.4-2.3-6.5c-0.6-1-1.2-2-2-2.7c-0.7-0.7-1.6-1.3-2.5-1.7c-0.9-0.4-2.1-0.5-3.1-0.4
						c-1,0.1-2,0.5-2.8,1c-1.8,1-3.4,3-4.7,5.5c-0.3,0.6-0.6,1.2-0.9,1.9l-0.8,1.7c-0.3,0.7-0.6,1.5-0.9,2.2
						c-0.5,1.2-0.9,2.5-1.3,3.9c-0.9,3.1-2.3,6.7-2.6,9.7c-0.4,3.3,1.8,6.3,4.9,7.2c3.9-1.4,4.6-6.7,6.3-11.4c0.7-2,1.5-4.2,2.3-6.3
						c0.2-0.5,0.4-1.1,0.7-1.6l0.1-0.2l0,0l0-0.1l0,0c0.1,0,0.1-0.1,0.1-0.1c0.1-0.1,0.2,0,0.2,0.1c0.1,0.6,0.3,1.1,0.4,1.7l0.2,0.8
						l0.2,1.1l0.3,2.1l0.2,2.2c0.1,0.7,0.1,1.5,0.1,2.2c0,1.5,0.1,3,0,4.5c0,0.7,0,1.5,0,2.2c0,0.7-0.1,1.5-0.1,2.2
						c-0.2,6.1-1.4,12-2.5,17.8c-0.8,4.3-1.1,8.6-2.2,12.7c-1.1,3.6-2.2,7.3-3.6,10.8l-0.1,0.3l0,0.3l0,0.2l0,0.1l0,0.1l0,0.1l0,0
						c0,0,0,0.1,0,0.2c0,0.1-0.1,0.2,0.3,0.8c0.7,0.9,1.9,0.3,1.9,0.2c0.2-0.2,0.2-0.2,0.2-0.3l0-0.1l0,0l0-0.1
						c0.1-0.2,0.1-0.1,0.1-0.2l0,0l0.1-0.6l0.1-0.5l0-0.3l0-0.1c0,0,0,0,0,0s0,0,0,0l-0.3-0.1l-0.2-0.1c-0.1,0-0.2-0.1-0.3-0.2
						c0,0-0.1,0-0.1,0c0,0,0,0-0.1,0C553.3,98.4,553,98.4,552.7,98.3z"/>
				</g>
			</g>
		</g>
		<g>
			<g>
				<path class="st38" d="M416.4,341.1c-1.9,1.5-4,3.7-6.3,5.2c-3.6,2.4-7.9,4.3-12.4,5.6c-4.5,1.3-9.2,2.1-13.7,2.6
					c-3.3,0.2-6.3,0.3-9.5,0.4c-0.8,0-1.6,0-2.5,0.1c-0.3,0-0.6,0-0.9,0c-0.1-0.2-0.2-0.4-0.4-0.8c-0.7-1.6-1-3.4-1-5.4
					c0-3.5,1-6.8,1.8-10.1c0.9-3.5,1.7-7.2,1.4-11c0-0.4,0-0.8,0-1c0.1-0.2,0.1-0.3,0.4-0.5c0.2-0.2,0.6-0.4,1-0.5l1.2-0.6
					c1.6-0.8,3.2-1.4,4.8-2c3.3-1.2,6.7-2.2,10.1-2.9c3.5-0.7,7-1.2,10.6-1.4c0.7-0.1,1.5-0.1,2.3-0.1c0.8,0,1.6,0,2.4,0
					c3.8,0,8.4,0.6,11.9,1.2c3.9,0.6,6.9,0.9,7.5,0.2c-0.6-0.4-1.5-0.8-2.6-1.2c-1.1-0.4-2.4-0.7-3.8-1.1c-2.8-0.6-6.2-1.1-9.4-1.3
					c-2.8-0.2-5.8-0.3-9,0c-3.2,0.2-6.5,0.6-9.7,1.2c-6.5,1.2-12.7,3.6-17.5,6c-0.4,0.2-1,0.4-1.6,0.9c-0.3,0.2-0.6,0.5-0.8,0.9
					c-0.2,0.4-0.3,0.8-0.4,1.2c-0.1,0.7,0,1.3,0,1.8c0,0.5,0,0.9,0,1.4c0,1.9-0.3,3.8-0.7,5.8c-0.8,3.9-2,7.8-2.1,12
					c-0.1,2.1,0.2,4.3,0.8,6.4c0.2,0.5,0.4,1,0.6,1.6l0.7,1.3c0,0,0,0.1,0.1,0.1l0.2,0l0.4,0l0.7,0c1,0,2.1-0.1,3.1-0.1
					c4-0.1,7.9-0.4,11.8-1c5.7-0.8,11.1-2.4,16.1-4.6C407.7,348.8,412.6,345.5,416.4,341.1z"/>
			</g>
		</g>
		<g>
			<g>
				<path class="st38" d="M412.4,342.4c-0.1,1-0.1,2.2-0.3,3.3c-0.2,1.2-0.4,2.4-0.8,3.4c-0.6,1.7-1.2,3.5-1.6,5.3
					c-0.5,1.9-0.9,3.8-1.3,5.7c-0.2,1-0.5,1.9-0.7,2.9c-0.1,0.5-0.3,0.9-0.5,1.4c-0.2,0.5-0.3,0.9-0.5,1.4c-0.7,1.8-1.8,3.4-3,4.9
					c-1.9,1.9-4,3.2-6.4,4.4c-2.4,1.2-5.1,2.1-8.4,3.1c-2.8,0.9-5.7,1.6-8.4,2.5c-6.4,2.2-12.6,4.2-19,6.3l0-0.3l0.1-1.4
					c0.1-1.2,0.2-2.4,0.3-3.6c0.2-2.4,0.5-4.8,0.8-7.2c0.2-1.3,0.3-2.6,0.5-4c0.4-3.2,1.1-7,1.6-10.1c0.5-3.3,0.3-5.9-0.4-6.4
					c-1.3,2.1-2.3,7.7-3.2,13.1c-0.5,3.2-1,6.8-1.4,10.5c-0.2,1.9-0.4,3.7-0.5,5.6c-0.1,0.9-0.1,1.8-0.2,2.8
					c-0.1,1.6-0.2,3.1-0.3,4.6c4-1.4,7.5-2.6,10.5-3.7c3.2-1.1,6.4-2.2,9.6-3.3c1.6-0.6,3.2-1.1,4.8-1.7c1.6-0.5,3.1-1.1,4.7-1.6
					c3.2-1.1,6.4-2.1,9.5-3.6c1.6-0.7,3-1.7,4.4-2.7c0.6-0.6,1.4-1.1,1.9-1.8l0.9-1l0.8-1.1c1.5-2.1,2.3-4.4,2.9-6.8
					c0.5-2.3,0.8-4.6,1.1-6.8c0.4-2.4,0.9-4.7,1.6-7C412.3,347.3,412.9,344.8,412.4,342.4z"/>
			</g>
		</g>
		<g>
			<g>
				<path class="st38" d="M379,475.1c-1.6-0.8-3.6-1.5-5.1-2.8c-2.3-2-4.1-5-5.1-8.2c-1-3.2-1.4-6.6-1.9-9.8
					c-0.2-4.7-0.6-8.6-0.8-14.5c-0.1-2.5,0.1-5,0.1-7.4c0.2-10.4,0.9-20.2,2.4-30.6c0.2-1.1,0.3-2.2,0.5-3.4c0.4-2.7,1.1-6,1.4-8.6
					c0.4-2.8,0.2-5.1-0.5-5.5c-1.3,1.8-2.2,6.5-2.9,11.1c-0.7,3.9-1.4,8.5-1.8,13.1c-0.5,4.6-0.8,9.2-1,13
					c-0.3,5.8-0.3,11.7-0.1,17.4c0.3,5.8,0.6,11.4,1.4,17c0.6,4,1.7,8,3.6,11.5c1.1,1.9,2.4,3.6,4.1,4.9
					C374.9,473.6,376.9,474.7,379,475.1z"/>
			</g>
		</g>
		<g>
			<g>
				<path class="st38" d="M406.3,425.6c-0.4-0.4-0.8-0.8-1.1-1.3c-0.3-0.5-0.6-1.1-0.7-1.6c-0.2-0.9-0.1-1.8,0-2.8
					c0.1-1,0.1-1.9,0.2-2.9c0.1-2,0.2-4,0.1-5.9c0.3-2.7,0.1-5.1,0.2-8.5c0-1.5,0.2-2.9,0.2-4.4c0.1-6.1,0.2-11.9,0.2-18.1
					c0-0.6,0-1.3,0-2c0-1.6,0.1-3.6-0.1-5.1c-0.1-1.7-0.8-2.9-1.6-3.1c-0.9,1.2-0.7,4-0.8,6.7c-0.1,4.6,0,10.9,0,15.3
					c0,3.4,0,6.8,0.1,10.1c0.1,3.4,0.1,6.7,0.3,9.9c0.1,2.4,0.4,4.6,0.5,6.9l0.1,1.8c0,0.6,0.1,1.3,0.2,1.9c0.1,0.6,0.3,1.3,0.7,1.8
					C405.1,424.9,405.6,425.3,406.3,425.6z"/>
			</g>
		</g>
		<g>
			<g>
				<path class="st38" d="M455.8,321.5c-1.6,1.1-3,3.2-4.2,5c-3.9,5.6-7.1,13.2-8.7,20.4c-1.6,5-2.5,9.4-4.4,15.7
					c-0.8,2.7-1.8,5.3-2.7,7.9c-1.9,5.5-4,10.8-6.4,15.9c-2.4,5.1-5.1,10.1-8.3,15c-0.7,1-1.4,2.1-2.1,3.2c-0.4,0.6-0.9,1.3-1.4,1.9
					c-0.5,0.7-1,1.3-1.6,2c-1,1.3-2.1,2.5-3,3.7c-1,1.2-1.8,2.3-2.3,3.3c-0.5,0.9-0.7,1.7-0.5,2.1c1.1-0.5,2.6-1.7,4.2-3.4
					c0.8-0.8,1.6-1.8,2.5-2.7c0.8-1,1.6-2,2.5-3.1c2.7-3.5,5.6-7.9,8.2-12.5c2.5-4.6,4.7-9.3,6.3-13.3c2.5-6.1,4.7-12.3,6.4-18.4
					c1.8-6.3,3.2-12.4,4.7-18.4c1.1-4.4,2.2-8.6,3.9-12.5c0.9-2.1,1.9-4.2,3.1-6.1C453,325.1,454.3,323.2,455.8,321.5z"/>
			</g>
		</g>
		<g>
			<g>
				<path class="st38" d="M497,318.1c-0.7-0.5-1.8-0.4-2.8-0.6c-2.9-0.5-6.4-1.3-9.5-1.1c-1.1-0.2-2.2-0.2-3.3-0.2
					c-0.6,0-1.1,0-1.8,0.1c-0.6,0-1.3,0.1-2,0.1c-1.2,0-2.5,0-3.7,0.1c-2.6,0.3-5,0.6-7.5,1.1c-2.5,0.5-4.9,1.2-7.4,1.9
					c-0.5,0.2-1,0.4-1.6,0.6c-1.3,0.5-2.8,1-4,1.6c-1.3,0.7-1.9,1.7-1.7,2.5c1.3,0.4,3.3-0.7,5.4-1.4c0.9-0.3,1.9-0.6,2.9-0.9
					c1-0.3,2.1-0.6,3.1-0.9c2.1-0.6,4.3-1.1,6-1.4c2.7-0.6,5.5-0.9,8.1-1.2c2.7-0.3,5.4-0.3,8-0.4c1,0,1.9-0.1,2.9-0.1
					c0.9,0,1.9,0,2.8,0c1,0,2,0.1,3,0.1C495,317.9,496,318,497,318.1z"/>
			</g>
		</g>
		<g>
			<g>
				<path class="st38" d="M547.4,296.8c-1.7-0.5-3.9-0.2-5.8-0.3c-6.1-0.1-13.3-0.3-19.8,0.7c-2.3,0.1-4.5,0.3-6.8,0.7
					c-1.1,0.2-2.3,0.4-3.6,0.6c-1.3,0.2-2.6,0.5-4,0.8c-1.3,0.2-2.5,0.4-3.7,0.7c-1.2,0.2-2.4,0.4-3.6,0.7c-5.1,1.2-10,2.6-14.9,4.2
					c-4.9,1.6-9.6,3.5-14.5,5.6c-1,0.5-2,1-3.1,1.5c-0.6,0.3-1.3,0.6-2,0.9c-0.7,0.3-1.3,0.7-2,1c-1.3,0.7-2.7,1.4-3.8,2
					c-2.5,1.5-4,3.2-3.8,4c1.1-0.1,2.7-0.8,4.5-1.7c1.8-0.9,3.9-2,5.9-3c1.8-0.8,3.7-1.7,5.7-2.6c2-0.9,4.1-1.8,6.3-2.6
					c4.3-1.7,8.5-3.2,12.1-4.3c5.4-1.8,11.1-3.1,16.5-4.4c5.6-1.2,11.1-2,16.5-2.8c2-0.2,3.9-0.5,5.9-0.7c1.9-0.2,3.9-0.4,5.8-0.5
					c2.1-0.1,4.1-0.2,6.2-0.3C543.3,296.9,545.3,296.9,547.4,296.8z"/>
			</g>
		</g>
		<g>
			<g>
				<path class="st38" d="M457.9,422.3c1.7-1.2,3.3-3.3,4.9-5c5.1-5.3,11.3-11.3,16-17.8c1.8-2.1,3.4-4.3,5-6.6
					c0.8-1.2,1.5-2.4,2.4-3.7c0.8-1.3,1.7-2.7,2.5-4.3l1.1-2c0.4-0.7,0.7-1.3,1.1-2c0.7-1.3,1.3-2.7,2-4c2.5-5.9,4-12,4.7-18.2
					c0.6-6.2,0.4-12.6-1.1-18.9c-0.2-0.6-0.4-1.3-0.6-2c-0.2-0.7-0.4-1.4-0.7-2.1c-1.1-3.3-2.9-7-4.8-9.7c-0.5-0.7-1.1-1.4-1.6-1.9
					c-0.5-0.6-1.1-1-1.6-1.3c-1-0.7-1.7-1-2.1-0.8c0.2,0.6,0.6,1.3,1.2,2.1c0.6,0.8,1.1,1.7,1.8,2.7c1.3,2,2.6,4.4,3.7,6.9
					c0.4,1.1,0.8,2.2,1.2,3.4c0.4,1.2,0.7,2.4,1,3.7c0.2,1.3,0.6,2.6,0.7,3.9c0.1,1.3,0.4,2.7,0.4,4c0.4,5.4-0.1,10.9-0.9,15.2
					c-0.3,1.7-0.7,3.3-1.1,5c-0.5,1.6-1,3.3-1.6,4.9c-1.1,3.2-2.6,6.3-4.1,9.3c-3.1,6.1-6.9,11.6-10.9,16.9
					c-2.9,3.8-5.8,7.6-8.8,11.1C464.5,414.9,461.2,418.6,457.9,422.3z"/>
			</g>
		</g>
		<g>
			<g>
				<path class="st38" d="M467.6,405.6c-1.3,1.7-2,4.2-3.1,6.3c-3.3,6.6-8.2,13.7-12.7,20.1c-0.9,1.1-1.8,2.1-2.6,3.2
					c-0.4,0.5-0.8,1.1-1.3,1.6c-0.4,0.5-0.9,1-1.3,1.6c-0.9,1.1-1.8,2.2-2.8,3.3c-1,1.1-2.1,2.3-3.4,3.6c-1,1.1-2.2,2.1-3.3,3.1
					c-0.6,0.5-1.1,1-1.6,1.5c-0.6,0.5-1.1,1-1.7,1.4c-4.6,4.2-9.5,7.9-14.5,11.3c-5,3.5-10.3,6.5-16,9.3c-1.2,0.6-2.4,1.2-3.7,1.8
					c-3,1.4-6.7,2.6-9.6,2.8c-1.6,0.1-2.9,0.1-4,0.1c-1.1,0-1.9,0-2.2,0.3c0.9,1,3,1.9,5.7,1.9c2.6,0.1,5.6-0.7,8.2-1.7
					c1.1-0.4,2.3-0.9,3.5-1.4c1.2-0.6,2.4-1.1,3.6-1.7c0.6-0.3,1.2-0.6,1.8-0.9c0.6-0.3,1.2-0.7,1.8-1c1.2-0.7,2.5-1.4,3.7-2
					c1.2-0.7,2.4-1.5,3.6-2.2c0.6-0.4,1.2-0.7,1.8-1.1c0.6-0.4,1.1-0.8,1.7-1.1c1.1-0.8,2.2-1.5,3.2-2.2c1-0.8,2-1.5,2.9-2.2
					c5.6-4.2,11-8.9,15.7-13.9c4.8-5.1,9.2-10.3,13-15.9c1.4-2,2.7-4,3.9-6.1c0.6-1,1.2-2.1,1.8-3.1c0.6-1,1.1-2.1,1.7-3.1
					C463.8,414.7,465.8,410.2,467.6,405.6z"/>
			</g>
		</g>
		<g>
			<g>
				<path class="st38" d="M591.8,491.1c-1.6-3.8-4.2-8.2-5.9-12.5c-2.9-6.7-5.4-14.1-7.6-21.8c-2.1-7.7-3.8-15.6-5-23.2
					c-1.3-11-1.7-20.4,0.3-34.2c0.8-5.9,2-11.7,3.1-17.3c2.4-12.1,5.3-23.8,8.1-35.6c0.7-2.9,1.4-5.9,2.1-8.8c0.7-2.9,1.4-5.9,1.9-9
					c0.5-3.1,0.9-6.2,0.8-9.4c-0.1-3.2-0.7-6.5-2-9.5c-0.5-1.3-1.3-2.5-2.1-3.7c-0.5-0.6-0.9-1.1-1.4-1.7c-0.5-0.5-1.1-1.1-1.6-1.6
					c-0.6-0.6-1.4-1.1-2.1-1.7c-0.7-0.5-1.5-1-2.3-1.5c-0.8-0.4-1.6-0.9-2.5-1.3c-0.9-0.4-1.7-0.8-2.6-1.1c-3.5-1.3-7-2.1-10.1-2.5
					c-3.4-0.5-6.4-0.5-8.7-0.3c-2.2,0.1-3.7,0.5-4,0.9c2.3,0.5,6.4,0.8,11.1,1.6c2.4,0.3,4.9,0.8,7.4,1.5c2.5,0.7,5.1,1.6,7.4,2.9
					c3.9,2.1,7.5,5.6,9.4,10.2c1.9,4.6,1.8,10.1,1.1,15.4c-0.8,5.3-2.2,10.6-3.4,15.7c-1.2,5.1-2.3,9.9-3.4,14.2
					c-3.1,13.4-6.1,27-7.9,40.3c-0.9,6.8-1.7,13.5-1.6,20.3c0.1,6.8,0.8,13.4,2,19.9c1.7,9.5,4.3,18.4,7.4,27.1
					c1.6,4.7,3.5,9.2,5.4,13.7C587.1,482.5,589.4,486.9,591.8,491.1z"/>
			</g>
		</g>
		<g>
			<g>
				<path class="st38" d="M442.3,514.1c1.3-1,2.2-2.7,3.3-4.1c3.4-4.4,7.6-9.3,10.5-14.5c1.2-1.7,2.2-3.4,3.2-5.3c1-1.9,2-3.9,3-6.3
					c1-2.1,1.9-4.2,2.6-6.3c1.5-4.6,2.3-9.2,2.6-13.9c0.2-4.7-0.3-9.5-1.6-14.2c-0.3-1-0.6-2-1.1-3c-0.9-2.4-2.4-5.2-3.9-7.2
					c-0.4-0.5-0.8-1-1.3-1.4c-0.4-0.4-0.9-0.7-1.3-0.9c-0.8-0.5-1.4-0.6-1.8-0.4c0.3,1,1.2,2.2,2.1,3.7c1,1.5,2,3.3,2.9,5.1
					c0.4,0.8,0.6,1.6,1,2.5c0.3,0.9,0.6,1.8,0.9,2.7c0.2,1,0.5,1.9,0.7,2.9c0.2,1,0.4,2,0.5,3c0.5,4,0.4,8.1,0,11.4
					c-0.1,1.3-0.4,2.5-0.6,3.8c-0.3,1.2-0.5,2.5-0.9,3.7c-0.7,2.5-1.5,4.9-2.4,7.2c-1.9,4.8-4.3,9.1-6.8,13.4
					c-1.8,3.1-3.6,6.1-5.6,9C446.5,508,444.4,511,442.3,514.1z"/>
			</g>
		</g>
		<g>
			<g>
				<path class="st38" d="M594.9,493.7c-2.7,1.2-5.6,3.5-8.3,5.2c-8.8,5.6-19.4,11.4-29.1,16.6c-1.8,0.8-3.5,1.6-5.3,2.4
					c-1.7,0.7-3.5,1.6-5.3,2.3c-3.6,1.6-7.5,3-12.2,4.6c-4.1,1.3-8.2,2.1-12.2,3c-4.3,0.8-8.6,1.4-12.9,1.7c-4.3,0.2-8.6,0.3-12.8,0
					c-4.2-0.4-8.5-0.9-12.6-1.9c-4.2-1-8.3-2.3-12.3-4.1c-0.8-0.3-1.6-0.8-2.5-1.2c-0.8-0.4-1.8-0.8-2.6-1.3
					c-4.1-2.2-8.5-5.5-11.4-8.6c-3.3-3.3-5.3-6.2-6.3-6.3c0.3,1.7,1.6,4.5,3.9,7.2c2.3,2.7,5.5,5.4,8.8,7.6c5.6,3.8,13,7,20.8,9
					c7.7,1.9,15.7,2.5,22.2,2.3c5-0.1,9.9-0.6,14.8-1.4c4.9-0.8,9.7-2.1,14.2-3.5c4.7-1.5,9.2-3.2,13.6-5.1c4.4-1.9,8.7-4,12.8-6.2
					c6.1-3.3,11.6-6.8,17.2-10.4C583.5,501.6,589.2,497.7,594.9,493.7z"/>
			</g>
		</g>
		<g>
			<g>
				<path class="st38" d="M474.6,484.9c1-1,1.6-2.8,2.3-4.2c2.2-4.5,4.5-10,5.6-15.2c1.2-3.7,1.6-6.9,2.4-11.7
					c0.3-2.1,0.8-4.1,1.1-6c0.6-4.3,1.1-8.4,1.6-12.6c0.5-4.2,0.8-8.4,0.7-12.8c0-0.9-0.1-1.9-0.2-2.9c-0.3-2.3-0.7-5.2-1.5-7.2
					c-0.9-2.3-2.3-3.7-3.1-3.5c0,0.5,0.1,1,0.2,1.7c0.1,0.6,0.3,1.4,0.6,2.1c0.4,1.6,0.9,3.4,1.1,5.2c0.4,3.1,0.6,6.8,0.4,10.5
					c-0.2,3.7-0.6,7.5-0.9,10.5c-0.5,4.7-1.1,9.5-1.7,14c-0.6,4.6-1.5,9.1-2.4,13.5c-0.7,3.2-1.4,6.3-2.4,9.3
					C477.3,478.7,476,481.9,474.6,484.9z"/>
			</g>
		</g>
		<g>
			<g>
				<path class="st38" d="M437.2,280.7c-1-0.4-2.3,0.1-3.5,0.3c-3.6,0.6-7.9,1.9-11.1,4.3c-2.5,1.3-4.4,3-7,5.4
					c-1.1,1-2.4,1.9-3.4,3c-2.3,2.2-4.4,4.4-6.6,6.6c-2.1,2.2-4.3,4.4-6.5,6.7c-0.5,0.5-0.9,1-1.4,1.5c-1.1,1.2-2.6,2.6-3.6,3.9
					c-1.1,1.3-1.5,2.8-1,3.4c1.5-0.3,3.4-2.5,5.3-4.5c3.3-3.3,7.8-8.1,10.9-11.4c2.4-2.6,4.8-5.1,7.2-7.4c2.4-2.4,5-4.5,7.7-6.3
					c1.9-1.3,3.9-2.6,6-3.5C432.4,281.6,434.8,281,437.2,280.7z"/>
			</g>
		</g>
		<g>
			<g>
				<path class="st38" d="M439.4,288.5c1.7,0,3.6-1,5.3-1.8c2.7-1.2,5.5-2.8,8.2-4.7c2.7-1.9,5.1-4.3,7.2-6.7
					c3.3-3.2,5.5-6.5,8.9-11c0.7-1,1.5-1.9,2.2-3c0.3-0.5,0.7-1.1,0.9-1.7c0.2-0.6,0.4-1.4,0.3-2.1c-0.1-0.4-0.2-0.8-0.4-1.2
					c-0.2-0.4-0.6-0.9-1.1-1.1c-0.5-0.2-1.1-0.2-1.6-0.1c-0.5,0.2-0.9,0.5-1.1,0.7c-0.9,0.9-1.8,1.7-2.8,2.6
					c-1.8,1.7-3.7,3.3-5.6,4.8c-3.8,3.1-7.7,6.1-12,8.9c-0.9,0.6-1.8,1.2-2.8,1.8c-2.2,1.5-5,3-7.2,4.4c-2.3,1.4-3.9,3-3.7,3.8
					c2.1-0.1,6.2-2.5,10.1-4.8c3.3-2,7.1-4.5,10.7-7.2c3.6-2.7,7.1-5.6,9.8-8.1c1.1-0.9,2.1-1.9,3.1-2.9l1.5-1.5
					c0.2-0.2,0.4-0.4,0.5-0.4l0,0c0,0,0,0,0,0c0.1,0.1,0.1,0.3,0.1,0.5c0,0.2,0,0.4,0,0.6c-0.1,0.3-0.1,0.5-0.3,0.8
					c-0.4,1.1-1.2,2.1-2,3.2c-3.2,4.6-6.4,8.9-9.9,12.9c-2.6,2.9-5.1,5.6-8.1,7.8C446.7,285.5,443.2,287.4,439.4,288.5z"/>
			</g>
		</g>
		<g>
			<g>
				<path class="st38" d="M423.3,315.9c0.3,0.7,1,1.2,1.8,1.6c0.8,0.3,1.7,0.5,2.5,0.6c1.3,0.2,2.7,0.2,4.1,0.2c1.4,0,2.9,0,4.4-0.1
					c3-0.1,5.9-0.1,8.8-0.4c1,0,2.1-0.2,3.1-0.7c1-0.5,1.7-1.2,2.4-2c1.4-1.5,2.7-3.3,4-5.6c1.2-1.9,2.4-3.8,3.3-5.7
					c0.5-1,1.1-2.1,1.4-3.4c0.1-0.3,0.1-0.6,0.1-1.1c0-0.5-0.1-1-0.2-1.4c-0.1-0.2-0.2-0.4-0.3-0.6l-0.1-0.3c0,0,0-0.1-0.1-0.1
					l-0.2,0c-0.4,0-0.9,0-1.4,0.2l-0.7,0.1c-0.2,0-0.3,0.1-0.5,0.1c-0.3,0.1-0.6,0.2-0.9,0.3c-0.6,0.2-1.1,0.5-1.6,0.7
					c-1.1,0.5-2,1.1-3,1.7c-1.9,1.2-3.7,2.4-5.7,2.9c-1.9,0.6-4.1,0.7-5.7-0.1c-0.7-0.3-1.3-0.8-1.7-1.5c-0.5-0.8-0.8-1.9-0.8-3
					c0-1.1,0.3-2.2,0.6-3.2c0.7-2.2,1.2-4.1,0.6-4.7c-0.8,0.6-1.7,1.7-2.5,3.5c-0.8,1.7-1.4,4.1-0.9,6.4c0.2,1,0.6,2,1.3,2.9
					c0.7,0.9,1.6,1.7,2.7,2.1c2.2,0.9,4.6,0.8,6.7,0.2c1.1-0.3,2.1-0.7,3.1-1.2c0.9-0.5,1.8-1,2.6-1.5c1.6-1,3.1-2,4.5-2.6
					c0.5-0.2,1.1-0.5,1.6-0.6l0.2-0.1l0,0l0,0c0,0,0,0,0,0l0,0.4c-0.1,0.5-0.2,1-0.4,1.5c-0.4,1-1.1,2.2-1.6,3.3
					c-0.6,1.1-1.1,2.2-1.7,3.2c-1.2,2.2-2.5,4.2-4,5.9c-0.8,0.9-1.5,1.6-2.4,1.9c-0.9,0.4-2,0.5-3.2,0.6c-3.5,0.3-6.9,0.8-10.3,1.1
					c-1.8,0.2-3.6,0.4-5.3,0.3C426.3,317.6,424.5,317.1,423.3,315.9z"/>
			</g>
		</g>
		<g>
			<g>
				<path class="st38" d="M452.7,298.8c0.5-0.1,0.4-0.6,0.6-0.9c0.5-0.9,1.4-2.1,1.4-3.3c0.4-0.8,0.4-1.6,0.5-2.6
					c0-0.5,0.3-0.9,0.3-1.4c0-1,0-2-0.3-3c-0.3-1-0.7-2-1.6-2.9c-0.2-0.2-0.4-0.4-0.6-0.5c-0.5-0.4-1.2-0.8-1.9-0.8
					c-0.8,0-1.3,0.7-1.2,1.5c0.4,0.8,0.8,0.8,1.4,1.2c0.4,0.3,0.8,0.7,1.1,1.3c0.3,0.6,0.5,1.2,0.6,1.8c0.2,0.9,0.2,1.9,0.3,2.8
					c0.1,0.9-0.1,1.9-0.1,2.8c0,0.7,0,1.4-0.1,2C453,297.4,452.9,298.1,452.7,298.8z"/>
			</g>
		</g>
		<g>
			<g>
				<path class="st38" d="M443.1,302.5c0.5,0.1,0.5-0.3,0.8-0.5c0.7-0.6,1.9-1,2.4-2c0.7-0.4,1-1,1.5-1.8c0.2-0.3,0.6-0.6,0.8-1
					c0.4-0.8,0.6-1.7,0.7-2.7c0-0.9-0.1-1.9-0.4-2.9c-0.1-0.2-0.2-0.4-0.3-0.6c-0.3-0.5-0.6-1.1-1.1-1.4c-0.5-0.3-1.3,0.1-1.7,0.8
					c-0.2,0.9,0.3,1.1,0.5,1.6c0.2,0.4,0.4,0.9,0.5,1.5c0.1,0.6,0.1,1.1,0.1,1.6c-0.1,0.7-0.3,1.4-0.6,2.1c-0.3,0.7-0.8,1.3-1.2,2
					c-0.3,0.5-0.5,1.1-0.8,1.6C443.8,301.4,443.5,301.9,443.1,302.5z"/>
			</g>
		</g>
		<g>
			<g>
				<path class="st38" d="M438.9,302.1c0.3,0.3,0.4,0,0.6-0.1c0.5-0.2,1.5-0.2,1.8-0.9c0.5-0.2,0.7-0.6,1-1.1
					c0.2-0.2,0.4-0.4,0.6-0.6c0.5-1.1,0.8-2.2,0.6-3.5c0-0.1-0.1-0.3-0.1-0.4c-0.1-0.3-0.2-0.8-0.4-1c-0.3-0.3-1-0.1-1.7,0.3
					c-0.6,0.7-0.4,0.9-0.3,1.2c0,0.3,0.1,0.6,0.1,1c0,0.3,0,0.7-0.1,1c-0.1,0.4-0.3,0.8-0.4,1.2c-0.1,0.4-0.4,0.8-0.6,1.1
					c-0.1,0.3-0.2,0.7-0.4,0.9c-0.1,0.1-0.2,0.3-0.3,0.4C439.2,301.8,439,302,438.9,302.1z"/>
			</g>
		</g>
		<g>
			<g>
				<path class="st38" d="M382.7,334.8c-0.5,0.3-0.3,0.9-0.4,1.3c-0.4,1.4-1.4,2.8-1.7,4.3c-0.3,0.4-0.6,0.9-0.8,1.4
					c-0.1,0.3-0.2,0.4-0.3,0.5c-0.1,0.1-0.3,0.2-0.5,0.1c-0.2,0-0.3-0.1-0.4-0.3c-0.1-0.2-0.1-0.3-0.2-0.5c-0.1-0.4-0.1-0.8-0.1-1.4
					c0-0.6,0.1-1.1,0.2-1.5c0.1-0.5,0.3-0.9,0.5-1.1c0.2-0.3,0.6-0.5,0.8-0.5c0.1,0,0.2,0,0.3,0c0.1,0,0.2,0.2,0.3,0.4
					c0.1,0.1,0.3,0.1,0.5,0.2c0.2,0.2,0.5,0.5,0.8,0.8c0.3,0,0.5-0.1,0.7-0.4c0.2-0.3,0.3-0.7,0.3-1c-0.1-0.8-0.5-1.6-1.3-2.1
					c-0.7-0.4-1.6-0.5-2.4-0.3c-0.8,0.2-1.4,0.7-1.9,1.2c-1,1.2-1.2,2.6-1.2,3.6c0,0.7-0.1,1.5,0.2,2.4c0.1,0.5,0.3,0.9,0.8,1.4
					c0.2,0.2,0.4,0.4,0.7,0.5c0.3,0.2,0.6,0.3,0.9,0.3c0.6,0.1,1.3,0,1.8-0.4c0.3-0.2,0.5-0.4,0.7-0.7c0.2-0.3,0.3-0.5,0.4-0.7
					c0.3-0.6,0.5-1.3,0.7-1.9c0.3-1,0.3-1.9,0.4-2.9C382.7,336.8,382.7,335.8,382.7,334.8z"/>
			</g>
		</g>
		<g>
			<g>
				<path class="st38" d="M473,240.4c-0.6,0-1.2-0.1-1.8-0.2c-0.6-0.2-1.2-0.5-1.6-0.9c-0.7-0.7-1.2-1.7-1.3-2.7
					c-0.1-1,0.1-2.1,0.5-3c0.7-1.9,2-3.7,2.9-5.5c1.7-2.4,2.9-4.6,5-7.7c0.9-1.3,1.9-2.6,2.7-3.8c3.6-5.5,6.9-10.9,9.6-17.1
					c0.3-0.6,0.5-1.3,0.8-2.1c0.3-0.8,0.6-1.8,1-2.7c0.3-0.9,0.6-1.8,0.8-2.7c0.4-1.8,0-3.3-0.8-3.6c-0.6,0.5-1,1.5-1.4,2.7
					c-0.4,1.2-0.8,2.6-1.3,3.9c-0.8,2.3-2,4.9-3.2,7.5c-1.2,2.6-2.6,5.1-3.8,7.1c-1.8,3.1-3.8,6.2-5.6,9.2c-1.9,3.1-3.8,6.1-5.4,9.2
					c-1.2,2.2-2.4,4.6-2.4,7.4c0,0.7,0.1,1.5,0.4,2.2c0.3,0.7,0.7,1.3,1.2,1.8C470.1,240.3,471.7,240.9,473,240.4z"/>
			</g>
		</g>
		<g>
			<g>
				<path class="st38" d="M504.7,266.8c-1,0.5-1.7,1.6-2.6,2.3c-1.5,1.1-3.4,1.8-5.3,2.2c-1.9,0.4-3.9,0.5-5.8,0.5
					c-1.4-0.2-2.6-0.5-3.9-0.8c-1.3-0.3-2.7-0.8-4.2-1.5c-1.3-0.7-2.4-1.6-3.5-2.4c-2.3-1.8-4.2-4.1-5.3-6.7c-1.1-2.6-1.2-5.4-1-8.4
					c0.1-0.6,0.1-1.3,0.2-2c0.1-1.6,0.4-3.7,0.3-5.3c-0.1-1.8-1.1-3.1-1.9-3c-0.6,1.3-0.3,3.9-0.7,6.6c-0.2,2.3-0.7,5.1-0.4,8
					c0.1,1.5,0.4,2.9,1,4.3c0.5,1.3,1.1,2.5,1.8,3.5c2.1,3.1,5.1,5.5,8.2,7c3.3,1.5,6.7,2.4,10.2,2.4c2.5-0.1,4.9-0.7,7.1-1.8
					c1.2-0.5,2.3-1.2,3.2-2C503.1,268.8,503.9,267.8,504.7,266.8z"/>
			</g>
		</g>
		<g>
			<g>
				<path class="st38" d="M473.6,220.7c-0.7-0.4-1.6-0.2-2.4-0.4c-1.2-0.3-2.5-0.9-3.6-1.7c-0.5-0.4-1.1-0.9-1.4-1.2
					c-0.2-0.2-0.3-0.3-0.5-0.5l-0.3-0.3l-0.1-0.1c0,0,0,0,0,0l0.1,0c0.5-0.1,0.8-0.1,1.1-0.2c0.2,0,0.3-0.1,0.4-0.1
					c0.2-0.1,0.4-0.1,0.7-0.2c0.5-0.1,0.9-0.3,1.4-0.5c0.5-0.2,1-0.4,1.6-0.7c1-0.4,2-0.7,2.9-1.2c1.9-1,3.7-2.2,5.4-3.5
					c1.7-1.3,3.2-2.8,4.7-4.5c0.3-0.3,0.6-0.7,0.9-1.1c0.7-0.9,1.6-2,2.1-3c0.5-1.1,0.4-2.2-0.3-2.7c-1.2,0.3-2,2-3.2,3.4
					c-1,1.2-2.1,2.6-3.4,3.9c-1.3,1.3-2.7,2.5-3.9,3.3c-1.8,1.4-3.8,2.5-5.8,3.5c-1,0.5-2,1-3.1,1.4l-0.9,0.3
					c-0.6,0.2-1,0.3-1.5,0.5l-1.4,0.5l-0.7,0.3c-0.1,0,0,0.1,0.1,0.1l0.1,0.1l0.3,0.3c0.5,0.5,1,1,1.6,1.5c0.3,0.2,0.5,0.5,0.8,0.6
					l0.4,0.3c0.1,0.1,0.2,0.1,0.3,0.2c0.8,0.4,1.5,0.8,2.3,1C470.1,220.7,471.9,220.9,473.6,220.7z"/>
			</g>
		</g>
		<g>
			<g>
				<path class="st38" d="M509.6,256c1,0.7,2.6,0.4,3.9,0.3c2.1-0.1,4.3-0.5,6.5-1.2c2.2-0.7,4.3-1.8,6.1-3.2
					c0.7-0.4,1.3-0.9,1.9-1.4c0.6-0.5,1.2-1,1.7-1.6c1.1-1.2,2.2-2.5,3.3-4.2c0.9-1.5,1.9-3,2.5-4.6c0.3-0.9,0.6-1.8,0.7-2.8
					c0.1-1,0.1-2-0.3-3.1c-0.4-1-1.2-1.9-2.1-2.5c-0.9-0.6-1.9-0.9-2.9-1c-2-0.2-3.9,0.2-5.6,0.7c-1.7,0.5-3.4,1.1-5.1,1.7
					c-0.7,0.3-1.4,0.6-2.2,1c-1.7,0.8-3.9,1.8-5.4,2.8c-1.7,1.1-2.5,2.6-2.2,3.3c1.6-0.1,4.2-1.9,7-3.2c2.3-1.1,5.2-2.3,8.2-3.1
					c1.5-0.4,2.9-0.8,4.2-0.8c1.3,0,2.4,0.3,3.1,0.9c0.5,0.4,0.9,1,1,1.7c0.1,0.7,0,1.5-0.2,2.4c-0.2,0.8-0.6,1.7-0.9,2.6
					c-0.4,0.8-0.7,1.7-1.2,2.5c-1.8,3.3-4.4,5.9-7.2,8c-2.1,1.6-4.3,2.9-6.8,3.7c-0.7,0.2-1.3,0.4-2,0.6l-1,0.2l-1,0.2
					C512.3,256.1,511,256.2,509.6,256z"/>
			</g>
		</g>
		<g>
			<g>
				<path class="st38" d="M530.3,240.2c-0.5-0.4-1,0-1.5,0c-1.5,0-3.3-0.8-5-0.5c-1.3-0.2-2.4,0.3-3.7,1.2c-0.6,0.4-1.2,0.8-1.6,1.5
					c-0.4,0.7-0.6,1.6-0.4,2.5c0.2,0.8,0.4,1.4,0.3,1.6c0,0.3-0.2,0.5-0.5,0.8c-0.3,0.2-0.7,0.4-1.1,0.4c-0.1,0-0.4,0-0.6,0
					c-0.5,0-1.1-0.3-1.7-0.5c-0.6-0.2-1.4,0.2-1.8,0.9c0,1,1.2,1.5,2.5,1.9c0.6,0.2,1.2,0.3,2,0.2c0.8-0.1,1.5-0.4,2.2-0.9
					c0.6-0.5,1.2-1.2,1.4-2.1c0.1-0.4,0.1-0.9,0-1.3c-0.1-0.4-0.2-0.7-0.2-0.9c-0.1-0.4-0.2-0.6-0.2-0.8c0-0.2,0-0.4,0.1-0.6
					c0.1-0.4,0.4-0.8,0.8-1.2c0.4-0.4,0.9-0.7,1.4-0.9c0.5-0.2,1-0.3,1.7-0.4c0.9-0.1,1.9-0.4,2.8-0.4
					C528.2,240.7,529.3,240.6,530.3,240.2z"/>
			</g>
		</g>
		<g>
			<g>
				<path class="st38" d="M494.8,304c0.8-0.6,1.1-1.7,1.5-2.5c1.5-2.7,3.7-5.7,5-8.9c1.3-2,2-4,3.3-6.7c0.6-1.2,1.3-2.3,1.8-3.4
					c1.1-2.4,2.2-4.9,3.1-7.3c0.9-2.5,1.7-5.1,2.2-7.8c0.1-0.6,0.2-1.2,0.3-1.8c0.2-1.5,0.3-3.3,0.2-4.7c-0.2-1.6-1.1-2.6-1.8-2.6
					c-0.7,1.1-0.4,3.4-0.7,5.7c-0.2,1.9-0.6,4.2-1.2,6.4c-0.6,2.2-1.4,4.4-2,6.2c-1,2.7-2.2,5.5-3.3,8.1c-1.1,2.7-2.3,5.3-3.4,7.9
					c-0.8,1.9-1.5,3.8-2.3,5.6C496.5,300.1,495.7,302,494.8,304z"/>
			</g>
		</g>
		<g>
			<g>
				<path class="st38" d="M527.3,183.9c-0.9,1.1-1.6,2.8-2.7,4c-1.7,1.9-4,3.4-6.2,5.1c-2.3,1.6-4.6,3.2-6.6,4.9
					c-3.2,2.1-5.8,4.2-9.5,7.3c-1.6,1.3-3.3,2.6-4.7,4c-1.6,1.5-3.1,3-4.5,4.7c-1.4,1.7-2.6,3.7-3,6c-0.4,2.3-0.1,4.7,0.7,6.8
					c0.8,2.1,2.1,4.1,3.8,5.8c0.7,0.7,1.5,1.3,2.3,1.9c2,1.4,4.5,2.8,6.7,3.4c2.3,0.8,4.2,0.6,4.7-0.1c-1.3-1.3-5.1-2.3-8.2-4.2
					c-1.3-0.8-2.7-1.8-3.8-3c-1.2-1.2-2.2-2.7-2.9-4.3c-0.7-1.6-1-3.3-0.9-4.9c0.1-1.6,0.6-3,1.3-4.2c1.1-1.9,2.7-3.6,4.3-5.3
					c1.6-1.7,3.3-3.3,5-4.8c3.5-3.1,7.2-5.9,10.7-8.7c2.6-2.1,5-4.2,7.4-6.3C523.5,189.8,526.1,187.2,527.3,183.9z"/>
			</g>
		</g>
		<g>
			<g>
				<path class="st38" d="M565.1,141.6c0.9-0.4,1.8-1.2,2.3-2.2c0.5-1,0.7-2.3,0.6-3.5c-0.2-2.4-1.6-4.7-3.5-6
					c-1.5-1.1-3.3-1.8-5.2-2.2c-1.9-0.4-3.9-0.6-5.8-0.7c-2,0-4-0.1-6.1-0.1c-2,0-4.1,0.1-6.1,0.2c-8.2,0.5-16.6,1.9-24.2,4.1
					c-1.4,0.3-2.8,0.7-4.1,1.1c-1.3,0.4-2.7,0.8-4,1.2c-1.3,0.5-2.6,0.9-3.9,1.4c-0.7,0.2-1.3,0.5-2,0.7c-0.6,0.3-1.3,0.5-2,0.8
					c-1.3,0.5-2.7,1.1-4,1.6c-1.3,0.6-2.7,1.2-4.1,1.9c-1.4,0.6-2.9,1.3-4.4,2.1c-1.5,0.7-3.1,1.5-4.6,2.3c-5.5,2.8-10.9,5.9-15.9,9
					c-2.7,1.8-5.3,3.5-7.9,5.4c-2.6,1.8-5.2,3.7-7.6,5.8c-2.4,2.1-4.6,4.5-6.2,7.4c-0.8,1.5-1.4,3-1.8,4.6c-0.2,0.8-0.3,1.7-0.2,2.7
					c0.1,0.9,0.4,1.9,0.9,2.7c1,1.6,2.4,2.7,3.8,3.5c1.5,0.9,3,1.4,4.6,1.8c3.2,0.8,6.5,0.8,9.7,0.7c3.1-0.2,6.3-0.4,9.5-0.5
					c3.2-0.2,6.3-0.3,9.6-0.3c2.6-0.1,5.5-0.1,8.4-0.1c6.8-0.1,14.9,0.3,21.2,0.5c7,0.3,12.3,0.1,12.9-0.7
					c-4.8-1.3-16.6-2.1-27.9-2.3c-9.5-0.2-21,0-32.3,0.9c-2.8,0.2-5.5,0.2-8.2-0.1c-2.6-0.3-5.1-1.1-7.1-2.5c-1-0.7-1.8-1.5-2.3-2.4
					c-0.5-0.9-0.5-1.9-0.4-3c0.1-1.1,0.6-2.2,1-3.2c0.5-1,1-2,1.6-2.9c1.9-2.7,4.5-5.1,7.2-7.2c1.4-1.1,2.8-2.1,4.2-3.1
					c1.4-1,2.8-2.1,4.3-3c5.8-4,11.7-7.6,17.7-10.9c3-1.7,6.2-3.2,9.2-4.8c1.6-0.7,3.1-1.4,4.7-2.1c1.6-0.7,3.2-1.3,4.7-2
					c6.3-2.5,12.7-4.7,19.2-6.3c9.5-2.4,18.9-3.8,28.3-4c2.5,0,5-0.1,7.5,0.2c2.4,0.2,4.9,0.8,7,2c1,0.6,2,1.4,2.7,2.3
					c0.7,1,1.1,2.1,1.4,3.3c0.2,1.2,0.2,2.4-0.2,3.5C566.9,140,566.1,141,565.1,141.6z"/>
			</g>
		</g>
		<g>
			<g>
				<path class="st38" d="M614.8,242c-1.5,0.4-3.2-0.1-4.4-1.2c-1.3-1.1-1.9-2.8-2-4.4c-0.2-2.5,0.5-5.1,1.1-7.7
					c0.6-2.6,1.4-5.2,2.3-7.8c1.8-5.2,4.1-10.3,6.2-15.2c1.7-3.4,3.3-6.6,4.9-10c1.6-3.4,3.4-7.1,5.2-11.6c1.5-3.9,2.9-7.9,3.1-12
					c0.3-4.4-0.8-9-3.5-12.6c-2.6-3.6-6.1-6.2-9.7-8.4c-7.2-4.4-15.2-7.6-23.8-9.4c-1.8-0.4-3.7-0.7-5.7-1
					c-4.6-0.6-10.2-0.9-14.5-0.5c-4.8,0.4-8.2,1.8-8.4,2.6c3.3,0.3,11-0.8,18.5-0.1c6.3,0.5,13.7,2,20.6,4.7
					c3.5,1.3,6.8,2.9,9.9,4.6c3.1,1.7,5.9,3.5,8.1,5.5c1.7,1.5,3.1,3.2,4.2,5.2c1.1,1.9,1.7,4,1.9,6.2c0.5,4.4-0.6,8.9-2.1,13.1
					c-1.5,4.3-3.5,8.5-5.5,12.7c-1.9,4.2-3.9,8.3-5.7,12.5c-2.6,6.1-4.7,12.2-6.2,18.5c-0.4,1.7-0.7,3.3-1,5
					c-0.3,1.7-0.5,3.4-0.5,5.1c0.1,1.7,0.6,3.6,1.8,4.9c0.6,0.6,1.4,1.2,2.3,1.4C613,242.4,614,242.4,614.8,242z"/>
			</g>
		</g>
		<g>
			<g>
				<path class="st38" d="M519.5,261.1c-0.9,1.5-1.3,3.6-1.1,5.6c0.2,2.1,0.9,4.1,1.7,5.9c1.3,2.9,3.3,5.6,5.7,8
					c2.5,2.3,5.6,4.1,8.8,5.4c3.3,1.3,6.7,2.2,10.2,2.7c3.5,0.5,7,0.7,10.4,0.8c4.9,0.3,9.4,0.3,14.2,0c4.8-0.3,9.9-0.9,16-2
					c5.2-0.9,10.3-2,15.2-3.5c5.2-1.6,10.3-3.3,15.3-5.3c5-2.1,9.8-4.4,14.3-7.2c4.6-2.9,8.9-6.2,12.3-10.7c1.6-2.3,2.8-5.1,3-8.1
					c0.3-3-0.7-6.1-2.5-8.5c-1.5-2-3.6-3.7-6-4.8c-1.4-0.7-2.9-1.3-4.5-1.6c-1.6-0.4-3.2-0.6-4.8-0.8c-3.1-0.4-6.2-0.7-8.7-1.3
					c-1.4-0.3-2.6-0.7-3.7-1.1c-0.5-0.3-1-0.5-1.5-0.7c-0.4-0.3-0.9-0.5-1.2-0.8c-1.5-1.1-2.4-2-2.9-2c0.2,0.5,0.5,1.1,0.8,1.7
					c0.2,0.3,0.5,0.6,0.7,0.9c0.1,0.2,0.3,0.3,0.4,0.5c0.2,0.1,0.3,0.3,0.5,0.4c1.3,1.3,3.1,2.3,5.3,3c4.2,1.4,9.3,1.4,13.8,2.3
					c1.9,0.4,3.8,1,5.6,2.1c1.8,1,3.4,2.4,4.6,4.2c1.2,1.7,1.8,3.8,1.7,5.9c-0.1,2.1-0.8,4.3-1.9,6.2c-0.6,1-1.2,1.9-2,2.7
					c-0.8,0.8-1.6,1.7-2.4,2.5c-0.9,0.8-1.7,1.5-2.6,2.2c-0.4,0.4-0.9,0.7-1.3,1.1c-0.5,0.3-0.9,0.7-1.4,1
					c-3.7,2.6-7.4,4.6-10.9,6.3c-5.3,2.6-11,4.7-16.6,6.6c-5.7,1.9-11.3,3.5-17,4.7c-11.6,2.4-23.2,3.1-34.6,2.5
					c-4.2-0.2-8.2-0.5-12.1-1.4c-3.9-0.8-7.7-2.2-11-4.3c-3.6-2.2-6.4-5.4-8.4-9.1c-1-1.8-1.7-3.8-2-5.9
					C518.5,265.2,518.7,263,519.5,261.1z"/>
			</g>
		</g>
		<g>
			<g>
				<path class="st38" d="M607.2,642.8c0.4-2.7,0.1-6.2,0.2-9.3c0.2-9.8,1.3-21.1,1.6-31.6c0.6-7.4,0.8-13.8,1.1-23.2
					c0.1-4,0.4-8,0.4-11.9c0.1-8.4-0.2-16.5-0.8-24.7c-0.6-8.1-1.9-16.4-4.6-24.5c-0.3-0.8-0.6-1.7-0.9-2.6
					c-0.3-0.9-0.7-1.8-1.1-2.7c-1.8-4.1-4.5-8.9-7.3-12.2c-1.5-1.8-3-3.2-4.3-4c-1.3-0.8-2.2-1.2-2.6-1.1c0.4,0.7,1.1,1.6,1.9,2.5
					c0.8,1,1.7,2.1,2.7,3.4c1.9,2.5,4,5.6,5.7,8.8c2.8,5.4,5.2,12.4,6.5,19.5c0.7,3.6,1.2,7.2,1.5,10.6c0.4,3.5,0.6,6.8,0.8,9.8
					c0.5,9.2,0.5,18.5,0.4,27.4c-0.1,9.2-0.6,18.1-0.9,26.9c-0.2,6.4-0.2,12.7-0.3,18.9C606.9,629.7,606.9,636.3,607.2,642.8z"/>
			</g>
		</g>
		<g>
			<g>
				<path class="st38" d="M645.8,675.7c-0.7-0.7-1.8-0.9-2.7-1.3c-2.9-1.4-5.9-3.6-8.8-5.2c-0.9-0.8-1.9-1.4-2.8-2.1
					c-0.5-0.3-1-0.7-1.5-1.1c-0.5-0.4-1-0.8-1.6-1.3c-1-0.8-1.8-1.9-2.7-2.7c-3.9-3.7-7.2-7.6-10.2-12c-0.3-0.5-0.6-1-1-1.5
					c-0.4-0.6-0.8-1.2-1.2-1.9c-0.4-0.7-0.8-1.3-1.2-1.9c-0.8-1.2-1.9-1.9-2.7-1.6c-0.3,1.3,1,3.5,2.3,5.6c0.5,0.9,1.2,1.8,1.8,2.8
					c0.7,1,1.4,2,2.1,2.9c1.5,1.9,3.1,3.8,4.5,5.2c2.1,2.2,4.4,4.3,6.7,6.2c2.4,1.9,4.8,3.6,7.4,5c0.9,0.5,1.9,1,2.8,1.4
					c1,0.4,1.9,0.8,2.8,1.2c1,0.4,2,0.8,3,1.2C643.7,675.1,644.7,675.4,645.8,675.7z"/>
			</g>
		</g>
		<g>
			<g>
				<path class="st38" d="M398.4,710.9c-1.1-1.5-2.3-3.2-3.3-5.2c-1-1.9-1.6-4.1-2-6.1c-0.6-3.3-0.6-6.7-0.2-10.3
					c0.3-3.5,1-7.1,1.9-10.6c1.7-7.1,3.7-14.2,5.9-20.9c1.7-4.7,3.4-9.1,5.4-13.7c1.9-4.6,4.1-9.4,7.1-15c2.6-4.8,5.4-9.4,8.2-13.7
					c3.1-4.7,6.2-9.3,9.6-13.7c3.3-4.4,6.8-8.7,10.1-13.1c6.7-8.8,12.8-18.2,17.6-28.6c0.5-1.1,1-2.2,1.5-3.4
					c0.5-1.2,0.9-2.4,1.4-3.6c0.6-1.4,1-2.9,1.6-4.5c0.5-1.5,1-3.1,1.5-4.7c0.9-3.2,1.6-6.4,2-9.2c0.5-3.1,0.5-5.9,0.4-7.9
					c-0.2-2-0.5-3.4-0.9-3.6c-0.3,1.1-0.5,2.5-0.7,4.2c-0.3,1.7-0.5,3.7-0.9,5.8c-0.7,4.3-1.9,9.2-3.4,13.9c-2.6,7.9-6.8,17-12,25.4
					c-2.6,4.2-5.3,8.3-8.1,12.1c-2.8,3.8-5.6,7.4-8,10.6c-1.9,2.5-3.8,5-5.7,7.5c-0.9,1.3-1.8,2.6-2.7,3.9c-0.9,1.3-1.8,2.6-2.7,3.9
					c-3.5,5.2-6.7,10.6-9.5,16c-5.8,11.1-10.6,22.4-14.1,33.8c-1.3,4.2-2.4,8.4-3.3,12.5c-0.5,2.1-0.9,4.2-1.3,6.2
					c-0.4,2.1-0.8,4.2-1,6.3c-0.6,4.5-0.8,9,0,13.5C393.4,703.3,395.3,707.7,398.4,710.9z"/>
			</g>
		</g>
		<g>
			<g>
				<path class="st38" d="M644.9,674.1c-3.7,3-8.1,7.3-12.3,10.6c-6.7,5.3-14.5,10.4-22.7,14.9c-4.1,2.2-8.4,4.4-12.6,6.3
					c-1.1,0.5-2.1,1-3.2,1.5c-1.1,0.5-2.2,0.9-3.2,1.4c-1.1,0.4-2.1,0.9-3.2,1.3c-1.1,0.4-2.1,0.8-3.2,1.3c-6.2,2.2-11.9,4-18.1,5.6
					c-6.2,1.7-12.9,3.2-21,4.4c-7,1.1-13.9,1.6-20.6,2c-14.5,0.8-28.7,0.2-42.8-1.5c-14.1-1.7-28-4.5-42.2-8.3
					c-2.9-0.8-6-1.7-9.2-2.6c-3.7-1.1-7.7-2.4-11.7-3.8c-3.9-1.4-7.7-2.9-10.9-4.6c-3.5-1.8-6.3-3.6-8.4-5.1
					c-2.1-1.5-3.4-2.6-3.9-2.6c1.4,2.5,4.9,6.1,9.9,9c5,3,11.3,5.2,17.5,7.3c5.2,1.8,10.9,3.5,17,5.1c6,1.6,12.4,3.1,18.7,4.4
					c6.4,1.3,12.7,2.3,18.9,3.2c6.1,0.8,12,1.4,17.2,1.7c16.2,1.1,32.8,0.5,48.4-1.9c16-2.4,31.3-6.5,45.7-12.4
					c5.2-2.2,10.3-4.5,15.2-7.1c4.9-2.6,9.6-5.4,14.1-8.3C627.7,689.5,636.8,682.2,644.9,674.1z"/>
			</g>
		</g>
		<g>
			<g>
				<path class="st38" d="M531.9,886.1c0.2-2.9-0.5-6.5-0.7-9.7c-0.8-10.2-0.8-22.1-1.4-33c0-7.8-0.3-14.5-0.4-24.2
					c0-4.2,0.1-8.4,0.1-12.4c0-17.5,0-33.9-0.5-51.6c-0.1-1.8-0.1-3.8-0.2-5.8c-0.2-4.6-0.4-10.2-0.7-14.6c-0.4-4.8-1.3-8.3-2.1-8.7
					c-0.7,3.4,0,11.4,0.2,19.1c0.1,3.2,0.2,6.8,0.3,10.5c0.1,3.7,0.2,7.6,0.3,11.4c0.1,7.7,0.2,15.4,0.3,21.7
					c0.1,9.6,0.1,19.4,0.4,28.8c0.2,9.6,0.4,19,0.9,28.2c0.2,3.4,0.4,6.7,0.7,9.9c0.3,3.3,0.5,6.5,0.8,9.7c0.3,3.4,0.6,6.9,1,10.3
					C531.1,879.2,531.5,882.6,531.9,886.1z"/>
			</g>
		</g>
		<g>
			<g>
				<path class="st38" d="M557.6,885.2c1.1-2.9,1.8-6.8,2.5-10.3c2.4-10.8,4.8-23.7,5.4-35.6c0.2-2.1,0.4-4.2,0.5-6.2
					c0.1-2,0.2-4.1,0.2-6.2c0-2.1,0-4.3,0-6.6c0-2.3-0.1-4.8-0.1-7.5c-0.1-2.3-0.1-4.6-0.2-6.9c-0.1-2.3-0.2-4.5-0.4-6.7
					c-0.4-4.8-0.9-9.4-1.5-14.1c-0.3-2.3-0.6-4.6-1-6.9c-0.4-2.3-0.7-4.6-1-6.8c-0.2-2.3-0.4-4.5-0.3-6.8c0.1-2.2,0.5-4.5,1.1-6.7
					c1.1-4.4,3-8.7,4.8-13.2c0.7-1.8,1.5-3.8,2.4-5.8c1.9-4.7,4.3-10.3,5.9-14.7c1.9-4.9,2.7-8.8,2.1-9.5c-2.2,3-5.4,11.2-8.6,19
					c-1.4,3.3-2.8,6.9-4.4,10.6c-1.5,3.7-3.2,7.7-4.4,11.8c-0.6,2.1-1,4.2-1.3,6.4c-0.2,2.2-0.2,4.3-0.1,6.3c0.3,4.1,1,7.9,1.6,11.2
					c1.7,10.3,2.7,20.9,3.2,31.1c0.5,10.4,0.3,20.6-0.4,30.6c-0.5,7.3-1.1,14.3-2.1,21.3C560.6,870.6,559.2,877.9,557.6,885.2z"/>
			</g>
		</g>
		<g>
			<g>
				<path class="st38" d="M581.2,595.8c-1.6,1.2-2.9,3.3-4.4,4.9c-4.7,5.1-11.3,9.9-17.2,14.3c-4.5,2.8-8.1,5.4-13.8,8.8
					c-2.5,1.5-5,2.7-7.4,4.1c-5.1,3-10.1,5.8-15.1,8.8c-5,3-9.8,6.1-14.7,9.7c-1,0.7-2,1.5-3.1,2.4c-2.5,1.9-5.5,4.4-7.6,6.6
					c-2.3,2.5-3.2,4.9-2.7,5.6c1-0.6,2.3-2,3.9-3.6c1.6-1.6,3.6-3.3,5.6-4.9c3.4-2.7,7.7-5.8,12-8.6c4.3-2.9,8.7-5.6,12.4-7.8
					c5.6-3.4,11.4-6.7,16.8-10.1c5.5-3.5,10.9-6.9,15.9-10.8c1.8-1.4,3.6-2.8,5.2-4.4c0.8-0.7,1.7-1.5,2.5-2.2
					c0.8-0.8,1.6-1.6,2.4-2.3c1.7-1.6,3.3-3.4,4.9-5.1c0.8-0.8,1.5-1.8,2.2-2.7L581.2,595.8z"/>
			</g>
		</g>
		<g>
			<g>
				<path class="st38" d="M578.5,623.9c-0.8,0.4-1.2,1.3-1.7,2c-1.8,2.1-4.4,4.2-6.3,6.4c-0.9,0.6-1.6,1.3-2.3,2
					c-0.8,0.7-1.6,1.5-2.6,2.3c-0.9,0.7-1.9,1.3-2.8,1.9c-3.8,2.8-7.5,5.2-11.7,7.4c-0.4,0.2-0.9,0.5-1.4,0.7
					c-1.1,0.6-2.5,1.2-3.5,1.8c-1.1,0.6-1.7,1.7-1.5,2.5c1.2,0.4,3.2-0.6,5.1-1.5c0.8-0.4,1.7-0.8,2.6-1.3c0.9-0.5,1.8-1,2.7-1.6
					c1.8-1.1,3.6-2.3,5-3.3c2.2-1.5,4.3-3.2,6.3-4.9c2-1.8,3.9-3.6,5.6-5.5c0.6-0.7,1.2-1.4,1.7-2.2c0.5-0.7,1-1.5,1.6-2.2
					c0.6-0.8,1.1-1.5,1.6-2.3C577.5,625.5,578,624.7,578.5,623.9z"/>
			</g>
		</g>
		<g>
			<g>
				<path class="st38" d="M571.8,934.4c0.2-1.1-0.4-2.3-0.7-3.5c-0.8-3.6-1.3-8-2.6-11.8c-0.4-2.9-1.2-5.2-1.9-8.7
					c-0.3-1.5-0.4-3.1-0.7-4.5c-1.2-6.3-2.1-12.2-2.6-18.5c0-0.7-0.1-1.4-0.1-2.1c-0.1-0.8-0.1-1.8-0.1-2.7c0-0.9-0.1-1.8-0.1-2.6
					c-0.1-1.7-0.9-3-1.8-3.2c-0.5,0.6-0.7,1.6-0.9,2.9c-0.1,1.3,0,2.7,0,4.2c0,4.8,0.9,11.5,1.8,16.1c0.6,3.5,1.4,7,2.3,10.4
					c0.9,3.4,1.7,6.8,2.7,10c0.7,2.4,1.6,4.6,2.3,6.8C570.2,929.6,571,932,571.8,934.4z"/>
			</g>
		</g>
		<g>
			<g>
				<path class="st38" d="M392.3,502.1c-0.2-0.6-0.9-0.8-1.4-1.1c-1.5-1.1-3.1-2.7-5-3.3c-1.2-0.9-2.4-1.2-4.1-1.8
					c-0.7-0.2-1.5-0.6-2.2-0.8c-3.2-0.7-6.5-0.5-9.8,0.7c-0.3,0.1-0.7,0.3-1,0.5c-0.8,0.4-1.8,1-2.4,1.6c-0.7,0.7-0.7,1.7-0.1,2.3
					c1,0.2,1.9-0.8,3.1-1.4c1-0.5,2.2-1,3.4-1.3c1.2-0.3,2.5-0.5,3.6-0.5c1.6,0,3.2,0.2,4.8,0.6c1.6,0.3,3.1,1,4.6,1.5
					c1.1,0.4,2.2,0.7,3.3,1.2C390,501,391.1,501.5,392.3,502.1z"/>
			</g>
		</g>
		<g>
			<g>
				<path class="st38" d="M403.8,487.9c-0.9-0.3-2,0.2-3,0.1c-1.6,0-3.2-0.4-4.8-1c-1.6-0.6-3.2-1.3-4.7-1.9c-2-1.2-3.8-2.1-6.5-3.5
					c-1.2-0.6-2.4-1.3-3.7-1.5c-1.4-0.3-2.9-0.3-4.3,0c-1.4,0.3-2.7,0.9-3.9,1.5c-2.4,1.4-4.4,3.3-6.2,5.3c-0.4,0.4-0.8,0.9-1.2,1.3
					c-0.9,1.1-2.1,2.3-2.9,3.3c-0.9,1.1-1.2,2.3-0.7,3c1.4,0,3.1-2,4.6-3.7c1.4-1.4,2.9-3.2,4.6-4.7c1.6-1.5,3.5-2.7,5.1-3.3
					c0.6-0.2,1.3-0.4,1.9-0.5c0.6-0.1,1.2-0.1,1.9-0.1c1.3,0.1,2.5,0.5,3.8,1c1.3,0.5,2.5,1.2,3.8,1.8c1.3,0.6,2.6,1.2,3.9,1.8
					c2,0.8,4,1.2,6,1.5c1.1,0.1,2.2,0.2,3.3,0.1C401.7,488.4,402.8,488.2,403.8,487.9z"/>
			</g>
		</g>
		<g>
			<g>
				<path class="st38" d="M413.4,483c-0.5-0.4-1.1,0-1.6,0c-1.7,0.1-3.7-0.3-5.5,0c-1.3-0.3-2.4-0.1-4-0.2c-0.7,0-1.4-0.3-2.1-0.3
					c-2.9-0.3-5.6-0.6-8.4-1.2c-0.3-0.1-0.6-0.1-0.9-0.1c-0.8-0.1-1.6-0.4-2.4-0.4c-0.8,0-1.5,0.5-1.7,1.3c0.4,1,1.7,1.1,3,1.4
					c1.1,0.2,2.4,0.5,3.7,0.6c1.3,0.2,2.6,0.3,3.7,0.4c1.6,0.1,3.3,0.2,4.9,0.2c1.6,0,3.2,0,4.8-0.2c1.1-0.1,2.2-0.5,3.3-0.7
					C411.2,483.6,412.3,483.4,413.4,483z"/>
			</g>
		</g>
		<g>
			<g>
				<path class="st38" d="M372.4,518.9c0.5,0.5,1.2,0.3,1.7,0.2c1.8,0.1,4.2-0.1,5.9-1.2c1.4-0.4,2.4-1.2,3.9-2.3
					c0.6-0.5,1.4-0.9,1.9-1.4c1.2-1.1,2.3-2.4,3.2-3.8c0.9-1.4,1.6-3.2,1.3-5.3c0-0.4-0.2-0.8-0.3-1.3c-0.4-1-1-2.1-1.7-2.7
					c-0.8-0.7-1.9-0.5-2.3,0.2c0,1,1.1,1.7,1.5,2.8c0.4,0.9,0.5,2,0.2,3.1c-0.3,1.1-0.9,2.2-1.5,3.1c-0.9,1.3-2.1,2.5-3.3,3.6
					c-1.2,1.1-2.6,2-4,2.8c-1,0.6-2,1.2-3,1.5C374.9,518.7,373.7,518.9,372.4,518.9z"/>
			</g>
		</g>
		<g>
			<g>
				<path class="st38" d="M409.6,512.7c-0.8,0.2-1.3,1.1-2,1.6c-2,1.8-4.8,3.4-6.7,5.5c-1.7,1.1-2.9,2.5-5,3.8
					c-0.9,0.6-2,0.8-2.9,1.1c-2,0.6-4.1,0.4-6.3,0.2c-2.2-0.3-4.4-0.6-6.7-0.9c-0.5-0.1-1-0.1-1.5-0.2c-1.2-0.1-2.7-0.4-3.8-0.4
					c-1.3,0-2.3,0.5-2.5,1.3c0.8,1,2.9,1.1,4.9,1.4c1.7,0.3,3.7,0.5,5.7,0.8c2,0.2,4,0.5,5.8,0.6c1.3,0,2.7,0,4.1-0.3
					c1.4-0.3,2.7-0.9,3.8-1.6c2.3-1.5,4.1-3.2,5.9-4.9c1.3-1.3,2.3-2.6,3.5-3.8C407.2,515.3,408.4,514,409.6,512.7z"/>
			</g>
		</g>
		<g>
			<g>
				<path class="st38" d="M418.3,529.2c-0.5-0.2-1-0.3-1.6-0.5c-0.5-0.2-1.1-0.4-1.5-0.7c-1.4-1.1-2.3-2.9-2.7-4.7
					c-0.4-1.8-0.6-3.8-1-5.6c-0.1-2.6-0.5-4.8-0.5-8.1c0-1.4,0.2-2.8,0.3-4.2c0.1-2.9,0.4-5.7,0.9-8.5c0.5-2.8,1.1-5.6,1.8-8.4
					c0.2-0.6,0.3-1.2,0.5-1.9c0.3-1.6,0.8-3.6,0.5-5.3c-0.1-0.9-0.5-1.7-0.9-2.1c-0.4-0.5-0.9-0.6-1.3-0.5c-0.2,0.7-0.1,1.5-0.1,2.6
					c0,1-0.1,2.3-0.3,3.5c-0.4,2-1.2,4.6-1.7,7.2c-0.6,2.6-0.9,5.2-1.2,7.4c-0.3,3.3-0.5,6.7-0.3,9.9c0.2,3.3,0.5,6.5,1.1,9.6
					c0.5,2.2,1.1,4.5,2.2,6.6c0.6,1.1,1.4,2.1,2.5,2.8C415.8,528.9,417.1,529.3,418.3,529.2z"/>
			</g>
		</g>
		<g>
			<g>
				<path class="st38" d="M409.5,522.9c0.6,0.4,1.4,0.6,2.2,0.7c0.8,0,1.7-0.1,2.5-0.1c1.3-0.1,2.6-0.3,3.9-0.5
					c1.4-0.2,2.7-0.4,4.1-0.6c2.8-0.4,5.6-0.9,8.3-1.5c2-0.2,3.7-0.6,5.6-0.9c0.9-0.2,1.9-0.4,3-0.7c1.1-0.3,2.2-0.8,3.2-1.8
					c1.7-1.7,2.2-4.1,2.2-6.3c0-1.2-0.1-2.3-0.3-3.4c-0.2-1.1-0.4-2.2-0.6-3.2c-0.4-2.1-1-4.2-1.5-6.3c-1.1-4.1-2.3-8.2-3.3-12.5
					c-0.2-0.9-0.4-1.8-0.6-2.8c-0.5-2.2-0.7-5-0.9-7.1c-0.2-2.3-0.8-4.1-1.6-4.4c-0.5,0.8-0.7,2.3-0.7,4c0,1.8,0.2,3.8,0.5,5.7
					c0.5,3.3,1.4,7.2,2.5,10.9c1.1,3.8,2.1,7.4,2.9,10.5c0.6,2.3,1.1,4.7,1.4,7c0.3,2.2,0.1,4.5-0.9,6c-1,1.6-3.1,2-5.5,2.5
					c-2.3,0.5-4.6,1-6.9,1.5c-3.3,0.7-6.5,1.6-9.6,2.4c-1.7,0.4-3.4,0.8-5,1.1C412.8,523.3,411.1,523.3,409.5,522.9z"/>
			</g>
		</g>
		<g>
			<g>
				<path class="st38" d="M437.3,474.2c0.2-0.2,0.2-0.5,0.1-0.7c-0.1-0.2-0.3-0.4-0.4-0.7c-0.4-0.7-1.1-1.3-2-1.7
					c-0.9-0.4-2-0.4-2.8-0.1c-1.4,0.1-2.3,0.8-3.7,1.5c-0.6,0.3-1.3,0.5-1.9,0.8c-2.5,1.3-4.8,2.6-7.3,3.9c-0.3,0.1-0.5,0.3-0.8,0.5
					c-0.6,0.4-1.5,0.8-2,1.2c-0.6,0.5-0.7,1.4-0.4,2.1c0.9,0.5,2-0.3,3.1-0.9c1.9-1,4.4-2.5,6.1-3.5c1.3-0.8,2.7-1.6,4-2.4
					c1.3-0.9,2.5-1.5,3.7-1.9c0.4-0.1,0.9-0.3,1.3-0.3c0.4,0,0.9,0,1.3,0.1C436.2,472.5,437,473.2,437.3,474.2z"/>
			</g>
		</g>
		<g>
			<g>
				<path class="st38" d="M463.7,456.5c-0.7,0-1.2,0.6-1.8,1c-1.8,1.1-4.2,2-6,3.3c-1.5,0.6-2.6,1.5-4.4,2.5
					c-0.8,0.4-1.6,0.7-2.3,1.1c-3.1,1.8-6.1,3.6-9.2,5.5c-0.3,0.2-0.7,0.4-1,0.6c-0.8,0.5-1.8,1.1-2.5,1.6c-0.8,0.6-1,1.6-0.7,2.3
					c1,0.4,2.4-0.6,3.8-1.4c2.3-1.4,5.5-3.4,7.7-4.8c1.7-1.1,3.4-2.1,5-3.2c1.6-1.1,3.3-2.2,4.8-3.3c1.1-0.8,2.1-1.8,3.2-2.6
					C461.5,458.4,462.6,457.5,463.7,456.5z"/>
			</g>
		</g>
		<g>
			<g>
				<path class="st38" d="M427.4,502.8c0.4,0.4,0.9,0.2,1.4,0.5c0.7,0.4,1.1,1.2,1.1,1.9c0,0.8-0.3,1.4-0.6,2
					c-0.8,0.5-1.5,0.8-2.9,0.9c-0.6,0-1.1-0.2-1.3-0.3c-0.2-0.2-0.2-0.3-0.2-0.7c0-0.4,0.2-0.8,0.5-1.1c0.6-0.8,1.4-1.4,2.2-1.5
					c0.2,0,0.3,0,0.5,0c0.4,0,0.8,0.3,1.1,0.5c0.2,0.1,0.4,0.1,0.7,0.1c0.3,0,0.7,0,1.1-0.1c0.3-0.4,0.3-1-0.1-1.6
					c-0.4-0.6-1.1-1-1.8-1.2c-0.6-0.2-1.3-0.3-2.1-0.1c-0.7,0.1-1.4,0.5-2,0.9c-1.1,0.9-1.9,2-2.3,3.2c-0.1,0.5-0.2,1-0.1,1.6
					c0.1,0.6,0.4,1.2,0.9,1.7c0.5,0.5,1.1,0.7,1.6,0.7c0.5,0.1,0.9,0,1.3,0c0.7-0.1,1.5-0.2,2.3-0.5c0.4-0.1,0.8-0.4,1.2-0.7
					c0.4-0.3,0.7-0.7,0.9-1.1c0.6-1.2,0.4-2.7-0.3-3.6C429.8,503.1,428.5,502.6,427.4,502.8z"/>
			</g>
		</g>
		<g>
			<g>
				<path class="st38" d="M413.4,342.4c0.5-0.3,0.3-1,0.5-1.5c0.4-1.6,1.5-3.2,1.7-4.9c0.6-1.1,0.8-2.1,1.4-3.6
					c0.2-0.6,0.7-1.2,0.9-1.7c1.1-2.5,2.2-4.8,3.4-7.3c0.1-0.3,0.3-0.5,0.4-0.8c0.3-0.7,0.8-1.4,1-2c0.2-0.7-0.1-1.5-0.8-2
					c-1,0.1-1.5,1.3-2.1,2.3c-1,1.8-2.2,4.5-2.9,6.3c-0.6,1.4-1.1,2.9-1.6,4.3c-0.4,1.5-0.9,2.9-1.2,4.3c-0.2,1.1-0.2,2.1-0.4,3.1
					C413.6,340.2,413.5,341.3,413.4,342.4z"/>
			</g>
		</g>
		<g>
			<g>
				<path class="st38" d="M492.7,924.1c-0.1,1,0.5,2,0.8,3c1,3.1,2.1,6.9,4.3,9.7c1.2,2.2,2.8,3.9,5.2,5.9c1.1,0.9,2.1,1.8,3.3,2.4
					c2.6,1.4,5.5,2.1,8.3,2.2c2.9,0.1,5.7-0.2,8.5-0.6c0.6-0.1,1.2-0.2,1.8-0.3c1.4-0.2,3.1-0.2,4.3-0.1c1.3,0.1,2.5-0.1,3-0.7
					c-0.3-0.6-1.2-1.2-2.4-1.5c-1.2-0.3-2.6-0.3-3.8-0.2c-2.2,0.1-4.6,0.6-7,0.8c-2.4,0.3-4.8,0.3-6.6,0c-2.9-0.4-5.5-1.7-7.9-3.3
					c-2.4-1.7-4.3-3.8-6-6.2c-1.2-1.7-2.4-3.4-3.3-5.2C494.4,928.2,493.5,926.2,492.7,924.1z"/>
			</g>
		</g>
		<g>
			<g>
				<path class="st38" d="M460.8,898.1c-0.4-3.4-1.7-7.6-2.6-11.3c-3-11.8-6.7-25.6-11-37.8c-2.7-8.9-5.5-16.4-9.1-27.4
					c-1.6-4.8-3-9.6-4.4-14.2c-3-9.9-5.7-19.7-7.8-29.5c-2.1-9.9-3.8-19.9-4.6-30.3c-0.1-2.1-0.3-4.4-0.3-6.8
					c-0.1-2.7,0.1-5.7,0.3-8.7c0.3-2.9,0.7-5.8,1.2-8.3c0.2-1.4,0.5-2.6,0.7-3.8c0.3-1.2,0.5-2.2,0.6-3.1c0.4-1.8,0.5-3,0.2-3.4
					c-1.1,1.7-2.5,4.9-3.5,8.9c-1,4-1.6,8.7-1.8,13.4c-0.4,7.9,0.5,17.2,1.9,26.3c1.4,9.1,3.3,18.1,5.2,25.4
					c2.9,11.2,6.4,22.4,10,32.9c3.7,10.8,7.4,21.4,11,31.8c2.6,7.6,5.2,14.9,7.4,22.3C456.6,882.3,458.7,890.2,460.8,898.1z"/>
			</g>
		</g>
		<g>
			<g>
				<path class="st38" d="M483.2,726.1c-2.2,2.3-4.2,5.8-6,8.8c-3,4.8-6.1,10.1-9.4,15.3c-0.8,1.3-1.7,2.6-2.5,3.9
					c-0.9,1.3-1.8,2.6-2.5,4c-0.8,1.4-1.4,2.8-1.7,4.4c-0.3,1.5-0.3,3.1-0.1,4.7c0.2,2.2,0.8,4.2,1.6,6.2c0.7,2,1.5,3.9,2.3,5.8
					c1.6,3.9,3.4,8.1,5.4,13.2c1.7,4.3,3.2,8.7,4.7,12.9c3.3,9,6.2,17.9,8.6,27c2.4,9,4.2,18.2,5.1,27.8c0.3,2,0.3,4.1,0.5,6.3
					c0.1,1.3,0.2,2.6,0.2,4c0,1.4,0,2.7,0,4.1c0.1,2.8-0.2,5.5-0.3,7.8c0,0.6,0,1.3-0.1,1.9c0,0.6-0.1,1.2-0.1,1.7
					c-0.1,1.1-0.1,2.1,0,3c0.1,1.7,0.3,2.9,0.6,3.2c0.3-0.9,0.6-2.1,0.9-3.6c0.1-0.7,0.3-1.5,0.4-2.4c0.1-0.8,0.3-1.7,0.3-2.7
					c0.2-1.9,0.3-3.9,0.4-6c0.1-2.1,0-4.3,0.1-6.4c-0.1-7.2-0.9-15.9-2.4-24.3c-1.5-8.5-3.8-16.7-5.8-23.3
					c-3.2-10.2-6.9-20.4-10.8-30c-2-4.9-4-9.8-6-14.5c-1-2.4-2.1-4.8-2.9-7.1c-0.8-2.3-1.4-4.7-1.3-7.1c0.1-3.4,2.1-6.5,4-9.5
					c1.9-3.1,3.7-6.2,5.4-9.4C475.3,739,478.9,732.3,483.2,726.1z"/>
			</g>
		</g>
		<g>
			<g>
				<path class="st38" d="M561.1,879.2c-1.1,1.1-2.3,2.6-3.9,3.4c-1.2,0.6-2.6,1-4.1,1c-0.7,0-1.4-0.2-2-0.7c-0.6-0.4-1.1-1-1.6-1.5
					c-2.2-2-4.5-4.1-7.2-5.4c-1.8-1.1-3.8-1.7-6-1.6c-1.1,0-2.2,0.2-3.3,0.6c-1.1,0.4-2.3,1-3.3,2c-0.9,0.9-1.6,1.9-2,3.1
					c-0.4,1.1-0.5,2.3-0.6,3.4c0,1.2,0.1,2.4,0.1,3.5c0,1.1,0.1,2.3,0.1,3.4c0,2.3,0.1,4.5,0.1,6.8c0.1,4.5,0.1,9,0.2,13.7
					c0,1,0.1,2,0.1,3.1c0.1,2.5,0.1,5.4,0.2,7.7c0.2,2.5,1,4.4,1.8,4.6c0.8-1.8,0.5-6,0.4-10.1c-0.1-6.9-0.3-16.5-0.5-23.2
					c-0.1-2.6-0.2-5.2-0.3-7.7c-0.2-2.5-0.1-4.8,1.2-6.4c1.2-1.6,3.5-2.5,5.7-2.6c1.1,0,2.2,0.1,3.3,0.4c1.1,0.3,2.1,0.8,3.1,1.3
					c1.5,0.8,2.9,1.8,4.3,2.8c0.7,0.5,1.4,1.1,2,1.6c0.7,0.5,1.3,1.1,2.3,1.6c1.1,0.5,2.2,0.3,3.1,0.1c1-0.2,1.9-0.6,2.7-1
					C558.8,882.2,560.2,880.8,561.1,879.2z"/>
			</g>
		</g>
		<g>
			<g>
				<path class="st38" d="M568.8,947.4c-0.5,0.8-0.3,2-0.4,2.9c-0.3,1.5-0.8,3.1-1.5,4.7c-0.7,1.6-1.4,3.1-2.3,4.3
					c-1.7,1.4-3.5,2.2-6.3,2.5c-1.2,0.1-2.5-0.1-3.7-0.1c-2.6-0.1-5.1-0.2-7.5-0.7c-1.2-0.2-2.4-0.6-3.5-1c-0.5-0.2-1.1-0.5-1.6-0.8
					l-0.8-0.5l-0.2-0.1l-0.1-0.1l0,0c0,0,0,0,0,0l0,0c0,0,0,0,0,0l0-0.2c0-0.3-0.1-0.6-0.1-0.8c-0.2-1.3-0.2-2.9-0.3-4.2
					c-0.1-1.4-0.8-2.5-1.7-2.7c-1.1,0.9-1.1,3.5-0.9,5.9c0,0.5,0.1,1.1,0.2,1.6c0,0.3,0.1,0.6,0.1,0.8l0.1,0.7l0.1,0.4l0,0.1
					c0,0,0.1,0,0.1,0.1l0.2,0.1c0.4,0.3,0.7,0.5,1.1,0.8l0.8,0.5c0.6,0.3,1.1,0.6,1.7,0.8c2.4,1,4.8,1.3,6.8,1.5
					c1.5,0.1,3,0.2,4.5,0.2c1.5,0,3,0,4.5-0.2c1.5-0.2,3.1-0.5,4.6-1.1c0.7-0.3,1.5-0.7,2.1-1.3c0.6-0.5,1.2-1.2,1.7-1.9
					c0.7-1,1-2.1,1.3-3.1c0.3-1,0.5-2,0.7-3C568.8,951.7,568.9,949.5,568.8,947.4z"/>
			</g>
		</g>
		<g>
			<g>
				<path class="st38" d="M571.8,938.5c-0.5,0.9-0.3,2.1-0.5,3.1c-0.3,1.6-0.8,3.4-1.7,5c-0.9,1.6-2.1,2.9-3.5,3.8
					c-2.3,0.8-4.3,1-7.4,0.6c-1.3-0.2-2.6-0.6-3.9-0.9c-2.8-0.5-5.5-0.9-8.2-1.4c-1.3-0.2-2.7-0.5-4-0.7c-1.3-0.3-2.6-0.7-4-1.1
					c-0.5-0.2-1.1-0.4-1.7-0.5c-1.4-0.4-3-1.2-4.3-1.7c-1.4-0.5-2.8-0.3-3.3,0.4c0.5,1.4,3,2.5,5.4,3.4c2,0.8,4.5,1.6,7,2.1
					c2.5,0.4,5,0.8,7,1.1c3.1,0.4,6.2,0.9,9.3,1.2c1.6,0.1,3.2,0.3,4.9,0.1c1.7-0.2,3.4-0.7,4.9-1.8c1-0.8,1.8-1.8,2.4-2.8
					c0.5-1.1,0.9-2.2,1.1-3.2C571.8,943,571.8,940.7,571.8,938.5z"/>
			</g>
		</g>
		<g>
			<g>
				<path class="st38" d="M502.3,956.7c0.4-0.4,0.7-1.1,0.8-1.7c0.1-0.7,0.1-1.4,0.1-2.1c0-2.1-0.4-4.4-1-6.7
					c-0.6-2.3-1.1-4.6-1.8-6.7c-0.5-3.2-1.4-5.8-2.2-9.8c-0.3-1.7-0.5-3.5-0.8-5.1c-1.2-7.1-2.1-13.9-2.6-21.2
					c-0.1-0.7-0.1-1.5-0.2-2.4c-0.2-1.9-0.2-4.2-0.4-6c-0.2-2-0.9-3.4-1.7-3.6c-0.8,1.4-0.6,4.8-0.4,8c0.1,2.7,0.4,6,0.7,9.2
					c0.4,3.2,0.8,6.4,1.2,9c0.6,4,1.3,8,2.2,11.9c0.9,3.9,1.9,7.7,3,11.4c0.8,2.7,1.9,5.2,2.7,7.7
					C502.8,951.3,503.4,954.1,502.3,956.7z"/>
			</g>
		</g>
		<g>
			<g>
				<path class="st38" d="M495.5,892.4c-1,0.7-1.5,2-2.4,2.9c-0.7,0.7-1.5,1.4-2.5,1.8c-0.9,0.4-2,0.6-3,0.4c-1-0.2-1.9-0.8-2.6-1.5
					c-0.8-0.7-1.6-1.5-2.4-2.1c-2.1-2.2-4.1-3.8-7.1-6.1c-1.3-1-2.5-2.1-3.8-3c-1.4-1-3-1.9-4.9-2.2c-1.9-0.3-3.9,0.2-5.5,1.1
					c-1.6,0.9-2.9,2.1-4.1,3.2c-1.2,1.1-2.5,2.4-3.6,3.7c-0.5,0.6-1,1.2-1.4,1.9c-1.1,1.6-2.2,3.7-2.4,5.7c-0.1,1.1,0.1,2,0.5,2.6
					c0.4,0.6,0.9,0.9,1.3,0.9c0.3-0.7,0.4-1.7,0.6-2.8c0.2-1.1,0.7-2.4,1.4-3.6c1.2-2,3.1-4.1,5.2-6.2c1.1-1,2.1-2,3.1-2.7
					c1-0.7,2.1-1.2,3-1.3c1.4-0.2,2.9,0.3,4.4,1.1c1.5,0.8,3,1.9,4.4,2.9c3,2.1,5.7,4.4,8.4,6.6c1,0.8,1.9,1.7,3.3,2.4
					c1.3,0.7,3,0.7,4.4,0.2c1.4-0.5,2.5-1.5,3.4-2.6C494.2,894.7,494.9,893.6,495.5,892.4z"/>
			</g>
		</g>
		<g>
			<g>
				<path class="st38" d="M532.6,910.2c-0.8,0.1-1.3,1-1.9,1.5c-2,1.6-4.8,2.8-6.9,4.5c-0.9,0.4-1.7,0.8-2.5,1.2
					c-0.4,0.2-0.9,0.5-1.3,0.7c-0.5,0.2-1,0.5-1.5,0.7c-0.9,0.4-2,0.6-2.9,1c-2,0.7-4,1.4-6,1.9c-2,0.5-4.1,0.9-6.2,1.3
					c-0.4,0.1-0.9,0.1-1.4,0.2c-1.1,0.2-2.5,0.2-3.5,0.4c-1.1,0.2-2,1-2.1,1.9c0.9,0.9,2.9,0.7,4.9,0.5c0.8-0.1,1.7-0.2,2.7-0.3
					c0.9-0.2,1.9-0.3,2.9-0.5c1.9-0.4,3.8-1,5.4-1.5c2.4-0.7,4.7-1.7,6.8-2.7c2.2-1.1,4.3-2.3,6.2-3.6c0.7-0.5,1.3-1.1,2-1.6
					c0.6-0.6,1.2-1.1,1.8-1.7c0.7-0.6,1.3-1.2,1.9-1.8C531.4,911.5,532,910.9,532.6,910.2z"/>
			</g>
		</g>
		<g>
			<g>
				<path class="st38" d="M454.4,936.5c0.4-0.7-0.1-1.6-0.1-2.3c-0.2-2.5,0-5.4-0.5-8c0.1-1.9-0.2-3.5-0.3-5.8c-0.1-1,0.1-2,0-3
					c-0.2-4.2-0.3-8.2-0.5-12.4c0-0.4,0-0.9-0.1-1.4c-0.1-1.1,0-2.4-0.2-3.5c-0.2-1.1-1-2-1.8-2c-0.9,0.8-0.7,2.8-0.7,4.6
					c0,3.1,0.3,7.5,0.5,10.5c0.2,2.3,0.3,4.7,0.6,6.9c0.3,2.3,0.5,4.6,0.9,6.8c0.3,1.6,0.7,3.1,1,4.7
					C453.7,933.3,454,934.9,454.4,936.5z"/>
			</g>
		</g>
		<g>
			<g>
				<path class="st38" d="M447.6,931.2c-0.8,0-1.3,0.8-1.9,1.2c-2,1.3-4.7,2.1-6.8,3.3c-0.9,0.2-1.6,0.5-2.5,0.8
					c-0.4,0.1-0.8,0.3-1.3,0.5c-0.5,0.1-1,0.3-1.5,0.4c-0.9,0.3-1.9,0.2-2.8,0.4c-1.9,0.3-3.8,0.6-5.7,0.6c-1.9,0.1-3.8,0-5.8-0.1
					c-0.4,0-0.8-0.1-1.3-0.1c-1,0-2.2-0.4-3.2-0.4c-1.1-0.1-2,0.5-2.3,1.3c0.5,1.1,2.5,1.4,4.3,1.7c0.8,0.1,1.6,0.2,2.5,0.3
					c0.9,0.1,1.8,0.1,2.7,0.1c1.8,0,3.7-0.1,5.1-0.3c2.3-0.2,4.6-0.7,6.7-1.4c2.2-0.7,4.3-1.5,6.2-2.5c0.7-0.4,1.4-0.8,2-1.3
					c0.6-0.5,1.2-0.9,1.9-1.4c0.7-0.5,1.3-1,1.9-1.5C446.4,932.3,447,931.8,447.6,931.2z"/>
			</g>
		</g>
		<g>
			<g>
				<path class="st38" d="M439.8,963.3c-0.6-0.6-1.7-0.5-2.5-0.7c-2.7-0.7-5.6-2.1-8.4-2.8c-1.9-1-3.6-1.4-5.9-2.6
					c-1-0.5-1.8-1.3-2.7-1.9c-1.9-1.3-3.6-2.7-5.1-4.3c-1.5-1.6-2.8-3.4-3.6-5.3c-0.2-0.4-0.3-0.8-0.4-1.2c-0.3-1,0-2,0.3-2.7
					c0.2-0.4,0.3-0.8,0.4-1.2c0.1-0.4,0.2-0.9,0.1-1.3c-0.6-0.3-1.7,0-2.5,1c-0.8,0.9-1.2,2.3-1.1,3.6c0,1.1,0.3,2.2,0.8,3.2
					c0.5,1,1,2,1.7,2.9c1.3,1.8,2.8,3.4,4.1,4.6c2.1,1.8,4.4,3.3,6.8,4.4c2.4,1.1,4.8,2.1,7.3,2.7c1.8,0.5,3.6,0.7,5.3,1
					C436.1,962.8,438,963.1,439.8,963.3z"/>
			</g>
		</g>
		<g>
			<g>
				<path class="st38" d="M501.4,947.7c-0.3,1.5,0.1,3.3,0,4.9c-0.1,2.6-0.5,5.4-1.4,8c-0.5,1.3-1,2.6-1.7,3.8
					c-0.7,1.2-1.5,2.3-2.4,3.3c-1.5,1.2-3,2.1-4.7,2.8c-1.7,0.7-3.7,1.2-6.1,1.3c-2.1,0.1-4.1-0.3-6-0.6c-4.2-0.8-8.1-2.4-12-4.1
					c-3.9-1.7-7.8-3.6-12.3-4.8c-0.9-0.3-1.9-0.5-2.9-0.7c-2.4-0.5-5.2-0.9-7.4-1c-2.4-0.1-4.3,0.5-4.6,1.4c1.6,1.1,5.6,1.2,9.4,1.9
					c3.2,0.5,6.8,1.6,10.3,3c3.6,1.4,7.1,3,10.1,4.2c4.6,1.8,9.7,3.2,14.7,2.9c2.5-0.1,5.1-0.6,7.4-1.6c2.4-0.9,4.5-2.5,6.1-4.5
					c2.3-2.9,3.3-6.4,3.7-9.7C502.1,954.6,501.9,951.1,501.4,947.7z"/>
			</g>
		</g>
		<g>
			<g>
				<path class="st38" d="M498.2,966.8c-0.9,0.6-1.2,1.9-1.7,2.8c-1.8,3-4.7,6-7.7,7.9c-2.4,0.9-4.5,1.6-7.8,1.5
					c-1.4-0.1-2.8-0.5-4.1-0.8c-1.4-0.3-2.8-0.7-4.2-1.1c-0.7-0.2-1.4-0.4-2.1-0.6c-0.7-0.2-1.4-0.5-1.5-0.6
					c-0.1-0.1-0.2-0.4-0.2-1.1c0-0.7,0.1-1.4,0.1-2.2c0.1-1.5,0.1-2.9,0.2-4.4l-2.6,0.7l0,0.1c0.2,0.4,0.5,0.9,0.6,1.5
					c0.3,0.9,0.3,1.9,0.2,2.9l2.9,0.2c0-0.5,0-1,0-1.5c-0.1-1.6-0.9-2.9-1.7-3c-0.7,0.8-0.8,2.6-0.9,4.5l2.4,0.2
					c0.1-0.8,0.2-1.6,0.1-2.4c-0.1-1.2-0.4-2.5-1.2-3.9l-2.3-4l-0.2,4.7c-0.1,1.9-0.1,3.9-0.2,5.9c0,0.5-0.1,1,0,1.6
					c0.1,0.6,0.3,1.5,1,2.1c0.7,0.6,1.3,0.8,1.8,0.9c0.4,0.1,0.8,0.3,1.3,0.4c3.2,0.9,6.5,1.9,10,2c1.7,0.1,3.5,0,5.2-0.5
					c1.7-0.4,3.4-1.1,4.8-2.1c2.1-1.5,3.5-3.4,4.7-5.3C496.2,971.1,497.2,969,498.2,966.8z"/>
			</g>
		</g>
		<g>
			<g>
				<path class="st38" d="M491.4,904c-0.9-0.1-1.5,0.7-2.3,1c-0.3,0.1-0.6,0.2-1,0.3c-0.3,0.1-0.7,0.1-1,0.2
					c-0.7,0.2-1.4,0.2-2.1,0.3c-0.7,0.1-1.4,0.1-2.1,0.1c-0.7,0-1.4,0.1-2.1,0c-1.9-0.4-3.6-0.5-5.9-1.3c-1-0.4-1.9-0.9-2.8-1.4
					c-1.9-1-3.6-2.2-5.2-3.6c-0.4-0.4-0.8-0.7-1.1-1.1c-0.4-0.4-0.9-0.9-1.6-1.2c-0.7-0.4-1.6-0.6-2.4-0.5c-0.8,0.1-1.5,0.3-2.2,0.7
					c-0.5,0.3-1,0.7-1.4,1.1c-1.1,1-1.9,2.2-2.5,3c-0.3,0.4-0.5,0.9-0.6,1.3c-0.1,0.4-0.1,0.9,0,1.3c0.6,0.2,1.5-0.1,2.2-0.8
					c0.7-0.6,1.3-1.5,2-2.2c0.5-0.5,1.1-1.1,1.7-1.4c0.7-0.3,1.2-0.4,1.7-0.2c0.5,0.2,1.1,0.9,1.9,1.6c0.7,0.7,1.5,1.3,2.2,1.8
					c2.1,1.5,4.5,2.8,7,3.5c2.5,0.8,5,1.2,7.6,1.1c1.8-0.1,3.6-0.6,5.2-1.1C488.3,905.9,489.9,905.1,491.4,904z"/>
			</g>
		</g>
		<g>
			<g>
				<path class="st38" d="M558.3,898.1c-0.7-0.4-1.4,0-2.1-0.1c-2.2-0.1-4.5-1.3-6.6-2c-1.3-1-2.5-1.6-4-3c-0.7-0.6-1.2-1.4-1.8-2
					c-1.4-1.3-2.8-2.6-4.8-3.4c-1-0.4-2-0.6-3.1-0.7c-1.1,0-2.2,0.2-3.2,0.5c-0.4,0.2-0.9,0.4-1.3,0.6c-1,0.6-2.1,1.5-2.7,2.4
					c-0.7,1.1-0.3,2.2,0.5,2.6c0.6-0.1,1-0.5,1.4-1c0.4-0.4,0.9-1,1.5-1.3c1-0.6,2.3-1.2,3.6-1.2c1.3,0,2.6,0.5,3.6,1.1
					c1.6,0.9,3,2.3,4.6,3.6c1.6,1.3,3.4,2.7,5.4,3.4c1.5,0.5,3,0.7,4.4,0.8C555.3,898.6,556.8,898.5,558.3,898.1z"/>
			</g>
		</g>
		<g>
			<g>
				<path class="st38" d="M378.8,499.2c-1.5,0-3.1,0.8-4.7,1.2c-4.9,1.3-10.8,2-16.1,3.1c-1.9,0.1-3.7,0.4-5.6,0.6
					c-1,0.1-1.9,0.2-3,0.4c-1,0.1-2.2,0.2-3.4,0.3c-2.1,0.2-4.2,0-6.2,0.1c-4.3,0.1-8.5,0.1-12.7-0.1c-4.2-0.2-8.4-0.5-12.7-1
					c-0.9-0.1-1.8-0.2-2.8-0.3c-1.1-0.1-2.4-0.3-3.6-0.5c-1.2-0.2-2.4-0.4-3.5-0.5c-2.3-0.3-4.2,0.1-4.6,0.9
					c0.7,0.6,2.1,1.1,3.7,1.5c1.7,0.4,3.6,0.7,5.5,1c1.6,0.3,3.4,0.5,5.2,0.7c1.9,0.2,3.8,0.4,5.7,0.6c3.9,0.3,7.7,0.4,10.9,0.4
					c4.8,0.1,9.8-0.2,14.4-0.6c4.8-0.5,9.5-1.1,14-2c1.6-0.4,3.3-0.8,4.8-1.2c1.6-0.4,3.1-0.9,4.7-1.3c1.7-0.5,3.3-1,4.9-1.5
					C375.5,500.3,377.1,499.7,378.8,499.2z"/>
			</g>
		</g>
		<g>
			<g>
				<path class="st38" d="M377.6,513.1c-1.9,0.9-3.8,2.5-5.9,3.6c-3.2,1.7-6.9,3-10.6,4.2c-3.8,1.2-7.6,2.4-11.2,3.5
					c-5.4,1.1-9.9,2.4-16.6,3.4c-2.9,0.4-5.9,0.6-8.7,0.8c-6.1,0.6-12,0.7-17.9,0.6l-2.2-0.1c-0.7,0-1.4-0.1-2.1-0.2
					c-1.3-0.2-2.6-0.7-3.4-1.4l-0.1-0.1c0,0,0,0,0,0l0,0c0,0,0,0,0,0c0,0,0-0.1,0-0.1l0,0l0.4-0.3l0.9-0.8c1.2-1.1,2.3-2.2,3.4-3.4
					c0.9-1,1.7-2.3,2.4-3.6c0.4-0.8,0.7-1.7,1-2.6c0.3-1,0.4-2,0.5-3c0.1-2-0.4-4-1.2-5.5c-0.9-1.7-2.3-2.9-3.5-3.3
					c-1.2-0.4-2.1-0.2-2.3,0.1c0.9,0.8,2.3,1.8,3.3,3.7c0.9,1.9,1.4,4.5,0.8,6.8c-0.5,2-1.7,4-3.3,5.9c-0.8,0.9-1.7,1.8-2.7,2.7
					l-0.7,0.7l-0.9,0.7c-0.5,0.4-0.9,0.9-1.4,1.3c-0.1,0,0,0.1,0,0.2l0.1,0.2l0.2,0.4c0.1,0.3,0.3,0.6,0.4,0.8
					c0.2,0.3,0.4,0.5,0.6,0.8c0.2,0.2,0.3,0.3,0.5,0.5c0.3,0.3,0.7,0.5,1.1,0.7c0.7,0.4,1.5,0.7,2.2,0.9c1.5,0.4,2.9,0.5,4.2,0.5
					c1.3,0,2.6,0,3.8,0c1.2,0,2.4,0,3.5,0c6.8-0.2,13.8-0.7,20.3-1.8c6.7-1.1,13.2-2.6,19.5-4.5c4.6-1.4,8.8-3.2,13-4.9
					C369.5,518.5,373.9,516.2,377.6,513.1z"/>
			</g>
		</g>
		<g>
			<g>
				<path class="st38" d="M305.4,505.5c-0.3-1.1-1.5-1.7-2.5-2.2c-3.2-1.7-8-2-11.7-0.6c-1.4,0.3-2.7,0.8-4,1.4
					c-1.3,0.7-2.6,1.5-3.9,2.8c-1.2,1.1-2.3,2.2-3.1,3.6c-1.7,3-2.2,6.4-1.5,9.8c0.3,1.7,1.1,3.3,2.1,4.7c1.1,1.4,2.5,2.5,4.1,3.3
					c0.6,0.3,1.4,0.6,2.1,0.8c1.8,0.5,3.9,0.9,5.5,0.9c1.8,0,3.1-0.9,3.2-1.7c-1.2-0.9-4.1-0.7-6.6-1.3c-2.1-0.5-4.5-1.5-6.1-3.4
					c-1.6-1.8-2.2-4.3-2.2-6.3c0-1.6,0.3-3.1,0.9-4.6c0.6-1.4,1.5-2.7,2.5-3.8c2.2-2.3,5.1-3.8,8.1-4.7c2.2-0.7,4.4-1.2,6.6-1.1
					C301.3,503,303.7,503.7,305.4,505.5z"/>
			</g>
		</g>
		<g>
			<g>
				<path class="st38" d="M256.7,877c0.4-6.2,0-14,0-20.9c0.1-22.1,1.9-47.8,3.5-71.2c0.7-8.4,1.6-16.1,2.4-24.4
					c0.2-2.1,0.4-4.2,0.6-6.3c0.3-2.2,0.5-4.4,0.8-6.6c0.5-4.5,1.1-9.4,1.7-14.6c0.6-4.5,1.3-9,2-13.4c0.3-2.2,0.7-4.4,1-6.6
					c0.3-2.2,0.7-4.4,1-6.5c0.8-4.6,1.5-9.3,2.3-13.8c0.4-2.3,0.7-4.6,1.2-6.9c0.4-2.3,0.9-4.5,1.3-6.8c0.9-4.5,1.7-9,2.6-13.5
					c0.9-4.5,1.9-9,2.9-13.4l1.4-6.7c0.2-1.1,0.5-2.2,0.7-3.4l0.8-3.3c1.1-4.5,2.2-8.9,3.3-13.4c1-4.5,2.3-9,3.6-13.5
					c1.3-4.5,2.5-9,3.8-13.6c1.2-3.7,2.4-7.7,3.7-11.8c0.7-2.4,1.5-4.9,2.3-7.4c0.9-2.5,1.8-5.1,2.7-7.6c0.9-2.6,1.8-5.1,2.7-7.5
					c0.4-1.2,0.8-2.4,1.3-3.6c0.2-0.6,0.4-1.2,0.6-1.7c0.2-0.6,0.4-1.1,0.6-1.7c3.7-9.6,5.9-17.1,5.4-18.2
					c-1.8,3.2-4.3,8.8-7.1,15.6c-1.5,3.4-2.7,7.1-4.1,11c-1.4,3.9-2.8,7.8-4.2,11.8c-2.2,6.7-4.5,14.1-6.9,21.7
					c-1.1,3.9-2.2,7.8-3.3,11.8c-0.5,2-1.1,4-1.7,6c-0.6,2-1.1,4-1.6,6.1c-1,4.1-2,8.1-2.9,12.1c-1,4-1.9,7.9-2.7,11.8
					c-0.8,3.9-1.6,7.7-2.4,11.3c-0.8,3.6-1.5,7.1-2.1,10.5c-1,5.1-1.9,10.3-2.9,15.4c-0.5,2.6-0.9,5.2-1.3,7.7
					c-0.4,2.6-0.8,5.2-1.2,7.7c-1.8,10.3-3,20.5-4.4,30.6c-0.7,5.1-1.2,10.3-1.8,15.4c-0.6,5.1-1.2,10.2-1.6,15.2
					c-0.5,5.1-0.9,10.1-1.4,15.1c-0.4,5-0.7,10-1.1,15c-0.6,7.2-0.8,14.4-1.1,21.5c-0.4,7.1-0.4,14.1-0.6,21.1
					c0,1.9-0.1,3.7-0.1,5.6c0,1.9,0,3.7,0,5.6c0,3.7,0,7.4,0,11.1c0,3.7,0.1,7.4,0.1,11.1L256.7,877z"/>
			</g>
		</g>
		<g>
			<g>
				<path class="st38" d="M324.6,873.1c0.3-3.3,0.4-7,0.5-10.8c0.2-3.8,0.4-7.7,0.6-11.4c1-11.7,2.8-24.2,5.2-36.9
					c2.4-12.6,5.4-25.4,8.4-37.5c4.8-17.2,9-31.9,15.8-53.2c3-9.2,6.1-18.2,9-27c6.3-19,12.4-37.4,19.4-55.6
					c6.9-18.2,14.6-36.1,23.2-54.3c1.8-3.7,3.7-7.7,5.7-11.9c4.7-9.5,10.7-20.7,15.4-29.5c5.2-9.6,8.7-17.1,8.5-18.3
					c-4.7,6.1-13.8,22.2-21.9,38c-6.9,13.3-14.6,29.3-21.5,45.6c-7,16.3-13.3,32.7-18.1,46.3c-3.7,10.4-7.2,21-10.6,31.5
					c-3.4,10.5-6.8,20.9-10.1,31.2c-6.6,21-12.9,41.6-17.9,62.2c-3.6,15-6.4,29.7-8.5,44.4C325.8,841.7,324.5,857.4,324.6,873.1z"/>
			</g>
		</g>
		<g>
			<g>
				<path class="st38" d="M382.5,666.1c-1.8-1.1-4.3-1.7-6.5-2.5c-6.9-2.4-15.2-5-23-5.9c-2.8-0.5-5.3-1-8.1-1.2
					c-1.4-0.1-2.8-0.2-4.4-0.4c-1.5-0.1-3.2-0.1-4.9-0.2l-2.3-0.1c-0.8,0-1.5,0-2.3,0c-1.5,0-3-0.1-4.5-0.1
					c-6.3,0.3-12.5,0.8-18.5,1.9c-6.1,1-12.1,2.5-18.2,4.4c-1.2,0.4-2.6,0.9-4,1.4c-0.8,0.3-1.6,0.6-2.5,0.9c-0.8,0.3-1.7,0.7-2.5,1
					c-1.7,0.7-3.4,1.3-4.8,2.1c-3.1,1.6-5.1,3.4-5,4.3c1.3-0.1,3.2-0.8,5.4-1.7c1.1-0.5,2.3-1,3.6-1.5c1.3-0.5,2.5-1,3.8-1.5
					c2.2-0.8,4.6-1.6,7.1-2.4c2.5-0.7,5.2-1.5,7.8-2.2c5.3-1.3,10.7-2.4,15.1-2.9c1.7-0.2,3.4-0.4,5.1-0.6c1.7-0.1,3.4-0.2,5.2-0.4
					c1.7-0.2,3.4-0.2,5.1-0.2c1.7,0,3.4-0.1,5-0.1c1.7,0,3.4,0.1,5.1,0.1c1.7,0,3.4,0.2,5,0.3c3.3,0.2,6.6,0.7,9.9,1.1
					c2.4,0.4,4.7,0.7,7,1.1c2.3,0.4,4.6,0.9,6.8,1.4c2.4,0.6,4.8,1.3,7.1,1.9C377.8,664.6,380.1,665.4,382.5,666.1z"/>
			</g>
		</g>
		<g>
			<g>
				<path class="st38" d="M328.7,852.8c-1.4-0.2-3,0.5-4.5,0.8c-4.7,0.9-10.3,1.6-15.2,3c-3.6,0.6-6.6,1.5-11,2.7
					c-1.9,0.5-3.9,0.8-5.7,1.3c-7.9,2.2-15.3,4.5-23.1,7.3c-0.8,0.3-1.6,0.6-2.5,1c-2,0.8-4.5,1.6-6.4,2.5c-2,0.9-3.3,2.3-3.2,3.2
					c1.8,0.3,5.2-1.2,8.6-2.5c2.9-1,6.3-2.2,9.7-3.4c3.4-1.2,6.8-2.3,9.6-3.2c4.3-1.4,8.7-2.7,12.8-3.9c4.3-1.3,8.5-2.4,12.7-3.6
					c3-0.8,5.9-1.8,8.8-2.6C322.4,854.5,325.5,853.6,328.7,852.8z"/>
			</g>
		</g>
		<g>
			<g>
				<path class="st38" d="M323.7,866.8c0.1,1.5,0.9,3,1.2,4.6c0.4,2.5,0.1,5.2-0.7,7.8c-0.8,2.6-2,5.1-4,6.7c-1.5,1-3.2,1.2-4.7,0.6
					c-1.5-0.7-2.9-2.1-4-4.1c-0.9-1.8-1.3-3.7-1.7-5.6c-0.8-4-0.4-8.1,1-11.7c0.3-0.9,0.8-1.7,1.3-2.3c0.5-0.6,1.1-0.9,1.8-0.9
					c1.3-0.1,2.9,1.2,4,2.7c0.5,0.7,0.9,1.4,1.4,2.2c1,1.8,1.7,4.3,2,6.2c0.4,2.1,0.9,3.8,1.8,4.1c0.5-0.8,0.8-2.2,0.7-4
					c-0.1-1.7-0.5-3.8-1.3-5.6c-0.6-1.6-1.4-3.2-2.6-4.8c-0.6-0.8-1.3-1.6-2.2-2.2c-0.9-0.6-2-1.2-3.3-1.3c-1.3-0.1-2.7,0.3-3.6,1.1
					c-1,0.8-1.5,1.7-2,2.6c-0.9,1.8-1.3,3.5-1.6,5.1c-0.9,4.9-0.2,10.2,2,14.5c0.6,1.1,1.2,2.2,2.1,3.2c0.8,1,1.9,1.9,3.2,2.4
					c1.3,0.6,2.9,0.7,4.2,0.2c1.4-0.4,2.5-1.3,3.3-2.2c1.3-1.4,2-3,2.5-4.6c0.5-1.6,0.8-3.2,0.9-4.9
					C326,873.3,325.3,869.8,323.7,866.8z"/>
			</g>
		</g>
		<g>
			<g>
				<path class="st38" d="M248.2,876.5c1.3,2.2,3.6,4.5,5.3,6.8c2.7,3.6,5.2,8,6.5,12.8c1.3,4.8,1.4,10-0.3,14.4
					c-1.5,3.1-3.5,5.6-6.3,7.3c-2.8,1.7-6.5,2.3-10.6,1.2c-1.7-0.5-3.4-1.3-4.8-2.3c-1.4-1-2.7-2.3-3.7-3.6
					c-2.3-2.9-3.9-6.3-4.8-9.9c-0.9-3.6-1.3-7.3-1-10.8c0.3-3.6,1.4-7.1,3.7-9.7c2.2-2.6,5.6-4.5,9-4.3c1.4,0.1,2.8,0.4,4.2,1.3
					c1.6,0.9,3,2.4,4.1,4.1c1.1,1.7,1.7,3.7,2.2,5.4c0.9,3.9,1.5,7.1,2.4,7.4c0.5-1.5,0.7-4.1,0.2-7.2c-0.2-1.5-0.7-3.2-1.4-4.9
					c-0.7-1.7-1.7-3.3-3-4.6c-1-1.2-2.4-2.2-3.9-3c-1.5-0.8-3.4-1.3-5.3-1.3c-3.8,0-7.4,1.9-10,4.6c-2.6,2.7-4,6.3-4.6,9.7
					c-0.6,3.4-0.4,6.7,0,9.5c0.6,4.4,1.9,8.8,4.4,12.6c1.2,1.9,2.7,3.7,4.5,5.2c1.8,1.5,3.8,2.6,5.9,3.3c2.2,0.8,4.5,1.1,6.8,1
					c2.3-0.1,4.6-0.8,6.6-2c4-2.4,6.6-6.4,7.7-10.6c0.8-3.1,0.7-6.3,0.2-9.2c-0.6-3-1.6-5.8-2.9-8.4
					C256.4,885.6,252.3,881,248.2,876.5z"/>
			</g>
		</g>
		<g>
			<g>
				<path class="st38" d="M59.5,867.6c1.3,1.5,3.3,2.8,4.8,4.4c2.4,2.5,4.6,5.5,6.4,8.8c0.9,1.7,1.7,3.4,2.4,5.1
					c0.7,1.7,1.2,3.5,1.3,5.3c-0.1,2.5-1.2,4.7-3.1,6.2c-1.9,1.5-4.5,2.4-7.7,2c-2.7-0.4-5.1-1.7-7.3-3.1c-2.3-1.6-4.3-3.6-5.7-5.8
					c-1.4-2.3-2.3-4.9-2.3-7.5c0-2.6,0.8-5.2,2.4-7.2c1.5-2.1,3.8-3.6,6.3-3.8c1-0.1,2.2-0.1,3.4,0.2c1.4,0.3,2.8,0.9,4.2,1.7
					c1.3,0.8,2.6,1.7,3.7,2.6c2.4,1.9,4.6,3.2,5.4,2.8c-0.4-1.1-1.6-2.7-3.3-4.3c-1.7-1.6-3.9-3.3-6.5-4.5c-2.1-0.9-4.8-1.6-7.6-1.2
					c-2.8,0.4-5.5,2-7.3,4.3c-1.8,2.2-2.9,4.9-3.2,7.7c-0.3,2.7,0.3,5.3,1.1,7.4c1.3,3.3,3.6,6.1,6.2,8.2c2.7,2.2,5.8,3.8,9.2,4.4
					c1.7,0.3,3.5,0.3,5.3,0c1.8-0.4,3.4-1.2,4.8-2.3c1.4-1.1,2.6-2.6,3.2-4.3c0.6-1.7,0.6-3.6,0.3-5.2c-0.5-2.4-1.5-4.5-2.6-6.5
					c-1.1-2-2.3-3.8-3.6-5.6C66.8,873.4,63.3,870.2,59.5,867.6z"/>
			</g>
		</g>
		<g>
			<g>
				<path class="st38" d="M240.5,876.1c-3.4-0.5-7.7-0.2-11.5-0.2c-12.1-0.2-26.2-1.1-39-1.3c-4.6-0.3-8.9-0.5-13.4-0.7
					c-4.6-0.2-9.4-0.4-15.2-0.7c-5-0.3-9.9-0.8-14.6-1.1c-20.6-1.5-40-3.1-60.6-5.3c-2.1-0.2-4.4-0.5-6.8-0.7
					c-5.4-0.5-12-1.4-17.1-1.9c-5.6-0.6-9.9-0.3-10.5,0.5c3.8,1.4,13.3,2.4,22.3,3.5c3.8,0.4,8,0.9,12.4,1.4
					c4.4,0.4,8.9,0.9,13.5,1.3c9.1,0.8,18.1,1.6,25.5,2.1c11.4,0.9,22.9,1.6,34,2.1c11.3,0.5,22.4,1,33.3,1.2
					c4,0.1,7.9,0.1,11.8,0.1c3.9,0,7.7,0,11.5,0c4.1,0,8.2,0,12.2-0.1C232.4,876.3,236.5,876.2,240.5,876.1z"/>
			</g>
		</g>
		<g>
			<g>
				<path class="st38" d="M308.7,854.2c-2.9-0.6-6.5-0.4-9.8-0.6c-10.3-0.6-22.3-1.9-33.3-2.5c-7.8-0.9-14.5-1.3-24.4-2.2
					c-4.2-0.4-8.4-1.1-12.5-1.5c-17.5-1.9-34-3.9-51.6-6.4c-1.8-0.2-3.7-0.5-5.8-0.8c-4.6-0.6-10.2-1.5-14.5-2.1
					c-4.8-0.6-8.5-0.4-9,0.4c3.2,1.4,11.2,2.5,19,3.7c6.5,1,14.3,2.1,22,3.1c7.7,1,15.4,1.9,21.8,2.6c9.7,1.1,19.5,2.1,29,2.9
					c9.7,0.8,19.1,1.6,28.4,2.1c6.8,0.4,13.4,0.5,19.9,0.8c3.5,0.1,7,0.2,10.4,0.3L308.7,854.2z"/>
			</g>
		</g>
		<g>
			<g>
				<path class="st38" d="M165.1,835.8c-2.1,0-4.5,0.9-6.8,1.4c-7.1,1.5-15.5,2.8-23,4.7c-5.5,0.9-10.1,2.1-16.9,3.5
					c-2.9,0.6-5.9,1-8.7,1.6c-12.2,2.5-23.6,5-35.9,7.7c-1.3,0.3-2.6,0.6-4,0.9c-3.2,0.7-7.1,1.5-10.1,2.3c-3.3,0.9-5.6,2.2-5.7,3.1
					c2.5,0.4,8.1-1,13.5-2.1c9.1-1.9,21.6-4.7,30.3-6.7c6.7-1.5,13.5-3,20-4.5c6.6-1.6,13.2-3,19.5-4.6c4.6-1.1,9.1-2.4,13.6-3.6
					C155.6,838.3,160.4,837,165.1,835.8z"/>
			</g>
		</g>
		<g>
			<g>
				<path class="st38" d="M257.8,668.9c-4.4,0.9-9.7,3-14.5,4.4c-15.2,4.7-33.2,9.4-49.5,14.1c-11.8,2.9-21.8,5.7-36.6,9.3
					c-6.4,1.5-12.8,2.8-18.9,4.1c-13.3,2.9-26.3,5.2-39.4,6.7c-13.1,1.5-26.3,2.2-39.9,1.5c-2.8-0.1-5.8-0.3-8.9-0.6
					c-7.1-0.6-15.7-2-22.3-3.3c-7.3-1.4-12.8-2.2-13.7-1.5c2.4,1.1,6.6,2.5,11.8,3.7c5.2,1.2,11.3,2.2,17.3,3
					c10.1,1.3,22.3,2,34.4,1.5c12.1-0.4,24-1.9,33.7-3.4c14.9-2.4,29.9-5.7,44-9.2c14.5-3.7,28.7-7.4,42.5-11.3
					c10.1-2.9,19.8-6,29.4-9C237.5,675.7,247.7,672.4,257.8,668.9z"/>
			</g>
		</g>
		<g>
			<g>
				<path class="st38" d="M62.1,860.5c-0.1-2.9-1-6.5-1.6-9.7c-1.7-10.2-3.3-22.3-5.4-33.2c-1.1-7.9-2.4-14.5-4.5-24.3
					c-0.9-4.2-1.7-8.4-2.8-12.4c-4.6-17.2-10.5-33-17.5-49.5c-0.7-1.7-1.5-3.5-2.3-5.4c-1.9-4.3-4.1-9.5-6-13.5
					c-2.1-4.4-4.3-7.4-5.3-7.4c0.5,3.5,4,10.9,7.1,18.1c2.6,6.1,5.7,13.3,8.6,20.6c2.9,7.3,5.6,14.5,7.7,20.6
					c3.2,9.2,5.9,18.8,8.1,28c2.2,9.5,3.9,18.8,5.7,28c1.3,6.7,2.7,13.2,4,19.6C59.3,846.9,60.6,853.7,62.1,860.5z"/>
			</g>
		</g>
		<g>
			<g>
				<path class="st38" d="M150.9,835.6c0.6-2.4,0.5-5.6,0.7-8.4c0.5-8.8,1.4-19.1,1.2-28.6c0.1-3.4,0.2-6.5,0.1-9.9
					c0-1.7-0.1-3.4-0.1-5.2c-0.1-1.8-0.1-3.8-0.2-5.9c-0.1-3.7-0.1-7.3-0.3-10.8c-0.5-7.6-1-14.9-1.8-22.2
					c-0.7-7.3-1.7-14.7-2.9-22.2c-0.3-1.5-0.5-3.2-0.8-4.9c-0.3-2-0.7-4.2-1.1-6.3c-0.4-2.1-0.8-4.3-1.2-6.1c-0.9-4-2.3-6.9-3.2-7.1
					c-0.2,1.5,0.1,4,0.6,6.8c0.5,2.9,1.1,6.2,1.7,9.5c0.4,2.8,0.9,5.8,1.4,9c0.5,3.2,0.9,6.5,1.4,9.8c0.9,6.6,1.7,13.2,2.2,18.6
					c0.9,8.3,1.4,16.7,1.9,24.8c0.5,8.3,0.6,16.4,0.8,24.3c0,2.9,0.1,5.8,0.2,8.6c0,2.8,0,5.6,0,8.4c-0.1,3-0.1,6-0.2,8.9
					C151.1,829.7,151,832.6,150.9,835.6z"/>
			</g>
		</g>
		<g>
			<g>
				<path class="st38" d="M126.4,751c-1.4-0.4-3.2,0-4.8,0.1c-5.1,0.2-11-0.2-16.4,0.1c-3.9-0.3-7.1-0.1-12-0.5
					c-2.1-0.2-4.1-0.5-6.1-0.7c-8.5-1-16.5-2.5-24.6-5.3c-0.8-0.3-1.7-0.6-2.7-0.9c-0.2-0.1-0.7-0.2-0.9-0.3
					c-0.3-0.1-0.5-0.2-0.8-0.3c-0.5-0.2-1-0.4-1.4-0.7c-0.9-0.6-1.7-1.3-2.3-1.9c-0.6-0.7-1.2-1.4-1.7-2c-0.5-0.6-0.9-1-1.3-1.1
					c-0.4,0.9-0.3,2.6,0.7,4.3c1,1.6,2.8,3,4.8,3.9c0.4,0.2,0.8,0.3,1.3,0.5l0.3,0.1l0.1,0c0,0-0.1,0,0,0l0.2,0.1
					c0.2,0.1,0.4,0.1,0.6,0.2c0.8,0.3,1.7,0.6,2.6,0.9c1.8,0.6,3.6,1.1,5.5,1.6c1.9,0.5,3.7,1,5.6,1.3c0.9,0.2,1.8,0.4,2.6,0.5
					c0.9,0.1,1.7,0.3,2.4,0.4c4.8,0.8,9.7,1.3,14.3,1.5c4.8,0.2,9.5,0.2,14.1,0c3.3-0.1,6.6-0.5,9.8-0.8
					C119.7,751.7,123,751.4,126.4,751z"/>
			</g>
		</g>
		<g>
			<g>
				<path class="st38" d="M346.4,719.4c-1.2-0.5-2.8-0.2-4.2-0.2c-4.4-0.1-9.5-0.8-14.2-0.5c-3.4-0.2-6.2,0-10.5,0.2
					c-1.8,0-3.6,0-5.4,0.1c-3.8,0.3-7.4,0.7-11.1,1.3c-3.7,0.6-7.3,1.4-11,2.4c-0.8,0.2-1.6,0.5-2.4,0.8c-0.5,0.2-1,0.3-1.5,0.5
					c-0.5,0.2-1,0.4-1.6,0.6c-1,0.4-2.1,0.7-2.9,1.2c-1.9,0.9-3,2.3-2.8,3.1c0.9,0.1,2-0.2,3.4-0.6c1.3-0.5,2.9-1,4.5-1.6
					c1.3-0.4,2.8-0.8,4.3-1.3c1.5-0.4,3.1-0.8,4.7-1.2c3.2-0.7,6.4-1.3,9-1.7c4.1-0.6,8.2-1,12.2-1.3c4.1-0.4,8.1-0.4,12-0.7
					c2.9-0.1,5.7-0.4,8.5-0.5C340.5,719.7,343.4,719.6,346.4,719.4z"/>
			</g>
		</g>
		<g>
			<g>
				<path class="st38" d="M305.4,809.3c0.8-1.9,1-4.4,1.4-6.6c1.4-7,3.6-15,4.8-22.5c1.4-5.3,2.1-9.8,3.5-16.5
					c0.6-2.9,1.4-5.7,2-8.4c2.6-11.9,5-23.1,7.6-35c0.3-1.2,0.5-2.6,0.8-3.9c0.6-3.2,1.6-6.9,2.1-9.9c0.6-3.3,0.4-5.9-0.4-6.3
					c-1.4,2.1-2.5,7.6-3.7,12.8c-2,8.8-4.6,21.1-6.3,29.7c-1.4,6.6-2.7,13.2-4,19.6c-1.2,6.6-2.5,13-3.6,19.3
					c-0.8,4.6-1.4,9.1-2.1,13.6C306.8,799.9,306.1,804.6,305.4,809.3z"/>
			</g>
		</g>
		<g>
			<g>
				<path class="st38" d="M296.9,773.5c0.7-1.2,0.6-2.9,0.9-4.4c0.9-4.6,2.4-10,3.1-15c1-3.5,1.4-6.5,2.3-11c0.4-1.9,1-3.8,1.4-5.6
					c1.8-7.9,3.4-15.3,5.3-23.2c0.2-0.8,0.4-1.7,0.6-2.6c0.4-2.1,1.1-4.6,1.5-6.6c0.4-2.2,0-4-0.8-4.4c-1.3,1.3-2,4.9-2.9,8.4
					c-1.5,5.8-3.2,14-4.4,19.7c-0.9,4.4-1.9,8.8-2.6,13.1c-0.8,4.4-1.6,8.6-2.2,12.9c-0.5,3.1-0.7,6.1-1.1,9.1
					C297.6,767.2,297.3,770.4,296.9,773.5z"/>
			</g>
		</g>
		<g>
			<g>
				<path class="st38" d="M311.8,741.4c-0.6-0.4-1.2,0-1.8,0c-1.9,0.1-4.2-0.3-6.3,0.2c-1.5-0.1-2.7,0.2-4.6,0.4
					c-0.8,0.1-1.6,0-2.4,0.1c-3.3,0.4-6.4,0.8-9.7,1.4c-0.3,0.1-0.7,0.1-1.1,0.2c-0.9,0.2-1.9,0.3-2.7,0.6c-0.9,0.3-1.3,1.2-1.2,2.1
					c0.8,0.8,2.3,0.3,3.7,0c2.4-0.4,5.7-1.1,8.1-1.5c1.8-0.3,3.6-0.6,5.3-0.9c1.8-0.3,3.5-0.6,5.2-0.9c1.2-0.2,2.4-0.7,3.6-0.9
					C309.2,742,310.5,741.7,311.8,741.4z"/>
			</g>
		</g>
		<g>
			<g>
				<path class="st38" d="M91.4,828.4c0.2-1.8-0.4-4-0.7-5.9c-0.9-6.2-1.5-13.5-3.1-20c-0.3-2.4-0.7-4.6-1.2-6.9
					c-0.5-2.3-1.1-4.8-1.7-7.7c-0.5-2.5-1-5.1-1.5-7.5c-2.5-10.4-5.3-20.2-8.7-30.4c-0.4-1-0.8-2.2-1.2-3.3c-1-2.7-2-5.9-3.1-8.4
					c-1.2-2.7-2.7-4.5-3.6-4.4c-0.1,2.3,1.7,6.8,3.3,11.3c0.6,1.9,1.3,3.9,2.1,6.1c0.7,2.2,1.4,4.4,2.2,6.6c1.4,4.5,2.8,9,3.9,12.7
					c1.7,5.7,3.1,11.5,4.5,17c1.5,5.7,2.6,11.3,3.9,16.8c0.4,2,0.9,4,1.4,5.9c0.4,2,0.9,3.9,1.3,5.8
					C89.8,820.1,90.6,824.2,91.4,828.4z"/>
			</g>
		</g>
		<g>
			<g>
				<path class="st38" d="M105.3,787c0.2-1-0.3-2-0.5-3c-0.7-3.1-1-6.9-2.2-10.2c-0.4-2.5-1.1-4.4-1.9-7.4c-0.3-1.3-0.5-2.6-0.9-3.8
					c-1.5-5.3-3.1-10.3-5-15.5c-0.2-0.5-0.4-1.1-0.7-1.7c-0.5-1.4-1.1-3-1.7-4.3c-0.7-1.4-1.8-2.1-2.7-1.9c-0.5,1.3,0.6,3.6,1.4,5.9
					c0.7,1.9,1.5,4.2,2.3,6.5c0.8,2.3,1.6,4.5,2.2,6.4c1,2.9,1.9,5.8,2.8,8.6c1,2.9,1.7,5.7,2.6,8.4c0.6,2,1.4,3.9,2.1,5.8
					C103.9,782.9,104.6,785,105.3,787z"/>
			</g>
		</g>
		<g>
			<g>
				<path class="st38" d="M163.8,874.1c-0.5,0.6-0.3,1.4-0.4,2.1c-0.2,1.1-0.7,2.2-1.2,3.3c-0.6,1.1-1.2,2.1-1.8,3.1
					c-0.6,0.6-1.2,1.1-1.8,1.5c-0.6,0.5-1.3,0.9-2.3,1.3c-0.8,0.3-1.7,0.2-2.4,0.2c-1.7,0-3.1-0.7-4.3-1.8c-1.2-1.1-2.2-2.6-3.2-4.2
					c-0.2-0.3-0.4-0.7-0.6-1c-0.5-0.8-0.9-1.9-1.4-2.7c-0.5-0.9-1.5-1.3-2.3-1c-0.6,1,0.2,2.7,1,4.2c0.6,1.3,1.5,2.8,2.6,4.3
					c1.1,1.4,2.4,2.8,3.9,3.6c1.1,0.6,2.4,1,3.6,1.1c1.3,0.1,2.5-0.2,3.6-0.6c2.2-0.9,4.2-2.4,5.3-4.4c0.8-1.4,1.2-2.9,1.5-4.4
					C163.8,877.2,163.9,875.6,163.8,874.1z"/>
			</g>
		</g>
		<g>
			<g>
				<path class="st38" d="M249.8,897.9c-0.7,1-0.8,2.5-1.3,3.7c-0.8,1.9-2.4,3.8-4.6,4.4c-1,0.3-2.2,0.2-3.1-0.2
					c-1-0.4-1.9-1-2.7-1.7c-1-1.2-1.7-2.4-2.4-3.7c-0.7-1.4-1.2-2.9-1.5-4.8c-0.2-1.6-0.1-3.3,0.4-4.5c0.6-1.3,1.8-1.8,3.3-1.7
					c1.5,0.1,2.9,0.7,4.2,1.6c2.6,1.8,4.7,4.4,5.3,7.5c0.1,0.6,0.2,1.3,0.2,2c0,1.6-0.7,3.5-1.4,4.8c-0.8,1.4-1.4,2.7-1.1,3.6
					c0.8,0,2-0.6,3-1.9c1-1.2,1.7-2.9,2-4.6c0.3-1.4,0.3-3.1-0.1-4.8c-0.4-1.7-1.1-3.3-2.1-4.7c-1-1.4-2.2-2.6-3.5-3.6
					c-0.7-0.5-1.3-0.9-2-1.3c-0.7-0.4-1.4-0.7-2.1-0.9c-1.1-0.3-2.2-0.5-3.5-0.3c-1.2,0.1-2.6,0.7-3.5,1.7c-0.9,1-1.3,2.3-1.4,3.5
					c-0.1,1.2,0,2.2,0.1,3.2c0.3,2.1,1,4.1,1.9,5.9c0.9,1.8,2.1,3.5,3.8,4.8c1.2,0.9,2.8,1.6,4.4,1.5c1.6,0,3.1-0.8,4.1-1.8
					c1.2-1,1.9-2.4,2.4-3.7C249.2,900.6,249.5,899.3,249.8,897.9z"/>
			</g>
		</g>
		<g>
			<g>
				<path class="st38" d="M317.3,871.7c-0.3,0.7,0.1,1.5,0.1,2.3c0,1.2-0.4,2.4-1,3.6c-0.6,1.1-1.2,2.3-2.1,2.7
					c-0.7,0-1.2-0.4-1.7-1c-0.5-0.6-0.9-1.4-1.1-2.4c-0.2-0.9-0.1-1.8-0.1-2.7c0-0.9,0.1-1.9,0.3-2.6c0.2-0.8,0.7-1.5,1.1-1.7
					c0.4-0.2,0.8-0.2,1.4,0.2c0.5,0.4,1,1.1,1.4,1.8c0.1,0.3,0.3,0.6,0.4,1c0.3,0.8,0.2,1.9,0.2,2.7c0,0.9,0.3,1.8,1.1,2.3
					c0.6-0.2,1.1-0.8,1.4-1.7c0.3-0.9,0.3-1.9,0.2-3c-0.2-1.7-1-3.8-2.8-5.2c-0.5-0.4-1-0.7-1.7-0.8c-0.6-0.2-1.4-0.2-2,0.1
					c-0.7,0.2-1.2,0.6-1.6,1c-0.4,0.4-0.7,0.9-0.9,1.3c-0.7,1.3-0.8,2.7-0.8,3.9c0,1.2,0.1,2.5,0.5,3.6c0.2,0.6,0.4,1.2,0.6,1.7
					c0.3,0.6,0.6,1.2,1.1,1.7c0.5,0.5,1,1,1.9,1.3c0.8,0.3,1.9,0.2,2.6-0.3c1.1-0.7,1.4-1.7,1.6-2.5c0.3-0.8,0.4-1.6,0.5-2.4
					C318,874.9,317.8,873.2,317.3,871.7z"/>
			</g>
		</g>
		<g>
			<g>
				<path class="st38" d="M67,886.6c-0.7,0.4-0.9,1.3-1.4,1.9c-0.8,1-1.8,1.8-3,2.4c-1.2,0.6-2.4,0.8-3.6,1
					c-0.9-0.2-1.6-0.4-2.3-0.7c-0.7-0.4-1.4-0.9-1.9-1.9c-0.5-0.8-0.6-1.7-0.8-2.6c-0.2-1-0.5-1.9-0.5-2.8c-0.1-0.9,0-1.8,0.3-2.5
					c0.3-0.7,0.7-1.1,1.3-1.3c0.6-0.2,1.4-0.1,2.1,0.2c0.3,0.1,0.6,0.3,1,0.5c0.8,0.5,1.6,1.4,2.5,2c0.9,0.7,2.2,0.7,2.7,0
					c0-0.6-0.4-1.1-0.9-1.7c-0.5-0.6-1.2-1.2-2-1.9c-1.3-1.1-3.4-2.3-5.9-1.7c-1.3,0.3-2.4,1.2-2.9,2.3c-0.6,1.1-0.7,2.1-0.7,3
					c0,1.3,0.3,2.6,0.6,3.8c0.3,1.2,0.7,2.4,1.4,3.5c0.7,1.1,1.7,2.2,3,2.8c1.3,0.6,2.7,0.8,3.9,0.6c1.9-0.3,3.4-1.4,4.6-2.5
					C65.6,889.7,66.4,888.2,67,886.6z"/>
			</g>
		</g>
		<g>
			<g>
				<path class="st38" d="M244.3,746.7c-3.3,0.5-7.2,2-10.7,3c-11.3,3.2-24.6,6.4-36.5,10c-8.7,2.1-16,4.2-26.9,6.8
					c-2.4,0.6-4.7,1.1-7,1.6c-2.3,0.5-4.6,0.9-6.9,1.4c-9.8,2.1-19.3,4.1-28.8,5.8c-9.6,1.7-19.2,3.2-29.2,4.4
					c-2,0.2-4.2,0.5-6.5,0.7c-2.6,0.2-5.5,0.3-8.3,0.2c-2.8-0.1-5.5-0.5-7.8-1.1c-5.1-1.1-8.7-3-9.6-2.6c1.3,1.5,4.1,3.6,8,4.7
					c3.8,1.3,8.5,1.7,13,1.7c3.8,0,7.9-0.4,12.2-0.9c4.2-0.6,8.7-1.1,13-1.8c8.8-1.3,17.4-2.9,24.5-4.3c10.9-2.1,21.8-4.6,32.3-7.3
					c10.7-2.7,21.1-5.5,31.2-8.4c7.4-2.2,14.5-4.5,21.6-6.7C229.4,751.5,236.9,749.1,244.3,746.7z"/>
			</g>
		</g>
		<g>
			<g>
				<path class="st38" d="M217.3,773.2c-1.9-0.1-4.2,0.6-6.2,1c-6.5,1.3-14.2,2.7-20.9,5.1c-5,1.2-9,2.7-15.1,4.6
					c-2.6,0.8-5.3,1.4-7.8,2.2c-5.5,1.6-10.8,3.1-16.1,4.2c-5.4,1.3-10.8,2.1-16.4,2.7c-1.2,0.1-2.4,0.2-3.7,0.3
					c-0.7,0.1-1.5,0.1-2.3,0.2c-0.8,0-1.6,0-2.4,0c-1.6,0-3.2,0-4.6,0c-3-0.1-5.4,0.4-5.8,1.3c1,0.6,2.9,0.9,5.1,1.2
					c1.1,0.2,2.3,0.2,3.6,0.2c1.3,0,2.5,0,3.8,0c2.1-0.1,4.5-0.2,6.9-0.4c2.4-0.3,5-0.6,7.5-1c5-0.9,9.9-2,13.9-3.1
					c6.1-1.6,12.2-3.5,18-5.4c5.9-2,11.7-3.9,17.4-5.8c2.1-0.7,4.1-1.4,6.1-2.1c2-0.6,4-1.3,6-1.9c2.2-0.6,4.3-1.1,6.5-1.7
					C212.9,774.1,215.1,773.7,217.3,773.2z"/>
			</g>
		</g>
		<g>
			<g>
				<path class="st38" d="M193.5,812.8c0.3-1.2-0.3-2.5-0.5-3.8c-0.6-4-0.6-8.7-1.2-12.9c0-3.1-0.3-5.7-0.4-9.5
					c-0.1-1.7,0.1-3.3,0.1-4.9c0-6.8,0.3-13.2,0.9-20.1c0.1-0.7,0.1-1.5,0.2-2.2c0.1-1.8,0.5-3.9,0.6-5.6c0.1-1.9-0.5-3.3-1.3-3.6
					c-1.1,1.2-1.4,4.3-1.8,7.4c-0.2,1.3-0.3,2.7-0.4,4.1c-0.1,1.5-0.2,3-0.3,4.5c-0.2,3-0.3,6.1-0.3,8.6c-0.1,3.8,0,7.7,0.2,11.4
					c0.2,3.8,0.5,7.5,1,11.1c0.2,1.3,0.4,2.6,0.7,3.9c0.3,1.3,0.5,2.5,0.8,3.8c0.3,1.3,0.5,2.7,0.8,4
					C192.8,810.2,193.1,811.5,193.5,812.8z"/>
			</g>
		</g>
		<g>
			<g>
				<path class="st38" d="M201.2,792.7c0.5-0.7,0.2-1.6,0.3-2.3c0.2-2.5,1-5.3,0.9-8c0.4-1.9,0.4-3.5,0.6-5.9c0.1-1,0.4-2,0.5-3
					c0.4-4.2,0.7-8.2,1.1-12.5c0-0.4,0.1-0.9,0.1-1.4c0-1.1,0.2-2.5,0.2-3.5c-0.1-1.2-0.8-2.1-1.6-2.2c-1,0.8-1,2.7-1.2,4.6
					c-0.3,3.2-0.5,7.5-0.7,10.6c-0.1,2.3-0.3,4.7-0.4,7c0,2.3-0.2,4.6-0.2,6.9c0,1.6,0.2,3.2,0.2,4.8
					C201.1,789.4,201.1,791,201.2,792.7z"/>
			</g>
		</g>
		<g>
			<g>
				<path class="st38" d="M216.7,821.7c0.5-1.9,0.2-4.4,0.3-6.6c0.3-7,1.3-15.1,1.8-22.5c0.4-2.6,0.7-5.1,1-7.7
					c0.2-1.3,0.3-2.7,0.5-4.1c0.2-1.4,0.4-3,0.7-4.6c0.4-2.9,1.1-5.6,1.6-8.3c1.1-5.9,2.2-11.5,3.5-17.2c1.3-5.7,2.7-11.3,4.3-17.1
					c0.3-1.2,0.7-2.5,1-3.8c0.4-1.5,0.9-3.2,1.4-4.8c0.5-1.6,1-3.3,1.4-4.7c0.9-3.1,0.9-5.7,0.2-6.2c-1.6,1.9-3.2,7.2-4.7,12.2
					c-0.7,2.1-1.3,4.5-2,6.9c-0.7,2.5-1.3,5-2,7.6c-1.3,5.1-2.4,10.3-3.2,14.5c-1.3,6.5-2.4,13.1-3.3,19.5c-0.9,6.5-1.6,12.9-2,19.2
					c-0.1,2.3-0.2,4.6-0.3,6.8c0,2.2,0,4.5-0.1,6.7c0,2.4,0,4.7,0,7.1C216.6,817,216.7,819.3,216.7,821.7z"/>
			</g>
		</g>
		<g>
			<g>
				<path class="st38" d="M249.8,720.6c-1.1-0.2-2.3,0.4-3.4,0.6c-3.5,0.8-7.8,1.1-11.5,2.2c-2.8,0.3-5,1-8.4,1.7
					c-1.5,0.3-3,0.4-4.4,0.7c-6.1,1.2-11.7,2.5-17.8,3.8c-0.6,0.1-1.3,0.3-2,0.5c-1.6,0.4-3.5,0.7-5,1.2c-1.6,0.5-2.7,1.5-2.6,2.4
					c1.4,0.7,4.1-0.1,6.8-0.7c4.5-0.9,10.7-2.4,15.1-3.4c3.3-0.8,6.7-1.5,9.9-2.3c3.3-0.9,6.5-1.6,9.7-2.5c2.3-0.6,4.5-1.4,6.7-2.1
					C245.2,722,247.5,721.3,249.8,720.6z"/>
			</g>
		</g>
		<g>
			<g>
				<path class="st38" d="M252.5,706.9c-0.9-0.2-1.8,0.4-2.6,0.6c-2.7,0.7-6.1,1.1-8.9,2.2c-2.2,0.3-3.9,1-6.5,1.7
					c-1.1,0.3-2.3,0.4-3.4,0.7c-4.7,1.2-9.1,2.4-13.8,3.7c-0.5,0.1-1,0.3-1.5,0.5c-1.2,0.4-2.7,0.7-3.9,1.2c-1.2,0.5-2,1.5-1.8,2.4
					c1.2,0.6,3.3-0.1,5.3-0.6c3.5-0.9,8.3-2.3,11.6-3.3c2.6-0.8,5.2-1.5,7.6-2.3c2.5-0.8,5-1.6,7.4-2.4c1.8-0.6,3.4-1.4,5.1-2
					C248.9,708.3,250.7,707.6,252.5,706.9z"/>
			</g>
		</g>
		<g>
			<g>
				<path class="st38" d="M202.7,858.1c-0.9-0.6-2.1-0.4-3.2-0.6c-3.4-0.5-7.3-1.6-10.9-1.8c-2.6-0.6-4.8-0.7-8-1.2
					c-1.4-0.2-2.8-0.6-4.1-0.7c-5.8-0.8-11.3-1.4-17.2-1.9c-0.6-0.1-1.3-0.1-1.9-0.1c-1.5-0.1-3.4-0.3-4.9-0.3c-1.6,0-2.9,0.7-3,1.5
					c1.1,1,3.7,1.1,6.3,1.3c4.3,0.5,10.3,0.9,14.5,1.3c3.2,0.3,6.4,0.7,9.6,0.9c3.2,0.3,6.3,0.6,9.4,0.9c2.2,0.2,4.4,0.2,6.6,0.3
					C198.2,857.8,200.4,858,202.7,858.1z"/>
			</g>
		</g>
		<g>
			<g>
				<path class="st38" d="M211.3,862.4c-1.5-0.5-3.4-0.3-5-0.4c-5.3-0.3-11.4-1.2-17.1-1.4c-4-0.6-7.5-0.6-12.5-1.1
					c-2.2-0.2-4.3-0.6-6.4-0.8c-9-0.9-17.5-1.7-26.5-2.7c-0.9-0.1-1.9-0.2-3-0.3c-2.4-0.2-5.2-0.6-7.5-0.8c-2.5-0.2-4.4,0.4-4.7,1.2
					c1.6,1.1,5.8,1.5,9.8,1.9c6.7,0.8,16,1.7,22.5,2.2c5,0.4,10,0.9,14.9,1.1c5,0.3,9.8,0.6,14.6,0.8c3.5,0.1,6.9,0,10.2,0.1
					C204.2,862.4,207.7,862.4,211.3,862.4z"/>
			</g>
		</g>
		<g>
			<g>
				<path class="st38" d="M159.7,864.3c0.7,0.2,1.3-0.3,1.9-0.5c2-0.7,4.5-0.9,6.6-1.9c1.6-0.3,2.9-0.9,4.8-1.5
					c0.8-0.3,1.7-0.3,2.5-0.6c3.5-1.1,6.7-2.1,10.2-3.3c0.4-0.1,0.7-0.3,1.1-0.4c0.9-0.4,2-0.6,2.8-1c0.9-0.4,1.3-1.4,1.1-2.3
					c-1-0.7-2.5,0-4,0.5c-2.6,0.8-6.1,2.1-8.5,3c-1.9,0.7-3.8,1.3-5.6,2.1c-1.8,0.8-3.7,1.4-5.4,2.2c-1.3,0.6-2.4,1.3-3.7,1.9
					C162.2,863,160.9,863.6,159.7,864.3z"/>
			</g>
		</g>
		<g>
			<g>
				<path class="st38" d="M184.6,868.9c0.6,0.2,1.1-0.3,1.6-0.5c1.6-0.6,3.7-0.8,5.3-1.8c1.3-0.3,2.3-0.9,3.8-1.5
					c0.7-0.3,1.4-0.4,2-0.7c2.7-1.2,5.2-2.5,7.8-3.9c0.3-0.2,0.5-0.3,0.8-0.5c0.7-0.4,1.5-0.8,2.1-1.3c0.6-0.5,0.7-1.5,0.3-2.3
					c-1-0.5-2,0.4-3.2,1c-1.9,1-4.5,2.6-6.3,3.6c-1.4,0.8-2.9,1.5-4.2,2.3c-1.4,0.8-2.8,1.4-4.2,2.2c-1,0.6-1.9,1.3-2.8,1.8
					C186.6,867.7,185.6,868.3,184.6,868.9z"/>
			</g>
		</g>
		<g>
			<path class="st40" d="M606.3,125.1c-0.7,0.3-1.5-0.2-1.9-0.9c-0.3-0.7-0.2-1.5-0.1-2.3c1.3-9.9,5.4-19.4,11.6-27.2
				c0.8-1.1,2.2-2.2,3.4-1.5c-0.1,3.1-0.3,6.2-0.4,9.2c5-3.1,10.4-5.7,15.9-7.8c1.7-0.6,3.7-1.2,5.3-0.4c-1.2,3.9-4.2,6.8-7.3,9.5
				c-7.3,6.3-15.4,11.6-23.4,16.9"/>
		</g>
		<g>
			<path class="st40" d="M447.3,132.6c-6.1-5.2-11-11.7-14.5-19c-2-4.1-3.5-8.9-2-13.3c1.1-3.3,3.8-5.9,7-7.5
				c1.4-0.7,3.1-1.2,4.6-0.6c2.8,1.1,2.9,5,2.5,7.9c1.2-2.5,2.5-5.2,4.8-6.8c2.3-1.7,5.7-2,7.8-0.1c1.2,1.2,1.7,2.9,1.9,4.6
				c0.7,7.4-3.7,14.1-5.8,21.2c-1.3,4.6-1.7,9.4-3.6,13.8"/>
		</g>
	</g>
</g>
<g id="colorz" class="st112">
	<rect x="409.9" y="92.6" class="st127" width="154.1" height="164"/>
	<rect x="588.5" y="93.6" class="st128" width="154.1" height="164"/>
	<rect x="588.5" y="318.6" class="st131" width="154.1" height="164"/>
	<rect x="517" y="586" class="st160" width="189" height="175"/>
	<rect x="441" y="681" class="st161" width="189" height="175"/>
</g>
</svg>
