<?xml version="1.0" encoding="iso-8859-1"?>
<!-- Generator: Adobe Illustrator 21.1.0, SVG Export Plug-In . SVG Version: 6.00 Build 0)  -->
<svg version="1.1" id="Layer_1" xmlns="http://www.w3.org/2000/svg" xmlns:xlink="http://www.w3.org/1999/xlink" x="0px" y="0px"
	 width="480px" height="787px" viewBox="0 0 480 787" enable-background="new 0 0 480 787" xml:space="preserve">
<g>
	<g>
		<path fill="#DFECFE" d="M387.477,732.249c-9.684-5.043-21.605-8.388-33.302-11.647c-35.657-9.935-71.837-19.975-109.827-24.612
			c-40.824-4.983-82.253-3.468-120.648,1.98c-11.876,1.685-23.829,3.838-32.704,8.269s-14.113,11.623-10.145,18.562
			c6.008,10.506,28.326,15.4,47.348,18.165c62.172,9.038,125.502,14.095,187.826,13.986c11.945-0.021,24.471-0.334,33.854-3.883
			c9.383-3.549,13.994-11.444,6.661-17.217"/>
		<g>
			<path fill-rule="evenodd" clip-rule="evenodd" fill="#DFECFE" d="M356.085,736.431c1.07,0.742,2.215,1.595,2.925,2.825
				c0.734,1.198,1.092,2.695,0.857,4.193c-0.22,1.5-0.963,2.934-1.954,4.167c-1.006,1.234-2.277,2.253-3.628,3.142
				c-1.36,0.887-2.859,1.555-4.379,2.143c-1.544,0.537-3.109,1.019-4.698,1.378c-3.169,0.751-6.367,1.217-9.47,1.568
				c-9.883,1.108-20.3,0.964-30.933,1.146c-10.64,0.056-21.539,0.084-32.519-0.149c-21.96-0.407-44.258-1.543-65.439-3.701
				c-15.225-0.899-29.294-2.247-44.29-4.004c-3.747-0.46-7.554-0.927-11.453-1.406c-3.895-0.514-7.883-1.041-11.996-1.584
				c-8.202-1.175-16.968-2.198-26.432-4.147c-4.08-0.831-8.136-1.782-12.144-2.946c-4.003-1.177-7.965-2.572-11.762-4.514
				c-1.894-0.978-3.747-2.099-5.479-3.477c-1.719-1.389-3.329-3.052-4.555-5.089c-1.243-2.056-1.926-4.668-1.671-7.19
				c0.229-2.528,1.264-4.813,2.578-6.682c2.902-4.064,6.892-6.652,10.923-8.641c4.034-1.966,8.214-3.324,12.388-4.451
				c8.369-2.205,16.747-3.451,25.042-4.612c8.311-1.155,16.622-2.109,24.943-2.865c8.322-0.736,16.653-1.26,24.999-1.582
				c8.346-0.331,16.709-0.42,25.092-0.269c8.383,0.153,16.789,0.494,25.215,1.148c16.856,1.287,33.795,3.655,50.772,7.008
				c6.957,1.367,14.422,3.002,22.095,4.845c17.667,4.223,38.764,9.748,55.055,14.578c8.954,2.623,16.783,5.594,22.236,8.581
				c5.48,2.961,8.503,5.813,8.667,7.187c-3.143-0.916-7.251-2.261-12.214-3.7c-4.96-1.447-10.769-2.993-17.154-4.65
				c-12.812-3.294-27.621-7.483-42.212-11.114c-24.538-6.133-54.06-12.637-83.804-15.185c-29.743-2.676-59.53-1.823-83.772,0.535
				c-9.3,0.884-18.632,2.052-27.883,3.446c-4.607,0.72-9.17,1.534-13.602,2.607c-4.432,1.062-8.742,2.405-12.669,4.222
				c-1.959,0.91-3.749,1.936-5.353,3.158c-1.593,1.21-2.959,2.602-3.872,4.046c-0.923,1.456-1.253,2.87-1.123,4.18
				c0.084,0.329,0.08,0.665,0.232,0.998c0.061,0.167,0.098,0.337,0.165,0.506l0.255,0.507c0.331,0.687,0.838,1.414,1.438,2.078
				c2.407,2.726,6.217,4.866,10.162,6.547c3.983,1.693,8.233,2.998,12.529,4.108c8.852,2.278,17.901,3.657,27.083,4.932
				c9.142,1.326,18.253,2.507,27.322,3.643c18.143,2.242,36.148,4.099,54.041,5.706c26.089,2.355,51.389,4.328,76.592,5.121
				c3.365,0.088,6.728,0.176,10.087,0.264c3.36,0.06,6.717,0.121,10.071,0.181c6.712,0.116,13.385,0.182,19.988-0.268
				c3.3-0.225,6.576-0.612,9.787-1.248c3.201-0.638,6.382-1.526,9.203-2.963c1.394-0.751,2.738-1.61,3.876-2.677
				c1.124-1.067,2.076-2.312,2.594-3.698c0.526-1.379,0.557-2.89,0.014-4.266C358.318,738.665,357.281,737.462,356.085,736.431z"/>
		</g>
	</g>
	<path fill="#FFFFFF" d="M132.973,254.399c-0.07,1.165,1.189,2.06,2.356,2.038c1.167-0.021,2.216-0.68,3.177-1.342
		c9.793-6.743,17.705-16.189,22.625-27.013c1.558-3.427,2.731-7.724,0.454-10.721c-1.645-2.166-4.732-2.883-7.376-2.245
		c-2.644,0.639-4.882,2.418-6.681,4.458c-7.922,8.986-6.034,19.323-8.533,29.969c-2.001,8.525-9.406,13.432-10.705,22.506
		c-0.001,0.008-2.159,15.081-2.159,15.081c0.96,12.406-3.965,24.413-6.258,36.643c-4.097,21.853,0.548,45.22,12.691,63.845
		c15.925-17.416,27.757-38.551,34.278-61.232c4.945,0.959,8.371,5.786,9.392,10.718c1.022,4.933,0.162,10.032-0.464,15.03
		c-2.897,23.101,0.193,48.828,16.565,65.382c2.041,2.064,4.36,4.117,5.093,6.926c0.852,3.267-0.668,6.626-2.038,9.712
		c-12.493,28.14-15.075,59.521-17.489,90.215c-0.86,10.928-1.719,21.855-2.579,32.783c-0.578,7.343,1.004,17.388,8.353,17.881
		c5.159,0.346,8.839-4.736,11.4-9.228c24.197-42.455,45.28-89.686,40.912-138.357c-1.191-13.267-4.261-26.285-6.287-39.451
		c-4.47-29.039-3.842-58.606-2.546-87.958c0.446-10.117,0.727-21.105-5.189-29.324c-2.487-3.455-5.802-5.927-9.563-7.521
		c0.669-2.081,1.215-4.201,1.618-6.35c1.137-6.068,1.189-12.279,1.293-18.452c0.625-36.986,3.291-73.937,7.983-110.63
		c1.045-8.174-2.225-14.084-10.678-9.746c-5.5,2.823-14.817,6.803-18.122,12.381c-2.744,4.631-1.714,10.91-1.985,16.038
		c-0.505,9.584-1.975,19.194-3.857,28.596c-1.02,5.094-2.219,10.215-2.09,15.409c0.129,5.194,1.764,10.585,5.59,14.099
		c3.015,2.769,7.298,4.344,9.196,7.971c0.76,1.453,1.05,3.098,1.33,4.714c1.014,5.857,2.027,11.714,3.041,17.572
		c0.726,4.192,1.412,8.702-0.418,12.543c-1.451,3.044-4.256,5.167-6.665,7.527c-1.995,1.955-3.795,4.285-4.987,6.815
		c-4.875,0.98-9.595,2.933-13.594,5.721c-12.751,8.889-19.948,23.569-26.617,37.609c-4.63,9.748-9.26,19.496-13.89,29.244
		c1.707-6.939,1.291-14.724,1.042-22.003c-0.686-20.095,1.064-40.272,5.2-59.949c-1.616,0.331-3.179,0.862-4.661,1.564"/>
	<path fill="#EDD5A6" d="M253.564,184.94c-8.424-2.45-15.124-8.835-17.316-17.841c-1.901-7.81-2.478-13.437-0.655-21.051
		c1.313-5.485,0.344-8.043-6.172-5.964c-12.087,3.857-21.095,21.778-26.097,32.337c-3.651,7.707-6.74,16.113-5.72,24.58
		c1.021,8.467,7.333,16.826,15.831,17.539c1.301,0.109,2.711,0.073,3.769,0.837c1.532,1.106,1.615,3.315,1.55,5.203
		c-0.153,4.461-0.307,8.922-0.46,13.383c-0.31,9.031-0.676,18.317-4.314,26.589c-3.637,8.272-11.367,15.404-20.403,15.555
		c-2.018,0.034-4.075-0.271-6.032,0.223c-1.957,0.494-3.847,2.124-3.752,4.141c0.056,1.179,0.766,2.221,1.532,3.12
		c4.526,5.314,11.583,7.826,18.498,8.777c20.316,2.794,41.839-7.006,53.07-24.165c-5.708-2.295-11.167-5.208-16.252-8.671
		c-3.653-2.488-7.209-5.371-9.302-9.264c-1.665-3.097-2.296-6.633-2.772-10.117c-1.147-8.398,1.464-17.261,1.854-25.729
		c8.267-1.494,12.746-6.54,16.751-13.925c0.593-1.093,1.209-2.318,2.363-2.781"/>
	<path fill="#EDD5A6" d="M150.983,241.716c-2.104,3.902-4.686,7.833-4.759,12.266c1.56,0.689,3.094-0.968,3.99-2.419
		c5.671-9.181,10.761-18.721,15.228-28.544c2.862-6.293,5.52-13.244,3.898-19.964c-2.212,1.49-4.41,3.087-6.719,4.364
		c-0.127-1.848-0.057-3.81,0.066-5.692c-2.942,4.68-2.687,12.783-3.95,18.324C157.029,227.549,154.644,234.928,150.983,241.716z"/>
	<path fill="#EDD5A6" d="M130.49,342.973c0.322,11.084,1.421,22.236,4.711,32.825c0.742,2.388,1.641,4.82,3.378,6.618
		c1.737,1.798,4.522,2.805,6.81,1.797c1.69-0.744,2.779-2.387,3.744-3.961c9.599-15.664,16.364-33.06,19.87-51.094
		c-5.954-6.461-8.14-15.772-7.324-24.519c0.816-8.748,4.352-17.027,8.635-24.697c3.328-5.96,7.257-12.081,7.173-18.907
		c-12.057,14.848-19.087,33.04-25.929,50.901c-4.004,10.454-8.009,20.907-12.013,31.361c3.392-12.365,2.975-25.411,2.533-38.224
		c-0.235-6.81-0.47-13.621-0.705-20.431c-0.165-4.788,0.766-11.19-1.388-15.563C130.109,290.487,130.49,319.829,130.49,342.973z"/>
	<path fill="#EDD5A6" d="M339.691,397.07c10.035,8.978,22.27,16.426,35.444,16.28c6.297-0.07,12.898,0.031,19.18-0.469
		c3.691-0.294,12.387-1.751,13.047-6.773c0.302-2.301-26.953-0.169-29.354-0.394c-12.802-1.197-24.58-8.383-33.857-17.735
		c-9.276-9.352-16.351-20.809-23.126-32.287c-4.832-8.187-9.562-16.453-13.713-25.042c-4.505-9.323-8.053-18.941-13.134-28.035
		c-2.695-4.825-5.564-9.542-8.599-14.14c-2.727-4.131-5.629-9.682-9.322-12.91c-4.434-3.876-13.068-4.907-13.704,2.928
		c-0.435,5.334,4.019,9.593,6.742,13.558c3.241,4.719,6.312,9.565,9.283,14.476c12.169,20.112,22.562,41.409,35.775,60.822
		C321.732,378.19,330.012,388.411,339.691,397.07z"/>
	<path fill="#EDD5A6" d="M166.325,691.826c-0.233,1.388,0.324,2.783,0.987,4.024c1.133,2.12,2.614,4.052,4.366,5.697
		c1.864,1.75,4.171,3.219,6.725,3.336c3.734,0.171,7.07-2.643,8.755-5.98c1.686-3.336,2.088-7.147,2.64-10.844
		c0.823-5.435,1.936-10.882,3.604-16.126c-4.226,0.443-9.676,1.202-13.404,3.685C175.793,678.421,167.15,686.905,166.325,691.826z"
		/>
	<path fill="#EDD5A6" d="M299.778,716.13c3.616,0.626,7.275,1.005,10.942,1.133c2.646,0.093,5.377,0.039,7.814-0.997
		c2.879-1.224,5.03-3.68,6.958-6.144c1.964-2.51,3.81-5.113,5.528-7.798c0.488-0.763,0.977-1.56,1.119-2.455
		c0.31-1.95-1.069-3.735-2.436-5.16c-2.748-2.865-5.81-5.428-9.114-7.63c-0.576-0.384-1.205-0.771-1.898-0.759
		c-0.801,0.013-1.485,0.553-2.101,1.065c-4.04,3.364-9.744,6.476-11.13,11.819C304.961,701.13,302.772,716.706,299.778,716.13z"/>
	<path fill="#EDD5A6" d="M250.795,193.613c7.133-3.265,15.065-4.767,22.898-4.335c0.44,0.024,0.901,0.061,1.271,0.301
		c0.416,0.269,0.646,0.751,0.762,1.232c0.431,1.791-0.503,3.693-1.891,4.905s-3.164,1.867-4.907,2.464
		c-7.114,2.437-14.535,4.355-22.052,4.139c-1.743-0.05-3.564-0.242-5.021-1.201s-2.401-2.9-1.708-4.501"/>
	<path fill="#FFFFFF" d="M480,227.81c-0.181,0.594-0.361,1.188-0.542,1.783"/>
	<path fill="#C9B6FF" d="M184.224,593.6c0.086,25.692,2.647,51.561-1.176,76.967c-0.503,3.343,8.511,0.894,10.028,0.207
		c4.64-2.101,8.042-6.908,9.905-11.49c7.239-17.808,4.273-37.736,3.143-56.352c-1.461-24.089,2.368-48.251,13.181-69.955
		c7.512-15.079,11.784-47.358,16.943-30.957c4.149,13.19,16.688,52.079,19.658,65.528c2.951,13.36,5.16,19.578,8.737,32.764
		c3.027,11.159,9.784,24.599,13.106,35.676c6.335,21.126,18.462,41.156,35.907,55.675c-1.644-1.368,6.987-4.041,7.498-4.598
		c5.569-6.068-3.831-18.758-6.225-24.651c-4.656-11.465-9.27-22.956-13.224-34.687c-3.122-9.263-6.36-18.919-7.911-28.596
		c-1.453-9.059-2.147-18.023-5.401-26.748c-2.612-7.003-3.652-11.695-0.961-18.742c12.902-33.786,16.21-71.175,9.441-106.701
		c-2.448-12.846-6.979-27.059-17.523-35.599c-3.142-2.545-4.956-4.118-8.15-2.486c-2.672,1.365-5.331,6.077-7.944,8.062
		c-6.898,5.241-15.312,8.081-23.952,8.261c-8.549,0.177-18.209-2.927-26.362,0.81c-9.14,4.189-9.391,22.681-11.253,31.199
		c-6.252,28.594-11.692,57.414-14.776,86.539C185.159,560.29,184.168,576.941,184.224,593.6z"/>
	<g>
		<path fill="#7DA7D7" d="M164.936,134.348c-0.452-0.952-0.85-1.9-1.172-2.834C164.011,132.533,164.419,133.475,164.936,134.348z"/>
		<path fill="#7DA7D7" d="M284.122,122.034c-2.241-3.829-5.057-7.437-8.801-9.819c-4.938-3.142-11.048-3.879-16.896-3.648
			c-22.782,0.901-42.621,14.793-62.398,26.138c-5.473,3.139-11.305,6.19-17.611,6.365c-5.258,0.146-10.888-2.339-13.48-6.721
			c1.893,3.987,4.756,8.035,7.194,11.383c3.02,4.146,7.449,7.522,12.537,8.169c4.554,0.579,9.071-1.04,13.361-2.676
			c16.188-6.171,32.137-12.969,47.807-20.356c-2.453,5.029-4.007,10.461-3.986,16.028c0.007,2.042,0.256,4.1,0.734,6.101
			c-0.708,9.273,2.427,22.472,10.431,26.477c4.121,2.062,8.819,2.572,13.402,3.05c2.54,0.265,5.192,0.517,7.578-0.394
			c1.991-0.76,3.603-2.262,5.044-3.832C292.676,163.446,294.309,139.436,284.122,122.034z"/>
	</g>
	<path fill="#7DA7D7" d="M292.113,141.131c7.479-11.404,18.463-20.475,31.076-25.662c4.218-1.735,9.405-2.929,13.057-0.197
		c2.924,2.188,3.803,6.177,3.938,9.826c0.594,15.996-8.827,30.56-11.861,46.277c-0.914,4.734-1.187,9.877,1.054,14.147
		c2.896,5.518,9.238,8.241,15.282,9.758c17.095,4.29,35.743,2.056,51.341-6.152c-13.592,8.892-29.235,14.626-45.353,16.625
		c-11.948,1.481-26.092-0.104-32.659-10.194c-4.034-6.198-4.126-14.198-2.758-21.465c1.368-7.268,4.041-14.26,5.112-21.577
		c0.404-2.765,0.511-5.818-1.104-8.099c-1.716-2.424-5.008-3.306-7.954-2.935c-2.946,0.371-5.646,1.78-8.272,3.166
		c-2.419,1.276-4.839,2.552-7.258,3.828c-0.855,0.451-1.822,0.915-2.75,0.644c-0.946-0.277-1.52-1.231-1.86-2.157
		c-1.825-4.973,1.181-11.164,6.218-12.805"/>
	<g>
		<g>
			<path fill-rule="evenodd" clip-rule="evenodd" fill="#7CA7D9" d="M188.138,152.413c-0.266,0.477-0.692,0.615-1.131,0.652
				c-0.444,0.022-0.906-0.105-1.322-0.045c-1.327,0.106-2.829,0.337-4.382,0.256c-1.54-0.078-3.131-0.373-4.423-1.146
				c-2.207-0.295-3.741-1.409-6.046-2.802c-0.986-0.62-2.18-0.993-3.088-1.704c-0.997-0.742-1.9-1.587-2.783-2.504
				c-0.837-0.947-1.646-1.943-2.285-3.057c-1.326-2.198-2.167-4.695-2.603-7.239c-0.105-0.524-0.14-1.087-0.18-1.671
				c-0.063-1.334-0.307-2.92-0.087-4.135c0.244-1.336,1.699-2.228,3.305-2.23c1.706,0.987,1.359,3.028,1.608,4.944
				c0.207,1.604,0.487,3.456,1.022,5.152c0.536,1.695,1.312,3.238,2.145,4.394c1.267,1.753,3.091,3.301,4.85,4.732
				c1.808,1.494,3.86,2.54,5.846,3.569c1.448,0.743,2.844,1.671,4.403,2.105C184.641,152.137,186.344,152.423,188.138,152.413z"/>
		</g>
	</g>
	<g>
		<g>
			<path fill-rule="evenodd" clip-rule="evenodd" fill="#7CA7D9" d="M293.449,139.66c0.319-1.518,0.686-3.072,0.76-4.751
				c0.095-1.666-0.069-3.412-0.523-4.964c-3.395-9.625-10.868-19.679-20.17-24.756c-7.018-2.852-13.644-3.397-23.059-1.473
				c-4.048,0.867-7.829,2.489-11.472,3.987c-7.926,3.214-15.248,7.321-22.771,11.282c-3.766,1.975-7.568,3.951-11.556,5.729
				c-3.879,1.739-7.813,3.599-12.026,5.24c-0.86,0.338-1.781,0.647-2.716,0.979c-0.947,0.313-1.942,0.593-2.943,0.893
				c-2.356,0.583-4.964,1.27-7.701,1.49c-2.715,0.213-5.519,0.172-7.902-0.556c-0.324-0.089-0.643-0.177-0.959-0.265
				c-0.31-0.102-0.602-0.255-0.891-0.385c-0.575-0.271-1.115-0.551-1.612-0.833c-0.958-0.653-1.718-1.382-2.305-2.015
				c-1.053-1.469-1.368-2.664-1-3.383c1.857,0.297,4.061,1.587,7.036,2.186c2.932,0.653,6.557,0.656,10.109-0.078
				c2.984-0.594,6.239-1.642,9.597-2.964c3.365-1.317,6.823-2.908,10.38-4.47c6.927-3.02,13.61-6.599,19.234-9.455
				c8.582-4.377,17.664-8.786,27.214-10.792c1.228-0.22,2.434-0.515,3.667-0.673c1.234-0.151,2.456-0.356,3.688-0.462
				c1.238-0.077,2.464-0.173,3.701-0.231c1.264,0.04,2.521-0.029,3.779,0.115c5.019,0.412,10.009,1.961,14.138,4.732
				c3.037,1.971,5.575,4.466,7.703,7.141c2.129,2.684,3.888,5.543,5.421,8.467c0.815,1.564,1.58,3.145,2.256,4.755
				c0.705,1.595,1.323,3.272,1.768,4.996c0.451,1.721,0.715,3.522,0.642,5.334C294.871,136.29,294.384,138.111,293.449,139.66z"/>
		</g>
	</g>
	<g>
		<g>
			<path fill-rule="evenodd" clip-rule="evenodd" fill="#7CA7D9" d="M248.59,131.767c-0.618,0.245-1.318,0.313-2.046,0.332
				c-0.725,0.046-1.475,0.069-2.171,0.154c-4.439,0.674-9.228,2.743-13.623,4.429c-2.991,1.601-5.639,2.731-9.375,4.778
				c-1.611,0.88-3.11,1.929-4.642,2.788c-3.322,1.868-6.605,3.618-10.006,5.187c-3.411,1.545-6.941,2.925-10.756,3.907
				c-0.788,0.174-1.628,0.405-2.523,0.533c-2.033,0.396-4.539,0.721-6.507,0.668c-2.174-0.053-3.728-0.96-3.814-1.74
				c0.762-0.41,1.966-0.454,3.4-0.584c1.43-0.076,3.091-0.213,4.706-0.463c2.716-0.432,5.918-1.25,9.018-2.361
				c3.105-1.093,6.116-2.423,8.558-3.594c3.754-1.782,7.442-3.88,11.102-5.719c3.742-1.892,7.424-3.756,11.243-5.196
				c2.787-1.045,5.605-1.732,8.402-2.314C242.543,131.945,245.581,131.642,248.59,131.767z"/>
		</g>
	</g>
	<g>
		<g>
			<path fill-rule="evenodd" clip-rule="evenodd" fill="#7CA7D9" d="M262.449,182.454c-0.205,0.335-0.489,0.609-0.814,0.838
				c-0.338,0.2-0.716,0.358-1.109,0.48c-0.801,0.213-1.646,0.284-2.418,0.418c-2.445,0.471-5.272,0.512-8.065-0.187
				c-1.391-0.35-2.763-0.884-4.02-1.611c-1.256-0.735-2.38-1.648-3.318-2.682c-1.654-1.162-2.923-2.579-4.046-4.217
				c-1.124-1.643-2.13-3.507-3.17-5.79c-0.906-1.961-1.955-3.887-2.529-5.906c-1.238-4.357-1.707-8.844-1.323-13.345
				c0.208-2.249,0.642-4.499,1.342-6.711c0.7-2.226,1.719-4.378,3.005-6.418c0.526-0.838,1.177-1.689,1.902-2.526
				c1.658-1.914,3.911-4.147,6.177-5.187c1.214-0.599,2.49-0.692,3.464-0.458c0.993,0.261,1.687,0.839,1.995,1.579
				c-0.523,1.087-1.574,1.824-2.798,2.709c-1.223,0.871-2.638,1.894-3.813,3.16c-1.984,2.1-3.914,5.078-5.058,8.332
				c-1.177,3.263-1.615,6.779-1.59,9.663c0.014,4.437,1.025,8.943,2.478,13.005c1.497,4.177,3.884,7.829,6.836,10.66
				c1.084,1.039,2.185,1.985,3.425,2.79c1.233,0.803,2.584,1.455,4.014,1.838C256.063,183.693,259.37,183.658,262.449,182.454z"/>
		</g>
	</g>
	<g>
		<g>
			<path fill-rule="evenodd" clip-rule="evenodd" fill="#7CA7D9" d="M233.238,207.44c0.785-0.773,1.591-0.11,2.392-0.173
				c1.246-0.084,2.553-0.552,3.783-1.087c1.24-0.535,2.407-1.124,3.641-1.454c1.362-1.31,2.813-1.804,4.403-3.4
				c0.681-0.686,1.027-1.657,1.533-2.385c1.119-1.577,1.98-3.245,2.662-4.969c0.667-1.731,1.146-3.528,1.38-5.406
				c0.061-0.382,0.104-0.796,0.19-1.219c0.062-0.477,0.098-1.121,0.048-1.345c-0.042-0.334-0.125-0.655-0.096-0.82
				c0.01-0.056,0.037-0.081,0.086-0.128c0.031-0.019,0.021-0.009,0.167-0.113l0.041-0.031l0.01-0.008l0.005-0.004l0.003-0.002
				l0.001-0.001c0.11-0.077-0.148,0.104-0.121,0.085l0.007-0.002l0.029-0.01l0.061-0.028c0.164-0.106,0.249-0.361,0.349-0.613
				c0.092-0.264,0.153-0.557,0.209-0.862c0.029-0.15,0.058-0.306,0.089-0.466c0.042-0.182,0.09-0.374,0.152-0.57
				c0.401-0.413,0.953-0.626,1.521-0.504c0.29,0.066,0.554,0.158,0.845,0.397c0.3,0.238,0.529,0.513,0.716,0.797
				c0.736,1.149,0.875,2.443,0.855,3.707c0.008,1.727-0.288,3.788-0.859,5.761c-0.566,1.976-1.423,3.846-2.25,5.309
				c-1.254,2.248-2.851,4.414-4.831,6.035c-2.029,1.631-4.182,3.058-6.576,3.785c-1.746,0.535-3.554,0.501-5.229,0.53
				C236.653,208.284,234.877,208.016,233.238,207.44z"/>
		</g>
	</g>
	<g>
		<g>
			<path fill-rule="evenodd" clip-rule="evenodd" fill="#7CA7D9" d="M256.703,186.532c1.059-1.023,2.643-0.677,3.957-1.027
				c2.069-0.558,4.217-1.487,6.296-2.558c2.087-1.064,4.121-2.206,6.184-3.096c2.483-2.09,4.9-3.346,7.784-6.111
				c0.631-0.581,1.121-1.298,1.638-1.959c0.474-0.702,0.951-1.375,1.435-2.015c2.105-2.764,3.809-5.672,5.03-8.771
				c1.254-3.082,2.042-6.337,2.349-9.724c0.058-0.694,0.12-1.44,0.185-2.214c0.129-1.792-0.214-3.916-0.244-5.592
				c-0.033-1.823,0.941-3.504,2.479-4.095c2.052,0.951,2.553,4.601,2.702,8.026c0.162,2.898-0.163,6.392-1.016,9.738
				c-0.823,3.357-2.205,6.524-3.575,8.975c-1.032,1.895-2.255,3.698-3.571,5.406c-1.332,1.697-2.822,3.233-4.373,4.616
				c-3.231,2.762-6.615,5.19-10.316,6.842c-2.694,1.218-5.511,1.819-8.208,2.474C262.549,186.145,259.618,186.514,256.703,186.532z"
				/>
		</g>
	</g>
	<g>
		<g>
			<path fill-rule="evenodd" clip-rule="evenodd" fill="#7CA7D9" d="M400.011,187.943c-2.521,1.829-6.157,3.406-9.246,5.005
				c-9.796,5.069-21.461,10.996-33.059,13.702c-4.078,1.174-7.934,2.042-12.144,2.492c-4.198,0.379-8.77,0.509-14.064-0.648
				c-2.274-0.516-4.505-1.23-6.599-2.244c-2.09-1.018-3.997-2.394-5.596-4.022c-1.752-1.75-3.114-3.851-4.131-6.063
				c-0.996-2.227-1.632-4.577-2.002-6.942c-0.739-4.737-0.36-9.542,0.562-14.13c0.925-4.6,2.327-9.042,3.63-13.488
				c0.649-2.223,1.282-4.456,1.806-6.705c0.515-2.225,0.878-4.472,0.547-6.547c-0.244-1.699-1.071-3.329-2.51-4.575
				c-1.626-1.449-4.095-2.374-6.56-2.495c-2.447-0.153-4.918,0.518-6.996,1.316c-2.289,0.887-4.287,1.875-5.847,2.513
				c-1.557,0.646-2.666,0.958-3.079,0.745c1.266-1.347,3.695-3.324,7.124-5.012c1.715-0.823,3.702-1.551,5.87-1.868
				c2.192-0.337,4.526-0.169,6.698,0.518c1.821,0.569,3.686,1.547,5.18,3.122c1.524,1.536,2.506,3.771,2.703,5.991
				c0.23,2.235-0.128,4.421-0.592,6.498c-0.48,2.067-1.039,4.103-1.629,6.125c-1.182,4.038-2.458,7.986-3.385,11.787
				c-0.938,3.802-1.518,7.443-1.536,10.734c-0.08,5.026,0.938,10.171,3.63,14.273c1.326,2.047,3.08,3.785,5.068,5.158
				c1.995,1.373,4.236,2.369,6.556,3.059c4.778,1.403,9.874,1.589,14.816,1.123c2.479-0.22,4.924-0.652,7.374-1.128
				c1.22-0.244,2.43-0.532,3.643-0.792c1.203-0.307,2.403-0.614,3.601-0.921c6.961-1.903,13.608-4.21,20.019-6.995
				C386.719,194.57,393.369,191.264,400.011,187.943z"/>
		</g>
	</g>
	<g>
		<g>
			<path fill-rule="evenodd" clip-rule="evenodd" fill="#7CA7D9" d="M419.536,180.63c-3.447,2.213-8.504,3.336-12.796,4.71
				c-13.63,4.411-29.949,9.121-45.405,10.059c-5.485,0.662-10.838,0.609-16.244-1.208c-2.694-0.906-5.324-2.377-7.681-4.518
				c-1.163-1.091-2.241-2.381-3.066-3.935c-0.824-1.537-1.36-3.415-1.3-5.357c0.043-1.659,0.396-3.207,0.739-4.664
				c0.356-1.444,0.712-2.883,1.065-4.314c0.724-2.855,1.5-5.655,2.352-8.371c3.692-11.742,7.656-22.984,9.313-34.563
				c0.347-2.838,0.914-5.999,0.484-8.149c-0.215-1.08-0.663-1.879-1.467-2.701c-0.395-0.398-0.859-0.771-1.369-1.109
				c-0.502-0.346-1.103-0.608-1.653-0.915c-1.168-0.508-2.4-0.882-3.69-1.096c-1.3-0.175-2.637-0.241-4-0.145
				c-2.727,0.203-5.511,0.893-8.227,1.928c-2.24,0.829-4.564,1.939-6.987,3.255c-2.77,1.5-5.683,3.402-8.422,5.453
				c-2.746,2.045-5.295,4.258-7.501,6.235c-4.831,4.313-8.841,7.469-10.519,6.97c0.722-2.414,3.024-5.858,6.378-9.439
				c3.36-3.575,7.786-7.224,12.432-10.348c1.949-1.324,4.068-2.603,6.314-3.829c2.239-1.231,4.703-2.391,7.312-3.322
				c2.615-0.931,5.427-1.624,8.387-1.889c2.951-0.264,6.103,0.018,9.083,1.063c1.478,0.581,2.888,1.237,4.221,2.19
				c1.321,0.948,2.581,2.169,3.478,3.767c0.917,1.626,1.241,3.437,1.29,4.992c0.048,1.579-0.101,2.99-0.267,4.288
				c-0.611,5.288-1.669,10.216-2.796,14.578c-1.724,6.701-3.913,13.252-6.061,19.69c-1.071,3.219-2.151,6.411-3.156,9.579
				c-0.502,1.585-0.999,3.162-1.463,4.736c-0.453,1.565-0.974,3.187-1.26,4.56c-0.299,1.451-0.338,2.61,0,3.783
				c0.332,1.181,1.009,2.354,1.902,3.406c0.446,0.527,0.945,1.024,1.482,1.485l0.857,0.665c0.279,0.232,0.575,0.44,0.889,0.625
				c1.195,0.826,2.544,1.428,3.92,1.961c1.385,0.525,2.858,0.865,4.343,1.16c1.505,0.239,3.026,0.431,4.578,0.494
				c3.096,0.164,6.253-0.008,9.414-0.279c9.295-0.897,18.37-1.988,27.22-3.884C401.117,186.201,410.396,183.662,419.536,180.63z"/>
		</g>
	</g>
	<g>
		<path fill="#7DA7D7" d="M212.148,159.464c-3.823,9.268-12.62,15.797-16.398,25.084c-0.291,0.716-0.554,1.461-0.576,2.234
			c-0.061,2.152,2.111,4.078,4.24,3.759c1.767-0.264,3.079-1.733,4.157-3.159c5.207-6.889,8.796-15.625,7.164-24.105"/>
		<g>
			<path fill-rule="evenodd" clip-rule="evenodd" fill="#7DA7D7" d="M210.485,163.324c0.619,1.145,0.547,2.785,0.531,4.171
				c0.042,2.218-0.115,4.659-0.66,7.083c-0.539,2.421-1.429,4.817-2.632,6.901c-0.667,1.594-1.455,2.999-2.414,4.414
				c-0.469,0.718-0.995,1.419-1.563,2.18c-0.589,0.747-1.255,1.551-2.221,2.24c-0.831,0.585-1.86,1.028-3.002,0.982
				c-1.112-0.062-2.157-0.547-2.916-1.302c-0.817-0.811-1.395-1.948-1.396-3.197c0.014-1.208,0.423-2.206,0.786-3.074
				c0.703-1.814,1.649-3.488,2.634-5.121c2.011-3.245,4.395-6.176,6.718-9.214c0.477-0.619,0.989-1.284,1.519-1.974
				c1.22-1.582,2.471-3.599,3.454-5.145c1.07-1.687,2.269-2.818,3.108-2.689c0.103,0.837-0.229,2.107-0.895,3.488
				c-0.667,1.378-1.619,2.879-2.594,4.296c-1.616,2.411-3.776,5.078-5.816,7.722c-2.058,2.639-3.906,5.333-5.101,7.685
				c-0.245,0.444-0.459,0.901-0.655,1.366c-0.197,0.457-0.428,0.933-0.58,1.373c-0.157,0.437-0.262,0.839-0.284,1.189
				c-0.013,0.332,0.032,0.623,0.164,0.938c0.254,0.617,0.829,1.176,1.458,1.433c0.635,0.264,1.226,0.228,1.914-0.084
				c1.392-0.652,2.591-2.447,3.747-4.051c1.141-1.639,2.163-3.331,3.076-5.063c1.3-2.53,2.507-5.061,3.108-7.763
				C210.649,169.237,210.83,166.275,210.485,163.324z"/>
		</g>
	</g>
	<g>
		<g>
			<path fill-rule="evenodd" clip-rule="evenodd" fill="#7CA7D9" d="M251.11,197.428c-0.527,2.254-2.364,4.63-4.081,6.501
				c-2.688,3.053-6.252,5.831-10.325,7.824c-4.065,2.016-8.581,3.228-12.928,3.77c-3.086,0.606-5.994,0.874-9.095,1.031
				c-3.1,0.135-6.403,0.236-10.357,0.082c-3.404-0.133-6.816-0.39-10.026-1.245c-1.733-0.462-3.427-1.064-5.042-1.828
				c-1.613-0.749-3.256-1.695-4.526-3.2c-0.63-0.746-1.125-1.656-1.415-2.575c-0.299-0.92-0.438-1.844-0.525-2.734
				c-0.146-1.774-0.19-3.447-0.244-5.175c-0.178-6.864,0.246-13.761,1.241-20.813c0.21-1.444,0.467-2.996,0.782-4.592
				c0.703-3.675,1.642-8.091,2.717-11.447c1.166-3.691,2.804-6.205,3.657-6.251c-0.066,2.791-2.101,8.827-3.3,14.853
				c-0.51,2.528-0.999,5.316-1.42,8.234c-0.401,2.921-0.73,5.972-0.954,9.021c-0.21,3.05-0.306,6.095-0.316,8.999
				c0.015,1.452,0.019,2.869,0.08,4.233c0.046,1.369,0.076,2.686,0.259,3.787c0.251,1.733,1,3.009,2.37,4.06
				c1.333,1.034,3.071,1.814,4.782,2.475c3.456,1.304,7.147,1.927,10.795,2.224c3.745,0.304,7.514,0.233,11.24,0.097
				c3.719-0.149,7.38-0.447,10.955-1.032c5.198-0.85,10.198-2.205,14.581-4.797C244.676,206.203,248.737,202.334,251.11,197.428z"/>
		</g>
	</g>
	<g>
		<g>
			<path fill-rule="evenodd" clip-rule="evenodd" fill="#7CA7D9" d="M185.511,260.302c0.96-0.865,2.212-0.462,3.301-0.834
				c1.683-0.565,3.248-1.679,4.824-2.771c1.591-1.102,3.2-2.141,4.815-2.956c0.916-0.96,1.785-1.728,2.628-2.607
				c0.84-0.876,1.653-1.874,2.228-3.289c0.497-1.232,0.442-2.603,0.589-3.842c0.306-2.723,0.138-5.488-0.019-8.374
				c-0.139-2.896-0.278-5.794-0.422-8.79c-0.028-0.614-0.03-1.276-0.019-1.961c0.024-1.576-0.223-3.471-0.049-4.955
				c0.191-1.628,1.564-2.868,3.172-3.025c1.771,1.117,1.574,3.856,1.764,6.487c0.161,2.213,0.257,4.858,0.32,7.485
				c0.058,2.639,0.11,5.202,0.11,7.425c-0.012,3.365-0.141,7.152-1.761,10.629c-0.82,1.755-1.975,3.419-3.328,4.714
				c-1.344,1.312-2.831,2.306-4.325,3.093c-2.216,1.136-4.394,1.635-6.528,2.45C190.539,260.017,187.992,260.651,185.511,260.302z"
				/>
		</g>
	</g>
	<g>
		<g>
			<path fill-rule="evenodd" clip-rule="evenodd" fill="#7CA7D9" d="M268.21,267.796c-1.428,0.022-3.015-0.763-4.491-1.192
				c-4.676-1.358-10.33-2.668-14.949-5.236c-3.479-1.45-6.24-3.211-9.909-6.228c-1.573-1.315-3.162-2.621-4.461-4.125
				c-2.807-3.24-4.933-7.016-6.046-11.112c-1.158-4.086-1.345-8.367-1.067-12.663c0.054-0.883,0.156-1.828,0.282-2.802
				c0.292-2.238,0.643-4.922,1.142-6.964c0.545-2.243,1.587-3.785,2.412-3.814c0.535,1.744-0.384,5.471-0.852,9.095
				c-0.384,3.046-0.72,6.689-0.528,10.258c0.106,1.781,0.329,3.538,0.682,5.179c0.388,1.63,0.847,3.157,1.412,4.472
				c1.703,4.063,4.571,7.644,7.741,10.58c3.271,3.027,7.024,5.321,10.886,7.287c2.818,1.433,5.601,2.795,8.481,3.896
				C262.02,265.606,265.12,266.681,268.21,267.796z"/>
		</g>
	</g>
	<g>
		<g>
			<path fill-rule="evenodd" clip-rule="evenodd" fill="#7CA7D9" d="M180.053,333.165c-1.803,0.128-3.316-1.444-4.771-2.425
				c-2.362-1.562-4.886-3.401-7.287-5.47c-1.202-1.031-2.374-2.112-3.488-3.222c-1.103-1.102-2.237-2.282-3.002-3.731
				c-0.746-0.91-1.254-2.011-1.535-3.118c-0.289-1.115-0.367-2.248-0.35-3.386c0.031-1.138,0.129-2.291,0.323-3.48
				c0.183-1.196,0.315-2.477,0.595-3.844c0.206-1.187,0.33-2.388,0.539-3.56c0.175-1.182,0.367-2.352,0.702-3.457
				c1.356-4.82,3.176-9.331,5.219-13.704c2.046-4.374,4.325-8.615,6.704-12.941c0.486-0.887,1.036-1.823,1.615-2.788
				c1.333-2.217,2.682-5.013,4.021-7.022c0.365-0.552,0.775-1.033,1.209-1.436c0.217-0.202,0.44-0.384,0.666-0.545
				c0.252-0.21,0.349-0.108,0.524-0.18c0.16-0.045,0.309-0.13,0.397-0.203c0.083-0.071,0.106-0.086,0.143-0.062
				c0.041,0.024,0.06,0.088,0.176,0.188c0.117,0.059,0.223,0.118,0.26,0.161c0.1,0.052,0.2,0.101,0.299,0.143
				c0.054-0.026-0.031-0.076,0.17-0.084c0.198-0.005,0.192-0.057,0.244-0.096c0.09-0.083,0.191-0.144,0.289-0.185
				c0.195-0.083,0.391-0.086,0.56,0.02c0.348,0.272,0.41,0.933,0.254,1.519c-0.063,0.231-0.126,0.462-0.19,0.695
				c-0.057,0.2-0.122,0.405-0.194,0.612c-0.144,0.415-0.315,0.845-0.506,1.285c-0.766,1.761-1.88,3.679-2.892,5.592
				c-1.699,3.227-3.835,6.997-5.877,10.745c-2.051,3.745-3.963,7.491-5.366,10.619c-1.105,2.391-2.039,4.854-2.922,7.303
				c-0.811,2.468-1.576,4.923-2.152,7.357c-0.147,0.625-0.294,1.247-0.44,1.868c-0.124,0.624-0.215,1.251-0.322,1.875
				c-0.22,1.251-0.402,2.499-0.449,3.64c-0.056,1.148,0.004,2.22,0.231,3.16c0.22,0.937,0.61,1.732,1.246,2.653
				c0.908,1.293,2.175,2.801,3.265,4.231c1.121,1.433,2.24,2.832,3.46,4.115C174.016,328.75,176.798,331.247,180.053,333.165z"/>
		</g>
	</g>
	<g>
		<g>
			<path fill-rule="evenodd" clip-rule="evenodd" fill="#7CA7D9" d="M202.874,422.769c-1.896-0.331-3.324-2.123-4.895-3.266
				c-2.501-1.816-5.316-3.671-7.957-5.89c-2.635-2.204-5.111-4.819-6.7-7.815c-1.525-1.901-2.584-3.932-3.46-6.169
				c-0.873-2.244-1.567-4.708-2.25-7.656c-0.594-2.539-1.382-5.034-1.736-7.497c-0.739-5.329-1.178-10.468-1.518-15.661
				c-0.32-5.187-0.492-10.398-0.502-15.788c-0.009-1.104,0.03-2.294,0.079-3.524c0.12-2.829,0.047-6.247,0.393-8.896
				c0.383-2.909,1.944-4.996,3.562-5.117c1.599,2.146,1.029,6.944,1.03,11.603c-0.01,3.915-0.026,8.585,0.053,13.222
				c0.08,4.637,0.249,9.239,0.467,13.012c0.358,5.798,0.849,11.654,1.724,17.026c0.915,5.524,2.695,10.61,5.457,15.021
				c1.989,3.246,4.272,6.363,7.029,9.061C196.588,417.315,199.747,420.008,202.874,422.769z"/>
		</g>
	</g>
	<g>
		<g>
			<path fill-rule="evenodd" clip-rule="evenodd" fill="#7CA7D9" d="M265.272,314.107c-0.472,0.404-1.076,0.37-1.603,0.157
				c-0.537-0.212-0.999-0.588-1.467-0.849c-1.501-0.816-3.036-2.113-4.134-3.826c-1.113-1.698-1.815-3.664-2.042-5.551
				c-1.189-2.536-1.346-4.914-1.786-8.352c-0.179-1.486-0.632-2.977-0.662-4.446c-0.069-3.168,0.302-6.311,1.186-9.363
				c0.87-3.051,2.251-5.964,4.087-8.715c0.376-0.564,0.823-1.143,1.319-1.714c1.124-1.316,2.442-2.983,3.82-3.906
				c1.517-1.034,3.434-0.648,4.437,0.6c0.074,2.068-2.038,3.433-3.591,5.399c-1.295,1.625-2.696,3.664-3.798,5.842
				c-1.105,2.178-1.898,4.463-2.323,6.398c-0.678,2.977-0.754,6.123-0.708,9.158c0.045,3.127,0.627,6.173,1.128,9.209
				c0.365,2.192,0.481,4.292,1.425,6.044C261.537,311.989,263.125,313.604,265.272,314.107z"/>
		</g>
	</g>
	<g>
		<g>
			<path fill-rule="evenodd" clip-rule="evenodd" fill="#7CA7D9" d="M270.164,404.232c-1.744-1.105-2.86-3.206-4.375-4.716
				c-2.389-2.354-5.235-4.619-7.851-7.266c-2.636-2.616-5.025-5.614-6.756-8.776c-1.619-2.017-2.896-4.099-4.004-6.432
				c-1.107-2.338-2.105-4.92-3.006-8.096c-0.777-2.722-1.623-5.514-1.801-8.257c-0.47-5.891,0.01-11.692,1.28-17.331
				c1.257-5.645,3.362-11.13,6.323-16.385c0.597-1.083,1.328-2.199,2.107-3.336c1.818-2.611,3.931-5.593,5.625-7.725
				c0.472-0.586,0.958-1.095,1.45-1.53c0.244-0.218,0.496-0.415,0.739-0.595c0.123-0.09,0.247-0.174,0.371-0.254l0.047-0.03
				l0.006-0.004l0.001-0.001c1.054,0.61,0.291,0.168,0.525,0.304l-0.005-0.003l-0.02-0.013l-0.04-0.023
				c-0.053-0.03-0.107-0.054-0.161-0.074c-0.1-0.054-0.258-0.09-0.164-0.07c0.307-0.004,0.636-0.284,0.92-0.468
				c0.152-0.095,0.259-0.304,0.125-0.498c-0.124-0.194-0.303-0.319-0.459-0.476c0.108-0.104,0.227-0.219,0.47-0.276
				c0.231-0.061,0.549-0.012,0.796,0.129c0.469,0.285,0.653,0.629,0.805,0.932c0.255,0.625,0.413,1.251,0.044,2.199
				c-0.264,0.911-0.716,1.896-1.288,2.902c-1.142,2.02-2.767,4.087-4.176,6.135c-1.184,1.729-2.396,3.582-3.529,5.631
				c-1.125,2.043-2.208,4.219-3.119,6.46c-0.906,2.242-1.686,4.525-2.302,6.738c-0.583,2.222-1.061,4.357-1.347,6.306
				c-0.465,2.986-0.667,6.03-0.632,9.042c0.014,1.499,0.085,3.028,0.214,4.452c0.141,1.444,0.373,2.871,0.66,4.277
				c0.592,2.884,1.558,5.672,2.763,8.335c1.189,2.67,2.638,5.202,4.156,7.744c2.175,3.679,4.367,7.211,7.101,10.399
				C264.514,396.994,267.829,400.197,270.164,404.232z"/>
		</g>
	</g>
	<g>
		<g>
			<path fill-rule="evenodd" clip-rule="evenodd" fill="#7CA7D9" d="M252.596,277.124c-1.196,1.398-3.244,2.478-4.903,3.623
				c-5.247,3.655-11.528,7.954-18.024,10.34c-2.23,1.062-4.385,1.862-6.734,2.558c-2.351,0.691-4.896,1.286-7.966,1.794
				c-2.646,0.436-5.287,0.862-7.871,0.915c-2.794,0.058-5.561-0.116-8.279-0.539c-2.708-0.423-5.413-1.071-7.989-2.206
				c-2.558-1.126-5.034-2.811-6.781-5.231c-1.752-2.414-2.629-5.309-3.045-8.157c-0.176-1.174-0.277-2.438-0.323-3.734
				c-0.104-2.965-0.132-6.532,0.198-9.302c0.345-3.045,1.405-5.214,2.232-5.341c0.535,2.188-0.164,7.114-0.036,11.918
				c0.048,2.018,0.128,4.222,0.48,6.427c0.349,2.202,1.016,4.41,2.195,6.256c1.169,1.842,2.906,3.275,4.787,4.304
				c1.884,1.035,3.886,1.7,5.728,2.161c5.713,1.408,11.803,1.482,17.5,0.784c5.866-0.726,11.436-2.425,16.729-4.575
				c3.866-1.556,7.577-3.228,11.107-5.205C245.366,281.796,249.003,279.499,252.596,277.124z"/>
		</g>
	</g>
	<g>
		<g>
			<path fill-rule="evenodd" clip-rule="evenodd" fill="#7CA7D9" d="M239.931,332.238c-0.287,1.052-1.369,0.917-2.097,1.23
				c-2.275,1.073-4.966,3.013-7.823,3.035c-1.887,0.909-3.643,0.81-6.142,1.076c-1.081,0.105-2.158,0.549-3.208,0.606
				c-2.268,0.133-4.478,0.102-6.681-0.045c-2.194-0.144-4.459-0.394-6.849-1.015c-0.489-0.131-1.01-0.306-1.54-0.535
				c-1.211-0.498-2.808-1.051-3.786-1.987c-0.536-0.5-0.777-1.228-0.718-1.943c0.064-0.731,0.412-1.435,0.954-2.029
				c1.787-0.66,2.82,0.466,4.464,1.031c1.336,0.461,3.022,0.897,4.804,1.2c1.774,0.298,3.649,0.527,5.158,0.659
				c2.327,0.211,4.681,0.2,6.921,0.271c2.305,0.075,4.522-0.192,6.718-0.342c1.598-0.115,3.234,0.027,4.802-0.221
				C236.57,332.942,238.229,332.613,239.931,332.238z"/>
		</g>
	</g>
	<g>
		<g>
			<path fill-rule="evenodd" clip-rule="evenodd" fill="#7CA7D9" d="M271.73,398.833c0.232,0.365,0.382,0.78,0.466,1.219
				c0.05,0.439,0.066,0.901,0.011,1.363c-0.112,0.927-0.374,1.847-0.565,2.712c-0.548,2.761-1.614,5.748-3.371,8.45
				c-1.728,2.711-4.175,5.069-6.897,6.583c-1.708,1.467-3.528,2.512-5.533,3.433c-2.007,0.927-4.212,1.724-6.827,2.653
				c-2.256,0.796-4.406,1.859-6.619,2.498c-4.781,1.375-9.582,2.364-14.512,2.726c-4.918,0.369-9.988,0.129-15.08-1.066
				c-1.044-0.237-2.155-0.566-3.283-0.969c-2.599-0.885-5.745-2.117-7.89-3.657c-1.177-0.838-1.978-1.906-2.357-2.903
				c-0.364-1.025-0.324-1.953,0.106-2.638c1.282-0.102,2.659,0.546,4.275,1.326c1.601,0.794,3.427,1.764,5.344,2.454
				c3.212,1.171,7.224,2.131,11.294,2.485c4.065,0.375,8.18,0.171,11.532-0.247c5.156-0.622,10.317-2.003,15.25-3.382
				c5.038-1.421,9.672-3.355,13.708-5.936c1.48-0.943,2.888-1.911,4.168-3.033c1.286-1.119,2.46-2.378,3.406-3.794
				C270.389,406.099,271.674,402.572,271.73,398.833z"/>
		</g>
	</g>
	<g>
		<g>
			<path fill-rule="evenodd" clip-rule="evenodd" fill="#7CA7D9" d="M165.176,191.225c-0.536,1.116-1.799,1.926-2.718,2.854
				c-2.856,3.02-5.566,7.044-8.339,10.448c-0.804,1.365-1.647,2.549-2.477,3.868c-0.428,0.65-0.869,1.321-1.339,2.036
				c-0.434,0.736-0.894,1.515-1.397,2.367c-0.877,1.46-1.435,3.072-2.197,4.497c-1.515,3.162-2.928,6.259-4.098,9.457
				c-1.234,3.173-2.229,6.438-3.16,9.832c-0.182,0.699-0.376,1.449-0.579,2.228c-0.257,0.889-0.46,1.888-0.647,2.876
				c-0.188,0.987-0.421,1.951-0.608,2.8c-0.42,1.857-1.347,3.176-2.172,3.229c-0.322-0.731-0.317-1.909-0.174-3.296
				c0.128-1.39,0.527-2.959,0.804-4.521c0.271-1.306,0.635-2.724,0.994-4.208c0.422-1.466,0.857-2.996,1.343-4.503
				c1.003-3.004,2.132-5.943,3.175-8.305c1.538-3.652,3.399-7.226,5.365-10.528c2.046-3.369,4.201-6.559,6.548-9.528
				c0.883-1.061,1.799-2.066,2.7-3.06c0.936-0.965,1.879-1.902,2.78-2.867c0.994-1.003,2.015-1.969,3.024-2.938
				C163.051,193.034,164.114,192.127,165.176,191.225z"/>
		</g>
	</g>
	<g>
		<g>
			<path fill-rule="evenodd" clip-rule="evenodd" fill="#7CA7D9" d="M152.768,251.157c0.297-1.357,1.409-2.669,2.139-3.971
				c2.322-4.139,4.615-9.221,7.338-13.495c1.537-3.297,3.338-5.84,5.079-9.984c0.738-1.795,1.132-3.662,1.506-5.439
				c0.8-3.842,0.891-7.698,0.543-11.515c-0.09-0.955-0.197-1.91-0.343-2.863l-0.052-0.358l-0.026-0.179l-0.01-0.049l-0.032-0.138
				c-0.023-0.109-0.031-0.101-0.046-0.146c-0.015-0.008-0.086,0.085-0.072,0.075l0.058-0.037l-0.831,0.733
				c-1.514,1.328-3.038,2.665-4.574,4.012c0.016-0.09,0.032-0.187,0.049-0.284c0.156-0.882,0.318-1.796,0.485-2.737
				c0.082-0.474,0.165-0.953,0.248-1.438c0.093-0.491,0.159-0.963,0.204-1.419c0.031-0.266,0.062-0.536,0.093-0.809l0.024-0.216
				l0.007-0.099l0.013-0.2c0.017-0.269,0.036-0.542,0.041-0.818c0.019-0.553,0.02-1.117,0.005-1.677
				c-0.026-1.12-0.109-2.22-0.175-3.188c-0.136-2.112,0.105-3.839,0.846-4.241c1.263,1.292,1.888,5.193,1.79,8.911
				c0.001,0.661-0.08,1.814-0.049,1.584c0.002,0.055,0.004,0.114,0.006,0.177c0.028-0.019,0.085-0.089,0.107-0.113l-0.037,0.021
				l-0.022,0.014l0.543-0.475l1.581-1.372l0.742-0.634l0.372-0.318l0.186-0.159c0.026-0.014,0.072-0.082,0.083-0.051l0.021,0.121
				c0.218,1.267,0.437,2.534,0.654,3.793l0.142,0.873l0.068,0.507c0.043,0.338,0.085,0.674,0.127,1.007
				c0.078,0.668,0.142,1.33,0.191,1.979c0.095,1.298,0.151,2.544,0.141,3.697c0.006,2.31-0.187,4.649-0.595,6.943
				c-0.42,2.289-1.094,4.542-1.984,6.609c-1.828,4.249-4.151,7.984-6.376,11.631c-1.646,2.659-3.393,5.142-4.997,7.686
				C156.264,245.824,154.535,248.503,152.768,251.157z"/>
		</g>
	</g>
	<g>
		<g>
			<path fill-rule="evenodd" clip-rule="evenodd" fill="#7CA7D9" d="M133.967,391.583c-1.418-0.124-2.876-0.857-4.164-1.847
				c-1.299-0.99-2.415-2.243-3.467-3.387c-3.375-3.641-5.96-8.574-7.611-13.872c-0.845-2.647-1.487-5.37-1.959-8.097
				c-0.561-2.716-0.83-5.455-1.028-8.13c-0.639-3.797-0.927-7.365-0.98-11.174c-0.075-3.811,0.074-7.865,0.318-12.686
				c0.093-2.081,0.214-4.148,0.268-6.202c0.083-2.051,0.249-4.071,0.45-6.053c1.008-8.566,2.54-16.805,4.366-24.973
				c1.832-8.169,3.94-16.278,6.245-24.602c0.483-1.701,1.031-3.529,1.61-5.414c1.331-4.339,2.67-9.641,4.067-13.677
				c1.533-4.43,3.863-7.405,5.516-7.318c0.753,3.643-1.699,11.103-3.695,18.391c-0.858,3.061-1.8,6.417-2.781,9.916
				c-0.952,3.502-1.943,7.147-2.93,10.778c-1.937,7.266-3.705,14.502-4.975,20.469c-1.945,9.159-3.365,18.526-4.243,27.507
				c-0.896,9.216-0.767,18.248,0.014,27.065c0.637,6.404,1.086,12.773,3.096,18.555c1.082,3.078,2.52,6.008,4.502,8.565
				C128.545,387.96,131.03,390.147,133.967,391.583z"/>
		</g>
	</g>
	<g>
		<g>
			<path fill-rule="evenodd" clip-rule="evenodd" fill="#7CA7D9" d="M180.321,259.475c-0.573,0.792-1.323,1.327-2.12,1.907
				c-0.801,0.561-1.655,1.119-2.331,1.78c-1.077,1.048-2.096,2.237-3.08,3.497c-0.493,0.629-0.973,1.279-1.447,1.94l-0.69,0.988
				l-0.559,1.08c-0.755,1.457-1.554,2.883-2.24,4.371c-0.731,1.458-1.501,2.878-2.245,4.281c-0.347,1.093-0.744,2.11-1.133,3.129
				c-0.374,1.027-0.778,2.036-1.209,3.073c-0.885,2.062-1.737,4.305-2.704,6.985c-0.771,2.344-1.237,4.756-1.909,7.01
				c-1.525,4.852-2.898,9.61-4.308,14.367c-1.398,4.777-2.799,9.563-4.247,14.51c-0.296,1.014-0.662,2.103-1.042,3.222
				c-0.434,1.289-0.861,2.73-1.32,4.149c-0.441,1.417-0.921,2.812-1.466,3.999c-0.567,1.301-1.406,2.337-2.297,2.977
				c-0.88,0.641-1.789,0.888-2.571,0.676c-0.459-1.265-0.151-2.856,0.327-4.773c0.513-1.888,1.26-4.048,1.9-6.2
				c2.115-7.262,5.207-17.388,7.498-24.417c1.764-5.39,3.491-10.892,5.572-16.028c2.143-5.257,4.158-10.442,6.828-15.288
				c0.46-0.891,1.031-1.733,1.555-2.577c0.552-0.835,1.047-1.68,1.654-2.473c0.597-0.793,1.191-1.583,1.781-2.368l0.437-0.589
				l0.122-0.169c0.052-0.077,0.123-0.144,0.181-0.211l0.259-0.273l1.012-1.049c1.439-1.481,2.934-2.894,4.536-4.194
				C176.664,261.515,178.362,260.291,180.321,259.475z"/>
		</g>
	</g>
	<g>
		<g>
			<path fill-rule="evenodd" clip-rule="evenodd" fill="#7CA7D9" d="M169.509,326.702c0.816,1.413,0.071,3.176-0.107,4.713
				c-0.51,4.915-1.257,10.951-3.69,15.78c-0.921,3.78-2.496,6.686-4.513,11.074c-0.863,1.898-1.464,3.917-2.353,5.711
				c-1.949,3.868-4.031,7.536-6.286,11.111c-1.136,1.782-2.297,3.553-3.527,5.301c-1.226,1.744-2.469,3.5-3.915,5.27
				c-0.594,0.719-1.271,1.474-2.037,2.214c-1.701,1.717-4.022,3.831-6.385,4.756c-1.291,0.498-2.596,0.507-3.553,0.137
				c-0.965-0.363-1.567-1.058-1.756-1.829c0.661-0.99,1.714-1.582,2.938-2.34c1.225-0.731,2.642-1.671,3.888-2.869
				c2.113-1.989,4.31-4.859,6.509-7.896c2.183-3.003,4.251-6.057,5.867-8.615c2.491-3.92,4.726-8.066,6.889-12.016
				c2.222-4.052,4.03-8.196,5.89-12.223c1.34-2.932,2.855-5.7,3.821-8.649C168.223,333.191,169.039,330.001,169.509,326.702z"/>
		</g>
	</g>
	<g>
		<g>
			<path fill-rule="evenodd" clip-rule="evenodd" fill="#7CA7D9" d="M139.186,353.732c-0.384-2.031,0.752-4.236,1.166-6.325
				c1.331-6.652,1.601-14.589,2.581-21.669c-0.177-5.152,0.14-9.48-0.187-15.948c-0.142-2.787-0.662-5.535-0.797-8.216
				c-0.307-5.804-0.307-11.542,0.133-17.238c0.417-5.704,1.222-11.4,2.44-17.212c0.241-1.193,0.559-2.466,0.914-3.775
				c0.811-3.011,1.669-6.682,2.783-9.409c1.235-2.994,3.413-4.755,4.998-4.426c0.859,2.677-1.153,7.485-2.318,12.393
				c-1.002,4.109-2.098,9.037-2.86,13.988c-0.784,4.945-1.298,9.895-1.506,13.968c-0.371,6.241-0.047,12.607-0.012,18.833
				c0.016,3.187,0.052,6.36-0.026,9.522c-0.082,3.164-0.305,6.316-0.719,9.398c-0.612,4.502-1.785,8.739-2.789,12.933
				C141.921,345.037,140.624,349.412,139.186,353.732z"/>
		</g>
	</g>
	<g>
		<g>
			<path fill-rule="evenodd" clip-rule="evenodd" fill="#7CA7D9" d="M307.535,368.644c-1.551,0.165-2.829-1.138-4.097-1.909
				c-1.061-0.554-2.093-1.252-3.224-1.877c-1.066-0.712-2.22-1.387-3.272-2.211c-2.171-1.571-4.176-3.456-5.691-5.56
				c-2.845-2.463-4.517-5.203-7.195-8.984c-1.158-1.634-2.567-3.091-3.621-4.686c-2.289-3.454-4.376-6.858-6.472-10.255
				c-2.079-3.413-4.162-6.831-6.315-10.364c-0.439-0.725-0.89-1.52-1.344-2.349c-1.045-1.907-2.543-4.066-3.394-5.934
				c-0.935-2.05-0.572-4.206,0.728-5.175c2.304,0.484,3.985,3.874,5.931,6.944c3.275,5.166,7.492,12.533,10.443,17.652
				c2.262,3.929,4.622,7.818,6.852,11.51c2.288,3.791,4.815,7.249,7.389,10.544c1.868,2.406,3.624,4.831,5.786,6.853
				C302.346,364.992,304.827,366.937,307.535,368.644z"/>
		</g>
	</g>
	<g>
		<g>
			<path fill-rule="evenodd" clip-rule="evenodd" fill="#7CA7D9" d="M358.203,410.136c-1.526,0.854-3.483,0.201-5.175,0.056
				c-2.706-0.215-5.693-0.563-8.642-1.406c-2.947-0.824-5.84-2.051-8.309-3.675c-0.997-0.382-1.925-0.816-2.819-1.3
				c-0.906-0.467-1.771-0.994-2.656-1.552c-1.778-1.101-3.619-2.414-5.763-3.994c-1.851-1.363-3.862-2.518-5.544-3.939
				c-3.645-3.081-6.952-6.241-10.213-9.522c-3.243-3.299-6.385-6.778-9.289-10.719c-0.603-0.799-1.194-1.711-1.792-2.658
				c-1.37-2.18-3.094-4.821-3.935-7.147c-0.947-2.559-0.281-4.951,1.159-5.655c1.135,0.542,1.993,1.774,2.868,3.294
				c0.905,1.505,1.787,3.326,2.888,4.997c1.81,2.826,4.211,6.068,6.812,9.152c2.594,3.089,5.37,6.031,7.708,8.412
				c3.592,3.665,7.368,7.167,11.075,10.312c1.911,1.617,3.857,3.062,5.915,4.405c2.044,1.39,4.115,2.651,6.16,3.914
				c2.991,1.79,5.848,3.676,9.007,4.797C351.01,409.149,354.538,409.781,358.203,410.136z"/>
		</g>
	</g>
	<g>
		<g>
			<path fill-rule="evenodd" clip-rule="evenodd" fill="#7CA7D9" d="M373.328,406.696c-3.23-0.723-6.574-3.2-9.678-5.03
				c-4.969-2.876-10.339-6.076-15.523-9.764c-5.183-3.677-10.176-7.848-14.356-12.395c-3.334-2.921-6.097-5.978-8.89-9.362
				c-2.785-3.396-5.496-7.214-8.541-11.875c-2.635-4.016-5.261-7.993-7.418-12.044c-4.64-8.785-8.438-17.632-12.136-26.479
				c-3.702-8.847-7.245-17.747-11.382-26.66c-0.842-1.83-1.74-3.8-2.709-5.784c-1.116-2.283-2.488-4.697-3.999-6.902
				c-1.507-2.211-3.161-4.19-4.723-5.742c-1.702-1.719-3.253-3.112-4.484-4.294c-0.309-0.288-0.591-0.578-0.841-0.865
				c-0.259-0.26-0.491-0.507-0.681-0.758c-0.382-0.497-0.612-0.976-0.627-1.401c0.518-0.068,1.126-0.076,1.814-0.029
				c0.682,0.063,1.411,0.264,2.219,0.478c1.546,0.558,3.306,1.425,4.932,2.719c1.636,1.277,3.201,2.873,4.615,4.637
				c1.414,1.767,2.668,3.698,3.836,5.629c1.966,3.255,3.765,6.949,5.512,10.784c1.772,3.841,3.499,7.878,5.163,11.91
				c3.331,8.068,6.46,16.098,9.188,22.594c4.153,9.984,8.807,19.859,14.066,28.765c5.339,9.164,12.006,17.156,19.121,24.472
				c5.219,5.306,10.488,10.322,16.247,14.693C360.225,398.627,366.662,402.832,373.328,406.696z"/>
		</g>
	</g>
	<g>
		<g>
			<path fill-rule="evenodd" clip-rule="evenodd" fill="#7CA7D9" d="M370.718,417.378c1.815-0.68,3.955,0.11,5.928,0.05
				c3.112-0.049,6.463-0.583,9.76-1.387c3.306-0.793,6.559-1.806,9.712-2.673c2.149-1.037,4.067-1.963,6.13-2.958
				c1.007-0.53,2.116-1.054,3.139-1.681c1.004-0.615,1.98-1.418,2.39-2.411c0.194-0.484,0.243-1.044,0.129-1.495
				c-0.114-0.462-0.352-0.747-0.616-0.893c-0.399-0.224-1.034-0.256-1.908-0.182c-1.053,0.104-2.478,0.399-3.758,0.583
				c-1.307,0.202-2.609,0.39-3.909,0.562c-2.6,0.341-5.192,0.621-7.793,0.843c-5.198,0.41-10.417,0.765-16.018,0.413
				c-1.144-0.085-2.38-0.221-3.655-0.451c-2.921-0.478-6.553-1.25-9.116-2.665c-0.7-0.381-1.314-0.822-1.806-1.32
				c-0.441-0.439-1.036-1.06-1.328-1.754c-0.327-0.708-0.312-1.391-0.044-1.853c0.265-0.476,0.736-0.722,1.085-0.831
				c0.136,0.149,0.327,0.296,0.554,0.383c0.232,0.096,0.422,0.095,0.693,0.171l0.424,0.102c0.196,0.055,0.406,0.121,0.613,0.192
				c0.418,0.151,0.848,0.306,1.292,0.466c1.782,0.662,3.868,1.402,6.031,1.813c3.629,0.714,8.145,0.943,12.718,0.841
				c4.59-0.096,9.189-0.376,12.931-0.709c2.312-0.204,4.631-0.47,6.933-0.77c1.19-0.139,2.179-0.332,3.642-0.455
				c0.719-0.047,1.525-0.053,2.442,0.127c0.913,0.179,1.966,0.616,2.812,1.398c0.86,0.79,1.41,1.875,1.608,2.856
				c0.211,0.995,0.165,1.931-0.035,2.8c-0.233,1.118-0.87,2.252-1.531,3.012c-0.675,0.802-1.433,1.403-2.16,1.893
				c-1.484,0.982-2.766,1.532-4.11,2.214c-2.686,1.273-5.448,2.313-8.258,3.078c-4.11,1.1-8.226,1.433-12.237,1.621
				C379.111,418.539,374.845,418.208,370.718,417.378z"/>
		</g>
	</g>
	<g>
		<g>
			<path fill-rule="evenodd" clip-rule="evenodd" fill="#7CA7D9" d="M369.297,416.26c1.133-0.383,1.821,0.638,2.679,1.031
				c1.365,0.628,2.953,1.115,4.51,1.784c1.556,0.657,3.09,1.523,4.218,2.749c0.545,0.271,1.034,0.59,1.489,0.948
				c0.228,0.18,0.488,0.405,0.736,0.743c0.243,0.332,0.48,0.83,0.465,1.409c-0.004,0.569-0.239,1.087-0.545,1.466
				c-0.31,0.387-0.696,0.675-1.153,0.875c-0.98,0.409-1.921,0.267-2.742,0.082c-0.713-0.172-1.299-0.287-1.95-0.39
				c-0.641-0.095-1.261-0.239-1.85-0.434c-2.532-0.888-4.901-2.024-7.173-3.345c-2.268-1.33-4.445-2.85-6.533-4.629
				c-0.421-0.371-0.872-0.776-1.3-1.234c-1.001-1.031-2.345-2.163-3.077-3.325c-0.402-0.635-0.49-1.403-0.334-2.119l0.033-0.135
				c0.024,0.003-0.022-0.088-0.056-0.18c-0.031-0.086-0.056-0.173-0.068-0.256c-0.055-0.343,0.031-0.613,0.134-0.775
				c0.218-0.331,0.478-0.387,0.707-0.409c0.119-0.007,0.227,0.008,0.346,0.037c0.047,0.02,0.126,0.035,0.171,0.075
				c0.081,0.04,0.078,0.126,0.03,0.148c-0.165,0.057-0.379-0.013-0.456-0.035c0.174,0.056,0.398,0.073,0.442,0.043
				c-0.01-0.047,0.058,0.161,0.157,0.23c0.206,0.19,0.226,0.151,0.112,0.117c-0.106-0.043-0.245-0.019-0.222-0.018l0.001-0.001l0,0
				L359,409.99l0.01,0.003l0.041,0.011l0.081,0.024l0.159,0.054c0.419,0.157,0.805,0.41,1.174,0.724
				c0.756,0.611,1.476,1.446,2.283,2.173c1.361,1.216,3.001,2.635,4.718,3.928c1.715,1.296,3.5,2.468,5.019,3.336
				c2.325,1.327,4.868,2.386,7.226,3.355c0.262,0.108,0.467,0.177,0.59,0.207l0.116,0.027c0.012,0.022,0.007-0.037,0.014,0.048
				l0.013,0.111l0.138,0.695c-0.056-0.264-0.147-0.297,0.002-0.136c0.131,0.163,0.491,0.335,0.57,0.317
				c-0.003,0.005,0.07-0.009-0.054,0.012c-0.029,0.005-0.095,0.019-0.184,0.055c-0.098,0.037-0.23,0.098-0.389,0.194
				c-0.095,0.053-0.172,0.106-0.287,0.182l-0.167,0.118l-0.083,0.06l0.001,0c0.016-0.011-0.208-0.253-0.43-0.478
				c-0.42-0.449-0.866-0.881-1.311-1.32c-1.298-1.271-2.55-2.705-4.059-3.819C372.586,418.679,370.925,417.512,369.297,416.26z"/>
		</g>
	</g>
	<g>
		<g>
			<path fill-rule="evenodd" clip-rule="evenodd" fill="#7CA7D9" d="M176.671,670.891c-0.052,0.673-0.14,1.365-0.259,2.076
				l0.438,0.06c-0.354-4.187,0.14-9.094,0.153-13.501c0.051-16.393-0.863-35.568-0.241-53.057
				c-0.439-12.537-0.047-23.209-0.001-38.942c0.032-6.788-0.234-13.512-0.021-20.009c0.216-7.037,0.693-13.966,1.238-20.838
				c0.633-6.863,1.318-13.678,2.237-20.467c1.744-13.593,4.089-27.12,6.735-41.046c0.561-2.847,1.177-5.917,1.856-9.08
				c1.548-7.283,3.239-16.081,4.93-22.868c1.86-7.446,4.48-12.784,6.193-13.084c0.555,5.604-2.498,18.141-4.925,30.294
				c-2.044,10.224-4.452,22.433-6.553,34.596c-2.114,12.161-3.887,24.279-5.006,34.257c-0.847,7.656-1.513,15.382-1.972,23.059
				c-0.446,7.677-0.668,15.325-0.87,22.819c-0.372,15.379-0.462,30.436-0.889,45.238c-0.303,10.798-0.953,21.24-1.293,31.622
				c-0.341,10.394-0.739,20.707-1.215,31.01l-1.139-0.157L176.671,670.891z"/>
		</g>
	</g>
	<g>
		<g>
			<path fill-rule="evenodd" clip-rule="evenodd" fill="#7CA7D9" d="M222.701,474.66c-1.007-0.625-0.66-1.852-0.91-2.775
				c-0.672-2.963-2.041-6.584-1.564-9.931c-0.552-2.401-0.153-4.433-0.076-7.409c0.024-1.291-0.277-2.585-0.253-3.814
				c0.058-2.645,0.171-5.202,0.204-7.724c0.064-2.531,0.009-5.026-0.143-7.572c-0.051-0.517-0.078-1.075-0.092-1.653
				c-0.01-0.332-0.031-0.682-0.069-1.036c-0.057-0.349-0.115-0.705-0.173-1.059c-0.124-0.704-0.179-1.411-0.207-2.027
				c-0.051-1.339,1.109-2.659,2.647-3.167c0.954,0.3,1.503,1.109,1.889,2.139c0.402,1.031,0.47,2.283,0.715,3.495
				c0.157,1.02,0.25,2.143,0.359,3.319c0.043,1.165,0.093,2.387,0.084,3.592c-0.03,2.408-0.179,4.776-0.333,6.696
				c-0.227,2.958-0.434,5.901-0.803,8.686c-0.384,2.851-0.491,5.607-0.768,8.304c-0.083,0.98-0.228,1.945-0.393,2.913
				c-0.128,0.961-0.228,1.919-0.27,2.879c0.005,1.016,0.009,2.034,0.014,3.06C222.612,472.589,222.673,473.612,222.701,474.66z"/>
		</g>
	</g>
	<g>
		<g>
			<path fill-rule="evenodd" clip-rule="evenodd" fill="#7CA7D9" d="M194.149,668.648c0.407-1.599,1.258-3.172,2.168-4.781
				c0.844-1.639,1.895-3.241,2.58-4.886c2.322-5.164,4.161-11.047,5.506-17.096c1.355-6.054,2.238-12.259,2.95-18.204
				c0.034-4.298,0.119-8.253-0.079-12.479c-0.135-4.223-0.527-8.723-1.518-13.984c-0.77-4.53-2.57-8.876-2.966-13.625
				c-0.459-5.195,0.72-10.189,2.004-14.771c1.305-4.584,2.67-9.091,4.12-13.592c2.906-8.993,6.108-17.917,9.737-27.021
				c0.743-1.864,1.582-3.86,2.478-5.91c0.518-1.187,1.059-2.43,1.528-3.631c0.481-1.227,0.931-2.514,1.359-3.801
				c0.862-2.573,1.627-5.159,2.36-7.411c1.604-4.935,3.754-8.485,5.433-8.61c0.936,4.004-1.33,12.735-4.328,20.982
				c-0.318,0.862-0.681,1.78-1.041,2.651c-0.356,0.865-0.719,1.747-1.089,2.644c-0.726,1.799-1.477,3.658-2.243,5.555
				c-1.514,3.802-3.047,7.775-4.522,11.753c-2.955,7.955-5.667,15.935-7.729,22.537c-1.558,5.095-3.27,10.139-3.607,14.97
				c-0.405,4.754,1.042,9.667,1.953,14.938c0.996,5.359,1.498,10.727,1.662,16.04c0.151,5.313-0.068,10.59-0.803,15.755
				c-1.002,7.55-3.112,14.633-5.592,21.44C201.822,655.391,198.367,662.293,194.149,668.648z"/>
		</g>
	</g>
	<g>
		<g>
			<path fill-rule="evenodd" clip-rule="evenodd" fill="#7CA7D9" d="M294.879,694.872c0.919,0.942,1.787,2.047,2.627,3.249
				l0.125-0.085c-0.99-1.353-1.944-2.83-2.889-4.31c-0.94-1.484-1.795-3.02-2.716-4.421c-4.109-6.441-8.372-13.578-12.26-21.077
				c-3.894-7.493-7.422-15.33-10.221-23.017c-4.819-10.699-7.892-20.222-12.881-34.025c-2.156-5.954-4.615-11.744-6.462-17.549
				c-2.001-6.281-3.713-12.596-4.885-19.011c-1.182-6.432-1.697-12.856-2.309-19.165c-1.077-12.569-3.718-24.911-7.175-37.551
				c-0.7-2.587-1.488-5.371-2.316-8.244c-1.901-6.62-4.715-14.422-6.75-20.569c-2.217-6.744-2.988-12.213-1.725-13.411
				c3.545,3.961,7.689,15.396,11.308,26.47c3.088,9.31,6.278,20.614,8.568,32.086c1.135,5.728,2.052,11.536,2.58,17.081
				c0.543,5.529,0.896,10.724,1.417,15.336c1.445,14.108,6.116,27.876,10.594,41.135c4.609,13.629,9.24,26.84,14.173,39.676
				c3.574,9.366,7.064,18.433,11.333,27.081c3.939,7.99,8.255,15.73,13.091,23.149l-1.09,0.738
				C296.303,697.248,295.591,696.06,294.879,694.872z"/>
		</g>
	</g>
	<g>
		<g>
			<path fill-rule="evenodd" clip-rule="evenodd" fill="#7CA7D9" d="M282.649,570.178c-0.436-1.542-0.42-3.354-0.169-5.172
				c0.258-1.822,0.741-3.648,1.106-5.373c1.153-5.492,3.002-11.348,4.616-17.325c1.665-5.965,3.031-12.081,4.53-17.879
				c1.196-8.5,2.677-15.655,3.449-26.376c0.183-2.309,0.137-4.619,0.164-6.891c-0.04-2.276-0.099-4.521-0.092-6.724
				c-0.073-9.545-0.752-18.795-2.032-27.972c-0.308-2.296-0.724-4.577-1.078-6.872c-0.406-2.282-0.857-4.551-1.38-6.802
				c-1.036-4.503-2.414-8.928-4.341-13.12c-0.791-1.716-1.739-3.504-2.822-5.278c-1.261-2.048-2.879-4.073-4.735-5.927
				c-1.855-1.874-3.892-3.691-5.59-5.495c-1.873-1.966-3.234-4.126-3.813-5.938c-0.599-1.814-0.445-3.192,0.151-3.747
				c0.825,0.572,1.674,1.413,2.702,2.384c1.024,0.973,2.2,2.093,3.541,3.312c2.652,2.451,6.054,5.268,8.996,8.773
				c2.485,2.895,4.671,6.487,6.436,10.4c1.756,3.922,3.081,8.163,4.089,12.41c1.013,4.252,1.705,8.503,2.283,12.552
				c0.578,4.054,1.013,7.927,1.297,11.428c0.967,10.735,1.01,21.711,0.156,32.134c-0.961,10.675-2.474,21.055-5.038,31.031
				c-0.491,1.812-0.972,3.609-1.511,5.377c-0.571,1.756-1.139,3.502-1.704,5.24c-1.234,3.437-2.469,6.84-3.727,10.171
				C285.515,555.618,282.94,562.688,282.649,570.178z"/>
		</g>
	</g>
	<g>
		<g>
			<path fill-rule="evenodd" clip-rule="evenodd" fill="#7CA7D9" d="M283.558,571.891c1.94,1.015,3.059,3.543,4.04,5.597
				c3.448,6.464,6.211,14.936,6.993,22.796c1.467,5.498,1.674,10.349,3.234,17.176c0.699,2.965,1.782,5.8,2.543,8.596
				c1.651,6.06,3.398,11.898,5.296,17.698c1.919,5.776,3.902,11.625,6.295,17.342c0.501,1.166,1.025,2.426,1.607,3.699
				c1.311,2.961,3.401,6.175,5.027,8.618c0.868,1.368,1.507,2.667,1.815,3.853c0.326,1.16,0.332,2.201-0.113,2.899
				c-1.477-0.212-3.313-1.491-5.027-3.434c-1.728-1.934-3.318-4.484-4.737-7.015c-2.422-4.259-4.552-9.644-6.378-14.956
				c-1.855-5.311-3.495-10.654-4.76-15.062c-1.944-6.761-3.765-13.672-5.063-20.378c-1.397-6.98-2.15-13.762-2.974-20.304
				c-0.592-4.774-0.949-9.423-2.059-13.874C288.141,580.394,286.413,575.834,283.558,571.891z"/>
		</g>
	</g>
	<g>
		<g>
			<path fill-rule="evenodd" clip-rule="evenodd" fill="#7CA7D9" d="M323.211,680.54c0.367,0.945-0.557,1.198-0.891,1.741
				c-1.099,1.69-1.875,4.301-3.79,5.562c-0.377,0.76-0.863,1.341-1.462,1.865c-0.582,0.546-1.257,1.058-2.012,1.735
				c-0.633,0.606-1.116,1.424-1.756,1.991c-2.843,2.33-5.882,4.124-9.342,5.603c-0.357,0.144-0.753,0.273-1.165,0.394
				c-0.941,0.291-2.038,0.809-2.984,0.87c-1.055,0.033-2.082-1.153-2.476-2.712c0.286-1.869,1.797-1.976,3.164-2.564
				c0.569-0.248,1.189-0.526,1.843-0.783c0.645-0.285,1.314-0.581,1.98-0.875c1.321-0.616,2.618-1.255,3.649-1.845
				c1.603-0.874,3.066-2.005,4.569-2.938c1.538-0.979,2.83-2.19,4.259-3.229c0.508-0.393,1.068-0.726,1.639-1.054
				c0.551-0.345,1.101-0.697,1.599-1.097c0.514-0.443,1.028-0.89,1.57-1.322C322.124,681.43,322.653,680.981,323.211,680.54z"/>
		</g>
	</g>
	<g>
		<g>
			<path fill-rule="evenodd" clip-rule="evenodd" fill="#7CA7D9" d="M194.823,670.516c0.174,0.877-0.486,0.557-0.755,0.762
				c-0.462,0.295-0.872,0.858-1.394,1.297c-0.506,0.465-1.117,0.809-1.769,0.744c-0.378,0.378-0.786,0.55-1.234,0.617
				c-0.447,0.091-0.928,0.103-1.501,0.206c-0.491,0.112-0.998,0.499-1.501,0.581c-2.154,0.231-4.273-0.054-6.423-0.831
				c-0.218-0.087-0.441-0.206-0.665-0.341c-0.515-0.296-1.248-0.513-1.619-0.982c-0.4-0.551,0.1-1.909,1.091-3.175
				c1.381-1.163,1.785-0.573,2.491-0.352c0.29,0.086,0.607,0.177,0.917,0.299c0.323,0.103,0.654,0.209,0.984,0.315
				c0.667,0.194,1.333,0.374,1.894,0.465c0.86,0.172,1.746,0.098,2.587,0.228c0.878,0.116,1.707-0.063,2.581-0.007
				c0.316,0.004,0.654,0.087,1.008,0.177c0.345,0.069,0.701,0.131,1.04,0.125c0.353-0.026,0.713-0.055,1.097-0.061
				C194.022,670.551,194.408,670.526,194.823,670.516z"/>
		</g>
	</g>
	<g>
		<g>
			<path fill="#93FFD7" d="M263.551,74.267c1.456-6.553,0.863-9.048,0.788-12.001c-0.257-10.197-0.514-20.395-0.771-30.592
				c-0.071-2.823-0.045-5.933,1.803-8.068c1.008-1.165,2.892-1.858,4.073-0.868c0.431,0.361,0.69,0.884,0.91,1.402
				c1.87,4.393,1.785,9.326,2.181,14.084c0.261,3.137,0.745,6.256,1.446,9.326"/>
			<g>
				<path fill-rule="evenodd" clip-rule="evenodd" fill="#93FFD7" d="M274.477,47.436c-1.155-1.216-0.921-3.164-1.207-4.751
					c-0.48-2.532-1.018-5.316-1.438-8.148c-0.439-2.832-0.869-5.63-1.441-8.234c-0.206-0.437-0.415-0.858-0.626-1.266
					c-0.106-0.203-0.21-0.405-0.314-0.605c-0.112-0.205-0.168-0.28-0.264-0.415c-0.326-0.504-0.951-0.729-1.516-0.585
					c-0.51,0.107-1.225,0.518-1.693,1.216c-0.507,0.714-0.866,1.628-1.015,2.734c-0.267,1.92,0.319,3.966,0.442,6.029
					c0.603,8.845,1.027,17.185,1.458,26.111c0.045,0.904,0.064,1.922,0.075,2.898c0.014,1.05,0.186,2.397,0.229,3.796
					c0.043,1.399-0.04,2.795-0.276,3.962c-0.526,2.587-2.337,4.11-3.935,3.955c-0.685-1.008-0.765-2.447-0.736-4.078
					c0.04-1.644,0.139-3.412-0.064-5.275c-0.077-0.779-0.176-1.693-0.222-2.645c-0.045-0.894-0.091-1.817-0.139-2.759
					c-0.075-1.886-0.154-3.848-0.232-5.803c-0.118-3.912-0.235-7.796-0.331-10.984c-0.079-2.446-0.159-4.909-0.238-7.354
					c-0.031-1.225-0.063-2.445-0.094-3.656c-0.023-1.243-0.011-2.575,0.182-3.966c0.21-1.423,0.597-2.973,1.474-4.428
					c0.226-0.358,0.464-0.709,0.741-1.036c0.253-0.328,0.656-0.725,1.018-1.005c0.376-0.3,0.78-0.552,1.218-0.764
					c0.517-0.253,1.073-0.435,1.635-0.527c1.123-0.198,2.29-0.009,3.249,0.56c0.965,0.553,1.662,1.54,2.076,2.539
					c0.525,1.282,0.883,2.536,1.124,3.807c0.685,3.711,0.215,7.117,0.246,10.355C273.875,40.563,274.083,43.987,274.477,47.436z"/>
			</g>
		</g>
		<g>
			<path fill="#93FFD7" d="M272.842,45.696c2.829-3.614,19.448-25.442,17.114-9.218c-1.917,13.329-15.676,30.866-26.704,38.241
				c-0.804,0.889,0.797-0.83,0.607-0.58"/>
			<g>
				<path fill-rule="evenodd" clip-rule="evenodd" fill="#93FFD7" d="M264.265,74.447l0.058-0.122
					c0.066-0.122,0.053-0.349-0.026-0.461c-0.031-0.051-0.071-0.108-0.176-0.171c-0.099-0.063-0.265-0.084-0.376-0.048
					c-0.26,0.112-0.131,0.073-0.171,0.088l-0.014,0.016c-0.039,0.044-0.033,0.053-0.046,0.077l-0.039,0.108
					c-0.025,0.069-0.049,0.136-0.073,0.2c-0.051,0.13-0.11,0.255-0.176,0.375c-0.066,0.12-0.139,0.237-0.219,0.347l-0.029,0.04
					l-0.004,0.007c0.007,0.01-0.015-0.021,0.017,0.022l0.029,0.042c0,0-0.012-0.016,0.021-0.007
					c0.018,0.032,0.006,0.027,0.012,0.033c0.046,0.032,0.054,0.036,0.047,0.031l0.009-0.016l0.058-0.084l0.127-0.166l-0.01,0.009
					c0.794-0.658,1.866-1.07,2.641-1.741c1.942-1.586,3.717-3.667,5.479-5.756c1.718-2.14,3.45-4.276,5.246-6.214
					c1.884-3.313,4.028-5.717,6.288-9.856c0.966-1.788,1.507-3.754,2.224-5.51c1.542-3.801,2.608-7.681,2.734-11.361l0.006-0.332
					l0.002-0.152l-0.008-0.05l-0.031-0.192c-0.024-0.065-0.051-0.122-0.092-0.165c-0.087-0.1-0.244-0.032-0.312,0.036l-0.055,0.053
					l-0.35,0.254c-0.332,0.263-0.699,0.55-1.052,0.87c-0.712,0.632-1.425,1.328-2.126,2.073c-0.584,0.611-1.211,1.268-1.861,1.949
					c-1.507,1.588-3.047,3.771-4.501,5.281c-1.594,1.649-3.759,2.2-5.155,1.366c-0.396-2.354,2.212-5.364,4.626-8.37
					c1.017-1.268,2.182-2.629,3.507-4c0.661-0.686,1.372-1.371,2.142-2.047c0.39-0.336,0.789-0.672,1.229-0.997l0.337-0.252
					l0.431-0.287c0.287-0.189,0.554-0.364,1.007-0.57c1.611-0.869,3.385-1.079,4.828-0.267l0.498,0.352
					c0.148,0.135,0.278,0.288,0.418,0.43c0.308,0.261,0.462,0.654,0.673,0.995c0.242,0.322,0.278,0.785,0.412,1.177
					c0.054,0.204,0.117,0.407,0.164,0.61l0.048,0.613c0.03,0.404,0.061,0.805,0.091,1.203c-0.011,0.257-0.022,0.513-0.033,0.766
					c-0.013,0.518-0.07,0.986-0.124,1.446c-0.076,0.934-0.302,1.785-0.443,2.616l-0.188,0.949l-0.255,0.918l-0.513,1.838
					c-0.435,1.174-0.808,2.388-1.309,3.521c-0.498,1.134-0.97,2.282-1.553,3.347c-0.282,0.539-0.563,1.076-0.843,1.611
					c-0.297,0.523-0.611,1.031-0.918,1.539c-2.537,4.15-5.244,8.021-8.388,11.429c-2.312,2.47-4.906,4.502-7.402,6.542
					c-2.264,1.822-4.636,3.49-7.174,4.854l0.127-0.11l-0.145,0.13l-0.067,0.06l-0.011,0.009c0.054,0.055-0.149-0.144-0.264-0.226
					l-0.205-0.148c-0.034-0.002,0.012-0.031-0.045-0.043c0.001,0.019-0.008-0.006-0.019-0.019l-0.063-0.083
					c-0.044-0.054-0.092-0.104-0.145-0.15c-0.017-0.004-0.226-0.237-0.201-0.208l0.003-0.002l0.014-0.01l0.299-0.247l0.308-0.256
					l0.159-0.13l0.087-0.07l0.066-0.053l0.038-0.028c-0.031,0.023,0.095-0.08,0.224-0.093c0.143-0.029,0.32,0.031,0.403,0.105
					c0.144,0.119,0.203,0.261,0.187,0.473c-0.009,0.087-0.058,0.182-0.075,0.205L264.3,74.4l-0.011,0.016L264.265,74.447z"/>
			</g>
		</g>
	</g>
	<g>
		<g>
			<path fill-rule="evenodd" clip-rule="evenodd" fill="#7CA7D9" d="M173.539,103.784c-0.778,0.579-1.089-0.247-1.538-0.493
				c-0.753-0.39-1.688-0.73-2.568-1.245c-0.877-0.509-1.682-1.176-2.095-2.054c-1.305-0.727-1.729-1.867-2.774-3.172
				c-0.445-0.568-1.188-0.936-1.625-1.472c-1.895-2.321-3.561-4.591-5.327-7.034c-0.181-0.25-0.353-0.534-0.52-0.834
				c-0.384-0.691-1.082-1.38-1.313-2.108c-0.255-0.799,0.608-2.035,1.95-2.923c1.807-0.428,2.333,0.84,3.165,1.863
				c1.4,1.721,3.016,4.309,4.157,6.102c0.875,1.375,1.842,2.719,2.573,4.129c0.759,1.451,1.639,2.663,2.332,3.931
				c0.506,0.913,0.782,1.996,1.388,2.818C171.987,102.157,172.686,102.981,173.539,103.784z"/>
		</g>
	</g>
	<g>
		<g>
			<path fill-rule="evenodd" clip-rule="evenodd" fill="#7CA7D9" d="M181.487,99.044c-0.924,0.008-0.565-0.679-0.773-1.041
				c-0.633-1.156-2.245-2.323-2.231-3.864c-0.843-0.869-0.785-1.82-1.175-3.096c-0.183-0.55-0.67-1.059-0.838-1.602
				c-0.651-2.357-0.92-4.68-0.937-7.179c0.003-0.256,0.033-0.53,0.077-0.812c0.094-0.646-0.011-1.461,0.264-2.043
				c0.322-0.642,1.77-0.876,3.357-0.612c1.651,0.759,1.258,1.667,1.308,2.635c0.046,0.807,0.038,1.754,0.044,2.693
				c0.013,0.939,0.026,1.87,0.079,2.633c0.06,1.174,0.319,2.337,0.364,3.479c0.057,1.177,0.369,2.275,0.432,3.426
				c0.06,0.835-0.195,1.762-0.121,2.605C181.42,97.161,181.477,98.075,181.487,99.044z"/>
		</g>
	</g>
	<g>
		<g>
			<path fill-rule="evenodd" clip-rule="evenodd" fill="#7CA7D9" d="M194.234,93.113c-0.83-0.505-0.203-1.1-0.227-1.637
				c-0.052-1.703-0.992-3.859-0.312-5.653c-0.389-1.41,0.075-2.497,0.263-4.172c0.068-0.727-0.166-1.523-0.092-2.227
				c0.391-3.029,1.095-5.843,2.078-8.783c0.104-0.3,0.242-0.613,0.397-0.931c0.348-0.733,0.564-1.715,1.059-2.328
				c0.56-0.669,2.074-0.604,3.535,0.072c1.32,1.297,0.543,2.35,0.18,3.568c-0.301,1.02-0.718,2.206-1.121,3.386
				c-0.397,1.182-0.791,2.354-1.077,3.328c-0.457,1.491-0.732,3.048-1.195,4.491c-0.466,1.487-0.669,2.987-1.121,4.431
				c-0.317,1.054-0.957,2.05-1.264,3.095C195.015,90.867,194.658,91.98,194.234,93.113z"/>
		</g>
	</g>
	<g>
		<g>
			<path fill-rule="evenodd" clip-rule="evenodd" fill="#7CA7D9" d="M302.389,466.584c-0.969,1.124-2.66,0.698-3.967,0.685
				c-2.138,0-4.533-0.217-6.887-0.945c-2.351-0.715-4.609-1.962-6.318-3.611c-3.017-1.704-4.853-4.044-7.691-7.128
				c-1.228-1.337-2.698-2.461-3.83-3.79c-4.9-5.746-8.956-11.667-12.683-18.353c-0.374-0.689-0.758-1.442-1.134-2.231
				c-0.847-1.822-2.093-3.918-2.66-5.737c-0.649-1.989,0.079-3.963,1.499-4.71c2.163,0.654,3.226,3.829,4.78,6.675
				c1.289,2.394,2.84,5.24,4.479,8.008c1.632,2.771,3.351,5.464,4.834,7.624c2.263,3.326,4.812,6.508,7.216,9.578
				c2.469,3.173,5.083,5.947,7.833,8.321c1.995,1.731,3.987,3.414,6.4,4.374C296.809,466.35,299.562,466.873,302.389,466.584z"/>
		</g>
	</g>
	<g>
		<g>
			<path fill-rule="evenodd" clip-rule="evenodd" fill="#7CA7D9" d="M187.372,462.485c-0.049-1.16,1.067-1.433,1.652-2.091
				c1.826-2.133,3.042-5.311,5.128-7.383c0.39-1.023,0.916-1.835,1.474-2.708c0.58-0.857,1.216-1.758,1.844-2.912
				c0.566-0.983,0.733-2.184,1.22-3.137c1.984-4.207,3.647-8.233,5.061-12.645c0.136-0.455,0.309-0.935,0.501-1.428
				c0.454-1.132,0.645-2.604,1.158-3.642c0.528-1.145,2.122-1.715,3.713-1.433c1.467,1.319,0.663,3.45,0.148,5.547
				c-0.218,0.885-0.511,1.841-0.816,2.839c-0.338,0.985-0.699,2.01-1.092,3.018c-0.802,2.009-1.693,3.966-2.484,5.543
				c-1.18,2.435-2.483,4.863-3.974,7.028c-1.543,2.207-3.024,4.379-4.773,6.291c-0.651,0.685-1.368,1.294-2.075,1.891
				c-0.727,0.581-1.456,1.139-2.118,1.746c-0.724,0.634-1.471,1.238-2.219,1.83C188.949,461.41,188.164,461.956,187.372,462.485z"/>
		</g>
	</g>
	<g>
		<g>
			<path fill-rule="evenodd" clip-rule="evenodd" fill="#7CA7D9" d="M314.853,672.433c0.299,0.975-0.633,1.14-1.013,1.641
				c-1.214,1.593-2.064,4.111-3.934,5.318c-0.727,1.506-1.904,2.203-3.306,3.599c-0.61,0.598-1.002,1.471-1.626,2.038
				c-2.7,2.472-5.778,4.362-9.476,5.574c-0.376,0.132-0.802,0.215-1.239,0.298c-1.006,0.174-2.22,0.569-3.215,0.446
				c-1.108-0.139-1.878-1.56-1.89-3.161c0.678-1.745,2.022-1.534,3.36-1.942c1.103-0.326,2.404-0.743,3.672-1.259
				c1.265-0.522,2.493-1.138,3.467-1.712c1.501-0.874,2.853-2.005,4.307-3.034c1.487-1.045,2.782-2.295,4.223-3.35
				c1.05-0.771,2.309-1.293,3.328-2.059C312.598,674.011,313.705,673.221,314.853,672.433z"/>
		</g>
	</g>
	<g>
		<g>
			<path fill-rule="evenodd" clip-rule="evenodd" fill="#7CA7D9" d="M203.41,654.639c0.038,0.97-0.829,0.79-1.272,1.112
				c-1.431,0.968-2.957,2.888-4.969,3.085c-0.579,0.482-1.184,0.76-1.861,0.927c-0.339,0.085-0.688,0.172-1.06,0.264
				c-0.376,0.072-0.774,0.155-1.204,0.272c-0.736,0.22-1.449,0.689-2.183,0.868c-1.591,0.292-3.176,0.483-4.773,0.47
				c-1.6,0.03-3.206-0.139-4.862-0.4c-0.337-0.066-0.694-0.164-1.059-0.278c-0.84-0.246-1.917-0.399-2.635-0.852
				c-0.785-0.54-0.852-2.066-0.25-3.557c1.236-1.393,2.294-0.706,3.534-0.498c0.515,0.083,1.08,0.162,1.656,0.28
				c0.585,0.085,1.191,0.173,1.794,0.26c1.212,0.142,2.42,0.248,3.415,0.255c1.531,0.054,3.062-0.202,4.543-0.266
				c1.53-0.09,2.955-0.51,4.428-0.722c0.532-0.098,1.086-0.121,1.652-0.135c0.554-0.04,1.113-0.09,1.648-0.205
				c0.56-0.147,1.121-0.3,1.706-0.429C202.225,654.931,202.805,654.776,203.41,654.639z"/>
		</g>
	</g>
	<g>
		<g>
			<path fill-rule="evenodd" clip-rule="evenodd" fill="#7CA7D9" d="M197.101,672.885c-0.489,1.461-1.279,2.908-2.069,4.431
				c-0.786,1.519-1.574,3.112-2.061,4.696c-0.8,2.514-1.194,5.229-1.622,7.988c-0.441,2.753-0.904,5.621-2.139,8.33
				c-0.616,1.346-1.443,2.636-2.506,3.729c-1.048,1.115-2.341,1.974-3.677,2.65c-2.705,1.336-5.567,1.956-8.289,2.534
				c-7.66,2.467-14.439,3.605-24.37,5.304c-4.288,0.725-8.503,1.68-12.635,2.191c-2.248,0.268-4.423,0.543-6.736,0.71
				c-0.576,0.04-1.162,0.063-1.751,0.073c-0.62,0.005-1.123,0.007-1.858-0.045c-1.919-0.132-3.779-0.573-5.242-1.233
				c-0.744-0.323-1.468-0.662-2.245-1.029l-0.592-0.284l-0.148-0.071c-0.056-0.023-0.115-0.045-0.045-0.088l0.218-0.225l0.874-0.905
				c1.182-1.211,2.31-2.424,3.562-3.666c0.36-0.328,0.736-0.618,1.111-0.913l0.666-0.532l1.311-1.047
				c0.863-0.719,1.789-1.324,2.682-1.992c7.218-5.219,14.957-9.419,22.43-14.247c1.527-0.992,3.17-2.052,4.832-3.184
				c3.859-2.582,7.987-6.227,10.935-9.248c0.441-0.387,0.826-0.793,1.212-1.174c0.389-0.378,0.779-0.729,1.167-1.054
				c0.386-0.326,0.775-0.621,1.148-0.895c0.344-0.294,0.684-0.56,1.016-0.794c1.329-0.934,2.543-1.386,3.352-1.146
				c-0.111,0.945-0.515,2.102-1.134,3.416c-0.287,0.674-0.721,1.313-1.182,1.994c-0.462,0.681-0.971,1.389-1.515,2.119
				c-2.329,2.767-5.378,5.698-8.602,8.181c-5.335,4.346-12.316,8.455-19.073,12.507c-3.377,2.026-6.706,4.052-9.766,6.098
				c-1.527,1.026-2.983,2.061-4.368,3.076c-0.675,0.524-1.338,1.039-1.985,1.542l-0.17,0.133l-0.019,0.019
				c-0.072,0.043,0.023,0.057,0.06,0.048l0.013-0.003l0.733,0.031c0.551,0.013,1.113,0.009,1.687-0.014
				c1.146-0.042,2.334-0.147,3.557-0.263c4.875-0.447,9.702-1.006,14.415-1.624c9.668-1.257,18.998-3.194,28.128-5.275
				c3.267-0.748,6.279-1.557,8.448-3.363c2.195-1.798,3.554-4.665,4.414-7.744c0.936-3.297,1.517-6.851,2.741-10.28
				C193.223,678.941,194.917,675.717,197.101,672.885z"/>
		</g>
	</g>
	<g>
		<g>
			<path fill-rule="evenodd" clip-rule="evenodd" fill="#7CA7D9" d="M322.764,687.708c2.49,1.144,4.529,3.849,6.718,5.81
				c1.74,1.559,3.595,3.139,5.508,4.742c0.475,0.404,0.971,0.789,1.427,1.246c0.444,0.445,0.895,1.02,1.053,1.701
				c0.174,0.683-0.015,1.419-0.401,2.027c-0.386,0.614-0.838,1.078-1.274,1.552c-3.472,3.827-7.3,7.462-11.33,10.442
				c-5.243,4.943-10.402,8.313-17.909,13.275c-3.255,2.12-6.332,4.459-9.516,6.372c-3.451,2.063-6.888,4.026-10.335,5.924
				c-1.787,0.969-3.666,1.887-5.783,2.501c-1.06,0.3-2.184,0.522-3.38,0.572c-0.945,0.097-3.115-0.167-4.562-0.895l-2.158-1.231
				l-0.137-0.08c-0.034-0.031-0.126-0.041-0.08-0.1l0.101-0.293l0.203-0.587l0.407-1.178l0.819-2.373
				c0.146-0.469,0.255-0.635,0.374-0.871l0.353-0.689c0.472-0.919,0.932-1.852,1.487-2.712c0.536-0.875,1.052-1.774,1.647-2.598
				c2.288-3.395,4.883-6.516,7.479-9.609c1.067-1.246,2.217-2.588,3.407-3.977c2.751-3.159,5.498-7.207,7.361-10.401
				c0.502-0.882,1.089-1.663,1.546-2.404c0.473-0.735,1.064-1.354,1.5-1.915c0.921-1.104,1.909-1.799,2.746-1.803
				c0.208,0.848,0.212,1.968,0.056,3.286c-0.133,0.636-0.31,1.319-0.522,2.039c-0.109,0.358-0.213,0.734-0.35,1.102
				c-0.155,0.361-0.314,0.729-0.475,1.105c-1.289,3.032-3.42,6.186-5.61,9.067c-3.638,4.912-8.579,10.084-12.51,15.605
				c-1.001,1.373-1.873,2.794-2.71,4.203c-0.38,0.719-0.757,1.433-1.131,2.141l-0.07,0.132l-0.005,0.013l-0.008,0.02l-0.015,0.039
				l-0.029,0.075c-0.039,0.067,0.025,0.04,0.034,0.057l0.032,0.005c0.022,0.003-0.031-0.005,0.074,0.002
				c0.135,0.013,0.269,0.026,0.414,0.016c1.128,0.008,2.375-0.292,3.558-0.708c1.837-0.638,3.645-1.623,5.62-2.69
				c1.942-1.035,3.865-2.1,5.776-3.167c3.823-2.133,7.572-4.315,11.203-6.498c7.457-4.468,14.363-9.369,20.906-14.501
				c2.403-1.853,4.734-3.718,7.021-5.603c1.147-0.939,2.242-1.924,3.357-2.887c0.275-0.242,0.504-0.455,0.689-0.653
				c0.15-0.161,0.229-0.247,0.311-0.406c0.157-0.295,0.12-0.67-0.053-0.971c-0.062-0.133-0.296-0.444-0.507-0.676
				c-0.222-0.251-0.492-0.514-0.776-0.799l-1.671-1.675l-3.32-3.359C327.12,692.231,324.934,689.977,322.764,687.708z"/>
		</g>
	</g>
	<g>
		<g>
			<path fill-rule="evenodd" clip-rule="evenodd" fill="#7CA7D9" d="M247.575,198.753c0.182,0.717,0.294,1.183,0.475,1.732
				c0.179,0.528,0.487,1.098,0.986,1.397c0.794,0.468,1.745,0.512,2.633,0.389c0.894-0.123,1.79-0.396,2.685-0.629
				c1.791-0.5,3.536-1.078,5.286-1.393c2.223-1.322,4.304-1.842,6.976-3.531c1.138-0.748,2.009-1.838,2.976-2.65
				c0.515-0.457,1.032-0.897,1.514-1.371c0.502-0.466,0.971-0.932,1.243-1.311c0.064-0.086,0.145-0.21,0.161-0.25
				c0.017-0.036,0.027-0.074,0.036-0.11c0.018-0.073,0.022-0.145,0.014-0.212c-0.017-0.133-0.087-0.249-0.193-0.302
				c-0.053-0.026-0.11-0.036-0.163-0.037l-0.077,0.003c-0.039,0.001,0.012,0.014-0.207-0.013c-0.636-0.077-1.274-0.134-1.917-0.161
				c-1.285-0.056-2.585-0.008-3.889,0.149c-0.536,0.063-1.109,0.13-1.705,0.201c-1.38,0.171-2.929,0.789-4.2,1.055
				c-1.384,0.266-2.955-0.487-3.817-1.866c0.238-2.099,3.084-3.058,5.76-3.758c2.262-0.633,5.096-0.954,7.904-0.78
				c0.702,0.037,1.401,0.112,2.089,0.209l0.514,0.077l0.256,0.039l0.419,0.079c0.597,0.124,1.173,0.309,1.685,0.58
				c1.025,0.535,1.787,1.435,2.147,2.447c0.373,1.009,0.383,2.1,0.135,3.078c-0.184,0.749-0.555,1.477-1.007,2.107
				c-0.366,0.509-0.74,0.906-1.099,1.259c-0.713,0.683-1.319,1.18-2.003,1.741c-1.338,1.082-2.761,2.038-4.229,2.827
				c-2.999,1.619-6.07,2.97-9.279,3.612c-2.344,0.469-4.677,0.361-6.919,0.331c-1.209-0.021-2.679-0.122-3.948-0.992
				c-0.643-0.454-1.099-1.064-1.354-1.76C247.206,200.25,247.2,199.405,247.575,198.753z"/>
		</g>
	</g>
	<path fill="#7DA7D7" d="M152.168,685.669c8.35,2.177,15.27,9.138,17.397,17.501c7.321-2.014,14.798-3.458,22.342-4.313
		c0.766,1.705-0.136,3.789-1.593,4.961s-3.337,1.646-5.154,2.089c-6.084,1.483-12.168,2.967-18.252,4.45
		c-13.914,3.392-28.199,6.81-42.415,5.073c-0.804-0.098-1.642-0.227-2.3-0.7c-2.115-1.523-0.782-4.859,0.826-6.91
		c9.109-11.621,22.355-19.93,36.783-23.072"/>
	<path fill="#7DA7D7" d="M286.31,710.413c-7.243,7.548-12.904,16.607-16.514,26.426c-0.475,1.293-0.913,2.749-0.363,4.012
		c0.486,1.117,1.644,1.801,2.813,2.143c3.827,1.12,7.842-0.677,11.394-2.488c18.934-9.651,37.018-20.987,53.85-33.96
		c0.811-0.625,1.683-1.36,1.811-2.376c0.084-0.662-0.174-1.321-0.506-1.9c-2.212-3.857-7.624-4.893-11.8-3.365
		c-4.176,1.528-7.325,4.985-10.027,8.517c-2.702,3.532-5.198,7.327-8.736,10.021c-8.462-5.787-20.015-6.721-29.296-2.368"/>
</g>
</svg>
