<?xml version="1.0" encoding="utf-8"?>
<!-- Generator: Adobe Illustrator 21.1.0, SVG Export Plug-In . SVG Version: 6.00 Build 0)  -->
<svg version="1.1" id="Layer_1" xmlns="http://www.w3.org/2000/svg" xmlns:xlink="http://www.w3.org/1999/xlink" x="0px" y="0px"
	 viewBox="0 0 188 87" style="enable-background:new 0 0 188 87;" xml:space="preserve">
<style type="text/css">
	.st0{fill:#00C6AD;}
</style>
<g>
	<path class="st0" d="M176.9,3c-27.7,0-55.3,0-83,0C66.3,3,38.7,3,11,3c-6.9,0-8,1.1-8,8.2c0,22.2,0,44.3,0,66.5
		c0,6,1.4,7.4,7.3,7.4c55.8,0,111.6,0,167.4,0c5.9,0,7.2-1.4,7.3-7.4c0-22.2,0-44.3,0-66.5C185,4.1,183.9,3,176.9,3z M181.8,76.1
		c0,4.5-1.5,5.7-5.8,5.7c-27.5-0.2-55-0.1-82.5-0.1c-27,0-54-0.1-81,0.1c-4.7,0-6.4-1.3-6.3-6.2c0.2-21.2,0.2-42.3,0-63.5
		c0-4.7,1.5-5.9,6.1-5.9c54.5,0.1,109,0.1,163.5,0c4.5,0,6.1,1.2,6.1,5.9C181.6,33.5,181.6,54.8,181.8,76.1z"/>
	<path class="st0" d="M20.5,66.9c-5.4,2.8-0.4,3.9,0.1,5.7c0.7,2.5-1.2,3.3-2.9,4.5c-2.1,1.6-3.9-0.5-3.9-1.1c-0.2-1.5,4-2.3,0.6-5
		c-2.9-2.4-0.4-3.9,1.9-5.5C18.9,63.7,18.6,66.5,20.5,66.9z"/>
	<path class="st0" d="M175.1,73.2c0.1,2.4-1.7,2.9-2.9,4c-1.6,1.4-2.3-0.3-3.4-0.8c-0.4-0.2-0.7-0.6-1.1-0.9
		c5.4-2.2-0.2-4.6,0.1-6.9c0.2-1.8,1.6-2.4,2.9-3.1c0.8-0.5,1.6-1.5,2.4,0c0.4,0.8,2.6,1.1,0.7,2.4C169.5,71,177,71.2,175.1,73.2z"
		/>
	<path class="st0" d="M170.8,19c0.1-1.6-1.5-2-2.3-3c-0.9-1.2-1-2.6,0-3.6c1-1,2.4-1.7,3.7-2.1c0.4-0.1,1.3,0.9,1.9,1.4
		c-4.2,3.1,3.6,6.3-0.1,9.3C172.2,21.5,171.5,20.2,170.8,19z"/>
	<path class="st0" d="M18.2,15.9c2.4,1.7,2.8,3.6,0.6,5.7c-2.4,2.3-4,1-5.6-1.2c1.5-1,6-1.1,1-3.9c-2.3-1.3-1.6-3.3,0.5-4.7
		C18.1,11.3,16.5,15.1,18.2,15.9z"/>
	<path class="st0" d="M170.8,19c1.6-0.2,2.1,1.3,3.2,2c-2.4,3.1-4.5,2-6.5-0.3C168.2,18.9,170.1,20.2,170.8,19z"/>
	<path class="st0" d="M18.2,15.9c-1.2-1.4-2.3-2.7-3.5-4.1c1.3-0.7,2.1-2.4,4.1-0.9c2.8,2.1-1.4,2.2-0.8,3.6
		C18.2,14.9,18.2,15.5,18.2,15.9z"/>
	<path class="st0" d="M178.9,33.6c0-2.5-0.8-3.3-3.4-3.6c-8.9-1-14.3-6-15.7-14.8c-0.5-3.3-1.8-4.2-5.1-4.2
		c-40.5,0.1-80.9,0.1-121.4,0c-3.2,0-4.6,0.7-5.2,4.1c-1.4,8.8-6.8,14-15.6,14.8c-3,0.3-3.5,1.5-3.4,4.1c0.1,6.7,0.2,13.3,0,20
		c-0.1,2.9,0.7,3.9,3.8,4.2c8.3,1,14.1,6.4,15.1,14.2c0.5,3.9,2.1,4.7,5.7,4.7c20-0.2,40-0.1,59.9-0.1c20.3,0,40.6-0.1,60.9,0.1
		c3.1,0,4.7-0.5,5.2-4.1c1.2-8.6,6.6-13.7,15.6-14.9c2.5-0.3,3.4-1,3.4-3.6C178.7,47.6,178.7,40.6,178.9,33.6z M166.7,57.6
		c-5.4,1.2-8.6,6.7-9.9,12.3c-0.7,3.2-2.3,4-5.5,4c-19.2-0.2-38.3-0.1-57.5-0.1c-19,0-38-0.1-57,0.1c-3.2,0-5-0.5-5.9-4.1
		c-1.8-7.6-7.1-12.5-14.5-14.3c-3.3-0.8-4-2.2-3.7-5.1c0.2-1.7,0.1-3.3,0-5c-0.3-6.6-1.1-12.8,8.4-14.7c5.2-1,8.4-6.4,9.8-11.8
		c0.8-3,2-4.2,5.3-4.2c38.5,0.1,76.9,0.1,115.4,0c2.6,0,4.2,0.4,5,3.3c2,7.9,7.3,12.9,15.2,14.9c2.5,0.6,3.4,1.7,3.2,4.1
		c-0.1,1.8-0.1,3.7,0,5.5C175.6,49.4,176.1,55.5,166.7,57.6z"/>
	<path class="st0" d="M134.8,19.8c3.5,0,7,0,10.5,0c1,0,2.2,0.1,2.1,1.4c0,1.2-1.1,1.5-2.2,1.5c-7.1,0-14.3,0-21.4,0
		c-1,0-2-0.4-1.9-1.7c0.1-1.1,1.1-1.2,1.9-1.2C127.5,19.8,131.2,19.8,134.8,19.8z"/>
	<path class="st0" d="M53.3,65c-3.3,0-6.7,0-10,0c-1.1,0-2.6,0.2-2.7-1.4C40.4,61.7,42,62,43.1,62c6.8,0,13.7,0,20.5,0
		c1.1,0,2.6-0.3,2.5,1.5c-0.1,1.7-1.6,1.4-2.7,1.4C60,65,56.7,65,53.3,65z"/>
	<path class="st0" d="M53.1,22.8c-3.3,0-6.6,0-10,0c-1.2,0-2.5-0.1-2.5-1.7c0-1.4,1.3-1.3,2.2-1.3c7,0,13.9,0,20.9,0
		c1,0,2.2-0.1,2.3,1.3c0.1,1.7-1.3,1.7-2.5,1.7C60.1,22.8,56.6,22.8,53.1,22.8z"/>
	<path class="st0" d="M127.1,27.4c-1.6-0.7-4.7,1-4.7-1.6c0-2,3-1,4.6-1c1.6,0,4.5-1,4.5,1.1C131.6,28.2,128.7,26.7,127.1,27.4z"/>
	<path class="st0" d="M101.1,20.8c-3-1.1-6-1.7-9.3-1.2c-11.5,1.8-19.8,12-19.7,25.7c0.3,3.9,1.3,8.8,4.1,13
		c4.8,7.1,11.2,11.4,20.2,10.1c10.7-1.5,18.2-10.3,19.4-22.2C116.9,35.6,110.5,24.3,101.1,20.8z M104.3,61.4
		c-3.1,2.5-6.6,3.9-10.6,3.7c-8.1-0.4-13.4-5-16.2-12.1c-3.4-8.9-2.4-17.4,4.4-24.6c4.9-5.2,10.9-6.8,17.7-4.4
		c7.6,2.7,12.5,10.6,12.5,19.8C112.3,50.9,109.8,56.8,104.3,61.4z"/>
	<path class="st0" d="M45.6,31c-7.4-0.1-13.5,5.7-13.5,13c0,7.1,5.8,12.9,13,13c7.4,0.1,13.5-5.8,13.5-13C58.6,37,52.7,31.1,45.6,31
		z M45.4,53.7c-5.5,0-9.7-4.4-9.6-10c0.1-5.3,4.5-9.5,9.7-9.4c5,0.1,9.5,4.7,9.5,9.8C55,49.1,50.4,53.7,45.4,53.7z"/>
	<path class="st0" d="M142.9,31c-7.4-0.1-13.5,5.9-13.5,13.1c0,7,6,12.9,13.1,13c7.4,0.1,13.5-5.8,13.4-13.1
		C155.9,36.9,150,31,142.9,31z M142,53.6c-5.1-0.4-9.3-5-9.1-10.1c0.3-5.1,5-9.4,10-9.2c5.6,0.3,9.5,4.8,9.2,10.4
		C151.8,49.9,147.2,54,142,53.6z"/>
</g>
</svg>
