<?xml version="1.0" encoding="utf-8"?>
<!-- Generator: Adobe Illustrator 21.1.0, SVG Export Plug-In . SVG Version: 6.00 Build 0)  -->
<svg version="1.1" xmlns="http://www.w3.org/2000/svg" xmlns:xlink="http://www.w3.org/1999/xlink" x="0px" y="0px" width="134px"
	 height="142.3px" viewBox="0 0 134 142.3" style="enable-background:new 0 0 134 142.3;" xml:space="preserve">
<style type="text/css">
	.st0{fill:#F1F5FC;}
	.st1{fill-rule:evenodd;clip-rule:evenodd;fill:#E4E4E4;}
	.st2{fill:#FFFFFF;}
	.st3{fill:none;stroke:#FCFCFC;stroke-width:0.25;stroke-miterlimit:10;}
	.st4{fill:#C2DDFE;stroke:#C2DDFE;stroke-width:0.8289;stroke-miterlimit:10;}
	.st5{fill:#91FFD5;}
	.st6{fill:#E4E4E4;}
	.st7{fill:#DDEAFC;stroke:#DDEAFC;stroke-width:0.6126;stroke-miterlimit:10;}
	.st8{fill:#FFDEAC;}
	.st9{fill:#DDEAFC;}
	.st10{fill:#3B4B99;}
	.st11{fill:#6C3B00;}
	.st12{fill:#4DB1FF;}
	.st13{fill:#B9966D;}
	.st14{fill:#FFEF37;}
	.st15{fill:#A8C1F0;}
	.st16{opacity:0.7;fill:#DDEAFC;stroke:#DDEAFC;stroke-width:0.7235;stroke-miterlimit:10;}
	.st17{opacity:0.5;fill:#DDEAFC;stroke:#DDEAFC;stroke-width:0.7235;stroke-miterlimit:10;}
	.st18{fill:#E4E4E4;stroke:#E4E4E4;stroke-miterlimit:10;}
	.st19{fill:#E4E4E4;stroke:#E4E4E4;stroke-width:1.2014;stroke-miterlimit:10;}
	.st20{fill:#DAE4FC;}
	.st21{fill-rule:evenodd;clip-rule:evenodd;fill:#FFFFFF;}
	.st22{fill-rule:evenodd;clip-rule:evenodd;fill:#3BE2B4;}
	.st23{fill:#3BE2B4;}
	.st24{fill-rule:evenodd;clip-rule:evenodd;fill:#76FFD3;}
	.st25{fill:#E4E4E4;stroke:#E4E4E4;stroke-width:1.1223;stroke-miterlimit:10;}
	.st26{fill-rule:evenodd;clip-rule:evenodd;fill:#8FAFF5;}
	.st27{fill:#C0DBFC;}
	.st28{fill:#DDEAFC;stroke:#DDEAFC;stroke-width:0.7235;stroke-miterlimit:10;}
	.st29{fill:none;stroke:#9BB7F6;stroke-width:0.25;stroke-miterlimit:10;}
	.st30{fill:none;stroke:#DBE5FC;stroke-width:0.25;stroke-miterlimit:10;}
	.st31{fill:#4479EE;}
	.st32{fill:#92BEAE;}
	.st33{fill:#8FAFF5;}
	.st34{fill-rule:evenodd;clip-rule:evenodd;fill:#B4C9F8;}
	.st35{fill-rule:evenodd;clip-rule:evenodd;fill:#C2DDFE;stroke:#C2DDFE;stroke-width:0.8289;stroke-miterlimit:10;}
	.st36{fill:#E4E4E4;stroke:#E4E4E4;stroke-width:0.8047;stroke-miterlimit:10;}
	.st37{fill:#E4E4E4;stroke:#E4E4E4;stroke-width:0.9711;stroke-miterlimit:10;}
	.st38{fill-rule:evenodd;clip-rule:evenodd;fill:#4479EF;}
	.st39{fill:#FFFF33;}
	.st40{fill:#EF5632;}
	.st41{fill:#4275F2;}
	.st42{fill:#979797;}
	.st43{fill:url(#SVGID_1_);}
	.st44{fill:url(#SVGID_2_);}
	.st45{fill:none;stroke:#FCFCFC;stroke-width:0.5371;stroke-miterlimit:10;}
	.st46{fill-rule:evenodd;clip-rule:evenodd;fill:#4479EE;}
	.st47{fill:none;stroke:#BEF5E6;stroke-width:0.2581;stroke-miterlimit:10;}
	.st48{fill:none;stroke:#9BB7F6;stroke-width:0.2;stroke-miterlimit:10;}
	.st49{fill:#E4E4E4;stroke:#E4E4E4;stroke-width:0.8698;stroke-miterlimit:10;}
	.st50{fill:none;stroke:#9BB7F6;stroke-miterlimit:10;}
	.st51{fill-rule:evenodd;clip-rule:evenodd;fill:#DDEAFC;}
	.st52{fill:#B1B7D6;}
	.st53{fill:#DDEAFC;stroke:#DDEAFC;stroke-width:0.6325;stroke-miterlimit:10;}
	.st54{fill:#EBF2FD;}
	.st55{fill:#C7B4FF;}
	.st56{fill:#FFD24D;}
	.st57{fill:#8A8BC3;}
	.st58{fill:#D6BEDB;stroke:#DDEAFC;stroke-width:0.7235;stroke-miterlimit:10;}
	.st59{fill:#FFE5D7;stroke:#DDEAFC;stroke-width:0.7235;stroke-miterlimit:10;}
	.st60{fill:#FC5C05;}
	.st61{fill:#303654;}
	.st62{fill:#F5911E;}
	.st63{fill:#C0C5E1;}
	.st64{fill:#76FFD3;}
	.st65{fill:#4479EF;}
	.st66{fill:#AF88A1;}
	.st67{fill:#D58E76;}
	.st68{fill:#FF6666;}
	.st69{fill:#FF8C8C;}
	.st70{fill:#8B3214;}
	.st71{fill:#B9071A;}
	.st72{fill:#9CFFDA;}
	.st73{fill:#84FFD0;}
	.st74{fill:#F0A0C8;}
	.st75{fill:#CECAEF;}
	.st76{fill:none;stroke:#FCFDFF;stroke-miterlimit:10;}
	.st77{fill:#D0D66F;}
	.st78{fill:#C3965C;}
	.st79{fill:#C48563;}
	.st80{fill:#3294EF;}
	.st81{fill:#0E50BA;}
	.st82{fill:#CB5300;}
	.st83{fill:#FDDC00;}
	.st84{fill:#B8E0FF;}
	.st85{fill:#A77666;}
	.st86{fill:#2A237E;stroke:#DDEAFC;stroke-width:0.7235;stroke-miterlimit:10;}
	.st87{fill:#DDEAFC;stroke:#DDEAFC;stroke-width:0.5669;stroke-miterlimit:10;}
	.st88{fill-rule:evenodd;clip-rule:evenodd;fill:#303654;}
	.st89{fill:#805E00;}
	.st90{fill:#FF777F;}
	.st91{fill-rule:evenodd;clip-rule:evenodd;fill:#FFDEAC;}
	.st92{fill:#FFDEAC;stroke:#FFDEAC;stroke-miterlimit:10;}
	.st93{fill:#34E5F9;}
	.st94{fill-rule:evenodd;clip-rule:evenodd;fill:#EF5632;}
	.st95{fill:url(#SVGID_3_);}
	.st96{opacity:0.8;}
	.st97{fill:#94D0FF;}
	.st98{fill:url(#SVGID_4_);}
	.st99{fill:#30EAF9;}
	.st100{fill:url(#SVGID_5_);}
	.st101{fill:url(#SVGID_6_);}
	.st102{fill-rule:evenodd;clip-rule:evenodd;fill:#3B4B99;}
	.st103{fill:none;stroke:#99B5F5;stroke-width:0.5;stroke-miterlimit:10;}
	.st104{fill:#4479EE;stroke:#4479EE;stroke-width:0.25;stroke-miterlimit:10;}
	.st105{fill:none;stroke:#9BB7F6;stroke-width:0.199;stroke-miterlimit:10;}
	.st106{fill:none;stroke:#9BB7F6;stroke-width:0.1862;stroke-miterlimit:10;}
	.st107{fill:none;stroke:#9BB7F6;stroke-width:0.2704;stroke-miterlimit:10;}
	.st108{fill:none;stroke:#9BB7F6;stroke-width:0.2345;stroke-miterlimit:10;}
	.st109{fill:none;stroke:#9BB7F6;stroke-width:0.2214;stroke-miterlimit:10;}
	.st110{fill:none;stroke:#9BB7F6;stroke-width:0.2417;stroke-miterlimit:10;}
	.st111{fill-rule:evenodd;clip-rule:evenodd;fill:#FFD24D;}
	.st112{fill-rule:evenodd;clip-rule:evenodd;fill:#30EAF9;}
	.st113{fill:none;stroke:#F7AB99;stroke-miterlimit:10;}
	.st114{display:none;}
	.st115{display:inline;fill:#4479EE;}
	.st116{display:inline;fill:#A8C1F0;}
	.st117{display:inline;fill:#D6BEDB;stroke:#DDEAFC;stroke-width:0.7235;stroke-miterlimit:10;}
	.st118{display:inline;fill:#FFE5D7;stroke:#DDEAFC;stroke-width:0.7235;stroke-miterlimit:10;}
	.st119{display:inline;fill:#8A8BC3;}
	.st120{display:inline;fill:#6674B7;}
	.st121{display:inline;fill:#C0C5E1;}
	.st122{display:inline;fill:#FF4400;}
	.st123{display:inline;fill:#B33000;}
	.st124{display:inline;fill:#FF777F;}
	.st125{display:inline;fill:#476D15;}
	.st126{display:inline;fill:#B98D00;}
	.st127{display:inline;fill:#6D5200;}
	.st128{display:inline;fill:#B9966D;}
	.st129{display:inline;fill:#327DAC;}
	.st130{display:inline;fill:#0C3853;}
	.st131{display:inline;fill:#B9421B;}
	.st132{display:inline;fill:#461100;}
	.st133{display:inline;fill:#B9071A;}
	.st134{display:inline;fill:#460008;}
	.st135{display:inline;fill:#035336;}
	.st136{display:inline;fill:#1BAC77;}
	.st137{display:inline;fill:#213A00;}
	.st138{display:inline;}
	.st139{display:inline;fill:#C0DBFC;}
	.st140{display:inline;fill:#7DA5D5;}
	.st141{display:inline;fill:#C7B4FF;}
	.st142{display:inline;fill:#7754F5;}
	.st143{display:inline;fill:#91FFD5;}
	.st144{display:inline;fill:#EBD3A4;}
	.st145{fill:#25AEE3;}
	.st146{fill:#909DDB;}
	.st147{fill:#5C6AC2;}
	.st148{fill:#2CE1B4;}
	.st149{fill:url(#SVGID_7_);}
	.st150{fill:url(#SVGID_8_);}
	.st151{fill:url(#SVGID_9_);}
	.st152{fill:url(#SVGID_10_);}
	.st153{fill:url(#SVGID_11_);}
	.st154{fill:url(#SVGID_12_);}
	.st155{fill:url(#SVGID_13_);}
	.st156{fill:url(#SVGID_14_);}
	.st157{fill:url(#SVGID_15_);}
	.st158{display:inline;fill:#76FFD3;}
	.st159{display:inline;fill:#3BE2B4;}
	.st160{display:inline;fill:#C2DDFE;stroke:#C2DDFE;stroke-width:0.8289;stroke-miterlimit:10;}
	.st161{display:inline;fill:#DDEAFC;stroke:#DDEAFC;stroke-width:0.7235;stroke-miterlimit:10;}
	.st162{display:inline;fill:#90666B;}
	.st163{display:inline;fill:#D58E76;}
	.st164{display:inline;fill:#F7F0E8;}
	.st165{display:inline;fill:#F1F5FC;}
</style>
<g id="fill_color_-_browser">
</g>
<g id="browser">
</g>
<g id="Layer_6">
</g>
<g id="fill_color">
</g>
<g id="outline">
	<path class="st5" d="M48.2,69.5c11,2.6,22,5.1,33,7.7c1.7,0.4,3.5,0.8,4.7,2c1.3,1.2,1.8,3.3,0.7,4.6c11.4-0.2,22.8-0.3,34.2-0.5
		c1,0,2.1-0.1,2.7-0.8c0.6-0.7,0.6-1.6,0.6-2.5c-0.8-24.2-1.5-48.3-2.3-72.5C102.1,9.4,82.4,4.2,62.6,4c-4.9,0-12.9,0.6-14.8,6.3
		c-1.2,3.9,0.9,11,0.9,15.2C48.9,40.2,48.7,54.9,48.2,69.5z"/>
	<path class="st2" d="M95.1,32c0.8-0.7,2-1.4,2.9-0.9c0.4,0.2,0.7,0.6,0.9,1c1.4,2.7,1.1,6-0.1,8.7c-1.2,2.8-3.2,5.1-5.3,7.2
		c-3,3.1-6.2,6.1-10,8.3c-3.2,1.8-9.5,4.8-13.3,3.2c-4.1-1.7,2.2-6.2,4.1-8.2C80.8,44.6,87.8,38.1,95.1,32z"/>
	<path class="st2" d="M97.9,61.8c-1.8-0.7-2.5-3.1-1.6-4.8c0.8-1.7,2.7-2.7,4.6-3c0.9-0.1,1.9-0.1,2.4,0.6c0.3,0.3,0.4,0.8,0.4,1.2
		c0.3,1.9-0.2,3.9-1.4,5.4c-0.5,0.7-1.2,1.3-2.1,1.5c-1.4,0.3-2.9-0.7-3.8-1.8s-1.6-2.5-2.7-3.5"/>
	<g>
		<g>
			<path class="st26" d="M92.6,85c4.2,0.4,9.6,0.1,14.4,0.2c2.8,0,5.7,0.1,8.6,0.1c3,0,6,0.1,9.1,0.1c0.1-5.3,0.2-10.6,0.2-16
				c0.1-5.3,0.1-10.6,0-15.7c0.3-11.6,0.2-21.5,0.3-36.1c0-3.1,0.1-6.1,0.1-9.1c-3.7-0.1-7.3-0.1-10.8-0.2C91.8,8.2,70.1,8.1,47.4,8
				c0,3.8,0,7.9,0,12c0,2.7,0,5.6,0,8.6c0,6.9-0.1,15.2,0,21.6c0.1,7.1,0.8,12.5,1.6,13.1c0.9-5,0.8-16.9,0.9-28.4
				c0-7.2,0.1-15.5,0.1-24.3c13.1,0,27,0,38,0c11.8,0,23.8,0,35.4,0c0,1.6,0,3.2,0,4.8c0.1,14.3,0.1,28.2,0.2,41.9
				c0.1,4.8,0.1,9.5,0.2,14.1c0.1,4.4,0.2,8.8,0.2,13.1l-0.6,0C113,84.6,102.8,84.8,92.6,85z"/>
		</g>
	</g>
	<g>
		<g>
			<path class="st26" d="M75.5,57.6c0.8,0.3,1.7,0.3,2.6,0.1c0.9-0.2,1.8-0.5,2.7-0.8c2.7-1.1,5.3-2.7,7.9-4.6
				c2.6-1.9,4.9-4.2,6.8-6.7c1.5-1.6,2.8-3.3,3.8-5.3c1-2,1.9-4.3,1.8-7.3c0-0.8-0.1-1.6-0.3-2.3c-0.1-0.4-0.2-0.7-0.4-1.1
				c-0.2-0.4-0.4-0.8-0.9-1.2c-0.6-0.4-1.4-0.5-2-0.3c-0.6,0.2-1,0.5-1.4,0.8c-0.6,0.5-1,0.9-1.4,1.3l-1.3,1.3
				c-0.9,0.9-1.7,1.7-2.6,2.5c-1.7,1.7-3.4,3.4-5.1,5c-3.4,3.4-6.8,6.7-10.4,10.2c-0.7,0.7-1.5,1.5-2.3,2.3
				c-0.5,0.5-0.9,0.9-1.4,1.4c-0.5,0.5-1,1-1.6,1.7c-0.5,0.6-1,1.5-1.2,2.5c-0.1,1,0.2,2.1,0.8,2.8c0.7,0.8,1.5,1.1,2.1,1.3
				c0.7,0.2,1.3,0.2,1.8,0.1c1-0.2,1.6-0.6,1.6-1c-0.5-0.2-1-0.3-1.7-0.6c-0.6-0.2-1.4-0.5-1.8-1c-0.4-0.5-0.6-1-0.4-1.6
				c0.2-0.7,0.9-1.4,1.7-2.1c5.3-5.1,12.4-12.4,17.4-17.4c1.5-1.5,3-3,4.5-4.5c0.7-0.7,1.5-1.5,2.2-2.2c0.3-0.3,0.7-0.5,0.9-0.6
				c0.3-0.1,0.2-0.1,0.2-0.1c0,0,0,0,0.1,0.2c0.1,0.2,0.2,0.4,0.3,0.6c0.1,0.2,0.2,0.5,0.2,0.7c0.1,0.2,0.1,0.5,0.2,0.7
				c0.4,2.3-0.3,4.8-1.4,7c-1.1,2.2-2.6,4.3-4.2,6.3c-2.3,2.9-4.9,5.5-7.7,7.6c-1.5,1.2-3.1,2.2-4.8,3
				C79.3,57.2,77.4,57.7,75.5,57.6z"/>
		</g>
	</g>
	<g>
		<g>
			<path class="st26" d="M105,54.4c-0.4,0.5-0.2,1.1-0.4,1.7c-0.3,0.9-0.8,1.7-1.5,2.4c-0.7,0.7-1.4,1.2-2.1,1.7
				c-0.6,0.2-1.2,0.3-1.7,0.3c-0.5,0-1.1-0.2-1.5-0.7c-0.4-0.5-0.3-1.1-0.3-1.7c0-1.2,0.7-2.4,1.4-3.5c0.4-0.5,0.7-0.8,1-0.9
				c0.3-0.1,0.8,0,1.2,0.3c0.2,0.1,0.4,0.2,0.5,0.4c0.4,0.4,0.7,1.1,1,1.6c0.3,0.6,1.1,1.1,1.9,0.9c0.7-0.8,0.3-2.2-0.6-3.6
				c-0.7-1.2-2.4-2.4-4.5-2c-0.5,0.1-1,0.3-1.4,0.6c-0.4,0.3-0.7,0.6-0.9,1c-0.5,0.7-0.7,1.2-1,1.7c-0.4,0.8-0.8,1.8-0.9,2.9
				c-0.1,1.1,0.2,2.3,0.9,3.2c0.4,0.5,0.8,0.9,1.4,1.2c0.6,0.3,1.2,0.4,1.7,0.4c1.2,0,2.1-0.4,2.9-1c1.1-0.8,1.8-2,2.3-3.1
				C105,56.9,105.2,55.6,105,54.4z"/>
		</g>
	</g>
	<g>
		<g>
			<path class="st26" d="M77,33.2c-0.2,0.6,0.3,1,0.3,1.6c0.1,0.8-0.3,1.7-0.8,2.4c-0.5,0.7-1.2,1.1-1.9,1.5
				c-0.6,0.1-1.1,0.1-1.6,0.1c-0.5,0-1.1-0.1-1.7-0.5c-0.5-0.3-0.7-0.9-1-1.3c-0.5-1-0.5-2,0-3c0.5-0.9,1.3-1.5,2.2-1.6
				c0.2,0,0.4,0,0.6,0c0.5,0,0.8,0.4,1.2,0.6c0.2,0.1,0.4,0.2,0.8,0.2c0.3,0.1,0.7,0.1,1.1,0.1c0.4-0.4,0.4-1.1,0-1.7
				c-0.4-0.6-1.1-1.2-1.9-1.5c-1.3-0.5-3.1-0.3-4.4,0.7c-1.3,1-2,2.5-2.2,3.8c-0.1,1,0,2.1,0.5,3c0.4,0.9,1.1,1.7,2,2.2
				c0.8,0.5,1.8,0.8,2.8,0.8c1,0,1.9-0.3,2.7-0.8c1.2-0.7,1.8-2,2-3.2C78,35.4,77.7,34.1,77,33.2z"/>
		</g>
	</g>
	<g>
		<g>
			<path class="st26" d="M115,44.8c0.5-0.8,0.2-2,0.3-2.9c0.3-3.1,1.2-6.6,1.1-10c0.4-2.4,0.3-4.4-0.1-7.4c-0.2-1.3-0.2-2.6-0.6-3.9
				l-0.1-0.3c0-0.1-0.1-0.3-0.1-0.4c-0.1-0.1-0.1-0.3-0.2-0.3c-0.1-0.1-0.2-0.2-0.3-0.3c-0.4-0.3-1.1-0.4-1.4-0.4
				c-0.7-0.1-1.4-0.2-2-0.2c-1.3-0.1-2.6-0.1-3.9-0.1c-2.6,0-5.2,0-7.9,0c-0.5,0-1.1,0-1.7,0.1c-1.4,0.1-3.1,0-4.4,0.2
				c-1.4,0.2-2.5,0.9-2.6,1.7c1,0.8,3.5,0.6,5.8,0.6c3.9,0,9.4-0.2,13.2-0.2c0.7,0,1.4,0,2.1,0.1c0.3,0,0.7,0.1,1,0.1
				c0.1,0,0.3,0,0.4,0.1c0,0,0,0,0,0l0,0c0,0,0-0.1,0.1,0.2c0.1,0.3,0.2,0.6,0.3,1c0.2,0.6,0.3,1.3,0.5,2c0.5,2.7,0.5,5.5,0.5,8.2
				c0,2,0.1,4,0.1,6C114.9,40.6,114.9,42.7,115,44.8z"/>
		</g>
	</g>
	<g>
		<g>
			<path class="st26" d="M58.9,62.8c0.4-0.4,0.2-0.9,0.2-1.4c0.1-1.5,0.8-3.2,0.6-4.8c0.3-1.1,0.2-2.1,0.3-3.5
				c0-0.6,0.2-1.2,0.3-1.8c0.1-2.6,0.2-5,0.1-7.5c0-0.3,0-0.5-0.1-0.8c-0.1-0.7,0-1.5-0.2-2.1c-0.2-0.7-0.9-1.2-1.7-1.1
				c-0.8,0.6-0.6,1.7-0.6,2.8c0,1.9,0.1,4.5,0.2,6.3c0,1.4,0,2.8,0.1,4.2c0.1,1.4,0,2.7,0.1,4.1c0.1,1,0.3,1.9,0.4,2.9
				C58.6,60.8,58.7,61.8,58.9,62.8z"/>
		</g>
	</g>
	<g>
		<path class="st27" d="M22.8,92.3c1.7-5.5,1-11.4,0.4-17.1c-6.9,10.9-11.7,23.1-14,35.7c-1.2,6.7,7.4,21.8,8.4,9.9
			c0.4-4.5-1.2-8.9-0.5-13.5C17.9,101.8,21.2,97.4,22.8,92.3z"/>
		<path class="st27" d="M57.5,121.4c3.6-0.6,7.3-1.4,10.4-3.4c3.2-2.1,5.6-5.2,7.7-8.3c4-5.9,7.5-12.7,7.1-19.8
			c-0.3-4.8-2.4-9.7-1.1-14.4c1.8,0.6,2.4,2.9,2.7,4.8c1.4,9.7,2.8,19.3,4.2,29c0.6,4.3,1.1,9.1-1.3,12.6c-3.3,4.7-10,5.1-15.7,4.9
			c-6.3-0.1-12.6-0.3-19-0.4c-3.4-0.1-15.5,1.6-18-0.7c-4.2-3.8,3.2-3.7,5.5-3.5C45.7,122.5,51.6,122.3,57.5,121.4z"/>
		<g>
			<g>
				<path class="st26" d="M14.4,125.7c-0.6-0.1-1.2-0.2-1.8-0.4c-0.6-0.2-1.2-0.5-1.6-0.9c-0.7-0.7-1.1-1.6-1.3-2.6
					c-0.2-1-0.2-2-0.2-3.1c0.1-1,0.2-2.1,0.2-3.1c0.1-1,0.2-2,0.3-3.1c0.8-2.8,1.1-5.2,2.3-8.6c0.5-1.5,1.2-2.9,1.8-4.2
					c2.4-6,5.1-11.5,7.5-17.7c0.2-0.6,0.5-1.3,0.7-2c0.3-0.8,0.6-1.7,0.9-2.6c0.3-0.9,0.5-1.8,0.7-2.6c0.3-1.8-0.1-3.3-0.8-3.6
					c-0.6,0.5-1,1.5-1.3,2.7c-0.4,1.2-0.8,2.6-1.3,3.9c-1.5,4.5-4.2,10.7-6,15c-1.4,3.3-2.8,6.7-3.8,10.1c-1,3.5-1.9,7-2.2,10.5
					c0,0.6-0.1,1.3-0.1,1.9l0.1,1.9c0,1.2,0.1,2.5,0.4,3.8c0.3,1.3,0.8,2.7,1.8,3.7C11.6,125.4,13.1,126.1,14.4,125.7z"/>
			</g>
		</g>
		<g>
			<g>
				<path class="st26" d="M24.8,121.6c-0.5-0.2-1-0.4-1.5-0.6c-0.5-0.2-1-0.5-1.4-0.9c-1.3-1.2-1.7-3.2-1.7-5c0-0.9,0-1.9,0.1-2.8
					c0.1-0.9,0.1-1.8,0.1-2.7c0.5-2.5,0.6-4.7,1.2-7.9c0.3-1.4,0.7-2.7,1-4c1.2-5.7,2.3-11.1,2.5-17.1c0-0.6,0-1.3,0-2
					c-0.1-0.8-0.1-1.7-0.1-2.5c-0.1-0.9-0.2-1.7-0.3-2.4c-0.4-1.6-1.4-2.7-2.2-2.6c-0.3,0.6-0.3,1.6-0.2,2.7c0,1.1,0.3,2.3,0.3,3.6
					c0.1,2.1,0,4.6-0.2,7.1c-0.2,2.5-0.6,5-0.9,7c-0.5,3.1-1.1,6.3-1.6,9.4c-0.4,3.2-0.9,6.3-0.9,9.4c0,2.3,0.1,4.5,0.7,6.8
					c0.3,1.2,1,2.4,1.9,3.2C22.4,121.2,23.6,121.7,24.8,121.6z"/>
			</g>
		</g>
		<g>
			<g>
				<path class="st26" d="M84.2,70.7c-1.1-0.5-2.5-0.2-3.7-0.3c-3.9-0.2-8.5-1-12.7-0.9c-3-0.4-5.6-0.3-9.4-0.5
					c-1.6-0.1-3.2-0.3-4.8-0.3c-6.8-0.2-13.1-0.2-20,0.1c-0.7,0-1.5,0.1-2.2,0.2c-1.8,0.1-4,0.2-5.6,0.5c-1.8,0.3-3.1,1.1-3.2,2
					c1.4,0.7,4.4,0.3,7.4,0.1c2.5-0.1,5.5-0.3,8.4-0.4c3-0.1,5.9-0.2,8.3-0.2c3.7-0.1,7.5,0,11.1,0c3.7,0,7.3,0.1,10.9,0.1
					c2.6,0,5.1-0.2,7.6-0.2C78.9,70.8,81.6,70.8,84.2,70.7z"/>
			</g>
		</g>
		<g>
			<g>
				<path class="st26" d="M82.3,124.2c1.1,0.4,2.5,0.1,3.7-0.2c0.9-0.2,1.9-0.5,2.7-1.2c0.8-0.6,1.4-1.7,1.7-2.7
					c0.7-2.1,1-4.3,0.9-6.4c0.3-3-0.1-5.6-0.7-9.3c-0.3-1.6-0.4-3.2-0.7-4.7c-1.3-6.5-2.3-12.7-3.2-19.4c-0.1-0.7-0.2-1.4-0.3-2.2
					c-0.3-1.7-0.4-3.9-0.7-5.5c-0.3-1.8-1.2-3.1-2-3.1c-0.7,1.4-0.3,4.4,0.1,7.4c0.5,5,1.7,11.8,2.6,16.5c0.7,3.6,1.5,7.3,2.3,10.8
					c0.8,3.5,1.2,7,1.2,10.4c0,1.2,0,2.5-0.2,3.7c-0.1,1.2-0.3,2.4-0.8,3.3c-0.6,1-1.6,1.6-2.8,2C84.9,123.9,83.6,124.1,82.3,124.2z
					"/>
			</g>
		</g>
		<g>
			<g>
				<path class="st26" d="M66.3,117.9c0.4,0.5,1,0.2,1.5,0.3c1.6,0.1,3.6,0.4,5.3-0.4c1.3-0.1,2.3-0.7,3.7-1.6
					c0.6-0.4,1.3-0.6,1.8-1.1c2.3-1.9,3.9-4.4,4.8-7.3c0.1-0.3,0.2-0.6,0.2-1c0.2-0.8,0.4-1.7,0.3-2.5c-0.1-0.8-0.8-1.4-1.6-1.4
					c-0.8,0.6-0.7,1.7-1,2.8c-0.2,0.9-0.5,2-1,3.1c-0.4,1-1,2-1.6,2.7c-0.8,1.1-1.9,2.1-2.9,2.9c-1.1,0.9-2.4,1.4-3.6,1.9
					c-0.9,0.4-1.8,0.8-2.8,1C68.4,117.7,67.4,117.9,66.3,117.9z"/>
			</g>
		</g>
		<g>
			<g>
				<path class="st26" d="M47.2,79c-0.2,0.7,0.2,1.4,0.3,2.1c0.1,1.1-0.2,2.3-0.7,3.4c-0.5,1.1-1.1,2.1-1.8,3
					c-0.6,0.5-1.2,0.9-1.9,1.2c-0.7,0.3-1.5,0.5-2.4,0.3c-0.8-0.2-1.4-0.7-1.8-1.2c-0.8-1.1-0.6-2.8-0.1-4.4c0.5-1.6,1.4-3,2.6-3.5
					c0.2-0.1,0.4-0.1,0.7-0.2c0.7-0.1,1.5,0.4,1.8,0.7c0.2,0.2,0.5,0.3,0.8,0.4c0.3,0.2,0.7,0.4,1.1,0.5c0.5-0.4,0.6-1.4,0-2.2
					c-0.6-0.9-1.6-1.4-2.6-1.7c-0.9-0.2-2-0.2-3,0.3c-0.9,0.4-1.8,1.2-2.4,2c-1.2,1.7-1.6,3.5-1.8,5c-0.1,1.2-0.1,2.5,0.6,3.8
					c0.7,1.3,2,2.1,3.3,2.4c1.3,0.3,2.7,0.1,3.8-0.5c1.1-0.6,2-1.4,2.7-2.3c1-1.4,1.3-3,1.5-4.5C48.2,82,47.9,80.4,47.2,79z"/>
			</g>
		</g>
		<g>
			<g>
				<path class="st26" d="M70.9,81c-0.3,0.6,0,1.3,0,2c0,1-0.4,2.1-0.9,3.1c-0.6,1-1.3,1.7-2.1,2.2c-0.7,0.2-1.4,0.2-2,0.2
					c-0.7-0.1-1.4-0.3-1.9-0.9c-0.4-0.5-0.4-1.2-0.3-1.9c0.1-0.7,0.3-1.5,0.6-2.2c0.3-0.7,0.7-1.4,1.1-2c0.4-0.6,0.9-1.1,1.5-1.4
					c0.6-0.3,1.2-0.5,1.8-0.5c0.2,0,0.5,0,0.7,0.1c0.5,0.1,1,0.7,1.2,1.2c0.1,0.2,0.3,0.4,0.6,0.7c0.3,0.2,0.5,0.5,0.9,0.7
					c0.6-0.2,0.9-1,0.7-1.9c-0.2-0.9-0.8-1.8-1.7-2.4c-0.7-0.6-1.7-0.8-2.7-0.8c-1,0-1.9,0.3-2.8,0.8c-1.7,1-2.7,2.6-3.2,3.9
					c-0.4,1-0.8,1.9-1,3.1c-0.2,1.1-0.1,2.6,0.8,3.7c0.9,1.2,2.3,1.6,3.4,1.7c1.2,0.1,2.4-0.3,3.4-0.9c1.5-1.1,1.9-2.7,2.2-4
					C71.5,83.8,71.3,82.4,70.9,81z"/>
			</g>
		</g>
		<g>
			<g>
				<path class="st26" d="M65.4,85.2L65.4,85.2L65.4,85.2C65.2,85.2,65.3,85.2,65.4,85.2L65.4,85.2L65.4,85.2L65.4,85.2l0-0.1
					l0.1-0.1c0.1-0.1,0.1-0.2,0.2-0.2c0.1-0.2,0.2-0.3,0.3-0.5c0.2-0.3,0.3-0.7,0.5-1.1c0.3-0.8,0.4-1.6,0.7-2.4
					c1.4-4.8,1.6-11,0.2-16.2c-0.3-1.9-0.6-3.7-1.2-5.5c-0.6-1.8-1.5-3.9-3.5-5.6c-1.7-1.4-3.8-2.4-5.9-2.7
					c-2.3-0.3-4.6-0.1-6.8,0.7c-2.1,0.8-4,2.2-5.5,3.8c-3.1,3.3-4.9,7.5-5.7,12c-0.2,0.9-0.3,1.9-0.3,2.9c-0.2,2.4-0.2,5.2,0,7.4
					c0.3,2.4,1.1,4.1,1.9,4.2c0.7-1.7,0.2-5.6,0.4-9.4c0.1-3.1,0.6-6.8,2.1-10.1c1.4-3.3,3.7-6.1,6.1-7.6c0.9-0.6,1.9-1,2.9-1.3
					c1-0.3,2.1-0.4,3.2-0.4c2.1,0,4.3,0.6,5.9,1.7c0.9,0.6,1.6,1.3,2.2,2.1c0.6,0.8,1,1.8,1.3,2.8c0.7,2.1,1.2,4.3,1.7,6.5
					c0.7,3.2,1.2,6.3,1.2,9.4c0,1.7-0.2,3.3-0.5,5c-0.1,0.4-0.2,0.8-0.3,1.2c-0.1,0.4-0.2,0.8-0.3,1.2c-0.1,0.4-0.2,0.8-0.4,1.2
					l-0.2,0.6l-0.1,0.3l-0.1,0.1l0,0.1L65.4,85.2L65.4,85.2L65.4,85.2L65.4,85.2L65.4,85.2L65.4,85.2z"/>
			</g>
		</g>
		<g>
			<g>
				<path class="st26" d="M59.9,68.9c0.3-1-0.1-2.1-0.1-3.1c-0.1-1.6-0.1-3.4-0.4-5.3c-0.3-1.8-1.1-3.7-2.3-5
					c-0.7-1.1-1.5-2-2.6-2.8c-1.1-0.8-2.3-1.4-3.9-1.8c-1.4-0.4-2.8-0.6-4.2-0.5c-3,0.3-5.8,1.6-8,3.5c-2.3,1.9-4,4.4-5.2,7.1
					c-0.2,0.6-0.5,1.2-0.7,1.8c-0.5,1.5-1.1,3.3-1.2,4.7c-0.2,1.6,0.4,2.9,1.2,3.1c1-1,1.2-3.5,2-5.8c0.6-1.9,1.6-4.1,2.9-6.1
					c1.3-2,3-3.5,4.6-4.5c2.4-1.5,5.4-2.2,8-1.7c2.7,0.4,5,2.2,6.6,4.3c1.2,1.6,2,3.4,2.4,5.4C59.1,64.5,59.4,66.7,59.9,68.9z"/>
			</g>
		</g>
	</g>
</g>
<g id="colorz" class="st114">
</g>
</svg>
