<?xml version="1.0" encoding="iso-8859-1"?>
<!-- Generator: Adobe Illustrator 21.1.0, SVG Export Plug-In . SVG Version: 6.00 Build 0)  -->
<svg version="1.1" id="Layer_1" xmlns="http://www.w3.org/2000/svg" xmlns:xlink="http://www.w3.org/1999/xlink" x="0px" y="0px"
	 width="504px" height="796px" viewBox="0 0 504 796" enable-background="new 0 0 504 796" xml:space="preserve">
<g>
	<g>
		<path fill="#DFECFE" d="M247.642,758.18c-27.409-4.261-54.818-8.521-82.228-12.782c-9.936-1.544-20.086-3.15-28.899-7.082
			c-8.812-3.932-16.189-10.698-16.738-18.35c48.969-13.302,101.591-17.837,153.887-20.568c34.163-1.784,69.344-2.748,102.246,5.5
			c7.975,1.999,17.352,6.577,15.784,12.741c-0.848,3.332-4.755,5.581-8.481,7.403c-50.24,24.565-114.322,26.783-174.967,24.592
			c-13.157-0.475-27.782-1.634-36.812-9.116"/>
		<g>
			<path fill-rule="evenodd" clip-rule="evenodd" fill="#DFECFE" d="M170.896,741.166c10.082,6.588,25.081,8.426,38.039,8.834
				c41.295,1.208,89.952-1.052,132.725-11.257c15.101-4.32,28.86-9.366,42.604-16.288c1.63-0.888,3.201-1.882,4.328-3.073
				c1.145-1.176,1.63-2.527,1.326-3.841c-0.05-0.164-0.094-0.328-0.133-0.496c-0.061-0.166-0.163-0.328-0.237-0.495
				c-0.119-0.341-0.423-0.653-0.626-0.99c-0.538-0.638-1.166-1.264-1.917-1.822c-1.482-1.129-3.25-2.074-5.121-2.878
				c-1.876-0.803-3.87-1.472-5.931-2.01c-2.101-0.519-4.306-0.998-6.514-1.511c-2.233-0.434-4.503-0.891-6.827-1.307
				c-2.335-0.356-4.702-0.795-7.141-1.098c-16.829-2.303-33.669-2.094-49.877-1.736c-17.565,0.426-34.947,1.603-52.176,2.767
				c-17.221,1.246-34.298,2.695-51.3,4.755c-8.509,0.98-16.982,2.203-25.464,3.483c-8.463,1.38-16.94,2.807-25.379,4.571
				c-2.117,0.408-4.225,0.867-6.333,1.338c-2.108,0.468-4.218,0.937-6.332,1.406c-4.203,1.031-8.437,1.99-12.63,3.145l-0.789,0.209
				l-0.111,0.031l-0.022,0.008l-0.085,0.03c-0.055,0.018-0.118,0.028-0.078,0.102c0.016,0.057,0.037,0.109,0.063,0.154
				c0.005,0.01,0.003-0.003,0.003-0.003l0.001-0.005l0.056,0.121c0.077,0.188,0.174,0.373,0.288,0.555
				c0.217,0.366,0.404,0.741,0.671,1.096c1.957,2.909,5.044,5.463,8.471,7.458c1.408,0.835,2.904,1.56,4.5,2.242
				c1.599,0.688,3.279,1.306,5.025,1.862c3.483,1.128,7.225,2.009,11.106,2.78c4.469,0.88,9.306,1.587,14.286,2.344
				c4.97,0.747,10.04,1.509,15.076,2.266c10.071,1.518,19.999,3.044,28.681,4.552c19.052,3.308,33.11,7.818,34.361,10.712
				c-13.775,0.811-45.88-4.556-76.85-9.094c-6.496-0.987-13.36-1.843-20.594-3.369c-3.606-0.773-7.292-1.719-10.981-3.031
				c-3.67-1.292-7.422-3.005-10.902-5.301c-3.452-2.328-6.796-5.15-9.333-9.056c-0.332-0.468-0.599-1.007-0.897-1.511
				c-0.327-0.546-0.457-0.91-0.929-1.928c-0.622-1.732-1.141-3.495-1.306-5.195l-0.35-2.625l-0.086-0.662
				c-0.064-0.142,0.094-0.143,0.181-0.188l0.295-0.115l1.182-0.46l1.184-0.461c0.39-0.157,0.779-0.314,1.257-0.418l2.729-0.713
				c2.039-0.533,4.083-1.067,6.13-1.602c1.91-0.457,3.823-0.914,5.738-1.371c3.823-0.952,7.688-1.726,11.535-2.577
				c30.858-6.458,61.944-9.789,87.41-11.82c19.565-1.521,39.203-2.723,58.822-3.512c19.616-0.734,39.297-0.639,58.457,1.714
				c2.455,0.285,4.899,0.678,7.342,1.01c2.436,0.406,4.87,0.808,7.294,1.253c2.414,0.509,4.84,0.928,7.235,1.509
				c2.414,0.595,4.731,1.043,7.302,1.835c2.502,0.771,4.96,1.712,7.386,2.965c1.211,0.66,2.417,1.346,3.603,2.242
				c1.184,0.843,2.359,1.94,3.424,3.289c1.062,1.342,1.984,3.255,2.196,5.374c0.24,2.122-0.341,4.285-1.34,5.939
				c-0.986,1.677-2.216,2.807-3.394,3.764c-1.191,0.947-2.377,1.664-3.539,2.317c-2.341,1.314-4.498,2.183-6.719,3.206
				c-2.217,0.974-4.397,2.036-6.638,2.93c-4.512,1.705-8.957,3.581-13.546,4.97c-2.283,0.729-4.544,1.527-6.837,2.192
				c-2.302,0.633-4.601,1.266-6.899,1.898c-1.151,0.304-2.291,0.654-3.45,0.918l-3.473,0.793c-2.315,0.523-4.627,1.044-6.937,1.566
				c-13.532,2.758-27.004,4.337-40.334,5.306c-13.336,0.959-26.543,1.289-39.687,1.357c-14.043,0.069-28.008-0.395-41.914-1.1
				c-6.943-0.335-13.97-0.734-20.912-2.027c-3.466-0.653-6.912-1.539-10.226-2.843C176.811,745.243,173.627,743.503,170.896,741.166
				z"/>
		</g>
	</g>
	<path fill="#EDD5A6" d="M135.912,319.267c25.658,13.928,40.353,41.665,62.065,61.182c-5.522,8.451-4.43,20.628-11.789,27.539
		c-5.394,5.066-14.648,5.279-20.27,0.466c6.954-5.234,17.813-6.874,20.417-15.179c1.985-6.333-2.312-12.823-6.775-17.736
		c-12.411-13.662-28.088-24.337-45.348-30.878c-6.599-2.501-13.9-4.747-17.999-10.492c-3.335-4.674-3.837-10.921-2.55-16.517
		c1.287-5.595,4.179-10.677,7.203-15.557c13.125-21.185,31.35-46.618,52.728-60.141c14.695,9.308-1.178,27.381-8.219,37.312
		C162.997,282.622,135.749,319.178,135.912,319.267z"/>
	<path fill="#EDD5A6" d="M331.308,320.844c0.057,1.863,0.184,3.76,0.988,5.431c1.633,3.393,5.748,5.002,9.51,4.802
		c13.374-0.713,22.76-12.612,29.334-23.021c8.359-13.236,18.209-25.529,26.971-38.533c2.514-3.731,5.429-7.794,9.831-8.722
		c3.249-0.685,6.552,0.527,9.773,1.334c14.837,3.717,31.589-1.814,41.297-13.634c-2.842,13.642-15.939,22.726-29.019,27.533
		c-7.278,2.675-16.094,4.265-22.256-0.442c-9.879,17.365-19.821,34.822-32.443,50.309c-10.237,12.56-23.083,24.211-38.976,27.367
		c-4.264,0.847-8.87,1.011-12.78-0.89c-4.593-2.234-7.51-7.024-8.766-11.974c-1.255-4.951-2.572-8.591-3.367-13.636
		c-2.306-14.62-0.372-29.752-0.274-50.586c0.084-17.759,2.802-27.751,18.029-36.592c0.711,26.912,1.422,53.823,2.133,80.735
		C331.298,320.497,331.302,320.67,331.308,320.844z"/>
	<path fill="#EDD5A6" d="M277.509,134.096c-4.917,4.389-10.894,7.828-14.417,13.399c-7.725,12.216-8.342,28.072-10.793,41.984
		c-0.469,2.66-0.762,5.678-1.82,8.184c-0.968,2.292-2.865,3.766-3.889,6.051c-2.321,5.18,6.873,11.449,8.477,16.895
		c3.369,11.438-6.291,24.515-16.345,29.166c-12.228,5.657-18.696-5.789-20.426-16.123c-1.669-9.972,0.187-24.081,0.849-34.17
		c-0.223,3.404,12.335-2.223,13.392-3.228c7.085-6.739,4.521-21.417,4.688-32.84c0.028-1.918,0.115-4.003,1.348-5.472
		c-1.35,1.609-8.709-1.273-10.115-1.938c-3.8-1.796-7.152-4.68-9.105-8.436c-0.451-0.866-0.834-1.796-0.867-2.772
		c-0.075-2.246,1.858-4.235,4.057-4.697s4.515,0.36,6.314,1.707c1.838,1.376,3.157,3.25,4.564,5.026
		c0.653-4.934,0.376-10.024,1.255-15.021c0.225-1.281,0.55-2.669,1.576-3.468c1.762-1.372,5.175-0.791,7.298-0.954
		c3.141-0.241,6.251-0.753,9.295-1.567c7.657-2.047,13.747-6.006,20.071-10.574c3.405-2.46,12.257-9.438,15.787-3.693
		C292.996,118.538,281.953,130.13,277.509,134.096z"/>
	<path fill="#7CA7D9" d="M410.566,257.041c1.899-0.872,3.577-2.148,5.339-3.27c2.871-1.827,5.995-3.256,9.255-4.232
		c-2.912,4.434-6.966,8.11-11.662,10.577c-0.358,0.188-0.734,0.373-1.138,0.391c-0.464,0.021-0.905-0.18-1.326-0.377
		c-1.413-0.66-2.827-1.317-4.238-1.979C407.946,257.929,409.405,257.575,410.566,257.041z"/>
	<path fill="#7CA7D9" d="M438.272,257.415c1.791-2.398,3.692-5.129,6.62-5.748c-0.168,1.996-0.699,3.96-1.561,5.768
		c0.05,0.452,0.755,0.268,1.094-0.035c4.169-3.717,8.338-7.433,12.507-11.15c1.143,1.835,0.277,4.356-1.287,5.848
		c-1.564,1.493-3.659,2.258-5.602,3.205c-7.72,3.764-14.503,12.894-23.149,14.246C429.929,265.111,434.966,261.843,438.272,257.415z
		"/>
	<path fill="#7CA7D9" d="M175.906,401.435c-0.802-0.04-1.539-0.665-1.71-1.45c1.898-0.827,3.855-1.516,5.852-2.063
		c2.596-0.711,5.258-1.181,7.94-1.4c-1.193,6.488-8.4,9.569-14.303,10.122C165.14,407.443,172.437,401.26,175.906,401.435z"/>
	<path fill="#EDD5A6" d="M225.701,514.929c-0.407-3.137-0.43-7.078,2.36-8.569c3.092-1.653,7.003,1.244,10.323,0.116
		c-0.404-4.972-1.197-9.913-2.369-14.762c-0.258-1.065-0.542-2.146-1.129-3.071c-0.805-1.27-2.105-2.133-3.392-2.911
		c-11.566-6.99-25.404-10.15-38.857-8.875c4.56,10.525,6.077,22.064,8.17,33.342c4.11,22.152,10.587,43.786,17.051,65.369
		c3.777,1.127,11.915,3.828,14.728-0.318c2.546-3.752-0.903-14.276-1.457-18.541C229.318,542.783,227.51,528.856,225.701,514.929z"
		/>
	<path fill="#EDD5A6" d="M260.154,579.043c0.176,0.865,0.402,1.798,1.067,2.345c0.545,0.448,1.274,0.54,1.963,0.615
		c3.438,0.376,6.877,0.753,10.315,1.129c8.374-24.826,0.146-52.17,1.538-78.458c6.231,2.318,12.596,4.24,19.049,5.754
		c0.322-6.942,0.645-13.885,0.967-20.827c-0.111,2.394-21.357-0.461-23.319-0.851c-7.74-1.54-9.071-0.1-10.266,8.096
		c-2.547,17.472-4.646,35.11-4.355,52.818C257.275,559.527,258.185,569.389,260.154,579.043z"/>
	<path fill="#C2DDFE" d="M185.569,71.063c-1.34,2.122-2.777,4.184-4.301,6.178c-2.339,3.061-4.905,7.045-8.313,9.037
		c-7.335,4.287-17.763,3.762-24.525-1.385c-10.029-7.635-9.705-22.222-5.963-33.103c3.829-11.136,13.525-19.991,25.078-22.537
		c-6.58,2.522-10.671,9.934-10.011,16.949c0.661,7.016,5.619,13.27,12.012,16.234c6.393,2.964,13.981,2.828,20.594,0.392
		c-1.587,0.584-2.139,3.873-2.928,5.141c-1.185,1.904-2.704,3.103-4.07,4.849c-3.777,4.828-6.696,11.648-8.118,17.57
		c-1.639,6.826-0.678,13.925,3.255,19.843c3.437,5.171,8.585,8.81,12.518,13.551c4.356,5.251,6.234,12.157,9.745,17.986
		c2.487,4.129,6.348,8.303,11.158,7.992c2.386-0.154,4.539-1.415,6.591-2.643c2.351-1.407,4.858-2.992,5.852-5.545
		c-2.826,9.591-4.256,19.593-4.229,29.592c-0.901-6.298,2.904-12.176,6.167-17.637c2.265-3.791,4.344-7.693,6.226-11.687
		c1.046-2.22,2.047-4.523,2.239-6.97c0.192-2.447-0.557-5.095-2.478-6.623c19.614-0.076,36.291-15.037,55.722-17.709
		c-11.672-4.09-24.518-1.54-36.548,1.331c-12.03,2.871-24.59,6.036-36.596,3.069c-7.421-1.834-14.24-6.029-19.224-11.826
		c-3.233-3.761-5.68-8.132-7.835-12.6c-3.308-6.858-6.027-14.589-4.182-21.976"/>
	<path fill="#7DA7D7" d="M220.642,647.679c0.575,16.427-1.654,32.808-3.877,49.094c-0.274,2.004-0.564,4.061-1.544,5.831
		c-2.161,3.902-6.919,5.335-10.946,7.253c-5.688,2.71-10.601,7.024-14.024,12.313c3.686,2.454,8.407,2.532,12.836,2.526
		c4.31-0.006,8.62-0.012,12.931-0.018c3.418-0.005,6.851-0.01,10.233-0.506c7.716-1.13,15.025-4.882,20.441-10.493
		c2-2.072,3.81-4.534,4.179-7.391c0.216-1.674-0.079-3.368-0.363-5.032c-6.796-39.802-7.879-80.329-8.947-120.692
		c0.008,0.302-24.887-1.091-27.076-1.173c-10.584-0.397-4.982,8.578-3.08,15.604C216.068,612.219,220.016,629.783,220.642,647.679z"
		/>
	<path fill="#C9B6FF" d="M324.883,621.281c-0.125,0.125-0.25,0.25-0.376,0.376"/>
	<path fill="#C9B6FF" d="M286.113,619.087c-1.494,0.252-3.102-0.685-3.618-2.11"/>
	<path fill="#7DA7D7" d="M262.64,704.957c-0.016,0.214-0.032,0.428-0.049,0.642c-0.087,1.129-0.166,2.312,0.296,3.347
		c2.04,4.572,11.122,5.302,15.302,5.796c6.193,0.732,12.493,0.741,18.575,2.256c8.57,2.134,17.173,7.771,26.31,6.231
		c0.557-0.094,1.132-0.224,1.575-0.576c0.684-0.543,0.902-1.517,0.764-2.38c-0.992-6.188-10.009-9.522-14.872-11.756
		c-8.029-3.689-15.826-7.884-23.328-12.553c-0.837-0.521-1.7-1.077-2.219-1.915c-0.596-0.964-0.651-2.156-0.687-3.289
		c-1.115-35.43,0.098-70.934,3.627-106.205c-0.179,1.785-12.261,2.145-13.747,2.085c-4.359-0.176-8.681-1.251-13.055-1.564
		c-6.078-0.436-6.21,6.3-5.615,10.728C260.416,632.282,265.402,668.098,262.64,704.957z"/>
	<g>
		<g>
			<path fill-rule="evenodd" clip-rule="evenodd" fill="#7CA7D9" d="M406.24,273.696c-1.265,3.907-3.647,8.57-5.54,12.769
				c-3.009,6.675-6.289,13.921-10.215,20.986c-3.891,7.075-8.485,13.953-13.714,19.811c-3.577,4.321-7.067,8.188-11.129,12.006
				c-2.02,1.919-4.208,3.797-6.652,5.657c-2.438,1.864-5.159,3.697-8.35,5.29c-2.753,1.366-5.636,2.478-8.634,3.122
				c-3.033,0.566-6.023,0.701-8.99,0.508c-1.601-0.129-3.195-0.347-4.766-0.695c-1.566-0.373-3.108-0.857-4.591-1.511
				c-1.471-0.68-2.879-1.51-4.162-2.523c-1.255-1.045-2.389-2.241-3.318-3.588c-1.831-2.676-2.949-5.705-3.735-8.72
				c-0.785-3.029-1.288-6.05-1.755-9.094c-1.836-12.193-1.694-24.573-1.129-37.207c0.113-2.588,0.271-5.388,0.445-8.263
				c0.419-6.616,0.561-14.547-0.181-20.61c-0.366-3.33-0.882-6.208-1.293-8.365c-0.108-0.537-0.196-1.034-0.264-1.485
				c-0.085-0.443-0.165-0.835-0.21-1.179c-0.093-0.687-0.086-1.17,0.039-1.393c0.333,0.51,0.696,1.13,1.085,1.846
				c0.372,0.722,0.704,1.563,1.084,2.475c0.64,1.856,1.299,4.062,1.683,6.513c0.861,4.896,0.961,10.655,0.795,16.228
				c-0.324,9.382-1.161,20.458-1.042,31.474c0.048,5.5,0.341,10.967,0.939,16.141c0.634,5.149,1.391,10.117,2.66,14.267
				c0.978,3.175,2.487,6.185,4.777,8.376c2.299,2.222,5.355,3.598,8.538,4.379c3.208,0.745,6.564,0.951,9.872,0.746
				c3.263-0.206,6.416-1.014,9.404-2.276c6.141-2.588,11.503-6.775,16.368-11.281c2.44-2.262,4.77-4.632,7.033-7.056
				c2.268-2.427,4.474-4.893,6.564-7.399c6.097-7.354,11.113-15.226,15.494-23.369C398.015,291.562,402.083,282.606,406.24,273.696z
				"/>
		</g>
	</g>
	<g>
		<g>
			<path fill-rule="evenodd" clip-rule="evenodd" fill="#7CA7D9" d="M394.344,273.077c-0.963,1.283-2.214,2.587-3.525,3.905
				c-1.291,1.337-2.669,2.664-3.877,3.984c-7.716,8.358-15.984,18.833-24.877,27.165c-6.08,6.233-11.735,11.182-20.979,17.117
				c-0.489,0.335-1.002,0.631-1.514,0.926l-1.694,0.994l-2.309,1.35l-0.295,0.173l-0.148,0.087
				c-0.045,0.021-0.121,0.092-0.094,0.003l0.049-0.646l0.099-1.312c0.059-0.8,0.119-1.598,0.178-2.393
				c0.032-0.572,0.065-1.142,0.097-1.71c0.064-1.138,0.127-2.265,0.19-3.381c0.547-9.684,0.637-19.12,0.529-28.569
				c-0.126-9.443-0.442-18.935-1.143-28.666c-0.152-1.987-0.357-4.117-0.651-6.301c-0.336-2.513-0.867-5.25-1.633-7.862
				c-0.765-2.612-1.781-5.08-2.871-7.124c-2.315-4.526-5.017-7.411-4.841-8.396c1.704,0.863,4.278,3.041,6.376,6.373
				c2.087,3.326,3.653,7.641,4.57,11.932c0.823,3.61,1.306,7.626,1.618,11.791c0.299,4.166,0.508,8.473,0.668,12.784
				c0.323,8.613,0.396,17.173,0.313,24.2c-0.062,5.391-0.204,10.822-0.486,16.213c-0.14,2.695-0.325,5.38-0.546,8.044l-0.089,0.998
				l-0.037,0.383l-0.001,0.004l-0.007,0.021c0,0,0.007,0.002,0.015,0l0.007-0.001l0.385-0.214l0.843-0.468
				c4.549-2.659,8.801-5.705,12.828-8.96c3.996-3.299,7.778-6.786,11.452-10.343c5.337-5.21,10.405-10.393,15.335-15.651
				C383.542,283.908,388.792,278.336,394.344,273.077z"/>
		</g>
	</g>
	<g>
		<g>
			<path fill-rule="evenodd" clip-rule="evenodd" fill="#7CA7D9" d="M406.014,277.042c-0.032,0.431,0.139,0.874,0.425,1.172
				c0.29,0.298,0.649,0.496,1.024,0.652c0.752,0.323,1.597,0.405,2.436,0.477c1.68,0.193,3.416,0.321,5.046,0.344
				c5.18,0.021,10.809-0.779,16.196-2.566c5.394-1.766,10.504-4.52,14.772-7.947c2.904-2.63,5.334-5.344,7.448-8.572
				c1.043-1.618,2.045-3.346,2.863-5.298c0.231-0.477,0.397-0.988,0.597-1.496c0.095-0.251,0.19-0.504,0.286-0.759l0.145-0.472
				c0.097-0.316,0.199-0.634,0.265-0.955l0.112-0.48c0.004-0.059,0.069-0.207,0.023-0.192l-0.214,0.161
				c-1.294,1.002-2.587,2.003-3.866,2.994c-1.663,1.289-3.305,2.564-4.944,3.782c-3.553,2.637-7.054,5.235-10.531,7.815l-2.62,1.934
				c-0.899,0.645-1.864,1.29-2.974,1.767c-2.275,1.003-4.805,0.893-7.01,0.408c-4.465-0.996-8.37-3.285-12.069-5.577
				c-3.705-2.31-7.328-4.663-11.386-5.985c-1.649-0.527-3.466-0.972-5.342-1.029c-1.076-0.038-2.209,0.025-3.32,0.286
				c-0.566,0.104-0.985,0.288-1.098,0.418c-0.1,0.09-0.201,0.318-0.205,0.819c-0.004,0.46,0.081,1.136,0.131,1.759
				c0.055,0.626,0.109,1.246,0.162,1.855c0.093,1.218,0.183,2.392,0.267,3.494c0.317,4.829-0.056,8.524-0.821,9.013
				c-0.585-1.643-1.026-4.495-1.416-7.911c-0.195-1.708-0.378-3.557-0.559-5.466c-0.045-0.477-0.09-0.958-0.136-1.442
				c-0.042-0.471-0.107-1.014-0.072-1.632c0.033-0.605,0.198-1.38,0.727-2.022c0.538-0.645,1.231-0.934,1.79-1.111
				c3.54-1.014,7.53-0.57,11.231,0.759c3.729,1.29,7.193,3.442,10.482,5.522c3.298,2.078,6.557,4.086,9.9,5.227
				c1.668,0.572,3.333,0.973,4.871,0.977c1.557,0.018,2.853-0.39,4.101-1.145c0.953-0.561,1.912-1.296,2.912-2.019l2.971-2.169
				c1.981-1.446,3.962-2.892,5.935-4.333c4.433-3.212,8.833-6.4,13.137-9.519l2.739-1.866l0.339-0.23
				c-0.015,0.111-0.065,0.272-0.095,0.405l-0.21,0.838l-0.417,1.669c-0.266,1.115-0.612,2.187-0.912,3.275l-0.233,0.812
				l-0.057,0.198l-0.042,0.109l-0.084,0.219l-0.337,0.874c-0.918,2.32-2.076,4.523-3.424,6.579
				c-2.69,4.123-6.171,7.624-10.079,10.416c-2.854,2.041-5.939,3.632-9.108,4.827c-3.166,1.216-6.416,2.057-9.69,2.614
				c-3.496,0.615-7.029,0.843-10.537,0.772c-1.754-0.038-3.503-0.149-5.24-0.348l-1.304-0.152c-0.458-0.067-0.905-0.179-1.336-0.35
				c-0.427-0.178-0.853-0.401-1.2-0.764C406.099,278.127,405.896,277.55,406.014,277.042z"/>
		</g>
	</g>
	<g>
		<g>
			<path fill-rule="evenodd" clip-rule="evenodd" fill="#7CA7D9" d="M414.305,257.748c-0.546,0.779-1.53,1.263-2.063,2.128
				c-0.207,0.335-0.379,0.7-0.508,1.085l-0.056,0.167l0.136-0.102c2.225-1.674,4.414-3.856,6.668-5.568
				c0.781-0.873,1.55-1.62,2.376-2.416c0.409-0.402,0.831-0.817,1.28-1.259c0.105-0.107,0.212-0.215,0.321-0.325l0.222-0.236
				c0.155-0.165,0.297-0.322,0.413-0.462c0.18-0.21,0.286-0.399,0.329-0.527c-0.003-0.009,0.023-0.028-0.005-0.027l-0.093,0.009
				l-0.177,0.019l-0.315,0.038c-0.191,0.022-0.342,0.042-0.467,0.07l-0.322,0.057l-0.715,0.17c-0.586,0.112-1.159,0.312-1.728,0.516
				c-1.139,0.4-2.244,0.943-3.347,1.499c-2.207,1.147-4.384,2.494-6.88,3.644c-0.502,0.247-1.077,0.466-1.687,0.667
				c-0.678,0.268-1.493,0.465-2.277,0.692c-0.406,0.079-0.82,0.135-1.217,0.189c-0.199,0.024-0.393,0.053-0.585,0.065
				c-0.193-0.008-0.382-0.016-0.569-0.024c-0.403-0.025-0.779-0.09-1.108-0.185c-0.328-0.132-0.61-0.308-0.834-0.488
				c-0.45-0.364-0.661-0.778-0.621-1.177c0.292-0.175,0.635-0.281,1.014-0.335c0.19-0.029,0.388-0.035,0.598-0.049
				c0.212-0.039,0.433-0.069,0.661-0.092c0.228-0.023,0.464-0.038,0.706-0.049c0.245-0.045,0.494-0.09,0.747-0.136
				c0.508-0.06,1.029-0.203,1.54-0.368c1.724-0.534,3.732-1.522,5.748-2.602c2.016-1.078,4.082-2.191,5.92-2.928l0.922-0.37
				l0.965-0.308c0.633-0.229,1.317-0.353,1.992-0.489c0.177-0.023,0.292-0.088,0.626-0.096l0.872-0.006l1.739-0.009
				c1.145,0.053,2.303,0.178,3.386,0.266c-0.515,0.55-1.011,1.078-1.504,1.605c-0.476,0.504-0.951,1.005-1.423,1.504l-1.3,1.323
				c-0.516,0.505-1.035,1.002-1.558,1.489c-1.048,0.971-2.119,1.897-3.229,2.755c-1.619,1.255-3.343,2.253-4.994,3.301
				c-0.595,0.376-1.196,0.738-1.799,1.089l-1.629,0.948l0.77-1.642C411.886,259.402,413.002,258.327,414.305,257.748z"/>
		</g>
	</g>
	<g>
		<g>
			<path fill-rule="evenodd" clip-rule="evenodd" fill="#7CA7D9" d="M453.556,251.551c0.239-0.973,1.021-1.843,1.248-2.893
				c0.155-0.678,0.188-1.406,0.105-2.133l-0.002-0.001c-1.803,2.038-3.792,4.272-6.024,5.901c-0.434,0.455-0.872,0.872-1.325,1.267
				c-0.226,0.199-0.455,0.393-0.69,0.584c-0.235,0.192-0.446,0.364-0.809,0.64c-0.64,0.497-1.379,1.036-2.145,1.591
				c-0.389,0.282-0.79,0.573-1.206,0.874c-0.213,0.155-0.43,0.313-0.652,0.475c-0.043,0.044-0.029-0.002-0.018-0.043l0.026-0.114
				l0.053-0.229c0.035-0.154,0.071-0.31,0.107-0.467c0.114-0.541,0.229-1.087,0.346-1.647c0.096-0.503,0.277-1.378,0.232-1.324
				c0.006-0.289-0.019-0.455,0.001-0.625c-0.004-0.016,0.02-0.062-0.007-0.053l-0.091,0.038l-0.171,0.072
				c-0.108,0.049-0.213,0.082-0.299,0.14l-0.115,0.071l-0.052,0.033l-0.212,0.104c-0.287,0.128-0.539,0.334-0.81,0.495
				c-1.075,0.665-2.03,1.533-2.958,2.435c-1.837,1.849-3.465,3.981-5.315,6.158c-0.388,0.443-0.794,0.921-1.268,1.39
				c-1.03,1.104-2.357,2.456-3.613,3.262c-0.696,0.435-1.4,0.671-2.009,0.654c-0.596,0.004-1.043-0.176-1.275-0.507
				c0.254-0.669,0.93-1.177,1.691-1.871c0.787-0.642,1.686-1.434,2.51-2.286c1.384-1.442,2.913-3.331,4.522-5.231
				c1.606-1.894,3.365-3.755,5.098-5.045c0.64-0.519,1.376-0.942,2.097-1.379c0.196-0.109,0.357-0.172,0.603-0.289
				c0.356-0.158,0.722-0.34,1.071-0.478l2.076-0.643l1.056-0.326c0.167-0.045,0.371-0.129,0.508-0.141l-0.102,0.515
				c-0.148,0.699-0.25,1.346-0.437,2.083c-0.174,0.677-0.347,1.353-0.52,2.025l0.155-0.69l0.129-0.581
				c0.003,0.005,0.011,0.005,0.022,0.002l0.042-0.017l0.029-0.015l0.101-0.07c0.51-0.385,1.017-0.769,1.523-1.151l1.733-1.336
				c1.676-1.297,3.381-2.475,4.932-3.818l1.016-0.884l1.073-0.933l0,1.348C455.538,248.404,454.794,250.235,453.556,251.551z"/>
		</g>
	</g>
	<g>
		<g>
			<path fill-rule="evenodd" clip-rule="evenodd" fill="#7CA7D9" d="M235.071,209.915c-0.093,0.538-0.626,0.489-0.954,0.698
				c-1.046,0.652-2.083,1.826-3.374,2.212c-0.733,0.676-1.531,0.89-2.595,1.438c-0.457,0.242-0.85,0.628-1.291,0.859
				c-1.919,0.969-3.797,1.745-5.842,2.48c-0.21,0.074-0.44,0.14-0.681,0.202c-0.551,0.146-1.184,0.435-1.727,0.487
				c-0.598,0.05-1.197-0.51-1.441-1.277c0.173-0.954,1.125-1.084,1.99-1.418c1.454-0.552,3.494-1.226,4.895-1.756
				c1.078-0.397,2.136-0.885,3.188-1.255c1.079-0.384,2.081-0.873,3.125-1.238c0.758-0.271,1.571-0.385,2.31-0.648
				C233.462,210.415,234.255,210.151,235.071,209.915z"/>
		</g>
	</g>
	<g>
		<g>
			<path fill-rule="evenodd" clip-rule="evenodd" fill="#7CA7D9" d="M278.782,209.264c-0.245,0.474-0.71,0.249-1.066,0.334
				c-1.133,0.257-2.434,0.999-3.71,0.902c-0.874,0.371-1.655,0.287-2.784,0.408c-0.487,0.06-0.969,0.272-1.439,0.324
				c-2.035,0.188-3.971,0.189-6.038,0.061c-0.211-0.015-0.438-0.045-0.671-0.083c-0.537-0.083-1.201-0.073-1.692-0.243
				c-0.539-0.196-0.831-0.949-0.732-1.748c0.53-0.801,1.392-0.538,2.263-0.501c1.459,0.071,3.467,0.238,4.871,0.275
				c1.077,0.041,2.168-0.021,3.213,0.021c1.074,0.037,2.115-0.06,3.154-0.03c0.756,0.014,1.512,0.191,2.251,0.2
				C277.191,209.191,277.979,209.213,278.782,209.264z"/>
		</g>
	</g>
	<g>
		<g>
			<path fill-rule="evenodd" clip-rule="evenodd" fill="#7CA7D9" d="M274.128,195.003c-0.919,0.869-2.601,0.776-3.818-0.047
				c-1.293-0.786-1.98-2.337-2.207-3.872c-0.245-1.558-0.126-3.159-0.114-4.741c0.022-1.583,0.019-3.152-0.026-4.668
				c-0.147-4.823-0.538-9.834-0.581-14.984c0.003-1.287-0.052-2.582,0.064-3.887c0.112-1.293,0.477-2.639,1.347-3.681
				c0.85-1.048,2.011-1.772,3.162-2.418c1.172-0.626,2.299-1.301,3.444-1.964c9.034-5.542,16.312-13.922,20.802-23.097
				c1.729-3.777,2.885-7.547,3.812-11.446c0.505-1.948,1.053-3.918,1.96-5.812c0.452-0.943,0.982-1.879,1.697-2.713
				c0.161-0.22,0.367-0.408,0.561-0.606l0.225-0.226l0.179-0.142c0.232-0.199,0.501-0.351,0.774-0.487
				c0.217-0.088,0.432-0.186,0.666-0.228l0.172-0.042c0.057-0.014,0.15-0.029,0.042-0.037l-0.355-0.057
				c-0.483-0.074-0.916-0.162-1.512-0.212c-0.28-0.029-0.562-0.059-0.846-0.088l-0.226-0.021l-0.316-0.016l-0.635-0.032
				c-0.849-0.055-1.71-0.085-2.586-0.07c-3.498,0.007-7.202,0.368-11.108,1.173c-7.78,1.567-15.075,4.543-22.082,7.449
				c-7.867,3.254-15.595,6.71-23.734,9.061c-2.029,0.598-4.086,1.104-6.16,1.538l-1.035,0.204c-0.023,0.007-0.056,0.007-0.071,0.021
				l-0.004,0.079l-0.02,0.3l-0.227,3.122c-0.373,4.998-0.746,9.996-1.119,15.008c-0.639-0.699-1.246-1.395-1.924-2.104l-0.998-1.061
				c-0.296-0.31-0.769-0.689-0.861-0.765c-0.687-0.576-1.442-1.07-2.218-1.524c-1.571-0.876-3.282-1.526-5.056-1.866
				c-0.888-0.157-1.786-0.283-2.689-0.289c-0.451-0.032-0.901,0.014-1.351,0.019c-0.225,0.011-0.448,0.044-0.672,0.064l-0.179,0.018
				l-0.036,0.006c-0.044,0.012-0.114,0.006-0.076,0.069l0.015,0.048l0.124,0.494c0.309,0.863,0.573,1.743,0.992,2.566
				c3.074,6.681,9.929,11.771,17.445,12.445c0.198,0.031,0.397,0.044,0.598,0.042l0.947,0.023c0.425,0.011,0.853,0.021,1.282,0.032
				l0.325,0.008l0.163,0.004c0.04,0.015,0.144-0.032,0.118,0.048l0.001,0.652c-0.002,1.189-0.003,2.397-0.005,3.622
				c-0.011,1.828-0.049,3.703-0.098,5.607c-0.121,4.371-0.255,9.186-0.386,13.936c-0.055,2.369-0.095,4.719-0.109,6.986
				c-0.002,1.123-0.023,2.271,0.003,3.308c0.007,0.569,0.024,1.241-0.199,2.007c-0.054,0.189-0.13,0.383-0.224,0.572
				c-0.089,0.187-0.223,0.394-0.292,0.484c-0.169,0.234-0.337,0.466-0.503,0.696c-1.535,1.965-3.413,3.31-5.175,4.271
				c-1.769,0.969-3.457,1.556-4.901,1.96c-2.903,0.787-4.861,0.795-5.324,0.517c1.463-0.588,3.458-1.281,5.699-2.34
				c2.222-1.057,4.767-2.463,6.829-4.635c0.523-0.533,0.976-1.136,1.401-1.765l0.08-0.116l0.037-0.067
				c0.022-0.048,0.046-0.094,0.064-0.151c0.038-0.109,0.069-0.24,0.088-0.389c0.037-0.305,0.034-0.673,0.017-1.094
				c-0.045-1.767-0.034-3.501-0.022-5.306c0.031-3.588,0.135-7.282,0.233-10.931c0.061-2.445,0.124-4.985,0.189-7.598
				c0.021-1.304,0.041-2.626,0.063-3.964c0.005-1.243,0.01-2.5,0.015-3.77c-0.003-0.026,0.001-0.059-0.007-0.079l-0.098,0.002
				l-0.339-0.007c-0.184-0.006-0.369-0.003-0.551-0.031l-1.099-0.131c-1.468-0.177-2.914-0.548-4.328-1.017
				c-2.827-0.954-5.475-2.477-7.775-4.42c-2.302-1.939-4.269-4.299-5.721-6.95c-0.738-1.319-1.302-2.729-1.764-4.163
				c-0.143-0.424-0.558-2.232-0.828-3.453c0.609-0.162,1.333-0.247,1.993-0.373c0.322-0.064,0.71-0.117,0.957-0.134l0.565-0.057
				c3.02-0.229,6.017,0.312,8.702,1.426c1.339,0.568,2.601,1.281,3.755,2.117c0.29,0.207,0.578,0.416,0.845,0.65l0.235,0.197
				l0.036,0.036c0.434-5.65,0.783-10.184,1.103-14.349l0.032-0.421l0.008-0.105c0.011-0.028,0.063-0.019,0.092-0.031l0.207-0.04
				l0.831-0.159l1.257-0.24c0.55-0.102,1.099-0.209,1.645-0.34c1.096-0.235,2.186-0.505,3.272-0.795
				c2.172-0.585,4.333-1.236,6.471-1.976c4.284-1.453,8.498-3.165,12.704-4.896c8.391-3.474,16.84-7.055,25.617-9.064
				c4.045-0.952,8.169-1.573,12.311-1.724c1.033-0.067,2.072-0.021,3.105-0.029c0.517,0.009,1.034,0.05,1.55,0.073l0.774,0.042
				c0.154,0.013,0.202,0,0.443,0.035l0.633,0.081c1.692,0.219,3.311,0.404,5.24,0.744l2.473,0.409l0.321,0.071l2.054,0.359
				l-5.652,1.373l-0.682,0.166l-0.168,0.041l-0.063,0.032l-0.127,0.063l-0.506,0.254l-1.011,0.507
				c-0.179,0.083-0.337,0.169-0.439,0.264l-0.22,0.216l-0.274,0.272c-0.179,0.186-0.334,0.407-0.505,0.607
				c-0.642,0.855-1.159,1.86-1.597,2.916c-0.888,2.126-1.422,4.426-2.062,6.789c-1.3,4.769-3.212,9.343-5.741,13.523
				c-3.298,5.594-7.608,10.42-12.467,14.416c-2.441,1.992-5.058,3.731-7.776,5.255c-1.353,0.784-2.78,1.425-3.996,2.183
				c-1.228,0.767-2.188,1.742-2.589,3.049c-0.449,1.396-0.423,3.017-0.455,4.643c-0.024,1.621-0.026,3.241,0.001,4.861
				c0.087,3.248,0.173,6.492,0.26,9.733c0.034,1.625,0.046,3.251,0.028,4.876c0.002,1.626-0.117,3.256-0.001,4.82
				c0.12,1.542,0.549,3.148,1.678,4.151C271.124,195.405,272.903,195.9,274.128,195.003z"/>
		</g>
	</g>
	<g>
		<g>
			<path fill-rule="evenodd" clip-rule="evenodd" fill="#7CA7D9" d="M222.229,145.141c0.439-0.245,0.636,0.111,0.973,0.125
				c0.495,0.019,0.986-0.181,1.558-0.225c0.568-0.048,1.251,0.167,1.584,0.679c0.797,0.45,0.983,1.276,1.178,2.225
				c0.094,0.422,0.313,0.842,0.346,1.261c0.007,0.206,0.025,0.415,0.019,0.618c0.001,0.081-0.007,0.251,0.001,0.258l0.018,0.068
				c0.025,0.083,0.044,0.135,0.066,0.165c0.096-0.02,0.183-0.059,0.228-0.085l0.03-0.021l0.324-0.014l0.656-0.026
				c0.168-0.007,0.349-0.001,0.536,0.013c0.43,0.03,0.952-0.072,1.355,0.032c0.442,0.114,0.761,0.814,0.781,1.619
				c-0.331,0.872-1.077,0.743-1.798,0.808c-0.523,0.047-1.134,0.067-1.747,0.073c-1.16-0.017-2.314-0.033-3.319-0.047
				c0.1-0.445,0.177-0.785,0.25-1.107c0.218-0.874,0.372-1.996,0.357-2.17c0.027-0.39,0.017-0.759,0.022-1.109
				c-0.011-0.726-0.241-1.275-0.474-1.594c-0.163-0.257-0.413-0.64-0.983-0.767C223.625,145.775,222.808,145.672,222.229,145.141z"
				/>
		</g>
	</g>
	<g>
		<path fill="#7DA7D7" d="M280.387,115.58c2.708,7.148,3.691,14.943,2.843,22.539c-0.049,0.444-0.087,0.947,0.209,1.28
			c0.235,0.265,0.615,0.339,0.967,0.372c2.322,0.214,4.723-0.823,6.159-2.66c1.436-1.838,1.862-4.418,1.092-6.619
			c-0.352-1.008-0.928-1.919-1.5-2.821c-2.688-4.241-5.376-8.482-8.064-12.723"/>
		<g>
			<path fill-rule="evenodd" clip-rule="evenodd" fill="#7DA7D7" d="M281.879,115.084c0.908,0.636,1.356,1.904,1.994,2.866
				c2.03,3.061,4.815,6.377,6.742,9.798c0.873,1.095,1.63,2.316,1.874,3.82c0.239,1.476,0.074,3.135-0.772,4.853
				c-0.725,1.475-1.891,2.806-3.361,3.527c-0.788,0.397-1.643,0.647-2.517,0.77c-0.439,0.049-0.882,0.083-1.326,0.056
				c-0.171,0.001-0.607-0.035-0.901-0.128c-0.319-0.094-0.616-0.25-0.852-0.477c-0.488-0.454-0.654-1.151-0.607-1.832l0.087-1.196
				c0.06-0.745,0.083-1.492,0.106-2.238c0.065-2.984-0.123-5.979-0.626-9.022c-0.105-0.624-0.217-1.293-0.333-1.988
				c-0.275-1.6-0.858-3.463-1.221-4.942c-0.388-1.621-0.197-3.044,0.506-3.479c1.26,0.814,2.124,3.675,2.805,6.433
				c0.596,2.32,1.062,5.158,1.239,8.001c0.193,2.842,0.084,5.679-0.153,7.99l-0.051,0.548l0.004,0.012
				c0.005,0.007,0.014,0.008,0.02,0.006l0.394,0.016c0.175-0.001,0.35-0.004,0.525-0.022c0.349-0.032,0.699-0.09,1.039-0.189
				c1.368-0.377,2.581-1.243,3.326-2.36c0.782-1.154,1.095-2.643,0.903-4.011c-0.153-1.347-0.98-2.62-1.84-4.08
				c-1.224-2.089-2.257-4.205-3.414-6.227C284.233,119.427,283.036,117.267,281.879,115.084z"/>
		</g>
	</g>
	<g>
		<g>
			<path fill-rule="evenodd" clip-rule="evenodd" fill="#7CA7D9" d="M198.8,372.356c-1.986-1.712-3.974-4.36-5.947-6.513
				c-3.125-3.425-6.64-7.023-9.914-10.962c-3.242-3.954-6.439-8.029-9.47-11.932c-2.346-2.652-4.477-5.136-6.864-7.686
				c-2.385-2.548-4.99-5.208-8.372-8.051c-2.911-2.466-6.076-4.517-9.152-6.416c-0.829-0.523-1.658-1.038-2.516-1.498l-1.455-0.819
				l-1.103-0.626c-0.088-0.054-0.193-0.101-0.267-0.16l0.126-0.287l0.253-0.576c0.458-1.049,0.914-2.096,1.37-3.14
				c0.444-0.885,0.887-1.768,1.33-2.649c1.846-3.487,4.006-6.774,6.39-9.875c4.742-6.237,10.452-11.595,15.462-17.66
				c1.018-1.248,2.09-2.607,3.103-4.068c0.308-0.437,0.623-0.884,0.944-1.34c0.335-0.449,0.675-0.906,1.019-1.368
				c0.673-0.896,1.36-1.811,2.042-2.719c1.336-1.815,2.563-3.639,3.567-5.271c1.019-1.656,1.943-3.157,2.793-4.537
				c0.762-1.17,1.306-1.963,1.771-2.044c0.063,1.599-0.67,4.23-2.142,7.033c-1.452,2.813-3.609,5.783-5.734,8.579
				c-0.432,0.585-0.874,1.184-1.325,1.795c-0.438,0.634-0.884,1.281-1.338,1.938c-0.456,0.683-0.963,1.34-1.477,2.005
				c-0.505,0.675-1.037,1.338-1.591,1.99c-2.187,2.642-4.613,5.222-6.996,7.781c-2.383,2.561-4.734,5.104-6.807,7.65
				c-2.072,2.545-3.92,5.053-5.409,7.424c-1.143,1.818-2.201,3.694-3.155,5.623c-0.256,0.473-0.479,0.963-0.692,1.457l-0.578,1.301
				c-0.008,0.018,0,0.014,0,0.014c-0.22-0.128,0.507,0.289,0.948,0.542c3.851,2.239,7.477,4.799,10.782,7.576
				c6.795,5.693,12.49,12.208,17.624,18.861c1.873,2.429,3.641,4.866,5.388,7.277c1.749,2.42,3.451,4.783,5.33,7.029
				C190.708,362.87,194.912,367.471,198.8,372.356z"/>
		</g>
	</g>
	<g>
		<g>
			<path fill-rule="evenodd" clip-rule="evenodd" fill="#7CA7D9" d="M180.073,410.242c-2.045,0.841-4.565,1.341-7.165,1.407
				c-0.65,0.018-1.305,0.013-1.959-0.021c-0.654-0.035-1.311-0.06-1.928-0.251c-0.607-0.181-1.223-0.476-1.557-0.985
				c-0.335-0.513-0.179-1.193,0.149-1.68c0.266-0.405,0.663-0.672,1.163-0.756c0.487-0.124,0.976-0.248,1.468-0.373
				c0.985-0.245,1.985-0.474,2.984-0.747c0.998-0.273,1.995-0.588,2.97-0.979c0.971-0.402,1.913-0.884,2.823-1.433
				c1.802-1.126,3.443-2.53,4.963-4.064c1.54-1.496,2.6-3.457,3.822-5.244c0.523-0.911,0.716-1.985,0.793-3.057
				c0.046-1.081,0.049-2.169-0.071-3.244c-0.224-2.153-0.85-4.25-1.787-6.19c-1.898-3.891-4.879-7.11-7.942-10.003
				c-4.617-3.93-9.084-7.368-13.981-10.843c-4.916-3.451-10.294-6.935-16.996-10.556c-2.891-1.561-5.826-2.996-8.758-4.342
				c-2.929-1.325-5.899-2.581-8.728-4.021c-3.059-1.566-6.056-3.265-8.805-5.347c-2.752-2.056-5.282-4.516-7.138-7.497
				c-0.95-1.444-1.666-3.201-1.981-4.967c-0.318-1.779-0.274-3.612,0.076-5.336c0.688-3.467,2.211-6.577,3.826-9.51
				c3.255-5.786,6.641-11.585,10.544-17.094c3.871-5.532,8.162-10.83,12.67-16.044c1.847-2.135,3.863-4.41,5.95-6.75
				c4.827-5.371,10.344-12.023,14.431-17.382c4.518-5.847,8.024-10.241,9.088-10.346c-0.526,1.206-1.36,2.769-2.418,4.595
				c-1.097,1.798-2.425,3.857-3.97,6.024c-3.055,4.366-6.993,9.147-10.922,13.745c-6.601,7.75-14.891,16.577-21.867,26.276
				c-3.516,4.841-6.604,9.891-9.475,14.837c-1.442,2.472-2.839,4.844-3.889,7.213c-1.074,2.357-1.775,4.722-1.872,6.945
				c-0.078,1.702,0.221,3.378,0.918,4.91c0.71,1.54,1.717,3.061,2.89,4.396c2.357,2.701,5.315,4.917,8.45,6.828
				c3.144,1.914,6.47,3.544,9.829,5.105c3.386,1.571,6.732,3.224,9.968,4.965c6.646,3.568,13.005,7.48,19.026,11.748
				c3.011,2.133,5.931,4.362,8.763,6.674c2.817,2.315,5.62,4.673,8.144,7.375c1.828,1.971,3.512,4.105,4.793,6.493
				c1.269,2.386,2.141,5.011,2.388,7.693c0.103,1.345,0.099,2.672-0.039,4.012c-0.082,0.674-0.21,1.362-0.449,2.042
				c-0.12,0.339-0.267,0.675-0.448,0.999c-0.178,0.326-0.418,0.642-0.579,0.864c-0.719,1.01-1.429,2.089-2.244,3.113
				c-0.397,0.504-0.873,1.04-1.348,1.468c-0.47,0.439-0.93,0.887-1.427,1.3c-2.061,1.813-4.442,3.359-7.053,4.298
				c-1.3,0.475-2.631,0.809-3.946,1.106l-1.964,0.435l-0.973,0.224c-0.301,0.079-0.712,0.151-0.856,0.229
				c-0.402,0.189-0.75,0.73-0.771,1.198c-0.044,0.432,0.302,0.826,0.839,1.091c0.529,0.261,1.14,0.4,1.771,0.439
				c0.657,0.053,1.316,0.074,1.975,0.079C174.879,411.315,177.523,410.959,180.073,410.242z"/>
		</g>
	</g>
	<g>
		<g>
			<path fill-rule="evenodd" clip-rule="evenodd" fill="#7CA7D9" d="M219.747,560.609c-0.644,0.47-1.621,0.604-2.54,0.402
				c-0.926-0.197-1.789-0.658-2.529-1.16c-1.198-0.783-2.181-1.97-2.973-3.296c-0.796-1.332-1.415-2.808-2.016-4.284
				c-1.208-2.956-2.358-5.993-3.202-8.973c-1.631-4.133-2.586-7.801-4.086-13.16c-0.649-2.312-1.421-4.567-1.977-6.794
				c-2.408-9.645-4.076-18.896-5.276-28.862c-0.11-1.017-0.229-2.111-0.351-3.245c-0.263-2.603-0.778-5.674-1.173-8.049
				c-0.407-2.603-0.376-4.686,0.322-5.177c0.707,0.771,1.361,2.31,1.854,4.212c0.498,1.901,0.841,4.15,1.152,6.338
				c0.516,3.694,0.955,8.045,1.581,12.353c0.605,4.31,1.311,8.575,1.971,12.061c1.002,5.351,2.268,10.726,3.522,15.856
				c1.288,5.262,2.803,10.326,4.313,15.31c1.116,3.612,2.053,7.235,3.302,10.602c0.697,1.757,1.611,3.439,3.015,4.595
				C216.045,560.488,217.969,561.156,219.747,560.609z"/>
		</g>
	</g>
	<g>
		<g>
			<path fill-rule="evenodd" clip-rule="evenodd" fill="#7CA7D9" d="M216.47,579.238c-0.489-0.288-0.287-0.821-0.391-1.234
				c-0.329-1.313-1.177-2.778-1.204-4.245c-0.463-0.976-0.447-1.876-0.776-3.114c-0.144-0.535-0.474-1.015-0.643-1.512
				c-0.734-2.153-1.497-4.194-2.29-6.385c-0.082-0.224-0.158-0.47-0.23-0.726c-0.165-0.59-0.502-1.257-0.588-1.835
				c-0.095-0.634,0.418-1.301,1.166-1.601c0.973,0.15,1.194,1.202,1.587,2.155c0.657,1.607,1.383,3.902,1.86,5.526
				c0.37,1.24,0.768,2.524,0.964,3.807c0.197,1.316,0.399,2.546,0.483,3.763c0.059,0.888-0.054,1.777-0.003,2.637
				C216.453,577.392,216.487,578.309,216.47,579.238z"/>
		</g>
	</g>
	<g>
		<g>
			<path fill-rule="evenodd" clip-rule="evenodd" fill="#7CA7D9" d="M236.215,481.407c0.637,1.675,0.614,3.924,0.88,5.871
				c0.841,6.188,2.279,13.374,2.793,20.028c0.807,4.717,1.092,8.784,1.701,14.75c0.282,2.572,0.668,5.106,0.914,7.565
				c0.471,5.331,0.864,10.518,1.1,15.73c0.282,5.209,0.353,10.443,0.356,15.857c-0.011,1.109-0.057,2.305-0.1,3.541
				c-0.07,2.845-0.195,6.276-0.449,8.945c-0.362,2.927-1.246,5.065-2.068,5.23c-0.348-1.059-0.387-2.799-0.298-4.862
				c0.088-2.088,0.189-4.461,0.288-6.808c0.03-1.981,0.064-4.152,0.098-6.415c-0.02-2.266,0.026-4.622-0.033-6.972
				c-0.069-4.699-0.225-9.367-0.428-13.196c-0.272-5.878-0.784-11.829-1.192-17.529c-0.438-5.845-1.045-11.533-1.539-17.149
				c-0.368-4.095-0.567-8.077-0.933-12.017C236.913,489.768,236.543,485.589,236.215,481.407z"/>
		</g>
	</g>
	<g>
		<g>
			<path fill-rule="evenodd" clip-rule="evenodd" fill="#7CA7D9" d="M262.612,579.84c-0.742-1.577-0.863-3.761-1.228-5.633
				c-1.181-5.943-2.856-12.883-3.284-19.374c-0.732-4.6-0.896-8.58-0.935-14.429c-0.017-2.522-0.136-5.019-0.048-7.424
				c0.392-10.416,1.409-20.171,2.426-30.586c0.115-1.066,0.238-2.213,0.366-3.401c0.308-2.73,0.539-6.029,0.861-8.586
				c0.371-2.804,1.199-4.875,2.031-5.067c0.733,2.042,0.213,6.821-0.191,11.4c-0.664,7.716-1.892,18.376-2.524,25.801
				c-0.492,5.695-0.862,11.478-1.014,16.989c-0.171,5.642,0.199,11.147,0.667,16.579c0.341,3.957,0.616,7.81,1.128,11.612
				C261.412,571.784,262.014,575.809,262.612,579.84z"/>
		</g>
	</g>
	<g>
		<g>
			<path fill-rule="evenodd" clip-rule="evenodd" fill="#7CA7D9" d="M282.437,567.35c-0.138-0.011-0.306-0.044-0.474,0.084
				c-0.15,0.128-0.159,0.288-0.159,0.407c0.019,0.244,0.106,0.452,0.22,0.646c0.115,0.191,0.272,0.369,0.484,0.466
				c0.214,0.079,0.432,0.139,0.659,0.176c0.899,0.171,1.895,0.027,2.686-0.389c1.277-0.637,2.279-1.825,2.838-3.195
				c0.584-1.369,0.826-2.872,1.026-4.383c0.397-3.037,0.75-6.123,1.236-9.052c0.237-4.249,0.827-7.841,1.289-13.146
				c0.194-2.292,0.185-4.574,0.331-6.765c0.631-9.514,1.225-18.459,1.86-28.033c0.082-0.982,0.17-2.038,0.262-3.133
				c0.235-2.516,0.389-5.557,0.719-7.918c0.353-2.591,1.278-4.476,2.095-4.604c0.664,1.9,0.106,6.225-0.173,10.428
				c-0.486,7.064-1.225,16.885-1.763,23.725c-0.412,5.247-0.792,10.576-1.358,15.667c-0.594,5.234-1.173,10.292-1.95,15.291
				c-0.29,1.819-0.634,3.601-1.006,5.36c-0.391,1.751-0.702,3.502-1.289,5.271c-0.314,0.937-0.743,1.863-1.337,2.688
				c-0.597,0.839-1.389,1.534-2.294,2.001c-0.901,0.466-1.946,0.728-2.975,0.581c-0.255-0.04-0.507-0.094-0.75-0.181
				c-0.1-0.029-0.299-0.103-0.417-0.209c-0.131-0.1-0.226-0.221-0.307-0.344c-0.152-0.252-0.242-0.518-0.251-0.824
				c0.006-0.151,0.011-0.341,0.186-0.53C282.031,567.235,282.302,567.293,282.437,567.35z"/>
		</g>
	</g>
	<g>
		<g>
			<path fill-rule="evenodd" clip-rule="evenodd" fill="#7CA7D9" d="M288.966,584.167c-0.407-0.324-0.083-0.688-0.086-1.026
				c-0.008-1.075-0.498-2.366-0.218-3.494c-0.245-0.838-0.058-1.525-0.086-2.554c-0.011-0.444-0.207-0.892-0.227-1.314
				c-0.094-1.886-0.177-3.56-0.267-5.361c-0.012-0.187-0.011-0.388-0.004-0.596c0.013-0.48-0.11-1.054-0.029-1.508
				c0.088-0.497,0.77-0.895,1.572-0.968c0.889,0.32,0.807,1.179,0.9,1.999c0.164,1.381,0.147,3.311,0.106,4.648
				c-0.027,1.027-0.026,2.068-0.146,3.053c-0.123,1.011-0.161,1.997-0.341,2.957c-0.132,0.7-0.438,1.364-0.588,2.034
				C289.393,582.753,289.202,583.461,288.966,584.167z"/>
		</g>
	</g>
	<g>
		<g>
			<path fill-rule="evenodd" clip-rule="evenodd" fill="#7CA7D9" d="M310.809,107.034c0.306,0.154,0.74,0.448,1.058,0.736
				c0.344,0.299,0.64,0.699,1.153,1.658c0.096-0.146,0.222-0.074,0.342,0.078c0.12,0.146,0.243,0.345,0.351,0.572
				c0.058,0.11,0.106,0.233,0.158,0.355l0.072,0.19l0.018,0.047l-0.008-0.059l-0.016-0.119c-0.041-0.31-0.082-0.622-0.124-0.936
				c-0.172-1.234-0.273-2.454-0.472-3.712c-0.199-1.224-0.399-2.457-0.597-3.675c-0.263-1.206-0.522-2.397-0.774-3.556
				c-2.19-8.639-5.942-17.681-11.295-25.885c-5.305-8.223-12.001-15.692-19.351-21.65c-2.708-2.025-5.479-3.758-8.453-4.982
				c-2.964-1.24-6.141-1.877-9.453-2.202c-3.319-0.315-6.786-0.307-10.485-0.265c-3.696,0.053-7.616,0.167-11.859,0.497
				c-7.325,0.556-14.479,1.858-21.164,3.781c-7.225,2.107-14.083,5.164-20.067,9.398c-2.993,2.111-5.742,4.519-8.209,7.19
				c-2.467,2.677-4.672,5.603-6.75,8.631c-2.069,3.045-4.111,6.11-5.622,9.372c-1.545,3.249-2.359,6.742-2.443,10.336
				c-0.085,3.59,0.552,7.214,1.63,10.721c1.09,3.522,2.687,6.867,4.552,10.183c1.51,2.714,3.268,5.577,5.187,8.48
				c2.211,3.341,4.813,6.924,7.43,10.437c2.599,3.513,5.16,6.974,7.411,10.016c1.217,1.575,2.455,2.742,3.879,3.405
				c1.417,0.695,2.92,0.999,4.211,1.234c0.64,0.104,1.238,0.202,1.796,0.292c0.266,0.044,0.522,0.087,0.768,0.128
				c0.23,0.045,0.414,0.071,0.61,0.075c0.38,0.008,0.703-0.042,0.937-0.187c0.238-0.144,0.309-0.326,0.412-0.391
				c0.113,0.467-0.313,0.97-0.798,1.174c-0.45,0.238-1.057,0.291-1.507,0.322c-0.975,0.076-2.077,0.13-3.296,0.053
				c-1.215-0.075-2.562-0.279-3.937-0.811c-1.382-0.517-2.725-1.463-3.812-2.599c-1.106-1.134-2.033-2.425-2.975-3.677
				c-0.948-1.265-1.922-2.564-2.911-3.884c-1.981-2.642-4.025-5.374-6.016-8.112c-3.342-4.609-6.911-9.786-10.063-15.561
				c-3.186-5.738-5.726-12.432-5.99-19.467c-0.143-3.5,0.358-7.061,1.514-10.351c1.161-3.283,2.864-6.225,4.614-8.95
				c3.505-5.407,7.185-10.416,11.233-14.35c6.188-6.058,13.874-10.461,21.903-13.403c8.053-2.963,16.471-4.455,24.676-5.167
				c4.213-0.362,8.403-0.541,12.564-0.615c4.154-0.043,8.292-0.138,12.484,0.25c4.162,0.372,8.411,1.369,12.163,3.342
				c3.753,1.936,7.038,4.511,10.05,7.246c8.853,7.976,15.588,17.547,20.482,27.796c2.44,5.118,4.38,10.445,5.785,15.892
				c0.173,0.682,0.365,1.358,0.521,2.043l0.433,2.063c0.138,0.688,0.3,1.372,0.418,2.063l0.331,2.079l0.167,1.05
				c0.073,0.443,0.139,0.88,0.183,1.322l0.289,2.596l0.14,1.263c0.03,0.346,0.158,1.128-0.015,0.543
				c-0.109-0.268-0.234-0.488-0.364-0.603c-0.127-0.092-0.27-0.159-0.348,0.442l-0.655-1.505l-0.425-0.879l-0.319-0.555
				l-0.277-0.338c-0.181-0.192-0.365-0.364-0.55-0.519l-0.284-0.22L310.809,107.034z"/>
		</g>
	</g>
	<g>
		<g>
			<path fill-rule="evenodd" clip-rule="evenodd" fill="#7CA7D9" d="M274.139,105.845c0.004-0.467,0.026-0.859,0.014-1.298
				c-0.012-0.432-0.061-0.885-0.194-1.28c-0.861-2.491-2.408-5.188-3.231-7.859c-1.003-1.754-1.519-3.381-2.618-5.637
				c-0.471-0.974-1.12-1.85-1.6-2.76c-2.093-3.939-4.174-7.584-6.598-11.355c-0.242-0.392-0.5-0.811-0.769-1.247
				c-0.607-1.01-1.474-2.136-2.01-3.109c-0.059-0.109-0.112-0.219-0.157-0.328l2.005-1.478c0.503,0.936,0.485,1.922-0.017,2.45
				c-0.579-0.054-1.155-0.459-1.742-1.031l1.629-1.201c0.585,0.7,1.185,1.595,1.78,2.467c0.969,1.383,2.05,3.087,3.068,4.812
				c1.018,1.725,1.973,3.471,2.729,4.919c1.171,2.215,2.317,4.487,3.258,6.73c0.964,2.299,1.926,4.534,2.667,6.814
				c0.549,1.659,0.867,3.337,1.305,4.952c0.234,0.863,0.438,1.732,0.643,2.597C274.487,103.854,274.71,104.943,274.139,105.845z"/>
		</g>
	</g>
	<g>
		<g>
			<path fill-rule="evenodd" clip-rule="evenodd" fill="#7CA7D9" d="M278.685,106.987c-0.492-0.375-0.284-0.977-0.387-1.467
				c-0.353-1.559-1.314-3.225-1.564-4.889c-0.615-1.074-0.767-2.093-1.356-3.482c-0.241-0.603-0.69-1.117-0.943-1.677
				c-1.162-2.404-2.343-4.612-3.762-6.872c-0.149-0.229-0.298-0.483-0.446-0.749c-0.336-0.617-0.895-1.259-1.172-1.864
				c-0.317-0.652-0.055-1.502,0.566-2.018c1.015-0.074,1.646,1.047,2.359,2.043c0.6,0.841,1.251,1.891,1.845,2.963
				c0.589,1.075,1.13,2.166,1.544,3.075c0.653,1.387,1.268,2.82,1.721,4.239c0.455,1.456,0.916,2.872,1.194,4.313
				c0.191,1.054,0.175,2.115,0.282,3.13C278.674,104.818,278.715,105.903,278.685,106.987z"/>
		</g>
	</g>
	<g>
		<g>
			<path fill-rule="evenodd" clip-rule="evenodd" fill="#7CA7D9" d="M290.73,107.743c0.389,0.477,0.271,1.103,0.264,1.686
				l0.188-0.027c-0.017-0.108-0.038-0.214-0.066-0.316c-0.55-2.066-1.747-4.312-2.202-6.533c-0.751-1.465-1.04-2.819-1.79-4.71
				c-0.33-0.813-0.822-1.554-1.162-2.316c-1.446-3.313-2.905-6.383-4.59-9.598c-0.173-0.329-0.355-0.686-0.533-1.06
				c-0.405-0.864-1.05-1.821-1.387-2.657c-0.383-0.909-0.138-1.899,0.521-2.371c1.106,0.177,1.829,1.718,2.65,3.124
				c0.684,1.188,1.448,2.638,2.146,4.108c0.705,1.466,1.352,2.948,1.864,4.171c0.787,1.876,1.586,3.783,2.178,5.669
				c0.611,1.93,1.254,3.799,1.686,5.699c0.322,1.383,0.43,2.773,0.662,4.113c0.159,0.862,0.267,1.731,0.381,2.594l-0.91,0.132
				C290.662,108.891,290.696,108.323,290.73,107.743z"/>
		</g>
	</g>
	<g>
		<g>
			<path fill-rule="evenodd" clip-rule="evenodd" fill="#7CA7D9" d="M294.461,107.022c-0.509-0.274-0.342-0.833-0.475-1.254
				c-0.421-1.341-1.385-2.787-1.558-4.288c-0.556-0.965-0.647-1.885-1.066-3.167c-0.181-0.553-0.534-1.055-0.713-1.581
				c-0.777-2.278-1.439-4.443-2.137-6.762c-0.072-0.237-0.136-0.497-0.196-0.767c-0.138-0.621-0.438-1.335-0.494-1.937
				c-0.062-0.661,0.487-1.312,1.252-1.566c0.966,0.226,1.13,1.324,1.472,2.333c0.576,1.697,1.191,4.103,1.628,5.775
				c0.335,1.283,0.72,2.572,0.978,3.834c0.264,1.294,0.611,2.534,0.812,3.791c0.147,0.917,0.116,1.847,0.233,2.735
				C294.323,105.114,294.414,106.063,294.461,107.022z"/>
		</g>
	</g>
	<g>
		<g>
			<path fill-rule="evenodd" clip-rule="evenodd" fill="#7CA7D9" d="M300.291,110.825c-0.523-0.53-0.36-1.352-0.5-2.027
				c-0.449-2.149-1.467-4.564-1.727-6.888c-0.63-1.576-0.776-2.999-1.36-5.01c-0.239-0.871-0.692-1.672-0.946-2.49
				c-1.164-3.526-2.385-6.789-4.007-10.105c-0.174-0.335-0.348-0.703-0.523-1.086c-0.389-0.89-1.064-1.846-1.417-2.688
				c-0.418-0.902-0.216-1.917,0.417-2.427c1.118,0.149,1.946,1.731,2.79,3.201c0.354,0.621,0.708,1.32,1.083,2.047
				c0.342,0.741,0.703,1.511,1.029,2.292c0.645,1.564,1.217,3.142,1.638,4.449c0.671,2,1.269,4.048,1.705,6.037
				c0.439,2.04,0.884,4.019,1.165,5.997c0.195,1.443,0.197,2.869,0.338,4.257C300.126,107.868,300.232,109.344,300.291,110.825z"/>
		</g>
	</g>
	<g>
		<g>
			<path fill-rule="evenodd" clip-rule="evenodd" fill="#7CA7D9" d="M256.572,125.154c-0.539-0.739-0.39-1.797-0.546-2.693
				c-0.533-2.845-1.752-6.025-2.281-9.045c-0.821-2.057-1.152-3.902-2.052-6.506c-0.369-1.129-0.971-2.164-1.357-3.225
				c-1.775-4.562-3.63-8.78-5.877-13.154c-0.236-0.445-0.478-0.931-0.722-1.436c-0.554-1.169-1.406-2.476-1.901-3.589
				c-0.566-1.207-0.463-2.431,0.172-2.941c1.228,0.376,2.273,2.427,3.364,4.342c0.917,1.614,1.929,3.588,2.858,5.585
				c0.921,2.001,1.774,4.016,2.428,5.688c1.029,2.556,1.973,5.19,2.726,7.756c0.758,2.635,1.475,5.212,1.986,7.796
				c0.354,1.889,0.483,3.756,0.721,5.58c0.119,0.976,0.215,1.951,0.309,2.922C256.471,123.209,256.525,124.182,256.572,125.154z"/>
		</g>
	</g>
	<g>
		<g>
			<path fill-rule="evenodd" clip-rule="evenodd" fill="#7CA7D9" d="M214.377,141.031c-1.014,0.173-2.055-0.566-2.957-1.064
				c-2.955-1.538-6.036-4.306-7.932-7.382c-1.714-1.953-2.833-3.856-4.604-6.571c-0.757-1.176-1.649-2.257-2.343-3.404
				c-2.998-4.967-5.443-9.908-7.493-15.435c-0.206-0.567-0.405-1.188-0.609-1.829c-0.461-1.478-1.086-3.242-1.356-4.68
				c-0.296-1.581,0.133-2.908,0.882-3.203c1.103,0.878,1.561,3.439,2.396,5.815c0.681,1.999,1.524,4.376,2.488,6.69
				c0.957,2.315,1.975,4.588,2.895,6.416c1.391,2.814,2.982,5.575,4.509,8.216c1.564,2.705,3.281,5.257,4.918,7.759
				c1.204,1.803,2.318,3.592,3.779,5.054C210.496,138.969,212.284,140.279,214.377,141.031z"/>
		</g>
	</g>
	<g>
		<g>
			<path fill-rule="evenodd" clip-rule="evenodd" fill="#7CA7D9" d="M310.106,107.895c-0.162,0.871-0.536,1.769-0.969,2.674
				c-0.403,0.917-0.864,1.841-1.219,2.739c-2.201,5.754-3.563,12.807-4.731,19.203c-0.38,4.653-0.874,8.602-0.771,14.449
				c0.101,2.511,0.409,5.013,0.718,7.347c0.289,2.12,0.86,4.17,2.034,5.671c1.171,1.493,3.016,2.478,4.667,2.2l-0.01,2.175
				c-3.201-0.44-6.105-2.135-8.319-4.379c-2.229-2.254-3.888-5.046-4.904-8.119c-0.363-1.082-0.647-2.277-0.869-3.516
				c-0.523-2.854-0.751-6.307-0.601-8.957c0.16-2.913,0.997-5.027,1.803-5.238c0.806,2.041,0.319,6.846,0.864,11.32
				c0.398,3.41,1.395,7.344,3.659,10.551c1.116,1.599,2.48,3.014,4,4.044c1.508,1.051,3.169,1.663,4.73,1.92l8.966,1.477
				l-8.978,1.099c-1.238,0.152-2.162-0.025-2.962-0.297c-1.684-0.588-3.051-1.708-4.045-3.081c-1.001-1.395-1.547-2.948-1.892-4.474
				c-0.337-1.53-0.474-3.031-0.565-4.476c-0.093-1.451-0.166-2.893-0.172-4.32c-0.068-5.847,0.342-11.565,1.408-17.078
				c0.772-4.022,1.958-7.808,3.221-11.512C306.521,115.358,308.167,111.542,310.106,107.895z"/>
		</g>
	</g>
	<g>
		<g>
			<path fill-rule="evenodd" clip-rule="evenodd" fill="#7CA7D9" d="M197.3,55.692c1.314-2.641,3.35-5.829,4.105-9.102
				c0.613-2.558,0.728-5.389,0.011-8.103c-0.677-2.704-2.161-5.31-4.385-7.083c-2.227-1.786-5.046-2.654-7.837-3.202
				c-2.821-0.481-5.647-0.863-8.43-0.879c-3.979,0.132-7.64,0.625-11.451,1.569c-3.8,0.962-7.776,2.386-12.096,4.856
				c-3.721,2.149-6.969,4.922-9.763,7.86c-3.013,3.181-5.707,6.719-6.778,10.728c-1.085,4.034-0.712,8.36-0.407,12.704
				c0.31,4.335,0.691,8.646,2.084,12.633c1.37,3.926,3.888,7.632,7.544,9.529c1.48,0.779,3.27,1.293,5.198,1.531
				c2.216,0.282,4.773,0.171,7.239-0.164c2.47-0.339,4.86-0.946,6.912-1.613c4.5-1.442,7.853-2.948,8.682-2.505
				c-1.195,1.314-3.701,3.038-7.034,4.38c-3.32,1.365-7.449,2.285-11.549,2.482c-1.723,0.092-3.562,0.064-5.464-0.23
				c-1.895-0.301-3.872-0.881-5.689-1.933c-3.657-2.099-6.284-5.741-7.805-9.607c-1.547-3.906-2.046-8.003-2.357-11.792
				c-0.257-3.786-0.578-7.36-0.412-10.745c0.119-2.569,0.594-5.24,1.657-7.704c1.053-2.453,2.555-4.626,4.185-6.595
				c3.263-3.947,7.225-7.219,11.445-9.788c4.328-2.649,9.017-4.552,13.824-5.734c4.805-1.176,9.748-1.679,14.603-1.279
				c0.883,0.089,1.764,0.157,2.636,0.271c0.866,0.15,1.73,0.3,2.592,0.449c1.711,0.335,3.415,0.799,5.051,1.482
				c1.63,0.684,3.199,1.607,4.491,2.858c1.292,1.241,2.288,2.735,2.997,4.329c1.528,3.413,1.693,7.286,0.837,10.792
				C201.094,49.618,199.374,52.825,197.3,55.692z"/>
		</g>
	</g>
	<g>
		<g>
			<path fill-rule="evenodd" clip-rule="evenodd" fill="#7CA7D9" d="M231.826,124.877c0.702,1.87,0.577,4.407,0.567,6.591
				c-0.001,3.486-0.316,7.294-1.209,11.069c-0.441,1.886-1.033,3.757-1.75,5.562c-0.727,1.8-1.568,3.527-2.437,5.181
				c-1.042,2.468-2.105,4.694-3.033,7.137c-0.895,2.434-1.728,5.132-1.8,8.394c-0.041,2.797,0.754,5.563,2.169,7.63
				c0.627,0.914,1.419,1.67,2.299,2.144l-1.024,1.601c-2.353-1.653-4.098-3.999-5.236-6.522c-1.146-2.533-1.75-5.251-1.917-7.984
				c-0.32-5.502,1.009-10.808,2.291-16.046c0.293-1.192,0.609-2.476,0.936-3.805c0.738-3.044,1.237-6.733,1.318-9.577
				c0.151-3.104,0.211-5.529,0.929-6.036c0.715,1.011,1.271,3.007,1.397,5.42c0.13,2.414-0.181,5.196-0.646,7.852
				c-0.748,4.493-2.361,9.606-3.247,14.688c-0.441,2.536-0.666,5.088-0.531,7.458c0.125,2.378,0.644,4.6,1.375,6.467
				c0.978,2.489,2.557,4.732,4.667,6.235l-1.429,2.234c-1.989-1.126-3.296-2.982-4.082-4.863c-0.786-1.904-1.131-3.891-1.171-5.841
				c-0.048-3.541,0.8-6.898,1.987-9.996c1.199-3.095,2.714-5.941,4.127-8.74c1.033-2.042,2.025-4.028,2.818-6.077
				c0.8-2.047,1.447-4.142,1.895-6.277C232.033,134.212,232.283,129.526,231.826,124.877z"/>
		</g>
	</g>
	<g>
		<g>
			<path fill-rule="evenodd" clip-rule="evenodd" fill="#7CA7D9" d="M252.96,711.591c0.013,0.025-0.019-0.098-0.003-0.118
				c0.033-0.028-0.076,0.064-0.064,0.05c0.022,0.015,0.037,0.1,0.027,0.167c-0.035,0.151-0.071,0.248-0.229,0.198
				c-0.327-0.095-0.464-0.573-0.502-0.978c-0.083-0.86-0.139-1.756-0.183-2.665c-0.088-1.818-0.129-3.688-0.243-5.435
				c-0.729-11.114-2.068-24.077-2.562-35.955c-0.799-8.48-1.085-15.734-1.8-26.393c-0.309-4.599-0.793-9.13-1.094-13.517
				c-0.603-9.5-1.455-18.724-1.402-28.084c0.037-4.674,0.331-9.374,1.054-14.079l0.304-1.761c0.052-0.294,0.097-0.589,0.162-0.881
				l0.114-0.559c0.001-0.044,0.032-0.097-0.03-0.081l-0.058,0.001l-0.8-0.045c-2.363-0.136-4.741-0.273-7.139-0.411
				c-1.964-0.124-4.081-0.257-6.27-0.395c-5.037-0.337-11.109-0.606-15.841-0.999c-5.192-0.431-9.069-1.37-9.47-2.201
				c3.681-0.649,12.425,0.014,20.845,0.463c3.543,0.198,7.428,0.416,11.478,0.643c2.025,0.119,4.092,0.241,6.177,0.364l1.941,0.117
				l1.532,0.094l0.384,0.024l0.192,0.012c0.049,0.015,0.171-0.025,0.122,0.065l-0.159,0.751l-0.545,2.574
				c-0.113,0.504-0.185,1.017-0.28,1.524c-1.447,8.154-1.412,16.478-1.169,23.285c0.19,5.228,0.56,10.516,0.866,15.77
				c0.3,5.253,0.597,10.465,0.888,15.565c0.55,10.458,1.178,20.654,1.653,30.708c0.346,7.331,0.502,14.434,0.811,21.484
				c0.155,3.764,0.31,7.514,0.465,11.259l0.21,5.61l0.099,2.803c0.006,0.465,0.036,0.925,0.232,1.121
				c0.027,0.047,0.129,0.058,0.119,0.091c0.001,0.013,0,0.013,0,0.013c-0.007-0.025-0.017-0.023-0.01-0.025
				c0.005,0,0.022-0.018,0.035-0.043c0.029-0.046,0.046-0.135,0.039-0.17c-0.042,0,0.113-0.052,0.104-0.078
				C252.946,711.415,252.969,711.652,252.96,711.591z"/>
		</g>
	</g>
	<g>
		<g>
			<path fill-rule="evenodd" clip-rule="evenodd" fill="#7CA7D9" d="M251.95,710.375c-2.078,0.305-4.347,0.961-6.477,2.097
				c-2.149,1.092-4.182,2.526-6.025,3.922c-1.463,1.116-2.937,2.28-4.509,3.36c-1.574,1.078-3.27,2.026-5.041,2.881
				c-3.572,1.651-7.505,2.712-11.524,3.334c-8.075,1.205-16.382,0.697-24.205-0.041c-1.415-0.124-2.854-0.344-4.158-1.058
				c-0.644-0.357-1.241-0.862-1.657-1.508c-0.423-0.636-0.635-1.42-0.645-2.177c0.008-1.533,0.71-2.931,1.718-3.995
				c1.033-1.068,2.325-1.757,3.625-2.325c5.196-2.023,10.521-4.556,16.239-8.622c2.456-1.75,4.724-3.724,6.712-5.874
				c1.021-1.096,1.803-2.174,2.387-3.443c0.598-1.25,0.934-2.625,1.232-3.987c1.143-5.998,0.451-12.267,0.822-18.469
				c0.274-6.122,0.145-12.216-0.141-18.3c-0.627-12.172-2.245-24.319-4.8-36.687c-0.537-2.531-1.101-5.263-1.779-8.067
				c-1.495-6.47-3.751-14.14-5.589-20.104c-2.015-6.541-3.216-11.612-2.653-12.47c1.234,2.103,2.848,5.894,4.464,10.531
				c1.598,4.642,3.255,10.106,4.68,15.517c2.458,9.087,4.817,20.111,6.274,31.198c1.539,11.075,2.135,22.194,2.052,31.316
				l-0.015,2.627l-0.09,2.63l-0.19,5.219c-0.079,3.434,0.033,6.953-0.209,10.507c-0.267,3.526-0.734,7.233-2.694,10.563
				c-0.222,0.422-0.512,0.81-0.813,1.192l-0.443,0.572l-0.452,0.493c-0.593,0.668-1.23,1.281-1.86,1.899
				c-1.281,1.208-2.626,2.318-3.997,3.368c-2.825,2.134-5.794,4.001-8.848,5.665c-1.528,0.83-3.083,1.6-4.656,2.322
				c-1.554,0.728-3.231,1.362-4.728,1.974c-1.475,0.617-2.848,1.373-3.634,2.423c-0.829,1.074-1.162,2.468-0.639,3.418
				c0.46,1.01,1.781,1.623,3.271,1.919c1.47,0.301,3.168,0.358,4.819,0.518c4.814,0.388,9.541,0.716,14.209,0.625
				c2.332-0.046,4.652-0.178,6.937-0.494c2.291-0.28,4.544-0.757,6.738-1.41c2.355-0.669,4.606-1.64,6.748-2.792
				c2.157-1.129,4.125-2.604,6.125-4.061c1.993-1.463,4.012-2.943,6.222-4.136c1.107-0.592,2.27-1.087,3.471-1.468
				C249.437,710.616,250.691,710.421,251.95,710.375z"/>
		</g>
	</g>
	<g>
		<g>
			<path fill-rule="evenodd" clip-rule="evenodd" fill="#7CA7D9" d="M254.842,584.141c1.889,6.633,2.981,15.41,3.774,23.124
				c1.314,12.274,1.878,25.672,1.946,39.274c0.02,3.401,0.007,6.815-0.016,10.228c-0.022,3.403,0.107,6.807,0.298,10.195
				c0.386,6.776,1.043,13.494,1.329,20.089c0.315,4.715,0.443,9.281,0.238,13.834c-0.048,1.138-0.147,2.274-0.219,3.412
				c-0.096,1.124-0.194,2.229,0.085,3.197c0.261,0.961,0.982,1.721,1.896,2.286c0.905,0.574,1.989,0.969,3.059,1.374
				c8.686,3.164,19.049,1.953,30.561,5.377c2.48,0.693,4.924,1.487,7.312,2.402c2.395,0.908,4.691,1.949,7.032,2.665
				c2.332,0.727,4.727,1.096,7.027,0.746c2.261-0.319,4.454-1.403,5.605-3.177c1.292-1.902,1.499-4.655,0.141-6.321
				c-0.644-0.844-1.725-1.453-2.86-2.092c-1.121-0.638-2.259-1.247-3.412-1.832c-4.604-2.349-9.383-4.375-14.03-6.751
				c-2.322-1.187-4.612-2.464-6.809-3.905c-2.187-1.438-4.33-3.044-6.174-5.024c-1.838-1.963-3.37-4.395-3.992-7.145
				c-0.619-2.731-0.445-5.429-0.326-7.976c1.165-20.529,2.332-41.103,3.539-62.374c0.259-4.356,0.538-9.053,0.827-13.91
				c0.306-5.314,0.646-11.196,0.977-16.95l-0.546,0.128c-0.667,0.132-1.332,0.264-1.993,0.394c-1.422,0.258-2.833,0.492-4.227,0.665
				c-2.786,0.36-5.491,0.558-8.03,0.621c-5.872,0.121-11.004-0.559-14.694-1.419c-3.699-0.856-5.972-1.837-6.366-2.324
				c3.396,0.423,8.761,1.282,15.279,1.434c3.255,0.078,6.791-0.005,10.466-0.365c1.835-0.195,3.71-0.416,5.593-0.748
				c0.945-0.147,1.888-0.339,2.837-0.529l0.356-0.071l0.441-0.094l1.171-0.268l2.355-0.539c-0.188,3.312-0.377,6.657-0.565,9.983
				c-0.897,15.7-1.967,34.453-3.031,53.077c-0.547,9.311-1.092,18.59-1.612,27.438c-0.13,2.212-0.259,4.397-0.386,6.549
				c-0.105,2.144-0.176,4.19,0.145,6.067c0.585,3.74,3.17,6.719,5.963,9.008c4.392,3.53,9.598,6.151,14.853,8.641
				c2.637,1.249,5.305,2.477,7.947,3.799c1.319,0.667,2.634,1.348,3.929,2.078c0.651,0.372,1.283,0.712,1.955,1.137
				c0.667,0.424,1.369,0.93,1.977,1.619c1.248,1.41,1.724,3.314,1.6,5.034c-0.119,1.739-0.778,3.376-1.836,4.743
				c-1.109,1.387-2.561,2.29-4.098,2.882c-1.543,0.576-3.152,0.795-4.727,0.794c-3.191-0.023-6.124-1.044-8.809-2.123
				c-2.695-1.115-5.222-2.205-7.877-3.08c-5.414-1.825-10.977-3-16.621-3.566c-5.643-0.62-11.506-0.938-17.12-2.884
				c-1.383-0.51-2.77-0.977-4.16-1.945c-0.678-0.483-1.341-1.122-1.799-1.948c-0.466-0.831-0.641-1.754-0.68-2.571
				c-0.04-0.826,0.034-1.585,0.099-2.29l0.159-2.08c0.116-1.385,0.148-2.777,0.206-4.165c0.143-5.561-0.126-11.122-0.496-16.675
				c-0.532-8.095-1.2-16.122-1.016-24.117c0.201-7.925,0.349-15.756,0.246-23.568C259.312,616.939,258.161,600.367,254.842,584.141z
				"/>
		</g>
	</g>
	<g>
		<g>
			<path fill-rule="evenodd" clip-rule="evenodd" fill="#7DA7D7" d="M266.022,246.891c2.017-0.425,4.598-0.124,6.873-0.148
				c7.234-0.073,15.691-0.647,23.411-0.441c2.338-0.126,4.531-0.174,6.81-0.193c2.522-0.007,5.135-0.015,8.103-0.024
				c-0.357,1.151-0.735,2.369-1.133,3.652c-0.871,2.864-1.559,5.748-2.383,8.483c-0.636,2.094-1.265,4.168-1.876,6.177
				c-1.485,0.2-2.964,0.4-4.437,0.599c-1.27,0.158-2.536,0.315-3.8,0.473c-2.53,0.3-5.054,0.569-7.588,0.81
				s-5.077,0.455-7.644,0.641c-1.284,0.086-2.573,0.172-3.869,0.259c-1.36,0.075-2.728,0.15-4.106,0.225
				c-0.631,0.028-1.275,0.056-1.929,0.085l-0.246,0.01c-0.011-0.076-0.013-0.162-0.02-0.243l-0.035-0.495
				c-0.023-0.332-0.046-0.666-0.069-1.002c-0.049-0.818-0.099-1.658-0.151-2.513c-0.171-3.296-0.393-7.27-0.294-10.376
				c0.101-3.411,0.892-5.955,1.701-6.218c0.79,2.381,0.581,8.032,0.896,13.472c0.071,1.143,0.146,2.341,0.223,3.579
				c0.022,0.31,0.045,0.622,0.068,0.936l0.011,0.137l0.004,0.021l0.007,0.04c-0.004,0.035,0.015,0.042,0.05,0.03l0.039-0.006
				c0.014-0.002-0.022-0.002,0.206-0.012c2.623-0.132,5.351-0.292,8.068-0.48c5.434-0.372,10.82-0.869,15.232-1.359
				c1.126-0.131,2.255-0.262,3.385-0.393l1.693-0.21l0.846-0.109c0.009-0.002,0.011-0.004,0.011-0.004
				c0.604-1.912,1.207-3.821,1.805-5.714c0.696-2.155,1.386-4.291,2.066-6.398c0.216-0.66,0.431-1.319,0.645-1.973l0.069-0.212
				l0.005-0.009l0.01-0.019l0.02-0.045l-0.042-0.005l-0.024-0.002l-0.207-0.002c-0.67-0.003-1.338-0.006-2.004-0.009
				c-1.332-0.007-2.658-0.013-3.978-0.02c-2.638-0.029-5.252-0.058-7.857-0.087c-4.766-0.086-9.378-0.348-13.96-0.455
				C275.731,247.233,270.876,247.085,266.022,246.891z"/>
		</g>
	</g>
	<g>
		<path fill="#7DA7D7" d="M290,234c0.001,3.6,0.002,7.2,0.003,10.8c-0.048-2.856-0.025-5.714,0.067-8.569
			c0.027-0.825,0.071-1.69,0.502-2.394c0.431-0.703,1.387-1.157,2.108-0.758c0.763,0.422,0.851,1.464,0.845,2.336
			c-0.024,3.6-0.049,7.201-0.073,10.801c-1.108-0.112-2.175-0.587-3-1.335"/>
	</g>
	<g>
		<g>
			<path fill="#2CE3B6" d="M314.375,212.263c-11.533-4.282-24.124-7.828-32.239-17.074c-4.219,13.337-9.469,26.349-15.686,38.88
				c-1.818,3.663-3.762,7.347-6.65,10.243c-4.716,4.727-11.458,6.853-18.065,7.82c-4.808,0.704-10.305,0.666-13.787-2.724
				c-1.818-1.771-2.804-4.213-3.602-6.622c-4.578-13.818-4.515-29.129,0.177-42.908c-16.784,6.401-32.054,16.682-44.391,29.73
				c-2.958,3.129-6.612,6.608-8.746,10.375c-3.884,6.855,8.754,13.065,13.485,16.312c2.212,1.518,14.552,8.312,13.932,11.639
				c-1.588,8.53-2.848,18.373,2.801,24.956c2.141,2.495,5.046,4.185,7.591,6.267c10.579,8.654,14.046,24.908,7.918,37.125
				c0.882,0.232,1.764,0.464,2.647,0.697c-2.498,4.974-4.421,11.356-6.082,14.713c-4.178,8.443-8.429,16.85-12.437,25.375
				c-3.268,6.952-10.464,17.769-10.817,25.499c-9.159,24.995-13.805,52.701-6.32,78.248c24.363-1.074,48.176,6.4,72.233,10.394
				c18.368,3.049,37.003,4.075,55.594,5.096c-3.634-1.414-6-4.949-7.543-8.53c-6.847-15.898-1.618-34.027,0.87-51.157
				c1.189-8.191,1.723-16.464,2.005-24.736c0.425-12.465,0.262-25.099-2.843-37.179c-4.15-16.147-13.32-30.474-22.351-44.488
				c-0.011-0.018-0.024-0.035-0.035-0.053c0.809-1.149,1.426-2.514,1.763-4.181c2.94-14.538,14.047-27.558,24.949-55.6
				c4.703-12.096,16.46-20.052,25.42-29.441c2.315-2.426,4.732-4.922,7.85-6.157C338.087,223.124,325.908,216.545,314.375,212.263z"
				/>
		</g>
	</g>
	<g>
		<g>
			<path fill-rule="evenodd" clip-rule="evenodd" fill="#FFFFFF" d="M288.72,326.679c-0.134,2.106-2.237,2.117-3.456,2.948
				c-1.008,0.638-1.997,1.421-3.02,2.251c-1.069,0.771-2.169,1.565-3.272,2.361c-1.152,0.727-2.36,1.394-3.596,1.972
				c-1.247,0.539-2.557,0.879-3.863,1.067c-1.647,1.091-3.344,1.591-5.157,2.061c-0.919,0.171-1.868,0.347-2.878,0.535
				c-0.505,0.097-1.025,0.197-1.565,0.301c-0.541,0.084-1.101,0.18-1.684,0.292c-1.005,0.191-1.987,0.572-2.968,0.931
				c-0.981,0.325-1.96,0.652-2.936,0.804c-8.469,1.284-16.55,1.21-25.07,0.596c-0.873-0.065-1.809-0.189-2.772-0.345
				c-2.194-0.431-4.946-0.34-6.945-1.104c-2.204-0.818-3.383-3.849-2.954-7.04c2.203-3.193,5.743-2.034,9.32-1.86
				c5.993,0.374,14.189,1.136,19.866,1.132c2.184,0.072,4.355-0.115,6.52-0.169c2.143-0.189,4.286-0.25,6.352-0.413
				c2.144-0.068,4.204-0.426,6.262-0.708c1.015-0.186,2.025-0.371,3.031-0.555c1.02-0.147,2.008-0.363,3.007-0.546
				c0.73-0.129,1.471-0.214,2.22-0.276c0.729-0.108,1.465-0.198,2.207-0.283c0.736-0.097,1.5-0.144,2.218-0.296
				c0.719-0.15,1.436-0.318,2.14-0.522c1.531-0.385,2.959-0.981,4.484-1.451C285.718,327.859,287.161,327.214,288.72,326.679z"/>
		</g>
	</g>
	<g>
		<g>
			<path fill-rule="evenodd" clip-rule="evenodd" fill="#FFFFFF" d="M281.973,294.515c-0.527,1.072-1.752,0.811-2.645,1.088
				c-1.439,0.43-2.99,1.048-4.648,1.475c-1.65,0.427-3.412,0.664-5.054,0.345c-2.423,0.438-4.46-0.18-7.379-0.993
				c-1.253-0.386-2.64-0.51-3.82-1.096c-2.565-1.222-4.78-2.966-6.635-5.058c-1.862-2.088-3.321-4.59-4.268-7.436
				c-0.156-0.596-0.36-1.23-0.434-1.92c-0.278-1.549-0.539-3.514-0.187-5.011c0.105-0.428,0.259-0.733,0.508-1.135
				c0.292-0.519,0.7-0.898,1.209-1.155c0.495-0.257,1.154-0.313,1.527-0.03c0.375,0.274,0.387,0.716,0.324,1.1
				c-0.007,0.062,0.004-0.02,0-0.028c0-0.012,0.001-0.015-0.002-0.026c0.004,0.016,0.008,0.039,0.061,0.125
				c0.045,0.065,0.144,0.188,0.279,0.29c0.073,0.066,0.148,0.11,0.238,0.174l0.173,0.105c0.095,0.062,0.159,0.158,0.224,0.227
				c0.058,0.135,0.089,0.405,0.11,0.609c0.021,0.22,0.025,0.445,0.025,0.675c0.022,0.232,0.036,0.468,0.045,0.708
				c-0.005,0.478,0.076,0.971,0.143,1.454c0.276,1.624,0.885,3.522,1.836,5.266c0.929,1.75,2.163,3.333,3.332,4.464
				c0.905,0.859,1.892,1.642,2.944,2.289c1.048,0.629,2.155,1.206,3.286,1.695c2.322,1.019,4.819,1.422,7.312,1.745
				c1.816,0.239,3.667,0.644,5.521,0.579C277.97,294.971,279.954,294.789,281.973,294.515z"/>
		</g>
	</g>
</g>
<g>
	<g>
		<path fill="#7CA7D9" d="M276.017,198.968c7.201,6.741,16.771,10.171,26.059,13.501c1.544,0.554,3.083,1.105,4.603,1.67
			c13.887,5.156,22.356,11.594,25.812,19.638c-2.705,1.519-4.845,3.761-6.773,5.781c-2.41,2.526-5.098,5.012-7.698,7.417
			c-7.157,6.62-14.557,13.465-18.14,22.68c-5.136,13.209-10.427,23.268-14.679,31.35c-4.897,9.31-8.766,16.663-10.366,24.578
			c-0.264,1.307-0.734,2.428-1.438,3.426l-0.778,1.104l0.733,1.134l0.034,0.051c8.841,13.721,17.984,27.909,22.095,43.903
			c3.127,12.164,3.185,24.785,2.781,36.613c-0.33,9.667-0.961,17.457-1.986,24.516c-0.444,3.06-0.989,6.225-1.517,9.286
			c-2.487,14.44-5.059,29.371,0.789,42.95c0.91,2.114,1.96,3.913,3.143,5.39c-16.242-0.916-32.862-2.036-49.03-4.72
			c-6.927-1.15-13.969-2.618-20.778-4.038c-15.294-3.189-31.108-6.487-46.973-6.487c-1.109,0-2.218,0.016-3.313,0.048
			c-5.945-21.745-3.693-47.137,6.702-75.503l0.106-0.289l0.014-0.308c0.239-5.244,4.204-12.59,7.389-18.493
			c1.213-2.248,2.359-4.372,3.24-6.246c3.068-6.527,6.339-13.103,9.501-19.462c0.974-1.958,1.948-3.917,2.918-5.878
			c0.78-1.577,1.601-3.746,2.47-6.043c1.061-2.805,2.263-5.984,3.607-8.659l1.106-2.203l-2.384-0.628l-0.366-0.096
			c5.072-12.687,1.173-28.657-9.441-37.34c-0.866-0.708-1.765-1.369-2.635-2.008c-1.752-1.287-3.407-2.502-4.704-4.013
			c-5.072-5.91-3.873-15.119-2.352-23.287c0.643-3.45-4.045-7.053-12.919-12.496c-0.809-0.496-1.508-0.925-1.848-1.158
			c-0.756-0.519-1.699-1.107-2.697-1.729c-6.338-3.95-12.345-8.126-10.179-11.949c1.655-2.921,4.334-5.699,6.924-8.385
			c0.524-0.543,1.039-1.077,1.535-1.602c11.215-11.863,24.908-21.377,39.801-27.687c-3.571,13.111-3.22,27.199,1.061,40.12
			c0.871,2.629,1.971,5.348,4.105,7.426c2.49,2.425,6.065,3.654,10.626,3.654c1.495,0,3.08-0.125,4.846-0.384
			c8.529-1.249,14.806-3.991,19.191-8.386c3.092-3.1,5.166-7.019,7.026-10.766C266.994,223.364,271.957,211.272,276.017,198.968
			 M275.136,195.189c-4.219,13.337-9.469,26.349-15.686,38.88c-1.818,3.663-3.762,7.347-6.65,10.243
			c-4.716,4.727-11.458,6.853-18.065,7.82c-1.48,0.217-3.025,0.363-4.556,0.363c-3.445,0-6.821-0.74-9.231-3.087
			c-1.818-1.771-2.804-4.213-3.602-6.622c-4.579-13.818-4.515-29.129,0.177-42.908c-16.784,6.401-32.054,16.682-44.391,29.73
			c-2.958,3.129-6.612,6.608-8.746,10.375c-3.884,6.855,8.754,13.065,13.485,16.312c2.212,1.518,14.552,8.312,13.932,11.639
			c-1.588,8.53-2.848,18.373,2.801,24.956c2.141,2.495,5.046,4.185,7.591,6.267c10.579,8.654,14.046,24.908,7.918,37.125
			c0.882,0.232,1.765,0.464,2.647,0.697c-2.498,4.974-4.421,11.356-6.082,14.713c-4.178,8.443-8.429,16.85-12.437,25.375
			c-3.268,6.952-10.464,17.769-10.817,25.499c-9.159,24.995-13.805,52.701-6.32,78.248c1.604-0.071,3.209-0.104,4.809-0.104
			c22.694,0,44.951,6.768,67.423,10.499c18.368,3.049,37.003,4.075,55.594,5.096c-3.634-1.414-6-4.949-7.543-8.53
			c-6.847-15.898-1.618-34.027,0.87-51.157c1.189-8.191,1.723-16.464,2.005-24.736c0.425-12.465,0.262-25.099-2.843-37.179
			c-4.15-16.147-13.32-30.474-22.351-44.488c-0.011-0.018-0.024-0.035-0.035-0.053c0.809-1.149,1.426-2.514,1.763-4.181
			c2.94-14.538,14.047-27.558,24.949-55.6c4.703-12.096,16.46-20.052,25.42-29.441c2.315-2.426,4.732-4.922,7.85-6.157
			c-3.928-11.658-16.107-18.237-27.64-22.518S283.251,204.435,275.136,195.189L275.136,195.189z"/>
	</g>
</g>
</svg>
