<?xml version="1.0" encoding="utf-8"?>
<!-- Generator: Adobe Illustrator 21.1.0, SVG Export Plug-In . SVG Version: 6.00 Build 0)  -->
<svg version="1.1" id="Layer_1" xmlns="http://www.w3.org/2000/svg" xmlns:xlink="http://www.w3.org/1999/xlink" x="0px" y="0px"
	 viewBox="0 0 459.9 140.2" style="enable-background:new 0 0 459.9 140.2;" xml:space="preserve">
<style type="text/css">
	.st0{fill:#95BF47;}
	.st1{fill:#5E8E3E;}
	.st2{fill:#FFFFFF;}
</style>
<g>
	<g>
		<path class="st0" d="M102.7,30.6c-0.1-0.6-0.6-1-1.1-1c-0.5,0-10-0.7-10-0.7s-6.6-6.6-7.4-7.3c-0.7-0.7-2.2-0.5-2.7-0.3
			c-0.1,0-1.5,0.4-3.7,1.1c-2.2-6.4-6.1-12.3-13-12.3c-0.2,0-0.4,0-0.6,0c-2-2.6-4.4-3.7-6.5-3.7c-16.1,0-23.7,20.1-26.1,30.3
			c-6.2,1.9-10.7,3.3-11.2,3.5c-3.5,1.1-3.6,1.2-4,4.5c-0.3,2.5-9.5,72.9-9.5,72.9l71,13.3l38.5-8.3
			C116.3,122.5,102.8,31.2,102.7,30.6z M73.8,23.5c-1.8,0.6-3.8,1.2-6,1.9c0-0.4,0-0.8,0-1.3c0-4-0.6-7.2-1.4-9.7
			C70,14.8,72.3,18.9,73.8,23.5z M62,15.2c1,2.5,1.6,6,1.6,10.8c0,0.2,0,0.5,0,0.7c-3.9,1.2-8.2,2.5-12.4,3.8
			C53.6,21.3,58.1,16.8,62,15.2z M57.2,10.6c0.7,0,1.4,0.2,2.1,0.7c-5.1,2.4-10.7,8.5-13,20.7c-3.4,1.1-6.7,2.1-9.8,3
			C39.2,25.8,45.7,10.6,57.2,10.6z"/>
		<path class="st1" d="M101.6,29.6c-0.5,0-10-0.7-10-0.7s-6.6-6.6-7.4-7.3c-0.3-0.3-0.6-0.4-1-0.5l-5.4,109.8l38.5-8.3
			c0,0-13.5-91.3-13.6-91.9C102.6,29.9,102,29.6,101.6,29.6z"/>
		<path class="st2" d="M64.7,50.8L60,64.9c0,0-4.2-2.2-9.3-2.2c-7.5,0-7.8,4.7-7.8,5.9c0,6.4,16.8,8.9,16.8,24
			c0,11.9-7.5,19.5-17.7,19.5c-12.2,0-18.4-7.6-18.4-7.6l3.3-10.8c0,0,6.4,5.5,11.8,5.5c3.5,0,5-2.8,5-4.8c0-8.4-13.8-8.8-13.8-22.6
			C29.9,60.2,38.2,49,55,49C61.5,49,64.7,50.8,64.7,50.8z"/>
	</g>
	<path id="s" d="M161.1,77.3c-3.8-2.1-5.8-3.8-5.8-6.2c0-3.1,2.7-5,7-5c5,0,9.4,2.1,9.4,2.1l3.5-10.7c0,0-3.2-2.5-12.7-2.5
		c-13.2,0-22.4,7.6-22.4,18.2c0,6,4.3,10.6,10,13.9c4.6,2.6,6.2,4.5,6.2,7.2c0,2.9-2.3,5.2-6.6,5.2c-6.4,0-12.4-3.3-12.4-3.3
		l-3.7,10.7c0,0,5.6,3.7,14.9,3.7c13.6,0,23.3-6.7,23.3-18.7C172,85.3,167,80.7,161.1,77.3z"/>
	<path id="h" d="M215.3,54.7c-6.7,0-11.9,3.2-16,8l-0.2-0.1l5.8-30.4h-15.1L175,109.5h15.1l5-26.4c2-10,7.1-16.1,11.9-16.1
		c3.4,0,4.7,2.3,4.7,5.6c0,2.1-0.2,4.6-0.7,6.7l-5.7,30.3h15.1l5.9-31.2c0.7-3.3,1.1-7.2,1.1-9.9C227.6,59.8,223.1,54.7,215.3,54.7z
		"/>
	<path id="o" d="M261.8,54.7c-18.2,0-30.3,16.4-30.3,34.7c0,11.7,7.2,21.2,20.8,21.2c17.9,0,29.9-16,29.9-34.7
		C282.3,65,276,54.7,261.8,54.7z M254.4,99c-5.2,0-7.3-4.4-7.3-9.9c0-8.7,4.5-22.8,12.7-22.8c5.4,0,7.1,4.6,7.1,9.1
		C266.9,84.7,262.4,99,254.4,99z"/>
	<path id="p" d="M321,54.7c-10.2,0-16,9-16,9h-0.2l0.9-8.1h-13.4c-0.7,5.5-1.9,13.8-3.1,20.1L278.7,131h15.1l4.2-22.4h0.3
		c0,0,3.1,2,8.9,2c17.8,0,29.4-18.2,29.4-36.6C336.6,63.8,332.1,54.7,321,54.7z M306.6,99.2c-3.9,0-6.2-2.2-6.2-2.2l2.5-14.1
		c1.8-9.4,6.7-15.7,11.9-15.7c4.6,0,6,4.3,6,8.3C320.8,85.3,315,99.2,306.6,99.2z"/>
	<path id="dot" d="M358.2,33c-4.8,0-8.7,3.8-8.7,8.8c0,4.5,2.8,7.6,7.1,7.6h0.2c4.7,0,8.8-3.2,8.9-8.8C365.8,36.2,362.8,33,358.2,33
		z"/>
	<polygon id="i" points="337,109.5 352.2,109.5 362.5,55.9 347.2,55.9 	"/>
	<path id="f" d="M400.9,55.8h-10.5l0.5-2.5c0.9-5.2,3.9-9.8,9-9.8c2.7,0,4.8,0.8,4.8,0.8l3-11.8c0,0-2.6-1.3-8.2-1.3
		c-5.4,0-10.7,1.5-14.8,5c-5.2,4.4-7.6,10.7-8.8,17.1l-0.4,2.5h-7l-2.2,11.4h7l-8,42.3h15.1l8-42.3h10.4L400.9,55.8z"/>
	<path id="y" d="M437.3,55.9c0,0-9.5,23.8-13.7,36.8h-0.2c-0.3-4.2-3.7-36.8-3.7-36.8h-15.9l9.1,49.2c0.2,1.1,0.1,1.8-0.3,2.5
		c-1.8,3.4-4.7,6.7-8.2,9.1c-2.8,2.1-6,3.4-8.5,4.3l4.2,12.8c3.1-0.7,9.4-3.2,14.8-8.2c6.9-6.5,13.3-16.4,19.8-30l18.5-39.7H437.3z"
		/>
</g>
</svg>
