<?xml version="1.0" encoding="utf-8"?>
<!-- Generator: Adobe Illustrator 21.1.0, SVG Export Plug-In . SVG Version: 6.00 Build 0)  -->
<svg version="1.1" id="Layer_1" xmlns="http://www.w3.org/2000/svg" xmlns:xlink="http://www.w3.org/1999/xlink" x="0px" y="0px"
	 viewBox="0 0 1799 2340" style="enable-background:new 0 0 1799 2340;" xml:space="preserve">
<style type="text/css">
	.st0{fill:url(#SVGID_1_);}
	.st1{clip-path:url(#SVGID_3_);}
	.st2{fill:#5C6AC4;}
	.st3{fill:url(#SVGID_4_);}
	.st4{fill:url(#SVGID_5_);}
	.st5{fill:url(#SVGID_6_);}
	.st6{fill:#2CE5B5;}
	.st7{fill:url(#SVGID_7_);}
	.st8{clip-path:url(#SVGID_9_);}
	.st9{fill:url(#SVGID_10_);}
	.st10{fill:url(#SVGID_11_);}
	.st11{fill:url(#SVGID_12_);}
	.st12{fill:url(#SVGID_13_);}
	.st13{fill:#FFFFFF;}
	.st14{opacity:0.7;fill:#DDEAFC;stroke:#DDEAFC;stroke-width:0.2253;stroke-miterlimit:10;}
	.st15{opacity:0.5;fill:#DDEAFC;stroke:#DDEAFC;stroke-width:0.2253;stroke-miterlimit:10;}
	.st16{fill-rule:evenodd;clip-rule:evenodd;fill:#E4E4E4;}
	.st17{fill:#E4E4E4;stroke:#E4E4E4;stroke-width:0.3114;stroke-miterlimit:10;}
	.st18{fill-rule:evenodd;clip-rule:evenodd;fill:#FFFFFF;}
	.st19{fill:#E4E4E4;}
	.st20{fill:#E4E4E4;stroke:#E4E4E4;stroke-width:0.3495;stroke-miterlimit:10;}
	.st21{fill-rule:evenodd;clip-rule:evenodd;fill:#4479EE;}
	.st22{fill:none;stroke:#9BB7F6;stroke-width:0.3114;stroke-miterlimit:10;}
	.st23{fill:#DDEAFC;stroke:#DDEAFC;stroke-width:0.2253;stroke-miterlimit:10;}
	.st24{fill:#FFDEAC;}
	.st25{fill:#4479EE;}
	.st26{fill:none;stroke:#FCFDFF;stroke-width:0.3114;stroke-miterlimit:10;}
	.st27{fill:#D0D66F;}
	.st28{fill:#C3965C;}
	.st29{fill:#C48563;}
	.st30{fill:#FFD24D;}
	.st31{fill:#3294EF;}
	.st32{fill:#0E50BA;}
	.st33{fill:#CB5300;}
	.st34{fill:#4DB1FF;}
	.st35{fill:#FDDC00;}
	.st36{fill:#B8E0FF;}
	.st37{fill:#A77666;}
	.st38{fill:#6C3B00;}
	.st39{fill:#2A237E;stroke:#DDEAFC;stroke-width:0.2253;stroke-miterlimit:10;}
	.st40{fill:#DDEAFC;stroke:#DDEAFC;stroke-width:0.1766;stroke-miterlimit:10;}
	.st41{fill:#303654;}
	.st42{fill-rule:evenodd;clip-rule:evenodd;fill:#303654;}
	.st43{fill:#805E00;}
	.st44{fill:#FF777F;}
	.st45{fill:#DDEAFC;}
	.st46{fill:#4479EE;stroke:#4479EE;stroke-width:7.785904e-02;stroke-miterlimit:10;}
	.st47{fill:none;stroke:#9BB7F6;stroke-width:6.198324e-02;stroke-miterlimit:10;}
	.st48{fill:none;stroke:#9BB7F6;stroke-width:5.799775e-02;stroke-miterlimit:10;}
	.st49{opacity:0.7;fill:#DDEAFC;stroke:#DDEAFC;stroke-width:0.1696;stroke-miterlimit:10;}
	.st50{opacity:0.5;fill:#DDEAFC;stroke:#DDEAFC;stroke-width:0.1696;stroke-miterlimit:10;}
	.st51{fill:#E4E4E4;stroke:#E4E4E4;stroke-width:0.2344;stroke-miterlimit:10;}
	.st52{fill:#E4E4E4;stroke:#E4E4E4;stroke-width:0.263;stroke-miterlimit:10;}
	.st53{fill:none;stroke:#9BB7F6;stroke-width:0.2344;stroke-miterlimit:10;}
	.st54{fill:#DDEAFC;stroke:#DDEAFC;stroke-width:0.1696;stroke-miterlimit:10;}
	.st55{fill:none;stroke:#FCFDFF;stroke-width:0.2344;stroke-miterlimit:10;}
	.st56{fill:#2A237E;stroke:#DDEAFC;stroke-width:0.1696;stroke-miterlimit:10;}
	.st57{fill:#DDEAFC;stroke:#DDEAFC;stroke-width:0.1329;stroke-miterlimit:10;}
	.st58{fill:#4479EE;stroke:#4479EE;stroke-width:5.859686e-02;stroke-miterlimit:10;}
	.st59{fill:none;stroke:#9BB7F6;stroke-width:4.664870e-02;stroke-miterlimit:10;}
	.st60{fill:none;stroke:#9BB7F6;stroke-width:4.364921e-02;stroke-miterlimit:10;}
	.st61{fill:#95BF47;}
	.st62{fill:#5E8E3E;}
	.st63{fill:url(#SVGID_14_);}
	.st64{fill:url(#SVGID_15_);}
	.st65{fill:url(#SVGID_16_);}
	.st66{fill:url(#SVGID_17_);}
	.st67{fill:url(#SVGID_18_);}
	.st68{fill:url(#SVGID_19_);}
	.st69{fill:#3FA9F5;}
	.st70{fill:url(#SVGID_20_);}
	.st71{fill:url(#SVGID_21_);}
	.st72{fill:url(#SVGID_22_);}
	.st73{fill:url(#SVGID_23_);}
	.st74{fill:url(#SVGID_24_);}
	.st75{fill:url(#SVGID_25_);}
	.st76{fill:none;stroke:#B3B3B3;stroke-width:0.9063;stroke-miterlimit:10;}
	.st77{fill:none;stroke:#CCCCCC;stroke-miterlimit:10;}
	.st78{fill:none;stroke:#25B0E5;stroke-width:0.7443;stroke-miterlimit:10;}
	.st79{fill:url(#SVGID_26_);}
	.st80{fill:url(#SVGID_27_);}
	.st81{fill:url(#SVGID_28_);}
	.st82{fill:url(#SVGID_29_);}
	.st83{fill:url(#SVGID_30_);}
	.st84{fill:url(#SVGID_31_);}
	.st85{fill:#808080;}
	.st86{opacity:0.7;fill:#DDEAFC;stroke:#DDEAFC;stroke-width:0.1951;stroke-miterlimit:10;}
	.st87{opacity:0.5;fill:#DDEAFC;stroke:#DDEAFC;stroke-width:0.1951;stroke-miterlimit:10;}
	.st88{fill:#E4E4E4;stroke:#E4E4E4;stroke-width:0.2697;stroke-miterlimit:10;}
	.st89{fill:#E4E4E4;stroke:#E4E4E4;stroke-width:0.3026;stroke-miterlimit:10;}
	.st90{fill:none;stroke:#9BB7F6;stroke-width:0.2697;stroke-miterlimit:10;}
	.st91{fill:#DDEAFC;stroke:#DDEAFC;stroke-width:0.1951;stroke-miterlimit:10;}
	.st92{fill:none;stroke:#FCFDFF;stroke-width:0.2697;stroke-miterlimit:10;}
	.st93{fill:#2A237E;stroke:#DDEAFC;stroke-width:0.1951;stroke-miterlimit:10;}
	.st94{fill:#DDEAFC;stroke:#DDEAFC;stroke-width:0.1529;stroke-miterlimit:10;}
	.st95{fill:#4479EE;stroke:#4479EE;stroke-width:6.741764e-02;stroke-miterlimit:10;}
	.st96{fill:none;stroke:#9BB7F6;stroke-width:5.367088e-02;stroke-miterlimit:10;}
	.st97{fill:none;stroke:#9BB7F6;stroke-width:5.021987e-02;stroke-miterlimit:10;}
	.st98{clip-path:url(#SVGID_33_);}
	.st99{fill:url(#SVGID_34_);}
	.st100{fill:url(#SVGID_35_);}
	.st101{fill:url(#SVGID_36_);}
	.st102{fill:url(#SVGID_37_);}
	.st103{fill:#4275F4;}
	.st104{fill:url(#SVGID_38_);}
	.st105{clip-path:url(#SVGID_40_);}
	.st106{fill:url(#SVGID_41_);}
	.st107{fill:url(#SVGID_42_);}
	.st108{fill:url(#SVGID_43_);}
	.st109{fill:url(#SVGID_44_);}
</style>
<g>
	<defs>
		
			<rect id="SVGID_8_" x="-422.5" y="250.5" transform="matrix(-1.836970e-16 1 -1 -1.836970e-16 2091.5 282.5)" width="2654" height="1873"/>
	</defs>
	<clipPath id="SVGID_1_">
		<use xlink:href="#SVGID_8_"  style="overflow:visible;"/>
	</clipPath>
	<g style="clip-path:url(#SVGID_1_);">
		<path class="st2" d="M786.3,823.4c-16.6,37-51.8,64.5-95,69.4c-65.2,7.4-124-39.5-131.4-104.7l-73.4-648.2
			C479.1,74.7,526,15.9,591.2,8.5c65.2-7.4,124,39.5,131.4,104.7L796,761.4C798.5,783.3,794.8,804.6,786.3,823.4z"/>
		
			<linearGradient id="SVGID_3_" gradientUnits="userSpaceOnUse" x1="-9243.6191" y1="12691.2852" x2="-8444.9971" y2="12691.2852" gradientTransform="matrix(0.4103 -0.9119 0.9119 0.4103 -7303.21 -12822.5176)">
			<stop  offset="0" style="stop-color:#5C6AC4"/>
			<stop  offset="1.979771e-02" style="stop-color:#5A6BC7"/>
			<stop  offset="0.2247" style="stop-color:#4D70E0"/>
			<stop  offset="0.4119" style="stop-color:#4574EF"/>
			<stop  offset="0.5641" style="stop-color:#4275F4"/>
		</linearGradient>
		<path style="fill:url(#SVGID_3_);" d="M786.3,823.4c-16.6,37-51.8,64.5-95,69.4c-65.2,7.4-124-39.5-131.4-104.7l-73.4-648.2
			C479.1,74.7,526,15.9,591.2,8.5c65.2-7.4,124,39.5,131.4,104.7L796,761.4C798.5,783.3,794.8,804.6,786.3,823.4z"/>
		
			<linearGradient id="SVGID_4_" gradientUnits="userSpaceOnUse" x1="-8502.5127" y1="12413.0557" x2="-9598.8828" y2="13333.0195" gradientTransform="matrix(0.4103 -0.9119 0.9119 0.4103 -7303.21 -12822.5176)">
			<stop  offset="0" style="stop-color:#5C6AC4"/>
			<stop  offset="0.3619" style="stop-color:#4F70DC"/>
			<stop  offset="0.7313" style="stop-color:#4574EE"/>
			<stop  offset="1" style="stop-color:#4275F4"/>
		</linearGradient>
		<path class="st3" d="M496.2,77.8c-10.3,23-12.7,47.4-8.4,70.4l-0.3,0.1l30.6,266.4l0.2,0c-2.3-20.5,0.5-41.9,9.6-62.1
			c26.4-58.8,94.7-85.5,153.9-61l570.4,256.7L55.8,1405.7c-53.3,38.2-65.6,112.4-27.3,165.8c38.2,53.3,112.4,65.6,165.8,27.3
			l1364-977.7c0.1-0.1,0.2-0.2,0.3-0.3c4.2-3,8.2-6.3,12-9.9c0.1-0.1,0.1-0.1,0.2-0.2c1.6-1.6,3.2-3.2,4.8-4.8
			c0.4-0.4,0.8-0.8,1.1-1.2c1.3-1.4,2.6-2.9,3.9-4.4c0.3-0.4,0.6-0.7,0.9-1.1c1.4-1.7,2.8-3.5,4.1-5.4c0.5-0.8,1-1.5,1.6-2.3
			c0.7-1.1,1.5-2.2,2.2-3.3c0.6-1,1.2-2,1.8-3c0.5-0.9,1.1-1.9,1.6-2.8c0.6-1.1,1.2-2.2,1.8-3.3c0.5-0.9,0.9-1.8,1.4-2.8
			c0.5-1,1-2,1.5-3c0.3-0.7,0.6-1.5,0.9-2.3c0.6-1.4,1.2-2.7,1.7-4.1c0.3-0.8,0.6-1.6,0.9-2.4c0.5-1.5,1.1-3.1,1.6-4.6
			c0.2-0.6,0.4-1.2,0.6-1.9c0.6-2.1,1.2-4.2,1.7-6.3c0-0.1,0.1-0.2,0.1-0.3c1.2-4.9,2-9.9,2.5-14.9c0-0.1,0-0.1,0-0.2
			c0.3-2.5,0.4-4.9,0.5-7.4c0-0.1,0-0.2,0-0.2c0.2-4.9,0.1-9.7-0.4-14.5c-0.1-0.6-0.1-1.3-0.2-1.9c-0.2-1.6-0.4-3.2-0.6-4.8
			c-0.1-0.9-0.2-1.7-0.4-2.6c-0.3-1.5-0.6-3-0.9-4.6c-0.3-1.6-0.7-3.2-1.1-4.8c-0.3-1.1-0.5-2.1-0.8-3.1c-0.3-1.2-0.7-2.4-1.1-3.7
			c-0.3-0.9-0.6-1.9-0.9-2.8c-0.4-1.2-0.8-2.4-1.3-3.6c-0.7-1.9-1.4-3.7-2.2-5.5c-0.4-0.9-0.8-1.8-1.2-2.7c-0.6-1.3-1.3-2.6-1.9-3.9
			c-0.4-0.7-0.8-1.5-1.2-2.2c-2.3-4.3-4.9-8.5-7.8-12.6c-0.1-0.1-0.1-0.2-0.2-0.3c-0.1-0.2-0.2-0.3-0.4-0.5c-1-1.4-2-2.7-3.1-4.1
			c-0.2-0.2-0.4-0.5-0.6-0.7c-1-1.3-2.1-2.6-3.2-3.8c-0.2-0.3-0.5-0.6-0.7-0.8c-1-1.1-2.1-2.3-3.1-3.4c-0.4-0.4-0.7-0.7-1.1-1.1
			c-1-1-1.9-1.9-2.9-2.9c-0.5-0.5-1-1-1.5-1.4c-0.9-0.8-1.7-1.5-2.6-2.3c-0.7-0.6-1.4-1.2-2.1-1.7c-0.7-0.6-1.5-1.2-2.2-1.8
			c-0.9-0.7-1.8-1.4-2.7-2c-0.6-0.4-1.2-0.9-1.8-1.3c-1.1-0.8-2.2-1.5-3.3-2.2c-0.5-0.3-0.9-0.6-1.4-0.9c-1.3-0.8-2.5-1.6-3.8-2.4
			c-0.4-0.2-0.7-0.4-1.1-0.6c-1.4-0.8-2.8-1.6-4.3-2.3c-0.3-0.2-0.6-0.3-0.9-0.5c-1.5-0.8-3-1.5-4.5-2.2c-0.2-0.1-0.4-0.2-0.6-0.3
			l-884.5-398C593.4-8.7,523.1,17.9,496.2,77.8z"/>
		
			<linearGradient id="SVGID_5_" gradientUnits="userSpaceOnUse" x1="-8738.9854" y1="14001.1094" x2="-10133.96" y2="14001.1094" gradientTransform="matrix(0.4103 -0.9119 0.9119 0.4103 -7303.21 -12822.5176)">
			<stop  offset="0.3103" style="stop-color:#39A4DA"/>
			<stop  offset="0.4734" style="stop-color:#38A9D7"/>
			<stop  offset="0.6675" style="stop-color:#35B7CF"/>
			<stop  offset="0.8764" style="stop-color:#30CFC1"/>
			<stop  offset="1" style="stop-color:#2DE1B7"/>
			<stop  offset="1" style="stop-color:#2CE5B5"/>
		</linearGradient>
		<path class="st4" d="M1780.1,2246.9c-16.6,36.8-51.5,64.3-94.5,69.3c-65.2,7.7-124.2-38.9-131.9-104.1L1395.8,871.9
			c-7.7-65.2,38.9-124.2,104.1-131.9c65.2-7.7,124.2,38.9,131.9,104.1l157.9,1340.2C1792.3,2206.5,1788.6,2227.9,1780.1,2246.9z"/>
		<g>
			<path class="st6" d="M1521,1934.1L1521,1934.1L1521,1934.1C1521,1934.2,1521,1934.1,1521,1934.1z"/>
			
				<linearGradient id="SVGID_6_" gradientUnits="userSpaceOnUse" x1="-9924.9355" y1="14466.876" x2="-9924.9355" y2="12533.2852" gradientTransform="matrix(0.4103 -0.9119 0.9119 0.4103 -7303.21 -12822.5176)">
				<stop  offset="0" style="stop-color:#2CE5B5"/>
				<stop  offset="0.1532" style="stop-color:#2DDEB9"/>
				<stop  offset="0.3793" style="stop-color:#31CAC4"/>
				<stop  offset="0.6504" style="stop-color:#38A9D7"/>
				<stop  offset="0.9542" style="stop-color:#417CF0"/>
				<stop  offset="1" style="stop-color:#4275F4"/>
			</linearGradient>
			<path class="st5" d="M1757.6,1908.7l-0.2,0c2.3,20.5-0.5,41.9-9.6,62.2c-27,59.9-97.4,86.6-157.3,59.7l-61.3-27.3l0.1,0.5
				L173.8,1393.9c-59.8-26.9-130.2-0.2-157.1,59.6c-26.9,59.8-0.2,130.2,59.6,157.1l1546.6,695.9c59.8,26.9,130.2,0.2,157.1-59.6
				c10.5-23.4,12.8-48.4,8.1-71.8l0.1,0L1757.6,1908.7z"/>
		</g>
	</g>
</g>
</svg>
