<?xml version="1.0" encoding="utf-8"?>
<!-- Generator: Adobe Illustrator 23.0.2, SVG Export Plug-In . SVG Version: 6.00 Build 0)  -->
<svg version="1.1" id="Layer_1" xmlns="http://www.w3.org/2000/svg" xmlns:xlink="http://www.w3.org/1999/xlink" x="0px" y="0px"
	 width="1920px" height="673px" viewBox="0 0 1920 673" style="enable-background:new 0 0 1920 673;" xml:space="preserve">
<style type="text/css">
	.st0{opacity:0.4;}
	.st1{fill:#EAEEF3;}
	.st2{opacity:0.2;fill:url(#SVGID_1_);enable-background:new    ;}
	.st3{opacity:0.3;fill:url(#SVGID_2_);enable-background:new    ;}
	.st4{fill:#FFFFFF;}
	.st5{clip-path:url(#SVGID_4_);}
	.st6{opacity:0.2;fill:url(#SVGID_5_);enable-background:new    ;}
	.st7{fill:none;}
	.st8{clip-path:url(#SVGID_7_);fill:url(#SVGID_8_);}
	.st9{clip-path:url(#SVGID_10_);fill:#FFFFFF;}
	.st10{opacity:0.6;fill:#FFFFFF;enable-background:new    ;}
	.st11{fill:#F1F5FC;}
	.st12{fill:#FFDEAC;}
	.st13{fill:#DDEAFC;}
	.st14{fill:#3B4B99;}
	.st15{fill:#6C3B00;}
	.st16{fill:#4DB1FF;}
	.st17{fill:#B9966D;}
	.st18{fill:#FFEF37;}
	.st19{fill:#A8C1F0;}
	.st20{fill-rule:evenodd;clip-rule:evenodd;fill:#4479EF;}
	.st21{fill:none;stroke:#9BB7F6;stroke-width:0.2;stroke-miterlimit:10;}
	.st22{fill:#5C6AC4;}
	.st23{fill:url(#SVGID_11_);}
	.st24{fill:url(#SVGID_12_);}
	.st25{fill:url(#SVGID_13_);}
	.st26{fill:#2CE5B5;}
	.st27{fill:url(#SVGID_14_);}
	.st28{clip-path:url(#SVGID_16_);}
	.st29{clip-path:url(#SVGID_18_);}
	.st30{clip-path:url(#SVGID_20_);}
	.st31{fill:url(#SVGID_21_);}
	.st32{fill:url(#SVGID_22_);}
	.st33{fill:url(#SVGID_23_);}
	.st34{clip-path:url(#SVGID_27_);}
	.st35{fill:url(#SVGID_28_);}
	.st36{opacity:0.4;fill:url(#SVGID_29_);}
	.st37{fill:url(#SVGID_38_);}
	.st38{clip-path:url(#SVGID_16_);fill:url(#SVGID_39_);}
	.st39{fill:#EBF2FD;}
	.st40{fill:#95EAF9;}
	.st41{fill-rule:evenodd;clip-rule:evenodd;fill:#4479EE;}
	.st42{fill:#91FFD5;}
	.st43{fill:#4275F2;}
	.st44{fill-rule:evenodd;clip-rule:evenodd;fill:#8FAFF5;}
	.st45{fill:#30EAF9;}
	.st46{fill:#F4F6F9;}
	.st47{fill:#DDEAFC;stroke:#DDEAFC;stroke-width:0.7235;stroke-miterlimit:10;}
	.st48{fill:#C2DDFE;}
	.st49{fill:#FF8985;}
	.st50{fill:#BDFFFF;}
	.st51{fill:#EBFFFF;}
	.st52{fill:#17C9FF;}
	.st53{fill:#FFFFFF;stroke:#4479EE;stroke-width:3;stroke-miterlimit:10;}
	.st54{fill-rule:evenodd;clip-rule:evenodd;fill:#95EAF9;}
	.st55{fill:url(#SVGID_40_);}
	.st56{fill:url(#SVGID_41_);}
	.st57{fill:url(#SVGID_42_);}
	.st58{fill:url(#SVGID_43_);}
	.st59{fill:#B9071A;}
	.st60{fill:#4479EF;}
	.st61{clip-path:url(#SVGID_45_);}
	.st62{clip-path:url(#SVGID_47_);}
	.st63{clip-path:url(#SVGID_49_);}
	.st64{fill:url(#SVGID_50_);}
	.st65{fill:url(#SVGID_51_);}
	.st66{fill:url(#SVGID_52_);}
	.st67{clip-path:url(#SVGID_56_);}
	.st68{fill:url(#SVGID_57_);}
	.st69{opacity:0.4;fill:url(#SVGID_58_);}
	.st70{fill:url(#SVGID_67_);}
	.st71{clip-path:url(#SVGID_45_);fill:url(#SVGID_68_);}
	.st72{fill:url(#SVGID_69_);}
	.st73{fill:url(#SVGID_70_);}
	.st74{fill:url(#SVGID_71_);}
	.st75{fill:url(#SVGID_72_);}
	.st76{fill:none;stroke:#FFFFFF;stroke-width:3;stroke-miterlimit:10;}
	.st77{clip-path:url(#SVGID_74_);}
	.st78{clip-path:url(#SVGID_76_);}
	.st79{clip-path:url(#SVGID_78_);}
	.st80{fill:url(#SVGID_79_);}
	.st81{fill:url(#SVGID_80_);}
	.st82{fill:url(#SVGID_81_);}
	.st83{clip-path:url(#SVGID_85_);}
	.st84{fill:url(#SVGID_86_);}
	.st85{opacity:0.4;fill:url(#SVGID_87_);}
	.st86{fill:url(#SVGID_96_);}
	.st87{clip-path:url(#SVGID_74_);fill:url(#SVGID_97_);}
	.st88{fill:url(#SVGID_98_);}
	.st89{fill:url(#SVGID_99_);}
	.st90{fill:url(#SVGID_100_);}
	.st91{fill:url(#SVGID_101_);}
	.st92{fill-rule:evenodd;clip-rule:evenodd;fill:#D0CBC5;}
	.st93{fill-rule:evenodd;clip-rule:evenodd;fill:#EFEFEF;}
	.st94{fill-rule:evenodd;clip-rule:evenodd;fill:#EAF2FF;}
	.st95{fill-rule:evenodd;clip-rule:evenodd;fill:#DCE9FB;}
	.st96{fill-rule:evenodd;clip-rule:evenodd;fill:#90FFD4;}
	.st97{fill-rule:evenodd;clip-rule:evenodd;fill:#4479ED;}
	.st98{fill-rule:evenodd;clip-rule:evenodd;fill:#BFDAFB;}
	.st99{fill-rule:evenodd;clip-rule:evenodd;fill:#FFFFFF;}
	.st100{fill-rule:evenodd;clip-rule:evenodd;fill:#3B4B98;}
	.st101{fill-rule:evenodd;clip-rule:evenodd;fill:#2DDDB5;}
	.st102{fill-rule:evenodd;clip-rule:evenodd;fill:#FFD14D;}
	.st103{font-family:'MyriadPro-Regular';}
	.st104{font-size:18px;}
	.st105{opacity:0.6;enable-background:new    ;}
</style>
<text transform="matrix(1 0 0 1 867.5254 522.7402)" class="st103 st104"> </text>
<g>
	<path class="st11" d="M306.5,377.9c27.1-1.6,53.9,7.8,81,6.7c32.2-1.4,62.6-17.6,94.8-18.3c1.7,0,3.4,0,4.9,0.8
		c2.9,1.6,3.5,5.7,2.1,8.7c-1.4,3-4.1,5.1-6.8,7c-17,12.2-35.5,22.4-54.8,30.4c-13.2,5.5-27.7,10-41.7,7.2c-7-1.4-13.5-4.5-19.9-7.6
		c-17.9-8.6-35.8-17.2-53.8-25.8c-3-1.4-6.1-3-7.9-5.7c4-1.9,8.6-2.6,13-2.2"/>
	<path class="st18" d="M352.8,272.3c1.2-0.3,2.6-0.5,3.8-0.2c2.5,0.7,3.6,3.6,4.3,6c1.4,5.2,2.6,10.5,3.5,15.8
		c-2.5-2.4-5.9-3.6-9.2-4.7c-3.6-1.1-15.1-1.4-17.3-4.1c-2.9-3.6,1.7-7.3,4.5-8.8c-0.4-0.3-0.9-0.6-1.3-1
		C344.7,274,348.9,273.2,352.8,272.3z"/>
	<path class="st19" d="M303.8,258c1.2-0.2,37.6-2.3,38.5-1.6c1.3,1.1-30.7,5.2-29.6,6.5c0.8,0.9-1.4,1.1-0.4,1.5
		c1.1,0.5,2.1,1.7,1.6,2.7c-0.5,1-17.5,3.1-19.3,2.9c-6.3-0.5-0.8-4.9-2.2-9.8C296,259.1,300,258.7,303.8,258z"/>
	<path class="st19" d="M346.3,256.4c6.9,0.5,15,1.8,18.3,7.8c1.2,2.1,1.6,4.6,2,7.1c3.2,20.8,6.2,41.7,8.8,62.6
		c-3.2-1.8-4-6-4.5-9.7c-2.4-18.4-6.2-36.7-11.2-54.6c-0.5-1.8-1.1-3.8-2.5-5c-1.7-1.5-4.1-1.6-6.3-1.8c-22.3-2-34.8,3.8-41,3
		C307.7,256.8,341,256,346.3,256.4z"/>
	<path class="st19" d="M326.9,337.7c0.5-0.2,0.9,0.4,1.1,0.9c0.7,2.1,0.8,4.4,0.9,6.6c0.3,8.5,0.4,17.2-2.8,25.1
		c-0.9,2.1-1.8,5.2-4.2,5.5C324.1,362.9,327.4,351,326.9,337.7z"/>
	<path class="st19" d="M371,350c3.1,2.5,4.7,6.5,5.1,10.4s-0.4,8-1.1,11.9c-1.4,7.1-4,23.4-12,26.1c-1.9-5.7,3.4-14.9,4.7-20.5
		C369.8,368.7,371,359.4,371,350z"/>
	<path class="st19" d="M315.1,293.8c0.3,7,0.1,14.8,4.7,20.1c1.1-7.7,0.9-15.5-0.4-23.1c-0.5-2.9-1.2-5.7-1.4-8.6
		c-0.2-2.6-1.5-12.5-4.1-6.5C311.9,280.2,315,289.1,315.1,293.8z"/>
	<path class="st19" d="M403.5,315.2c-5.1,0.3-9.6-2-14-4.4c-0.2,0.2-0.5,0.4-0.7,0.6c1.9,6.6,0.4,13.8-2.9,19.9s-8.3,10.9-13.7,15.1
		c-5.5,4.3-12,8.1-19.2,8c-5.3,0-11-4.7-16-3.9c0.9,3.7,6.6,8.2,9.6,10.7c4.2,3.5,8.9,6.3,14.3,7.5c12.5,2.9,25.9-3.7,33.5-14
		s10-23.7,9.5-36.5C403.8,317.2,403.6,316.2,403.5,315.2z"/>
	<path class="st19" d="M446.6,321.8c-10.3-0.7-20.6-3-30.9-5.8c-4.7-1.3-11.2-5.5-15.5-1.7c-5.9,5.1-6.2,17.3-8.6,24.4
		c-3.2,9.5-8.3,18.1-11.9,27.3c2.7,1.6,7.5-0.1,10.8,0.3c4.5,0.5,8.9,1,13.4,1.1c9.2,0.1,18.5-1.1,27.4-3.5
		c14.9-4,28.8-11.3,40.3-21.6c12-10.8,20-25.3,28.4-38.9c-5,8.1-14.9,12-23.5,14.9C466.4,321.5,456.5,322.4,446.6,321.8z"/>
	<path class="st19" d="M440.5,362.9c0.2,0.9,0.5,1.8,0.8,2.7c1.4,4.3,3.6,8.6,7.3,11.1c5,3.3,11.8,2.6,16.8-0.6
		c5-3.2,8.3-8.6,10-14.3c1.7-5.7,2.1-11.7,2.4-17.6c0.1-1.8,0-3.9-1.5-4.8c-10.5,11.1-24.5,19-39.5,22.2"/>
	<path class="st18" d="M373.2,273c3.5-0.7,7.2-0.4,10.5,0.8c1,0.4,2.1,0.9,3.2,1c3.2,0.4,6-2,9.1-3c3.9-1.2,8.1-0.1,12,1.1
		c0.7,0.2,1.4,0.4,1.8,0.9c1,1.1,0.9,3.5,2.4,3.5c1.4-0.6,1.1-2.8,2.3-3.7c0.5-0.3,1.1-0.4,1.7-0.4c2.8-0.2,5.6-0.5,8.4-0.7
		c1.1-0.1,2.3-0.2,3.2,0.4c0.9,0.6,1.3,2.1,0.4,2.7c5.4-0.5,10.4,2.4,15.2,5c0.6,0.3,1.2,0.6,1.9,0.7c1.3,0.1,2.5-0.9,3.1-2.1
		s0.7-2.5,0.7-3.9c6.3-0.3,12.7-0.5,19-0.8c1.5-0.1,3.6,0.3,3.7,1.9c0,0.5-0.2,1-0.3,1.6c0,1.4,1.6,2.3,2.9,2.8c2,0.7,4,1.5,6.1,2.2
		c3,1.1,6.3,2.5,7.2,5.5c0.4,1.4,0.2,2.8,0,4.3c-0.3,2.4-0.7,4.8-1,7.3c-0.3,2.4-0.7,4.9-2,6.9c-2.2,3.4-6.5,4.7-10.5,5.4
		c-16.6,3.3-33.8,2.5-50.6,0.8c-2.7-0.3-5.4-0.6-8-1.3c-2.4-0.7-4.7-1.7-7-2.7c-5.5-2.5-10.9-5-16.4-7.4c-4.2-1.9-9.1-3.5-12.8-6.2
		C373.1,291.1,373.5,279.9,373.2,273z"/>
	<path class="st18" d="M377.7,242.9c0-0.6,0.1-1.4,0.7-1.5c0.3-0.1,0.6,0.1,0.8,0.2c1.4,0.8,2.2,2.2,2.8,3.7
		c0.7,1.8,3.2,8.7,0.1,7.9C378.9,252.2,377.7,245.4,377.7,242.9z"/>
	<path class="st18" d="M413.1,240.6c0.1-1.1,0.7-2.4,1.8-2.3c0.9,0.1,1.3,1.2,1.4,2.1c0.5,3.5,1,10.2-1.6,12.9
		C412.4,251.1,412.7,243.5,413.1,240.6z"/>
	<path class="st18" d="M447.7,240.8c0.4-0.4,1-0.8,1.4-0.4c0.2,2.2,0.2,4.4-0.4,6.4c-0.7,2.3-5.3,7.8-5.7,3.5
		C442.5,247.2,445.6,242.9,447.7,240.8z"/>
	<path class="st18" d="M480.6,252.7c0.4-0.2,1-0.4,1.3,0c0.2,0.2,0.2,0.5,0.2,0.7c0,2.5-1.4,4.9-3.3,6.5c-1.8,1.6-4.2,2.9-6.4,3.6
		C471.9,259.3,477.2,254.4,480.6,252.7z"/>
	<g>
		<g>
			<path class="st20" d="M311.7,267.9c-1.2-0.5-2.9-0.2-4.3-0.1c-4.5,0.2-9.8,1.2-14.6,1.5c-1.7-0.1-3.3-0.2-5-0.4
				c-1.7-0.3-3.4-0.8-5.2-1.8c-1.5-0.9-2.9-2.3-3.4-3.7c-0.5-1.6,0.1-3.4,0.9-4.9c0.9-1.5,2.2-2.7,3.7-3.6c1.5-0.8,3.2-1.1,5.1-1.2
				c1.9,0,3.8,0,5.8,0c0.8,0,1.7,0,2.6,0c2.1,0,4.6,0,6.5-0.1c2.1-0.1,3.7-0.7,3.9-1.3c-1.5-0.7-5.1-0.5-8.5-0.6c-2.9,0-6.4,0-9.8,0
				c-1.7,0-3.6,0.2-5.3,0.9c-1.7,0.7-3.1,1.8-4.1,2.9c-0.8,0.9-1.5,1.9-1.9,3c-0.5,1.1-0.8,2.3-0.8,3.6c0,1.3,0.5,2.7,1.3,3.6
				c0.8,1,1.7,1.7,2.7,2.3c2,1.3,4.2,1.9,6.3,2.3c2.2,0.3,4.3,0.4,6.4,0.2c3.1-0.3,5.9-1.1,8.7-1.6
				C305.6,268.3,308.6,267.8,311.7,267.9z"/>
		</g>
	</g>
	<g>
		<g>
			<path class="st20" d="M378.2,331.6c-0.3,0.9-0.5,2-0.9,3.1c-0.2,0.5-0.4,1.1-0.8,1.5c-0.4,0.5-0.9,0.8-1.4,1
				c-0.9,0.2-1.9,0-2.6-0.6c-0.7-0.6-1.1-1.5-1.4-2.3c-0.6-1.8-0.6-3.7-0.7-5.6c-0.2-3.9-0.5-7.8-0.8-11.5
				c-0.2-5.4-0.7-9.9-1.4-16.6c-0.3-2.9-0.6-5.8-1-8.5c-0.3-1.5-0.5-2.9-0.8-4.4c-0.2-1.5-0.5-2.9-0.7-4.4c-0.5-2.9-1-5.8-2-8.7
				c-0.9-2.8-2.4-5.7-4.6-7.9c-0.6-0.5-1.1-1.1-1.9-1.5c-0.7-0.4-1.5-0.8-2.3-1c-1.6-0.5-3.2-0.6-4.7-0.7c-1.2-0.1-2.6-0.1-4-0.2
				c-3.2-0.1-7-0.4-10-0.4c-3.3,0-5.8,0.4-6.1,1c2.3,0.8,7.8,0.9,13.1,1.2c2.2,0.1,4.7,0.2,7.2,0.4c2.5,0.2,5,0.5,6.7,2.1l0.7,0.6
				l0.6,0.7c0.4,0.4,0.7,1,1.1,1.5c0.6,1,1.2,2.1,1.7,3.3c0.9,2.2,1.5,4.5,1.9,6.6c0.7,3.2,1.1,6.5,1.7,9.8c0.6,3.2,1.1,6.5,1.6,9.6
				c0.9,6.5,1.4,12.9,2,19.2c0.2,2.3,0.5,4.6,0.7,6.8c0.3,2.2,0.4,4.4,0.8,6.7c0.2,1.2,0.5,2.4,1.3,3.5c0.7,1.1,2,1.9,3.4,1.7
				c0.7-0.1,1.3-0.5,1.8-0.9c0.5-0.5,0.8-1,1-1.6C378,333.9,378.1,332.7,378.2,331.6z"/>
		</g>
	</g>
	<g>
		<g>
			<path class="st20" d="M377.8,330.8c0.2-2.4-0.2-5.4-0.4-8.1c-0.5-8.5-0.6-18.6-1.5-27.6c-0.3-6.5-0.9-12.1-2.7-20.2
				c-0.8-3.5-1.8-6.9-3.3-10c-1.6-3.4-3.6-6.6-6.3-9.1c-1.3-1.4-3-2.4-4.6-3.2c-1.7-0.8-3.5-1.3-5.2-1.7c-3.6-0.8-7.2-0.9-10.9-1
				c-3.6,0-7.3,0-11,0.2c-1.5,0.1-3.1,0.2-4.8,0.3c-3.9,0.2-8.5,0.5-12.2,0.8c-4,0.4-6.9,1.1-7.3,1.8c2.8,0.5,9.6-0.1,16-0.5
				c5.4-0.3,11.9-0.7,18.3-0.6c3.2,0,6.4,0.1,9.4,0.5c0.7,0.1,1.4,0.3,2.1,0.4c0.7,0.2,1.4,0.4,2.1,0.6c1.3,0.4,2.6,0.9,3.7,1.4
				c0.8,0.4,1.6,0.9,2.3,1.5c0.7,0.6,1.4,1.4,2,2.1c0.7,0.7,1.2,1.5,1.8,2.3c0.6,0.8,1,1.7,1.6,2.5c1.9,3.4,3.3,7.1,4.3,10.8
				c2.1,7.6,2.8,15.5,3.5,23.1c0.2,2.8,0.5,5.6,0.8,8.3c0.2,2.7,0.5,5.4,0.7,8.1C376.8,319.4,377.3,325.1,377.8,330.8z"/>
		</g>
	</g>
	<g>
		<g>
			<path class="st20" d="M320.2,270.9c-0.2,1.6,0.3,3.6,0.5,5.4c0.3,2.9,0.5,6,0.8,9.1c0.3,3.2,0.7,6.4,1,9.4
				c0.1,4.4,0.4,8.1-0.3,13.6c-0.2,1.2-0.4,2.3-0.7,3.5c-0.1,0.6-0.2,1.1-0.4,1.6c-0.1,0.5-0.4,1-0.5,1.2c-0.1,0.1-0.2,0.1-0.3,0.1
				c0,0-0.1,0-0.2-0.1c0,0-0.1,0-0.1-0.1l-0.1-0.1c-0.2-0.2-0.3-0.3-0.4-0.5c-0.1-0.2-0.2-0.4-0.3-0.7c-0.3-1-0.5-2.2-0.6-3.4
				c-0.3-2.4-0.5-4.7-0.7-7.1c-0.3-4.8-0.6-9.6-1.3-14.6c-0.2-1-0.3-2.1-0.6-3.2c-0.5-2.6-1.3-5.7-2.4-8c-1.1-2.5-2.7-4-3.4-3.9
				c0.1,1,0.8,2.4,1.5,4.2c0.6,1.8,1.4,3.8,1.8,5.9c0.8,3.5,1.4,7.8,1.7,12.1c0.4,4.3,0.6,8.6,1,12.2c0.2,1.4,0.3,2.7,0.5,4.1
				c0.1,0.7,0.2,1.4,0.5,2.2c0.1,0.4,0.3,0.8,0.5,1.1c0.1,0.2,0.2,0.4,0.4,0.6c0.2,0.2,0.3,0.4,0.5,0.5c0.2,0.1,0.3,0.3,0.6,0.4
				l0.4,0.2c0.2,0,0.3,0.1,0.5,0.1c0.7,0.1,1.3-0.2,1.7-0.7c0.2-0.2,0.3-0.5,0.4-0.7c0.1-0.2,0.2-0.4,0.2-0.6
				c0.1-0.4,0.2-0.7,0.3-1.1c0.2-0.7,0.2-1.4,0.3-2c0.1-0.7,0.2-1.3,0.3-2c0.8-5.5,0.6-10.9,0-16.1c-0.4-3.8-1.2-7.4-1.7-11
				C321.4,278.5,320.8,274.7,320.2,270.9z"/>
		</g>
	</g>
	<g>
		<g>
			<path class="st20" d="M313.9,282.8c-0.2-0.4-0.5-0.2-0.8-0.2c-0.8-0.1-1.8-0.7-2.7-0.6c-0.6-0.3-1.2-0.2-2-0.3
				c-0.3,0-0.7-0.2-1-0.3c-1.4-0.2-2.8-0.3-4.3-0.4c-0.1,0-0.3,0-0.5,0c-0.4,0-0.8-0.1-1.2,0c-0.4,0.1-0.7,0.7-0.7,1.3
				c0.3,0.7,0.9,0.6,1.6,0.6c1.1,0.1,2.5,0.1,3.5,0.1c0.8,0,1.6,0.1,2.3,0.1c0.8,0,1.5,0,2.3,0c0.5,0,1.1-0.2,1.6-0.2
				C312.7,282.9,313.3,282.9,313.9,282.8z"/>
		</g>
	</g>
	<g>
		<g>
			<path class="st20" d="M365.7,293.7c-0.6-0.6-1.6-0.8-2.4-1.1c-2.6-1.1-5.5-2.6-8.4-3.3c-2-0.8-3.7-1.3-6.3-2
				c-1.1-0.3-2.2-0.7-3.3-1c-4.6-1.2-9.1-1.9-13.9-2.5c-0.5,0-1-0.1-1.6-0.1c-1.3-0.1-2.8-0.3-4-0.3c-1.3,0-2.3,0.5-2.4,1.2
				c0.9,0.7,3.1,0.7,5.1,0.9c1.7,0.2,3.8,0.4,5.9,0.7c2.1,0.3,4.1,0.6,5.8,0.9c2.6,0.4,5.1,1.1,7.6,1.6c2.5,0.6,5,1.3,7.4,1.9
				c1.8,0.5,3.5,0.9,5.2,1.4C362.1,292.5,363.8,293.1,365.7,293.7z"/>
		</g>
	</g>
	<g>
		<g>
			<path class="st20" d="M399.2,305.5c-0.3-0.4-0.8-0.3-1.2-0.5c-1.3-0.5-2.7-1.4-4.2-1.7c-0.9-0.6-1.8-0.8-3.1-1.3
				c-0.5-0.2-1-0.6-1.5-0.8c-2.2-1-4.2-2-6.3-3c-0.2-0.1-0.5-0.2-0.7-0.3c-0.6-0.2-1.2-0.7-1.8-0.8c-0.6-0.2-1.3,0.1-1.6,0.6
				c0.1,0.8,1.1,1.2,2.1,1.8c1.6,0.9,3.9,1.9,5.5,2.5c1.2,0.5,2.5,1,3.7,1.5c1.3,0.4,2.5,0.9,3.7,1.2c0.9,0.2,1.8,0.3,2.7,0.5
				C397.3,305.2,398.3,305.3,399.2,305.5z"/>
		</g>
	</g>
	<g>
		<g>
			<path class="st20" d="M401.7,308c-0.1,1.3,0.3,2.8,0.5,4.3c0.5,4.5,0.1,9.8-0.1,14.5c-0.5,3.4-0.7,6.3-1.6,10.5
				c-0.4,1.8-1,3.5-1.5,5.2c-1.1,3.6-2.5,7.1-4.3,10.3c-1.8,3.2-4,6.2-6.8,8.6c-0.6,0.5-1.2,1-1.9,1.5c-1.6,1.1-3.7,2.1-5.4,2.8
				c-1.9,0.7-3.3,1.5-3.4,2.2c0.4,0.1,0.9,0.1,1.5,0.1c0.6,0,1.3-0.2,2.1-0.4c1.5-0.4,3.2-1.1,4.7-2c2.6-1.4,5.4-3.8,7.6-6.6
				c2.2-2.7,3.9-5.8,5-8.4c1.8-4,3.1-8.2,3.9-12.3c0.8-4.2,1.4-8.4,1.5-12.5c0.1-3-0.1-5.9-0.3-8.8C402.8,314,402.3,311,401.7,308z"
				/>
		</g>
	</g>
	<g>
		<g>
			<path class="st20" d="M363.4,367c-0.6-0.5-1.5-0.5-2.3-0.7c-2.4-0.7-5-2.2-7.5-3.1c-0.8-0.5-1.6-0.9-2.4-1.4
				c-0.8-0.4-1.7-0.9-2.7-1.5c-0.9-0.5-1.6-1.2-2.5-1.8c-3.5-2.4-6.6-5-9.6-7.9c-0.3-0.3-0.7-0.6-1-1c-0.8-0.8-1.7-1.8-2.5-2.5
				c-0.8-0.8-1.9-1.1-2.4-0.7c0,1.1,1.5,2.5,2.8,3.9c2.2,2.4,5.6,5.3,8.1,7.1c1.9,1.5,3.9,2.8,6,4c2.1,1.2,4.2,2.2,6.3,3.1
				c0.8,0.3,1.6,0.5,2.4,0.8c0.8,0.2,1.6,0.4,2.3,0.6c0.8,0.2,1.7,0.4,2.5,0.6C361.7,366.7,362.5,366.9,363.4,367z"/>
		</g>
	</g>
	<g>
		<g>
			<path class="st20" d="M322.8,336.5c-0.3-1-1.2-2-1.8-2.9c-1.9-3.1-3.5-7-5.3-10.3c-1-2.6-2.1-4.6-3.4-7.8
				c-0.6-1.4-0.9-2.8-1.5-4.1c-2.1-5.7-4-11.2-5.8-17.1c-0.2-0.6-0.4-1.3-0.6-1.9c-0.5-1.5-1-3.4-1.6-4.9c-0.6-1.6-1.5-2.6-2.2-2.6
				c-0.3,1.3,0.6,4,1.4,6.6c1.3,4.4,3.3,10.4,4.9,14.6c1.2,3.2,2.4,6.4,3.7,9.5c1.4,3.1,2.8,6.1,4.3,9c0.6,1,1.2,2,1.8,3
				c0.6,1,1.3,1.9,1.8,2.9c0.7,1,1.3,2,2,3.1C321.4,334.6,322.1,335.5,322.8,336.5z"/>
		</g>
	</g>
	<g>
		<g>
			<path class="st20" d="M496.4,302.5c-0.8,0.5-1.6,1.1-2.4,1.8c-0.8,0.6-1.7,1.3-2.5,1.9c-2.7,1.7-5.9,3.1-9.3,4.1
				c-3.4,1-6.9,1.7-10.3,2.2c-4.9,0.4-9,0.7-15.2,0.7c-2.6,0-5.3-0.2-7.8-0.2c-5.5-0.1-10.8-0.5-16-1c-5.3-0.6-10.6-1.3-16-2.4
				c-1.1-0.2-2.3-0.5-3.5-0.7c-2.8-0.6-6.2-1.5-8.8-2.1c-2.9-0.7-5.2-0.8-5.7-0.2c1.8,1.3,6.7,2.6,11.5,3.7c4,1,8.8,1.9,13.6,2.6
				c4.8,0.7,9.6,1.2,13.6,1.5c3,0.2,6.1,0.4,9.2,0.4c3.1,0.1,6.1,0.1,9,0c6-0.1,12-0.2,17.8-1.2c4.2-0.7,8.2-1.9,12-3.6
				C489.7,308.1,493.4,305.6,496.4,302.5z"/>
		</g>
	</g>
	<g>
		<g>
			<path class="st20" d="M500.2,300.2c-0.5,1.2-1,2.6-1.4,4c-0.2,0.7-0.4,1.5-0.6,2.2c-0.3,0.7-0.5,1.4-0.8,2.1
				c-0.4,1.1-0.9,2.2-1.4,3.3l-0.4,0.8l-0.4,0.8c-0.3,0.5-0.6,1.1-0.9,1.6c-0.6,1.1-1.2,2.2-1.8,3.3c-0.7,1.1-1.4,2.1-2,3.2
				c-2.7,4.3-6,8.3-9.2,12.1c-2.5,2.5-4.8,4.8-7.5,7.1c-0.7,0.6-1.3,1.2-2,1.8c-0.7,0.6-1.4,1.1-2.2,1.7c-1.5,1.2-3.1,2.5-5,3.6
				l-2.4,1.6l-1.2,0.8l-1.2,0.7c-1.6,0.9-3.3,1.8-4.8,2.7c-6.9,3.7-14.1,6.5-21.5,8.6c-0.9,0.3-1.8,0.6-2.8,0.8l-2.8,0.6l-2.8,0.6
				c-0.9,0.2-1.9,0.3-2.8,0.5c-3.8,0.6-7.7,1-11.6,1.2c-1.6,0.1-3.4,0.2-5.2,0.2c-4.2,0.1-9.2,0-13.2,0c-4.3,0-7.6,0.5-8,1.1
				c3,0.7,10.3,0.9,17.3,0.9c5.9,0,13-0.2,20-1.3c3.5-0.5,6.9-1.4,10.2-2.2c3.2-1,6.3-1.8,9-2.9c8.3-3,16.4-7,23.5-11.9
				c7.3-5,13.8-10.7,19.2-17.1c4.1-4.7,7.1-9.8,9.9-15c0.7-1.4,1.4-2.8,2.1-4.3c0.4-0.7,0.6-1.4,0.9-2.2l0.8-2.2l0.8-2.2
				c0.3-0.7,0.4-1.5,0.7-2.2L500.2,300.2z"/>
		</g>
	</g>
	<g>
		<g>
			<path class="st20" d="M484,337.3c0,0.7,0.1,1.4,0.3,2.1c0.1,0.7,0.3,1.5,0.4,2.2c0.5,4.6-0.2,10-1.6,14.7
				c-0.6,1.7-1.2,3.2-1.9,4.7c-0.4,0.8-0.8,1.6-1.2,2.4c-0.5,0.8-1,1.7-1.6,2.6c-1,1.6-2.4,2.9-3.6,4.2c-2.7,2.8-5.8,5.1-9.4,6
				c-3.5,1-7.4,0.2-10.3-2.2c-0.6-0.5-1.2-1.1-1.8-1.7c-1.4-1.5-2.6-3.6-3.4-5.3c-1-1.9-1.8-3.3-2.4-3.3c-0.1,1.6,1.3,5.2,3.4,8.1
				c0.9,1.2,2,2.5,3.4,3.6c1.4,1.1,3.1,2,4.9,2.4c1.8,0.5,3.7,0.5,5.5,0.1c1.7-0.3,3.3-1,4.6-1.7c4-2.2,7.3-5.6,9.7-9.1
				c1.3-1.8,2.3-3.8,3.2-5.7c0.9-2,1.6-4,2.1-6.1c0.8-3,1-6,1-9C485.3,343.4,484.9,340.3,484,337.3z"/>
		</g>
	</g>
	<g>
		<g>
			<path class="st20" d="M477.2,345.7c-0.3,0.6-0.1,1.3-0.2,2c-0.3,2.1-1.1,4.3-1.7,6.4c-0.7,1.4-1.1,2.7-2.1,4.4
				c-0.4,0.7-1,1.4-1.4,2c-0.9,1.4-2.2,2.5-3.6,2.8c-0.7,0.1-1.4,0-1.9-0.3c-0.6-0.3-1.1-0.9-1.5-1.6c-0.2-0.3-0.4-0.6-0.5-0.9
				c-0.4-0.8-0.7-1.8-1-2.6c-0.3-0.8-0.9-1.5-1.4-1.5c-0.6,0.8-0.2,2.5,0.5,4c0.3,0.7,0.6,1.3,1,2c0.4,0.7,1,1.4,1.9,1.9
				c0.8,0.5,1.8,0.8,2.7,0.7c0.9-0.1,1.8-0.4,2.4-0.8c1-0.6,1.7-1.4,2.4-2.3c0.6-0.9,1.1-1.7,1.6-2.6c0.9-1.8,1.7-3.6,2.3-5.4
				c0.4-1.4,0.5-2.7,0.7-4C477.2,348.5,477.3,347.1,477.2,345.7z"/>
		</g>
	</g>
	<g>
		<g>
			<path class="st20" d="M455.9,377.2c-0.3-0.3-0.8-0.1-1.2-0.2c-1.3-0.2-2.6-0.9-3.8-1.3c-0.4-0.3-0.8-0.5-1.2-0.7
				c-0.4-0.2-0.8-0.5-1.3-0.8c-0.4-0.3-0.7-0.8-1-1.1c-0.7-0.7-1.4-1.5-1.9-2.3c-0.6-0.8-1-1.7-1.4-2.6c-0.1-0.2-0.1-0.4-0.2-0.6
				c-0.2-0.5-0.3-1.1-0.5-1.6c-0.2-0.5-0.7-0.9-1.2-0.9c-0.5,0.5-0.3,1.5,0,2.5c0.1,0.4,0.3,0.8,0.4,1.3c0.2,0.4,0.4,0.9,0.6,1.3
				c0.5,0.9,1.1,1.7,1.6,2.3c0.8,1,1.7,1.8,2.7,2.6c1,0.7,2.1,1.3,3.2,1.7c0.4,0.1,0.8,0.2,1.3,0.3c0.4,0.1,0.8,0.1,1.2,0.2
				c0.4,0,0.9,0.1,1.3,0.1C455.1,377.3,455.5,377.2,455.9,377.2z"/>
		</g>
	</g>
	<g>
		<g>
			<path class="st20" d="M368.4,346.9c1.4,1.4,3.4,3,4.7,4.9c1,1.5,1.9,3.1,2.4,5c0.5,1.8,0.5,3.8,0.3,5.7
				c-0.4,3.9-1.4,7.7-2.2,11.4c-0.7,2.7-1.3,5.1-1.9,7.7c-0.7,2.6-1.5,5.3-2.8,8.5c-1.1,2.7-2.6,5.3-4.7,6.8
				c-0.6,0.4-1.2,0.7-1.9,0.9c-0.2,0.1-0.3,0.1-0.5,0.1l-0.2,0c0,0-0.1-0.1-0.1-0.1c-0.1-0.1-0.2-0.3-0.3-0.4c-0.7-1.2-1-2.5-1-3.9
				c0-1.4,0.4-2.8,0.7-4.2c0.4-1.5,0.6-2.9,0.9-4.4c1.1-5.8,2.7-11.5,4.2-17.4c0.3-1.2,0.6-2.5,0.9-3.9c0.7-3.2,1.6-7,1.9-10
				c0.4-3.3,0.1-5.9-0.4-6.2c-0.4,1.1-0.6,3.1-1,5.4c-0.4,2.3-0.9,5-1.4,7.6c-1,4.4-2.3,9.6-3.6,14.8c-0.6,2.6-1.2,5.2-1.8,7.8
				c-0.2,1.3-0.5,2.5-0.7,3.7c-0.2,1.2-0.4,2.2-0.7,3.3c-0.4,1.6-0.7,3.5-0.4,5.3c0.1,0.9,0.5,1.8,0.9,2.7l0.4,0.6l0.6,0.8l0.2,0.3
				c0,0.1,0.1,0,0.1,0l0.2,0l0.6-0.1l0.5-0.1c0.1,0,0.2-0.1,0.3-0.1c1.8-0.6,3.3-1.8,4.4-3.2c1.1-1.4,1.9-2.9,2.5-4.5
				c2.7-6.3,3.9-12.8,5.3-19c0.5-2.3,0.9-4.6,1.2-6.9c0.3-2.3,0.5-4.6,0.2-6.9c-0.3-2.5-1.4-4.8-2.8-6.7
				C372.2,350,370.4,348.3,368.4,346.9z"/>
		</g>
	</g>
	<g>
		<g>
			<path class="st20" d="M324.4,331.2c1.1,1.5,2.7,3.2,3.8,4.9c1,1.3,1.4,3,1.6,4.7c0.2,1.7,0.1,3.5,0,5.3
				c-0.3,3.6-0.3,7.2-0.6,10.6c-0.3,2.5-0.8,4.7-1.7,7c-0.4,1.2-0.8,2.4-1.2,3.6c-0.1,0.3-0.2,0.6-0.3,1l-0.2,0.5
				c0,0.1-0.1,0.2-0.2,0.4c-0.4,0.6-0.7,1.3-1,2.1c-1.1,2.5-2,5-3.7,6.7c-0.2,0.2-0.5,0.4-0.7,0.6c-0.1,0.1-0.3,0.2-0.4,0.2
				c0,0-0.1,0.1-0.1,0.1c-0.3,0.2-0.2-0.1-0.2-0.3c0-0.7,0-1.4,0-2.1l0-1l0-0.5c0-0.1,0-0.1,0-0.1l0.1-0.2c0.7-2.6,1.3-5.3,2-7.9
				c1.2-5.3,2.3-10.6,3-16.2c0.1-1.1,0.3-2.4,0.4-3.7c0.3-3,0.5-6.5,0.4-9.3c-0.1-3.1-0.7-5.3-1.2-5.6c-0.4,2.1-0.1,7.2-0.5,12.1
				c-0.3,4.1-0.9,9-1.8,13.8c-0.9,4.8-2,9.5-2.9,13.4l-0.6,2.2l-0.3,1.2c0,0.1,0,0.2,0,0.3l0,0.1l0,0.3l0,0.6l0,2.3l0,0.8
				c0,0.4,0,0.8,0,1.1l0,0.5c0,0.2,0,0.4,0.2,0.3l1-0.4c0.3-0.2,0.7-0.2,1-0.5l0.4-0.2c0.1-0.1,0.2-0.1,0.3-0.2
				c0.3-0.3,0.7-0.5,1-0.9c0.6-0.6,1.1-1.3,1.5-2c0.8-1.4,1.3-2.8,1.9-4.2c0.3-0.7,0.6-1.4,0.9-2.1c0.2-0.3,0.3-0.6,0.5-1l0.1-0.1
				c0.1-0.1,0.1-0.2,0.1-0.3l0.1-0.3l0.2-0.5c0.5-1.4,0.9-2.9,1.4-4.3c0.2-0.7,0.5-1.4,0.7-2.2c0.2-0.7,0.4-1.5,0.5-2.2
				c0.3-1.5,0.4-3,0.5-4.5c0.1-2.2,0.1-4.3,0.2-6.4c0-2.1,0.1-4.2,0-6.2c-0.1-2.2-0.5-4.5-1.8-6.4
				C327.3,334.5,325.9,332.8,324.4,331.2z"/>
		</g>
	</g>
	<g>
		<g>
			<path class="st20" d="M363.1,284.5c-0.5-0.3-1,0-1.6,0c-1.6,0.1-3.5-0.4-5.2-0.5c-1.2-0.4-2.5-0.2-2-1.8l0.1-0.1
				c0.2-0.1,0.5-0.2,0.7-0.3c0.3-0.1,0.5-0.2,0.8-0.4l0.6-0.3c0.4-0.2,0.8-0.3,1.2-0.5c-0.3,0-0.5,0-0.8,0l-0.4,0
				c-0.1,0-0.1,0-0.2,0l-0.3,0c-0.1,0-0.2,0-0.2,0c0,0-0.1-0.1-0.2-0.1c0,0,0-0.1,0-0.1l0.1-0.1c0.1,0,0.1,0,0.2-0.1
				c0.1,0,0,0-0.1,0l-0.1,0c-0.1,0-0.2,0-0.3,0c-0.6,0-1.2,0.1-1.8,0.1c-0.5,0-1.3,0-1.5,0c-0.7,0-1.3,0-2-0.1
				c-1.3-0.1-2.6-0.3-3.4-0.9c-0.1-0.1-0.3-0.3-0.4-0.4c-0.2-0.2-0.1-0.9,0-1.1c0-0.2,0-0.3,0-0.6c0-0.3,0.2-0.6,0.2-0.9
				c-0.2-0.2-0.4-0.3-0.8-0.2c-0.3,0.1-0.7,0.3-0.9,0.6c-0.5,0.6-0.7,1.5-0.5,2.4c0.3,1.7,2,2.5,3.4,2.8c1.4,0.3,2.6,0.3,3.6,0.3
				l1.2,0l0,0c0,0,0,0,0,0l0,0c0-0.2-0.1,0.6,0.1,1.2c0.2,0.6,0.7,1.2,1.2,1.4c0.5,0.3,1,0.3,1.4,0.3c0.4,0,0.8,0.1,1.1,0.1
				c1.1,0,2.2-0.1,3.2-0.2C360.9,285,362,284.8,363.1,284.5z"/>
		</g>
	</g>
	<g>
		<g>
			<path class="st20" d="M401.1,288.7c-0.7-0.2-1.6,0.1-2.3,0.2c-2.5,0.2-5.4-0.2-8-0.3c-0.5-0.1-0.9-0.2-1.3-0.3
				c-0.4-0.1-0.6-0.3-0.6-0.6c-0.1-0.3,0-0.7,0.3-1.1c0.1-0.2,0.2-0.3,0.4-0.5l0.1-0.1c0.1,0,0.2-0.1,0.2-0.2
				c0.2-0.1,0.4-0.2,0.6-0.3c0.8-0.4,1.4-0.8,2.2-1.3c-0.1-0.1-0.5-0.3-0.7-0.4c-0.2-0.1-0.5-0.3-0.8-0.4l-0.5-0.2l-0.6-0.2
				l-0.6-0.1c-0.2,0-0.5-0.1-0.6-0.1c-0.6-0.1-1.1-0.1-1.6-0.1c-1.1,0-2.1,0-3.1,0c-1.9,0-3.9-0.5-4.8-1.8c-0.2-0.3-0.3-0.5-0.3-0.8
				c-0.1-0.6,0.5-1.7,1.1-2.4c0.5-0.8,0.9-1.6,0.7-2.3c-1.1-0.2-2.9,1.4-3.5,3.5c-0.1,0.5-0.2,1-0.1,1.6c0.1,0.6,0.4,1.2,0.7,1.6
				c0.7,0.9,1.7,1.5,2.7,1.9c2,0.7,4.1,0.6,5.6,0.5c0.9,0,1.8,0,2.7,0c0.1,0,0,0,0.1,0c0,0,0,0,0,0c0,0,0,0,0,0
				c0.1,0-0.2,0.1-0.3,0.2c-0.1,0.1-0.3,0.3-0.4,0.4c-0.5,0.7-0.8,1.4-0.7,2.4c0.1,0.5,0.4,1,0.8,1.3c0.4,0.3,0.9,0.4,1.2,0.4
				c0.7,0.1,1.2,0.1,1.8,0.1c1.7,0.1,3.3-0.1,4.9-0.3C397.9,289.4,399.5,289.1,401.1,288.7z"/>
		</g>
	</g>
	<g>
		<g>
			<path class="st20" d="M387.3,296.2c0.4-0.1,0.1-0.4,0.2-0.5c0.1-0.6,0.6-1.2,0.5-1.9c0.3-0.4,0.2-0.8,0.3-1.4
				c0-0.2,0.2-0.5,0.3-0.7c0.2-1,0.2-2,0.3-3c0-0.1,0-0.2,0-0.3c0-0.3,0-0.6-0.1-0.9c-0.1-0.3-0.7-0.4-1.3-0.4
				c-0.7,0.3-0.6,0.7-0.6,1.1c-0.1,0.7,0,1.7,0,2.5c0,0.5-0.1,1.1,0,1.6c0,0.5,0,1.1,0,1.6c0,0.4,0.2,0.8,0.3,1.1
				C387.1,295.4,387.2,295.8,387.3,296.2z"/>
		</g>
	</g>
	<g>
		<g>
			<path class="st20" d="M378.1,288.5c0.3-0.1,0.1-0.3,0.1-0.4c0.1-0.5,0.5-1,0.4-1.5c0.2-0.4,0.1-0.7,0.2-1.1
				c0-0.2,0.2-0.4,0.2-0.6c0.2-0.8,0.2-1.5,0.3-2.3c0-0.1,0-0.2,0-0.3c0-0.2,0.1-0.5,0-0.7c-0.1-0.2-0.6-0.4-1.3-0.4
				c-0.7,0.2-0.6,0.5-0.7,0.9c-0.1,0.6-0.1,1.4-0.1,2c0,0.4-0.1,0.9,0,1.3c0.1,0.4,0,0.9,0.1,1.3c0.1,0.3,0.3,0.6,0.4,0.9
				C377.9,287.9,378,288.2,378.1,288.5z"/>
		</g>
	</g>
	<g>
		<g>
			<path class="st20" d="M383.3,287.3c0-0.4-0.2-0.2-0.3-0.2c-0.3-0.2-0.5-0.8-0.9-0.7c-0.2-0.3-0.4-0.3-0.7-0.5
				c-0.1-0.1-0.2-0.3-0.3-0.4c-0.5-0.4-1-0.6-1.5-0.9c-0.1,0-0.1-0.1-0.2-0.1c-0.2,0-0.3-0.2-0.5-0.2c-0.2,0-0.5,0.5-0.7,1.1
				c-0.2,0.7,0.1,0.7,0.3,0.9c0.4,0.3,0.9,0.5,1.3,0.6c0.3,0.1,0.6,0.3,0.9,0.3c0.3,0.1,0.6,0.2,0.9,0.2c0.2,0,0.5-0.1,0.7-0.1
				C382.7,287.4,383,287.3,383.3,287.3z"/>
		</g>
	</g>
	<g>
		<g>
			<path class="st20" d="M386.1,290.7c-0.2-0.3-0.4-0.1-0.6-0.1c-0.6,0-1.3-0.5-1.9-0.3c-0.4-0.3-0.8-0.2-1.4-0.3
				c-0.2-0.1-0.4-0.3-0.7-0.3c-0.9-0.3-1.8-0.6-2.7-1c-0.1,0-0.2-0.1-0.3-0.1c-0.2-0.1-0.5-0.3-0.7-0.3c-0.3,0-0.7,0.4-1,1
				c-0.1,0.7,0.4,0.8,0.8,1.1c0.7,0.4,1.8,0.7,2.5,0.9c0.6,0.1,1.2,0.3,1.8,0.3c0.6,0,1.2,0.1,1.7,0c0.4-0.1,0.8-0.3,1.2-0.4
				C385.4,291,385.8,290.9,386.1,290.7z"/>
		</g>
	</g>
	<g>
		<g>
			<path class="st20" d="M399.7,292.5c-0.3-0.3-0.5,0-0.7,0c-0.8,0.1-1.6-0.3-2.4-0.1c-0.6-0.2-1-0.1-1.7-0.2
				c-0.3,0-0.6-0.3-0.9-0.3c-1.2-0.3-2.3-0.6-3.4-1c-0.1,0-0.2-0.1-0.4-0.1c-0.3-0.1-0.6-0.3-0.9-0.3c-0.3-0.1-0.8,0.4-1.1,0.9
				c-0.1,0.7,0.5,0.9,1.1,1.2c0.9,0.5,2.2,0.8,3.2,1c0.7,0.1,1.5,0.3,2.2,0.3c0.7,0,1.5,0,2.2-0.1c0.5-0.1,1-0.3,1.5-0.5
				C398.8,293,399.3,292.8,399.7,292.5z"/>
		</g>
	</g>
	<g>
		<g>
			<path class="st20" d="M398.9,295.6c-0.3-0.3-0.4,0-0.7,0c-0.7,0.1-1.5-0.2-2.2,0c-0.5-0.2-1-0.1-1.6-0.1c-0.3,0-0.5-0.2-0.8-0.3
				c-1.1-0.2-2.1-0.5-3.2-0.8c-0.1,0-0.2-0.1-0.3-0.1c-0.3-0.1-0.6-0.3-0.9-0.3c-0.3,0-0.7,0.4-1,1c0,0.7,0.5,0.9,1,1.1
				c0.8,0.4,2.1,0.6,3,0.7c0.7,0.1,1.4,0.2,2,0.1c0.7,0,1.3-0.1,2-0.2c0.5-0.1,0.9-0.4,1.3-0.5C398.1,296.1,398.5,295.9,398.9,295.6
				z"/>
		</g>
	</g>
	<g>
		<g>
			<path class="st20" d="M416.8,289.8c0.3-0.1,0.4-0.3,0.5-0.6c0.1-0.3,0-0.6,0-0.8c0-0.8-0.4-1.8-1.2-2.4c-0.7-0.7-1.6-1.2-2.6-1.3
				c-1.3-0.6-2.5-0.6-4.2-0.5c-0.4,0-0.8,0.1-1.1,0.1c-0.2,0-0.2,0-0.3,0c-0.1,0-0.1,0-0.2-0.1l0,0c0,0-0.1-0.1-0.1-0.2
				c0,0,0,0,0-0.1c0-0.1-0.1-0.2-0.2-0.4c-0.2-0.5-0.6-0.8-1-1.1c-0.8-0.5-1.6-0.6-2.4-0.7c-1.5-0.1-2.9-0.1-4.4-0.2
				c-0.3,0-0.6,0-1,0c-0.8,0-1.7-0.1-2.5,0c-0.8,0.1-1.4,0.6-1.5,1.3c0.6,0.7,1.9,0.6,3.2,0.7c1.1,0.1,2.4,0.1,3.7,0.1
				c0.6,0,1.3,0,1.9,0c0.6,0,1.1,0.1,1.5,0.2c0.4,0.1,0.6,0.3,0.8,0.4c0,0,0.1,0.1,0.1,0.1c0,0.1,0,0,0.1,0.2
				c0.2,0.5,0.4,0.9,0.8,1.1c0.5,0.3,1.2,0.3,1.8,0.1c0.3-0.1,0.6-0.2,0.8-0.2c1.4-0.3,2.9-0.2,4.2,0.2c1,0.3,2,0.5,2.7,1.2
				C417,287.8,417.3,288.9,416.8,289.8z"/>
		</g>
	</g>
	<g>
		<g>
			<path class="st20" d="M396.1,276.2c-0.1-0.4-0.4-0.2-0.7-0.3c-0.7-0.2-1.5-0.8-2.3-0.7c-0.5-0.3-1-0.2-1.8-0.3
				c-0.3,0-0.6-0.2-0.9-0.2c-1.3-0.1-2.5-0.1-3.8,0.1c-0.1,0-0.3,0-0.4,0.1c-0.3,0.1-0.8,0.1-1.1,0.2c-0.3,0.2-0.4,0.8-0.3,1.4
				c0.4,0.6,0.9,0.4,1.5,0.3c0.9-0.1,2.1-0.3,3-0.3c0.7-0.1,1.3,0,2-0.1c0.7,0,1.3,0,1.9,0c0.5,0,0.9-0.2,1.4-0.2
				C395.1,276.2,395.6,276.2,396.1,276.2z"/>
		</g>
	</g>
	<g>
		<g>
			<path class="st20" d="M394.7,278.9c0,0.3,0.2,0.1,0.2,0.1c0.2,0,0.8,0.3,1-0.1c0.3,0,0.4-0.2,0.6-0.5c0.1-0.1,0.3-0.2,0.4-0.4
				c0.3-0.7,0.1-1.4-0.3-2.1c0-0.1-0.1-0.1-0.2-0.2c-0.2-0.1-0.3-0.3-0.5-0.4c-0.3,0-0.6,0.5-0.8,1.1c-0.1,0.7-0.1,0.6-0.1,0.7
				c0,0.2,0.1,0.3,0.1,0.4c0,0.1,0,0.1,0,0.1c0,0.1,0,0.1-0.1,0.3c0,0.1,0,0.3-0.1,0.4C395,278.7,394.9,278.8,394.7,278.9z"/>
		</g>
	</g>
	<g>
		<g>
			<path class="st20" d="M353.2,289c0.3-0.1,0.1-0.3,0.1-0.5c0.1-0.5,0.5-1.1,0.4-1.6c0.2-0.4,0.1-0.7,0.2-1.2
				c0-0.2,0.2-0.4,0.2-0.6c0.2-0.8,0.2-1.6,0.3-2.5c0-0.1,0-0.2,0-0.3c0-0.2,0.1-0.5,0-0.7c-0.1-0.2-0.6-0.4-1.3-0.4
				c-0.7,0.2-0.6,0.6-0.7,0.9c-0.1,0.6-0.1,1.5-0.1,2.1c0,0.5,0,0.9,0,1.4c0.1,0.5,0,0.9,0.1,1.4c0.1,0.3,0.3,0.6,0.4,1
				C352.9,288.4,353,288.7,353.2,289z"/>
		</g>
	</g>
	<g>
		<g>
			<path class="st20" d="M341.8,278.1c-0.2-0.3-0.2-0.1-0.3-0.1c-0.3,0-0.7-0.5-1-0.3c-0.2-0.2-0.4-0.1-0.7-0.3
				c-0.1,0-0.2-0.2-0.3-0.3c-0.4-0.2-0.8-0.5-1.2-0.7c0,0-0.1-0.1-0.1-0.1c-0.1,0-0.2-0.2-0.3-0.2c-0.1,0-0.5,0.4-0.9,0.9
				c-0.3,0.6,0,0.7,0.2,0.9c0.4,0.3,1,0.6,1.4,0.7c0.3,0.1,0.7,0.2,1,0.2c0.4,0,0.7,0,1,0c0.2-0.1,0.5-0.3,0.7-0.4
				C341.4,278.5,341.6,278.3,341.8,278.1z"/>
		</g>
	</g>
	<g>
		<g>
			<path class="st20" d="M338.2,281.7c-0.2-0.3-0.4,0-0.6,0c-0.6,0-1.4-0.4-2-0.2c-0.5-0.2-0.9-0.1-1.5-0.2c-0.3,0-0.5-0.2-0.7-0.3
				c-1-0.2-2-0.4-3-0.7c-0.1,0-0.2-0.1-0.3-0.1c-0.3,0-0.6-0.2-0.8-0.2c-0.3,0-0.6,0.5-0.9,1.1c0,0.7,0.5,0.8,1,1
				c0.8,0.3,1.9,0.5,2.7,0.6c0.6,0.1,1.2,0.1,1.8,0.1c0.6,0,1.2,0,1.8-0.2c0.4-0.1,0.8-0.3,1.2-0.5
				C337.4,282.1,337.8,282,338.2,281.7z"/>
		</g>
	</g>
	<g>
		<g>
			<path class="st20" d="M420.5,276.3c-0.3-0.4-0.7-0.2-1.1-0.3c-1.2-0.3-2.5-0.9-3.9-0.8c-0.9-0.3-1.7-0.2-2.9-0.2
				c-0.5,0-1-0.2-1.5-0.2c-2.1,0-4.1,0.2-6.2,0.6c-0.2,0-0.5,0.1-0.7,0.2c-0.6,0.2-1.4,0.4-1.9,1c-0.3,0.3-0.4,0.7-0.3,1
				c0.1,0.3,0.3,0.6,0.6,0.7c0.4,0,0.6-0.1,0.9-0.2c0.2-0.1,0.6-0.3,0.9-0.4c0.6-0.2,1.5-0.3,2.4-0.5c0.9-0.2,1.7-0.3,2.5-0.4
				c1.1-0.1,2.2-0.2,3.3-0.3c1.1-0.1,2.2,0,3.2-0.1c0.8,0,1.5-0.2,2.3-0.1C418.8,276.3,419.6,276.3,420.5,276.3z"/>
		</g>
	</g>
	<g>
		<g>
			<path class="st20" d="M421.4,278.5c-0.3,0.2-0.1,0.4-0.2,0.6c-0.1,0.3-0.4,0.6-0.7,0.8c-0.3,0.2-0.6,0.4-0.8,0.7
				c-0.5,0.1-0.8,0.4-1.3,0.6c-0.2,0.1-0.6,0-0.8,0.1c-1,0.3-2,0.4-3.1,0.5c-0.1,0-0.2,0-0.3,0c-0.3,0-0.6,0-0.9,0
				c-0.3,0.1-0.5,0.6-0.6,1.3c0.2,0.7,0.8,0.6,1.3,0.6c0.9,0.1,2.2-0.2,3-0.4c0.6-0.2,1.3-0.4,1.9-0.7c0.6-0.4,1.2-0.7,1.7-1.3
				c0.3-0.4,0.5-0.9,0.7-1.4C421.5,279.5,421.5,279,421.4,278.5z"/>
		</g>
	</g>
	<g>
		<g>
			<path class="st20" d="M416.4,291.1c-0.3-0.3-0.5,0-0.7,0.1c-0.7,0.1-1.7-0.1-2.4,0.1c-0.6-0.2-1,0-1.7,0c-0.3,0-0.6-0.2-0.9-0.2
				c-1.2-0.2-2.3-0.3-3.5-0.7c-0.1,0-0.2-0.1-0.4-0.1c-0.3,0-0.7-0.2-1-0.2c-0.3,0-0.7,0.4-1,1c0,0.7,0.6,0.8,1.2,1
				c0.9,0.4,2.3,0.6,3.3,0.6c0.7,0.1,1.5,0.1,2.2,0c0.7-0.1,1.4-0.1,2.1-0.3c0.5-0.1,0.9-0.4,1.4-0.6
				C415.5,291.7,416,291.4,416.4,291.1z"/>
		</g>
	</g>
	<g>
		<g>
			<path class="st20" d="M405.2,305.4c0.3-0.3,0-0.7-0.1-1c-0.1-1,0.2-2.2-0.1-3.3c0.1-0.8-0.1-1.4-0.1-2.4c0-0.4,0.1-0.8,0.1-1.2
				c0-1.7,0-3.3,0-5.1c0-0.2,0-0.4,0-0.6c0-0.5,0.1-1,0-1.4c-0.1-0.5-0.6-0.8-1.3-0.9c-0.7,0.3-0.6,1.1-0.7,1.9
				c-0.1,1.3,0,3.1,0,4.4c0.1,1,0.1,2,0.2,2.9c0.1,1,0.2,1.9,0.5,2.8c0.2,0.7,0.5,1.3,0.6,1.9C404.7,304.1,404.9,304.8,405.2,305.4z
				"/>
		</g>
	</g>
	<g>
		<g>
			<path class="st20" d="M416.1,297.6c-0.2-0.4-0.5-0.1-0.8-0.2c-0.8-0.1-1.7-0.6-2.6-0.6c-0.6-0.3-1.1-0.3-1.9-0.5
				c-0.3-0.1-0.6-0.3-0.9-0.4c-1.3-0.4-2.6-0.8-3.9-1.2c-0.1,0-0.3-0.1-0.4-0.1c-0.4-0.1-0.8-0.3-1.1-0.3c-0.4,0-0.8,0.4-1.1,1
				c0,0.8,0.7,0.9,1.3,1.1c1,0.4,2.5,0.8,3.5,1c0.8,0.2,1.6,0.4,2.3,0.4c0.8,0.1,1.6,0.2,2.3,0.2c0.6,0,1.1-0.2,1.6-0.2
				C414.9,297.8,415.5,297.7,416.1,297.6z"/>
		</g>
	</g>
	<g>
		<g>
			<path class="st20" d="M414.1,299.2c-0.2-0.3-0.4-0.1-0.6-0.1c-0.7-0.1-1.4-0.5-2.1-0.4c-0.5-0.3-0.9-0.1-1.5-0.2
				c-0.3,0-0.5-0.2-0.8-0.3c-1.2-0.2-2.2-0.4-3.2-0.6c-0.1,0-0.2,0-0.4,0c-0.3,0-0.6-0.1-0.9-0.1c-0.3,0-0.6,0.6-0.7,1.2
				c0.1,0.7,0.7,0.7,1.1,0.8c0.8,0.2,2,0.3,2.8,0.4c0.6,0.1,1.3,0.1,1.9,0.1c0.6,0,1.2,0,1.8-0.1c0.4-0.1,0.9-0.3,1.3-0.3
				C413.3,299.5,413.7,299.4,414.1,299.2z"/>
		</g>
	</g>
	<g>
		<g>
			<path class="st20" d="M413.9,301.4c-0.2-0.3-0.4,0-0.5,0c-0.6,0.1-1.3-0.3-1.8,0c-0.5-0.2-0.8,0-1.3,0c-0.2,0-0.5-0.2-0.7-0.2
				c-1-0.1-1.8-0.1-2.7-0.2c-0.1,0-0.2,0-0.3,0c-0.2,0-0.5-0.1-0.8,0c-0.3,0.1-0.5,0.6-0.5,1.3c0.2,0.7,0.6,0.6,1,0.7
				c0.7,0.1,1.7,0.1,2.4,0c0.5,0,1.1,0,1.6-0.1c0.5-0.1,1-0.2,1.5-0.3c0.4-0.1,0.7-0.4,1-0.6C413.2,301.9,413.6,301.7,413.9,301.4z"
				/>
		</g>
	</g>
	<g>
		<g>
			<path class="st20" d="M442.9,278.3c-0.6-0.1-1.1,0.4-1.7,0.7c-1.8,0.7-4,0.8-5.9,1c-1.4-0.2-2.6-0.2-4.2-0.9
				c-0.3-0.1-0.6-0.3-0.8-0.6c-0.2-0.2-0.2-0.4-0.2-0.5c0-0.1,0-0.1,0.1-0.2c0.1-0.1,0.2-0.2,0.3-0.3c0.2-0.2,0.6-0.4,0.9-0.6
				c0.6-0.4,1.3-0.7,2-1c1.4-0.6,2.8-1.1,4.3-1.4c0.3-0.1,0.6-0.1,1-0.2c0.8-0.1,1.7-0.1,2.3,0c0.7,0,1.4-0.1,1.8-0.6
				c-0.1-0.5-0.5-0.9-1.2-1.2c-0.7-0.3-1.5-0.3-2.3-0.3c-1.3,0.1-2.8,0.4-4.2,0.9c-1.4,0.5-2.7,1.1-3.8,1.7c-0.5,0.3-1,0.6-1.5,0.9
				c-0.3,0.2-0.5,0.4-0.8,0.7c-0.3,0.3-0.6,0.8-0.6,1.4c-0.1,0.7,0.4,1.4,0.7,1.7c0.4,0.4,0.8,0.6,1.1,0.7c1.8,0.7,3.7,1,5.5,0.8
				c1.3-0.2,2.5-0.6,3.7-1C440.7,279.6,441.9,279,442.9,278.3z"/>
		</g>
	</g>
	<g>
		<g>
			<path class="st20" d="M422.8,290.2c0.3-0.4,0.1-0.7,0.2-1.1c0.2-0.5,0.6-1,1.1-1.3c0.5-0.3,1-0.4,1.5-0.7c0.8,0,1.6-0.2,2.6-0.6
				c0.4-0.2,0.9-0.2,1.2-0.2c0.1,0,0.1,0,0.2,0c0.1,0,0.2,0,0.4,0.1c0.3,0.2,0.9,0.5,1.5,0.9c0-0.3,0-0.4,0-0.5c0,0,0-0.1,0-0.1
				c0,0,0-0.1,0-0.2c0-0.3-0.1-0.7-0.1-1c0-0.6-0.1-1.2-0.1-1.7c-0.1-0.8-0.1-1.5-0.2-2.3c0-0.2,0-0.4-0.1-0.6
				c-0.1-0.5,0-1.1-0.2-1.5c-0.1-0.5-0.7-0.8-1.4-0.8c-0.7,0.4-0.5,1.3-0.4,2.1c0,0.7,0.1,1.5,0.2,2.4c0,0.4,0.1,0.8,0.1,1.2
				c0,0.3,0,0.2,0,0.2l0,0c0,0,0,0,0,0l0,0l0,0l-0.2,0c-0.1,0-0.2,0.1-0.4,0.1c-0.5,0.1-0.8,0.3-1.1,0.5c-0.4,0.3-0.7,0.4-1.2,0.5
				c-0.4,0.1-0.9,0.2-1.5,0.5c-0.8,0.3-1.5,1-1.9,1.7C422.6,288.5,422.5,289.4,422.8,290.2z"/>
		</g>
	</g>
	<g>
		<g>
			<path class="st20" d="M420.6,307.1c-0.4-0.2-0.7-0.3-1-0.6c-0.3-0.2-0.5-0.6-0.6-1c-0.1-0.6,0.2-1.2,0.6-1.6
				c0.4-0.4,1-0.7,1.5-0.9c1.2-0.3,2.4-0.3,3.6-0.5c0.9,0,1.7-0.1,2.5-0.1c0.2,0,0.4,0,0.7-0.1c0.2,0,0.4,0,0.8-0.1
				c0.6-0.2,1.3-0.5,1.5-1.2c0.2-0.6-0.2-1.2-0.7-1.6c-0.3-0.2-0.6-0.3-1-0.4c-0.2-0.1-0.4-0.1-0.7-0.2c-0.9-0.2-1.9-0.4-2.8-0.6
				c-0.9-0.2-1.7-0.5-2.2-0.9c-0.5-0.4-0.7-1.2-0.5-1.5c0.1-0.2,0.2-0.3,0.6-0.5c0.3-0.2,0.8-0.4,1.2-0.6c0.3-0.2,0.7-0.3,1.1-0.5
				c0.9-0.4,2-0.6,2.9-0.8c1-0.2,1.7-0.8,1.8-1.5c-0.8-0.7-2.7-0.4-4.4,0.1c-0.7,0.2-1.5,0.5-2.3,0.9c-0.4,0.2-0.8,0.4-1.2,0.6
				c-0.4,0.3-0.9,0.6-1.3,1.3c-0.3,0.6-0.4,1.3-0.3,1.9c0.1,0.6,0.4,1.1,0.7,1.6c0.7,0.9,1.7,1.3,2.4,1.5c1.2,0.4,2.2,0.5,3.3,0.7
				c0.5,0.1,0.9,0.2,1.4,0.3c0,0,0,0,0,0c0,0,0,0,0,0c0,0,0,0,0,0c-0.1,0-0.2,0-0.3,0.1l-0.8,0.1c-1,0.1-2.1,0.3-3.1,0.5
				c-0.7,0.1-1.4,0.3-2.2,0.5c-0.8,0.2-1.5,0.6-2.2,1.1c-0.7,0.6-1.2,1.5-1,2.5C418.9,306.4,419.7,307.2,420.6,307.1z"/>
		</g>
	</g>
	<g>
		<g>
			<path class="st20" d="M421.1,301.1c0.3-0.1,0.1-0.2,0.1-0.3c0-0.3,0.4-0.6,0.3-0.9c0.2-0.2,0.1-0.4,0.2-0.6
				c0-0.1,0.2-0.2,0.2-0.3c0.1-0.4,0.2-0.8,0.4-1.3c0,0,0-0.1,0-0.1c0-0.1,0.1-0.2,0-0.4c-0.1-0.1-0.6-0.3-1.2-0.4
				c-0.7,0-0.6,0.2-0.7,0.4c-0.1,0.4-0.2,0.9-0.2,1.2c0,0.3,0,0.5,0,0.8c0.1,0.3,0.1,0.5,0.2,0.8c0.1,0.2,0.3,0.3,0.4,0.5
				C420.7,300.8,420.9,301,421.1,301.1z"/>
		</g>
	</g>
	<g>
		<g>
			<path class="st20" d="M439.3,284.3c-0.2-0.3-0.4,0-0.6,0c-0.6,0-1.4-0.4-2-0.2c-0.5-0.2-0.9-0.1-1.4-0.2c-0.2,0-0.5-0.2-0.7-0.3
				c-1-0.3-1.8-0.6-2.5-1.1c-0.1-0.1-0.2-0.1-0.2-0.2c-0.2-0.1-0.4-0.4-0.6-0.4c-0.2-0.1-0.8,0.1-1.3,0.5c-0.4,0.6,0.1,1,0.5,1.4
				c0.7,0.7,1.9,1.1,2.7,1.3c0.6,0.2,1.3,0.3,1.9,0.3c0.6,0,1.3,0,1.8-0.1c0.4-0.1,0.8-0.3,1.2-0.5
				C438.5,284.6,438.9,284.5,439.3,284.3z"/>
		</g>
	</g>
	<g>
		<g>
			<path class="st20" d="M438.4,286.2c-0.2-0.3-0.3,0-0.5,0c-0.5,0-1.1-0.4-1.6-0.2c-0.4-0.2-0.7-0.1-1.2-0.2
				c-0.2,0-0.4-0.2-0.6-0.3c-0.8-0.2-1.5-0.4-2.3-0.7c-0.1,0-0.2-0.1-0.3-0.1c-0.2,0-0.4-0.2-0.6-0.2c-0.2,0-0.6,0.5-0.8,1.1
				c-0.1,0.7,0.3,0.8,0.7,1c0.6,0.3,1.6,0.5,2.2,0.6c0.5,0.1,1,0.2,1.5,0.1c0.5,0,1,0,1.5-0.1c0.4-0.1,0.7-0.3,1-0.5
				C437.7,286.6,438.1,286.4,438.4,286.2z"/>
		</g>
	</g>
	<g>
		<g>
			<path class="st20" d="M424.9,281.9c-0.3-0.2-0.4,0.1-0.5,0.2c-0.5,0.3-1.3,0.3-1.7,0.7c-0.5,0-0.8,0.3-1.3,0.4
				c-0.2,0.1-0.5,0-0.7,0c-0.9,0.2-1.8,0.4-2.7,0.5c-0.1,0-0.2,0-0.3,0.1c-0.2,0.1-0.5,0-0.7,0.1c-0.2,0.1-0.4,0.7-0.3,1.3
				c0.3,0.7,0.7,0.5,1.2,0.5c0.8,0,1.8-0.3,2.5-0.5c0.5-0.2,1.1-0.3,1.6-0.6c0.5-0.3,1-0.5,1.4-0.9c0.3-0.3,0.5-0.6,0.8-0.9
				C424.4,282.6,424.7,282.3,424.9,281.9z"/>
		</g>
	</g>
	<g>
		<g>
			<path class="st20" d="M422.2,286c-0.2-0.3-0.2,0-0.2,0c-0.2,0-0.6-0.3-0.8,0c-0.2-0.2-0.3,0-0.5,0c-0.1,0-0.2-0.1-0.3-0.1
				c-0.4,0-0.7,0-1,0c0,0-0.1,0-0.1,0c-0.1,0-0.2,0-0.3,0.1c-0.1,0.1,0,0.7,0.1,1.3c0.2,0.7,0.4,0.6,0.5,0.6c0.3,0,0.7-0.1,1-0.1
				c0.2-0.1,0.4-0.1,0.6-0.2c0.2-0.1,0.4-0.2,0.5-0.3c0.1-0.1,0.2-0.4,0.2-0.5C422,286.4,422.1,286.2,422.2,286z"/>
		</g>
	</g>
	<g>
		<g>
			<path class="st20" d="M423,288.1c0.3-0.2,0.1-0.4,0.1-0.6c0-0.6,0.4-1.3,0.2-1.9c0.2-0.5,0-0.8,0.1-1.4c0-0.2,0.1-0.5,0.2-0.7
				c0-1,0-2-0.1-3c0-0.1,0-0.2-0.1-0.3c-0.1-0.3,0-0.6-0.1-0.8c-0.1-0.3-0.7-0.4-1.3-0.3c-0.7,0.3-0.5,0.7-0.5,1.2
				c0,0.7,0.2,1.7,0.2,2.4c0.1,0.5,0.1,1.1,0.2,1.6c0.1,0.5,0.1,1.1,0.3,1.6c0.1,0.4,0.3,0.7,0.5,1.1
				C422.7,287.3,422.8,287.7,423,288.1z"/>
		</g>
	</g>
	<g>
		<g>
			<path class="st20" d="M426.1,291.1c-0.1-0.3-0.2-0.1-0.3-0.1c-0.3,0-0.6-0.5-0.9-0.4c-0.2-0.3-0.3-0.2-0.6-0.3
				c-0.1,0-0.2-0.3-0.2-0.3c-0.3-0.3-0.7-0.5-0.9-0.8c0,0-0.1-0.1-0.1-0.1c-0.1,0-0.1-0.2-0.3-0.2c-0.1,0-0.6,0.4-1,0.9
				c-0.4,0.6-0.1,0.7,0,0.9c0.3,0.3,0.8,0.6,1.2,0.8c0.3,0.1,0.6,0.3,0.9,0.3c0.3,0,0.6,0.1,0.9,0c0.2-0.1,0.4-0.3,0.6-0.3
				C425.7,291.4,425.9,291.3,426.1,291.1z"/>
		</g>
	</g>
	<g>
		<g>
			<path class="st20" d="M417.8,296.8c0.3-0.2,0-0.3,0-0.5c-0.1-0.5,0.3-1.1,0-1.6c0.2-0.4,0-0.7,0-1.2c0-0.2,0.2-0.4,0.2-0.6
				c0.1-0.8,0.1-1.6,0.3-2.4c0-0.1,0-0.2,0-0.3c0-0.2,0.1-0.5,0-0.7c-0.1-0.2-0.6-0.4-1.2-0.5c-0.7,0.1-0.7,0.5-0.8,0.9
				c-0.2,0.6-0.2,1.6-0.1,2.2c0,0.5,0,1,0.1,1.5c0.1,0.5,0.2,0.9,0.3,1.4c0.1,0.3,0.4,0.6,0.6,0.9
				C417.3,296.3,417.5,296.6,417.8,296.8z"/>
		</g>
	</g>
	<g>
		<g>
			<path class="st20" d="M403.3,281c0.3-0.1,0.1-0.2,0.1-0.2c0-0.2,0.5-0.5,0.3-0.8c0.2-0.2,0.1-0.3,0.2-0.5c0-0.1,0.2-0.2,0.2-0.3
				c0.1-0.4,0.2-0.7,0.3-1.1c0,0,0-0.1,0-0.1c0-0.1,0.1-0.2,0-0.3c-0.1-0.1-0.6-0.2-1.3-0.3c-0.7,0-0.6,0.2-0.7,0.4
				c-0.1,0.3-0.1,0.7-0.1,1c0,0.2,0,0.5,0,0.7c0.1,0.2,0.1,0.4,0.2,0.7c0.1,0.2,0.3,0.3,0.4,0.4C403,280.7,403.2,280.9,403.3,281z"
				/>
		</g>
	</g>
	<g>
		<g>
			<path class="st20" d="M444.3,283.1c0.3-0.2,0-0.3,0-0.5c0-0.5,0.3-1.1,0.1-1.5c0.2-0.4,0.1-0.6,0.1-1.1c0-0.2,0.2-0.4,0.2-0.6
				c0.1-0.9,0.2-1.5,0.3-2.2c0-0.1,0-0.2,0-0.2c0-0.2,0.1-0.4,0-0.6c-0.1-0.2-0.6-0.4-1.2-0.5c-0.7,0.1-0.7,0.5-0.7,0.8
				c-0.2,0.6-0.2,1.4-0.2,2c0,0.4,0,0.9,0.1,1.3c0.1,0.4,0.1,0.9,0.3,1.3c0.1,0.3,0.4,0.6,0.5,0.8
				C443.9,282.6,444.1,282.9,444.3,283.1z"/>
		</g>
	</g>
	<g>
		<g>
			<path class="st20" d="M455.6,286.2c0.5,0.2,1-0.2,1.4-0.3c1.4-0.5,3.2-1.2,4.2-2.6c0.2-0.2,0.4-0.5,0.5-0.9
				c0.1-0.4,0-0.7-0.1-1.1c-0.2-0.7-0.7-1.2-1.3-1.7c-0.5-0.4-1-0.9-1.7-1.2c-1.3-0.6-2.7-0.8-4.1-0.8c-1.4-0.1-2.7,0.1-4,0.2
				c-0.3,0-0.6,0.1-0.9,0.1c-0.7,0.1-1.6,0.2-2.2,0.4c-0.7,0.2-1.1,0.9-1,1.5c0.6,0.6,1.8,0.2,2.9,0.1c1-0.1,2.1-0.2,3.2-0.3
				c1.1-0.1,2.2-0.1,3.1,0c1.3,0.1,2.6,0.5,3.5,1.1c0.5,0.3,0.9,0.8,1.1,1.1c0.1,0.2,0.1,0.3,0.1,0.4c0,0.1-0.1,0.3-0.3,0.5
				c-0.6,0.7-1.2,1.4-1.9,2C457.4,285.3,456.6,285.8,455.6,286.2z"/>
		</g>
	</g>
	<g>
		<g>
			<path class="st20" d="M454.4,294.9c-0.5-0.3-1-0.1-1.5-0.1c-1.6,0-3.5-0.5-5.2-0.6c-1.2-0.4-2.2-0.5-3.5-1.2
				c-0.6-0.3-1-0.8-1.3-1.2c-0.1-0.1-0.2-0.3-0.3-0.4c-0.1-0.1-0.1-0.2-0.1-0.2c0-0.1,0-0.1,0.1-0.3c0.1-0.1,0.3-0.3,0.4-0.4
				c0.4-0.3,0.9-0.7,1.3-0.9c0.9-0.6,1.9-1,3-1.4c0.3-0.1,0.5-0.2,0.8-0.3c0.7-0.2,1.5-0.3,2.1-0.4c0.7-0.2,1.2-0.7,1.3-1.4
				c-0.6-0.7-1.9-0.5-3.2-0.2c-1.1,0.2-2.3,0.6-3.5,1.2c-1.2,0.6-2.2,1.3-3.1,2.1c-0.2,0.2-0.5,0.5-0.7,0.9c-0.2,0.4-0.4,1-0.3,1.5
				c0.1,0.5,0.4,0.9,0.6,1.1c0.2,0.3,0.4,0.4,0.6,0.6c0.4,0.4,0.9,0.7,1.4,0.9c1.6,0.8,3.1,1.1,4.7,1.2c1.1,0.1,2.2-0.1,3.2-0.2
				C452.3,295.2,453.3,295,454.4,294.9z"/>
		</g>
	</g>
	<g>
		<g>
			<path class="st20" d="M463.2,296.2c0.5,0.3,1.1-0.1,1.6-0.1c1.6-0.2,3.7-0.1,5.3-0.9c1.3-0.2,2.3-0.6,3.8-1.5
				c0.6-0.4,1.4-0.8,1.7-1.6c0.2-0.4,0.3-1,0.2-1.5c-0.1-0.5-0.4-0.9-0.7-1.3c-0.6-0.7-1.3-1.1-2-1.4c-1.4-0.6-2.8-1-4.4-1.1
				c-0.3,0-0.7,0-1,0c-0.8,0-1.8,0.1-2.5,0.3c-0.8,0.3-1.2,1-1.1,1.6c0.7,0.5,1.8,0.1,3,0c1,0,2.1,0,3.3,0.3
				c1.1,0.2,2.3,0.7,2.9,1.1c0.2,0.2,0.4,0.4,0.6,0.5c0.1,0.2,0.1,0.3,0.1,0.5c0,0.3-0.3,0.7-0.8,1.1c-0.5,0.4-1.2,0.7-1.8,1
				c-0.7,0.3-1.3,0.5-2,0.8c-1,0.4-1.9,0.8-3,1.1C465.4,295.6,464.4,295.9,463.2,296.2z"/>
		</g>
	</g>
	<g>
		<g>
			<path class="st20" d="M477.6,306.9c0.6,0.2,1.1-0.1,1.7-0.2c1.8-0.3,4-0.5,5.7-1.5c1.4-0.4,2.4-1,3.9-1.9c0.7-0.4,1.3-0.7,2-1.2
				c0.6-0.6,1.3-1.5,1.3-2.6c0-0.6-0.3-1.2-0.7-1.6c-0.4-0.4-0.9-0.6-1.3-0.8c-0.9-0.3-1.6-0.4-2.4-0.6c-0.8-0.1-1.6-0.3-2.4-0.3
				c-0.3,0-0.7,0-1.1,0c-0.9,0-1.9-0.1-2.7,0.1c-0.9,0.2-1.5,0.8-1.4,1.5c0.7,0.6,2,0.4,3.4,0.4c1.1,0,2.4,0.1,3.7,0.4
				c0.6,0.1,1.3,0.2,1.9,0.4c0.6,0.1,0.9,0.3,1,0.5c0.1,0.1,0.1,0.7-0.2,1.1c-0.4,0.5-1.1,1-1.7,1.4c-1.3,1-2.7,1.7-4.1,2.4
				c-1,0.5-2,1.1-3.1,1.5C479.9,306.1,478.7,306.5,477.6,306.9z"/>
		</g>
	</g>
	<g>
		<g>
			<path class="st20" d="M460.9,308.1c-0.4-0.3-1-0.1-1.5-0.1c-1.6-0.1-3.3-0.7-4.7-1.3c-0.4-0.4-0.8-0.7-1.1-1.1
				c-0.3-0.4-0.6-0.9-0.5-1.5c0.1-0.5,0.5-0.9,0.8-1.2c0.8-0.7,2-1.2,3.1-1.5c1.2-0.3,2.4-0.5,3.6-0.6c0.3,0,0.5,0,0.8-0.1
				c0.7-0.1,1.5,0,2.2-0.1c0.7-0.1,1.3-0.7,1.3-1.3c-0.5-0.7-1.7-0.6-2.9-0.6c-1,0-2.2,0.1-3.5,0.3c-1.2,0.2-2.4,0.6-3.4,1
				c-0.7,0.3-1.5,0.7-2.1,1.3c-0.7,0.6-1.3,1.4-1.5,2.5c-0.1,1.1,0.3,2.1,0.9,2.8c0.6,0.7,1.3,1.2,2.1,1.5c1.1,0.4,2.2,0.4,3.2,0.5
				C458.8,308.4,459.8,308.3,460.9,308.1z"/>
		</g>
	</g>
	<g>
		<g>
			<path class="st20" d="M474.2,297.9c0.3-0.1,0.1-0.2,0.1-0.4c0.1-0.4,0.5-0.8,0.4-1.3c0.2-0.3,0.1-0.6,0.2-0.9
				c0-0.2,0.2-0.3,0.2-0.5c0.1-0.7,0.2-1.3,0.3-2c0-0.1,0-0.1,0-0.2c0-0.2,0.1-0.4,0-0.6c-0.1-0.2-0.6-0.3-1.3-0.3
				c-0.7,0.2-0.6,0.5-0.7,0.7c-0.1,0.5-0.1,1.2-0.1,1.7c0,0.4,0,0.7,0,1.1c0.1,0.4,0,0.7,0.1,1.1c0.1,0.3,0.3,0.5,0.4,0.8
				C473.9,297.4,474,297.6,474.2,297.9z"/>
		</g>
	</g>
	<g>
		<g>
			<path class="st20" d="M474.3,297.3c-0.2-0.3-0.2,0-0.4,0c-0.4,0-0.8-0.3-1.2-0.1c-0.3-0.2-0.5-0.1-0.8-0.1
				c-0.1,0-0.3-0.2-0.4-0.2c-0.7-0.1-1.2-0.2-1.7-0.3c-0.1,0-0.1,0-0.2,0c-0.2,0-0.3-0.1-0.5,0c-0.2,0.1-0.3,0.6-0.4,1.3
				c0.1,0.7,0.4,0.6,0.6,0.7c0.5,0.1,1.1,0.1,1.6,0.1c0.4,0,0.7,0,1.1-0.1c0.3-0.1,0.7-0.1,1-0.3c0.2-0.1,0.4-0.4,0.6-0.5
				C473.9,297.7,474.1,297.5,474.3,297.3z"/>
		</g>
	</g>
	<g>
		<g>
			<path class="st20" d="M474.3,300.8c-0.3-0.3-0.3,0-0.4,0.1c-0.4,0.1-1-0.1-1.3,0.1c-0.4-0.1-0.6,0.1-0.9,0.1
				c-0.2,0-0.4-0.1-0.5-0.1c-0.7,0-1.3,0-1.9,0c-0.1,0-0.1,0-0.2,0c-0.2,0-0.4-0.1-0.5,0c-0.2,0.1-0.3,0.6-0.4,1.3
				c0.1,0.7,0.5,0.6,0.8,0.7c0.6,0.1,1.3,0,1.9-0.1c0.4-0.1,0.8-0.1,1.2-0.3c0.4-0.2,0.8-0.2,1.1-0.5c0.2-0.2,0.4-0.5,0.6-0.6
				C473.9,301.3,474.1,301,474.3,300.8z"/>
		</g>
	</g>
	<g>
		<g>
			<path class="st20" d="M454.6,312.2c0.3-0.2,0-0.2,0-0.2c0-0.2,0.3-0.6,0.1-0.7c0.2-0.2,0-0.3,0-0.5c0-0.1,0.1-0.2,0.2-0.3
				c0.1-0.3,0.1-0.6,0.1-0.9c0,0,0-0.1,0-0.1c0-0.1,0-0.2,0-0.2c-0.1-0.1-0.7,0-1.3,0c-0.7,0.2-0.6,0.3-0.6,0.5
				c-0.1,0.3,0,0.6,0.1,0.9c0,0.2,0.1,0.4,0.2,0.6c0.1,0.2,0.2,0.4,0.3,0.5c0.1,0.1,0.4,0.1,0.5,0.2
				C454.2,312.1,454.4,312.1,454.6,312.2z"/>
		</g>
	</g>
	<g>
		<g>
			<path class="st20" d="M463.7,309c-0.3-0.3-0.4,0-0.6,0.1c-0.6,0.1-1.3-0.2-1.9,0.1c-0.5-0.2-0.8,0-1.3-0.1
				c-0.2,0-0.5-0.2-0.7-0.2c-0.9-0.2-1.8-0.4-2.6-0.7c-0.1,0-0.2-0.1-0.3-0.1c-0.2,0-0.5-0.2-0.7-0.2c-0.3,0-0.6,0.4-0.9,1
				c-0.1,0.7,0.4,0.8,0.8,1c0.7,0.4,1.8,0.6,2.6,0.6c0.6,0.1,1.2,0.1,1.8,0c0.6-0.1,1.2-0.1,1.7-0.3c0.4-0.1,0.7-0.4,1.1-0.6
				C463,309.5,463.3,309.3,463.7,309z"/>
		</g>
	</g>
	<g>
		<g>
			<path class="st20" d="M480.6,305.4c-0.3-0.2-0.3,0.1-0.5,0.1c-0.5,0.2-1.1-0.1-1.5,0.1c-0.4-0.2-0.6-0.1-1-0.2
				c-0.2-0.1-0.3-0.3-0.4-0.3c-0.5-0.3-0.8-0.8-1-1.3c0,0,0-0.1,0-0.1c-0.1-0.1,0-0.2,0-0.3c-0.1-0.1-0.6-0.3-1.2-0.5
				c-0.7,0-0.7,0.6-0.7,1.1c0,0.4,0.2,0.9,0.5,1.3c0.3,0.4,0.6,0.7,0.9,1c0.5,0.4,1.1,0.6,1.6,0.7c0.6,0,1.1,0,1.6-0.1
				c0.4-0.1,0.6-0.4,0.9-0.6C480.1,305.9,480.4,305.7,480.6,305.4z"/>
		</g>
	</g>
	<g>
		<g>
			<path class="st20" d="M464.7,308.4c0.2,0.3,0.3,0,0.5,0c0.5-0.1,1.2,0,1.6-0.4c0.5,0,0.7-0.3,1.1-0.5c0.2-0.1,0.4-0.1,0.6-0.2
				c0.7-0.5,1.4-1.1,1.9-1.9c0.1-0.1,0.1-0.2,0.2-0.3c0.1-0.2,0.3-0.4,0.4-0.7c0-0.3-0.4-0.7-1-0.9c-0.7-0.1-0.8,0.2-1,0.5
				c-0.3,0.4-0.8,1-1.1,1.4c-0.3,0.3-0.6,0.5-0.9,0.8c-0.3,0.3-0.6,0.5-0.9,0.8c-0.2,0.2-0.4,0.5-0.6,0.7
				C465.2,307.9,464.9,308.2,464.7,308.4z"/>
		</g>
	</g>
	<g>
		<g>
			<path class="st20" d="M466.6,309.3c0.2,0.3,0.3,0,0.4,0c0.4-0.1,1,0.2,1.3-0.1c0.4,0.1,0.6-0.1,1-0.2c0.2-0.1,0.4,0,0.6,0
				c0.7-0.2,1.3-0.6,1.9-1c0.1,0,0.1-0.1,0.2-0.2c0.1-0.1,0.4-0.2,0.5-0.4c0.1-0.2-0.2-0.7-0.6-1.2c-0.6-0.4-0.7-0.2-1,0
				c-0.4,0.2-0.9,0.6-1.3,0.8c-0.3,0.2-0.6,0.3-0.9,0.5c-0.3,0.2-0.6,0.3-0.9,0.6c-0.2,0.2-0.3,0.4-0.5,0.6
				C467,308.9,466.8,309.1,466.6,309.3z"/>
		</g>
	</g>
	<g>
		<g>
			<path class="st20" d="M471.1,311.6c0.2-0.3-0.1-0.3-0.1-0.5c-0.1-0.6,0.4-1,0.4-1.6c0.3-0.3,0.2-0.7,0.4-1.2
				c0.1-0.2,0.2-0.4,0.3-0.6c0.2-0.9,0.3-1.7,0.3-2.6c0-0.1,0-0.2,0-0.3c0-0.2,0-0.5-0.1-0.7c-0.1-0.2-0.7-0.4-1.3-0.3
				c-0.7,0.3-0.5,0.6-0.6,1c-0.1,0.6,0,1.5-0.1,2c0,0.4-0.1,0.9-0.1,1.3c0,0.5-0.1,0.9-0.1,1.3c0,0.4,0.2,0.7,0.3,1.1
				C470.5,310.9,470.8,311.4,471.1,311.6z"/>
		</g>
	</g>
	<g>
		<g>
			<path class="st20" d="M389.5,281.5c0.3,0.2,0.5-0.1,0.7-0.2c0.2-0.1,0.3-0.2,0.5-0.4c0.2-0.2,0.3-0.4,0.2-0.7
				c0-0.3-0.3-0.5-0.5-0.6c-0.3-0.1-0.5-0.1-0.8-0.1c-0.7-0.2-1.2,0.1-1.9,0.2c-0.2,0-0.3,0-0.5,0c-0.2,0-0.2-0.1-0.2-0.1
				c-0.1,0-0.2-0.1-0.2-0.2c0-0.1,0.1-0.2,0.1-0.2c0.1,0,0.1,0,0.2,0c0,0,0,0,0,0c0,0,0,0,0.1,0c0.2-0.1,0.6,0,0.8-0.1
				c0.2-0.1,0.6-0.6,0.8-1.2c-0.1-0.8-1-0.8-1.7-0.7c-0.2,0-0.3,0.1-0.5,0.1c-0.1,0-0.2,0.1-0.3,0.1l-0.4,0.2
				c-0.5,0.2-0.9,0.6-1.2,1c-0.3,0.4-0.4,0.8-0.5,1.2c0,0.4,0.2,0.8,0.4,1.1c0,0,0,0,0,0c0.3,0.4,0.9,0.5,1.6,0.6c0.4,0,0.7,0,1.1,0
				c0.3,0,0.4-0.1,0.7-0.1c0.8-0.2,1.6-0.5,2-0.5c0.2-0.1,0.2,0,0.3-0.2c0.1-0.1,0,0,0,0c0,0,0.1,0,0.1,0c0,0.1,0,0.3-0.2,0.4
				C389.9,281.2,389.7,281.4,389.5,281.5z"/>
		</g>
	</g>
	<g>
		<g>
			<path class="st20" d="M461.7,306.5c0.2,0.3,0.5,0.1,0.7,0c0.3-0.1,0.8-0.1,1.1-0.6c0.1-0.1,0.1-0.3,0-0.5
				c-0.1-0.2-0.3-0.3-0.4-0.3c-0.3-0.1-0.5-0.1-0.7,0c-0.6-0.2-1.1,0-1.8,0c-0.3,0-0.3-0.2-0.4-0.3c-0.1-0.1-0.1-0.1-0.1-0.2
				c0.1-0.1,0.2-0.2,0.3-0.2c0.3-0.2,0.6-0.4,0.9-0.6c0.1,0,0.2-0.1,0.3-0.1c0.2-0.1,0.5-0.1,0.8-0.2c0.2-0.1,0.4-0.7,0.4-1.3
				c-0.3-0.7-1-0.5-1.7-0.4c-0.6,0.1-1.2,0.5-1.7,0.9c-0.4,0.3-1.3,1.4-1.4,2.1c0,0.2,0,0.3,0,0.5c0.2,1,1.4,1.4,2.5,1.4
				c0.9-0.1,1.5-0.2,2-0.3c0.1,0,0.2,0,0.2-0.1c0,0,0-0.1,0-0.2c0-0.1,0-0.1,0.1-0.2c0-0.1,0.1-0.1,0.1-0.1c0.1,0-0.1,0-0.3-0.1
				c0,0,0,0.1,0,0.1C462.4,306.1,462.1,306.4,461.7,306.5z"/>
		</g>
	</g>
	<g>
		<g>
			<path class="st20" d="M449.2,292.2c0.3,0.3,0.4,0,0.6-0.1c0.3-0.1,0.7-0.1,1.1-0.2c0.3-0.1,0.8-0.1,1-0.6
				c0.1-0.1,0.2-0.4,0.2-0.6c0-0.2-0.2-0.4-0.4-0.5c-0.3-0.2-0.7-0.2-1-0.2c-0.3,0-0.5-0.2-0.8-0.2c-0.3,0-0.6-0.1-0.8-0.1l-0.2,0
				l-0.1,0l0,0c0,0,0,0,0,0l0,0l0,0.1c0,0.2-0.1,0.3-0.2,0.4c-0.1,0.1-0.1,0.1,0,0.1c-0.1,0,0,0,0.1,0c0.1,0,0.2,0.1,0.5,0.2
				c0.1,0,0.1-0.1,0.2-0.2c0.1-0.1,0.3-0.3,0.4-0.4c0.1,0,0.1-0.1,0.2-0.1c0.2-0.1,0.4-0.1,0.6-0.3c0.2-0.1,0.3-0.7,0.2-1.3
				c-0.3-0.7-1-0.5-1.6-0.2c-0.5,0.2-1,0.6-1.4,1.1c-0.1,0.1-0.2,0.3-0.3,0.4c0,0.1-0.1,0.1-0.2,0.3c-0.1,0.2-0.1,0.5,0,0.8
				c0.1,0.3,0.3,0.6,0.5,0.7c0.2,0.1,0.3,0.2,0.5,0.2c0.3,0.1,0.4,0.1,0.6,0.1c0.6,0,1.2,0,1.8,0c0.2,0,0.3,0,0.3,0l0.1,0
				c0,0,0,0,0,0c0-0.1,0.1-0.2,0.1-0.2c0.2-0.3,0.2-0.3,0.2-0.2c0.1,0-0.1,0-0.4-0.3c0,0-0.1,0.2-0.2,0.3c-0.1,0.2-0.3,0.3-0.4,0.4
				C450,291.7,449.6,291.9,449.2,292.2z"/>
		</g>
	</g>
	<g>
		<g>
			<path class="st20" d="M408.7,289.8c0.2,0.3,0.5,0.1,0.7,0.1c0.4,0,0.8,0,1.3,0c0.2,0,0.5-0.1,0.7-0.3c0.1-0.1,0.2-0.3,0.3-0.5
				c0-0.2,0-0.4-0.2-0.5c-0.1-0.2-0.3-0.4-0.3-0.4c-0.1-0.1-0.1-0.1-0.2-0.1c-0.2,0-0.4,0-0.5-0.1c-0.1,0,0.1-0.1,0.1-0.2
				c0,0,0-0.1,0.1-0.1c0-0.1,0.2-0.1,0.3-0.1c0.3,0,0.4,0,0.5,0c0,0,0,0,0,0c0,0,0.1,0.1,0,0c0,0,0-0.2,0.1-0.4
				c0.1-0.2,0.3-0.5,0.3-0.8c0-0.2-0.1-0.3-0.2-0.4c-0.2-0.1-0.4-0.2-0.6-0.2c-0.5-0.1-1-0.1-1.5,0c-0.8,0.1-1.7,0.3-2.4,0.7
				c-0.3,0.2-0.5,0.4-0.6,0.6c-0.1,0.2-0.2,0.4-0.2,0.7c0,0.5,0.2,0.7,0.3,0.9c0.1,0.2,0.3,0.3,0.6,0.4c0.2,0.1,0.4,0.1,0.7,0.2
				c0.3,0.1,0.7,0.1,1.2,0.1c0.5,0,1,0,1.3,0.1l0.1,0l0,0l0.1-0.1c0.1-0.1,0.1-0.1,0.1-0.2c0.1-0.1,0.2-0.1,0.2-0.1
				c-0.1,0,0.1,0,0,0c0,0-0.1,0-0.2-0.1c0,0-0.1-0.1-0.1-0.1c-0.1-0.1,0,0,0,0c0,0,0,0,0,0.1c-0.1,0.1-0.3,0.3-0.5,0.3
				C409.7,289.4,409.2,289.6,408.7,289.8z"/>
		</g>
	</g>
	<g>
		<g>
			<path class="st20" d="M399.5,287.5c0.3,0.2,0.6-0.1,0.8-0.2c0.4-0.2,0.9-0.3,1.4-0.5l0.2-0.1l-0.3-0.2c-0.4-0.3-1-0.5-1.5-0.5
				c-0.7-0.3-1.4-0.1-2.3-0.1c-0.4,0-0.8-0.1-1.1-0.1c-0.4,0-0.8,0-1.1,0c-0.4,0-0.8,0-0.8,0c0,0.1-0.1,0.3-0.2,0.4l0,0c0,0,0,0,0,0
				c0,0,0,0,0,0c0,0,0,0,0.1,0c0.1,0,0.1,0.1,0.2,0.1c0.1,0,0.2,0.1,0.1,0.1c0,0,0.1-0.1,0.2-0.1l0.5-0.1c0.1,0,0.3-0.1,0.4-0.1
				c0.4-0.1,0.8-0.1,1.1-0.2c0.4-0.1,0.6-0.7,0.7-1.3c-0.3-0.7-1.1-0.6-1.9-0.5c-0.3,0-0.7,0.1-1,0.2c-0.2,0.1-0.3,0.1-0.6,0.2
				c-0.3,0.1-0.5,0.2-0.7,0.4c-0.2,0.2-0.5,0.5-0.6,1.1c-0.1,0.6,0.2,1.2,0.7,1.4c0.4,0.3,0.7,0.3,1,0.3c0.3,0,0.4,0,0.6,0
				c0.9-0.1,1.8-0.2,2.6-0.3c0.8-0.2,1.6-0.2,2.3-0.2c0.4,0,0.7,0,1.1,0l-0.1-1.1c-0.1,0.1-0.2,0.2-0.3,0.3
				C400.4,286.8,400,287.2,399.5,287.5z"/>
		</g>
	</g>
	<g>
		<g>
			<path class="st20" d="M415.2,279.6c0.2,0.1,0.2-0.1,0.1-0.2c-0.1-0.1-0.2-0.1-0.3-0.2c-0.7-0.2-1.8-0.5-2.6-0.2
				c-0.7-0.1-1.2,0.1-1.9,0.2c-0.3,0-0.7-0.1-1-0.1c-0.1,0-0.3,0-0.3-0.1c0,0,0,0,0,0c0,0.1-0.1,0.1-0.1,0.2c-0.1,0.1-0.1,0.1,0,0.1
				l0.1,0.7c0.6-0.5,1.3-0.9,2.1-1.1c0.1,0,0.2-0.1,0.4-0.1c0.3-0.1,0.7,0,0.9-0.1c0.3-0.1,0.6-0.6,0.7-1.2c-0.2-0.7-1-0.7-1.7-0.7
				c-0.6,0-1.3,0.2-2,0.5c-0.7,0.3-1.3,0.7-1.7,1.2l-0.2,0.2l-0.4,0.4l0.2,0.6c0.2,0.5,0.7,0.9,1,1c0.4,0.1,0.6,0.1,0.9,0.1
				c0.5,0,0.8-0.1,1.2-0.2c0.8-0.2,1.5-0.4,2.2-0.6c0.5-0.2,0.9-0.4,1.4-0.5c0.2,0,0.6-0.1,0.7-0.1c0.1,0,0.2,0,0.3,0
				C415.1,279.6,415.1,279.6,415.2,279.6C415.2,279.6,415.2,279.6,415.2,279.6C415.2,279.6,415.2,279.6,415.2,279.6z"/>
		</g>
	</g>
	<g>
		<g>
			<path class="st20" d="M438.2,278.6c-0.2-0.3-0.4,0-0.6,0c-0.3,0-0.6-0.1-0.9-0.2c-0.3-0.1-0.4-0.2-0.7-0.1
				c-0.1-0.1-0.1-0.2-0.2-0.3c-0.1-0.1-0.1-0.3,0-0.4c0.1-0.1,0.4-0.2,0.5-0.2c0.1,0,0.5-0.3,0.9-0.4c0.4-0.2,0.7-0.3,1.1-0.3
				c0.1,0,0.2,0,0.2,0c0.2,0,0.4,0,0.6,0c0.2-0.1,0.4-0.6,0.6-1.2c-0.1-0.7-0.7-0.7-1.2-0.7c-0.5,0-1,0.1-1.5,0.2
				c-0.5,0.2-1,0.4-1.3,0.7c-0.4,0.2-1.5,1.3-1.6,2.1c-0.1,0.4,0,0.8,0.3,1.2c0.3,0.3,0.6,0.5,1.1,0.6c0.3,0,0.7,0,1-0.1
				c0.2,0,0.3-0.1,0.4-0.1c0.1,0,0.2-0.1,0.3-0.1C437.4,279,437.8,278.8,438.2,278.6z"/>
		</g>
	</g>
	<g>
		<g>
			<path class="st20" d="M451.2,285.3c0.3,0.3,0.5,0,0.8-0.1c0.4-0.1,0.8-0.1,1.4-0.2c0.5-0.1,1.2-0.4,1.4-0.7
				c0.4-0.2,0.6-0.3,0.7-0.7c0-0.4-0.3-0.6-0.6-0.7c-0.2-0.1-0.4-0.4-0.9-0.5c-0.4-0.1-0.8-0.1-1.2-0.2c-0.3,0-0.3,0-0.4-0.1
				l-0.4-0.1c-0.5-0.1-1-0.2-1.4-0.2l0.7,1.5c0.1-0.2,0.3-0.3,0.5-0.4c0.1,0,0.2-0.1,0.3-0.1c0.2-0.1,0.5-0.1,0.7-0.2
				c0.2-0.1,0.5-0.6,0.7-1.2c-0.1-0.8-1.1-0.8-1.8-0.6c-0.7,0.1-1.6,0.7-2.1,1.4l-0.9,1.4l1.7,0.2c0.5,0.1,1.1,0.1,1.5,0.1l0.5,0.1
				l0,0c0,0,0,0,0,0c0.1,0,0.1,0,0.2,0.1c0.1,0,0.2,0.2,0,0.4C452.1,284.8,451.6,285,451.2,285.3z"/>
		</g>
	</g>
	<g>
		<g>
			<path class="st20" d="M469.5,292.1c-0.1-0.3-0.2-0.1-0.3-0.1c-0.3-0.1-0.6-0.5-1-0.4c-0.2-0.2-0.4-0.1-0.7-0.2
				c-0.1,0-0.3-0.2-0.4-0.2c-0.6-0.1-1.1-0.1-1.6-0.1c-0.1,0-0.1,0-0.2,0c-0.1,0-0.3,0-0.4,0.1c-0.1,0.1-0.1,0.7,0.1,1.3
				c0.3,0.7,0.5,0.5,0.7,0.5c0.4,0,0.9-0.1,1.2-0.1c0.3,0,0.5,0,0.8-0.1c0.3-0.1,0.5-0.1,0.8-0.2c0.2-0.1,0.4-0.3,0.5-0.4
				C469.1,292.4,469.3,292.3,469.5,292.1z"/>
		</g>
	</g>
	<g>
		<g>
			<path class="st20" d="M484.8,301c-0.1-0.4-0.4-0.1-0.5-0.1c-0.6-0.1-1.3-0.5-1.9-0.3c-0.5-0.2-0.9,0-1.4,0.1
				c-0.2,0-0.5-0.1-0.8,0c-0.2,0-0.2,0-0.3-0.1c0-0.1,0-0.1,0-0.2c0,0,0.1,0,0.1,0c0,0,0,0,0,0c0,0,0,0,0,0c0,0,0,0,0,0
				s0.1-0.1,0.1-0.1c0.1-0.2-0.1-0.7-0.5-1.3c-0.6-0.4-0.9-0.1-1.5,0.6c-0.4,0.5-0.7,1.2-0.5,1.8c0.1,0.3,0.3,0.7,0.6,0.9
				c0.3,0.2,0.6,0.3,0.9,0.4c0.4,0.1,1,0,1.5-0.2l0.5-0.2c0.1,0,0.2-0.1,0.3-0.1c0.5-0.2,0.9-0.3,1.4-0.4c0.3-0.1,0.7-0.3,1-0.4
				C484.1,301.2,484.4,301.1,484.8,301z"/>
		</g>
	</g>
	<g>
		<g>
			<path class="st20" d="M475.2,281.7c-0.2-0.3-0.4,0-0.6,0c-0.6,0-1.4-0.4-2-0.1c-0.5-0.2-0.9-0.1-1.4-0.1c-0.3,0-0.5-0.2-0.7-0.2
				c-1.1-0.1-2-0.2-3-0.3c-0.1,0-0.2,0-0.3,0c-0.3,0-0.6-0.1-0.8,0c-0.3,0.1-0.5,0.6-0.6,1.3c0.2,0.7,0.7,0.6,1.1,0.7
				c0.8,0.1,1.9,0.1,2.6,0.1c0.6,0,1.2,0,1.7-0.1c0.6-0.1,1.1-0.1,1.7-0.3c0.4-0.1,0.8-0.4,1.1-0.5
				C474.4,282.1,474.8,281.9,475.2,281.7z"/>
		</g>
	</g>
	<g>
		<g>
			<path class="st20" d="M472.6,284.4c-0.1-0.3-0.2-0.1-0.4-0.1c-0.4,0-0.8-0.5-1.2-0.3c-0.3-0.2-0.5-0.1-0.8-0.2
				c-0.1,0-0.3-0.2-0.4-0.2c-0.6-0.2-1.1-0.3-1.7-0.4c-0.1,0-0.1,0-0.2,0c-0.2,0-0.3-0.1-0.5-0.1c-0.2,0.1-0.4,0.6-0.5,1.2
				c0,0.7,0.3,0.7,0.6,0.8c0.5,0.2,1.1,0.2,1.6,0.3c0.4,0,0.7,0.1,1.1,0c0.4,0,0.7,0,1-0.1c0.2-0.1,0.5-0.3,0.7-0.4
				C472.2,284.7,472.4,284.6,472.6,284.4z"/>
		</g>
	</g>
	<g>
		<g>
			<path class="st20" d="M472.3,286.5c-0.2-0.3-0.2-0.1-0.3-0.1c-0.3,0-0.8-0.4-1.1-0.2c-0.3-0.2-0.5-0.1-0.8-0.1
				c-0.1,0-0.3-0.2-0.4-0.2c-0.5-0.1-1-0.1-1.6-0.2c-0.1,0-0.1,0-0.2,0c-0.1,0-0.3-0.1-0.4,0c-0.1,0.1-0.2,0.6-0.3,1.3
				c0.1,0.7,0.4,0.6,0.6,0.7c0.4,0.1,1,0.1,1.4,0c0.3,0,0.6,0,0.9-0.1c0.3-0.1,0.6-0.1,0.9-0.2c0.2-0.1,0.4-0.3,0.6-0.5
				C472,286.8,472.1,286.7,472.3,286.5z"/>
		</g>
	</g>
	<g>
		<g>
			<path class="st20" d="M474.1,286.9c0.2-0.3,0-0.4,0-0.6c0-0.6,0.5-1.3,0.3-2c0.2-0.5,0.1-0.9,0.2-1.5c0-0.3,0.2-0.5,0.3-0.8
				c0.2-1.1,0.3-2.1,0.4-3.1c0-0.1,0-0.2,0-0.4c0-0.3,0.1-0.6,0-0.9c-0.1-0.3-0.6-0.5-1.3-0.6c-0.7,0.2-0.6,0.7-0.7,1.1
				c-0.1,0.8-0.1,1.9-0.2,2.7c0,0.6-0.1,1.2,0,1.8c0,0.6,0,1.2,0.1,1.7c0.1,0.4,0.3,0.8,0.3,1.2C473.6,286,473.8,286.5,474.1,286.9z
				"/>
		</g>
	</g>
	<g>
		<g>
			<path class="st20" d="M464.9,276.7c0.5,0.3,1,0,1.5,0c1.6-0.1,3.4,0.3,5,0.3c0.3,0.1,0.5,0.1,0.7,0.2c0.2,0,0.3,0.1,0.5,0.1
				c0.3,0,0.7,0.1,1,0.2c0.1,0,0.2,0.2-0.1,0.3c-0.3,0.1-0.6,0.1-0.7,0.2c-0.3,0.1-0.6,0.1-0.7,0.1l-0.2,0c0,0-0.2,0-0.4,0l-0.5,0
				c-1.3,0.1-2.5,0.2-3.9,0.3c-0.3,0-0.6,0-0.9,0.1c-0.7,0.1-1.5,0-2.2,0.2c-0.7,0.1-1.2,0.7-1.3,1.3c0.5,0.7,1.8,0.5,3,0.5
				c1,0,2.2-0.1,3.4-0.2c0.6-0.1,1.2-0.1,1.7-0.2c0.7-0.1,1.3-0.2,1.9-0.3c1.5-0.2,2.7-0.6,3.4-1.1c0.3-0.2,0.5-0.5,0.5-0.7
				c0-0.1,0.1-0.3,0-0.6c0-0.2-0.1-0.4-0.2-0.5c-0.1-0.1-0.2-0.2-0.3-0.3l-0.1-0.1c-0.1,0-0.2-0.1-0.3-0.1l-0.3-0.1l-0.1-0.1l-0.2,0
				l-0.9-0.2c-0.7-0.1-1.3-0.2-2-0.2l-0.5,0l-0.3,0c-0.2,0-0.4,0-0.5,0c-1.1,0-2.1,0.2-3.1,0.4C466.9,276.2,465.9,276.4,464.9,276.7
				z"/>
		</g>
	</g>
	<g>
		<g>
			<path class="st20" d="M485.7,290c-0.2-0.3-0.4-0.1-0.5-0.1c-0.6,0-1.2-0.4-1.8-0.3c-0.4-0.3-0.8-0.2-1.3-0.3
				c-0.2,0-0.4-0.3-0.6-0.3c-0.9-0.3-1.7-0.6-2.5-0.9c-0.1,0-0.2-0.1-0.3-0.1c-0.2-0.1-0.5-0.3-0.7-0.3c-0.3,0-0.7,0.4-0.9,1
				c-0.1,0.7,0.3,0.8,0.7,1c0.7,0.4,1.7,0.7,2.4,0.8c0.5,0.1,1.1,0.3,1.7,0.3c0.6,0,1.1,0.1,1.6,0c0.4-0.1,0.8-0.3,1.1-0.4
				C485,290.4,485.3,290.2,485.7,290z"/>
		</g>
	</g>
	<g>
		<g>
			<path class="st20" d="M484.7,292.5c-0.2-0.3-0.2-0.1-0.4-0.1c-0.4,0-0.8-0.4-1.2-0.2c-0.3-0.2-0.5-0.1-0.8-0.2
				c-0.1,0-0.3-0.2-0.4-0.2c-0.6-0.2-1.1-0.3-1.6-0.5c-0.1,0-0.1,0-0.2,0c-0.1,0-0.3-0.1-0.4-0.1c-0.2,0-0.4,0.6-0.6,1.2
				c-0.1,0.7,0.2,0.7,0.5,0.8c0.5,0.2,1.1,0.3,1.6,0.4c0.4,0,0.7,0.1,1.1,0c0.4-0.1,0.7,0,1-0.2c0.2-0.1,0.5-0.3,0.7-0.4
				C484.3,292.8,484.5,292.7,484.7,292.5z"/>
		</g>
	</g>
	<g>
		<g>
			<path class="st20" d="M483.8,285.7c0-0.4-0.3-0.2-0.4-0.2c-0.5-0.2-1-0.7-1.6-0.5c-0.4-0.2-0.8-0.1-1.3-0.1
				c-0.2,0-0.5-0.1-0.7-0.1c-0.5,0-1,0.1-1.4,0.3c-0.4,0.2-0.9,0.3-1.5,0.9c-0.1,0.1-0.2,0.3-0.3,0.4c-0.2,0.4-0.4,1-0.2,1.5
				c0.1,0.3,0.4,0.4,0.7,0.4c0.3,0,0.5-0.2,0.7-0.5c0.1-0.2,0.2-0.3,0.2-0.3c0,0,0.1,0,0.1-0.1c0.1,0,0.1,0,0.1-0.1
				c0,0,0.1-0.1,0.4-0.2c0.2-0.1,0.6-0.3,0.8-0.4c0.4-0.1,0.8-0.2,1.2-0.3c0.4-0.1,0.8-0.1,1.2-0.2c0.3-0.1,0.6-0.2,0.9-0.3
				C483.1,285.8,483.4,285.8,483.8,285.7z"/>
		</g>
	</g>
	<g>
		<g>
			<path class="st20" d="M456,287.9c0,0.4,0.3,0.3,0.5,0.4c0.5,0.4,0.8,1.1,1.3,1.4c0.1,0.5,0.3,0.7,0.3,1.2c0,0.2-0.2,0.3-0.3,0.5
				c-0.2,0.3-0.4,0.5-0.8,0.8c-0.4,0.3-0.7,0.5-1.1,0.7c-0.1,0-0.2,0.1-0.3,0.1c-0.2,0.1-0.5,0.2-0.7,0.3c-0.2,0.2-0.2,0.7,0,1.4
				c0.4,0.6,0.9,0.3,1.4,0.2c0.4-0.1,0.9-0.4,1.3-0.7c0.4-0.3,0.8-0.6,1.1-1c0.2-0.3,0.5-0.6,0.7-1c0.2-0.4,0.3-0.9,0.2-1.3
				c-0.1-0.9-0.5-1.6-1-2c-0.4-0.3-0.9-0.4-1.3-0.6C456.8,288.1,456.4,288,456,287.9z"/>
		</g>
	</g>
	<g>
		<g>
			<path class="st20" d="M461.6,287.8c0.3-0.2,0.1-0.2,0-0.3c0-0.4,0.4-0.8,0.2-1.1c0.2-0.3,0.1-0.5,0.1-0.8c0-0.1,0.2-0.3,0.2-0.4
				c0.2-0.6,0.3-1.1,0.4-1.6c0-0.1,0-0.1,0-0.2c0-0.1,0.1-0.3,0.1-0.4c-0.1-0.2-0.6-0.4-1.2-0.5c-0.7,0-0.7,0.3-0.8,0.5
				c-0.2,0.4-0.2,1.1-0.2,1.6c0,0.3-0.1,0.7,0,1c0.1,0.3,0.1,0.7,0.2,1c0.1,0.2,0.3,0.4,0.5,0.6
				C461.2,287.4,461.4,287.6,461.6,287.8z"/>
		</g>
	</g>
	<g>
		<g>
			<path class="st20" d="M460.7,297.5c0.3-0.2,0.1-0.3,0-0.5c0-0.5,0.4-1.1,0.2-1.6c0.2-0.4,0.1-0.7,0.1-1.1c0-0.2,0.2-0.4,0.2-0.6
				c0.1-0.9,0.3-1.6,0.4-2.4c0-0.1,0-0.2,0-0.3c0-0.2,0.1-0.5,0.1-0.7c-0.1-0.2-0.6-0.5-1.2-0.6c-0.7,0.1-0.7,0.5-0.8,0.9
				c-0.2,0.6-0.2,1.5-0.2,2.1c0,0.5,0,1,0,1.4c0.1,0.5,0.1,0.9,0.2,1.4c0.1,0.3,0.3,0.6,0.5,0.9
				C460.4,296.8,460.5,297.2,460.7,297.5z"/>
		</g>
	</g>
	<g>
		<g>
			<path class="st20" d="M452.8,296.4c-0.2-0.3-0.4,0-0.6,0c-0.7,0-1.4-0.3-2.1-0.1c-0.5-0.2-0.9-0.1-1.5-0.2
				c-0.3,0-0.5-0.2-0.8-0.3c-1.1-0.2-2-0.4-3-0.7c-0.1,0-0.2-0.1-0.3-0.1c-0.3,0-0.6-0.2-0.8-0.2c-0.3,0-0.7,0.5-0.9,1.1
				c0,0.7,0.5,0.8,1,1c0.8,0.3,2,0.5,2.8,0.6c0.6,0.1,1.3,0.2,1.9,0.1c0.6,0,1.3,0,1.9-0.2c0.4-0.1,0.8-0.3,1.2-0.5
				C452,296.9,452.4,296.7,452.8,296.4z"/>
		</g>
	</g>
	<g>
		<g>
			<path class="st20" d="M452.2,298.8c-0.3-0.3-0.4,0-0.6,0.1c-0.6,0.1-1.4-0.1-2,0.2c-0.5-0.2-0.8,0-1.4,0c-0.2,0-0.5-0.2-0.7-0.2
				c-1-0.1-1.9-0.3-2.8-0.5c-0.1,0-0.2-0.1-0.3-0.1c-0.3,0-0.5-0.2-0.8-0.2c-0.3,0-0.6,0.5-0.9,1.1c0,0.7,0.5,0.8,1,1
				c0.8,0.3,1.9,0.5,2.7,0.5c0.6,0,1.2,0.1,1.8,0c0.6-0.1,1.2-0.2,1.8-0.4c0.4-0.2,0.8-0.5,1.1-0.6
				C451.5,299.4,451.9,299.1,452.2,298.8z"/>
		</g>
	</g>
	<g>
		<g>
			<path class="st20" d="M443.4,301.6c0.3-0.2,0-0.4,0-0.6c0-0.7,0.3-1.5,0.1-2.1c0.2-0.5,0-0.9,0-1.5c0-0.3,0.2-0.5,0.2-0.8
				c0.1-1.2,0.1-2.2,0.2-3.2c0-0.1,0-0.2,0-0.4c0-0.3,0.1-0.6,0-0.9c-0.1-0.3-0.6-0.5-1.3-0.6c-0.7,0.2-0.6,0.7-0.7,1.2
				c-0.1,0.8-0.1,2,0,2.8c0,0.6,0,1.3,0.1,1.9c0.1,0.6,0.2,1.2,0.3,1.8c0.1,0.4,0.4,0.8,0.5,1.2C443,300.8,443.2,301.2,443.4,301.6z
				"/>
		</g>
	</g>
	<g>
		<g>
			<path class="st20" d="M437.9,286.5c0.1,0.4,0.5,0.3,0.7,0.4c0.4,0.2,0.7,0.6,0.9,0.9c0.1,0.1,0.2,0.3,0.2,0.5
				c0,0.2-0.2,0.3-0.2,0.4c-0.5,0.2-0.8,0.7-1.5,1.1c-0.3,0.2-0.6,0.2-0.9,0.3c-1.2,0.5-2.4,0.8-3.7,0.9c-0.1,0-0.3,0-0.4,0
				c-0.3,0-0.7-0.1-1.1,0c-0.3,0-0.7,0.5-0.9,1.2c0.1,0.7,0.9,0.8,1.6,0.8c0.6,0.1,1.3,0,2-0.1c0.7-0.1,1.4-0.3,1.9-0.5
				c0.8-0.3,1.6-0.7,2.3-1.3c0.3-0.3,0.7-0.6,1-0.9c0.1-0.2,0.3-0.3,0.4-0.5c0.2-0.3,0.4-0.5,0.6-0.8c0.2-0.4,0.2-0.9-0.1-1.2
				c-0.3-0.3-0.7-0.5-1-0.7C439.1,286.7,438.5,286.5,437.9,286.5z"/>
		</g>
	</g>
	<g>
		<g>
			<path class="st20" d="M435.3,293.7c0.2,0.4,0.6,0.2,0.8,0.3c0.9,0.4,1.4,1.4,2.1,2c0,0.2,0.1,0.3,0.1,0.5
				c0.1,0.1,0.1,0.3,0.1,0.4c0,0.2,0.2,0.4-0.1,0.5c0,0-0.1,0-0.2,0.1l-0.1,0l-0.1,0c-0.2,0.1-0.4,0.1-0.5,0.2
				c-1.4,0.6-2.7,1.1-4.1,1.4c-0.1,0-0.3,0.1-0.5,0.1c-0.4,0.1-0.9,0.1-1.2,0.3c-0.4,0.2-0.6,0.7-0.6,1.4c0.4,0.7,1.1,0.5,1.9,0.4
				c1.2-0.2,2.8-0.7,3.9-1.2c0.4-0.2,0.8-0.4,1.2-0.6c0.2-0.1,0.4-0.2,0.6-0.3l0.3-0.2c0.1-0.1,0.3-0.2,0.5-0.3
				c0.2-0.1,0.3-0.3,0.5-0.4l0.2-0.2c0,0,0.1-0.1,0.1-0.1l0-0.1c-0.1-0.4-0.2-0.8-0.3-1.2c-0.2-0.5-0.3-0.6-0.4-0.8
				c-0.1-0.2-0.3-0.4-0.5-0.6c-0.5-0.5-1.2-0.8-1.7-1.1C436.7,293.7,436,293.6,435.3,293.7z"/>
		</g>
	</g>
	<g>
		<g>
			<path class="st20" d="M433.8,300.3c0.1,0.4,0.5,0.4,0.8,0.6c0.4,0.3,0.8,0.7,1.2,1.1c0.4,0.4,0.8,0.8,0.8,1.1
				c-0.2,0.5-0.4,1-1.1,1.7c-0.3,0.3-0.7,0.4-1,0.6c-1.3,0.9-2.7,1.6-4.2,1.8c-0.2,0-0.3,0.1-0.5,0.1c-0.4,0.1-0.9,0.1-1.3,0.1
				c-0.4,0.1-0.8,0.6-0.8,1.3c0.3,0.7,1.2,0.7,2,0.6c0.7,0,1.5-0.2,2.3-0.5c0.8-0.3,1.5-0.6,2.1-1c0.9-0.5,1.7-1.2,2.4-2
				c0.3-0.4,0.6-0.8,0.9-1.3c0.1-0.3,0.3-0.6,0.3-0.9c0.1-0.4,0-0.8-0.1-1.2c-0.3-0.6-0.7-0.8-1-1c-0.3-0.2-0.6-0.3-0.9-0.5
				C435.1,300.7,434.4,300.4,433.8,300.3z"/>
		</g>
	</g>
	<g>
		<g>
			<path class="st20" d="M440.1,304.5c0.3-0.2,0-0.3,0-0.5c0-0.5,0.3-1.1,0.1-1.5c0.2-0.4,0-0.6,0-1.1c0-0.2,0.2-0.4,0.2-0.6
				c0.1-0.9,0.1-1.5,0.2-2.2c0-0.1,0-0.2,0-0.2c0-0.2,0.1-0.4,0-0.6c-0.1-0.2-0.6-0.4-1.3-0.4c-0.7,0.1-0.6,0.5-0.7,0.9
				c-0.1,0.6-0.1,1.4,0,2c0,0.4,0,0.9,0.1,1.3c0.1,0.4,0.1,0.9,0.3,1.3c0.1,0.3,0.4,0.5,0.5,0.8C439.7,304,439.9,304.3,440.1,304.5z
				"/>
		</g>
	</g>
	<g>
		<g>
			<path class="st20" d="M436.4,312.8c0.3-0.2,0-0.4,0-0.5c0-0.6,0.3-1.3,0.1-1.8c0.2-0.4,0-0.8,0-1.3c0-0.2,0.2-0.5,0.2-0.7
				c0.1-0.9,0.1-1.8,0.1-2.7c0-0.1,0-0.2,0-0.3c0-0.2,0.1-0.5,0-0.8c-0.1-0.2-0.6-0.4-1.3-0.4c-0.7,0.2-0.6,0.6-0.6,1.1
				c-0.1,0.7,0,1.7,0,2.4c0,0.5,0,1.1,0.2,1.6c0.1,0.5,0.1,1,0.3,1.5c0.1,0.4,0.4,0.7,0.5,1C436,312.1,436.2,312.4,436.4,312.8z"/>
		</g>
	</g>
	<g>
		<g>
			<path class="st20" d="M440.1,294.7c0.3-0.2,0-0.3,0-0.4c0-0.4,0.3-0.9,0.1-1.3c0.2-0.3,0-0.5,0.1-0.9c0-0.2,0.2-0.3,0.2-0.5
				c0.1-0.7,0.2-1.3,0.3-1.9c0-0.1,0-0.1,0-0.2c0-0.2,0.1-0.4,0-0.5c-0.1-0.2-0.6-0.3-1.3-0.4c-0.7,0.1-0.6,0.4-0.7,0.7
				c-0.1,0.5-0.1,1.2-0.1,1.7c0,0.4,0,0.8,0.1,1.1c0.1,0.4,0.1,0.7,0.3,1.1c0.1,0.3,0.4,0.5,0.5,0.7
				C439.7,294.3,439.8,294.5,440.1,294.7z"/>
		</g>
	</g>
	<g>
		<g>
			<path class="st20" d="M452.5,304.9c-0.3-0.3-0.5,0-0.7,0c-0.8,0-1.6-0.4-2.4-0.2c-0.6-0.2-1-0.1-1.7-0.3c-0.3,0-0.6-0.3-0.8-0.3
				c-1.2-0.3-2.3-0.6-3.4-1.1c-0.1,0-0.2-0.1-0.4-0.1c-0.3-0.1-0.6-0.3-0.9-0.3c-0.3,0-0.8,0.4-1.1,0.9c-0.1,0.7,0.5,0.9,1.1,1.2
				c0.9,0.5,2.2,0.8,3.1,1c0.7,0.2,1.4,0.3,2.2,0.3c0.7,0,1.4,0.1,2.1,0c0.5-0.1,1-0.3,1.5-0.4C451.6,305.4,452,305.2,452.5,304.9z"
				/>
		</g>
	</g>
	<g>
		<g>
			<path class="st20" d="M453.6,307.2c-0.3-0.2-0.6,0.1-0.8,0.1c-0.9,0.2-2-0.1-2.8,0.2c-0.7-0.2-1.2,0-2-0.1c-0.4,0-0.7-0.2-1-0.3
				c-1.4-0.2-2.7-0.6-4.1-1c-0.1-0.1-0.3-0.1-0.4-0.1c-0.4-0.1-0.7-0.4-1.1-0.4c-0.4-0.1-0.9,0.3-1.2,0.9c0,0.8,0.7,1,1.3,1.3
				c0.5,0.3,1.2,0.5,1.9,0.7c0.7,0.2,1.4,0.3,1.9,0.4c0.9,0.1,1.8,0.2,2.6,0.2c0.9,0,1.7-0.1,2.5-0.3c0.6-0.2,1.1-0.5,1.7-0.7
				C452.5,307.8,453,307.5,453.6,307.2z"/>
		</g>
	</g>
	<g>
		<g>
			<path class="st20" d="M448.5,310.6c-0.2-0.3-0.4-0.1-0.7-0.1c-0.7,0-1.5-0.4-2.2-0.3c-0.5-0.2-0.9-0.1-1.6-0.2
				c-0.3,0-0.5-0.2-0.8-0.3c-1.1-0.2-2.2-0.3-3.1-0.6c-0.1,0-0.2-0.1-0.3-0.1c-0.2-0.1-0.4-0.3-0.6-0.3c-0.2,0-0.7,0.2-1.2,0.6
				c-0.4,0.7,0.3,1.1,0.9,1.4c0.5,0.3,1.1,0.4,1.6,0.5c0.6,0.1,1.1,0.1,1.5,0.2c0.7,0.1,1.3,0.1,2,0.1c0.7,0,1.3,0,1.9-0.1
				c0.5-0.1,0.9-0.3,1.3-0.4C447.6,311,448,310.8,448.5,310.6z"/>
		</g>
	</g>
	<g>
		<g>
			<path class="st20" d="M417,304.8c-0.3-0.3-0.4,0-0.5,0.1c-0.6,0.1-1.3-0.2-1.8,0.1c-0.4-0.2-0.8,0-1.3-0.1
				c-0.2,0-0.4-0.2-0.6-0.2c-0.9-0.2-1.7-0.4-2.5-0.7c-0.1,0-0.2-0.1-0.3-0.1c-0.2,0-0.4-0.2-0.7-0.2c-0.2,0-0.6,0.4-0.9,1
				c-0.1,0.7,0.4,0.8,0.8,1c0.7,0.3,1.7,0.5,2.5,0.6c0.6,0.1,1.1,0.1,1.7,0c0.6-0.1,1.1-0.1,1.6-0.3c0.4-0.1,0.7-0.4,1-0.6
				C416.4,305.3,416.7,305.1,417,304.8z"/>
		</g>
	</g>
	<g>
		<g>
			<path class="st20" d="M432.7,303.5c-0.4,0.1-0.3,0.3-0.4,0.5c-0.5,0.5-1.3,0.3-1.8,0.6c-0.5-0.1-0.8,0.1-1.4,0.1
				c-0.2,0-0.5-0.1-0.8-0.1c-1,0-2,0-3,0c-0.1,0-0.2,0-0.3,0c-0.3,0-0.6-0.1-0.8,0c-0.3,0.1-0.5,0.6-0.5,1.3
				c0.2,0.7,0.7,0.6,1.2,0.7c0.8,0.1,1.9,0,2.7-0.1c0.6-0.1,1.2-0.1,1.7-0.3c0.6-0.2,1.1-0.3,1.7-0.5c0.4-0.2,0.8-0.5,1.1-0.8
				C432.4,304.5,432.7,303.9,432.7,303.5z"/>
		</g>
	</g>
	<g>
		<g>
			<path class="st20" d="M433.1,297.2c0.2,0,0.2-0.2,0.2-0.2c0-0.1-0.1-0.1-0.2-0.2c-0.2-0.2-0.5-0.5-0.9-0.5c-0.4,0-0.8,0-1.1,0.2
				c-0.5-0.1-0.9,0.1-1.5,0.1c-0.3,0-0.5-0.1-0.8-0.2c-0.4,0-0.7-0.1-1-0.2c-0.1-0.1-0.1-0.1-0.1-0.1c0,0,0.1-0.1,0.1-0.1
				c0,0,0,0,0,0c0,0,0,0,0,0c0,0,0,0,0.1-0.1c0,0,0.1-0.1,0.1-0.1c0.1-0.2,0-0.8-0.3-1.4c-0.3-0.3-0.5-0.3-0.8-0.2
				c-0.1,0-0.2,0.1-0.4,0.2c-0.1,0.1-0.3,0.3-0.5,0.4c-0.3,0.3-0.6,0.7-0.7,1.1c-0.1,0.4-0.1,0.9,0.2,1.2c0.1,0.1,0.2,0.3,0.4,0.4
				c0.2,0.1,0.4,0.2,0.5,0.3c0.2,0.1,0.4,0.1,0.6,0.2c0.2,0,0.4,0.1,0.5,0.1c0.7,0.1,1.5,0.1,2.1,0c0.7-0.1,1.3-0.3,1.8-0.5
				c0.4-0.2,0.7-0.5,1-0.6C432.7,296.9,433,296.9,433.1,297.2z"/>
		</g>
	</g>
	<g>
		<g>
			<path class="st20" d="M433.5,288.9c-0.1-0.3-0.3-0.1-0.4-0.1c-0.4,0-0.9-0.5-1.3-0.3c-0.3-0.2-0.6-0.1-0.9-0.2
				c-0.2,0-0.3-0.2-0.5-0.2c-0.7-0.2-1.3-0.3-2-0.4c-0.1,0-0.1,0-0.2,0c-0.2,0-0.4-0.1-0.6,0c-0.2,0.1-0.4,0.6-0.5,1.2
				c0.1,0.7,0.4,0.7,0.7,0.7c0.5,0.2,1.3,0.2,1.8,0.2c0.4,0,0.8,0.1,1.2,0c0.4-0.1,0.8,0,1.1-0.2c0.3-0.1,0.5-0.3,0.8-0.4
				C433,289.2,433.3,289.1,433.5,288.9z"/>
		</g>
	</g>
	<g>
		<g>
			<path class="st20" d="M403.3,299.1c-0.3-0.3-0.4,0-0.6,0.1c-0.6,0.1-1.5-0.1-2.1,0.2c-0.5-0.1-0.9,0.1-1.5,0.1
				c-0.3,0-0.5-0.1-0.8-0.1c-1.1,0-2-0.1-3-0.4c-0.1,0-0.2,0-0.3-0.1c-0.3,0-0.5-0.2-0.8-0.2c-0.3,0-0.7,0.4-1,1
				c-0.1,0.7,0.5,0.9,1,1.1c0.9,0.4,2.2,0.5,3,0.5c0.7,0,1.4,0,2-0.2c0.6-0.2,1.3-0.3,1.8-0.5c0.4-0.2,0.8-0.5,1.1-0.7
				C402.5,299.6,402.9,299.4,403.3,299.1z"/>
		</g>
	</g>
	<g>
		<g>
			<path class="st20" d="M387.4,293.5c-0.3-0.2-0.3,0.1-0.4,0.1c-0.4,0.2-1,0-1.4,0.2c-0.4-0.1-0.6,0-1,0c-0.2,0-0.3-0.2-0.5-0.2
				c-0.6-0.1-1.2-0.3-1.7-0.6c-0.1,0-0.1-0.1-0.2-0.1c-0.2,0-0.3-0.2-0.4-0.2c-0.2,0-0.6,0.4-1,0.9c-0.3,0.7,0.1,0.8,0.4,1
				c0.3,0.2,0.6,0.3,1,0.5c0.4,0.1,0.7,0.2,1,0.2c0.5,0.1,1,0.1,1.4,0c0.5-0.1,0.9-0.2,1.3-0.4c0.3-0.2,0.5-0.5,0.7-0.7
				C387,294.1,387.2,293.8,387.4,293.5z"/>
		</g>
	</g>
	<g>
		<g>
			<path class="st20" d="M356.1,277.7c-0.1-0.4-0.4-0.2-0.7-0.2c-0.7-0.2-1.5-0.7-2.3-0.6c-0.6-0.3-1-0.2-1.8-0.2
				c-0.3,0-0.3-0.2-0.4-0.2c-0.1,0-0.1-0.1-0.2-0.1c-0.1,0,0.1-0.2,0.2-0.2c0.1-0.1,0.1-0.1,0.2-0.1c0,0,0,0,0,0c0,0,0,0,0.1,0
				c0.1,0,0.1,0,0.2-0.1c0.1,0,0.2-0.1,0.3-0.1c0.2-0.1,0.3-0.7,0.3-1.4c-0.3-0.7-1.1-0.5-1.7-0.2l-0.2,0.1c-0.1,0-0.2,0.1-0.3,0.2
				c-0.2,0.1-0.4,0.3-0.6,0.4c-0.4,0.3-0.7,0.7-0.9,1.1c-0.2,0.4-0.3,0.8-0.4,1.1c-0.1,0.4-0.2,0.7-0.3,1l-0.1,0.3
				c1.2-0.1,2.6-0.3,3.7-0.3c0.7-0.1,1.3,0,1.9-0.1c0.5,0,0.9-0.2,1.4-0.2C355.1,277.8,355.6,277.8,356.1,277.7z"/>
		</g>
	</g>
	<g>
		<g>
			<path class="st20" d="M359.9,281.7c0-0.3-0.1-0.1-0.1-0.1c-0.1-0.1-0.2-0.5-0.3-0.4c-0.1-0.2-0.1-0.1-0.2-0.2
				c0,0-0.1-0.2-0.1-0.2c-0.2-0.2-0.3-0.2-0.5-0.3c0,0,0,0-0.1,0c0,0-0.1-0.1-0.1,0c0,0.1-0.1,0.6-0.1,1.3c0,0.7,0.1,0.6,0.2,0.7
				c0.1,0.1,0.3,0.1,0.5,0.1c0.1,0,0.2,0.1,0.3,0c0.1-0.1,0.2,0,0.3-0.1c0.1-0.1,0.1-0.3,0.2-0.4C359.8,282,359.9,281.8,359.9,281.7
				z"/>
		</g>
	</g>
	<g>
		<g>
			<path class="st20" d="M362.8,286.1c-0.3-0.3-0.4,0-0.5,0.1c-0.5,0.1-1.2-0.2-1.7,0c-0.4-0.2-0.7-0.1-1.2-0.2
				c-0.2,0-0.4-0.2-0.6-0.3c-0.8-0.3-1.5-0.5-2.2-1c-0.1,0-0.2-0.1-0.2-0.1c-0.2-0.1-0.4-0.3-0.6-0.3c-0.2,0-0.7,0.3-1.1,0.8
				c-0.3,0.7,0.2,0.9,0.6,1.1c0.3,0.2,0.7,0.4,1.1,0.6c0.4,0.2,0.9,0.3,1.2,0.4c0.5,0.1,1.1,0.2,1.7,0.2c0.6,0,1.1,0,1.6-0.2
				c0.4-0.1,0.7-0.4,1-0.6C362.2,286.6,362.6,286.4,362.8,286.1z"/>
		</g>
	</g>
	<g>
		<g>
			<path class="st20" d="M352.9,283.2c-0.2-0.3-0.4,0-0.6,0c-0.6,0.1-1.3-0.3-1.9-0.1c-0.5-0.2-0.8-0.1-1.4-0.2
				c-0.2,0-0.5-0.2-0.7-0.3c-1-0.2-1.8-0.4-2.7-0.8c-0.1,0-0.2-0.1-0.3-0.1c-0.2-0.1-0.5-0.2-0.8-0.2c-0.3,0-0.7,0.4-0.9,1
				c-0.1,0.7,0.4,0.8,0.9,1c0.7,0.4,1.8,0.6,2.6,0.7c0.6,0.1,1.2,0.2,1.8,0.1c0.6,0,1.2,0,1.7-0.2c0.4-0.1,0.8-0.4,1.2-0.5
				C352.2,283.6,352.6,283.4,352.9,283.2z"/>
		</g>
	</g>
	<g>
		<g>
			<path class="st20" d="M345.6,286.9c0-0.4-0.2-0.2-0.4-0.3c-0.3-0.4,0.1-0.9-0.1-1.3c0.2-0.3,0.1-0.6,0.1-1c0-0.2,0.2-0.4,0.2-0.5
				c0.1-0.7,0.2-1.4,0.2-2.1c0-0.1,0-0.2,0-0.2c0-0.2,0.1-0.4,0-0.6c-0.1-0.2-0.7-0.3-1.3-0.3c-0.7,0.2-0.6,0.5-0.6,0.8
				c-0.1,0.5,0,1.3,0,1.8c0,0.4,0,0.8,0.1,1.2c0.1,0.4,0.1,0.7,0.2,1.2c0.1,0.3,0.4,0.6,0.6,0.9C344.7,286.7,345.2,287,345.6,286.9z
				"/>
		</g>
	</g>
	<g>
		<g>
			<path class="st20" d="M337.6,284.8c0.3-0.2,0-0.3,0-0.4c0-0.4,0.3-1,0.1-1.4c0.2-0.3,0-0.6,0.1-1c0-0.2,0.2-0.4,0.2-0.5
				c0.1-0.7,0.1-1.3,0.2-2c0-0.1,0-0.1,0-0.2c0-0.2,0.1-0.4,0-0.6c-0.1-0.2-0.6-0.3-1.3-0.3c-0.7,0.1-0.6,0.5-0.7,0.8
				c-0.1,0.5,0,1.3,0,1.8c0,0.4,0,0.8,0.1,1.2c0.1,0.4,0.1,0.8,0.3,1.1c0.1,0.3,0.4,0.5,0.5,0.7
				C337.2,284.3,337.4,284.6,337.6,284.8z"/>
		</g>
	</g>
	<g>
		<g>
			<path class="st20" d="M342.8,281.6c-0.2-0.3-0.3,0-0.4,0c-0.4,0.1-1-0.1-1.3,0.1c-0.3-0.1-0.5,0-0.9,0c-0.1,0-0.3-0.2-0.4-0.2
				c-0.5-0.1-1-0.3-1.3-0.6c0,0-0.1,0-0.1-0.1c-0.1,0-0.1-0.2-0.2-0.2c-0.1,0-0.6,0.2-1.2,0.6c-0.5,0.5-0.2,0.8,0.1,1.1
				c0.5,0.5,1.4,0.8,2,0.9c0.5,0.1,1,0.1,1.4-0.1c0.4-0.1,0.8-0.2,1.1-0.4c0.2-0.2,0.4-0.4,0.6-0.6
				C342.4,282,342.6,281.8,342.8,281.6z"/>
		</g>
	</g>
	<g>
		<g>
			<path class="st20" d="M375.8,274.4c-0.3-0.3-0.5,0-0.7,0c-0.7,0.1-1.9,0.2-2.4,1c-0.3,0.1-0.5,0.4-0.7,0.6
				c-0.2,0.3-0.4,0.6-0.5,1.2c-0.1,0.5,0.1,1,0.4,1.4c0.3,0.3,0.7,0.6,1.1,0.7c0.4,0.1,0.7,0.3,1.1,0.3c0.7,0.2,1.5,0.2,2.2,0.2
				c0.2,0,0.3,0,0.5-0.1c0.4-0.1,0.9-0.1,1.3-0.3c0.4-0.2,0.5-0.8,0.3-1.4c-0.5-0.6-1-0.3-1.5-0.3c-0.9,0.1-2.1,0-3-0.2
				c-0.3-0.1-0.5-0.2-0.7-0.3c-0.2-0.1-0.1-0.1-0.1-0.1c0,0,0,0,0,0c0-0.1,0.1-0.2,0.2-0.3c0.2-0.2,0.3-0.5,0.5-0.7
				c0.3-0.3,0.5-0.8,0.9-1C374.9,274.9,375.3,274.7,375.8,274.4z"/>
		</g>
	</g>
	<g>
		<g>
			<path class="st20" d="M357.8,272.9c-0.1-0.3-0.4-0.1-0.5-0.2c-0.6-0.1-1.2-0.5-1.9-0.5c-0.4-0.2-0.8-0.2-1.4-0.2
				c-0.2,0-0.5-0.2-0.7-0.2c-1-0.1-2-0.2-3-0.2c-0.1,0-0.2,0-0.3,0c-0.1,0-0.1,0-0.2,0c-0.1,0-0.3,0-0.4,0c-0.2,0-0.5,0.1-0.7,0.3
				c-0.2,0.2-0.3,0.5-0.1,0.7c0.1,0.2,0.4,0.4,0.6,0.5c0.2,0,0.3,0,0.4,0.1c0,0,0.2,0,0.2,0c0.3,0,0.8,0,1.2,0c0.4,0,0.9,0,1.2,0
				c0.5,0,1.1,0,1.6,0c0.5,0,1.1,0,1.6,0c0.4,0,0.8-0.2,1.1-0.2C357,273,357.4,272.9,357.8,272.9z"/>
		</g>
	</g>
	<g>
		<g>
			<path class="st20" d="M386,273.4c-0.2-0.3-0.4-0.1-0.7-0.1c-0.7-0.1-1.5-0.5-2.3-0.4c-0.5-0.2-1-0.1-1.7-0.2
				c-0.3,0-0.6-0.2-0.9-0.2c-1.2-0.1-2.4-0.1-3.6-0.1c-0.1,0-0.3,0-0.4,0c-0.3,0-0.7,0-1,0.1c-0.3,0.1-0.5,0.6-0.5,1.1
				c0.3,0.5,0.8,0.4,1.4,0.4c0.9,0,2.1-0.1,3-0.1c0.7,0,1.3,0,2,0c0.7,0,1.3,0,1.9-0.1c0.5,0,0.9-0.2,1.4-0.2
				C385.1,273.5,385.5,273.5,386,273.4z"/>
		</g>
	</g>
	<g>
		<g>
			<path class="st20" d="M393.6,264.1c0.5,0.1,1-0.2,1.5-0.3c1.6-0.3,3.4,0,5.1,0.2c0.7,0.2,1.1,0.4,1.6,0.5
				c0.3,0.1,0.6,0.2,0.8,0.3c0.1,0.1,0.2,0.1,0.3,0.2c0.1,0.1,0.1,0.1,0.2,0.3c0,0.2-0.1,0.3-0.3,0.4c-0.1,0-0.5,0.1-0.7,0.2
				c-2.5,0.7-5,1-7.7,0.7c-0.3,0-0.6,0-0.9-0.1c-0.7-0.1-1.5-0.3-2.1-0.3c-0.7-0.1-1.3,0.2-1.6,0.7c0.3,0.7,1.6,0.9,2.9,1.2
				c1,0.2,2.3,0.3,3.5,0.3c1.2,0,2.5-0.2,3.5-0.4c0.8-0.1,1.5-0.3,2.3-0.5c0.4-0.1,0.7-0.2,1.1-0.4c0.1,0,0.3-0.1,0.4-0.2
				c0.2-0.1,0.3-0.2,0.4-0.3c0.2-0.3,0.4-0.6,0.4-0.9c0.1-0.7-0.4-1.3-1-1.7c-0.5-0.2-0.8-0.3-1.2-0.4c-0.7-0.2-1.5-0.4-2.2-0.5
				c-1.1-0.1-2.2,0-3.2,0.2C395.7,263.4,394.6,263.7,393.6,264.1z"/>
		</g>
	</g>
	<g>
		<g>
			<path class="st20" d="M389.6,274c0.2-0.2,0-0.3,0-0.5c-0.1-0.5,0.2-1.1-0.1-1.6c0.1-0.4,0-0.7,0-1.1c0-0.2,0.1-0.4,0.1-0.6
				c0.1-0.8,0.2-1.5,0.3-2.3c0-0.1,0-0.2,0-0.3c0-0.2,0.1-0.4,0.1-0.6c0-0.2-0.4-0.5-0.9-0.6c-0.6,0-0.6,0.5-0.7,0.8
				c-0.2,0.6-0.2,1.5-0.2,2.2c0,0.5,0,1,0.1,1.4c0.1,0.5,0.1,0.9,0.3,1.4c0.1,0.3,0.3,0.6,0.5,0.9
				C389.2,273.4,389.4,273.7,389.6,274z"/>
		</g>
	</g>
	<g>
		<g>
			<path class="st20" d="M403.8,275.3c0.3-0.2,0.1-0.3,0.1-0.5c0-0.5,0.4-1.2,0.3-1.7c0.2-0.4,0.1-0.8,0.1-1.3
				c0-0.2,0.2-0.4,0.2-0.6c0.1-0.9,0.2-1.8,0.2-2.7c0-0.1,0-0.2,0-0.3c0-0.2,0.1-0.5,0-0.8c-0.1-0.2-0.5-0.4-1-0.5
				c-0.6,0.2-0.5,0.6-0.5,1c-0.1,0.7-0.1,1.6-0.1,2.3c0,0.5,0,1,0,1.5c0,0.5,0,1,0.1,1.5c0.1,0.4,0.2,0.7,0.3,1
				C403.6,274.6,403.7,275,403.8,275.3z"/>
		</g>
	</g>
	<g>
		<g>
			<path class="st20" d="M402.2,270.5c-0.2-0.3-0.4-0.1-0.6-0.1c-0.6,0-1.3-0.4-1.9-0.3c-0.5-0.2-0.8-0.1-1.4-0.2
				c-0.2,0-0.5-0.2-0.7-0.2c-1-0.1-2-0.2-3-0.3c-0.1,0-0.2,0-0.3,0c-0.3,0-0.6-0.1-0.9,0c-0.3,0.1-0.5,0.5-0.5,1
				c0.2,0.6,0.7,0.5,1.1,0.5c0.8,0.1,1.8,0.1,2.6,0.1c0.6,0,1.1,0,1.7,0c0.6,0,1.1,0,1.6-0.1c0.4-0.1,0.8-0.2,1.2-0.3
				C401.4,270.7,401.8,270.6,402.2,270.5z"/>
		</g>
	</g>
	<g>
		<g>
			<path class="st20" d="M401.9,273.2c-0.2-0.3-0.4,0-0.6,0c-0.6,0-1.4-0.3-2-0.1c-0.5-0.2-0.9,0-1.5-0.1c-0.3,0-0.5-0.2-0.8-0.2
				c-1.1-0.1-2.1-0.2-3.1-0.3c-0.1,0-0.2,0-0.3,0c-0.3,0-0.6-0.1-0.9-0.1c-0.3,0-0.5,0.5-0.6,1c0.2,0.6,0.7,0.6,1.1,0.6
				c0.8,0.1,1.9,0.2,2.7,0.2c0.6,0,1.2,0,1.8,0c0.6-0.1,1.2-0.1,1.7-0.2c0.4-0.1,0.8-0.3,1.2-0.4
				C401.1,273.6,401.5,273.4,401.9,273.2z"/>
		</g>
	</g>
	<g>
		<g>
			<path class="st20" d="M412.3,267.2c0.5-0.4,1.1-0.8,1.8-1c2.1-0.4,4.5-0.1,6.7,0.1c0.8,0.2,1.5,0.3,2.2,0.6
				c0.7,0.2,1.3,0.8,1.1,1.5c-0.2,0.6-1,1-1.7,1.1c-0.8,0.2-1.6,0.2-2.4,0.2c-0.9,0-1.7,0-2.6-0.1c-1.7-0.1-3.4-0.2-5.2-0.5
				c-0.4,0-0.9-0.1-1.6,0.3c-0.4,0.2-0.7,0.6-0.9,1.1c-0.1,0.5-0.1,0.7-0.1,1c0,0.5,0,1,0,1.5c0.1,1,0.5,1.7,1.1,1.8
				c0.3-0.3,0.4-0.9,0.4-1.6c0-0.3,0-0.7,0-1.1c0-0.2,0-0.4,0-0.6c0-0.2,0-0.4,0-0.5c0.1-0.1,0-0.1,0.2-0.1c0.1,0,0.4-0.1,0.8,0
				c0.7,0.1,1.5,0.2,2.3,0.2c1.6,0.1,3.2,0.2,4.5,0.2c1,0,2,0,3.1-0.2c1-0.2,2.3-0.6,3-1.9c0.4-0.6,0.4-1.6-0.1-2.2
				c-0.4-0.6-1-1-1.5-1.2c-1.1-0.4-2-0.5-3-0.6c-1.4-0.1-2.8,0.1-4.1,0.2c-0.7,0.1-1.4,0.2-2.1,0.4
				C413.4,266.1,412.6,266.5,412.3,267.2z"/>
		</g>
	</g>
	<g>
		<g>
			<path class="st20" d="M424.4,279.2c0.3-0.2,0.1-0.4,0.1-0.6c0.1-0.6,0.5-1.4,0.4-2.1c0.2-0.5,0.1-0.9,0.2-1.5
				c0-0.3,0.2-0.5,0.2-0.8c0.1-1.1,0.1-2.2,0.1-3.3c0-0.1,0-0.2,0-0.4c0-0.3,0-0.7-0.1-0.9c-0.1-0.3-0.6-0.5-1.1-0.4
				c-0.5,0.3-0.4,0.8-0.4,1.2c0,0.8,0.1,1.9,0.1,2.7c0,0.6,0,1.2,0,1.8c0,0.6,0,1.2,0.1,1.7c0,0.4,0.2,0.8,0.2,1.2
				C424.3,278.3,424.4,278.7,424.4,279.2z"/>
		</g>
	</g>
	<g>
		<g>
			<path class="st20" d="M424.9,272.2c-0.2-0.3-0.4,0-0.6,0c-0.6,0-1.3-0.3-2-0.1c-0.5-0.2-0.8,0-1.4-0.1c-0.2,0-0.5-0.2-0.7-0.2
				c-1-0.1-2-0.2-2.8-0.4c-0.1,0-0.2,0-0.3-0.1c-0.2-0.1-0.4-0.2-0.5-0.3c-0.2,0-0.6,0.1-1,0.4c-0.3,0.5,0.2,1,0.7,1.2
				c0.9,0.5,2.1,0.5,2.8,0.6c0.6,0,1.2,0,1.7,0c0.6-0.1,1.1-0.1,1.7-0.2c0.4-0.1,0.8-0.3,1.1-0.4
				C424.1,272.5,424.5,272.4,424.9,272.2z"/>
		</g>
	</g>
	<g>
		<g>
			<path class="st20" d="M423.8,274.6c-0.1-0.3-0.3-0.1-0.4-0.1c-0.4,0-0.9-0.4-1.4-0.3c-0.3-0.2-0.6-0.1-1-0.2
				c-0.2,0-0.3-0.2-0.5-0.2c-0.8-0.2-1.4-0.3-2.1-0.5c-0.1,0-0.1,0-0.2,0c-0.2,0-0.4-0.1-0.6-0.1c-0.2,0-0.4,0.4-0.6,0.9
				c0,0.6,0.4,0.6,0.7,0.7c0.5,0.2,1.3,0.3,1.8,0.3c0.4,0,0.8,0.1,1.2,0.1c0.4,0,0.8,0,1.2,0c0.3,0,0.6-0.2,0.8-0.3
				C423.2,274.8,423.5,274.7,423.8,274.6z"/>
		</g>
	</g>
	<g>
		<g>
			<path class="st20" d="M439.4,271.6c-0.1-0.4-0.5-0.3-0.8-0.5c-0.9-0.4-1.9-1.1-2.9-1.2c-0.7-0.3-1.4-0.3-2.3-0.5
				c-0.4-0.1-0.8-0.2-1.2-0.2c-1.7-0.1-3.3,0.1-5.1,0.5c-0.2,0.1-0.4,0.1-0.6,0.2c-0.5,0.2-1.1,0.5-1.4,0.9
				c-0.4,0.5-0.2,1.2,0.3,1.4c0.6,0,0.8-0.4,1.4-0.7c0.5-0.2,1.1-0.4,1.8-0.5c0.7-0.1,1.4-0.2,1.9-0.3c0.9-0.1,1.7-0.1,2.6-0.1
				c0.9,0,1.7,0.1,2.5,0.2c0.6,0.1,1.2,0.1,1.8,0.2C438.2,271.3,438.8,271.5,439.4,271.6z"/>
		</g>
	</g>
	<g>
		<g>
			<path class="st20" d="M431.8,276.1c-0.1-0.3-0.3-0.1-0.4-0.1c-0.4,0-0.9-0.4-1.3-0.3c-0.3-0.2-0.6-0.1-0.9-0.2
				c-0.2,0-0.3-0.2-0.5-0.3c-0.6-0.2-1.2-0.4-1.9-0.7c-0.1,0-0.1,0-0.2-0.1c-0.2,0-0.3-0.2-0.5-0.2c-0.2,0-0.5,0.4-0.7,0.8
				c-0.1,0.6,0.3,0.6,0.6,0.8c0.5,0.3,1.2,0.5,1.8,0.6c0.4,0.1,0.8,0.2,1.2,0.2c0.4,0,0.8,0.1,1.2,0c0.3,0,0.6-0.2,0.8-0.3
				C431.3,276.4,431.6,276.3,431.8,276.1z"/>
		</g>
	</g>
	<g>
		<g>
			<path class="st20" d="M428.6,279.5c0-0.3-0.1-0.1-0.2-0.1c-0.2-0.1-0.5-0.5-0.7-0.4c-0.1-0.2-0.3-0.1-0.5-0.2
				c-0.1,0-0.2-0.2-0.2-0.2c-0.4-0.2-0.7-0.3-1-0.5c0,0-0.1,0-0.1,0c-0.1,0-0.2-0.1-0.3-0.1c-0.1,0-0.3,0.4-0.5,0.9
				c-0.1,0.6,0.1,0.6,0.3,0.6c0.3,0.2,0.7,0.3,1,0.3c0.2,0.1,0.5,0.1,0.7,0.1c0.2,0,0.5,0,0.7,0c0.2,0,0.3-0.2,0.5-0.2
				C428.2,279.7,428.4,279.6,428.6,279.5z"/>
		</g>
	</g>
	<g>
		<g>
			<path class="st20" d="M462.2,279.7c0.2-0.6-0.1-1.4,0-2.1c0.1-1.1,0.5-2.2,1.1-3.3c0.3-0.5,0.6-1.1,0.7-1.7
				c0.1-0.6-0.1-1.4-0.8-1.8c-0.4-0.3-0.8-0.4-1.1-0.6c-0.4-0.2-0.7-0.3-1.1-0.5c-0.7-0.3-1.5-0.7-2.5-1.2c-0.9-0.3-1.8-0.7-2.7-0.8
				c-1.7-0.2-3.4,0-5,0.3c-0.8,0.2-1.6,0.3-2.4,0.5l-1.2,0.3c-0.2,0.1-0.4,0.1-0.7,0.2c-0.2,0.1-0.6,0.3-0.8,0.6
				c-0.3,0.4-0.3,0.8-0.4,1.1c0,0.3,0,0.5,0,0.8c0,0.4,0,0.8,0.1,1.2c0.1,1,0.1,2.2,0.2,3.1c0.1,1,0.6,1.8,1.1,1.8
				c0.5-0.7,0.4-2.4,0.3-4.1c0-0.5,0-1.1,0-1.7c0-0.5,0-1.4,0-1.3c0,0,0,0,0.2-0.1l0.7-0.2c0.5-0.1,1-0.3,1.4-0.4
				c0.9-0.2,1.8-0.5,2.6-0.6c1.9-0.3,3.9-0.3,5.7,0.2c0.9,0.3,1.8,0.7,2.7,1.1c0.5,0.2,1,0.4,1.5,0.6c0.5,0.2,0.8,0.2,0.9,0.4
				c0.1,0.1,0.2,0.3,0.2,0.6c0,0.2,0,0.5-0.1,0.8c-0.2,0.6-0.5,1.3-0.7,2C461.8,276.7,461.8,278.3,462.2,279.7z"/>
		</g>
	</g>
	<g>
		<g>
			<path class="st20" d="M462.7,273.7c-0.3-0.2-0.6,0-0.9,0c-0.9,0.1-2-0.2-3-0.1c-0.7-0.2-1.3-0.1-2.2-0.2c-0.4,0-0.8-0.2-1.1-0.2
				c-1.6-0.2-3-0.5-4.5-0.8c-0.2,0-0.3-0.1-0.5-0.1c-0.4-0.1-0.9-0.3-1.3-0.3c-0.4,0-0.9,0.3-1,0.8c0.1,0.6,0.9,0.7,1.6,1
				c1.2,0.4,2.8,0.6,4,0.7c0.9,0.1,1.8,0.2,2.7,0.2c0.9,0,1.8,0,2.6-0.1c0.6-0.1,1.2-0.3,1.8-0.4C461.4,274.1,462.1,274,462.7,273.7
				z"/>
		</g>
	</g>
	<g>
		<g>
			<path class="st20" d="M463.5,275.7c-0.3-0.3-0.6,0-0.9,0c-0.9,0-2-0.3-3-0.1c-0.7-0.2-1.3-0.1-2.2-0.1c-0.4,0-0.7-0.2-1.1-0.2
				c-1.5-0.1-3-0.3-4.6-0.4c-0.2,0-0.3,0-0.5,0c-0.4,0-0.9-0.1-1.3-0.1c-0.4,0-0.8,0.4-0.9,1c0.2,0.6,1,0.6,1.7,0.7
				c1.2,0.2,2.8,0.3,3.9,0.3c0.9,0,1.8,0.1,2.6,0c0.9,0,1.7,0,2.5-0.2c0.6-0.1,1.2-0.3,1.8-0.4C462.3,276.1,462.9,275.9,463.5,275.7
				z"/>
		</g>
	</g>
	<g>
		<g>
			<path class="st20" d="M387.6,269.7c-0.1-0.3-0.4-0.2-0.6-0.3c-0.7-0.3-1.5-0.8-2.4-0.7c-0.6-0.2-1.1-0.1-1.8-0.1
				c-0.3,0-0.7-0.1-1,0c-1.4,0.2-2.6,0.6-3.8,1.4c-0.1,0.1-0.3,0.2-0.4,0.3c-0.2,0.2-0.4,0.4-0.5,0.6c-0.2,0.3-0.3,0.6-0.2,0.9
				c0,0.3,0.2,0.6,0.5,0.7c0.3,0.1,0.5,0,0.7-0.2c0.1-0.3,0.2-0.4,0.3-0.4c0.1-0.1,0.1-0.2,0.2-0.3c0.2-0.2,0.7-0.4,1.1-0.7
				c0.5-0.3,0.9-0.4,1.3-0.6c0.6-0.2,1.3-0.3,1.9-0.5c0.6-0.1,1.3-0.1,1.9-0.2c0.5,0,0.9-0.1,1.4-0.1
				C386.6,269.6,387.1,269.7,387.6,269.7z"/>
		</g>
	</g>
	<g>
		<g>
			<path class="st20" d="M407.5,273.6c0.2-0.2,0-0.2,0-0.3c-0.1-0.3,0.1-0.8-0.3-1c0-0.3-0.2-0.4-0.4-0.7c-0.1-0.1-0.1-0.3-0.2-0.4
				c-0.4-0.4-1-0.7-1.6-0.9c-0.1,0-0.1,0-0.2,0c-0.2,0-0.4-0.1-0.5,0c-0.2,0.1-0.2,0.5-0.2,1.1c0.2,0.6,0.3,0.5,0.5,0.5
				c0.3,0.1,0.7,0.2,0.9,0.3c0.2,0.1,0.4,0.2,0.5,0.3c0.2,0.1,0.3,0.3,0.5,0.4c0.1,0.1,0.4,0.1,0.5,0.2
				C407.2,273.3,407.3,273.5,407.5,273.6z"/>
		</g>
	</g>
	<g>
		<g>
			<path class="st20" d="M484.8,284.1c0.3-0.2,0.2-0.5,0.2-0.7c0.1-0.8,0.4-1.9-0.1-2.7c0-0.2-0.1-0.4-0.2-0.6
				c-0.1-0.2-0.3-0.4-0.5-0.6c-0.2-0.1-0.4-0.1-0.5-0.1c-0.1,0-0.3,0-0.5,0c-0.3,0-0.7-0.1-1-0.1c-1.4,0-2.7,0-4.1,0.1
				c-0.1,0-0.3,0-0.5,0c-0.4,0-0.8,0-1.2,0.1c-0.4,0.1-0.6,0.7-0.5,1.2c0.4,0.5,0.9,0.3,1.5,0.3c1,0,2.5-0.1,3.5-0.2
				c0.8-0.1,1.6-0.1,2.3-0.2c0.2,0,0.3,0,0.5-0.1c0.1,0,0,0,0.1,0c0,0,0,0,0.1,0.1c0.1,0.2,0.2,0.3,0.3,0.5c0.2,0.4,0.5,0.8,0.6,1.3
				C484.7,283,484.8,283.6,484.8,284.1z"/>
		</g>
	</g>
	<g>
		<g>
			<path class="st20" d="M482.7,282.4c-0.1-0.3-0.2-0.1-0.3-0.1c-0.4-0.1-0.8-0.5-1.2-0.4c-0.3-0.2-0.5-0.1-0.9-0.2
				c-0.2,0-0.3-0.2-0.4-0.2c-0.6-0.2-1.2-0.3-1.8-0.4c-0.1,0-0.1,0-0.2,0c-0.2,0-0.4-0.1-0.5,0c-0.2,0.1-0.3,0.5-0.4,1
				c0.1,0.6,0.4,0.5,0.7,0.6c0.5,0.1,1.1,0.2,1.6,0.2c0.3,0,0.7,0.1,1,0.1c0.3,0,0.7,0,1,0c0.2,0,0.5-0.2,0.7-0.3
				C482.2,282.6,482.4,282.5,482.7,282.4z"/>
		</g>
	</g>
	<g>
		<g>
			<path class="st20" d="M482.5,283.8c-0.1-0.3-0.2,0-0.4,0c-0.4,0-0.8-0.3-1.2-0.2c-0.3-0.2-0.5-0.1-0.8-0.1
				c-0.1,0-0.3-0.2-0.4-0.2c-0.7-0.1-1.2-0.2-1.7-0.4c-0.1,0-0.1,0-0.2,0c-0.2,0-0.3-0.1-0.5-0.1c-0.2,0-0.4,0.5-0.5,1
				c0,0.6,0.3,0.6,0.6,0.6c0.5,0.2,1.1,0.2,1.6,0.2c0.4,0,0.7,0.1,1.1,0c0.4,0,0.7,0,1-0.2c0.2-0.1,0.5-0.3,0.7-0.4
				C482.1,284.1,482.3,284,482.5,283.8z"/>
		</g>
	</g>
	<g>
		<g>
			<path class="st20" d="M490.8,292.7c-0.4-0.1-0.5,0.3-0.7,0.4c-0.7,0.5-1.8,0.6-2.5,1c-0.7,0-1.1,0.3-1.9,0.4c-0.3,0.1-0.7,0-1,0
				c-1.4,0.1-2.7-0.1-4-0.4c-0.1,0-0.3-0.1-0.4-0.1c-0.4-0.1-0.7-0.3-1.1-0.3c-0.4-0.1-0.8,0.2-1,0.7c0,0.6,0.7,0.8,1.4,1.1
				c0.5,0.2,1.2,0.4,1.9,0.5c0.7,0.1,1.4,0.1,1.9,0.1c0.9,0,1.7-0.1,2.5-0.3c0.8-0.2,1.6-0.5,2.3-0.8c0.5-0.3,1-0.7,1.4-1
				C490,293.5,490.5,293.1,490.8,292.7z"/>
		</g>
	</g>
	<g>
		<g>
			<path class="st20" d="M490.6,303.1c-0.4-0.1-0.4,0.3-0.7,0.4c-0.7,0.5-1.6,0.7-2.3,1.2c-0.6,0.1-1,0.5-1.7,0.7
				c-0.3,0.1-0.7,0.1-0.9,0.2c-1.3,0.4-2.5,0.7-3.8,0.9c-0.1,0-0.3,0-0.4,0.1c-0.3,0.1-0.8,0.1-1.1,0.2c-0.3,0.1-0.6,0.6-0.5,1.1
				c0.3,0.5,1,0.4,1.6,0.3c1.1-0.1,2.5-0.5,3.5-0.8c0.7-0.2,1.5-0.5,2.2-0.9c0.7-0.4,1.4-0.7,2-1.2c0.4-0.3,0.8-0.8,1.2-1.1
				C489.9,304,490.3,303.6,490.6,303.1z"/>
		</g>
	</g>
	<g>
		<g>
			<path class="st20" d="M481.4,296.2c-0.2-0.2-0.4,0-0.6,0.1c-0.6,0.2-1.4,0.1-2,0.5c-0.5,0.1-0.9,0.3-1.4,0.6
				c-0.2,0.1-0.5,0.2-0.8,0.3c-0.5,0.3-0.9,0.6-1.4,0.9c-0.4,0.4-0.8,0.7-1.3,1.1c-0.1,0.1-0.2,0.2-0.3,0.3
				c-0.2,0.3-0.5,0.7-0.5,1.1c0,0.5,0.5,0.8,1,0.7c0.5-0.3,0.5-0.4,0.7-0.7c0.3-0.5,1.2-1.2,1.7-1.7c0.4-0.4,0.9-0.7,1.3-1
				c0.4-0.3,0.9-0.6,1.4-0.9c0.3-0.2,0.6-0.5,0.9-0.7C480.6,296.7,481,296.5,481.4,296.2z"/>
		</g>
	</g>
	<g>
		<g>
			<path class="st20" d="M375.5,269c-0.1-0.3-0.2-0.1-0.3-0.1c-0.3-0.1-0.6-0.5-1-0.4c-0.2-0.2-0.4-0.1-0.7-0.2
				c-0.1,0-0.2-0.2-0.4-0.2c-0.5-0.1-1-0.2-1.6-0.3c-0.1,0-0.1,0-0.2,0c-0.1,0-0.3,0-0.4,0c-0.1,0.1-0.2,0.5-0.2,1
				c0.1,0.6,0.4,0.5,0.6,0.5c0.4,0.1,0.9,0.1,1.3,0.1c0.3,0,0.6,0.1,0.8,0c0.3,0,0.5,0,0.8-0.1c0.2,0,0.4-0.2,0.6-0.2
				C375,269.1,375.3,269.1,375.5,269z"/>
		</g>
	</g>
	<g>
		<g>
			<path class="st20" d="M355.1,275c0.3-0.1,0.1-0.3,0.1-0.4c0.1-0.4,0.5-0.8,0.5-1.2c0.3-0.2,0.3-0.5,0.5-0.8
				c0.1-0.1,0.3-0.2,0.4-0.3c0.5-0.4,0.9-0.8,1.5-1c0.1,0,0.1-0.1,0.2-0.1c0.1-0.1,0.3-0.1,0.4-0.2c0.1-0.1,0.1-0.6,0-1.1
				c-0.3-0.5-0.6-0.3-1-0.2c-0.3,0.1-0.6,0.3-0.9,0.5c-0.3,0.2-0.6,0.4-0.8,0.7c-0.3,0.3-0.6,0.7-0.8,1.1c-0.2,0.4-0.4,0.8-0.5,1.2
				c0,0.3,0.1,0.6,0.1,0.9C354.9,274.4,354.9,274.7,355.1,275z"/>
		</g>
	</g>
	<g>
		<g>
			<path class="st20" d="M357.8,278.9c0.3,0.1,0.3-0.2,0.4-0.3c0.4-0.3,1.1-0.6,1.2-1.2c0.4-0.3,0.5-0.7,0.6-1.2
				c0.1-0.2,0.2-0.5,0.2-0.7c0-0.5-0.1-1.1-0.4-1.6c-0.3-0.5-0.8-0.8-1.2-1.1c-0.1-0.1-0.2-0.1-0.3-0.1c-0.3-0.1-0.5-0.3-0.8-0.3
				c-0.3,0-0.6,0.4-0.7,0.9c0,0.6,0.4,0.6,0.7,0.8c0.3,0.1,0.5,0.3,0.8,0.5c0.2,0.2,0.4,0.4,0.4,0.5c0.1,0.3,0.1,0.6,0.1,0.9
				c0,0.4-0.2,0.7-0.3,1.1c-0.1,0.3-0.1,0.6-0.3,0.9C358.1,278.3,358,278.6,357.8,278.9z"/>
		</g>
	</g>
	<g>
		<g>
			<path class="st20" d="M345.4,275.8c0.2-0.1,0-0.1,0-0.2c0-0.2,0.2-0.6-0.1-0.7c0-0.3-0.2-0.3-0.3-0.5c-0.1-0.1-0.1-0.2-0.2-0.3
				c-0.3-0.3-0.8-0.5-1.3-0.6c-0.1,0-0.1,0-0.2,0c-0.1,0-0.3,0-0.4,0.1c-0.1,0.1-0.1,0.6,0.1,1c0.3,0.5,0.3,0.4,0.4,0.5
				c0.2,0.1,0.4,0.1,0.5,0.1c0.1,0,0.2,0.1,0.3,0.1c0.1,0,0.2,0.1,0.3,0.2c0.1,0,0.3,0,0.4,0.1C345.1,275.7,345.2,275.8,345.4,275.8
				z"/>
		</g>
	</g>
	<g>
		<g>
			<path class="st20" d="M347.7,271.5c-0.5-0.4-1.2-0.3-1.8-0.3c-1.9-0.2-4.3-0.3-6.2,0.5c-0.7,0.1-1.4,0.3-2,0.3
				c-0.7,0-1.5-0.1-2.5,0c-0.9,0.1-1.8,0.6-2.3,1.4c-0.4,0.7-0.6,1.4-0.7,2c0,0.3-0.1,0.7-0.1,1c0,0.1,0,0.1,0,0.1l0,0l0,0.1l-0.1,0
				c0,0-0.1,0-0.2,0l-0.4,0l-1.5,0c-1,0-2,0-3,0c-0.4,0-0.8,0-1.2,0.1c-0.5,0.1-1.1,0.2-1.6,0.5c-0.6,0.3-1.1,0.8-1.3,1.3
				c-0.3,0.6-0.2,1.2,0.1,1.6c0.3,0.4,0.6,0.4,0.8,0.3c0.1-0.4,0.1-0.7,0.4-1.1c0.2-0.4,0.6-0.7,1.2-0.9c0.9-0.2,2.3-0.1,3.7-0.1
				c1.7,0,3.4,0,4.8,0c0-0.3,0-0.6,0-0.8l0-0.7l0-0.4c0-0.2,0-0.4,0-0.6c0-0.4,0.1-0.8,0.2-1.2c0.2-0.7,0.7-1.1,1.2-1.3
				c0.6-0.2,1.5-0.1,2.5-0.1c1.1,0,2-0.4,2.8-0.7c1.1-0.4,2.3-0.8,3.5-0.9C345.1,271.4,346.4,271.4,347.7,271.5z"/>
		</g>
	</g>
	<g>
		<g>
			<path class="st20" d="M327.7,284c0.3-0.1,0-0.2,0-0.3c0-0.4,0.3-0.8,0.1-1.2c0.2-0.3,0-0.5,0.1-0.8c0-0.1,0.1-0.3,0.2-0.4
				c0.1-0.6,0.1-1.1,0.2-1.7c0-0.1,0-0.1,0-0.2c0-0.2,0.1-0.3,0-0.5c-0.1-0.2-0.5-0.3-1-0.3c-0.6,0.1-0.5,0.4-0.5,0.7
				c-0.1,0.5-0.1,1.1,0,1.5c0,0.3,0,0.7,0.1,1c0.1,0.3,0.1,0.7,0.2,1c0.1,0.2,0.3,0.4,0.4,0.6C327.4,283.6,327.5,283.8,327.7,284z"
				/>
		</g>
	</g>
	<g>
		<g>
			<path class="st20" d="M343.8,274.6c-0.2-0.3-0.4,0-0.5,0c-0.6,0-1.2-0.3-1.8-0.1c-0.4-0.2-0.8,0-1.3-0.1c-0.2,0-0.5-0.1-0.7-0.2
				c-1-0.1-1.9-0.2-2.8-0.2c-0.1,0-0.2,0-0.3,0c-0.2,0-0.5-0.1-0.8,0c-0.3,0.1-0.5,0.5-0.5,1c0.2,0.6,0.6,0.5,1,0.6
				c0.7,0.1,1.7,0.1,2.4,0.1c0.5,0,1.1,0,1.6-0.1c0.5-0.1,1-0.1,1.5-0.2c0.4-0.1,0.7-0.3,1.1-0.4
				C343.1,274.9,343.5,274.8,343.8,274.6z"/>
		</g>
	</g>
</g>
<g class="st105">
	<path class="st1" d="M1538.4,543c49.6-26.3,97.3-58,133.6-100.8c36.3-42.8,60.3-98.1,57-154.1c-3.2-56-37.2-111.5-89.4-131.9
		c-35.3-13.8-74.6-11.1-112.5-11.7c-51.3-0.8-102.3-8.1-153.1-15.7c-39.3-5.9-78.8-12-118.5-10.5c-37,1.4-73.5,9.4-109.6,17.7
		c-54,12.5-107.8,25.8-161.4,40c-5.7,1.5-11.6,3.1-15.9,7.2c-3.6,3.4-5.7,8.1-6.9,12.9c-4.5,17.9,1.8,37.2,12.8,51.9
		c11,14.8,26.3,25.7,41.8,35.7c109.7,71,237.9,106.3,360.2,152.1c17.2,6.4,34.6,13.2,49.3,24.3c32.4,24.3,51.2,68.5,90.5,78.6"/>
</g>
<g>
	<path class="st18" d="M1452.5,106c-5.4-0.5-11.3-0.8-15.9,2c-6,3.7-8,11.4-9.4,18.3c-0.3,1.6-0.6,3.2-0.3,4.7
		c0.5,2.2,2.2,3.8,4.1,5.1c5,3.5,11.3,4.9,17.4,5.1c5.5,0.1,11.3-0.9,15.4-4.5c4.1-3.6,5.6-10.5,2.1-14.7c-1.1-1.4-2.7-2.3-3.7-3.7
		C1456.5,111,1465.5,107.1,1452.5,106z"/>
	<g>
		<g>
			<g>
				<path class="st20" d="M1461.6,84.3c-0.1,0.8,0.4,1.6,0.6,2.4c0.6,2.5,0.8,5.5,1.3,8.1c0,1.9,0.3,3.6,0.3,6c0,1-0.2,2.1-0.2,3.1
					c-0.1,2.1-0.3,4.2-0.8,6.2c-0.5,2-1.2,3.9-2.5,5.4c-0.3,0.3-0.5,0.7-0.8,1c-0.7,0.8-1.8,1.5-2.6,1.9c-0.9,0.5-1.6,1.2-1.6,1.9
					c0.5,0.3,1.3,0.2,2.2-0.1c0.9-0.3,1.8-0.9,2.6-1.6c1.4-1.1,2.7-2.8,3.5-4.7c0.8-1.9,1.3-3.9,1.5-5.5c0.3-2.5,0.4-5,0.3-7.3
					c-0.1-2.4-0.3-4.8-0.7-7.1c-0.3-1.7-0.8-3.3-1.3-4.8C1462.9,87.5,1462.3,85.9,1461.6,84.3z"/>
			</g>
		</g>
		<g>
			<g>
				<path class="st20" d="M1492.8,104.4c-1,0.3-1.9,1.2-2.8,1.7c-3,1.8-7,3.2-10.6,2.9c-1.3-0.3-2.4-0.7-3.5-1.3
					c-1.1-0.6-2.3-1.3-3.5-2.5c-1-1-1.8-2.1-2.6-3.2c-1.6-2.4-2.8-5-3.8-7.7c-1-2.7-1.7-5.5-2.4-8.4c-0.2-0.6-0.3-1.2-0.5-1.9
					c-0.5-1.5-0.9-3.4-1.5-4.8c-0.6-1.5-1.7-2.5-2.3-2.3c-0.2,1.3,0.9,3.8,1.6,6.3c0.6,2.1,1.2,4.7,2,7.2c0.7,2.6,1.6,5.1,2.5,7.1
					c1.4,3.1,3.2,6.1,5.7,8.4c1.3,1.2,2.7,2.2,4.2,3c1.5,0.8,3.3,1.2,5,1.2c2.5,0,4.8-0.9,6.8-1.9
					C1489.1,107.2,1491,105.8,1492.8,104.4z"/>
			</g>
		</g>
		<g>
			<g>
				<path class="st20" d="M1483.3,151.8c0-1-0.6-2-0.9-3c-1-3.1-2-6.9-3.6-10.1c-0.8-2.4-1.8-4.4-3.1-7.3c-0.6-1.3-1.1-2.5-1.8-3.7
					c-0.8-1.3-1.6-2.4-2.7-3.5c-1.1-1-2.3-1.9-3.8-2.4c-2.8-1.1-5.8-1-8.7-0.7c-0.6,0.1-1.3,0.2-1.9,0.3c-1.5,0.3-3.4,0.7-4.7,1.3
					c-1.5,0.6-2.3,1.7-2.2,2.3c1.3,0.2,3.6-0.9,6-1.4c2-0.4,4.5-0.7,6.8-0.7c2.4,0,4.6,0.7,6.1,1.7c2.3,1.6,3.9,4.4,5.3,7
					c1.4,2.7,2.7,5.5,3.9,8.2c0.9,2,1.9,3.8,2.7,5.8C1481.5,147.7,1482.4,149.7,1483.3,151.8z"/>
			</g>
		</g>
		<g>
			<g>
				<path class="st20" d="M1494.5,104.9c-0.9,0-1.9,0.6-2.8,1c-2.9,1.2-6.4,2.6-9,5c-2,1.4-3.4,3.1-4.9,5.9
					c-0.6,1.2-1.2,2.4-1.5,3.7c-0.6,2.8-0.6,5.5-0.1,8.2c0.4,2.7,1.2,5.3,2.2,7.9c0.2,0.5,0.4,1.1,0.6,1.7c0.5,1.3,1.1,3,1.6,4.2
					c0.6,1.3,1.4,2.2,2.1,2.2c0.4-1.2-0.6-3.6-1.4-5.8c-0.7-1.9-1.5-4.1-2.2-6.4c-0.7-2.2-1.1-4.5-1.3-6.3c-0.2-2.9,0.2-5.7,1.2-8.2
					c1-2.6,2.9-4.7,5-6.5c1.5-1.3,3.1-2.5,4.8-3.5C1490.7,106.8,1492.6,105.9,1494.5,104.9z"/>
			</g>
		</g>
	</g>
	<g>
		<g>
			<path class="st20" d="M1418.4,94.2c-1.4-1.1-3-2.3-4.7-3.5c-1.8-1.1-3.6-2.2-5.3-3.3c-10.8-6.6-24.2-13.4-37.1-17.5
				c-9.1-3.4-17.2-5.5-29.1-8.1c-5.2-1.1-10.3-2.1-15.2-2.9c-10.8-1.5-21.3-2.4-32-2.7c-10.6-0.3-21.2-0.1-32.2,0.7
				c-2.2,0.2-4.7,0.3-7.2,0.6c-5.8,0.5-12.7,1.3-18,2.1c-5.9,0.9-10.2,2.3-10.6,3c4.2,0,14-1.7,23.6-2.6c8-0.8,17.6-1.6,27.2-1.8
				c9.6-0.3,19.1-0.1,26.9,0.4c11.9,0.7,24,2.2,35.4,4.4c5.8,1.1,11.6,2.5,17.2,4c5.6,1.6,11.1,3.2,16.5,5.1
				c7.9,2.8,15.4,5.7,22.6,9.3C1403.9,85.2,1411.3,89.4,1418.4,94.2z"/>
		</g>
	</g>
	<g>
		<g>
			<path class="st20" d="M1468.9,114.1c0,2,0.3,4.5-0.2,6.7c-0.7,3.5-2.6,7-5.3,9.7c-1.4,1.4-2.9,2.5-4.6,3.4
				c-1.7,0.9-3.5,1.6-5.3,2.1c-2.6,0.5-5.1,0.7-7.7,0.6c-2.6-0.1-5.4-0.5-8.5-1.7c-2.7-1-5-2.7-6.6-4.8c-1.7-2.2-2.4-5.1-1.9-7.8
				c0.2-1.4,0.6-2.7,1.2-4c0.6-1.3,1.3-2.5,2.1-3.5c1.8-2.1,4.1-3.8,6.8-4.7c2.6-1,5.5-1.4,8.5-1.5c1.2,0,2.5,0,3.9,0.1
				c3.1,0.3,6.8,1.2,9.5,2.1c3.1,1,5.4,1.7,6,1.3c-0.9-0.9-2.6-1.9-4.8-2.8c-2.2-0.9-4.9-1.6-7.6-2.1c-4.5-0.8-10.2-1.1-15.5,0.8
				c-1.3,0.5-2.6,1-3.8,1.8c-1.2,0.7-2.3,1.6-3.2,2.5c-1.9,1.9-3.2,4.2-4,6.4c-0.6,1.6-1,3.4-1,5.2c0,1.8,0.3,3.7,1.1,5.3
				c0.8,1.7,2,3.1,3.4,4.2c1.4,1.1,2.9,2,4.4,2.7c3.2,1.3,6.6,2,9.9,2.1c3.3,0.1,6.7-0.3,9.8-1.4c2.3-0.7,4.4-2,6.2-3.4
				c1.8-1.5,3.4-3.3,4.6-5.2c1.3-2.1,2.2-4.4,2.6-6.8C1469.4,118.9,1469.3,116.4,1468.9,114.1z"/>
		</g>
	</g>
	<g>
		<g>
			<path class="st20" d="M1439.8,131.6c-0.3-0.4-0.8-0.3-1.2-0.5c-1.3-0.6-2.3-1.9-3.3-2.9c-0.5-0.9-1-1.6-1.4-2.8
				c-0.2-0.5-0.1-1.1-0.2-1.6c-0.2-2.2,0.4-4.3,1.6-6c0.1-0.2,0.3-0.3,0.4-0.5c0.3-0.4,0.9-0.7,1.2-0.9c0.3-0.3,0.6-0.8,0.7-1.4
				c-0.2-0.3-0.8-0.5-1.3-0.3c-0.6,0.1-1.1,0.5-1.6,0.9c-0.8,0.7-1.5,1.7-2,2.7c-0.5,1.1-0.7,2.2-0.9,3.1c-0.2,1.4,0,2.9,0.4,4.3
				c0.5,1.4,1.2,2.6,2.2,3.6c0.7,0.7,1.6,1.1,2.4,1.5C1437.9,131.3,1438.8,131.6,1439.8,131.6z"/>
		</g>
	</g>
	<g>
		<g>
			<path class="st20" d="M1458.3,128.6c0.4,0,0.5-0.4,0.7-0.6c0.7-0.7,1.9-1.1,2.6-2c0.7-0.4,1.1-0.9,1.8-1.7c0.3-0.3,0.7-0.6,0.9-1
				c0.5-0.8,0.9-1.7,1-2.6c0.1-1,0-2-0.5-3c-0.1-0.2-0.2-0.4-0.4-0.6c-0.3-0.5-0.8-1-1.3-1.3c-0.6-0.3-1.2,0.2-1.4,0.8
				c0.1,0.7,0.6,0.9,0.9,1.4c0.3,0.4,0.5,0.9,0.6,1.5c0.1,0.6,0.1,1.1-0.1,1.6c-0.2,0.8-0.6,1.5-1.1,2.2c-0.4,0.7-1.1,1.3-1.6,2
				c-0.4,0.5-0.7,1.1-1.1,1.6C1459,127.4,1458.6,128,1458.3,128.6z"/>
		</g>
	</g>
	<g>
		<g>
			<path class="st20" d="M1471.9,123.9c-0.3,1.1-0.3,2.4-0.8,3.6c-0.7,1.8-2,3.5-3.4,5c-1.4,1.5-3,2.9-4.5,4.2
				c-2.4,1.5-4.5,2.9-7.9,4.1c-1.5,0.5-3,0.7-4.4,0.9c-3.1,0.5-6.2,0.4-9.2-0.2c-2.9-0.7-5.8-2-7.9-4.1c-0.5-0.4-0.9-0.9-1.4-1.5
				c-1-1.2-1.9-3-2.3-4.4c-0.5-1.5-1.1-2.8-1.7-2.9c-0.3,0.6-0.4,1.8-0.1,3.1c0.3,1.3,0.9,2.8,1.7,4.1c1.3,2.2,3.6,4.5,6.3,5.8
				c2.7,1.4,5.7,2.1,8.1,2.2c3.7,0.3,7.6-0.2,11-1.4c3.5-1.2,6.7-3,9.4-5.3c2-1.7,3.5-3.7,4.9-5.7
				C1471,129.1,1472.1,126.6,1471.9,123.9z"/>
		</g>
	</g>
	<g>
		<g>
			<path class="st20" d="M1443.5,129.5c0.2,0.4,0.6,0.7,1.1,0.9c0.5,0.2,1,0.3,1.4,0.4c1.5,0.3,3.2,0.2,4.9,0
				c1.7-0.2,3.5-0.8,4.6-2.3c0.8-0.9,1.3-2.2,1-3.5c-0.3-1.3-1.6-2.3-3.2-2.6c-1.4-0.3-2.7-0.1-3.9,0.1c-2.5,0.5-5,0.6-7.4,0.3
				c-0.6-0.1-1.1-0.2-1.4-0.4c-0.3-0.2-0.4-0.4-0.4-0.9c0-0.4,0.2-1,0.4-1.6c0.2-0.6,0.4-1.1,0.7-1.7c0.2-0.4,0.5-0.9,0.8-1.3
				c0.7-1,1.9-1.8,2.9-2.2c1.1-0.4,2-0.8,2.3-1.4c-0.4-0.4-1.5-0.7-2.6-0.4c-1.1,0.2-2.3,0.9-3.3,1.8c-0.8,0.7-1.5,1.7-2.1,2.8
				c-0.3,0.5-0.5,1.1-0.7,1.7c-0.2,0.6-0.4,1.2-0.4,1.9c-0.1,0.7,0.1,1.7,0.7,2.4c0.6,0.7,1.4,0.9,2,1.1c0.7,0.1,1.2,0.2,1.8,0.2
				c0.5,0,1.1,0,1.5,0c1.5,0,3-0.2,4.5-0.4c1.5-0.3,2.8-0.6,4-0.6c1.2,0.1,2.2,0.7,2.4,1.5c0.3,0.9-0.1,2.1-0.9,2.8
				c-1.2,1.2-3,1.8-4.9,2.1C1447.2,130.6,1445.1,130.7,1443.5,129.5z"/>
		</g>
	</g>
	<g>
		<g>
			<path class="st20" d="M1454.3,132.8c0.1-0.5-0.3-0.8-0.5-1.2c-0.6-1.3-1-2.9-2-4.1c-0.4-1-1-1.7-1.7-2.9
				c-0.3-0.5-0.5-1.1-0.8-1.5c-1.3-2-2.7-3.9-4.3-5.7c-0.2-0.2-0.3-0.4-0.5-0.6c-0.4-0.5-0.9-1.1-1.4-1.5c-0.5-0.4-1.3-0.4-1.8,0.1
				c-0.2,0.8,0.7,1.5,1.3,2.3c1.1,1.3,2.7,3.2,3.8,4.5c0.8,1,1.6,2.1,2.3,3.1c0.8,1,1.5,2.1,2.2,3.1c0.5,0.7,1.2,1.4,1.7,2.1
				C1453.2,131.2,1453.7,132,1454.3,132.8z"/>
		</g>
	</g>
	<g>
		<g>
			<path class="st20" d="M1452.5,124.6c0.2-0.4-0.2-0.6-0.3-0.8c-0.4-0.8-0.6-2-1.3-2.8c-0.2-0.7-0.6-1.2-1.1-1.9
				c-0.2-0.3-0.3-0.7-0.5-1.1c-0.9-1.4-1.8-2.6-2.8-3.9c-0.1-0.1-0.2-0.3-0.4-0.4c-0.3-0.3-0.6-0.7-0.9-1c-0.4-0.3-1-0.1-1.5,0.3
				c-0.3,0.7,0.3,1.2,0.7,1.7c0.7,0.9,1.8,2.1,2.5,3c0.5,0.7,1,1.4,1.6,2c0.6,0.7,1,1.4,1.5,2c0.4,0.5,0.9,0.8,1.3,1.3
				C1451.6,123.6,1452,124.1,1452.5,124.6z"/>
		</g>
	</g>
	<g>
		<g>
			<path class="st20" d="M1418.7,133.5c0.2-0.5-0.2-1-0.4-1.5c-0.4-1.5-0.4-3.4-0.9-5.1c0-1.2-0.2-2.2-0.3-3.7
				c0-0.7,0.1-1.3,0.1-1.9c0.1-2.7,0.4-5.2,1-7.8c0.1-0.3,0.1-0.6,0.2-0.9c0.1-0.7,0.4-1.5,0.5-2.1c0.1-0.7-0.2-1.4-0.8-1.7
				c-0.8,0.3-1.1,1.5-1.5,2.7c-0.3,1-0.6,2.2-0.8,3.4c-0.2,1.2-0.3,2.4-0.4,3.5c-0.1,1.5-0.1,3.1,0,4.6c0.2,1.5,0.3,3,0.7,4.5
				c0.3,1,0.7,2,1.1,3C1417.8,131.6,1418.2,132.6,1418.7,133.5z"/>
		</g>
	</g>
	<g>
		<g>
			<path class="st20" d="M1411.5,129.4c0.3-0.3-0.1-0.6-0.1-0.9c-0.2-0.9,0-2-0.3-2.9c0.1-0.7-0.1-1.3-0.1-2.1
				c0-0.4,0.2-0.7,0.2-1.1c0.1-1.5,0.3-2.9,0.5-4.4c0-0.2,0.1-0.3,0.1-0.5c0-0.4,0.2-0.8,0.2-1.2c0-0.4-0.5-0.8-1.1-1
				c-0.8,0.1-0.8,0.9-1,1.6c-0.3,1.2-0.5,2.8-0.5,4c0,0.9,0,1.8,0.1,2.7c0.1,0.9,0.2,1.7,0.4,2.6c0.2,0.6,0.5,1.1,0.7,1.7
				C1410.9,128.3,1411.2,128.8,1411.5,129.4z"/>
		</g>
	</g>
</g>
</svg>
