<?xml version="1.0" encoding="utf-8"?>
<!-- Generator: Adobe Illustrator 21.1.0, SVG Export Plug-In . SVG Version: 6.00 Build 0)  -->
<svg version="1.1" id="Layer_1" xmlns="http://www.w3.org/2000/svg" xmlns:xlink="http://www.w3.org/1999/xlink" x="0px" y="0px"
	 width="1980px" height="1679.2px" viewBox="0 0 1980 1679.2" style="enable-background:new 0 0 1980 1679.2;" xml:space="preserve"
	>
<style type="text/css">
	.st0{fill:url(#SVGID_1_);}
	.st1{fill:#FFFFFF;}
	.st2{fill:url(#SVGID_2_);}
	.st3{clip-path:url(#SVGID_4_);}
	.st4{fill:url(#SVGID_5_);}
	.st5{fill:none;}
	.st6{fill:url(#SVGID_6_);}
	.st7{fill:url(#SVGID_7_);}
	.st8{clip-path:url(#SVGID_9_);}
	.st9{fill:url(#SVGID_10_);}
	.st10{opacity:0.4;fill:url(#SVGID_11_);}
	.st11{fill:url(#SVGID_12_);}
	.st12{opacity:0.4;fill:url(#SVGID_13_);}
	.st13{clip-path:url(#SVGID_15_);}
	.st14{fill:url(#SVGID_16_);}
	.st15{opacity:0.4;fill:url(#SVGID_17_);}
	.st16{fill:url(#SVGID_18_);}
	.st17{opacity:0.4;fill:url(#SVGID_19_);}
	.st18{clip-path:url(#SVGID_23_);}
	.st19{clip-path:url(#SVGID_25_);fill:url(#SVGID_26_);}
	.st20{clip-path:url(#SVGID_28_);fill:url(#SVGID_29_);}
	.st21{clip-path:url(#SVGID_31_);}
	.st22{fill:url(#SVGID_32_);}
	.st23{fill:url(#SVGID_33_);}
	.st24{fill:#404852;}
	.st25{clip-path:url(#SVGID_35_);}
	.st26{fill:url(#SVGID_36_);}
	.st27{fill:url(#SVGID_37_);}
	.st28{fill:url(#SVGID_38_);}
	.st29{clip-path:url(#SVGID_40_);}
	.st30{fill:url(#SVGID_41_);}
	.st31{opacity:0.4;fill:url(#SVGID_42_);}
	.st32{fill:url(#SVGID_43_);}
	.st33{opacity:0.4;fill:url(#SVGID_44_);}
	.st34{clip-path:url(#SVGID_46_);}
	.st35{fill:url(#SVGID_47_);}
	.st36{opacity:0.4;fill:url(#SVGID_48_);}
	.st37{fill:url(#SVGID_49_);}
	.st38{opacity:0.4;fill:url(#SVGID_50_);}
	.st39{clip-path:url(#SVGID_56_);fill:url(#SVGID_57_);}
	.st40{clip-path:url(#SVGID_61_);fill:url(#SVGID_62_);}
	.st41{fill:url(#SVGID_63_);}
	.st42{clip-path:url(#SVGID_65_);}
	.st43{fill:url(#SVGID_66_);}
	.st44{fill:url(#SVGID_67_);}
	.st45{fill:url(#SVGID_68_);}
	.st46{clip-path:url(#SVGID_70_);}
	.st47{fill:url(#SVGID_71_);}
	.st48{opacity:0.4;fill:url(#SVGID_72_);}
	.st49{fill:url(#SVGID_73_);}
	.st50{opacity:0.4;fill:url(#SVGID_74_);}
	.st51{clip-path:url(#SVGID_76_);}
	.st52{fill:url(#SVGID_77_);}
	.st53{opacity:0.4;fill:url(#SVGID_78_);}
	.st54{fill:url(#SVGID_79_);}
	.st55{opacity:0.4;fill:url(#SVGID_80_);}
	.st56{clip-path:url(#SVGID_86_);fill:url(#SVGID_87_);}
	.st57{clip-path:url(#SVGID_91_);fill:url(#SVGID_92_);}
	.st58{fill:url(#SVGID_93_);}
	.st59{clip-path:url(#SVGID_95_);}
	.st60{fill:url(#SVGID_96_);}
	.st61{fill:url(#SVGID_97_);}
	.st62{fill:url(#SVGID_98_);}
	.st63{clip-path:url(#SVGID_100_);}
	.st64{fill:url(#SVGID_101_);}
	.st65{opacity:0.4;fill:url(#SVGID_102_);}
	.st66{fill:url(#SVGID_103_);}
	.st67{opacity:0.4;fill:url(#SVGID_104_);}
	.st68{clip-path:url(#SVGID_106_);}
	.st69{fill:url(#SVGID_107_);}
	.st70{opacity:0.4;fill:url(#SVGID_108_);}
	.st71{fill:url(#SVGID_109_);}
	.st72{opacity:0.4;fill:url(#SVGID_110_);}
	.st73{clip-path:url(#SVGID_116_);fill:url(#SVGID_117_);}
	.st74{clip-path:url(#SVGID_121_);fill:url(#SVGID_122_);}
	.st75{fill:#E5E5E5;}
	.st76{fill:#FDFDFD;}
	.st77{fill:#F5F5F5;}
	.st78{fill:#5C6AC4;}
	.st79{fill:#D7D7D7;}
	.st80{fill:#E6E6E6;}
	.st81{fill:#DADADA;}
	.st82{fill:#4B4B4B;}
	.st83{fill:#ABABAB;}
	.st84{fill:#3B3B3B;}
	.st85{fill:#757575;}
	.st86{fill:#A9A9A9;}
	.st87{fill:#A8A8A8;}
	.st88{fill:#9E9E9E;}
	.st89{fill:#AAAAAA;}
	.st90{fill:#A7A7A7;}
	.st91{fill:#858585;}
	.st92{fill:#C3C3C3;}
	.st93{fill:#F0F0F0;}
	.st94{fill:#FEFEFE;}
	.st95{fill:#1D1D1D;}
	.st96{fill:#FBFBFB;}
	.st97{fill:#4B5AA0;}
	.st98{fill:#929FDD;}
	.st99{fill:#3B4B9B;}
	.st100{fill:#F8F8F8;}
	.st101{fill:#D0D0D0;}
	.st102{fill:#D9D9D9;}
	.st103{fill:#838383;}
	.st104{fill:#8E8E8E;}
	.st105{fill:#A6A6A6;}
	.st106{fill:#BBBBBB;}
	.st107{fill:#7C7C7C;}
	.st108{fill:#B9B9B9;}
	.st109{fill:#666666;}
	.st110{fill:#BDBDBD;}
	.st111{fill:#696969;}
	.st112{fill:#B5B5B5;}
	.st113{fill:#777777;}
	.st114{fill:#C0C0C0;}
	.st115{fill:#6C6C6C;}
	.st116{fill:#B7B7B7;}
	.st117{fill:#F6F6F6;}
	.st118{fill:#F4F4F4;}
	.st119{fill:#D8D8D8;}
	.st120{fill:#F2F2F2;}
	.st121{fill:#F1F1F1;}
	.st122{fill:#EEEEEE;}
	.st123{fill:#969696;}
	.st124{fill:#EBEBEB;}
	.st125{fill:#303654;}
	.st126{fill:#1F1F1F;}
	.st127{fill:#EFEFEF;}
	.st128{fill:#E2E2E2;}
	.st129{fill:#E3E3E3;}
	.st130{fill:#CECECE;}
	.st131{fill:#959595;}
	.st132{fill:#A1A1A1;}
	.st133{fill:#929292;}
	.st134{fill:#D4D4D4;}
	.st135{fill:#C8C8C8;}
	.st136{fill:#6D6D6D;}
	.st137{fill:#D6D6D6;}
	.st138{fill:#C1C1C1;}
	.st139{fill:#ADADAD;}
	.st140{fill:#9C9C9C;}
	.st141{fill:#E9E9E9;}
	.st142{fill:#FCFCFC;}
	.st143{fill:#F9F9F9;}
	.st144{fill:url(#SVGID_123_);}
	.st145{clip-path:url(#SVGID_125_);}
	.st146{fill:url(#SVGID_126_);}
	.st147{fill:url(#SVGID_127_);}
	.st148{fill:url(#SVGID_128_);}
	.st149{clip-path:url(#SVGID_130_);}
	.st150{fill:url(#SVGID_131_);}
	.st151{opacity:0.4;fill:url(#SVGID_132_);}
	.st152{fill:url(#SVGID_133_);}
	.st153{opacity:0.4;fill:url(#SVGID_134_);}
	.st154{clip-path:url(#SVGID_136_);}
	.st155{fill:url(#SVGID_137_);}
	.st156{opacity:0.4;fill:url(#SVGID_138_);}
	.st157{fill:url(#SVGID_139_);}
	.st158{opacity:0.4;fill:url(#SVGID_140_);}
	.st159{clip-path:url(#SVGID_146_);fill:url(#SVGID_147_);}
	.st160{clip-path:url(#SVGID_151_);fill:url(#SVGID_152_);}
	.st161{fill:url(#SVGID_153_);}
	.st162{clip-path:url(#SVGID_155_);}
	.st163{fill:url(#SVGID_156_);}
	.st164{fill:url(#SVGID_157_);}
	.st165{fill:url(#SVGID_158_);}
	.st166{clip-path:url(#SVGID_160_);}
	.st167{fill:url(#SVGID_161_);}
	.st168{opacity:0.4;fill:url(#SVGID_162_);}
	.st169{fill:url(#SVGID_163_);}
	.st170{opacity:0.4;fill:url(#SVGID_164_);}
	.st171{clip-path:url(#SVGID_166_);}
	.st172{fill:url(#SVGID_167_);}
	.st173{opacity:0.4;fill:url(#SVGID_168_);}
	.st174{fill:url(#SVGID_169_);}
	.st175{opacity:0.4;fill:url(#SVGID_170_);}
	.st176{clip-path:url(#SVGID_176_);fill:url(#SVGID_177_);}
	.st177{clip-path:url(#SVGID_181_);fill:url(#SVGID_182_);}
	.st178{fill:url(#SVGID_183_);}
	.st179{clip-path:url(#SVGID_185_);}
	.st180{fill:url(#SVGID_186_);}
	.st181{fill:url(#SVGID_187_);}
	.st182{fill:url(#SVGID_188_);}
	.st183{clip-path:url(#SVGID_190_);}
	.st184{fill:url(#SVGID_191_);}
	.st185{opacity:0.4;fill:url(#SVGID_192_);}
	.st186{fill:url(#SVGID_193_);}
	.st187{opacity:0.4;fill:url(#SVGID_194_);}
	.st188{clip-path:url(#SVGID_196_);}
	.st189{fill:url(#SVGID_197_);}
	.st190{opacity:0.4;fill:url(#SVGID_198_);}
	.st191{fill:url(#SVGID_199_);}
	.st192{opacity:0.4;fill:url(#SVGID_200_);}
	.st193{clip-path:url(#SVGID_206_);fill:url(#SVGID_207_);}
	.st194{clip-path:url(#SVGID_211_);fill:url(#SVGID_212_);}
	.st195{fill:url(#SVGID_213_);}
	.st196{fill:url(#SVGID_214_);}
	.st197{fill:url(#SVGID_215_);}
	.st198{clip-path:url(#SVGID_217_);}
	.st199{fill:url(#SVGID_218_);}
	.st200{fill:url(#SVGID_219_);}
	.st201{fill:url(#SVGID_220_);}
	.st202{clip-path:url(#SVGID_222_);}
	.st203{fill:url(#SVGID_223_);}
	.st204{opacity:0.4;fill:url(#SVGID_224_);}
	.st205{fill:url(#SVGID_225_);}
	.st206{opacity:0.4;fill:url(#SVGID_226_);}
	.st207{clip-path:url(#SVGID_228_);}
	.st208{fill:url(#SVGID_229_);}
	.st209{opacity:0.4;fill:url(#SVGID_230_);}
	.st210{fill:url(#SVGID_231_);}
	.st211{opacity:0.4;fill:url(#SVGID_232_);}
	.st212{clip-path:url(#SVGID_238_);fill:url(#SVGID_239_);}
	.st213{clip-path:url(#SVGID_243_);fill:url(#SVGID_244_);}
	.st214{fill:url(#SVGID_245_);}
	.st215{fill:url(#SVGID_246_);}
</style>
<linearGradient id="SVGID_1_" gradientUnits="userSpaceOnUse" x1="270.2608" y1="971.8509" x2="2270.2563" y2="971.8509" gradientTransform="matrix(-1 0 0 1 2266.4817 0)">
	<stop  offset="0" style="stop-color:#4275F4"/>
	<stop  offset="0.829" style="stop-color:#25B0E5"/>
</linearGradient>
<polygon class="st0" points="-3.8,1943.7 1996.2,1943.7 1996.2,0 -3.8,0 "/>
<g>
	<defs>
		
			<rect id="SVGID_216_" x="8.3" y="2.1" transform="matrix(-1 -1.224647e-16 1.224647e-16 -1 1992.4464 756.4008)" width="1975.8" height="752.2"/>
	</defs>
	<clipPath id="SVGID_2_">
		<use xlink:href="#SVGID_216_"  style="overflow:visible;"/>
	</clipPath>
	<g style="clip-path:url(#SVGID_2_);">
		
			<linearGradient id="SVGID_4_" gradientUnits="userSpaceOnUse" x1="657.35" y1="476.4231" x2="2077.554" y2="476.4231" gradientTransform="matrix(-1 0 0 1 2266.4817 0)">
			<stop  offset="0" style="stop-color:#5C6AC4"/>
			<stop  offset="0.2641" style="stop-color:#4275F4"/>
			<stop  offset="1" style="stop-color:#2CE5B5"/>
		</linearGradient>
		<path style="fill:url(#SVGID_4_);" d="M236.5,213.7l1245.2,700l2.8,1.6c27.2,15.3,61.7,5.6,77-21.6c5.2-9.2,7.5-19.5,7.2-29.3
			l-19-671.8l-0.1-2.2c-0.6-20.9-18-37.3-38.9-36.8c-6.9,0.2-13.4,2.3-18.8,5.7L926.5,509.3l29.5,17l-10.9-384.2l-13.3,7.6
			l271.8,151.1L940.8,134.6c-4-2.6-9.4-1.4-11.9,2.7c-0.9,1.4-1.3,2.9-1.3,4.3l0,0.5l-10.9,384.2c-0.3,10.7,8.1,19.6,18.8,19.9
			c3.5,0.1,6.8-0.7,9.7-2.3l1-0.6l584.3-317.5l-57.8-33.3l-19,671.8l87.1-49.3L337.2,45.8C291.6,16.6,231.1,30,201.9,75.6
			s-15.8,106.1,29.8,135.3C233.2,211.8,235,212.8,236.5,213.7z"/>
		
			<rect x="8.3" y="157.2" transform="matrix(-1 -1.224647e-16 1.224647e-16 -1 1800.7771 993.1383)" class="st5" width="1784.1" height="678.8"/>
		
			<linearGradient id="SVGID_5_" gradientUnits="userSpaceOnUse" x1="1335.1246" y1="431.6481" x2="1316.7599" y2="381.1913" gradientTransform="matrix(-1 0 0 1 2266.4817 0)">
			<stop  offset="0.1538" style="stop-color:#00FFFF;stop-opacity:0.3"/>
			<stop  offset="0.2678" style="stop-color:#0BF5FF;stop-opacity:0.2564"/>
			<stop  offset="0.4661" style="stop-color:#27D9FE;stop-opacity:0.1806"/>
			<stop  offset="0.7234" style="stop-color:#55ACFD;stop-opacity:8.223805e-02"/>
			<stop  offset="0.9385" style="stop-color:#8181FC;stop-opacity:0"/>
		</linearGradient>
		<polygon class="st4" points="952,382 920.5,392.5 919.7,418.1 953.6,439.7 		"/>
		
			<linearGradient id="SVGID_6_" gradientUnits="userSpaceOnUse" x1="773.2382" y1="290.713" x2="1285.9841" y2="381.124" gradientTransform="matrix(-1 0 0 1 2266.4817 0)">
			<stop  offset="0" style="stop-color:#00FFFF"/>
			<stop  offset="0.1042" style="stop-color:#14EBFF"/>
			<stop  offset="0.3732" style="stop-color:#43BEFD"/>
			<stop  offset="0.6116" style="stop-color:#659DFD"/>
			<stop  offset="0.8082" style="stop-color:#7988FC"/>
			<stop  offset="0.9385" style="stop-color:#8181FC"/>
		</linearGradient>
		<polygon class="st6" points="995.6,466.5 1037.9,493.6 1470.9,258.2 1472.3,171.9 		"/>
	</g>
</g>
<g>
	<defs>
		
			<rect id="SVGID_221_" x="8.3" y="2.1" transform="matrix(-1 -1.224647e-16 1.224647e-16 -1 1992.4464 756.4008)" width="1975.8" height="752.2"/>
	</defs>
	<clipPath id="SVGID_7_">
		<use xlink:href="#SVGID_221_"  style="overflow:visible;"/>
	</clipPath>
	<g style="clip-path:url(#SVGID_7_);">
		
			<linearGradient id="SVGID_9_" gradientUnits="userSpaceOnUse" x1="691.061" y1="874.2652" x2="353.4377" y2="-53.3471" gradientTransform="matrix(-1 0 0 1 2266.4817 0)">
			<stop  offset="0" style="stop-color:#5C6AC4"/>
			<stop  offset="0.2641" style="stop-color:#4275F4"/>
			<stop  offset="1" style="stop-color:#2CE5B5"/>
		</linearGradient>
		<circle style="fill:url(#SVGID_9_);" cx="1744.2" cy="410.5" r="493.4"/>
		
			<radialGradient id="SVGID_10_" cx="522.2493" cy="410.4591" r="493.4379" gradientTransform="matrix(-1 0 0 1 2266.4817 0)" gradientUnits="userSpaceOnUse">
			<stop  offset="0" style="stop-color:#5C6AC4"/>
			<stop  offset="0.4487" style="stop-color:#4275F4;stop-opacity:0.2"/>
		</radialGradient>
		<circle style="opacity:0.4;fill:url(#SVGID_10_);" cx="1744.2" cy="410.5" r="493.4"/>
	</g>
	<g style="clip-path:url(#SVGID_7_);">
		
			<linearGradient id="SVGID_11_" gradientUnits="userSpaceOnUse" x1="1567.1417" y1="981.2673" x2="1010.6346" y2="-547.7236" gradientTransform="matrix(-1 0 0 1 2266.4817 0)">
			<stop  offset="0" style="stop-color:#5C6AC4"/>
			<stop  offset="0.2641" style="stop-color:#4275F4"/>
			<stop  offset="1" style="stop-color:#2CE5B5"/>
		</linearGradient>
		<circle style="fill:url(#SVGID_11_);" cx="977.6" cy="216.8" r="813.3"/>
		
			<radialGradient id="SVGID_12_" cx="1288.8882" cy="216.7718" r="813.3377" gradientTransform="matrix(-1 0 0 1 2266.4817 0)" gradientUnits="userSpaceOnUse">
			<stop  offset="0" style="stop-color:#5C6AC4"/>
			<stop  offset="0.4487" style="stop-color:#4275F4;stop-opacity:0.2"/>
		</radialGradient>
		<circle style="opacity:0.4;fill:url(#SVGID_12_);" cx="977.6" cy="216.8" r="813.3"/>
	</g>
</g>
<g>
	<defs>
		
			<rect id="SVGID_227_" x="7.7" y="0" transform="matrix(-1 -1.224647e-16 1.224647e-16 -1 1991.8436 1380.4641)" width="1976.4" height="1380.5"/>
	</defs>
	<clipPath id="SVGID_13_">
		<use xlink:href="#SVGID_227_"  style="overflow:visible;"/>
	</clipPath>
	<g style="clip-path:url(#SVGID_13_);">
		
			<linearGradient id="SVGID_15_" gradientUnits="userSpaceOnUse" x1="691.3667" y1="873.4301" x2="353.2783" y2="-55.4601" gradientTransform="matrix(-1 0 0 1 2266.4817 0)">
			<stop  offset="0" style="stop-color:#5C6AC4"/>
			<stop  offset="0.2641" style="stop-color:#4275F4"/>
			<stop  offset="1" style="stop-color:#2CE5B5"/>
		</linearGradient>
		<ellipse style="fill:url(#SVGID_15_);" cx="1744.2" cy="409" rx="493.6" ry="494.2"/>
		
			<radialGradient id="SVGID_16_" cx="523.129" cy="405.5956" r="493.4379" gradientTransform="matrix(-1.0003 0 0 1.0015 2267.4478 2.7731)" gradientUnits="userSpaceOnUse">
			<stop  offset="0" style="stop-color:#5C6AC4"/>
			<stop  offset="0.4487" style="stop-color:#4275F4;stop-opacity:0.2"/>
		</radialGradient>
		<ellipse style="opacity:0.4;fill:url(#SVGID_16_);" cx="1744.2" cy="409" rx="493.6" ry="494.2"/>
	</g>
	<g style="clip-path:url(#SVGID_13_);">
		
			<linearGradient id="SVGID_17_" gradientUnits="userSpaceOnUse" x1="1606.6493" y1="1233.0089" x2="1036.3566" y2="-333.8573" gradientTransform="matrix(-1 0 0 1 2266.4817 0)">
			<stop  offset="0" style="stop-color:#5C6AC4"/>
			<stop  offset="0.2641" style="stop-color:#4275F4"/>
			<stop  offset="1" style="stop-color:#2CE5B5"/>
		</linearGradient>
		<ellipse style="fill:url(#SVGID_17_);" cx="945" cy="449.6" rx="832.6" ry="833.6"/>
		
			<radialGradient id="SVGID_18_" cx="1322.0657" cy="446.1248" r="832.3386" gradientTransform="matrix(-1.0003 0 0 1.0015 2267.4478 2.7731)" gradientUnits="userSpaceOnUse">
			<stop  offset="0" style="stop-color:#5C6AC4"/>
			<stop  offset="0.4487" style="stop-color:#4275F4;stop-opacity:0.2"/>
		</radialGradient>
		<ellipse style="opacity:0.4;fill:url(#SVGID_18_);" cx="945" cy="449.6" rx="832.6" ry="833.6"/>
	</g>
</g>
<g>
	<defs>
		
			<rect id="SVGID_233_" x="7.1" y="2.1" transform="matrix(-1 -1.224647e-16 1.224647e-16 -1 1990.6382 1082.0946)" width="1976.4" height="1077.9"/>
	</defs>
	<clipPath id="SVGID_19_">
		<use xlink:href="#SVGID_233_"  style="overflow:visible;"/>
	</clipPath>
</g>
<rect x="7.7" y="2.1" transform="matrix(-1 -1.224647e-16 1.224647e-16 -1 1990.6382 1082.0946)" class="st5" width="1975.2" height="1077.9"/>
<rect x="7.1" y="2.1" transform="matrix(-1 -1.224647e-16 1.224647e-16 -1 1990.0355 1082.0946)" class="st5" width="1975.8" height="1077.9"/>
<g>
	<defs>
		
			<rect id="SVGID_235_" x="200" y="1" transform="matrix(-1 -1.224647e-16 1.224647e-16 -1 2144.136 674.5508)" width="1744.1" height="672.6"/>
	</defs>
	<clipPath id="SVGID_21_">
		<use xlink:href="#SVGID_235_"  style="overflow:visible;"/>
	</clipPath>
</g>
<g>
	<defs>
		
			<rect id="SVGID_237_" x="-3.8" y="0" transform="matrix(-1 -1.224647e-16 1.224647e-16 -1 1980.329 1448.3511)" width="1987.9" height="1448.4"/>
	</defs>
	<clipPath id="SVGID_23_">
		<use xlink:href="#SVGID_237_"  style="overflow:visible;"/>
	</clipPath>
	
		<linearGradient id="SVGID_25_" gradientUnits="userSpaceOnUse" x1="-8941.7559" y1="10691.667" x2="-8076.6079" y2="9971.7646" gradientTransform="matrix(-2.437073e-02 0.9997 -0.9997 -2.437073e-02 10353.1504 9652.2725)">
		<stop  offset="0.2821" style="stop-color:#4275F4"/>
		<stop  offset="0.3842" style="stop-color:#407FEE"/>
		<stop  offset="0.56" style="stop-color:#3B9BDF"/>
		<stop  offset="0.7869" style="stop-color:#32C8C5"/>
		<stop  offset="0.9179" style="stop-color:#2CE5B5"/>
	</linearGradient>
	<path style="clip-path:url(#SVGID_23_);fill:url(#SVGID_25_);" d="M26.8,1045.5c102.7,2.5,191.1,60.2,237.6,144
		c48.1,77.1,132.7,129.2,230.3,131.6c154.2,3.8,282.3-118.2,286-272.4c3.8-154.2-118.2-282.3-272.4-286
		c-49.3-1.2-95.9,10.5-136.7,31.9l0,0l0,0c-41.2,22-88.4,34-138.4,32.8c-154.2-3.8-276.2-131.8-272.4-286c0.8-33,7.3-64.4,18.5-93.5
		l-42.8-37.8l-122.9,582.7l61.4,93.4C-80.7,1059-28.6,1044.1,26.8,1045.5z"/>
</g>
<g>
	<defs>
		
			<rect id="SVGID_240_" x="4.1" y="2.4" transform="matrix(-1 -1.224647e-16 1.224647e-16 -1 1988.207 1082.4109)" width="1980" height="1077.6"/>
	</defs>
	<clipPath id="SVGID_26_">
		<use xlink:href="#SVGID_240_"  style="overflow:visible;"/>
	</clipPath>
</g>
<g>
	<defs>
		<polygon id="SVGID_242_" points="-136.4,-38.6 994.1,-19.1 250.5,967.7 -194.1,793.8 -298.3,78.4 		"/>
	</defs>
	<clipPath id="SVGID_28_">
		<use xlink:href="#SVGID_242_"  style="overflow:visible;"/>
	</clipPath>
	
		<linearGradient id="SVGID_29_" gradientUnits="userSpaceOnUse" x1="-10668.7002" y1="13033.9883" x2="-11023.3604" y2="11962.4307" gradientTransform="matrix(0.6132 0.7899 -0.7899 0.6132 16666.0371 773.3706)">
		<stop  offset="0.2821" style="stop-color:#4275F4"/>
		<stop  offset="0.3842" style="stop-color:#407FEE"/>
		<stop  offset="0.56" style="stop-color:#3B9BDF"/>
		<stop  offset="0.7869" style="stop-color:#32C8C5"/>
		<stop  offset="0.9179" style="stop-color:#2CE5B5"/>
	</linearGradient>
	<path class="st20" d="M67,220.5c98.9-77.3,226.2-91.7,333.8-49c104,35.1,223.6,18.5,317.6-55C866.8,0.5,894.8-213.4,781-361.2
		s-326.5-173.5-474.9-57.5c-47.4,37.1-82.6,84.2-104.7,136l0,0l0,0c-22.1,52.6-57.5,100.5-105.6,138.1
		c-148.4,116.1-361,90.3-474.9-57.5c-24.3-31.6-42.2-66.2-53.7-102.2l-69.1-2.4L-174.4,336l129,40.1
		C-24.2,316.7,13.6,262.2,67,220.5z"/>
</g>
<path class="st1" d="M1992,1020.5V915.8c0,58.1-47.1,105.2-105.2,105.2c-49.1,0-90.4-33.6-101.9-79.1l-3.3-26.1h0l0,0l0,0l0,0l0,0
	c0-101.9-82.6-184.6-184.6-184.6c-101.9,0-184.6,82.6-184.6,184.6c0,68.9,37.8,129,93.8,160.7l-0.5,0.3
	c54.6,32.1,91.3,91.4,91.3,159.3c0,101.9-82.6,184.6-184.6,184.6H675.7l0,0c-68.9,0-129,37.8-160.7,93.8l0,0
	c-46,68.2-124,113-212.5,113c-141.5,0-256.2-114.7-256.2-256.2c0-141.5,114.7-256.2,256.2-256.2c52.8,0,95.6-42.8,95.6-95.6
	c0-52.8-42.8-95.6-95.6-95.6H-81.8v176.7h69.2v413.6l4.5,211.4v343.9H1992l8-126.9V1012L1992,1020.5z"/>
<linearGradient id="SVGID_31_" gradientUnits="userSpaceOnUse" x1="975.7523" y1="1449.5422" x2="906.8111" y2="1391.6937" gradientTransform="matrix(-1 0 0 1 2266.4817 0)">
	<stop  offset="0" style="stop-color:#4275F4"/>
	<stop  offset="0.1642" style="stop-color:#4079F4"/>
	<stop  offset="0.3244" style="stop-color:#3B85F5"/>
	<stop  offset="0.483" style="stop-color:#3198F7"/>
	<stop  offset="0.6406" style="stop-color:#24B4F9"/>
	<stop  offset="0.796" style="stop-color:#13D7FC"/>
	<stop  offset="0.9418" style="stop-color:#00FFFF"/>
</linearGradient>
<circle style="fill:url(#SVGID_31_);" cx="1325.2" cy="1420.6" r="45"/>
<linearGradient id="SVGID_32_" gradientUnits="userSpaceOnUse" x1="4004.0818" y1="-1302.52" x2="3935.1406" y2="-1360.3685" gradientTransform="matrix(0.4446 -0.8957 -0.8957 -0.4446 -1438.1907 3584.5012)">
	<stop  offset="0" style="stop-color:#4275F4"/>
	<stop  offset="0.2751" style="stop-color:#4178F4"/>
	<stop  offset="0.4411" style="stop-color:#3D80F5"/>
	<stop  offset="0.578" style="stop-color:#368EF6"/>
	<stop  offset="0.6993" style="stop-color:#2CA3F8"/>
	<stop  offset="0.8101" style="stop-color:#20BDFA"/>
	<stop  offset="0.9119" style="stop-color:#10DDFC"/>
	<stop  offset="1" style="stop-color:#00FFFF"/>
</linearGradient>
<circle class="st22" cx="1519.2" cy="620.7" r="45"/>
</svg>
