<?xml version="1.0" encoding="utf-8"?>
<!-- Generator: Adobe Illustrator 24.0.2, SVG Export Plug-In . SVG Version: 6.00 Build 0)  -->
<svg version="1.1" id="Layer_1" xmlns="http://www.w3.org/2000/svg" xmlns:xlink="http://www.w3.org/1999/xlink" x="0px" y="0px"
	 viewBox="0 0 212.52 159.88" style="enable-background:new 0 0 212.52 159.88;" xml:space="preserve">
<style type="text/css">
	.st0{fill-rule:evenodd;clip-rule:evenodd;fill:#D0CBC5;}
	.st1{fill-rule:evenodd;clip-rule:evenodd;fill:#EAE4DE;}
	.st2{fill-rule:evenodd;clip-rule:evenodd;fill:#C8BCB0;}
	.st3{fill-rule:evenodd;clip-rule:evenodd;fill:#D8C9B9;}
	.st4{fill-rule:evenodd;clip-rule:evenodd;fill:#DAD1C9;}
	.st5{fill-rule:evenodd;clip-rule:evenodd;fill:#FBF5EE;}
	.st6{fill-rule:evenodd;clip-rule:evenodd;fill:#C6B3FF;}
	.st7{fill-rule:evenodd;clip-rule:evenodd;fill:#A6BBE7;}
	.st8{fill-rule:evenodd;clip-rule:evenodd;fill:#4479ED;}
	.st9{fill-rule:evenodd;clip-rule:evenodd;fill:#3B4B98;}
	.st10{fill-rule:evenodd;clip-rule:evenodd;fill:#2DDDB5;}
	.st11{fill-rule:evenodd;clip-rule:evenodd;fill:#EAD2A3;}
	.st12{fill-rule:evenodd;clip-rule:evenodd;fill:#5A3CC8;}
	.st13{fill-rule:evenodd;clip-rule:evenodd;fill:#7754F4;}
	.st14{fill-rule:evenodd;clip-rule:evenodd;fill:#FFD14D;}
	.st15{fill-rule:evenodd;clip-rule:evenodd;fill:#FFFFFF;}
	.st16{fill-rule:evenodd;clip-rule:evenodd;fill:#DCE9FB;}
	.st17{fill-rule:evenodd;clip-rule:evenodd;fill:#EAF2FF;}
	.st18{fill-rule:evenodd;clip-rule:evenodd;fill:#BFDAFB;}
	.st19{fill-rule:evenodd;clip-rule:evenodd;fill:#EFEFEF;}
	.st20{fill-rule:evenodd;clip-rule:evenodd;fill:#90FFD4;}
	.st21{fill:none;stroke:#EBEBEB;stroke-width:0.5669;stroke-miterlimit:22.9256;}
	.st22{fill-rule:evenodd;clip-rule:evenodd;fill:#FFEC00;}
	.st23{fill-rule:evenodd;clip-rule:evenodd;fill:#FFE393;}
</style>
<g>
	<path class="st0" d="M193.41,141.36c-13.27-1.41-40.01-1.1-52.85,0.36c-14.83,1.69-15.67,4.26-0.81,5.99
		c10.19,1.18,40.08,1.66,55.7-0.6C210.89,144.88,202.25,142.3,193.41,141.36"/>
	<path class="st6" d="M159.98,120.78c13.47-0.74,27.07-0.36,40.54,0.37c0.74,0.04,1.04,2.43,0.3,2.47
		c-13.47,0.74-27.52,0.7-40.99-0.04C159.1,123.55,159.25,120.82,159.98,120.78"/>
	<path class="st6" d="M168.2,122.18c0.09-0.97-3.55-0.8-3.79,0.15c-1.8,7.02-2.77,14.32-2.7,21.57c0.01,0.97,3.64,1.15,3.79,0.19
		C166.68,136.78,167.55,129.33,168.2,122.18"/>
	<path class="st6" d="M191.52,122.18c0.09-0.97-3.51-0.82-3.64,0.15c-0.99,7.1-1.77,14.44-2.84,21.57
		c-0.14,0.96,3.64,1.15,3.79,0.19C190.01,136.78,190.88,129.33,191.52,122.18"/>
	<path class="st6" d="M175.36,144.13c0,0.07-3.9,0.85-3.89-0.17c0.06-7.28-1.8-14.53-1.33-21.79c0.06-0.93,2.91-0.93,3.03,0
		C174.14,129.71,175.05,138.23,175.36,144.13"/>
	<polygon class="st6" points="198.46,143.84 195.32,143.84 192.51,122.05 195.6,122.16 	"/>
	<path class="st8" d="M169.79,109.4c5.8,0.03,12.64,0.11,18.48,0.1c0.01,0.3,0.05,0.6,0.08,0.87c-5.94-0.06-12.92-0.02-18.62,0.05
		C169.77,110.09,169.81,109.74,169.79,109.4 M158.86,101.27c-1.84-1.1-2.32-0.64-2.52,0.56c-0.25,1.58-0.34,4.4,0.11,5.9
		c0.28,0.92,0.63,1.13,2.64-0.18c0.25,0.72,0.59,1.36,1,1.89c1.94-0.05,4.63-0.06,7.71-0.05c-0.03,0.36,0.02,0.72,0.06,1.06
		c-2.41,0.04-6.55,0.04-8.13,0.08c-0.31,0.58-0.54,1.22-0.71,1.88c-1.76-1.05-2.22-0.61-2.4,0.54c-0.24,1.51-0.33,4.2,0.11,5.64
		c0.26,0.88,0.6,1.08,2.52-0.17c0.24,0.68,0.56,1.3,0.95,1.81c8.24-0.21,32.69,0.4,39.55-0.14c1.1-0.09,1.72-1.36,1.9-2.93
		c0.16,0,0.32,0,0.49,0c0.12,1.31,0.32,2.49,0.62,3.29c1.85-0.76,5.58-3.01,7.81-5.53c-1.72-1.49-5.75-4.1-8.55-5.27
		c-0.03,0.69-0.07,1.82-0.06,3.12l-0.87,0.03c-0.48-1.16-1.22-2.02-2.21-2.09c-1.98-0.15-5.07-0.25-8.69-0.3
		c0.04-0.29,0.08-0.6,0.08-0.9c3.85-0.02,7.11-0.09,9.1-0.25c0.81-0.06,1.38-0.74,1.7-1.71c0.29-0.04,0.6-0.09,0.94-0.14
		c0.12,0.88,0.29,1.65,0.51,2.23c1.94-0.79,5.84-3.15,8.18-5.79c-1.8-1.56-6.02-4.3-8.95-5.51c-0.03,0.72-0.07,1.91-0.07,3.27
		l-0.92,0.03c-0.5-1.22-1.27-2.11-2.31-2.19c-7.51-0.58-30.36-0.35-38.84-0.13C159.29,99.91,159.04,100.57,158.86,101.27z"/>
	<path class="st9" d="M163.84,112.28c9.02-0.49,22.76,0.35,31.79,0.05c1.23-0.04,1.3-0.4,0.27-0.82
		c-10.71-0.18-22.76-0.19-33.47-0.29c-2.11-0.02-2.67,0.66-2.59,2.38c0.05,0.98-0.11,1.91,0.04,2.88
		C160.84,114.07,160.59,112.45,163.84,112.28"/>
	<path class="st9" d="M192.51,101.14c0.37-0.01,0.43-0.04,0.79-0.05c1.23-0.04,1.31-0.71,0.27-0.82l-1.21,0
		C192.41,100.54,192.47,100.84,192.51,101.14 M163.51,101.12c1.72-0.09,3.11-0.15,4.99-0.17c0.06-0.29,0.13-0.61,0.22-0.89
		c-2.33-0.01-4.24,0.03-6.62,0.01c-2.11-0.02-2.02,0.56-2.38,2.25c-0.25,1.22-0.23,1.88-0.08,2.85
		C160.61,102.75,160.27,101.29,163.51,101.12z"/>
	<path class="st10" d="M158.56,105.92c-0.21,0-1.07,0.5-1.05-0.05c0-0.1-0.14-2.11-0.3-2.29c-0.02-0.02-0.04-0.05-0.03-0.06
		C156.47,108.55,158.53,106.17,158.56,105.92"/>
	<path class="st10" d="M198.58,100.7c-1.84-0.18,0.77,2.32,0.67,0.78C199.24,101.31,198.91,100.73,198.58,100.7"/>
	<path class="st10" d="M199.29,112.01c-2.87-2.09,1.09,3.94,0.36,0.48C199.59,112.23,199.31,112.03,199.29,112.01"/>
	<path class="st10" d="M194.04,119.62c2.31,0.02,3.87-0.19,4.98-0.2c1.81-0.02,1.92-1.9,1.78-5.2c-0.21-0.5-0.32-0.18-0.36,0.41
		c-0.1,1.42-0.24,3.92-1.31,3.88c-2.87-0.11-6.93,0.57-9.97,0.32c-2.91-0.24-14.95,0.33-24.1,0.53L194.04,119.62z"/>
	<path class="st10" d="M193.34,108.61c2.28,0.01,4.28,0.2,5.38,0.11c1.73-0.13,1.83-2.46,1.66-4.25c-0.09-0.98-0.37-0.84-0.4-0.05
		c-0.06,1.72-0.45,3.62-1.42,3.57c-10.2-0.44-23.33,0.25-33.63,0.48L193.34,108.61z"/>
	<path class="st9" d="M201.41,101.94c-0.61,0.41-0.21,3.86-0.44,4.73c-0.24,0.91,1.22,0.54,1.15,0.29
		c-0.16-0.61-0.37-4.99-0.38-5.01C201.66,101.81,201.5,101.88,201.41,101.94"/>
	<path class="st9" d="M201.7,113.5c-0.4,0.27-0.14,2.56-0.29,3.13c-0.16,0.6,0.81,0.36,0.76,0.19c-0.11-0.4-0.24-3.31-0.25-3.32
		C201.86,113.41,201.76,113.45,201.7,113.5"/>
	<path class="st10" d="M158.66,117.57c-0.2,0-1,0.29-1.01-0.22c0-0.1-0.17-1.77-0.32-1.93c-0.02-0.02-0.04-0.05-0.03-0.05
		C156.78,120.08,158.64,117.8,158.66,117.57"/>
	<path class="st10" d="M209.15,114.97c0.18-0.06-4.1,4.04-3.9,2.77c0.14-0.91,0.4-0.92,1.59-1.56
		C207.23,115.97,208.67,115.14,209.15,114.97"/>
	<path class="st10" d="M209.42,104.06c-0.08-0.09-3.11,2.77-3.21,1.67c-0.02-0.23,2.65-1.64,2.95-1.61
		C209.22,104.14,209.41,104.05,209.42,104.06"/>
	<path class="st8" d="M171.72,124.29c-0.23-1.17,0.62-0.81,0.6-0.51c0.54,7.06,1.24,13.19,1.5,20.18
		C172.89,139.63,172.31,128.54,171.72,124.29"/>
	<path class="st8" d="M194.68,124.29c-0.23-1.17,0.62-0.81,0.6-0.51c0.53,7.06,1.24,13.19,1.5,20.18
		C195.85,139.63,195.26,128.54,194.68,124.29"/>
	<path class="st8" d="M159.92,121.12c-0.23,0-0.32,1.6-0.07,1.74c13.47,0.02,27.18,0.04,40.65,0.06c0.17-0.01,0.11-0.2,0.12-0.31
		c0.05-0.46-0.03-0.97,0.16-1.28c0.19,0.67,0.29,1.95-0.05,1.92c-13.74,0.43-27.19,0.06-41.07,0.03c-0.72,0.01-0.65-2.66-0.15-2.76
		c13.75-0.02,27.73,0.23,41.48,0.21C196.44,121.64,163.95,121.11,159.92,121.12"/>
	<path class="st8" d="M161.6,143.6c-0.04,0.52,0.75,0.47,1.17,0.68c-0.54-0.03-1.56,0.21-1.53-0.51c0.92-7.04,1.9-13.91,2.47-20.99
		c0.04-0.5,0.76-0.2,0.74,0.02C163.75,129.71,162.51,136.72,161.6,143.6"/>
	<path class="st8" d="M185.45,143.6c-0.04,0.52,0.75,0.47,1.17,0.68c-0.54-0.03-1.41,0.21-1.38-0.51
		c0.92-7.04,1.34-13.64,2.25-20.68c-0.04,0.01,0.45-0.06,0.67-0.09C187.25,129.89,186.36,136.72,185.45,143.6"/>
	<polygon class="st8" points="191.9,98.77 169.41,98.86 168.31,93.06 192.96,93.19 	"/>
	<path class="st9" d="M169.4,99.54c7.53,0.14,15-0.05,22.53,0.09c0.32,1.46,0.61,3.38,0.58,5.01c-7.53-0.14-16.22-0.02-23.75-0.16
		C168.63,102.82,168.74,101.05,169.4,99.54"/>
	<path class="st9" d="M191.1,95.36c-6.89-0.1-13.62-0.13-20.51-1.04c-1.04-0.14-1.5-0.44,0.21-0.5c7.05-0.21,14.22-0.05,21.19-0.01
		C192.52,93.78,191.82,95.36,191.1,95.36"/>
	
		<rect x="171.48" y="98.03" transform="matrix(0.0183 -0.9998 0.9998 0.0183 69.7537 268.9746)" class="st8" width="0.74" height="1.86"/>
	
		<rect x="187.9" y="97.87" transform="matrix(0.0181 -0.9998 0.9998 0.0181 86.0742 285.2535)" class="st8" width="0.74" height="1.86"/>
	<path class="st11" d="M169.78,101.83c-0.39,0.8-0.24,1.58-0.12,2.04c0.08,0.3,0.66,0.25,0.55-0.22c-0.12-0.52-0.08-1.65-0.01-1.77
		C170.29,101.69,169.8,101.79,169.78,101.83"/>
	<path class="st11" d="M170.77,101.92c-0.73,0.82,0.8,4.24,0.23,0.56C170.97,102.32,171.1,101.55,170.77,101.92"/>
	<path class="st12" d="M191.55,101.62c-3.46-0.02-7.07-0.03-10.54-0.05c-0.37-0.33-0.65-0.65-0.81-0.98
		c3.67-0.04,7.56,0.13,11.23,0.08C191.46,100.92,191.56,101.37,191.55,101.62"/>
	<path class="st8" d="M166.11,123.78c-0.76,7.19-1.73,13.55-3.07,20.52c0.61-6.47,1.9-13.83,2.55-20.68
		C165.61,123.39,166.14,123.55,166.11,123.78"/>
	<path class="st8" d="M189.92,123.37c-0.77,7.19-1.7,13.97-3.04,20.94c0.61-6.47,1.86-14.24,2.52-21.1
		C189.42,122.97,189.95,123.13,189.92,123.37"/>
	<path class="st8" d="M164.43,143.3c0.9-6.87,1.65-13.5,2.49-20.72c0.02-0.2,0.62-0.12,0.59,0.07c-1.01,6.81-1.81,13.68-2.58,20.44
		c-0.1,0.86-0.14,1.2-1.29,1.13C164.33,144.01,164.36,143.77,164.43,143.3"/>
	<path class="st8" d="M188.28,143.3c0.9-6.87,1.54-12.8,2.39-20.02c0.02-0.2,0.62-0.12,0.59,0.07c-1.01,6.81-1.7,12.99-2.48,19.74
		c-0.1,0.86-0.14,1.2-1.29,1.13C188.18,144.01,188.21,143.77,188.28,143.3"/>
	<path class="st8" d="M174.81,143.19c0.08,0.59-0.21,0.66-0.61,0.82c1.02-0.09,0.99-0.42,0.95-0.82
		c-0.62-6.72-1.11-13.45-1.66-20.17c0-0.4-0.47-0.24-0.42,0.27C173.53,127.84,174.58,138.61,174.81,143.19"/>
	<path class="st8" d="M197.77,143.19c0.07,0.59-0.21,0.66-0.61,0.82c1.02-0.09,0.99-0.42,0.95-0.82
		c-0.62-6.72-1.11-13.45-1.66-20.17c0-0.4-0.47-0.24-0.42,0.27C196.48,127.84,197.54,138.61,197.77,143.19"/>
	<path class="st8" d="M172.18,143.39c0.02,0.44,0.79,0.39,1.18,0.58c-0.57-0.02-1.68,0.31-1.71-0.65
		c-0.12-3.68-1.28-15.91-1.65-19.44c-0.15-1.47,0.37-1.14,0.37-0.78C170.96,129.87,171.93,138.1,172.18,143.39"/>
	<path class="st8" d="M195.13,143.39c0.02,0.44,0.79,0.39,1.18,0.58c-0.57-0.02-1.68,0.31-1.71-0.65
		c-0.12-3.68-1.28-15.91-1.65-19.44c-0.15-1.47,0.37-1.14,0.37-0.78C193.91,129.87,194.88,138.1,195.13,143.39"/>
	<path class="st11" d="M171.7,101.87c-0.39,0.8-0.24,1.58-0.12,2.04c0.08,0.3,0.66,0.25,0.55-0.22c-0.12-0.52-0.08-1.65-0.01-1.77
		C172.21,101.73,171.71,101.83,171.7,101.87"/>
	<path class="st11" d="M172.69,101.96c-0.73,0.82,0.8,4.25,0.23,0.56C172.89,102.36,173.02,101.59,172.69,101.96"/>
	<path class="st11" d="M173.81,101.83c-0.39,0.8-0.24,1.58-0.12,2.04c0.08,0.3,0.66,0.25,0.55-0.22c-0.12-0.52-0.08-1.65-0.01-1.77
		C174.33,101.69,173.83,101.79,173.81,101.83"/>
	<path class="st11" d="M174.8,101.92c-0.73,0.82,0.8,4.24,0.23,0.56C175.01,102.32,175.14,101.55,174.8,101.92"/>
	<path class="st13" d="M175.52,102.7c-0.02-0.31-0.01-0.64,0.11-0.93c0.79,0,0.92,0.02,2.09,0c1.79,0.02,1.58,1.46,2.96,1.59
		c3.98,0.02,7.1,0.01,11.08,0.03c0.05,0.29,0.03,0.68,0.06,0.97c-4.03,0-7.17-0.17-11.2-0.17c-1.77,0.07-1.79-1.42-3.26-1.51
		C176.67,102.69,176.25,102.67,175.52,102.7"/>
	<path class="st11" d="M175.55,103.14c0.73,0.02,1.1-0.01,1.83,0.01c0.42,0.05,0.98,0.66,1.57,0.92c-1.12,0-2.19-0.02-3.31-0.03
		C175.56,103.77,175.57,103.45,175.55,103.14"/>
	<path class="st10" d="M149.54,150.02c-0.45-0.25,0.5-1.98,1-1.85c4.13,1.07,7.97,3.01,11.96,4.54c1.7-1.24,3.62-2.43,5.37-3.66
		c0.8-0.56,1.02-0.59,1.98-0.25c3.93,1.36,7.36,2.84,11.13,4.75c0.41,0.2-0.42,1.18-0.86,1.06c-3.86-1.04-7.16-2-10.89-3.43
		c-0.67-0.28-4.27,3.08-6.07,4.73C158.65,154.01,153.82,152.37,149.54,150.02"/>
	<path class="st13" d="M191.62,102.12c0.03,0.29,0.07,0.61,0.07,0.9c-0.67,0-1.3,0-1.91-0.01c-0.58,0.12-1.4-0.3-1.67-0.75
		c-0.33-0.53-0.5-0.78-0.54-0.92c-0.04-0.16,0.53-0.62,0.69-0.45c0.16,0.16,0.32,0.66,0.7,1c0.19,0.17,0.44,0.25,0.82,0.25
		C190.4,102.14,191.14,102.12,191.62,102.12"/>
	<path class="st13" d="M169.58,101.33c0.03-0.32,0.03-0.7,0.27-0.99c3.02,0,5.55,0.09,8.58,0.09c1.79,0.02,1.4,1.52,2.78,1.66
		c0.68,0,0.84-0.04,1.44-0.04c1.17-0.23,1.06-0.61,1.19-1.16c0.07-0.3,0.17-0.58,0.24-0.87c0.04-0.16,1.17,0,1.11,0.26
		c-0.17,0.76-0.38,1.77-0.72,2.23c-0.52,0.71-2.57,0.51-3.45,0.5c-1.62-0.02-1.52-1.59-2.95-1.67
		C175.15,101.4,172.48,101.28,169.58,101.33"/>
	<path class="st10" d="M149.11,146.67c-1.07,0.9-2.06,2.96-1.67,4.36c0.25,0.89,1.21,0.72,1.77,0.09c0.57-0.64,2.04-2.7,2.2-3.94
		C151.64,145.42,150,145.92,149.11,146.67"/>
	<path class="st8" d="M149.87,149.54l13.13,5.17c1.65-1.06,3.37-2.92,4.99-3.83c0.38-0.21,0.85-0.59,1.74-0.14
		c0.56,0.28,10.89,4.21,10.89,4.4c-0.24,0.1-3.5-1.22-3.84-1.36c-2.26-0.94-5.01-1.73-7.19-2.78c-0.61-0.3-0.83-0.01-1.11,0.11
		c-1.84,0.8-3.53,2.75-4.97,3.87c-0.21,0.16-0.56,0.24-1,0.13c-4.32-1.65-8.5-3.66-12.47-5.15
		C149.32,149.69,149.68,149.49,149.87,149.54"/>
	<path class="st8" d="M151.26,147.71c1.1-2.23-0.48-2.72-1.99-1.56c-1.4,1.08-2.23,2.62-2.06,4.37c0.08,0.83,0.73,1.51,1.68,0.97
		c0.27-0.15,0.67-0.5,0.81-0.75c0.18-0.32,0.03-0.74-0.39-0.2c-0.09,0.11-0.48,0.36-0.64,0.46c-0.49,0.32-1-0.21-1.07-0.81
		c-0.17-1.59,0.85-3.21,2.16-4.05C151.17,145.26,151.37,146.76,151.26,147.71"/>
	<path class="st8" d="M150.58,148.08c1.6,0.4,5.52,1.8,7,2.32c1.66,0.59,2.4,0.86,4.78,1.69c2.09-1.62,3.99-2.73,5.97-3.85
		c0.24-0.14,0.61-0.15,1.31,0.06c3.63,1.06,7.69,2.68,11.18,4.28c0.84,0.38,1.24,0.81,0.89,1.56c-0.57,1.2-0.6,0.78-0.48-0.2
		c0.02-0.13,0.3-0.63-0.54-1c-3.53-1.57-7.05-2.74-10.67-4.2c-0.54-0.22-1.25-0.5-1.88-0.09c-1.92,1.23-3.16,1.92-5.03,3.38
		c-0.25,0.2-0.54,0.63-0.99,0.46C158.42,151.08,155.35,150.01,150.58,148.08"/>
	<path class="st14" d="M141.68,142.35c-0.28-1.41-0.81-2.95-1.09-4.36c-0.1-0.29-1.36-0.5-2.11-0.44c-1.14,0.3-2.29,0.6-3.43,0.9
		c-0.31,0.28-1.34,2.55-1.21,2.98c0.26,0.97,0.63,3.04,1.06,3.05c1.46,0.22,2.76,0.49,4.22,0.71
		C140.71,145.65,141.2,143.67,141.68,142.35"/>
	<path class="st15" d="M140.51,141.23c-0.16-0.26-0.22-0.47-0.42-0.73c-0.52-0.68-1.77-0.56-1.72,0.55
		c0.03,0.66,0.47,2.15,1.36,2.13C140.57,143.16,140.97,142,140.51,141.23"/>
	<path class="st8" d="M139.66,142.74c0.27,0.11,0.03,0.49-0.41,0.3c-1.66-0.7-0.85-4.43,0.55-3.36c1.43,1.09,0.87,2.49,0.68,2.68
		c-0.09-0.89-0.2-1.59-0.57-1.91c-0.9-0.79-1.33,0.22-1.16,1.16C138.88,142.22,139.21,142.56,139.66,142.74"/>
	<path class="st8" d="M140.16,143.77c0.33-0.3,0.65-0.59,0.98-0.89c-0.28,0.52-0.63,1.01-0.83,1.55c-0.07,0.2-0.31,0.35-0.61,0.23
		c-0.44-0.18-0.92-0.28-1.37-0.41c-0.52-0.15-0.39-0.09-0.57-0.63c-0.25-0.76-0.5-1.51-0.74-2.26c-0.22-0.67-0.23-0.49,0.16-1.09
		c0.44-0.69,0.87-1.36,1.25-2.07c0.23-0.42,0.65-0.36,0.93-0.29c0.32,0.08,0.63,0.15,0.95,0.22c0.49,0.11,0.42,0.02,0.61,0.49
		c0.4,0.99,0.67,2,1.11,2.99c0.16,0.39-0.48,0.41-0.51,0.21c-0.4-0.93-0.68-1.81-1.07-2.77c-0.14-0.35-0.19-0.3-0.57-0.36
		c-0.19-0.03-0.38-0.06-0.57-0.07c-0.31-0.01-0.39-0.03-0.58,0.24c-0.35,0.51-0.72,1.02-1.11,1.63c-0.25,0.27-0.16,0.59-0.11,0.82
		c0.2,0.82,0.63,1.64,0.87,2.32c0.35,0.2,0.7,0.2,1.05,0.33C139.85,144.11,139.86,144.05,140.16,143.77"/>
	<path class="st8" d="M136.26,140.51c0.37-0.11,0.46,0.35,0.09,0.33c-0.62,0.06-0.89,0.14-1.58,0.19c-0.72,0.05-0.76-0.1-0.52-0.46
		c0.28-0.42,0.58-0.92,0.81-1.37c0.26-0.53,0.19-0.41,0.76-0.58c0.97-0.29,1.44-0.53,2.49-0.71c-0.65,0.48-1.53,0.73-2.49,1.03
		c-0.23,0.02-0.34,0.28-0.44,0.44c-0.24,0.35-0.37,0.74-0.52,1.01c-0.08,0.11,0.15,0.16,0.49,0.2
		C135.74,140.61,135.94,140.46,136.26,140.51"/>
	<path class="st8" d="M137.49,144.18c0.12-0.02,0.54,0.32,0.26,0.33c-0.95-0.15-1.54-0.1-2.47-0.25c-0.57-0.09-0.51-0.25-0.64-0.8
		c-0.13-0.54-0.25-1.07-0.41-1.56c-0.02-0.35,0.62-0.49,0.73-0.11c0.11,0.39,0.2,0.89,0.29,1.33c0.09,0.44,0.17,0.44,0.6,0.56
		C136.63,143.92,136.7,143.95,137.49,144.18"/>
	<path class="st8" d="M150.46,148.02c-0.6-0.09-1.25,0.47-1.24,1.25c0.01,0.37,0.34,0.54,0.41-0.11
		C149.71,148.39,150.47,148.03,150.46,148.02"/>
	<polygon class="st14" points="183.75,148.6 185.08,151.84 186.82,151.85 189.41,150.6 190.4,148.13 189.32,145.94 185.27,146.02 	
		"/>
	<path class="st15" d="M184.7,149.29c0.15,0.16,0.22,0.3,0.4,0.46c0.47,0.41,1.35,0.15,1.15-0.64c-0.11-0.46-0.64-1.48-1.28-1.33
		C184.39,147.93,184.26,148.81,184.7,149.29"/>
	<path class="st8" d="M185.07,147.91c-0.23-0.05-0.1-0.38,0.27-0.31c1.43,0.29,1.18,3.52-0.06,2.82c-1.05-0.59-0.94-1.91-0.81-2.09
		c0.21,0.7,0.41,1.23,0.75,1.43c0.84,0.49,1.02-0.38,0.74-1.1C185.78,148.2,185.46,147.99,185.07,147.91"/>
	<path class="st8" d="M184.51,147.17c-0.21,0.29-0.6,0.82-0.81,1.11c0.14-0.45,0.43-1.2,0.58-1.61c0.06-0.16,0.19-0.33,0.44-0.28
		c0.38,0.07,0.77,0.08,1.16,0.11c0.44,0.03,0.33,0.01,0.55,0.41c0.32,0.57,0.63,1.12,0.95,1.68c0.28,0.5,0.43,0.46,0.22,0.99
		c-0.24,0.62-0.53,1.16-0.73,1.78c-0.11,0.37-0.58,0.34-0.81,0.33c-0.27-0.02-0.53-0.02-0.79-0.03c-0.41-0.01-0.34,0.05-0.57-0.29
		c-0.48-0.73-0.85-1.49-1.36-2.2c-0.19-0.28,0.32-0.4,0.37-0.25c0.46,0.68,0.82,1.33,1.29,2.03c0.17,0.25,0.2,0.21,0.51,0.2
		c0.16,0,0.31-0.01,0.46-0.03c0.25-0.04,0.32-0.04,0.42-0.28c0.2-0.46,0.41-0.92,0.62-1.47c0.15-0.25,0.04-0.5-0.05-0.67
		c-0.29-0.62-0.76-1.21-1.06-1.71c-0.31-0.1-0.59-0.05-0.89-0.1C184.7,146.85,184.71,146.91,184.51,147.17"/>
	<path class="st8" d="M188.13,149.15c-0.28,0.15-0.42-0.21-0.12-0.24c0.49-0.15,0.69-0.25,1.23-0.4c0.56-0.15,0.81-0.04,0.68,0.28
		c-0.15,0.38-0.32,0.83-0.43,1.23c-0.12,0.46-0.19,0.43-0.61,0.65c-0.73,0.38-1.2,0.61-2,0.92c0.44-0.49,1.24-0.84,1.95-1.23
		c0.18-0.05,0.22-0.28,0.28-0.42c0.13-0.32,0.21-0.87,0.29-1.11c0.05-0.1-0.27,0.1-0.54,0.13
		C188.53,148.99,188.39,149.14,188.13,149.15"/>
	<path class="st8" d="M186.57,146.43c-0.09,0.04-0.33-0.13-0.11-0.19c0.78-0.03,1.15,0.01,1.92-0.02c0.47-0.02,0.39-0.1,0.58,0.32
		c0.19,0.41,0.37,0.81,0.57,1.18c0.07,0.27-0.41,0.48-0.56,0.2c-0.15-0.29-0.15-0.76-0.29-1.09c-0.14-0.34-0.35-0.24-0.71-0.27
		C187.3,146.5,187.24,146.49,186.57,146.43"/>
</g>
<g>
	<path class="st17" d="M15.93,29.23c-8.35,8.62-17.08,23.75,4.51,15.73c7.2-2.67,20.56-7.88,28.7-9.68
		c8.37-1.86,16.79-0.69,7.07,8.2c-51.21,37.45,48.05,13.63,63.24-4.53c11.47-13.72,3.21-26.21-11.36-32.15
		C76.92-5.92,41.37,2.96,15.93,29.23"/>
	<path class="st14" d="M98.41,35.34c2.72-0.31,6.13-0.06,6.69-0.34c0.37-0.18,1.82-2.2,3.84-5.54c0.39,3.27,0.27,5.7,0.94,7.9
		c12.58,3.45,1.07,2.05-1.25,4.02c0.17,2.56,0.4,6,0.02,8.58c0.02-0.16-2.58-4.31-3.55-6.84c-0.41-1.06-6.34,3.46-6.66,2.66
		c-0.14-0.36,1.93-2.7,4.34-5.67C99.86,37.22,99.61,36.34,98.41,35.34"/>
	<path class="st14" d="M34.81,37.54c14.36-0.95,26.36-19.58,12.43-32.1c15.6,0.17,28.6,11.1,22.15,27.17
		C65,43.57,48.23,46.04,34.81,37.54"/>
	<path class="st16" d="M92.26,100.4c-0.09-22.13-40.09-23.63-31.29,15.53c-20.65-0.38-40.86,11.53-27.87,14.72
		c4.49,1.1,25.38-0.6,25.32-0.55c-8.36,6.84-9.74,19.41,10.65,14.54c16.4-3.91,28.48-5.52,44.73-13.07
		c21.19-9.83,21.19-28.39-6.29-21.89C104.88,104.78,101.48,98.53,92.26,100.4"/>
	<path class="st20" d="M79.71,128.19c-2.45,6.72-5.55,10.49-11.62,16.33c2.13-0.27,4.87-1.45,5.82-1.8
		c1.72-2.34,7.45-9.88,8.23-12.03C80.85,129.42,79.86,127.87,79.71,128.19"/>
	<path class="st8" d="M36.23,36.2c5.84,7.1,27.09,7.47,32.26-4.57c5.67-13.2-7.01-26.8-19.92-28.07
		c14.58,0.57,26.38,15.15,20.68,28.48c-5.52,12.93-29.36,12.24-34.31,3.62c7.46,1.29,30.63-13.92,13.92-29.89
		c-0.69-0.62-0.23-0.97,0.47-0.42C63.94,18.62,49.3,35.68,36.23,36.2"/>
	<path class="st8" d="M74.56,141.58c3.27-3.24,5.64-5.89,6.98-10.36c0.11-0.35-0.43,0.06-0.35-0.36c0-0.01,1.94-1.12,0.64,1.95
		C80.86,135.08,79.7,138.46,74.56,141.58"/>
	<path class="st8" d="M70.93,143.32c-11.43,4.46-30.98,4.27-19.54-10.7c-4.28,0.35-25.13,5.72-27.48-2.79
		c-2.2-7.98,21.03-15.6,29.52-16.62c-0.18-6.41-2.3-13.96-0.28-20.18c3.17-9.3,11.77-15.82,21.74-15.88
		c11.4-0.07,18.91,10.69,21.78,21.08c6.16,0.97,10.68,1.72,11.21,9.86c14.82-3.6,33.72,4.34,17.58,15.31
		c-12.06,8.2-26.69,7.18-26.27,7.17c9.1-0.42,18.24-2.46,25.87-7.65c15.94-10.83-3.61-17.52-17.69-13.92
		c-0.1-8.34-4.94-9.08-11.06-9.99l-0.22-0.03l-0.06-0.21C93.29,88.57,86.1,77.94,74.94,78c-9.69,0.06-18.03,6.51-21.11,15.55
		c-1.62,4.74-0.25,13.88,0.17,19.26c0.02,0.32,0.12,1.17-0.56,0.95c-7.94,0.8-30.64,8.45-28.52,16.1c2.13,7.72,24.6,2.13,27.56,2.2
		c-12.06,14.89,7.12,15.21,18.41,10.8c5.56-2.17,10.34-5.08,15.61-7.78C81.59,138.48,74.99,141.74,70.93,143.32"/>
	<path class="st8" d="M89.97,73.54c-7.14-5.75-16.06-8.13-24.1-6.99c-17.67,2.51-27.62,23.22-16.81,37.16
		c6.46,8.33,17.48,10.84,26.93,9.68c-8.03,2.59-21.59-1.29-27.67-9.1c-11.7-15.03-1.17-36.02,17.38-38.76
		C74.14,64.29,83.28,66.51,89.97,73.54"/>
	<path class="st8" d="M65.45,89.83c1.01-0.33,2.09,0.23,2.42,1.24c0.33,1.01-0.23,2.09-1.24,2.42c-1.01,0.33-2.09-0.23-2.42-1.24
		C63.88,91.24,64.44,90.16,65.45,89.83"/>
	<path class="st15" d="M65.65,90.28c0.35-0.11,0.73,0.08,0.84,0.43c0.11,0.35-0.08,0.73-0.43,0.84c-0.35,0.11-0.73-0.08-0.84-0.43
		C65.11,90.77,65.3,90.39,65.65,90.28"/>
	<path class="st8" d="M55.24,97.51c-1,0.35-1.53,1.44-1.19,2.44c0.35,1,1.44,1.53,2.44,1.19c1-0.35,1.53-1.44,1.19-2.44
		C57.33,97.7,56.24,97.16,55.24,97.51"/>
	<path class="st15" d="M56.01,98.16c-0.35,0.12-0.54,0.5-0.41,0.85c0.12,0.35,0.5,0.54,0.85,0.41c0.35-0.12,0.53-0.5,0.41-0.85
		C56.74,98.22,56.36,98.03,56.01,98.16"/>
	<path class="st8" d="M49.63,95.49c-0.19-0.73-0.32-2.01,0.15-2.82c0.4-0.7,1.56-0.6,1.02,0.32C50.37,93.7,49.85,94.41,49.63,95.49"
		/>
	<path class="st8" d="M67.14,87.1c-0.4-0.64-1.24-1.62-2.15-1.84c-0.79-0.19-1.5,0.72-0.47,0.96C65.33,86.41,66.2,86.52,67.14,87.1"
		/>
	<path class="st8" d="M62.61,103.05c1.86-0.3,2.66-1.68,2.8-3.36c0.11-1.36,2.23-1.12,2.15,0.16
		C67.32,103.57,64.12,103.98,62.61,103.05"/>
	<path class="st18" d="M49.02,85.7c0.32-4.84,1.72-9.55,6.22-12.73c4.55-3.21,4.51,0.21,2.45,2.8
		C55.72,78.24,52.83,79.37,49.02,85.7"/>
	<path class="st8" d="M75.94,66.62c0.31-3.58,0.88-5.75,1.44-7.21c1.06-2.78,1.84-2.51,1.01,0.16
		C77.79,61.53,75.83,67.95,75.94,66.62"/>
	<path class="st8" d="M77.3,53.23c-2.72,1.46-1.46,4.27-0.54,4.92c-2.82-1.05-2.12-4.25-0.02-5.47c6.61-3.85,11.32,6.55,2.72,6.51
		C87.01,56.92,82.12,50.65,77.3,53.23"/>
	<path class="st8" d="M110.29,37.58c1.37,0.57,2.83,1.16,4.14,1.86c0.36,0.19,1.39,0.7,1.23,1.23c-0.14,0.48-1.11,0.48-1.5,0.49
		c-0.84,0.03-1.69,0.02-2.54,0.04c-0.79,0.02-2.26,0.08-3.01,0.49c-0.12,2.21-0.29,6.81-1.24,8.7c-0.38-0.62-0.62-1.26-0.9-1.93
		c-0.39-0.93-0.77-1.86-1.12-2.8c-0.34-0.91-0.68-1.86-0.9-2.77c-0.34-0.2-2.68,0.8-3.07,0.96c-0.75,0.31-1.5,0.65-2.27,0.91
		c-0.36,0.12-1.32,0.47-1.47-0.11c-0.12-0.48,1.17-1.64,1.48-1.93c1.09-1.06,2.21-2.1,3.31-3.15c-1.1-1.38-3.33-3.62-4.14-4.68
		c1.65,1.64,2.82,2.1,4.74,4.53l0.16,0.2l-0.18,0.18c-0.49,0.47-4.06,3.76-4.72,4.62c1.29-0.12,6.32-3.15,6.68-1.69
		c0.23,0.92,0.57,1.85,0.9,2.74c0.12,0.31,0.93,2.22,1.4,3.44c0.52-2.37,0.65-5.03,0.78-7.39l0.01-0.14l0.12-0.08
		c1.52-1,6.04-0.49,6.88-0.79c-0.58-0.61-4.6-2.25-5.13-2.47l-0.14-0.06l-0.03-0.15c-0.37-2.13-0.06-4.71,0.02-6.99
		c-1.1,1.37-3.37,4.14-4,4.35c-0.4,0.14-1.59-0.03-2.02-0.09c-1.09-0.13-2.18-0.27-3.27-0.34c-0.37-0.02-0.73-0.04-1.1-0.04
		c-0.45,0-0.44-0.57,0.01-0.56c0.38,0,0.75,0.02,1.13,0.04c0.66,0.04,4.75,0.56,5.07,0.45c0.61-0.25,3.79-4.22,4.27-4.83l0.51-0.64
		l0,0.82C110.35,32.37,109.93,35.27,110.29,37.58"/>
	<path class="st14" d="M2.98,64.21c1.43-1.78,3.47-3.47,3.64-3.97c0.12-0.33-0.22-2.37-0.98-5.53c2.15,1.71,3.5,3.21,5.19,4.12
		c9.47-5.35,1.84,0.58,1.62,3.12c1.6,1.41,3.76,3.32,5.05,5.06c-0.08-0.11-4.05-1.03-6.12-1.96c-0.86-0.39-1.72,5.77-2.38,5.48
		c-0.3-0.13-0.44-2.73-0.76-5.91C4.82,64.63,4.3,64.16,2.98,64.21"/>
	<path class="st8" d="M8.24,70.91c0.57-0.94,1.16-5.94,2.45-5.36c0.74,0.33,1.52,0.59,2.3,0.84c0.92,0.29,1.86,0.53,2.79,0.8
		c-1.3-1.53-2.87-2.89-4.37-4.21l-0.12-0.11l0.01-0.16c0.07-0.81,0.84-1.92,1.3-2.56c0.25-0.35,1.41-1.79,1.73-2.34
		c-0.87,0.23-3.52,1.72-4.18,2.1l-0.15,0.09L9.85,59.9c-1.63-0.89-3.08-2.33-4.51-3.55c0.28,1.19,0.95,4.21,0.75,4.79
		c-0.28,0.8-2.6,3.1-3.3,3.79c-0.34,0.33-1-0.17-0.5-0.67c0.62-0.61,2.98-2.7,3.2-3.33c0.15-0.48-0.8-4.57-0.99-5.36l-0.22-0.9
		l0.72,0.58c1.63,1.29,3.18,2.98,4.99,4c0.78-0.46,4.42-2.68,4.97-1.92c0.48,0.67-2.7,3.94-3,5.28c1.73,1.53,3.89,3.7,5.26,5.55
		c-0.71-0.17-1.25-0.25-1.96-0.45c-0.83-0.23-1.65-0.46-2.47-0.72c-0.78-0.25-1.57-0.51-2.32-0.84c-0.64,0.36-1.25,5.98-2.42,5.47
		c-0.59-0.26-0.85-4.84-0.93-5.88c-0.98,0.01-4.34,0.15-4.85-0.19L2,65.36l0.33-0.01c1.7-0.06,3.39-0.25,5.09-0.25l0.29,0l0.03,0.29
		c0.09,0.94,0.16,1.9,0.24,2.85C8.02,68.64,8.12,70.3,8.24,70.91"/>
	<path class="st0" d="M95.06,152.34c-8.65-0.84-26.05-0.25-34.38,0.97c-9.62,1.41-10.13,3.28-0.44,4.32
		c6.64,0.71,26.1,0.65,36.23-1.18C106.49,154.63,100.82,152.89,95.06,152.34"/>
	<path class="st8" d="M69.34,143.85c8.89-8.62,8.41-10.32,10.64-15.23c0.74-1.62,1.45-0.97,0.76,0.32
		C81.01,129.88,75.16,141.78,69.34,143.85"/>
	<path class="st20" d="M82.29,127.35c1.19,1.51-0.48,0.18-0.63,1.4c-0.07,0.52-0.16,3.84-0.65,3.31
		c-7.05-7.38-22.87-15.23-30.9-18.54C59.35,111.9,75.57,118.8,82.29,127.35"/>
	<path class="st8" d="M80.76,124.22c0.03,1.39,2.38,1.88,1.52,3.4c-0.77,1.37-0.22,4.41-1.16,3.21c-3.23-4.14-20.14-14-31.47-17.01
		c11.11,2.03,26.76,10.93,30.22,14.74c1.01,1.11,1.73-1.54-0.21-4.15c-6.12-8.25-23.89-11.42-27.16-11.19
		C58.99,112.29,76.75,117.27,80.76,124.22"/>
	<path class="st8" d="M85.3,145.88c-1.4,3.29-0.69,3.92,1.12,3.89c2.22-0.03,6.09-0.56,8.05-1.53c1.3-0.65,1.42-1.22-1.55-4.28
		c-1.13-1.16-6.8-0.73-7.04,1.08C85.77,145.86,85.39,145.66,85.3,145.88"/>
	<path class="st8" d="M82.19,145.91c-2.29-11.55-7.96-42.76-8.92-53.16c-0.44-4.78,12.15-7.78,13.23-3.55
		c2.46,9.69,7.13,41.92,9.46,53.67C93.16,145.91,86.88,147.44,82.19,145.91"/>
	<path class="st8" d="M86.27,84.8c-1.54-2.47-5.68-7.26-9.83-9.83c-1.72,2.82-4.47,9.24-5.45,13.53
		C74.03,88.12,82.94,86.77,86.27,84.8"/>
	<path class="st8" d="M75.07,85.57c0.07,0.93,0.87,4.27,1.19,6.34c0.12,0.77,1.45,0.26,2.02,0.29c3.83,0.19,2.83-0.52,4.29-1.18
		c2.96-1.33,0.92-3.45,0.08-7.43C82.36,82.19,74.71,80.49,75.07,85.57"/>
	<path class="st8" d="M58.84,117.93c-2.39,3.39-6.08,4.75-10.09,2.98c-8.11-3.58-13.28-15.37-14.91-18.31
		c-0.81-1.47-2.23-1.32-0.91,1.38c4.68,9.55,10.27,15.4,15.38,17.48C52.68,123.24,56.83,121.76,58.84,117.93"/>
	<path class="st8" d="M30.48,98.57c-1.4-0.74-3.02-1.36-4.41-1.26c-1.38,0.11-0.86,1.12-0.11,1.22
		C27.07,98.66,28.79,98.61,30.48,98.57"/>
	<path class="st8" d="M30.64,99.61c-1.4-0.27-3.76,0.01-4.85,0.59c-0.63,0.33-0.59,1.43,0.41,1.25
		C27.85,101.14,29.33,100.28,30.64,99.61"/>
	<path class="st8" d="M30.71,100.76c-0.82,0.27-1.9,0.86-2.88,1.55c-0.87,0.62-0.01,1.28,0.5,1
		C29.23,102.84,30.12,101.75,30.71,100.76"/>
	<path class="st8" d="M31.49,97.45c0.28-0.82,0.46-2.04,0.5-3.23c0.03-1.07-1.01-0.78-1.1-0.2C30.72,95.01,31.05,96.38,31.49,97.45"
		/>
	<path class="st8" d="M62.82,52.11c0.02-1.58-1.35-6.49-2.08-7.68c-0.72-1.18-1.39-0.25-1.13,0.46C59.99,45.94,62,50.63,62.82,52.11
		"/>
	<path class="st8" d="M61.55,52.83c-1.04,0.88-2.41,0.05-2.78-0.82c-0.58-1.36-2.18-1.11-1.22,0.37
		C58.15,53.28,60.9,54.54,61.55,52.83"/>
	<path class="st15" d="M107.28,108.1c0.25-0.26,1.21-1.03,1.74-0.97c1.2,0.15,0.54-0.03-0.48,1.51c-0.72,1.1-1.17,0.09-1.17,0.09
		C107.38,108.66,107.26,108.12,107.28,108.1"/>
	<path class="st20" d="M104.34,113.07c0.21-1.15,3.41-4.99,4.22-5.75c1.01-0.05,1.37-0.08,2.21-0.07c-2.2,2.7-3.95,9.09-4.82,12.81
		C105.84,119.06,104.4,113,104.34,113.07"/>
	<path class="st8" d="M108.51,107.23c-2.23,1.97-4.13,4.29-5.45,7.48c-0.6-0.21-0.54-0.49-0.69-0.85
		C103.04,112.12,106.77,107.77,108.51,107.23"/>
	<path class="st8" d="M110.37,107.22c-1.23,0.35-4.67,7.35-5.24,10.5c0.02,0.25,0.24,0.02,0.43,0.7
		C105.84,117.06,108.6,109.16,110.37,107.22"/>
	<path class="st8" d="M100.08,140.29c-1.34,3.14-0.66,3.74,1.07,3.72c2.12-0.02,5.82-0.54,7.69-1.47c1.25-0.62,1.36-1.17-1.48-4.09
		c-1.08-1.11-6.49-0.7-6.72,1.03C100.54,140.27,100.17,140.08,100.08,140.29"/>
	<path class="st8" d="M97.12,140.32c-2.18-11.03-7.6-40.84-8.52-50.78c-0.42-4.56,11.61-7.43,12.64-3.39
		c2.35,9.25,6.81,40.05,9.03,51.27C107.6,140.33,101.6,141.78,97.12,140.32"/>
	<path class="st8" d="M101.01,81.95c-1.47-2.36-5.42-6.93-9.39-9.39c-1.64,2.7-4.27,8.83-5.2,12.93
		C89.32,85.12,97.83,83.83,101.01,81.95"/>
	<path class="st8" d="M90.31,82.68c0.06,0.89,0.83,4.08,1.14,6.05c0.11,0.74,1.38,0.25,1.93,0.28c6.5,0.32,3.8,0.73,2.91-8.2
		C96.15,79.45,89.96,77.83,90.31,82.68"/>
	<path class="st8" d="M79.92,53.25c3.21,0.15,1.1,3.68,1.23,2.31c0.11-1.21-3.11-0.05-2.19-2.07
		C79.05,53.27,79.65,53.24,79.92,53.25"/>
	<path class="st8" d="M63.48,53.57c-0.52-0.65-1.4-0.42-0.85,0.62c2.23,4.2,8.63,19.43,8.85,23.71c0.01,0.13,0.23-0.08,0.23,0.03
		C72.34,73.51,65.51,56.12,63.48,53.57"/>
	<path class="st14" d="M15.97,39.77c1.08-1.58,2.76-3.28,2.87-3.7c0.07-0.28-0.34-1.97-1.18-4.57c1.91,1.29,3.15,2.46,4.61,3.11
		c7.57-5.1,1.58,0.37,1.56,2.5c1.44,1.08,3.37,2.53,4.56,3.9c-0.07-0.08-3.46-0.6-5.25-1.24c-0.75-0.27-1.06,4.94-1.63,4.75
		c-0.26-0.09-0.55-2.26-1.03-4.89C17.63,39.86,17.05,39.59,15.97,39.77"/>
	<path class="st8" d="M22.14,42.11c0.22-1.03,0.27-4.19,1.19-3.92c0.57,0.16,1.16,0.27,1.74,0.36c0.65,0.11,1.32,0.17,1.99,0.27
		c-1.07-0.94-2.31-1.72-3.49-2.5l-0.11-0.07l-0.01-0.13c-0.04-0.6,0.39-1.46,0.66-1.98c0.17-0.33,0.8-1.34,0.99-1.81
		c-0.66,0.31-2.24,1.54-2.72,1.91l-0.11,0.09l-0.14-0.05c-1.24-0.45-2.41-1.32-3.54-2.04c0.33,0.84,1.09,2.86,1,3.3
		c-0.06,0.29-0.5,0.85-0.69,1.09c-0.41,0.54-0.81,1.08-1.19,1.65c-0.13,0.19-0.25,0.38-0.36,0.57c-0.2,0.34-0.65,0.07-0.45-0.27
		c0.12-0.2,0.25-0.4,0.38-0.6c0.29-0.44,1.72-2.26,1.8-2.55c0.05-0.38-1.04-3.18-1.26-3.74l-0.28-0.71l0.66,0.38
		c1.3,0.76,2.58,1.8,3.98,2.35c0.73-0.56,1.46-1.13,2.25-1.62c0.27-0.17,0.87-0.56,1.15-0.27c0.26,0.27-0.05,0.8-0.18,1.06
		c-0.24,0.46-0.51,0.91-0.76,1.37c-0.24,0.44-0.62,1.17-0.66,1.68c1.19,0.78,3.53,2.23,4.27,3.35l0.09,0.13l-0.16,0
		c-0.45,0.01-0.89-0.06-1.33-0.12c-0.62-0.08-1.24-0.16-1.85-0.26c-0.58-0.09-1.16-0.2-1.73-0.36c-0.16,0.22-0.34,1.61-0.37,1.86
		c-0.06,0.5-0.12,1.01-0.22,1.5c-0.06,0.3-0.19,0.94-0.62,0.82c-0.35-0.1-0.56-1.13-0.64-1.45c-0.23-0.89-0.43-1.78-0.65-2.67
		c-1.24,0.2-2.49,0.6-3.71,0.76l-0.08,0.01l-0.03-0.16l0.08-0.02c1.42-0.38,2.36-0.92,3.9-1.14l0.24-0.03l0.06,0.23
		C21.48,39.47,21.76,41.06,22.14,42.11"/>
	<path class="st14" d="M79.26,12.73c1.48-0.7,3.2-1.11,3.45-1.35c0.17-0.16,0.57-1.48,1.06-3.61c0.78,1.66,1.14,2.96,1.88,4.01
		c7.26-0.39,0.93,0.9,0.04,2.35c0.54,1.32,1.27,3.1,1.52,4.53c-0.02-0.09-2.12-1.82-3.08-2.99c-0.4-0.49-2.75,2.94-3.05,2.58
		c-0.14-0.17,0.55-1.77,1.3-3.76C80.33,13.48,79.75,12.8,79.26,12.73"/>
	<path class="st8" d="M80.02,12.37c1.1,0.25,1.96,1.18,2.85,1.81l0.18,0.13l-0.11,0.19c-0.31,0.53-0.64,1.06-0.96,1.59
		c-0.19,0.32-0.69,1.08-0.89,1.51c0.71-0.38,2.9-2.74,3.38-1.9c0.27,0.47,0.59,0.91,0.91,1.34c0.36,0.49,0.75,0.96,1.13,1.43
		c-0.11-1.3-0.42-2.58-0.71-3.85l-0.03-0.12l0.08-0.1c0.38-0.45,1.24-0.74,1.79-0.91c0.32-0.1,1.35-0.35,1.75-0.51
		c-0.54-0.2-2.65-0.44-3.05-0.48l-0.13-0.01l-0.06-0.12c-0.3-0.61-0.48-1.27-0.64-1.93c-0.13-0.55-0.25-1.09-0.39-1.64
		c-0.32,0.76-1.09,2.56-1.42,2.8c-0.22,0.16-0.86,0.24-1.15,0.29c-0.61,0.1-1.22,0.19-1.82,0.33c-0.2,0.04-0.4,0.09-0.6,0.15
		C80.09,12.37,80.05,12.37,80.02,12.37 M82.41,14.45c-0.5-0.37-1-0.75-1.49-1.14c-0.36-0.28-0.7-0.55-1.07-0.82l-0.3-0.22l0.36,0.07
		c0.01,0,0.01,0,0.02,0c-0.19-0.08-0.22-0.39,0.06-0.46c0.21-0.06,0.42-0.11,0.63-0.15c0.61-0.14,1.23-0.23,1.85-0.33
		c0.18-0.03,0.83-0.12,0.95-0.2c0.24-0.17,1.34-2.78,1.53-3.25l0.27-0.65l0.19,0.68c0.22,0.78,0.39,1.57,0.58,2.35
		c0.14,0.58,0.3,1.17,0.55,1.71c0.63,0.06,3.43,0.28,3.43,0.92c0,0.34-0.54,0.5-0.8,0.58c-0.45,0.15-0.92,0.27-1.37,0.42
		c-0.43,0.14-1.14,0.37-1.49,0.69c0.34,1.5,0.73,3.06,0.74,4.6l0,0.24l-0.49,0.01l0-0.19c-0.12-0.2-0.33-0.41-0.48-0.6
		c-0.37-0.46-0.73-0.91-1.08-1.38c-0.32-0.43-0.64-0.87-0.91-1.34c-0.49,0.01-2.98,2.75-3.43,1.99c-0.17-0.29,0.35-1.1,0.5-1.36
		C81.56,15.89,81.99,15.18,82.41,14.45z"/>
	<path class="st10" d="M91.5,145.79c0.04,0.29,0.93,1.34,0.18,1.45c-0.14,0.02-2.86,0.69-3.06,0.94c-0.03,0.03-0.06,0.07-0.07,0.06
		C95.58,148.04,91.85,145.77,91.5,145.79"/>
	<path class="st10" d="M74.99,92.28c0.18,2.56,3-1.59,0.91-1.1C75.67,91.23,74.96,91.82,74.99,92.28"/>
	<path class="st10" d="M90.3,88.65c-2.19,4.42,5.14-2.42,0.57-0.6C90.52,88.19,90.31,88.63,90.3,88.65"/>
	<path class="st10" d="M101.93,94.05c-0.51-3.17-1.17-5.26-1.44-6.76c-0.45-2.48-3.05-2.18-7.53-1.21c-0.63,0.4-0.17,0.48,0.64,0.4
		c1.97-0.2,5.42-0.59,5.61,0.88c0.52,3.96,2.41,9.35,2.77,13.57c0.35,4.04,3.95,20.37,6.36,32.84L101.93,94.05z"/>
	<path class="st8" d="M88.19,101.78c0.98-0.37,2.26-0.2,3.11-0.41c1.37-0.33,2.3,2.67,0.39,2.47c-0.81-0.09-1.99,0.64-3.14,0.54
		C84.78,104.05,86.64,102.37,88.19,101.78"/>
	<path class="st8" d="M93.26,129.73c0.98-0.37,2.26-0.2,3.11-0.41c1.37-0.33,2.3,2.67,0.39,2.47c-0.81-0.09-1.99,0.64-3.14,0.54
		C89.85,132,91.72,130.32,93.26,129.73"/>
	<path class="st10" d="M87.04,97.58c-0.52-3.11-0.73-5.9-1.11-7.38c-0.59-2.33-3.79-1.92-6.21-1.27c-1.32,0.35-1.07,0.7,0.03,0.55
		c2.37-0.32,5.05-0.23,5.22,1.11c1.79,14.06,5.81,31.85,8.53,45.89L87.04,97.58z"/>
	<path class="st9" d="M98.61,134.32c-2.78-12.23-4.5-28.45-7.02-40.74c-0.34-1.67-0.85-1.68-1.19-0.17
		c2.27,14.69,4.72,28.41,7.1,43.08c0.47,2.88,1.53,3.5,3.87,2.99c1.33-0.29,2.64-0.29,3.93-0.73
		C101.77,138,99.61,138.71,98.61,134.32"/>
	<path class="st9" d="M76.02,88.11c0.7,0.74,5.34-0.61,6.57-0.51c1.3,0.11,0.45-1.8,0.13-1.65c-0.79,0.37-6.74,1.67-6.76,1.69
		C75.78,87.8,75.91,88,76.02,88.11"/>
	<path class="st9" d="M91.76,85.01c0.47,0.49,3.54-0.41,4.35-0.34c0.86,0.07,0.3-1.19,0.08-1.09c-0.53,0.24-4.47,1.11-4.48,1.12
		C91.6,84.81,91.69,84.94,91.76,85.01"/>
	<path class="st10" d="M106.97,140.21c0.05,0.27,0.64,1.3-0.06,1.43c-0.13,0.02-2.38,0.65-2.56,0.89c-0.02,0.03-0.05,0.07-0.07,0.06
		C110.84,142.2,107.29,140.19,106.97,140.21"/>
	<path class="st9" d="M83.77,140.14c-2.78-12.23-4.5-28.45-7.02-40.74c-0.34-1.67-0.85-1.68-1.19-0.17
		c2.27,14.69,4.72,28.41,7.1,43.08c0.47,2.88,1.24,2.64,3.63,2.72c1.73,0.06,2.63-0.12,3.92-0.56
		C86.68,143.73,84.77,144.54,83.77,140.14"/>
	<path class="st10" d="M92.03,74.47c-0.13-0.23,6.48,4.66,4.7,4.69c-1.28,0.02-1.35-0.32-2.5-1.8
		C93.84,76.86,92.37,75.09,92.03,74.47"/>
	<path class="st10" d="M77.05,76.66c-0.1,0.13,4.51,3.6,3.04,4c-0.3,0.08-2.87-3.24-2.89-3.66C77.2,76.92,77.04,76.68,77.05,76.66"
		/>
	<path class="st14" d="M131.15,34.62c1.81,0.62,3.89,1.79,4.33,1.79c0.29,0,1.81-0.85,4.09-2.35c-0.73,2.18-1.53,3.68-1.77,5.27
		c6.93,5.94,0.06,1.62-2,2.17c-0.66,1.67-1.54,3.92-2.55,5.44c0.06-0.09-0.34-3.49-0.2-5.39c0.06-0.79-5.05,0.29-5.01-0.31
		c0.02-0.27,2.03-1.13,4.44-2.29C131.51,36.25,131.61,35.62,131.15,34.62"/>
	<path class="st8" d="M130.53,41.19c1.05-0.06,4.11-0.85,4.1,0.11c-0.01,0.59,0.05,1.18,0.11,1.77c0.07,0.66,0.18,1.32,0.27,1.99
		c0.62-1.28,1.05-2.69,1.48-4.03l0.04-0.12l0.12-0.04c0.57-0.19,1.51-0.01,2.08,0.11c0.36,0.08,1.51,0.41,2.01,0.47
		c-0.47-0.55-2.08-1.75-2.56-2.12l-0.12-0.09l0.01-0.14c0.11-1.32,0.63-2.68,1.03-3.95c-0.72,0.54-2.47,1.81-2.91,1.84
		c-0.29,0.02-0.95-0.26-1.24-0.37c-0.63-0.25-1.26-0.5-1.9-0.71c-0.22-0.07-0.43-0.14-0.65-0.2c-0.38-0.1-0.24-0.61,0.14-0.51
		c0.23,0.06,0.45,0.13,0.67,0.2c0.5,0.16,2.64,1.06,2.93,1.06c0.38-0.05,2.79-1.85,3.27-2.21l0.61-0.46l-0.2,0.74
		c-0.39,1.45-1.05,2.97-1.21,4.46c0.74,0.55,1.48,1.11,2.16,1.74c0.23,0.21,0.77,0.69,0.56,1.04c-0.19,0.32-0.78,0.17-1.07,0.1
		c-0.51-0.11-1.02-0.25-1.53-0.37c-0.49-0.11-1.29-0.29-1.79-0.19c-0.43,1.36-1.21,3.99-2.1,5l-0.1,0.12l-0.05-0.15
		c-0.13-0.43-0.18-0.87-0.24-1.31c-0.09-0.62-0.17-1.23-0.24-1.85c-0.06-0.58-0.12-1.17-0.11-1.76c-0.26-0.09-1.64,0.1-1.89,0.14
		c-0.5,0.07-1,0.15-1.51,0.19c-0.3,0.02-0.96,0.07-0.96-0.38c0-0.37,0.94-0.84,1.23-1c0.8-0.45,1.61-0.89,2.41-1.33
		c-0.52-1.14-1.24-2.24-1.72-3.37l-0.03-0.08l0.15-0.07l0.04,0.07c0.75,1.26,1.51,2.03,2.14,3.46l0.1,0.22l-0.21,0.12
		C132.9,39.86,131.44,40.54,130.53,41.19"/>
</g>
</svg>
