<?xml version="1.0" encoding="utf-8"?>
<!-- Generator: Adobe Illustrator 20.0.0, SVG Export Plug-In . SVG Version: 6.00 Build 0)  -->
<svg version="1.1" xmlns="http://www.w3.org/2000/svg" xmlns:xlink="http://www.w3.org/1999/xlink" x="0px" y="0px"
	 viewBox="0 0 1200 391.9" style="enable-background:new 0 0 1200 391.9;" xml:space="preserve">
<style type="text/css">
	.st0{fill:#F1F2F2;}
	.st1{fill:#FFFFFF;stroke:#FFFFFF;stroke-miterlimit:10;}
	.st2{fill:#6D6E71;}
	.st3{fill:#FFFFFF;}
	.st4{fill:#FFFFFF;stroke:#231F20;stroke-miterlimit:10;}
	.st5{fill:#D1D3D4;}
	.st6{fill:none;stroke:#000000;stroke-miterlimit:10;}
	.st7{fill:#E6E7E8;}
	.st8{fill:none;stroke:#939598;stroke-miterlimit:10;}
	.st9{fill:#939598;}
	.st10{fill:#70758D;}
	.st11{opacity:0.6;}
	.st12{fill:#2E375D;}
	.st13{opacity:0.6;fill:#2E375D;}
	.st14{opacity:0.3;fill:none;stroke:#2E375D;stroke-miterlimit:10;}
	.st15{fill:#2CE5B5;}
	.st16{fill:#00C6AD;}
	.st17{fill:#25B0E5;}
	.st18{fill:#4275F4;}
	.st19{fill:none;}
	.st20{fill:none;stroke:#AFAFAF;stroke-miterlimit:10;}
	.st21{fill:none;stroke:#FFFFFF;stroke-miterlimit:10;}
	.st22{fill:#DCDCDC;}
	.st23{fill:none;stroke:#DCDCDC;stroke-miterlimit:10;}
	.st24{fill:#A7A9AC;}
	.st25{fill:#00AEEF;}
	.st26{fill:#BCBEC0;}
	.st27{opacity:0.6;fill:#FFFFFF;}
	.st28{opacity:0.3;fill:none;stroke:#2E375D;stroke-width:3;stroke-miterlimit:10;}
	.st29{fill:none;stroke:#70758D;stroke-width:5;stroke-miterlimit:10;}
	.st30{opacity:0.3;fill:#2E375D;}
	.st31{opacity:0.3;}
	.st32{fill:none;stroke:#2E375D;stroke-width:4;stroke-linecap:round;stroke-miterlimit:10;}
	.st33{fill:#808285;}
	.st34{fill:#58595B;}
	.st35{fill:#58595B;stroke:#414042;stroke-miterlimit:10;}
	.st36{fill:#414042;stroke:#414042;stroke-miterlimit:10;}
	.st37{fill:#58595B;stroke:#414042;stroke-width:2;stroke-miterlimit:10;}
	.st38{fill:#414042;}
	.st39{fill:#BC6D4F;}
	.st40{fill:#E23940;}
	.st41{fill:#5161AC;}
	.st42{fill:none;stroke:#58595B;stroke-miterlimit:10;}
	.st43{fill:#6CC06A;}
	.st44{fill:#F47320;}
	.st45{fill:#58595B;stroke:#000000;stroke-miterlimit:10;}
	.st46{fill:#FFE01B;}
	.st47{fill:#58595B;stroke:#231F20;stroke-miterlimit:10;}
	.st48{stroke:#231F20;stroke-miterlimit:10;}
	.st49{fill:none;stroke:#58595B;stroke-width:0.5;stroke-miterlimit:10;}
	.st50{fill:#7D351F;}
	.st51{fill:#58595B;stroke:#BCBEC0;stroke-miterlimit:10;}
	.st52{fill:none;stroke:#BCBEC0;stroke-width:0.5;stroke-miterlimit:10;}
	.st53{fill:none;stroke:#58595B;stroke-width:8;stroke-miterlimit:10;}
	.st54{fill:none;stroke:#58595B;stroke-width:2;stroke-miterlimit:10;}
	.st55{fill:#414042;stroke:#414042;stroke-width:2;stroke-miterlimit:10;}
	.st56{fill:#414042;stroke:#414042;stroke-width:0.25;stroke-miterlimit:10;}
	.st57{fill:#808285;stroke:#414042;stroke-width:0.25;stroke-miterlimit:10;}
	.st58{fill:none;stroke:#414042;stroke-width:0.25;stroke-miterlimit:10;}
	.st59{fill:none;stroke:#808285;stroke-width:0.15;stroke-miterlimit:10;}
	.st60{fill:#F2E651;}
	.st61{fill:#231F20;}
	.st62{fill:url(#SVGID_1_);}
	.st63{fill:url(#SVGID_2_);}
	.st64{fill:none;stroke:#BCBEC0;stroke-width:9;stroke-miterlimit:10;}
	.st65{fill:#8B5E3C;}
	.st66{fill:url(#SVGID_3_);}
	.st67{fill:url(#SVGID_4_);}
	.st68{fill:url(#SVGID_5_);}
	.st69{fill:url(#SVGID_6_);}
	.st70{fill:url(#SVGID_7_);}
	.st71{fill:url(#SVGID_8_);}
	.st72{fill:url(#SVGID_9_);}
	.st73{fill:url(#SVGID_10_);}
	.st74{fill:url(#SVGID_11_);}
	.st75{fill:url(#SVGID_12_);}
	.st76{fill:url(#SVGID_13_);}
	.st77{fill:url(#SVGID_14_);}
	.st78{display:none;}
	.st79{display:inline;fill:url(#SVGID_15_);}
	.st80{display:inline;fill:#00AEEF;}
	.st81{display:inline;fill:#2E375D;}
	.st82{display:inline;}
	.st83{fill:none;stroke:#414042;stroke-width:7;stroke-miterlimit:10;}
	.st84{fill:none;stroke:#414042;stroke-width:5;stroke-miterlimit:10;}
	.st85{fill:none;stroke:#231F20;stroke-width:6;stroke-miterlimit:10;}
	.st86{fill:#A97C50;}
	.st87{fill:none;stroke:#FFFFFF;stroke-width:0.75;stroke-miterlimit:10;}
	.st88{display:inline;fill:#A97C50;}
	.st89{fill:none;stroke:#58595B;stroke-width:7;stroke-miterlimit:10;}
	.st90{fill:#FFFFFF;stroke:#2CE5B5;stroke-width:2;stroke-miterlimit:10;}
	.st91{display:inline;fill:#FFFFFF;}
	.st92{display:inline;fill:#231F20;}
	.st93{fill:#2D3340;}
	.st94{fill:url(#SVGID_16_);}
	.st95{fill:url(#SVGID_17_);}
	.st96{fill:url(#SVGID_18_);}
	.st97{fill:url(#SVGID_19_);}
	.st98{fill:url(#SVGID_20_);}
	.st99{fill:url(#SVGID_21_);}
	.st100{fill:url(#SVGID_22_);}
	.st101{fill:url(#SVGID_23_);}
	.st102{fill:none;stroke:#BCBEC0;stroke-width:15;stroke-miterlimit:10;}
	.st103{display:inline;fill:#F1F2F2;}
	.st104{fill:#3E46D7;}
	.st105{fill:#E1E1E1;}
	.st106{opacity:0.15;fill:url(#SVGID_24_);}
	.st107{opacity:0.5;fill:url(#SVGID_25_);}
	.st108{fill:url(#SVGID_26_);}
	.st109{opacity:3.000000e-02;fill:none;stroke:#FFFFFF;stroke-width:2;stroke-miterlimit:10;}
	.st110{fill:#FBDB84;}
	.st111{display:inline;opacity:0.6;}
	.st112{display:inline;opacity:0.6;fill:#2E375D;}
	.st113{fill:#F3F3F3;}
	.st114{fill:url(#SVGID_27_);}
	.st115{fill:url(#SVGID_28_);}
	.st116{fill:#EEBDEF;}
	.st117{fill:#E6CC81;}
	.st118{opacity:0.8;fill:#E8A0E8;}
	.st119{fill:#EE2A7B;}
	.st120{fill:url(#SVGID_29_);}
	.st121{fill:url(#SVGID_30_);}
	.st122{fill:url(#SVGID_31_);}
	.st123{fill:#EC008C;}
	.st124{opacity:0.8;fill:url(#SVGID_32_);}
	.st125{opacity:0.8;fill:url(#SVGID_33_);}
	.st126{opacity:0.8;fill:url(#SVGID_34_);}
	.st127{fill:#F28CBB;}
	.st128{fill:#FAF6F3;}
	.st129{fill:url(#SVGID_35_);}
	.st130{fill:#2D271A;}
	.st131{fill:#514E3F;}
	.st132{fill:url(#SVGID_36_);}
	.st133{fill:url(#SVGID_37_);}
</style>
<g id="Layer_2">
	<rect x="50" class="st2" width="1100" height="741.5"/>
</g>
<g id="Layer_1">
	<rect x="50" class="st3" width="1100" height="391.9"/>
	<g>
		<path class="st9" d="M130.9,38.6V27.2h3.3c1.4,0,2.5,0.5,3.4,1.4s1.4,2.1,1.4,3.6v1.5c0,1.5-0.5,2.6-1.4,3.6s-2.1,1.4-3.4,1.4
			H130.9z M131.9,28v9.8h2.4c1.1,0,2.1-0.4,2.8-1.2s1.1-1.8,1.1-3v-1.5c0-1.2-0.4-2.2-1.1-3c-0.7-0.8-1.7-1.2-2.8-1.2H131.9z"/>
		<path class="st9" d="M142.2,27.7h-0.9v-1.3h0.9V27.7z M142.2,38.6h-0.9v-8.5h0.9V38.6z"/>
		<path class="st9" d="M150.2,38.6c-0.1-0.3-0.1-0.5-0.1-0.7c0-0.2,0-0.4,0-0.6c-0.3,0.4-0.7,0.8-1.3,1.1c-0.5,0.3-1.1,0.4-1.8,0.4
			c-0.8,0-1.5-0.2-1.9-0.7c-0.5-0.4-0.7-1-0.7-1.8c0-0.8,0.3-1.4,1-1.9c0.7-0.5,1.6-0.7,2.7-0.7h1.9v-1c0-0.6-0.2-1.1-0.6-1.4
			c-0.4-0.3-0.9-0.5-1.6-0.5c-0.7,0-1.2,0.2-1.6,0.5s-0.6,0.7-0.6,1.2l-0.9,0l0,0c0-0.6,0.3-1.2,0.9-1.7c0.6-0.5,1.4-0.7,2.3-0.7
			c0.9,0,1.7,0.2,2.3,0.7c0.6,0.5,0.9,1.2,0.9,2v4.2c0,0.3,0,0.6,0.1,0.9c0,0.3,0.1,0.6,0.2,0.8H150.2z M147.1,37.9
			c0.7,0,1.3-0.2,1.8-0.5s0.9-0.7,1.1-1.2v-1.8h-1.9c-0.8,0-1.5,0.2-2,0.5s-0.8,0.8-0.8,1.3c0,0.5,0.2,0.8,0.5,1.1
			C146.1,37.8,146.5,37.9,147.1,37.9z"/>
		<path class="st9" d="M153.1,34.4c0-1.3,0.3-2.4,0.9-3.2c0.6-0.8,1.4-1.2,2.4-1.2c0.6,0,1.1,0.1,1.6,0.4s0.8,0.6,1.1,1.1l0.1-1.4
			h0.8v8.3c0,1.1-0.3,1.9-0.9,2.6s-1.4,0.9-2.5,0.9c-0.4,0-0.8,0-1.3-0.1c-0.5-0.1-0.9-0.2-1.2-0.4l0.2-0.8c0.3,0.2,0.7,0.3,1.1,0.4
			c0.4,0.1,0.8,0.1,1.2,0.1c0.8,0,1.4-0.2,1.9-0.7c0.4-0.5,0.6-1.1,0.6-2v-1.1c-0.3,0.4-0.6,0.8-1.1,1s-0.9,0.3-1.5,0.3
			c-1,0-1.8-0.4-2.4-1.1c-0.6-0.8-0.9-1.8-0.9-3V34.4z M154,34.6c0,1,0.2,1.8,0.6,2.4c0.4,0.6,1,0.9,1.9,0.9c0.6,0,1.1-0.1,1.5-0.4
			c0.4-0.3,0.7-0.7,0.9-1.2v-3.9c-0.2-0.5-0.5-0.9-0.9-1.2c-0.4-0.3-0.9-0.5-1.5-0.5c-0.8,0-1.4,0.3-1.9,1c-0.4,0.7-0.6,1.6-0.6,2.6
			V34.6z"/>
		<path class="st9" d="M161.8,34.2c0-1.2,0.3-2.3,1-3.1c0.7-0.8,1.6-1.2,2.7-1.2c1.1,0,2,0.4,2.7,1.2c0.7,0.8,1,1.8,1,3.1v0.3
			c0,1.3-0.3,2.3-1,3.1s-1.6,1.2-2.7,1.2c-1.1,0-2-0.4-2.7-1.2c-0.7-0.8-1-1.8-1-3.1V34.2z M162.8,34.5c0,1,0.2,1.8,0.7,2.5
			c0.5,0.7,1.2,1,2.1,1c0.9,0,1.6-0.3,2.1-1c0.5-0.7,0.7-1.5,0.7-2.5v-0.3c0-1-0.3-1.8-0.8-2.5c-0.5-0.7-1.2-1-2.1-1s-1.6,0.3-2.1,1
			c-0.5,0.7-0.7,1.5-0.7,2.5V34.5z"/>
		<path class="st9" d="M172.1,30.1l0.1,1.5c0.3-0.5,0.6-0.9,1.1-1.2s1-0.4,1.6-0.4c0.9,0,1.6,0.3,2.1,0.8c0.5,0.6,0.7,1.4,0.7,2.6
			v5.1h-0.9v-5.2c0-1-0.2-1.7-0.5-2.1c-0.4-0.4-0.9-0.6-1.5-0.6c-0.7,0-1.2,0.2-1.6,0.5c-0.4,0.3-0.7,0.8-0.9,1.4v5.9h-0.9v-8.5
			H172.1z"/>
		<path class="st9" d="M190.4,35.4h-5.2l-1.2,3.2h-1l4.3-11.4h0.9l4.3,11.4h-1L190.4,35.4z M185.5,34.6h4.6l-2.3-6.2h0L185.5,34.6z"
			/>
		<path class="st9" d="M195.1,38.6h-0.9V26.4h0.9V38.6z"/>
		<path class="st9" d="M198.7,38.6h-0.9V26.4h0.9V38.6z"/>
		<path class="st9" d="M204.5,38.8c-1.1,0-1.9-0.4-2.6-1.2c-0.7-0.8-1.1-1.8-1.1-3v-0.4c0-1.2,0.3-2.2,1-3s1.5-1.2,2.5-1.2
			c1,0,1.9,0.3,2.4,1s0.9,1.5,0.9,2.6v0.8h-6v0.2c0,1,0.3,1.7,0.8,2.4c0.5,0.6,1.2,1,2,1c0.6,0,1.1-0.1,1.5-0.2
			c0.4-0.2,0.8-0.4,1.1-0.7l0.4,0.6c-0.3,0.3-0.7,0.6-1.2,0.8C205.7,38.7,205.1,38.8,204.5,38.8z M204.4,30.8
			c-0.7,0-1.3,0.3-1.7,0.8c-0.5,0.5-0.7,1.2-0.8,2l0,0h5v-0.2c0-0.7-0.2-1.3-0.6-1.8C205.7,31,205.1,30.8,204.4,30.8z"/>
		<path class="st9" d="M211.8,36.3l0.3,1h0l2.6-7.2h1l-3.7,9.8c-0.2,0.6-0.5,1.1-0.9,1.5c-0.3,0.4-0.9,0.6-1.5,0.6
			c-0.1,0-0.2,0-0.4,0s-0.3,0-0.3-0.1l0.1-0.8c0.1,0,0.2,0,0.3,0c0.1,0,0.2,0,0.3,0c0.4,0,0.7-0.1,1-0.4c0.2-0.3,0.5-0.7,0.6-1.1
			l0.4-1.1l-3.3-8.3h1L211.8,36.3z"/>
		<path class="st9" d="M223.4,35.4l0.3,1.7l0,0l0.4-1.8l2.4-8.2h0.9l2.4,8.2l0.4,1.8l0,0l0.4-1.8l2.1-8.2h1l-2.9,11.4h-0.9l-2.6-8.7
			l-0.3-1.2h0l-0.3,1.2l-2.6,8.7h-0.9l-2.9-11.4h1L223.4,35.4z"/>
		<path class="st9" d="M238.4,38.8c-1.1,0-1.9-0.4-2.6-1.2s-1.1-1.8-1.1-3v-0.4c0-1.2,0.3-2.2,1-3s1.5-1.2,2.5-1.2
			c1,0,1.9,0.3,2.4,1s0.9,1.5,0.9,2.6v0.8h-6v0.2c0,1,0.3,1.7,0.8,2.4s1.2,1,2,1c0.6,0,1.1-0.1,1.5-0.2s0.8-0.4,1.1-0.7l0.4,0.6
			c-0.3,0.3-0.7,0.6-1.2,0.8S239.1,38.8,238.4,38.8z M238.3,30.8c-0.7,0-1.3,0.3-1.7,0.8c-0.5,0.5-0.7,1.2-0.8,2l0,0h5v-0.2
			c0-0.7-0.2-1.3-0.6-1.8C239.6,31,239,30.8,238.3,30.8z"/>
		<path class="st9" d="M250.3,34.6c0,1.3-0.3,2.3-0.9,3s-1.4,1.1-2.4,1.1c-0.6,0-1.2-0.1-1.6-0.4s-0.8-0.6-1.1-1.1l-0.1,1.3h-0.8
			V26.4h0.9v5.1c0.3-0.5,0.6-0.8,1.1-1.1s1-0.4,1.6-0.4c1,0,1.8,0.4,2.4,1.2c0.6,0.8,0.9,1.9,0.9,3.2V34.6z M249.4,34.4
			c0-1.1-0.2-2-0.6-2.6c-0.4-0.7-1-1-1.9-1c-0.7,0-1.2,0.2-1.6,0.5c-0.4,0.3-0.7,0.7-0.9,1.2v3.8c0.2,0.5,0.5,0.9,0.9,1.2
			s0.9,0.4,1.5,0.4c0.8,0,1.4-0.3,1.8-0.9s0.6-1.4,0.6-2.4V34.4z"/>
		<path class="st9" d="M257.5,36.4c0-0.4-0.2-0.7-0.5-1s-0.9-0.5-1.8-0.7c-1-0.2-1.8-0.5-2.2-0.9s-0.7-0.9-0.7-1.5
			c0-0.6,0.3-1.2,0.8-1.6s1.3-0.7,2.2-0.7c1,0,1.7,0.2,2.3,0.7s0.8,1.1,0.8,1.8l0,0h-0.9c0-0.5-0.2-0.9-0.6-1.2s-0.9-0.5-1.6-0.5
			c-0.7,0-1.2,0.1-1.5,0.4c-0.3,0.3-0.5,0.6-0.5,1c0,0.4,0.1,0.7,0.4,1s0.9,0.5,1.8,0.7c1,0.2,1.8,0.5,2.3,0.9
			c0.5,0.4,0.8,0.9,0.8,1.6c0,0.7-0.3,1.3-0.9,1.7s-1.3,0.7-2.3,0.7c-1,0-1.8-0.2-2.4-0.7s-0.9-1.1-0.8-1.8l0,0h0.9
			c0,0.6,0.3,1,0.7,1.3s1,0.4,1.6,0.4c0.7,0,1.2-0.1,1.6-0.4C257.3,37.2,257.5,36.9,257.5,36.4z"/>
		<path class="st9" d="M261.5,31.6c0.3-0.5,0.7-0.9,1.1-1.2s1-0.4,1.6-0.4c0.9,0,1.6,0.3,2.1,0.8s0.7,1.4,0.7,2.6v5.2h-0.9v-5.2
			c0-0.9-0.2-1.6-0.5-2c-0.4-0.4-0.9-0.6-1.5-0.6c-0.6,0-1.2,0.2-1.6,0.5c-0.4,0.3-0.7,0.8-0.9,1.3v6h-0.9V26.4h0.9V31.6z"/>
		<path class="st9" d="M268.9,34.2c0-1.2,0.3-2.3,1-3.1s1.6-1.2,2.7-1.2c1.1,0,2,0.4,2.7,1.2s1,1.8,1,3.1v0.3c0,1.3-0.3,2.3-1,3.1
			s-1.6,1.2-2.7,1.2c-1.1,0-2-0.4-2.7-1.2s-1-1.8-1-3.1V34.2z M269.9,34.5c0,1,0.2,1.8,0.7,2.5s1.2,1,2.1,1c0.9,0,1.6-0.3,2.1-1
			s0.7-1.5,0.7-2.5v-0.3c0-1-0.3-1.8-0.8-2.5c-0.5-0.7-1.2-1-2.1-1s-1.6,0.3-2.1,1c-0.5,0.7-0.7,1.5-0.7,2.5V34.5z"/>
		<path class="st9" d="M285.2,34.6c0,1.3-0.3,2.3-0.9,3s-1.4,1.1-2.4,1.1c-0.6,0-1.1-0.1-1.6-0.3s-0.8-0.5-1.1-1v4.4h-0.9V30.1h0.8
			l0.1,1.3c0.3-0.5,0.6-0.8,1.1-1.1s1-0.4,1.6-0.4c1,0,1.8,0.4,2.4,1.2c0.6,0.8,0.9,1.9,0.9,3.2V34.6z M284.2,34.4
			c0-1.1-0.2-2-0.6-2.6c-0.4-0.7-1.1-1-1.9-1c-0.6,0-1.1,0.1-1.5,0.5c-0.4,0.3-0.7,0.7-0.9,1.2v4.1c0.2,0.5,0.5,0.8,0.9,1.1
			c0.4,0.3,0.9,0.4,1.5,0.4c0.8,0,1.4-0.3,1.9-0.9s0.6-1.4,0.6-2.4V34.4z"/>
		<path class="st9" d="M291,39.6h-0.9l4.8-12.4h0.8L291,39.6z"/>
		<path class="st9" d="M304.5,38c0.6,0,1.2-0.2,1.6-0.5s0.7-0.8,0.7-1.5h0.8l0,0c0,0.8-0.3,1.4-0.9,2s-1.4,0.8-2.3,0.8
			c-1.2,0-2-0.4-2.7-1.2s-0.9-1.8-0.9-3v-0.3c0-1.2,0.3-2.2,0.9-3s1.5-1.2,2.7-1.2c0.9,0,1.7,0.3,2.3,0.8s0.9,1.3,0.9,2.2l0,0h-0.8
			c0-0.7-0.2-1.2-0.7-1.6s-1-0.6-1.7-0.6c-0.9,0-1.6,0.3-2,1c-0.4,0.6-0.7,1.5-0.7,2.4v0.3c0,1,0.2,1.8,0.6,2.5
			C302.9,37.6,303.6,38,304.5,38z"/>
		<path class="st9" d="M315,38.6c-0.1-0.3-0.1-0.5-0.1-0.7s0-0.4,0-0.6c-0.3,0.4-0.7,0.8-1.3,1.1s-1.1,0.4-1.8,0.4
			c-0.8,0-1.5-0.2-1.9-0.7s-0.7-1-0.7-1.8c0-0.8,0.3-1.4,1-1.9s1.6-0.7,2.7-0.7h1.9v-1c0-0.6-0.2-1.1-0.6-1.4s-0.9-0.5-1.6-0.5
			c-0.7,0-1.2,0.2-1.6,0.5s-0.6,0.7-0.6,1.2l-0.9,0l0,0c0-0.6,0.3-1.2,0.9-1.7s1.4-0.7,2.3-0.7c0.9,0,1.7,0.2,2.3,0.7s0.9,1.2,0.9,2
			v4.2c0,0.3,0,0.6,0.1,0.9s0.1,0.6,0.2,0.8H315z M312,37.9c0.7,0,1.3-0.2,1.8-0.5s0.9-0.7,1.1-1.2v-1.8H313c-0.8,0-1.5,0.2-2,0.5
			s-0.8,0.8-0.8,1.3c0,0.5,0.2,0.8,0.5,1.1S311.4,37.9,312,37.9z"/>
		<path class="st9" d="M322.2,30.9l-0.7,0c-0.6,0-1.1,0.2-1.4,0.5s-0.6,0.8-0.8,1.4v5.8h-0.9v-8.5h0.8l0.1,1.4v0.1
			c0.2-0.5,0.6-0.9,1-1.2s0.9-0.4,1.5-0.4c0.1,0,0.2,0,0.3,0s0.2,0,0.3,0.1L322.2,30.9z"/>
		<path class="st9" d="M325.4,28v2.2h1.9v0.8h-1.9v5.5c0,0.6,0.1,0.9,0.3,1.2s0.5,0.3,0.8,0.3c0.2,0,0.3,0,0.4,0s0.3,0,0.5-0.1
			l0.1,0.7c-0.2,0.1-0.3,0.1-0.6,0.2s-0.4,0.1-0.7,0.1c-0.6,0-1.1-0.2-1.4-0.6s-0.5-1-0.5-1.8v-5.5H323v-0.8h1.5V28H325.4z"/>
	</g>
	<g>
		<rect x="573.3" y="63.3" class="st14" width="56.5" height="56.5"/>
		<g class="st11">
			<path class="st12" d="M603.6,97.6h-3.4v-14h-3.5v-2.4l6.9-0.6V97.6z"/>
		</g>
		<rect x="572.8" y="113.9" class="st5" width="57.3" height="6.3"/>
	</g>
	<g>
		<rect x="573.3" y="144.2" class="st14" width="56.5" height="56.5"/>
		<g class="st11">
			<path class="st12" d="M603.6,178.5h-3.4v-14h-3.5v-2.4l6.9-0.6V178.5z"/>
		</g>
		<rect x="572.8" y="194.8" class="st5" width="57.3" height="6.3"/>
	</g>
	<g>
		<rect x="573.3" y="224.9" class="st14" width="56.5" height="56.5"/>
		<g class="st11">
			<path class="st12" d="M603.6,259.2h-3.4v-14h-3.5v-2.4l6.9-0.6V259.2z"/>
		</g>
		<rect x="572.8" y="275.5" class="st5" width="57.3" height="6.3"/>
	</g>
	<path class="st5" d="M259.8,121.5H132.5c-1.7,0-3-1.3-3-3V67.8c0-1.7,1.3-3,3-3h127.4c1.7,0,3,1.3,3,3v50.7
		C262.8,120.2,261.5,121.5,259.8,121.5z"/>
	<line class="st20" x1="129.5" y1="132" x2="736.5" y2="132"/>
	<g>
		<circle class="st9" cx="108.3" cy="93.2" r="6.8"/>
		<g>
			<line class="st21" x1="105.5" y1="90.3" x2="111.2" y2="96"/>
			<line class="st21" x1="105.5" y1="96" x2="111.2" y2="90.3"/>
		</g>
	</g>
	<rect x="756.5" y="48" class="st22" width="313.5" height="296"/>
	<g>
		<path class="st3" d="M1029.6,318.4H796.8c-1.7,0-3-1.4-3-3V265c0-1.7,1.4-3,3-3h232.8c1.7,0,3,1.4,3,3v50.4
			C1032.7,317.1,1031.3,318.4,1029.6,318.4z"/>
		<g class="st11">
			<path class="st12" d="M863.3,294.5c0.7,0,1.3-0.2,1.7-0.6c0.4-0.4,0.6-1,0.6-1.7h3.6l0,0.1c0,1.5-0.5,2.7-1.7,3.8
				s-2.6,1.5-4.3,1.5c-2.2,0-3.9-0.7-5.1-2.1c-1.2-1.4-1.8-3.2-1.8-5.4v-0.4c0-2.2,0.6-4,1.8-5.4s2.9-2.1,5.1-2.1
				c1.8,0,3.3,0.5,4.4,1.6c1.1,1,1.7,2.4,1.6,4.1l0,0.1h-3.6c0-0.8-0.2-1.4-0.6-1.9c-0.4-0.5-1-0.8-1.7-0.8c-1.1,0-1.8,0.4-2.2,1.2
				c-0.4,0.8-0.7,1.9-0.7,3.2v0.4c0,1.3,0.2,2.4,0.7,3.2C861.5,294.1,862.2,294.5,863.3,294.5z"/>
			<path class="st12" d="M875.5,284.4c0.5-0.7,1-1.2,1.7-1.6c0.7-0.4,1.4-0.6,2.2-0.6c1.5,0,2.8,0.5,3.6,1.5c0.9,1,1.3,2.6,1.3,4.8
				v8.8h-4v-8.8c0-1.2-0.2-2-0.6-2.4c-0.4-0.5-1-0.7-1.8-0.7c-0.5,0-1,0.1-1.4,0.3c-0.4,0.2-0.8,0.5-1,0.8v10.9h-4V276h4V284.4z"/>
			<path class="st12" d="M893.9,297.6c-2.1,0-3.8-0.7-5.1-2.1c-1.3-1.4-1.9-3.1-1.9-5.2v-0.5c0-2.2,0.6-4,1.8-5.4
				c1.2-1.4,2.8-2.1,4.9-2.1c2,0,3.5,0.6,4.6,1.8c1.1,1.2,1.7,2.8,1.7,4.9v2.2H891l0,0.1c0.1,1,0.4,1.8,1,2.4
				c0.6,0.6,1.4,0.9,2.4,0.9c0.9,0,1.6-0.1,2.2-0.3c0.6-0.2,1.2-0.5,1.9-0.8l1.1,2.5c-0.6,0.5-1.4,0.9-2.4,1.2
				C896.2,297.4,895.1,297.6,893.9,297.6z M893.6,285.3c-0.7,0-1.3,0.3-1.8,0.8c-0.4,0.6-0.7,1.3-0.8,2.2l0,0.1h4.9v-0.4
				c0-0.8-0.2-1.5-0.6-2S894.4,285.3,893.6,285.3z"/>
			<path class="st12" d="M908.4,294.5c0.7,0,1.3-0.2,1.7-0.6c0.4-0.4,0.6-1,0.6-1.7h3.6l0,0.1c0,1.5-0.5,2.7-1.7,3.8
				s-2.6,1.5-4.3,1.5c-2.2,0-3.9-0.7-5.1-2.1c-1.2-1.4-1.8-3.2-1.8-5.4v-0.4c0-2.2,0.6-4,1.8-5.4s2.9-2.1,5.1-2.1
				c1.8,0,3.3,0.5,4.4,1.6c1.1,1,1.7,2.4,1.6,4.1l0,0.1h-3.6c0-0.8-0.2-1.4-0.6-1.9c-0.4-0.5-1-0.8-1.7-0.8c-1.1,0-1.8,0.4-2.2,1.2
				c-0.4,0.8-0.7,1.9-0.7,3.2v0.4c0,1.3,0.2,2.4,0.7,3.2C906.6,294.1,907.3,294.5,908.4,294.5z"/>
			<path class="st12" d="M921.8,291.1h-1.1v6.2h-4V276h4v12.1h1l3.4-5.6h4.6l-4.7,6.7l5.5,8.1h-4.6L921.8,291.1z"/>
			<path class="st12" d="M931.1,289.8c0-2.2,0.6-4,1.8-5.4s2.9-2.1,5.1-2.1c2.2,0,3.9,0.7,5.1,2.1c1.2,1.4,1.9,3.2,1.9,5.4v0.3
				c0,2.2-0.6,4-1.9,5.4c-1.2,1.4-2.9,2.1-5.1,2.1c-2.2,0-3.9-0.7-5.1-2.1c-1.2-1.4-1.9-3.2-1.9-5.4V289.8z M935,290
				c0,1.3,0.2,2.4,0.7,3.2c0.5,0.8,1.2,1.2,2.3,1.2c1,0,1.8-0.4,2.3-1.2c0.5-0.8,0.7-1.9,0.7-3.2v-0.3c0-1.3-0.2-2.4-0.7-3.2
				c-0.5-0.8-1.2-1.2-2.3-1.2c-1,0-1.8,0.4-2.3,1.2s-0.7,1.9-0.7,3.2V290z"/>
			<path class="st12" d="M956.5,295.2c-0.5,0.8-1,1.4-1.7,1.8c-0.7,0.4-1.5,0.6-2.4,0.6c-1.6,0-2.8-0.5-3.7-1.5
				c-0.9-1-1.3-2.5-1.3-4.7v-8.9h4v9c0,1.1,0.2,1.9,0.5,2.3c0.4,0.5,0.9,0.7,1.6,0.7c0.6,0,1.2-0.1,1.6-0.3c0.5-0.2,0.8-0.5,1.1-0.9
				v-10.8h4v14.8h-3.4L956.5,295.2z"/>
			<path class="st12" d="M968,278.9v3.6h2.5v2.8H968v7.5c0,0.6,0.1,1,0.4,1.2c0.2,0.2,0.6,0.4,1,0.4c0.2,0,0.4,0,0.5,0
				s0.3-0.1,0.5-0.1l0.3,2.9c-0.4,0.1-0.8,0.2-1.2,0.3s-0.8,0.1-1.2,0.1c-1.4,0-2.4-0.4-3.2-1.1c-0.7-0.8-1.1-2-1.1-3.6v-7.5h-2.2
				v-2.8h2.2v-3.6H968z"/>
		</g>
	</g>
	<g>
		<path class="st9" d="M811.2,85.8L811.2,85.8c-0.2,2.2-0.9,3.9-2.3,5.1s-3.1,1.8-5.4,1.8c-2.4,0-4.3-0.9-5.7-2.6s-2.2-3.9-2.2-6.7
			v-3.5c0-2.7,0.7-4.9,2.2-6.7s3.4-2.6,5.7-2.6c2.3,0,4.1,0.6,5.4,1.8s2.1,2.9,2.3,5.1l0,0.1h-1.6c-0.2-1.8-0.8-3.1-1.8-4.1
			c-1-0.9-2.4-1.4-4.2-1.4c-1.9,0-3.4,0.7-4.5,2.2c-1.1,1.4-1.7,3.3-1.7,5.5v3.5c0,2.3,0.6,4.1,1.7,5.6c1.1,1.4,2.6,2.2,4.5,2.2
			c1.8,0,3.2-0.5,4.2-1.4c1-0.9,1.6-2.3,1.8-4.1H811.2z"/>
		<path class="st9" d="M825.3,92.5c-0.1-0.5-0.2-1-0.2-1.4s-0.1-0.8-0.1-1.2c-0.6,0.8-1.4,1.5-2.3,2.1s-2.1,0.8-3.3,0.8
			c-1.5,0-2.7-0.4-3.6-1.2c-0.9-0.8-1.3-1.9-1.3-3.3c0-1.5,0.6-2.6,1.9-3.5c1.3-0.9,3-1.3,5.1-1.3h3.5v-2c0-1.1-0.4-2-1.1-2.7
			c-0.7-0.6-1.7-1-3.1-1c-1.2,0-2.2,0.3-3,0.9c-0.8,0.6-1.2,1.4-1.2,2.3l-1.6,0l0-0.1c-0.1-1.2,0.5-2.2,1.6-3.2
			c1.1-0.9,2.6-1.4,4.3-1.4c1.7,0,3.2,0.4,4.2,1.3s1.6,2.2,1.6,3.8v7.8c0,0.6,0,1.1,0.1,1.6c0.1,0.5,0.2,1,0.3,1.6H825.3z
			 M819.6,91.2c1.3,0,2.4-0.3,3.3-0.9s1.7-1.3,2.1-2.3v-3.3h-3.5c-1.6,0-2.9,0.3-3.8,1c-1,0.7-1.4,1.5-1.4,2.5
			c0,0.9,0.3,1.6,0.9,2.1C817.7,90.9,818.5,91.2,819.6,91.2z"/>
		<path class="st9" d="M838.7,78.1l-1.3-0.1c-1.1,0-2,0.3-2.7,0.9c-0.7,0.6-1.2,1.5-1.5,2.6v10.9h-1.8V76.6h1.5l0.2,2.6v0.2
			c0.5-1,1.1-1.7,1.8-2.3s1.7-0.8,2.8-0.8c0.2,0,0.4,0,0.7,0.1c0.2,0,0.4,0.1,0.5,0.1L838.7,78.1z"/>
		<path class="st9" d="M844.9,72.5v4.1h3.5V78h-3.5v10.3c0,1,0.2,1.8,0.6,2.2c0.4,0.4,0.9,0.7,1.5,0.7c0.3,0,0.6,0,0.8,0
			c0.3,0,0.6-0.1,0.9-0.1l0.3,1.3c-0.3,0.1-0.6,0.2-1.1,0.3s-0.8,0.1-1.3,0.1c-1.1,0-2-0.4-2.6-1.1c-0.6-0.7-0.9-1.8-0.9-3.3V78
			h-2.7v-1.4h2.7v-4.1H844.9z"/>
	</g>
	<g>
		<path class="st9" d="M803.8,144.4c0-0.8-0.3-1.4-0.9-1.9c-0.6-0.5-1.6-0.9-3-1.3c-1.6-0.4-2.7-0.9-3.5-1.5s-1.2-1.5-1.2-2.5
			c0-1.1,0.4-2,1.3-2.7s2-1,3.5-1c1.5,0,2.6,0.4,3.5,1.2c0.9,0.8,1.3,1.8,1.3,3l0,0.1h-1.1c0-1-0.3-1.7-1-2.3
			c-0.7-0.6-1.6-0.9-2.7-0.9c-1.1,0-2,0.3-2.7,0.8s-1,1.1-1,1.9c0,0.7,0.3,1.3,0.9,1.8s1.6,0.9,3.1,1.3c1.5,0.4,2.7,0.9,3.5,1.6
			s1.2,1.5,1.2,2.6c0,1.1-0.5,2-1.4,2.7c-0.9,0.7-2.1,1-3.5,1c-1.4,0-2.7-0.4-3.7-1.1s-1.6-1.8-1.5-3.1l0-0.1h1.1
			c0,1.1,0.4,1.9,1.2,2.5s1.8,0.8,2.9,0.8c1.1,0,2-0.2,2.7-0.7C803.4,145.8,803.8,145.2,803.8,144.4z"/>
		<path class="st9" d="M814.2,146.1c-0.3,0.6-0.8,1.1-1.4,1.4c-0.6,0.3-1.3,0.5-2,0.5c-1.1,0-2-0.4-2.6-1.1
			c-0.6-0.8-0.9-1.9-0.9-3.5v-6.1h1.2v6.2c0,1.3,0.2,2.2,0.7,2.8s1.1,0.8,1.9,0.8c0.9,0,1.6-0.2,2.1-0.6s0.9-0.9,1.1-1.6v-7.5h1.2
			v10.6h-1L814.2,146.1z"/>
		<path class="st9" d="M827,142.9c0,1.6-0.4,2.8-1.1,3.8c-0.7,0.9-1.7,1.4-3,1.4c-0.8,0-1.4-0.2-2-0.5c-0.6-0.3-1-0.8-1.4-1.3
			l-0.1,1.6h-1v-15.2h1.2v6.3c0.4-0.6,0.8-1.1,1.3-1.4s1.2-0.5,2-0.5c1.3,0,2.3,0.5,3,1.5c0.7,1,1.1,2.4,1.1,4V142.9z M825.8,142.7
			c0-1.4-0.3-2.5-0.8-3.3c-0.5-0.8-1.3-1.3-2.3-1.3c-0.8,0-1.5,0.2-2,0.6c-0.5,0.4-0.9,0.9-1.1,1.6v4.8c0.3,0.6,0.6,1.1,1.2,1.5
			s1.2,0.5,1.9,0.5c1,0,1.8-0.4,2.3-1.1c0.5-0.8,0.8-1.8,0.8-3.1V142.7z"/>
		<path class="st9" d="M831.4,134.6v2.7h2.3v1h-2.3v6.9c0,0.7,0.1,1.2,0.4,1.5c0.3,0.3,0.6,0.4,1,0.4c0.2,0,0.4,0,0.6,0
			c0.2,0,0.4,0,0.6-0.1l0.2,0.9c-0.2,0.1-0.4,0.1-0.7,0.2c-0.3,0-0.6,0.1-0.8,0.1c-0.7,0-1.3-0.2-1.7-0.7s-0.6-1.2-0.6-2.2v-6.9
			h-1.8v-1h1.8v-2.7H831.4z"/>
		<path class="st9" d="M835.4,142.4c0-1.6,0.4-2.8,1.3-3.8s2-1.5,3.4-1.5c1.4,0,2.5,0.5,3.4,1.5s1.3,2.3,1.3,3.8v0.3
			c0,1.6-0.4,2.8-1.3,3.8c-0.8,1-2,1.5-3.4,1.5c-1.4,0-2.6-0.5-3.4-1.5c-0.9-1-1.3-2.3-1.3-3.8V142.4z M836.5,142.7
			c0,1.2,0.3,2.3,0.9,3.1s1.5,1.2,2.6,1.2c1.1,0,1.9-0.4,2.6-1.2s0.9-1.9,0.9-3.1v-0.3c0-1.2-0.3-2.2-0.9-3.1s-1.5-1.3-2.6-1.3
			s-1.9,0.4-2.6,1.3s-0.9,1.9-0.9,3.1V142.7z"/>
		<path class="st9" d="M849,134.6v2.7h2.3v1H849v6.9c0,0.7,0.1,1.2,0.4,1.5c0.3,0.3,0.6,0.4,1,0.4c0.2,0,0.4,0,0.6,0
			c0.2,0,0.4,0,0.6-0.1l0.2,0.9c-0.2,0.1-0.4,0.1-0.7,0.2c-0.3,0-0.6,0.1-0.8,0.1c-0.7,0-1.3-0.2-1.7-0.7s-0.6-1.2-0.6-2.2v-6.9H846
			v-1h1.8v-2.7H849z"/>
		<path class="st9" d="M860.5,147.9c-0.1-0.4-0.1-0.7-0.2-0.9c0-0.3,0-0.5,0-0.8c-0.4,0.6-0.9,1-1.6,1.4c-0.7,0.4-1.4,0.5-2.2,0.5
			c-1,0-1.8-0.3-2.4-0.8s-0.9-1.3-0.9-2.2c0-1,0.4-1.8,1.3-2.3s2-0.9,3.4-0.9h2.3v-1.3c0-0.8-0.2-1.3-0.7-1.8s-1.2-0.6-2-0.6
			c-0.8,0-1.5,0.2-2,0.6s-0.8,0.9-0.8,1.5l-1.1,0l0-0.1c0-0.8,0.3-1.5,1.1-2.1c0.8-0.6,1.7-0.9,2.9-0.9c1.2,0,2.1,0.3,2.8,0.9
			c0.7,0.6,1.1,1.4,1.1,2.5v5.2c0,0.4,0,0.7,0.1,1.1s0.1,0.7,0.2,1H860.5z M856.7,147c0.8,0,1.6-0.2,2.2-0.6
			c0.6-0.4,1.1-0.9,1.4-1.5v-2.2h-2.4c-1.1,0-1.9,0.2-2.5,0.7c-0.6,0.5-1,1-1,1.7c0,0.6,0.2,1,0.6,1.4S856,147,856.7,147z"/>
		<path class="st9" d="M865.9,147.9h-1.2v-15.2h1.2V147.9z"/>
		<path class="st9" d="M870.4,138.9h-1.3v-1.6h1.3V138.9z M870.4,147.9h-1.3v-1.6h1.3V147.9z"/>
		<path class="st9" d="M913,146.2c-0.3,0.5-0.9,0.9-1.7,1.3s-1.9,0.6-3.2,0.6c-1.7,0-3-0.6-4.1-1.7c-1.1-1.1-1.6-2.6-1.6-4.4v-2.6
			c0-1.8,0.5-3.2,1.5-4.3c1-1.1,2.3-1.7,3.9-1.7c1.5,0,2.7,0.4,3.6,1.1c0.9,0.8,1.4,1.8,1.5,3l0,0.1h-1.1c-0.2-1-0.6-1.7-1.2-2.3
			c-0.6-0.6-1.6-0.9-2.8-0.9c-1.3,0-2.3,0.5-3.1,1.4s-1.2,2.1-1.2,3.6v2.6c0,1.5,0.4,2.7,1.2,3.6c0.8,1,1.9,1.4,3.2,1.4
			c0.9,0,1.7-0.1,2.4-0.4c0.7-0.3,1.1-0.6,1.4-0.9v-3.7H908v-1h5V146.2z"/>
		<path class="st9" d="M929.6,134.7c-1.5,1.8-2.7,3.7-3.5,5.6c-0.8,1.9-1.4,4-1.6,6.5l-0.1,1.2h-1.2l0.1-1.2
			c0.3-2.4,0.8-4.6,1.7-6.5c0.9-1.9,2-3.8,3.4-5.5h-8.1v-1h9.3V134.7z"/>
		<path class="st9" d="M932.4,141.4l0.8-7.8h6.9v1.1h-5.9l-0.5,5.1c0.4-0.3,0.8-0.6,1.2-0.8s1-0.3,1.7-0.3c1.2,0,2.2,0.4,2.9,1.2
			c0.7,0.8,1.1,2,1.1,3.4c0,1.4-0.4,2.6-1.1,3.4s-1.8,1.3-3.2,1.3c-1.2,0-2.1-0.3-2.9-1s-1.2-1.6-1.1-2.9l0-0.1h1
			c0,1,0.3,1.7,0.8,2.2s1.3,0.8,2.2,0.8c1.1,0,1.8-0.3,2.4-1s0.8-1.6,0.8-2.8c0-1.1-0.3-1.9-0.8-2.5c-0.5-0.6-1.3-1-2.2-1
			c-0.9,0-1.6,0.1-2.1,0.4c-0.5,0.3-0.8,0.7-1,1.3L932.4,141.4z"/>
		<path class="st9" d="M952,142.4c0,1.8-0.4,3.2-1.2,4.2c-0.8,1-1.9,1.5-3.3,1.5c-1.4,0-2.5-0.5-3.3-1.5c-0.8-1-1.2-2.4-1.2-4.2
			v-3.2c0-1.8,0.4-3.2,1.2-4.2s1.9-1.5,3.3-1.5s2.5,0.5,3.3,1.5s1.2,2.4,1.2,4.2V142.4z M950.9,139c0-1.5-0.3-2.6-0.9-3.4
			c-0.6-0.8-1.4-1.2-2.5-1.2s-1.9,0.4-2.5,1.2c-0.6,0.8-0.8,1.9-0.8,3.4v3.5c0,1.4,0.3,2.6,0.9,3.4s1.4,1.2,2.5,1.2s1.9-0.4,2.5-1.2
			c0.6-0.8,0.9-1.9,0.9-3.4V139z"/>
		<path class="st9" d="M799.6,169.5l0.3,0.9h0.1l0.3-0.9l4.3-11.8h1.3l-5.3,14.2h-1.1l-5.3-14.2h1.3L799.6,169.5z"/>
		<path class="st9" d="M814.9,167.9h-6.5l-1.5,4h-1.2l5.4-14.2h1.1l5.4,14.2h-1.2L814.9,167.9z M808.7,166.9h5.7l-2.8-7.7h-0.1
			L808.7,166.9z"/>
		<path class="st9" d="M828,158.7h-4.9v13.2h-1.2v-13.2H817v-1h11V158.7z"/>
		<path class="st9" d="M832.6,162.9h-1.3v-1.6h1.3V162.9z M832.6,171.9h-1.3v-1.6h1.3V171.9z"/>
		<path class="st9" d="M913.8,170.2c-0.3,0.5-0.9,0.9-1.7,1.3s-1.9,0.6-3.2,0.6c-1.7,0-3-0.6-4.1-1.7c-1.1-1.1-1.6-2.6-1.6-4.4v-2.6
			c0-1.8,0.5-3.2,1.5-4.3c1-1.1,2.3-1.7,3.9-1.7c1.5,0,2.7,0.4,3.6,1.1c0.9,0.8,1.4,1.8,1.5,3l0,0.1h-1.1c-0.2-1-0.6-1.7-1.2-2.3
			c-0.6-0.6-1.6-0.9-2.8-0.9c-1.3,0-2.3,0.5-3.1,1.4s-1.2,2.1-1.2,3.6v2.6c0,1.5,0.4,2.7,1.2,3.6c0.8,1,1.9,1.4,3.2,1.4
			c0.9,0,1.7-0.1,2.4-0.4c0.7-0.3,1.1-0.6,1.4-0.9v-3.7h-3.8v-1h5V170.2z"/>
		<path class="st9" d="M930.4,158.7c-1.5,1.8-2.7,3.7-3.5,5.6c-0.8,1.9-1.4,4-1.6,6.5l-0.1,1.2h-1.2l0.1-1.2
			c0.3-2.4,0.8-4.6,1.7-6.5c0.9-1.9,2-3.8,3.4-5.5h-8.1v-1h9.3V158.7z"/>
		<path class="st9" d="M933.2,165.4l0.8-7.8h6.9v1.1H935l-0.5,5.1c0.4-0.3,0.8-0.6,1.2-0.8s1-0.3,1.7-0.3c1.2,0,2.2,0.4,2.9,1.2
			c0.7,0.8,1.1,2,1.1,3.4c0,1.4-0.4,2.6-1.1,3.4s-1.8,1.3-3.2,1.3c-1.2,0-2.1-0.3-2.9-1s-1.2-1.6-1.1-2.9l0-0.1h1
			c0,1,0.3,1.7,0.8,2.2s1.3,0.8,2.2,0.8c1.1,0,1.8-0.3,2.4-1s0.8-1.6,0.8-2.8c0-1.1-0.3-1.9-0.8-2.5c-0.5-0.6-1.3-1-2.2-1
			c-0.9,0-1.6,0.1-2.1,0.4c-0.5,0.3-0.8,0.7-1,1.3L933.2,165.4z"/>
		<path class="st9" d="M810.9,224h-7.3v19.8h-1.8V224h-7.3v-1.5h16.4V224z"/>
		<path class="st9" d="M811.4,235.7c0-2.3,0.6-4.2,1.9-5.7s3-2.2,5.1-2.2c2.1,0,3.8,0.7,5.1,2.2s1.9,3.4,1.9,5.7v0.5
			c0,2.3-0.6,4.3-1.9,5.7c-1.3,1.5-3,2.2-5.1,2.2c-2.1,0-3.8-0.7-5.1-2.2s-1.9-3.4-1.9-5.7V235.7z M813.2,236.2
			c0,1.8,0.5,3.4,1.4,4.6c0.9,1.3,2.2,1.9,3.9,1.9c1.6,0,2.9-0.6,3.8-1.9c0.9-1.2,1.4-2.8,1.4-4.6v-0.5c0-1.8-0.5-3.3-1.4-4.6
			c-0.9-1.3-2.2-1.9-3.9-1.9s-2.9,0.6-3.9,1.9c-0.9,1.3-1.4,2.8-1.4,4.6V236.2z"/>
		<path class="st9" d="M831.8,224v4.1h3.5v1.4h-3.5v10.3c0,1,0.2,1.8,0.6,2.2c0.4,0.4,0.9,0.7,1.5,0.7c0.3,0,0.6,0,0.8,0
			c0.3,0,0.6-0.1,0.9-0.1l0.3,1.3c-0.3,0.1-0.6,0.2-1.1,0.3s-0.8,0.1-1.3,0.1c-1.1,0-2-0.4-2.6-1.1c-0.6-0.7-0.9-1.8-0.9-3.3v-10.3
			h-2.7V228h2.7V224H831.8z"/>
		<path class="st9" d="M849.1,243.9c-0.1-0.5-0.2-1-0.2-1.4s-0.1-0.8-0.1-1.2c-0.6,0.8-1.4,1.5-2.3,2.1s-2.1,0.8-3.3,0.8
			c-1.5,0-2.7-0.4-3.6-1.2c-0.9-0.8-1.3-1.9-1.3-3.3c0-1.5,0.6-2.6,1.9-3.5c1.3-0.9,3-1.3,5.1-1.3h3.5v-2c0-1.1-0.4-2-1.1-2.7
			c-0.7-0.6-1.7-1-3.1-1c-1.2,0-2.2,0.3-3,0.9c-0.8,0.6-1.2,1.4-1.2,2.3l-1.6,0l0-0.1c-0.1-1.2,0.5-2.2,1.6-3.2
			c1.1-0.9,2.6-1.4,4.3-1.4c1.7,0,3.2,0.4,4.2,1.3s1.6,2.2,1.6,3.8v7.8c0,0.6,0,1.1,0.1,1.6c0.1,0.5,0.2,1.1,0.3,1.6H849.1z
			 M843.3,242.6c1.3,0,2.4-0.3,3.3-0.9s1.7-1.3,2.1-2.3v-3.3h-3.5c-1.6,0-2.9,0.3-3.8,1c-1,0.7-1.4,1.5-1.4,2.5
			c0,0.9,0.3,1.6,0.9,2.1C841.5,242.4,842.3,242.6,843.3,242.6z"/>
		<path class="st9" d="M857.1,243.9h-1.7V221h1.7V243.9z"/>
		<path class="st9" d="M863.9,230.5h-2v-2.4h2V230.5z M863.9,243.9h-2v-2.4h2V243.9z"/>
		<path class="st9" d="M920.1,241c-0.6,0.8-1.6,1.6-3,2.2s-3,1-5.1,1c-2.6,0-4.7-0.8-6.4-2.4s-2.5-3.7-2.5-6.3V231
			c0-2.6,0.8-4.7,2.4-6.3s3.6-2.4,6.1-2.4c2.6,0,4.6,0.6,6,1.9s2.1,2.9,2.1,5l0,0.1h-4c-0.1-1.1-0.4-2-1.1-2.7s-1.6-1-2.8-1
			c-1.3,0-2.4,0.5-3.2,1.5s-1.2,2.3-1.2,3.9v4.5c0,1.6,0.4,2.9,1.2,3.9s1.9,1.5,3.4,1.5c1,0,1.8-0.1,2.4-0.3
			c0.6-0.2,1.1-0.5,1.4-0.8v-3.9h-3.8v-3h8.1V241z"/>
		<path class="st9" d="M944.7,228.2c0,1.1-0.3,2-0.8,2.8c-0.6,0.8-1.3,1.5-2.3,1.9c1.1,0.5,2,1.2,2.7,2.1s1,1.9,1,3
			c0,2-0.7,3.5-2,4.5s-3.1,1.6-5.2,1.6c-2.2,0-3.9-0.5-5.3-1.6c-1.3-1.1-2-2.6-2-4.5c0-1.2,0.3-2.2,1-3.1s1.5-1.6,2.7-2.1
			c-1-0.5-1.8-1.1-2.3-1.9s-0.8-1.8-0.8-2.8c0-1.9,0.6-3.4,1.9-4.4s2.9-1.6,4.9-1.6c2,0,3.7,0.5,4.9,1.6S944.7,226.3,944.7,228.2z
			 M940.9,237.7c0-1-0.3-1.7-0.8-2.3c-0.6-0.6-1.3-0.9-2.2-0.9c-0.9,0-1.6,0.3-2.2,0.9c-0.5,0.6-0.8,1.3-0.8,2.3
			c0,1,0.3,1.7,0.8,2.3c0.5,0.6,1.3,0.8,2.2,0.8c0.9,0,1.6-0.3,2.2-0.8C940.6,239.5,940.9,238.7,940.9,237.7z M940.4,228.4
			c0-0.9-0.2-1.5-0.7-2.1c-0.5-0.5-1.1-0.8-1.8-0.8c-0.8,0-1.4,0.3-1.8,0.8s-0.7,1.2-0.7,2.1c0,0.9,0.2,1.6,0.7,2.1
			c0.4,0.5,1.1,0.8,1.9,0.8c0.8,0,1.4-0.3,1.8-0.8S940.4,229.3,940.4,228.4z"/>
		<path class="st9" d="M962.5,243.9h-14.6v-2.8l6.9-7.4c1-1.1,1.7-2.1,2.1-2.9s0.6-1.5,0.6-2.2c0-0.9-0.2-1.6-0.7-2.2
			c-0.5-0.6-1.2-0.9-2.1-0.9c-1,0-1.7,0.3-2.2,1c-0.5,0.7-0.8,1.6-0.8,2.7h-4.2l0-0.1c0-1.9,0.6-3.6,1.9-4.9s3.1-2,5.3-2
			c2.2,0,3.9,0.6,5.2,1.7s1.9,2.7,1.9,4.6c0,1.3-0.4,2.5-1.1,3.6s-1.9,2.5-3.5,4.3l-3.8,4.1l0,0.1h9V243.9z"/>
		<path class="st9" d="M965.7,234.4l1.2-11.9h11.9v3.4h-8.4l-0.6,4.9c0.4-0.3,0.9-0.5,1.4-0.7s1.2-0.3,1.8-0.3
			c2.1,0,3.6,0.6,4.8,1.9c1.1,1.3,1.7,3,1.7,5.3c0,2.1-0.6,3.8-1.9,5.1c-1.2,1.4-3,2-5.3,2c-2,0-3.6-0.5-5-1.6
			c-1.4-1.1-2.1-2.5-2-4.4l0-0.1l4.1-0.2c0,0.9,0.3,1.7,0.8,2.2s1.2,0.8,2.1,0.8c1,0,1.7-0.4,2.2-1.1c0.5-0.7,0.7-1.6,0.7-2.8
			c0-1.2-0.3-2.2-0.8-3c-0.5-0.7-1.3-1.1-2.3-1.1c-0.8,0-1.4,0.2-1.9,0.5c-0.4,0.3-0.7,0.7-0.9,1.2L965.7,234.4z"/>
	</g>
	<g>
		<path class="st9" d="M675.7,98.5c-0.6,0.8-1.6,1.6-3,2.2c-1.3,0.7-3,1-5.1,1c-2.6,0-4.7-0.8-6.4-2.4s-2.5-3.7-2.5-6.3v-4.5
			c0-2.6,0.8-4.7,2.4-6.3c1.6-1.6,3.6-2.4,6.1-2.4c2.6,0,4.6,0.6,6,1.9c1.4,1.3,2.1,2.9,2.1,5l0,0.1h-4c-0.1-1.1-0.4-2-1.1-2.7
			s-1.6-1-2.8-1c-1.3,0-2.4,0.5-3.2,1.5s-1.2,2.3-1.2,3.9V93c0,1.6,0.4,2.9,1.2,3.9s1.9,1.5,3.4,1.5c1,0,1.8-0.1,2.4-0.3
			c0.6-0.2,1.1-0.5,1.4-0.8v-3.9h-3.8v-3h8.1V98.5z"/>
		<path class="st9" d="M698.8,93.5h2.4v3.3h-2.4v4.6h-4.3v-4.6h-8.7l-0.2-2.6l8.8-14.1h4.3V93.5z M689.6,93.5h4.9v-7.7l-0.1,0
			l-0.3,0.6L689.6,93.5z"/>
		<path class="st9" d="M718,101.4h-14.6v-2.8l6.9-7.4c1-1.1,1.7-2.1,2.1-2.9s0.6-1.5,0.6-2.2c0-0.9-0.2-1.6-0.7-2.2
			c-0.5-0.6-1.2-0.9-2.1-0.9c-1,0-1.7,0.3-2.2,1c-0.5,0.7-0.8,1.6-0.8,2.7h-4.2l0-0.1c0-1.9,0.6-3.6,1.9-4.9c1.3-1.3,3.1-2,5.3-2
			c2.2,0,3.9,0.6,5.2,1.7c1.3,1.1,1.9,2.7,1.9,4.6c0,1.3-0.4,2.5-1.1,3.6c-0.7,1.1-1.9,2.5-3.5,4.3l-3.8,4.1l0,0.1h9V101.4z"/>
		<path class="st9" d="M721.2,92l1.2-11.9h11.9v3.4H726l-0.6,4.9c0.4-0.3,0.9-0.5,1.4-0.7s1.2-0.3,1.8-0.3c2.1,0,3.6,0.6,4.8,1.9
			c1.1,1.3,1.7,3,1.7,5.3c0,2.1-0.6,3.8-1.9,5.1c-1.2,1.4-3,2-5.3,2c-2,0-3.6-0.5-5-1.6s-2.1-2.5-2-4.4l0-0.1l4.1-0.2
			c0,0.9,0.3,1.7,0.8,2.2s1.2,0.8,2.1,0.8c1,0,1.7-0.4,2.2-1.1c0.5-0.7,0.7-1.6,0.7-2.8c0-1.2-0.3-2.2-0.8-3
			c-0.5-0.7-1.3-1.1-2.3-1.1c-0.8,0-1.4,0.2-1.9,0.5c-0.4,0.3-0.7,0.7-0.9,1.2L721.2,92z"/>
	</g>
	<g>
		<path class="st9" d="M485.4,96.6c-0.4,0.6-1.1,1.2-2.1,1.7s-2.3,0.8-3.9,0.8c-2,0-3.7-0.7-5.1-2s-2-3-2-5.1v-3.5
			c0-2.1,0.6-3.8,1.9-5.1s2.8-2,4.8-2c2,0,3.5,0.5,4.6,1.4s1.7,2.2,1.7,3.7l0,0.1h-2.2c-0.1-1-0.4-1.8-1.1-2.4s-1.7-1-3-1
			c-1.3,0-2.4,0.5-3.2,1.5s-1.2,2.2-1.2,3.7v3.5c0,1.5,0.4,2.8,1.3,3.7c0.9,1,2,1.5,3.4,1.5c1,0,1.8-0.1,2.4-0.4
			c0.6-0.3,1.1-0.5,1.3-0.9v-3.9h-3.7v-1.8h6V96.6z"/>
		<path class="st9" d="M503.9,93.1h2.4v1.8h-2.4v3.9h-2.3v-3.9h-7.7v-1.3l7.5-11.8h2.4V93.1z M496.4,93.1h5.2v-8l-0.1,0l-0.2,0.6
			L496.4,93.1z"/>
		<path class="st9" d="M519.2,98.8h-11.1v-1.6l5.6-6.2c1-1.1,1.7-2,2-2.7s0.5-1.3,0.5-2c0-0.9-0.2-1.6-0.7-2.2s-1.2-0.9-2-0.9
			c-1.2,0-2,0.3-2.6,0.9s-0.8,1.5-0.8,2.5h-2.2l0-0.1c0-1.5,0.4-2.7,1.5-3.7s2.4-1.5,4.2-1.5c1.5,0,2.8,0.4,3.7,1.3s1.4,2,1.4,3.4
			c0,0.9-0.3,1.9-0.8,2.8s-1.3,1.9-2.3,3L511,97l0,0.1h8.2V98.8z"/>
		<path class="st9" d="M522.3,91.1l1-9.4h8.5v2.1h-6.6l-0.6,4.8c0.4-0.3,0.8-0.5,1.2-0.7s1-0.3,1.5-0.3c1.6,0,2.8,0.5,3.7,1.5
			s1.4,2.4,1.4,4.2c0,1.7-0.5,3.1-1.4,4.1s-2.3,1.6-4,1.6c-1.4,0-2.6-0.4-3.6-1.2s-1.4-1.9-1.4-3.5l0-0.1h2.1c0,0.9,0.3,1.6,0.8,2.2
			c0.5,0.5,1.2,0.8,2.1,0.8c1,0,1.7-0.3,2.3-1s0.8-1.6,0.8-2.8c0-1.1-0.3-2-0.8-2.7c-0.5-0.7-1.3-1.1-2.3-1.1c-0.9,0-1.6,0.1-2,0.4
			s-0.7,0.7-0.9,1.3L522.3,91.1z"/>
	</g>
	<g>
		<path class="st9" d="M288.8,100.1H287l-6.2-9.9l-0.1,0v9.9h-1.7V87.3h1.7l6.2,9.9l0.1,0v-9.9h1.7V100.1z"/>
		<path class="st9" d="M292.6,88.2h-1.7v-1.8h1.7V88.2z M292.6,100.1h-1.7v-9.5h1.7V100.1z"/>
		<path class="st9" d="M295.9,90.6l0.1,1.2c0.3-0.5,0.7-0.8,1.2-1.1c0.5-0.2,1-0.4,1.7-0.4s1.2,0.1,1.6,0.4c0.5,0.3,0.8,0.7,1,1.3
			c0.3-0.5,0.7-1,1.2-1.3s1.1-0.5,1.7-0.5c1,0,1.7,0.3,2.3,1s0.8,1.7,0.8,3v5.7h-1.7v-5.7c0-0.9-0.2-1.6-0.5-2s-0.8-0.6-1.4-0.6
			c-0.6,0-1.1,0.2-1.4,0.6c-0.4,0.4-0.6,0.9-0.6,1.6v0.1v6h-1.7v-5.7c0-0.9-0.2-1.5-0.5-2c-0.3-0.4-0.8-0.6-1.4-0.6
			c-0.5,0-1,0.1-1.3,0.3s-0.6,0.5-0.8,0.9v7h-1.7v-9.5H295.9z"/>
		<path class="st9" d="M317.3,95.7c0,1.4-0.3,2.5-1,3.3c-0.7,0.8-1.6,1.3-2.7,1.3c-0.6,0-1.2-0.1-1.6-0.4s-0.8-0.6-1.2-1.1l-0.2,1.3
			h-1.4V86.4h1.7v5.3c0.3-0.4,0.7-0.7,1.1-1c0.4-0.2,1-0.3,1.6-0.3c1.2,0,2.1,0.5,2.7,1.4s1,2.2,1,3.7V95.7z M315.6,95.5
			c0-1.1-0.2-2-0.6-2.7c-0.4-0.7-1-1-1.8-1c-0.5,0-1,0.1-1.3,0.4c-0.4,0.3-0.7,0.6-0.9,1.1v4.1c0.2,0.5,0.5,0.8,0.9,1.1
			c0.4,0.3,0.8,0.4,1.4,0.4c0.8,0,1.4-0.3,1.8-0.9s0.6-1.3,0.6-2.3V95.5z"/>
		<path class="st9" d="M324.5,98.7c-0.3,0.5-0.7,0.9-1.2,1.2s-1,0.4-1.6,0.4c-1,0-1.8-0.3-2.4-1s-0.9-1.7-0.9-3.1v-5.6h1.7v5.6
			c0,1,0.1,1.7,0.4,2.1s0.8,0.6,1.4,0.6c0.6,0,1.1-0.1,1.5-0.4c0.4-0.2,0.7-0.6,0.9-1.1v-6.9h1.7v9.5h-1.6L324.5,98.7z"/>
		<path class="st9" d="M333.4,97.6c0-0.4-0.1-0.7-0.4-0.9c-0.3-0.2-0.8-0.5-1.6-0.6c-1.2-0.3-2-0.6-2.6-1c-0.6-0.4-0.9-1-0.9-1.8
			c0-0.8,0.3-1.4,1-2c0.7-0.5,1.5-0.8,2.6-0.8c1.1,0,2,0.3,2.6,0.9c0.7,0.6,1,1.3,0.9,2.1l0,0.1h-1.7c0-0.4-0.2-0.8-0.5-1.1
			c-0.3-0.3-0.8-0.5-1.4-0.5c-0.6,0-1.1,0.1-1.4,0.4s-0.4,0.6-0.4,1c0,0.4,0.1,0.7,0.4,0.9s0.8,0.4,1.6,0.6c1.2,0.3,2.1,0.6,2.7,1
			s0.9,1,0.9,1.8c0,0.8-0.3,1.5-1,2c-0.7,0.5-1.6,0.8-2.7,0.8c-1.2,0-2.2-0.3-2.9-0.9s-1-1.3-1-2.2l0-0.1h1.7c0,0.6,0.3,1.1,0.7,1.3
			c0.4,0.3,0.9,0.4,1.5,0.4c0.6,0,1.1-0.1,1.4-0.4C333.2,98.3,333.4,98,333.4,97.6z"/>
		<path class="st9" d="M348,100.1h-8.3v-1.2l4.2-4.7c0.8-0.8,1.3-1.5,1.5-2c0.3-0.5,0.4-1,0.4-1.5c0-0.6-0.2-1.2-0.6-1.6
			c-0.4-0.4-0.9-0.7-1.5-0.7c-0.9,0-1.5,0.2-2,0.7c-0.4,0.5-0.6,1.1-0.6,1.9h-1.7l0-0.1c0-1.1,0.3-2,1.1-2.8s1.8-1.1,3.2-1.1
			c1.1,0,2.1,0.3,2.7,1c0.7,0.7,1,1.5,1,2.6c0,0.7-0.2,1.4-0.6,2.1c-0.4,0.7-1,1.5-1.7,2.3l-3.4,3.7l0,0h6.2V100.1z"/>
		<path class="st9" d="M357,95.2c0,1.6-0.4,2.9-1.1,3.8c-0.7,0.9-1.7,1.3-3,1.3s-2.3-0.4-3-1.3s-1.1-2.1-1.1-3.8v-3
			c0-1.6,0.4-2.9,1.1-3.8c0.7-0.9,1.7-1.3,3-1.3c1.3,0,2.3,0.4,3,1.3c0.7,0.9,1.1,2.1,1.1,3.8V95.2z M355.3,91.8
			c0-1.1-0.2-1.9-0.6-2.5c-0.4-0.6-1-0.8-1.7-0.8s-1.3,0.3-1.7,0.8c-0.4,0.6-0.6,1.4-0.6,2.5v3.8c0,1.1,0.2,1.9,0.6,2.5
			c0.4,0.6,1,0.8,1.8,0.8s1.3-0.3,1.7-0.8c0.4-0.6,0.6-1.4,0.6-2.5V91.8z"/>
		<path class="st9" d="M366.3,95.2c0,1.6-0.4,2.9-1.1,3.8c-0.7,0.9-1.7,1.3-3,1.3s-2.3-0.4-3-1.3s-1.1-2.1-1.1-3.8v-3
			c0-1.6,0.4-2.9,1.1-3.8c0.7-0.9,1.7-1.3,3-1.3c1.3,0,2.3,0.4,3,1.3c0.7,0.9,1.1,2.1,1.1,3.8V95.2z M364.5,91.8
			c0-1.1-0.2-1.9-0.6-2.5c-0.4-0.6-1-0.8-1.7-0.8s-1.3,0.3-1.7,0.8c-0.4,0.6-0.6,1.4-0.6,2.5v3.8c0,1.1,0.2,1.9,0.6,2.5
			c0.4,0.6,1,0.8,1.7,0.8s1.3-0.3,1.7-0.8c0.4-0.6,0.6-1.4,0.6-2.5V91.8z"/>
		<path class="st9" d="M375.5,95.2c0,1.6-0.4,2.9-1.1,3.8c-0.7,0.9-1.7,1.3-3,1.3s-2.3-0.4-3-1.3s-1.1-2.1-1.1-3.8v-3
			c0-1.6,0.4-2.9,1.1-3.8c0.7-0.9,1.7-1.3,3-1.3c1.3,0,2.3,0.4,3,1.3c0.7,0.9,1.1,2.1,1.1,3.8V95.2z M373.8,91.8
			c0-1.1-0.2-1.9-0.6-2.5c-0.4-0.6-1-0.8-1.7-0.8s-1.3,0.3-1.7,0.8c-0.4,0.6-0.6,1.4-0.6,2.5v3.8c0,1.1,0.2,1.9,0.6,2.5
			c0.4,0.6,1,0.8,1.7,0.8s1.3-0.3,1.7-0.8c0.4-0.6,0.6-1.4,0.6-2.5V91.8z"/>
	</g>
	<path class="st5" d="M259.8,199.9H132.5c-1.7,0-3-1.3-3-3v-50.7c0-1.7,1.3-3,3-3h127.4c1.7,0,3,1.3,3,3v50.7
		C262.8,198.5,261.5,199.9,259.8,199.9z"/>
	<line class="st20" x1="129.5" y1="210.3" x2="736.5" y2="210.3"/>
	<g>
		<circle class="st9" cx="108.3" cy="171.5" r="6.8"/>
		<g>
			<line class="st21" x1="105.5" y1="168.7" x2="111.2" y2="174.3"/>
			<line class="st21" x1="105.5" y1="174.3" x2="111.2" y2="168.7"/>
		</g>
	</g>
	<g>
		<path class="st9" d="M675.7,176.8c-0.6,0.8-1.6,1.6-3,2.2c-1.3,0.7-3,1-5.1,1c-2.6,0-4.7-0.8-6.4-2.4s-2.5-3.7-2.5-6.3v-4.5
			c0-2.6,0.8-4.7,2.4-6.3c1.6-1.6,3.6-2.4,6.1-2.4c2.6,0,4.6,0.6,6,1.9c1.4,1.3,2.1,2.9,2.1,5l0,0.1h-4c-0.1-1.1-0.4-2-1.1-2.7
			s-1.6-1-2.8-1c-1.3,0-2.4,0.5-3.2,1.5s-1.2,2.3-1.2,3.9v4.5c0,1.6,0.4,2.9,1.2,3.9s1.9,1.5,3.4,1.5c1,0,1.8-0.1,2.4-0.3
			c0.6-0.2,1.1-0.5,1.4-0.8v-3.9h-3.8v-3h8.1V176.8z"/>
		<path class="st9" d="M700.8,179.8h-14.6V177l6.9-7.4c1-1.1,1.7-2.1,2.1-2.9s0.6-1.5,0.6-2.2c0-0.9-0.2-1.6-0.7-2.2
			c-0.5-0.6-1.2-0.9-2.1-0.9c-1,0-1.7,0.3-2.2,1c-0.5,0.7-0.8,1.6-0.8,2.7H686l0-0.1c0-1.9,0.6-3.6,1.9-4.9c1.3-1.3,3.1-2,5.3-2
			c2.2,0,3.9,0.6,5.2,1.7c1.3,1.1,1.9,2.7,1.9,4.6c0,1.3-0.4,2.5-1.1,3.6c-0.7,1.1-1.9,2.5-3.5,4.3l-3.8,4.1l0,0.1h9V179.8z"/>
		<path class="st9" d="M718,161.7c-2.3,2.7-3.8,5.2-4.7,7.5c-0.8,2.3-1.4,5.1-1.8,8.4l-0.2,2.2H707l0.2-2.2c0.3-3.1,1-6,2.1-8.6
			s2.6-5,4.5-7.2h-11v-3.3H718V161.7z"/>
		<path class="st9" d="M721.2,170.3l1.2-11.9h11.9v3.4H726l-0.6,4.9c0.4-0.3,0.9-0.5,1.4-0.7s1.2-0.3,1.8-0.3c2.1,0,3.6,0.6,4.8,1.9
			c1.1,1.3,1.7,3,1.7,5.3c0,2.1-0.6,3.8-1.9,5.1c-1.2,1.4-3,2-5.3,2c-2,0-3.6-0.5-5-1.6s-2.1-2.5-2-4.4l0-0.1l4.1-0.2
			c0,0.9,0.3,1.7,0.8,2.2s1.2,0.8,2.1,0.8c1,0,1.7-0.4,2.2-1.1c0.5-0.7,0.7-1.6,0.7-2.8c0-1.2-0.3-2.2-0.8-3
			c-0.5-0.7-1.3-1.1-2.3-1.1c-0.8,0-1.4,0.2-1.9,0.5c-0.4,0.3-0.7,0.7-0.9,1.2L721.2,170.3z"/>
	</g>
	<g>
		<path class="st9" d="M485.4,174.9c-0.4,0.6-1.1,1.2-2.1,1.7s-2.3,0.8-3.9,0.8c-2,0-3.7-0.7-5.1-2s-2-3-2-5.1v-3.5
			c0-2.1,0.6-3.8,1.9-5.1s2.8-2,4.8-2c2,0,3.5,0.5,4.6,1.4s1.7,2.2,1.7,3.7l0,0.1h-2.2c-0.1-1-0.4-1.8-1.1-2.4s-1.7-1-3-1
			c-1.3,0-2.4,0.5-3.2,1.5s-1.2,2.2-1.2,3.7v3.5c0,1.5,0.4,2.8,1.3,3.7c0.9,1,2,1.5,3.4,1.5c1,0,1.8-0.1,2.4-0.4
			c0.6-0.3,1.1-0.5,1.3-0.9v-3.9h-3.7v-1.8h6V174.9z"/>
		<path class="st9" d="M505.7,177.2h-11.1v-1.6l5.6-6.2c1-1.1,1.7-2,2-2.7s0.5-1.3,0.5-2c0-0.9-0.2-1.6-0.7-2.2s-1.2-0.9-2-0.9
			c-1.2,0-2,0.3-2.6,0.9s-0.8,1.5-0.8,2.5h-2.2l0-0.1c0-1.5,0.4-2.7,1.5-3.7s2.4-1.5,4.2-1.5c1.5,0,2.8,0.4,3.7,1.3s1.4,2,1.4,3.4
			c0,0.9-0.3,1.9-0.8,2.8s-1.3,1.9-2.3,3l-4.5,4.9l0,0.1h8.2V177.2z"/>
		<path class="st9" d="M519.2,161.9c-2.1,2.5-3.5,4.6-4.2,6.5s-1.2,4.2-1.6,6.9l-0.2,1.8H511l0.2-1.8c0.3-2.7,1-5.1,1.9-7.2
			s2.2-4.2,3.9-6.2h-9.3v-1.8h11.5V161.9z"/>
		<path class="st9" d="M522.3,169.5l1-9.4h8.5v2.1h-6.6l-0.6,4.8c0.4-0.3,0.8-0.5,1.2-0.7s1-0.3,1.5-0.3c1.6,0,2.8,0.5,3.7,1.5
			s1.4,2.4,1.4,4.2c0,1.7-0.5,3.1-1.4,4.1s-2.3,1.6-4,1.6c-1.4,0-2.6-0.4-3.6-1.2s-1.4-1.9-1.4-3.5l0-0.1h2.1c0,0.9,0.3,1.6,0.8,2.2
			c0.5,0.5,1.2,0.8,2.1,0.8c1,0,1.7-0.3,2.3-1s0.8-1.6,0.8-2.8c0-1.1-0.3-2-0.8-2.7c-0.5-0.7-1.3-1.1-2.3-1.1c-0.9,0-1.6,0.1-2,0.4
			s-0.7,0.7-0.9,1.3L522.3,169.5z"/>
	</g>
	<g>
		<path class="st9" d="M288.8,173.2c0,1.6-0.5,2.9-1.5,3.9c-1,1-2.2,1.5-3.8,1.5c-1.5,0-2.7-0.5-3.6-1.5c-0.9-1-1.4-2.3-1.4-3.9
			v-2.3c0-1.6,0.5-2.9,1.4-3.9c0.9-1,2.2-1.6,3.6-1.6c1.5,0,2.8,0.5,3.8,1.6c1,1,1.5,2.3,1.5,3.9V173.2z M287,170.9
			c0-1.2-0.3-2.1-0.9-2.9s-1.5-1.1-2.5-1.1c-1,0-1.8,0.4-2.4,1.1c-0.6,0.8-0.9,1.7-0.9,2.9v2.3c0,1.2,0.3,2.2,0.9,2.9
			c0.6,0.8,1.4,1.1,2.4,1.1c1.1,0,1.9-0.4,2.6-1.1c0.6-0.7,0.9-1.7,0.9-2.9V170.9z"/>
		<path class="st9" d="M292,178.5h-1.7v-13.7h1.7V178.5z"/>
		<path class="st9" d="M295.6,166.5h-1.7v-1.8h1.7V166.5z M295.6,178.5h-1.7V169h1.7V178.5z"/>
		<path class="st9" d="M300.6,175.7l0.1,0.7h0.1l0.2-0.7l2.2-6.7h1.8l-3.5,9.5h-1.3l-3.5-9.5h1.8L300.6,175.7z"/>
		<path class="st9" d="M311.3,178.5c-0.1-0.3-0.1-0.5-0.1-0.8c0-0.2-0.1-0.4-0.1-0.7c-0.3,0.5-0.7,0.8-1.3,1.1
			c-0.5,0.3-1.1,0.5-1.7,0.5c-1,0-1.7-0.3-2.3-0.8c-0.5-0.5-0.8-1.2-0.8-2.1c0-0.9,0.4-1.6,1.1-2.1c0.7-0.5,1.7-0.8,3-0.8h1.9V172
			c0-0.6-0.2-1-0.5-1.3s-0.8-0.5-1.4-0.5c-0.6,0-1,0.1-1.4,0.4c-0.3,0.3-0.5,0.6-0.5,1h-1.7l0-0.1c0-0.7,0.3-1.3,1-1.9
			c0.7-0.6,1.6-0.9,2.7-0.9c1.1,0,1.9,0.3,2.6,0.8s1,1.3,1,2.4v4.6c0,0.3,0,0.7,0.1,1s0.1,0.6,0.2,0.9H311.3z M308.4,177.2
			c0.6,0,1.2-0.2,1.7-0.5s0.8-0.7,1-1.1v-1.5h-1.9c-0.7,0-1.3,0.2-1.7,0.5c-0.4,0.4-0.6,0.8-0.6,1.2c0,0.4,0.1,0.8,0.4,1
			S307.9,177.2,308.4,177.2z"/>
		<path class="st9" d="M316,169l0.1,1.4c0.3-0.5,0.7-0.9,1.2-1.2c0.5-0.3,1-0.4,1.6-0.4c1,0,1.8,0.3,2.4,0.9s0.8,1.5,0.8,2.8v6h-1.7
			v-6c0-0.8-0.2-1.4-0.5-1.8c-0.3-0.4-0.8-0.5-1.5-0.5c-0.5,0-0.9,0.1-1.3,0.4c-0.4,0.2-0.7,0.6-0.9,1v6.9h-1.7V169H316z"/>
		<path class="st9" d="M323.3,173.9c0-1.5,0.3-2.8,1-3.7c0.7-0.9,1.6-1.4,2.7-1.4c0.6,0,1.1,0.1,1.5,0.3c0.4,0.2,0.8,0.5,1.1,0.9
			v-5.2h1.7v13.7H330l-0.2-1.2c-0.3,0.4-0.7,0.8-1.1,1s-1,0.3-1.6,0.3c-1.2,0-2.1-0.4-2.7-1.3s-1-1.9-1-3.3V173.9z M325.1,174.1
			c0,1,0.2,1.7,0.6,2.3s1,0.9,1.8,0.9c0.5,0,0.9-0.1,1.3-0.4s0.6-0.6,0.9-1v-4.4c-0.2-0.4-0.5-0.7-0.9-0.9c-0.4-0.2-0.8-0.3-1.3-0.3
			c-0.8,0-1.4,0.3-1.8,1c-0.4,0.7-0.6,1.6-0.6,2.7V174.1z"/>
		<path class="st9" d="M337,178.7c-1.3,0-2.4-0.4-3.2-1.3c-0.8-0.9-1.2-2-1.2-3.4v-0.4c0-1.4,0.4-2.5,1.2-3.4
			c0.8-0.9,1.8-1.3,2.9-1.3c1.3,0,2.3,0.4,2.9,1.2s1,1.8,1,3.1v1.1h-6.2l0,0c0,0.9,0.3,1.7,0.7,2.2c0.4,0.6,1.1,0.9,1.9,0.9
			c0.6,0,1.1-0.1,1.5-0.3c0.4-0.2,0.8-0.4,1.1-0.7l0.7,1.1c-0.3,0.3-0.8,0.6-1.3,0.8C338.5,178.5,337.8,178.7,337,178.7z
			 M336.8,170.1c-0.6,0-1.1,0.2-1.5,0.7s-0.7,1.1-0.8,1.8l0,0h4.4v-0.2c0-0.7-0.2-1.2-0.5-1.7C338,170.4,337.5,170.1,336.8,170.1z"
			/>
		<path class="st9" d="M346.2,170.5l-0.9-0.1c-0.5,0-0.8,0.1-1.2,0.3c-0.3,0.2-0.6,0.5-0.7,0.9v6.8h-1.7V169h1.5l0.2,1.4
			c0.3-0.5,0.6-0.9,1-1.2c0.4-0.3,0.8-0.4,1.4-0.4c0.1,0,0.3,0,0.4,0s0.2,0,0.3,0.1L346.2,170.5z"/>
		<path class="st9" d="M348.8,166.5l-1.4,3h-0.9l0.5-3v-1.7h1.7V166.5z"/>
		<path class="st9" d="M354.6,175.9c0-0.4-0.1-0.7-0.4-0.9c-0.3-0.2-0.8-0.5-1.6-0.6c-1.2-0.3-2-0.6-2.6-1c-0.6-0.4-0.9-1-0.9-1.8
			c0-0.8,0.3-1.4,1-2c0.7-0.5,1.5-0.8,2.6-0.8c1.1,0,2,0.3,2.6,0.9c0.7,0.6,1,1.3,0.9,2.1l0,0.1h-1.7c0-0.4-0.2-0.8-0.5-1.1
			c-0.3-0.3-0.8-0.5-1.4-0.5c-0.6,0-1.1,0.1-1.4,0.4s-0.4,0.6-0.4,1c0,0.4,0.1,0.7,0.4,0.9s0.8,0.4,1.6,0.6c1.2,0.3,2.1,0.6,2.7,1
			s0.9,1,0.9,1.8c0,0.8-0.3,1.5-1,2c-0.7,0.5-1.6,0.8-2.7,0.8c-1.2,0-2.2-0.3-2.9-0.9s-1-1.3-1-2.2l0-0.1h1.7c0,0.6,0.3,1.1,0.7,1.3
			c0.4,0.3,0.9,0.4,1.5,0.4c0.6,0,1.1-0.1,1.4-0.4C354.4,176.7,354.6,176.3,354.6,175.9z"/>
		<path class="st9" d="M363.6,175l0.2,1.2h0.1l0.2-1.2l1.9-6h1.4l1.9,6l0.3,1.3h0.1l0.3-1.3l1.5-6h1.7l-2.8,9.5h-1.4l-1.8-5.8
			l-0.4-1.6l-0.1,0l-0.4,1.6l-1.8,5.8h-1.4l-2.8-9.5h1.7L363.6,175z"/>
		<path class="st9" d="M379.7,178.5c-0.1-0.3-0.1-0.5-0.1-0.8c0-0.2-0.1-0.4-0.1-0.7c-0.3,0.5-0.7,0.8-1.3,1.1
			c-0.5,0.3-1.1,0.5-1.7,0.5c-1,0-1.7-0.3-2.3-0.8c-0.5-0.5-0.8-1.2-0.8-2.1c0-0.9,0.4-1.6,1.1-2.1c0.7-0.5,1.7-0.8,3-0.8h1.9V172
			c0-0.6-0.2-1-0.5-1.3s-0.8-0.5-1.4-0.5c-0.6,0-1,0.1-1.4,0.4c-0.3,0.3-0.5,0.6-0.5,1h-1.7l0-0.1c0-0.7,0.3-1.3,1-1.9
			c0.7-0.6,1.6-0.9,2.7-0.9c1.1,0,1.9,0.3,2.6,0.8s1,1.3,1,2.4v4.6c0,0.3,0,0.7,0.1,1s0.1,0.6,0.2,0.9H379.7z M376.9,177.2
			c0.6,0,1.2-0.2,1.7-0.5s0.8-0.7,1-1.1v-1.5h-1.9c-0.7,0-1.3,0.2-1.7,0.5c-0.4,0.4-0.6,0.8-0.6,1.2c0,0.4,0.1,0.8,0.4,1
			S376.3,177.2,376.9,177.2z"/>
		<path class="st9" d="M384.4,169l0.1,1.4c0.3-0.5,0.7-0.9,1.2-1.2c0.5-0.3,1-0.4,1.6-0.4c1,0,1.8,0.3,2.4,0.9s0.8,1.5,0.8,2.8v6
			h-1.7v-6c0-0.8-0.2-1.4-0.5-1.8c-0.3-0.4-0.8-0.5-1.5-0.5c-0.5,0-0.9,0.1-1.3,0.4c-0.4,0.2-0.7,0.6-0.9,1v6.9h-1.7V169H384.4z"/>
		<path class="st9" d="M391.8,173.9c0-1.5,0.3-2.8,1-3.7c0.7-0.9,1.6-1.4,2.7-1.4c0.6,0,1.1,0.1,1.5,0.3c0.4,0.2,0.8,0.5,1.1,0.9
			v-5.2h1.7v13.7h-1.4l-0.2-1.2c-0.3,0.4-0.7,0.8-1.1,1s-1,0.3-1.6,0.3c-1.2,0-2.1-0.4-2.7-1.3s-1-1.9-1-3.3V173.9z M393.6,174.1
			c0,1,0.2,1.7,0.6,2.3s1,0.9,1.8,0.9c0.5,0,0.9-0.1,1.3-0.4s0.6-0.6,0.9-1v-4.4c-0.2-0.4-0.5-0.7-0.9-0.9c-0.4-0.2-0.8-0.3-1.3-0.3
			c-0.8,0-1.4,0.3-1.8,1c-0.4,0.7-0.6,1.6-0.6,2.7V174.1z"/>
	</g>
	<path class="st5" d="M259.8,282.3H132.5c-1.7,0-3-1.3-3-3v-50.7c0-1.7,1.3-3,3-3h127.4c1.7,0,3,1.3,3,3v50.7
		C262.8,280.9,261.5,282.3,259.8,282.3z"/>
	<line class="st20" x1="129.5" y1="292.7" x2="736.5" y2="292.7"/>
	<g>
		<circle class="st9" cx="108.3" cy="253.9" r="6.8"/>
		<g>
			<line class="st21" x1="105.5" y1="251.1" x2="111.2" y2="256.7"/>
			<line class="st21" x1="105.5" y1="256.7" x2="111.2" y2="251.1"/>
		</g>
	</g>
	<g>
		<path class="st9" d="M692.9,259.2c-0.6,0.8-1.6,1.6-3,2.2c-1.3,0.7-3,1-5.1,1c-2.6,0-4.7-0.8-6.4-2.4s-2.5-3.7-2.5-6.3v-4.5
			c0-2.6,0.8-4.7,2.4-6.3c1.6-1.6,3.6-2.4,6.1-2.4c2.6,0,4.6,0.6,6,1.9c1.4,1.3,2.1,2.9,2.1,5l0,0.1h-4c-0.1-1.1-0.4-2-1.1-2.7
			s-1.6-1-2.8-1c-1.3,0-2.4,0.5-3.2,1.5s-1.2,2.3-1.2,3.9v4.5c0,1.6,0.4,2.9,1.2,3.9s1.9,1.5,3.4,1.5c1,0,1.8-0.1,2.4-0.3
			c0.6-0.2,1.1-0.5,1.4-0.8v-3.9h-3.8v-3h8.1V259.2z"/>
		<path class="st9" d="M704,252.7l1.2-11.9h11.9v3.4h-8.4l-0.6,4.9c0.4-0.3,0.9-0.5,1.4-0.7s1.2-0.3,1.8-0.3c2.1,0,3.6,0.6,4.8,1.9
			c1.1,1.3,1.7,3,1.7,5.3c0,2.1-0.6,3.8-1.9,5.1c-1.2,1.4-3,2-5.3,2c-2,0-3.6-0.5-5-1.6c-1.4-1.1-2.1-2.5-2-4.4l0-0.1l4.1-0.2
			c0,0.9,0.3,1.7,0.8,2.2s1.2,0.8,2.1,0.8c1,0,1.7-0.4,2.2-1.1c0.5-0.7,0.7-1.6,0.7-2.8c0-1.2-0.3-2.2-0.8-3
			c-0.5-0.7-1.3-1.1-2.3-1.1c-0.8,0-1.4,0.2-1.9,0.5c-0.4,0.3-0.7,0.7-0.9,1.2L704,252.7z"/>
		<path class="st9" d="M735.1,253.9c0,2.8-0.6,5-1.9,6.4c-1.3,1.5-3,2.2-5.3,2.2c-2.2,0-4-0.7-5.3-2.2s-1.9-3.6-1.9-6.4v-4.7
			c0-2.8,0.6-5,1.9-6.4c1.3-1.5,3-2.2,5.3-2.2c2.2,0,4,0.7,5.3,2.2c1.3,1.5,2,3.6,2,6.4V253.9z M730.8,248.7c0-1.7-0.3-2.9-0.8-3.7
			c-0.5-0.8-1.2-1.2-2.2-1.2c-1,0-1.7,0.4-2.2,1.2s-0.7,2-0.7,3.7v5.5c0,1.7,0.3,3,0.8,3.7c0.5,0.8,1.2,1.2,2.2,1.2
			c1,0,1.7-0.4,2.2-1.2c0.5-0.8,0.7-2,0.7-3.7V248.7z"/>
	</g>
	<g>
		<path class="st9" d="M498.9,257.3c-0.4,0.6-1.1,1.2-2.1,1.7s-2.3,0.8-3.9,0.8c-2,0-3.7-0.7-5.1-2s-2-3-2-5.1v-3.5
			c0-2.1,0.6-3.8,1.9-5.1s2.8-2,4.8-2c2,0,3.5,0.5,4.6,1.4s1.7,2.2,1.7,3.7l0,0.1h-2.2c-0.1-1-0.4-1.8-1.1-2.4s-1.7-1-3-1
			c-1.3,0-2.4,0.5-3.2,1.5c-0.8,1-1.2,2.2-1.2,3.7v3.5c0,1.5,0.4,2.8,1.3,3.7s2,1.5,3.4,1.5c1,0,1.8-0.1,2.4-0.4
			c0.6-0.3,1.1-0.5,1.3-0.9v-3.9h-3.7v-1.8h6V257.3z"/>
		<path class="st9" d="M508.8,251.9l1-9.4h8.5v2.1h-6.6l-0.6,4.8c0.4-0.3,0.8-0.5,1.2-0.7s1-0.3,1.5-0.3c1.6,0,2.8,0.5,3.7,1.5
			s1.4,2.4,1.4,4.2c0,1.7-0.5,3.1-1.4,4.1s-2.3,1.6-4,1.6c-1.4,0-2.6-0.4-3.6-1.2s-1.4-1.9-1.4-3.5l0-0.1h2.1c0,0.9,0.3,1.6,0.8,2.2
			s1.2,0.8,2.1,0.8c1,0,1.7-0.3,2.3-1c0.5-0.7,0.8-1.6,0.8-2.8c0-1.1-0.3-2-0.8-2.7s-1.3-1.1-2.3-1.1c-0.9,0-1.6,0.1-2,0.4
			s-0.7,0.7-0.9,1.3L508.8,251.9z"/>
		<path class="st9" d="M532.5,253.1c0,2.2-0.5,3.8-1.4,5s-2.3,1.7-4,1.7s-3-0.6-4-1.7s-1.5-2.8-1.5-5v-4c0-2.2,0.5-3.8,1.5-5
			s2.3-1.8,4-1.8c1.7,0,3,0.6,4,1.8s1.5,2.8,1.5,5V253.1z M530.1,248.5c0-1.5-0.3-2.6-0.8-3.3s-1.3-1.1-2.3-1.1s-1.8,0.4-2.3,1.1
			s-0.8,1.9-0.8,3.3v5c0,1.5,0.3,2.6,0.8,3.3c0.5,0.8,1.3,1.1,2.3,1.1s1.8-0.4,2.3-1.1c0.5-0.8,0.8-1.9,0.8-3.3V248.5z"/>
	</g>
	<g>
		<path class="st9" d="M288.8,255.6c0,1.6-0.5,2.9-1.5,3.9c-1,1-2.2,1.5-3.8,1.5c-1.5,0-2.7-0.5-3.6-1.5c-0.9-1-1.4-2.3-1.4-3.9
			v-2.3c0-1.6,0.5-2.9,1.4-3.9c0.9-1,2.2-1.6,3.6-1.6c1.5,0,2.8,0.5,3.8,1.6c1,1,1.5,2.3,1.5,3.9V255.6z M287,253.3
			c0-1.2-0.3-2.1-0.9-2.9s-1.5-1.1-2.5-1.1c-1,0-1.8,0.4-2.4,1.1c-0.6,0.8-0.9,1.7-0.9,2.9v2.3c0,1.2,0.3,2.2,0.9,2.9
			c0.6,0.8,1.4,1.1,2.4,1.1c1.1,0,1.9-0.4,2.6-1.1c0.6-0.7,0.9-1.7,0.9-2.9V253.3z"/>
		<path class="st9" d="M292.6,257.4l0.2,1.2h0.1l0.2-1.2l1.9-6h1.4l1.9,6l0.3,1.3h0.1l0.3-1.3l1.5-6h1.7l-2.8,9.5h-1.4l-1.8-5.8
			l-0.4-1.6l-0.1,0l-0.4,1.6l-1.8,5.8H292l-2.8-9.5h1.7L292.6,257.4z"/>
		<path class="st9" d="M304.7,260.9H303v-13.7h1.7V260.9z"/>
		<path class="st9" d="M313.9,259.7c0.6,0,1.1-0.2,1.5-0.5c0.4-0.4,0.7-0.8,0.7-1.3h1.6l0,0.1c0,0.8-0.3,1.5-1.1,2.2
			c-0.8,0.6-1.6,1-2.7,1c-1.4,0-2.4-0.5-3.2-1.4s-1.1-2-1.1-3.4v-0.4c0-1.4,0.4-2.5,1.1-3.4c0.7-0.9,1.8-1.4,3.2-1.4
			c1.1,0,2,0.3,2.7,1c0.7,0.7,1,1.5,1,2.4l0,0.1h-1.6c0-0.6-0.2-1.1-0.6-1.5s-0.9-0.6-1.6-0.6c-0.9,0-1.6,0.3-1.9,1
			c-0.4,0.7-0.6,1.5-0.6,2.4v0.4c0,1,0.2,1.8,0.6,2.4S313,259.7,313.9,259.7z"/>
		<path class="st9" d="M324.6,260.9c-0.1-0.3-0.1-0.5-0.1-0.8c0-0.2-0.1-0.4-0.1-0.7c-0.3,0.5-0.7,0.8-1.3,1.1
			c-0.5,0.3-1.1,0.5-1.7,0.5c-1,0-1.7-0.3-2.3-0.8c-0.5-0.5-0.8-1.2-0.8-2.1c0-0.9,0.4-1.6,1.1-2.1c0.7-0.5,1.7-0.8,3-0.8h1.9v-0.9
			c0-0.6-0.2-1-0.5-1.3s-0.8-0.5-1.4-0.5c-0.6,0-1,0.1-1.4,0.4c-0.3,0.3-0.5,0.6-0.5,1h-1.7l0-0.1c0-0.7,0.3-1.3,1-1.9
			c0.7-0.6,1.6-0.9,2.7-0.9c1.1,0,1.9,0.3,2.6,0.8s1,1.3,1,2.4v4.6c0,0.3,0,0.7,0.1,1s0.1,0.6,0.2,0.9H324.6z M321.7,259.6
			c0.6,0,1.2-0.2,1.7-0.5s0.8-0.7,1-1.1v-1.5h-1.9c-0.7,0-1.3,0.2-1.7,0.5c-0.4,0.4-0.6,0.8-0.6,1.2c0,0.4,0.1,0.8,0.4,1
			C320.8,259.5,321.2,259.6,321.7,259.6z"/>
		<path class="st9" d="M327.3,256.3c0-1.5,0.3-2.8,1-3.7s1.6-1.4,2.8-1.4c0.6,0,1.1,0.1,1.6,0.4s0.8,0.6,1.1,1l0.2-1.2h1.4v9.6
			c0,1.2-0.4,2.2-1.1,2.8s-1.7,1-3.1,1c-0.5,0-1-0.1-1.5-0.2c-0.5-0.1-1-0.3-1.4-0.5l0.4-1.3c0.3,0.2,0.7,0.3,1.1,0.4
			s0.9,0.2,1.3,0.2c0.8,0,1.5-0.2,1.8-0.6c0.4-0.4,0.6-1,0.6-1.8v-1.1c-0.3,0.4-0.7,0.7-1.1,0.9s-0.9,0.3-1.5,0.3
			c-1.2,0-2.1-0.4-2.8-1.3s-1-1.9-1-3.3V256.3z M329.1,256.5c0,1,0.2,1.7,0.6,2.3s1,0.9,1.8,0.9c0.5,0,1-0.1,1.3-0.4s0.6-0.6,0.9-1
			v-4.4c-0.2-0.4-0.5-0.7-0.9-1s-0.8-0.4-1.3-0.4c-0.8,0-1.4,0.3-1.9,1s-0.6,1.6-0.6,2.7V256.5z"/>
		<path class="st9" d="M341,261c-1.3,0-2.4-0.4-3.2-1.3c-0.8-0.9-1.2-2-1.2-3.4v-0.4c0-1.4,0.4-2.5,1.2-3.4c0.8-0.9,1.8-1.3,2.9-1.3
			c1.3,0,2.3,0.4,2.9,1.2s1,1.8,1,3.1v1.1h-6.2l0,0c0,0.9,0.2,1.7,0.7,2.2c0.4,0.6,1.1,0.9,1.9,0.9c0.6,0,1.1-0.1,1.5-0.3
			c0.4-0.2,0.8-0.4,1.1-0.7l0.7,1.1c-0.3,0.3-0.8,0.6-1.3,0.8C342.5,260.9,341.8,261,341,261z M340.7,252.5c-0.6,0-1.1,0.2-1.5,0.7
			c-0.4,0.5-0.7,1.1-0.8,1.8l0,0h4.4v-0.2c0-0.7-0.2-1.2-0.5-1.7S341.4,252.5,340.7,252.5z"/>
	</g>
	<line class="st8" x1="794.7" y1="112" x2="1035.3" y2="112"/>
	<rect x="205.4" y="46.6" class="st5" width="33.3" height="3.2"/>
	<g>
		<g>
			<path class="st34" d="M252.7,95.8C252.7,95.8,252.7,95.8,252.7,95.8L252.7,95.8z"/>
			<path class="st34" d="M252.7,95.8C252.7,95.7,252.7,95.7,252.7,95.8C252.7,95.7,252.7,95.7,252.7,95.8z"/>
			<path class="st34" d="M254.1,92c-1.8-0.4-3.9-0.8-6.2-1.2c0.2,0.7,0.6,1.3,0.7,2c1.7,0.4,3.4,0.9,5.2,1.5c0.5,0.1,0.8-0.3,1.3-1
				C255.1,93.1,256.1,92.3,254.1,92z"/>
			<path class="st54" d="M184.8,96.8c0,0,12,0.5,19.9,0s10-4.1,11.1-5c0.1-0.7,11.2-4.2,36.7,1"/>
		</g>
		<path class="st34" d="M155.7,90.9c20.2,0,22.5,2.7,22.5,6.1s-4,6.1-22.5,6.1s-22.5-5.3-22.5-6.1C133.3,96.2,135.6,90.9,155.7,90.9
			z"/>
		<path class="st34" d="M185.8,95.9v2c0,1.5-1.2,2.7-2.7,2.7c-9.4,0.9-13,0.7-13.8,0c-1.5,0-2.7-1.2-2.7-2.7v-2
			c0-1.5,1.2-2.7,2.7-2.7c-2.2-0.7,2.8-0.7,13.8,0C184.6,93.2,185.8,94.4,185.8,95.9z"/>
		<path class="st9" d="M181.5,100.8c-0.6,0.1-1.1,0.1-1.7,0.2c0-2.7,0-5.3,0-8c0.6,0,1.1,0.1,1.7,0.1
			C181.5,95.7,181.5,98.3,181.5,100.8z"/>
		<path class="st9" d="M178.7,101.1c-0.4,0-0.8,0.1-1.1,0.1c0-2.8,0-5.5,0-8.3c0.4,0,0.7,0,1.1,0.1
			C178.7,95.7,178.7,98.4,178.7,101.1z"/>
		<path class="st9" d="M177,101.2c-0.4,0-0.8,0-1.1,0.1c0-2.8,0-5.6,0-8.4c0.4,0,0.7,0,1.1,0.1C177,95.6,177,98.4,177,101.2z"/>
	</g>
	<g>
		<path class="st38" d="M256,164.1l-84,13.2c-0.9,0.1-1.8-0.5-1.9-1.4l0,0c-0.1-0.9,0.5-1.8,1.4-1.9l84-13.2
			c0.9-0.1,1.8,0.5,1.9,1.4l0,0C257.5,163.1,256.9,164,256,164.1z"/>
		<path class="st38" d="M174.1,177.9c-3.6,0.6-6.5,1.7-14.5,2.4c-1.8,0.2-2.7,0.3-4,0.5c0,0-9.4,1.7-12,1.9c-0.3,0-0.6,0-0.8-0.2
			c-0.2-0.2-0.4-0.4-0.5-0.7l-0.4-2.5c0-0.3,0-0.6,0.2-0.8c0.2-0.3,0.6-0.4,0.7-0.5c1.5-0.4,9.8-1.4,10.4-1.5c0.6-0.1,1.8-0.4,4.3-1
			c0,0,8-1.1,15.8-2.3c0.1,0,0.5-0.1,0.8,0.2c0.2,0.2,0.4,0.4,0.5,0.7l0.4,2.5C175.1,177.2,174.7,177.8,174.1,177.9z"/>
		<path class="st38" d="M147.6,182.9c-2.5,0.2-4.3,0.7-5.5,1.1c-0.8,0.3-2,0.7-3.2,0.3c-0.6-0.2-1-0.6-1.3-0.9l-0.6-4.1
			c-0.1-0.4-0.1-0.8,0.1-1c0.2-0.3,0.6-0.3,0.8-0.3c0.8,0,1.7-0.2,2.5-0.2c0.9,0,1.1-0.3,2.5-0.6c0.8-0.2,2.1-0.5,3.7-0.6
			c0.1,0,0.5-0.1,0.8,0.2c0.2,0.2,0.4,0.4,0.5,0.7l0.6,4.1C148.7,182.2,148.3,182.8,147.6,182.9z"/>
		<ellipse class="st38" cx="150.9" cy="176.8" rx="0.6" ry="0.4"/>
		
			<ellipse transform="matrix(0.2525 -0.9676 0.9676 0.2525 -37.664 298.2015)" class="st38" cx="174.2" cy="173.5" rx="0.5" ry="0.7"/>
		<ellipse class="st38" cx="156.8" cy="180.4" rx="0.6" ry="0.4"/>
	</g>
	<g>
		<g>
			<path class="st38" d="M194.9,230.2h-0.2c-0.2,0-0.4,0.2-0.4,0.4v2.7c0,0.2,0.2,0.4,0.4,0.4h0.2c0.2,0,0.4-0.2,0.4-0.4v-2.7
				C195.3,230.4,195.1,230.2,194.9,230.2z"/>
			<path class="st56" d="M206.9,275.5c-3.6,0.4-7.6,0.6-11.9,0.6c-4.5,0-8.7-0.2-12.5-0.6c0-1.4,0-2.8,0-4.3
				c3.6,0.4,7.7,0.7,12.1,0.7c4.5,0,8.6-0.3,12.2-0.7C206.9,272.7,206.9,274.1,206.9,275.5z"/>
			<path class="st57" d="M207,271.3c-3.3,0.6-7.3,1.2-12,1.2c-4.8,0-9-0.5-12.4-1.2c0-0.1,0-0.1,0-0.3c3.2-0.7,7.3-1.3,12.1-1.2
				C199.6,269.8,203.7,270.5,207,271.3z"/>
			<g>
				<g>
					<line class="st58" x1="194.8" y1="233.8" x2="194.8" y2="248.9"/>
				</g>
				<g>
					<path class="st58" d="M182.6,248.8h24.3v23.7c-3.4,0.6-7.5,1.1-12.2,1.1c-4.6,0-8.7-0.5-12.1-1.1
						C182.6,264.6,182.6,256.7,182.6,248.8z"/>
					<path class="st58" d="M182.6,260.6c3.7,0.3,7.8,0.5,12.2,0.5c4.3,0,8.4-0.2,12.2-0.5"/>
					<path class="st58" d="M182.6,248.7c3.9,0.2,7.9,0.3,12.2,0.3s8.3-0.1,12.2-0.3"/>
					<line class="st58" x1="203" y1="248.9" x2="203" y2="273"/>
					<line class="st58" x1="198.8" y1="248.9" x2="198.8" y2="273.4"/>
					<line class="st58" x1="194.8" y1="248.9" x2="194.8" y2="273.4"/>
					<line class="st58" x1="190.6" y1="248.9" x2="190.6" y2="273.4"/>
					<line class="st58" x1="186.8" y1="248.9" x2="186.8" y2="273"/>
					<path class="st58" d="M182.6,260.2c3.5-0.5,7.6-0.9,12.2-0.9c4.5,0,8.6,0.4,12.1,0.9"/>
					<path class="st58" d="M182.6,248.4c3.5-0.5,7.6-0.9,12.2-0.9c4.5,0,8.6,0.4,12.1,0.9"/>
				</g>
				<path class="st58" d="M182.6,248.7c0-8.3,5.4-15,12.2-15"/>
				<path class="st58" d="M206.9,248.7c0-8.3-5.4-15-12.2-15"/>
				<path class="st58" d="M186.7,248.7c0-8.3,3.6-15,8.1-15"/>
				<path class="st58" d="M190.7,248.7c0-8.3,1.8-15,4.1-15"/>
				<path class="st58" d="M198.8,248.7c0-8.3-1.8-15-4.1-15"/>
				<path class="st58" d="M202.9,248.7c0-8.3-3.6-15-8.1-15"/>
				<path class="st58" d="M184.5,248.7c0-8.3,4.6-14.9,10.3-14.9"/>
				<path class="st58" d="M188.7,248.7c0-8.3,2.7-14.9,6.1-14.9"/>
				<path class="st58" d="M192.7,248.7c0-8.3,0.9-14.9,2-14.9"/>
				<path class="st58" d="M196.8,248.6c0-8.3-1-14.9-2.3-14.9"/>
				<path class="st58" d="M201,248.7c0-8.3-2.8-14.9-6.3-14.9"/>
				<path class="st58" d="M204.9,248.7c0-8.3-4.5-14.9-10.1-14.9"/>
			</g>
		</g>
		<line class="st58" x1="184.5" y1="249.1" x2="184.5" y2="270.5"/>
		<line class="st58" x1="188.5" y1="249.1" x2="188.5" y2="270.1"/>
		<line class="st58" x1="192.7" y1="249.1" x2="192.7" y2="269.9"/>
		<line class="st58" x1="196.9" y1="249.1" x2="196.9" y2="269.9"/>
		<line class="st58" x1="201.1" y1="249.1" x2="201.1" y2="270.3"/>
		<line class="st58" x1="204.9" y1="249.1" x2="204.9" y2="270.7"/>
	</g>
	<path class="st59" d="M137,93.6c3.2-0.4,6.8-0.7,10.7-0.7c4.1,0,7.8,0.2,11.1,0.6"/>
	<path class="st59" d="M134.3,95.4c2.6-0.2,5.3-0.3,8.1-0.3c3.2,0,6.3,0,9.2,0.2"/>
	<path class="st59" d="M136.1,99.5c3.3,0.2,6.8,0.3,10.6,0.2c3.7,0,7.1-0.2,10.4-0.4"/>
	<path class="st59" d="M133.3,97.2c4.8,0,9.6,0.1,14.5,0c4.9,0,9.7-0.1,14.4-0.2"/>
</g>
<g id="Layer_3" class="st78">
	<rect x="925" class="st80" width="48" height="48"/>
	<rect x="925" y="344" class="st80" width="48" height="48"/>
</g>
</svg>
