<?xml version="1.0" encoding="utf-8"?>
<!-- Generator: Adobe Illustrator 21.1.0, SVG Export Plug-In . SVG Version: 6.00 Build 0)  -->
<svg version="1.1" id="Layer_1" xmlns="http://www.w3.org/2000/svg" xmlns:xlink="http://www.w3.org/1999/xlink" x="0px" y="0px"
	 viewBox="0 0 166 154" style="enable-background:new 0 0 166 154;" xml:space="preserve">
<style type="text/css">
	.st0{fill:#6AC083;}
	.st1{fill:#00DBFF;}
</style>
<g>
	<path class="st0" d="M164.8,63.7L164.8,63.7l-21.2-14V2.7c0-1.5-1.2-2.7-2.7-2.7H25.3c-1.5,0-2.7,1.2-2.7,2.7v46.9l-21.2,14l0,0
		C0.7,64.2,0.2,65,0.2,66v85.1c0,1.5,1.2,2.7,2.7,2.7h160.3c1.5,0,2.7-1.2,2.7-2.7V66C166,65,165.5,64.2,164.8,63.7L164.8,63.7z
		 M22.6,73.3L14,68.7h8.6V73.3z M5.7,70.6l63.2,33.5L5.7,145.9V70.6z M83.1,101.2l71.1,47.1H12L83.1,101.2L83.1,101.2z M97.3,104.1
		l63.2-33.5v75.4L97.3,104.1L97.3,104.1z M143.6,68.7h8.6l-8.6,4.6V68.7z M154.1,63.3h-10.5v-7L154.1,63.3z M138.1,5.5v70.7
		l-46,24.4l-7.5-5c-0.9-0.6-2.1-0.6-3,0l-7.5,5l-46-24.4V5.5L138.1,5.5L138.1,5.5z M22.6,63.3H12l10.5-7V63.3z"/>
	<path class="st1" d="M83.1,72.2H105c1.5,0,2.7-1.2,2.7-2.7c0-1.5-1.2-2.7-2.7-2.7H83.1c-10.6,0-19.1-8.6-19.1-19.1v-0.8
		c0-10.6,8.6-19.1,19.1-19.1s19.1,8.6,19.1,19.1v2c0,2.3-1.9,4.1-4.1,4.1c-2.3,0-4.1-1.9-4.1-4.1V45c0-6.5-5.3-11.9-11.9-11.9
		c-6.5,0-11.9,5.3-11.9,11.9c0,6.5,5.3,11.9,11.9,11.9c3,0,5.7-1.1,7.8-2.9c1.7,2.7,4.7,4.6,8.2,4.6c5.3,0,9.6-4.3,9.6-9.6v-2
		c0-13.6-11-24.6-24.6-24.6s-24.6,11-24.6,24.6v0.8C58.5,61.2,69.5,72.2,83.1,72.2L83.1,72.2z M82.1,51.3c-3.5,0-6.4-2.9-6.4-6.4
		s2.9-6.4,6.4-6.4c3.5,0,6.4,2.9,6.4,6.4S85.6,51.3,82.1,51.3z"/>
</g>
</svg>
