<?xml version="1.0" encoding="utf-8"?>
<!-- Generator: Adobe Illustrator 20.0.0, SVG Export Plug-In . SVG Version: 6.00 Build 0)  -->
<svg version="1.1" xmlns="http://www.w3.org/2000/svg" xmlns:xlink="http://www.w3.org/1999/xlink" x="0px" y="0px"
	 viewBox="0 0 1200 632.5" style="enable-background:new 0 0 1200 632.5;" xml:space="preserve">
<style type="text/css">
	.st0{fill:#F1F2F2;}
	.st1{fill:#FFFFFF;stroke:#FFFFFF;stroke-miterlimit:10;}
	.st2{fill:#6D6E71;}
	.st3{fill:#FFFFFF;}
	.st4{fill:#FFFFFF;stroke:#231F20;stroke-miterlimit:10;}
	.st5{fill:#D1D3D4;}
	.st6{fill:none;stroke:#000000;stroke-miterlimit:10;}
	.st7{fill:#E6E7E8;}
	.st8{fill:none;stroke:#939598;stroke-miterlimit:10;}
	.st9{fill:#939598;}
	.st10{fill:#70758D;}
	.st11{opacity:0.6;}
	.st12{fill:#2E375D;}
	.st13{opacity:0.6;fill:#2E375D;}
	.st14{opacity:0.3;fill:none;stroke:#2E375D;stroke-miterlimit:10;}
	.st15{fill:#2CE5B5;}
	.st16{fill:#00C6AD;}
	.st17{fill:#25B0E5;}
	.st18{fill:#4275F4;}
	.st19{fill:none;}
	.st20{fill:none;stroke:#AFAFAF;stroke-miterlimit:10;}
	.st21{fill:none;stroke:#FFFFFF;stroke-miterlimit:10;}
	.st22{fill:#DCDCDC;}
	.st23{fill:none;stroke:#DCDCDC;stroke-miterlimit:10;}
	.st24{fill:#A7A9AC;}
	.st25{opacity:0.6;fill:#FFFFFF;}
	.st26{opacity:0.8;}
	.st27{opacity:0.3;fill:none;stroke:#2E375D;stroke-width:3;stroke-miterlimit:10;}
	.st28{fill:none;stroke:#70758D;stroke-width:5;stroke-miterlimit:10;}
	.st29{opacity:0.3;fill:#2E375D;}
	.st30{opacity:0.3;}
	.st31{fill:none;stroke:#2E375D;stroke-width:4;stroke-linecap:round;stroke-miterlimit:10;}
	.st32{display:none;}
	.st33{display:inline;fill:#00AEEF;}
	.st34{display:inline;fill:#2E375D;}
</style>
<g id="Layer_2">
</g>
<g id="Layer_1">
	<rect class="st0" width="1200" height="866.8"/>
	<rect x="50" y="43.9" class="st3" width="1100" height="789.1"/>
	<rect x="130" y="104.9" class="st5" width="705.9" height="263.8"/>
	<rect x="835.9" y="104.9" class="st10" width="234.5" height="132.7"/>
	<rect x="835.9" y="236" class="st9" width="234.5" height="132.7"/>
	<g class="st11">
		<path class="st12" d="M139.5,82.5h-1.5v-5h-5.5v5h-1.5V71.1h1.5v5.1h5.5v-5.1h1.5V82.5z"/>
		<path class="st12" d="M141.6,78.2c0-1.3,0.3-2.3,1-3.1c0.7-0.8,1.6-1.2,2.8-1.2c1.2,0,2.1,0.4,2.8,1.2s1,1.8,1,3.1v0.2
			c0,1.3-0.3,2.3-1,3.1c-0.7,0.8-1.6,1.2-2.8,1.2c-1.2,0-2.1-0.4-2.8-1.2s-1-1.8-1-3.1V78.2z M143.2,78.3c0,0.9,0.2,1.6,0.6,2.2
			c0.4,0.6,0.9,0.9,1.7,0.9c0.7,0,1.3-0.3,1.7-0.9c0.4-0.6,0.6-1.3,0.6-2.2v-0.2c0-0.9-0.2-1.6-0.6-2.2s-0.9-0.9-1.7-0.9
			c-0.7,0-1.3,0.3-1.7,0.9c-0.4,0.6-0.6,1.3-0.6,2.2V78.3z"/>
		<path class="st12" d="M152.5,74l0.1,1.1c0.3-0.4,0.6-0.7,1.1-0.9c0.4-0.2,0.9-0.3,1.5-0.3s1,0.1,1.4,0.4c0.4,0.3,0.7,0.7,0.9,1.2
			c0.3-0.5,0.6-0.9,1.1-1.1s0.9-0.4,1.5-0.4c0.9,0,1.5,0.3,2,0.9s0.8,1.5,0.8,2.7v5.1h-1.5v-5.1c0-0.8-0.1-1.4-0.4-1.8
			c-0.3-0.3-0.7-0.5-1.3-0.5c-0.5,0-1,0.2-1.3,0.5c-0.3,0.4-0.5,0.8-0.6,1.4v0.1v5.4h-1.5v-5.1c0-0.8-0.1-1.4-0.4-1.7
			c-0.3-0.4-0.7-0.6-1.3-0.6c-0.5,0-0.9,0.1-1.2,0.3c-0.3,0.2-0.5,0.5-0.7,0.8v6.3h-1.5V74H152.5z"/>
		<path class="st12" d="M168.6,82.6c-1.2,0-2.1-0.4-2.8-1.2s-1-1.8-1-3.1v-0.3c0-1.2,0.4-2.2,1.1-3c0.7-0.8,1.6-1.2,2.5-1.2
			c1.1,0,2,0.3,2.6,1c0.6,0.7,0.9,1.6,0.9,2.8v1h-5.5l0,0c0,0.8,0.2,1.5,0.6,2c0.4,0.5,1,0.8,1.7,0.8c0.5,0,1-0.1,1.4-0.2
			c0.4-0.1,0.7-0.4,1-0.6l0.6,1c-0.3,0.3-0.7,0.5-1.2,0.7C169.9,82.5,169.3,82.6,168.6,82.6z M168.3,75.1c-0.5,0-1,0.2-1.3,0.7
			c-0.4,0.4-0.6,1-0.7,1.6l0,0h3.9v-0.2c0-0.6-0.2-1.1-0.5-1.5C169.5,75.3,169,75.1,168.3,75.1z"/>
		<path class="st12" d="M184.7,78.6c0,1.2-0.3,2.2-0.9,2.9c-0.6,0.7-1.4,1.1-2.4,1.1c-0.5,0-1-0.1-1.4-0.3c-0.4-0.2-0.7-0.4-1-0.8
			v4.1h-1.5V74h1.2l0.2,1.1c0.3-0.4,0.6-0.7,1-0.9c0.4-0.2,0.9-0.3,1.4-0.3c1,0,1.9,0.4,2.4,1.2c0.6,0.8,0.9,1.9,0.9,3.3V78.6z
			 M183.2,78.4c0-1-0.2-1.7-0.6-2.4c-0.4-0.6-0.9-0.9-1.7-0.9c-0.4,0-0.8,0.1-1.1,0.3c-0.3,0.2-0.6,0.5-0.8,0.8v4.1
			c0.2,0.3,0.4,0.6,0.8,0.8s0.7,0.3,1.1,0.3c0.7,0,1.3-0.3,1.7-0.8s0.6-1.2,0.6-2.1V78.4z"/>
		<path class="st12" d="M191.8,82.5c-0.1-0.3-0.1-0.5-0.1-0.7c0-0.2,0-0.4-0.1-0.6c-0.3,0.4-0.7,0.7-1.1,1s-1,0.4-1.5,0.4
			c-0.9,0-1.6-0.2-2-0.7s-0.7-1.1-0.7-1.9c0-0.8,0.3-1.4,1-1.9c0.7-0.5,1.5-0.7,2.7-0.7h1.7v-0.8c0-0.5-0.2-0.9-0.5-1.2
			c-0.3-0.3-0.7-0.4-1.3-0.4c-0.5,0-0.9,0.1-1.2,0.4c-0.3,0.3-0.5,0.6-0.5,0.9h-1.5l0,0c0-0.6,0.3-1.2,0.9-1.7
			c0.6-0.5,1.4-0.8,2.4-0.8c1,0,1.7,0.2,2.3,0.7c0.6,0.5,0.9,1.2,0.9,2.1v4.1c0,0.3,0,0.6,0,0.9s0.1,0.6,0.2,0.8H191.8z M189.2,81.3
			c0.6,0,1.1-0.1,1.5-0.4c0.4-0.3,0.7-0.6,0.9-1v-1.4h-1.7c-0.6,0-1.1,0.2-1.5,0.5c-0.4,0.3-0.6,0.7-0.6,1.1c0,0.4,0.1,0.7,0.4,0.9
			C188.4,81.2,188.8,81.3,189.2,81.3z"/>
		<path class="st12" d="M195.1,78.4c0-1.4,0.3-2.5,0.9-3.3s1.4-1.3,2.5-1.3c0.5,0,1,0.1,1.4,0.3s0.7,0.5,1,0.9L201,74h1.2v8.5
			c0,1.1-0.3,1.9-0.9,2.5c-0.6,0.6-1.5,0.9-2.7,0.9c-0.4,0-0.8-0.1-1.3-0.2c-0.5-0.1-0.9-0.3-1.2-0.5l0.4-1.2c0.3,0.2,0.6,0.3,1,0.4
			c0.4,0.1,0.8,0.1,1.2,0.1c0.8,0,1.3-0.2,1.6-0.5c0.3-0.3,0.5-0.9,0.5-1.6v-1c-0.3,0.4-0.6,0.6-1,0.8c-0.4,0.2-0.8,0.3-1.3,0.3
			c-1,0-1.9-0.4-2.4-1.1s-0.9-1.7-0.9-2.9V78.4z M196.6,78.6c0,0.8,0.2,1.5,0.5,2s0.9,0.8,1.6,0.8c0.5,0,0.9-0.1,1.2-0.3
			s0.6-0.5,0.8-0.9v-3.9c-0.2-0.4-0.5-0.6-0.8-0.9c-0.3-0.2-0.7-0.3-1.1-0.3c-0.7,0-1.3,0.3-1.6,0.9c-0.4,0.6-0.5,1.4-0.5,2.4V78.6z
			"/>
		<path class="st12" d="M208,82.6c-1.2,0-2.1-0.4-2.8-1.2s-1-1.8-1-3.1v-0.3c0-1.2,0.4-2.2,1.1-3c0.7-0.8,1.6-1.2,2.5-1.2
			c1.1,0,2,0.3,2.6,1c0.6,0.7,0.9,1.6,0.9,2.8v1h-5.5l0,0c0,0.8,0.2,1.5,0.6,2c0.4,0.5,1,0.8,1.7,0.8c0.5,0,1-0.1,1.4-0.2
			c0.4-0.1,0.7-0.4,1-0.6l0.6,1c-0.3,0.3-0.7,0.5-1.2,0.7C209.3,82.5,208.7,82.6,208,82.6z M207.8,75.1c-0.5,0-1,0.2-1.3,0.7
			c-0.4,0.4-0.6,1-0.7,1.6l0,0h3.9v-0.2c0-0.6-0.2-1.1-0.5-1.5C208.9,75.3,208.4,75.1,207.8,75.1z"/>
	</g>
	<g class="st11">
		<path class="st12" d="M389.9,188.1v-21.3h7.3c2.6,0,4.8,0.8,6.4,2.5c1.7,1.7,2.5,3.8,2.5,6.4v3.5c0,2.6-0.8,4.8-2.5,6.4
			c-1.7,1.7-3.8,2.5-6.4,2.5H389.9z M394.1,170.1v14.7h2.8c1.5,0,2.7-0.5,3.6-1.6c0.9-1,1.3-2.4,1.3-4.1v-3.6c0-1.6-0.4-3-1.3-4
			c-0.9-1-2.1-1.6-3.6-1.6H394.1z"/>
		<path class="st12" d="M413.7,168.5h-4.3v-3.2h4.3V168.5z M413.7,188.1h-4.3v-15.8h4.3V188.1z"/>
		<path class="st12" d="M425.7,183.7c0-0.5-0.2-0.9-0.7-1.2s-1.3-0.6-2.5-0.9c-1.9-0.4-3.3-0.9-4.2-1.7c-1-0.7-1.4-1.8-1.4-3.1
			c0-1.4,0.6-2.5,1.7-3.5c1.1-1,2.7-1.4,4.6-1.4c2,0,3.6,0.5,4.8,1.4s1.8,2.1,1.7,3.6l0,0.1h-4.1c0-0.6-0.2-1.2-0.6-1.6
			s-1-0.6-1.8-0.6c-0.7,0-1.2,0.2-1.6,0.5c-0.4,0.3-0.6,0.8-0.6,1.3c0,0.5,0.2,0.9,0.6,1.2s1.3,0.6,2.5,0.8c2,0.4,3.4,1,4.4,1.7
			c0.9,0.8,1.4,1.8,1.4,3.1c0,1.4-0.6,2.6-1.8,3.5c-1.2,0.9-2.8,1.4-4.8,1.4c-2.1,0-3.8-0.5-5-1.6c-1.2-1.1-1.8-2.3-1.8-3.7l0-0.1
			h3.9c0,0.8,0.3,1.5,0.8,1.8s1.2,0.6,2.1,0.6c0.8,0,1.4-0.2,1.8-0.5S425.7,184.3,425.7,183.7z"/>
		<path class="st12" d="M439.3,185.1c0.8,0,1.4-0.2,1.8-0.7c0.5-0.4,0.7-1,0.7-1.8h3.9l0,0.1c0,1.6-0.6,2.9-1.8,4
			c-1.2,1.1-2.8,1.6-4.6,1.6c-2.4,0-4.2-0.7-5.5-2.2s-1.9-3.4-1.9-5.8V180c0-2.3,0.6-4.3,1.9-5.8s3.1-2.3,5.5-2.3
			c2,0,3.5,0.6,4.7,1.7s1.8,2.6,1.7,4.4l0,0.1h-3.9c0-0.8-0.2-1.5-0.7-2c-0.4-0.5-1.1-0.8-1.9-0.8c-1.1,0-1.9,0.4-2.4,1.3
			s-0.7,2-0.7,3.4v0.4c0,1.4,0.2,2.6,0.7,3.4C437.4,184.7,438.2,185.1,439.3,185.1z"/>
		<path class="st12" d="M447.5,180c0-2.4,0.7-4.3,2-5.8c1.3-1.5,3.1-2.3,5.5-2.3c2.3,0,4.2,0.8,5.5,2.3s2,3.4,2,5.8v0.3
			c0,2.4-0.7,4.3-2,5.8c-1.3,1.5-3.2,2.2-5.5,2.2c-2.3,0-4.2-0.8-5.5-2.2c-1.3-1.5-2-3.4-2-5.8V180z M451.8,180.3
			c0,1.4,0.3,2.6,0.8,3.5c0.5,0.9,1.3,1.3,2.5,1.3c1.1,0,1.9-0.4,2.4-1.3s0.8-2,0.8-3.5V180c0-1.4-0.3-2.5-0.8-3.4s-1.3-1.3-2.4-1.3
			c-1.1,0-1.9,0.4-2.4,1.3c-0.5,0.9-0.8,2-0.8,3.4V180.3z"/>
		<path class="st12" d="M474.8,185.8c-0.5,0.8-1.1,1.5-1.9,1.9s-1.6,0.7-2.6,0.7c-1.7,0-3-0.5-3.9-1.6c-0.9-1.1-1.4-2.7-1.4-5v-9.6
			h4.3v9.6c0,1.2,0.2,2,0.6,2.5s1,0.8,1.7,0.8c0.7,0,1.3-0.1,1.8-0.3s0.9-0.5,1.2-1v-11.6h4.3v15.8h-3.6L474.8,185.8z"/>
		<path class="st12" d="M486,172.3l0.2,2.3c0.5-0.8,1.2-1.4,1.9-1.9s1.6-0.7,2.6-0.7c1.6,0,2.9,0.5,3.8,1.5s1.3,2.6,1.3,4.7v9.9
			h-4.3v-9.9c0-1.1-0.2-1.8-0.6-2.3s-1.1-0.7-1.9-0.7c-0.6,0-1.1,0.1-1.5,0.3c-0.4,0.2-0.8,0.6-1.1,1v11.5H482v-15.8H486z"/>
		<path class="st12" d="M504.1,168.4v3.9h2.7v3h-2.7v8.1c0,0.6,0.1,1.1,0.4,1.3s0.6,0.4,1,0.4c0.2,0,0.4,0,0.6,0
			c0.2,0,0.3-0.1,0.6-0.1l0.4,3.1c-0.4,0.1-0.8,0.3-1.3,0.3c-0.4,0.1-0.9,0.1-1.3,0.1c-1.5,0-2.6-0.4-3.4-1.2
			c-0.8-0.8-1.2-2.1-1.2-3.9v-8.1h-2.3v-3h2.3v-3.9H504.1z"/>
		<path class="st12" d="M516.5,188.4c-2.3,0-4.1-0.7-5.5-2.2c-1.4-1.5-2.1-3.3-2.1-5.6V180c0-2.4,0.6-4.3,1.9-5.8
			c1.3-1.5,3-2.3,5.2-2.3c2.1,0,3.8,0.6,5,1.9s1.8,3,1.8,5.2v2.3h-9.5l0,0.1c0.1,1,0.4,1.9,1,2.6c0.6,0.7,1.5,1,2.5,1
			c0.9,0,1.7-0.1,2.4-0.3c0.6-0.2,1.3-0.5,2.1-0.9l1.2,2.6c-0.6,0.5-1.5,1-2.5,1.3S517.7,188.4,516.5,188.4z M516.1,175.3
			c-0.8,0-1.4,0.3-1.9,0.9s-0.7,1.4-0.8,2.4l0,0.1h5.2v-0.4c0-0.9-0.2-1.6-0.6-2.2C517.6,175.5,516.9,175.3,516.1,175.3z"/>
		<path class="st12" d="M524.7,180.3c0-2.5,0.5-4.5,1.6-6s2.6-2.3,4.6-2.3c0.8,0,1.5,0.2,2.1,0.5s1.2,0.8,1.7,1.5v-8.7h4.3v22.9
			h-3.7l-0.4-1.9c-0.5,0.7-1.1,1.3-1.8,1.7c-0.7,0.4-1.5,0.6-2.3,0.6c-1.9,0-3.5-0.7-4.5-2.1s-1.6-3.3-1.6-5.7V180.3z M528.9,180.6
			c0,1.4,0.2,2.5,0.7,3.3c0.5,0.8,1.2,1.2,2.3,1.2c0.6,0,1.2-0.1,1.6-0.4c0.5-0.3,0.8-0.6,1.1-1.1v-6.8c-0.3-0.5-0.7-0.9-1.1-1.2
			c-0.5-0.3-1-0.4-1.6-0.4c-1,0-1.8,0.5-2.3,1.4c-0.5,0.9-0.7,2.2-0.7,3.7V180.6z"/>
		<path class="st12" d="M554.4,180.4v7.7h-4.3v-21.3h8.5c2.5,0,4.4,0.6,5.8,1.9s2.1,2.9,2.1,4.9s-0.7,3.7-2.1,4.9s-3.3,1.9-5.8,1.9
			H554.4z M554.4,177.1h4.2c1.2,0,2.1-0.3,2.7-1c0.6-0.6,0.9-1.5,0.9-2.5c0-1-0.3-1.9-0.9-2.5c-0.6-0.7-1.5-1-2.7-1h-4.2V177.1z"/>
		<path class="st12" d="M577.6,175.9l-1.6,0c-0.6,0-1.2,0.1-1.6,0.4s-0.7,0.6-0.9,1.1v10.7h-4.3v-15.8h4l0.2,2.3
			c0.4-0.8,0.9-1.5,1.4-1.9c0.6-0.5,1.3-0.7,2-0.7c0.2,0,0.4,0,0.6,0.1c0.2,0,0.4,0.1,0.5,0.1L577.6,175.9z"/>
		<path class="st12" d="M579.1,180c0-2.4,0.7-4.3,2-5.8c1.3-1.5,3.1-2.3,5.5-2.3c2.3,0,4.2,0.8,5.5,2.3s2,3.4,2,5.8v0.3
			c0,2.4-0.7,4.3-2,5.8c-1.3,1.5-3.2,2.2-5.5,2.2c-2.3,0-4.2-0.8-5.5-2.2c-1.3-1.5-2-3.4-2-5.8V180z M583.4,180.3
			c0,1.4,0.3,2.6,0.8,3.5c0.5,0.9,1.3,1.3,2.5,1.3c1.1,0,1.9-0.4,2.4-1.3c0.5-0.9,0.8-2,0.8-3.5V180c0-1.4-0.3-2.5-0.8-3.4
			s-1.3-1.3-2.4-1.3c-1.1,0-1.9,0.4-2.4,1.3c-0.5,0.9-0.8,2-0.8,3.4V180.3z"/>
		<path class="st12" d="M596,180.3c0-2.5,0.5-4.5,1.6-6s2.6-2.3,4.6-2.3c0.8,0,1.5,0.2,2.1,0.5s1.2,0.8,1.7,1.5v-8.7h4.3v22.9h-3.7
			l-0.4-1.9c-0.5,0.7-1.1,1.3-1.8,1.7c-0.7,0.4-1.5,0.6-2.3,0.6c-1.9,0-3.5-0.7-4.5-2.1s-1.6-3.3-1.6-5.7V180.3z M600.3,180.6
			c0,1.4,0.2,2.5,0.7,3.3c0.5,0.8,1.2,1.2,2.3,1.2c0.6,0,1.2-0.1,1.6-0.4c0.5-0.3,0.8-0.6,1.1-1.1v-6.8c-0.3-0.5-0.7-0.9-1.1-1.2
			c-0.5-0.3-1-0.4-1.6-0.4c-1,0-1.8,0.5-2.3,1.4c-0.5,0.9-0.7,2.2-0.7,3.7V180.6z"/>
		<path class="st12" d="M623.3,185.8c-0.5,0.8-1.1,1.5-1.9,1.9s-1.6,0.7-2.6,0.7c-1.7,0-3-0.5-3.9-1.6c-0.9-1.1-1.4-2.7-1.4-5v-9.6
			h4.3v9.6c0,1.2,0.2,2,0.6,2.5s1,0.8,1.7,0.8c0.7,0,1.3-0.1,1.8-0.3s0.9-0.5,1.2-1v-11.6h4.3v15.8h-3.6L623.3,185.8z"/>
		<path class="st12" d="M637.2,185.1c0.8,0,1.4-0.2,1.8-0.7c0.5-0.4,0.7-1,0.7-1.8h3.9l0,0.1c0,1.6-0.6,2.9-1.8,4
			c-1.2,1.1-2.8,1.6-4.6,1.6c-2.4,0-4.2-0.7-5.5-2.2s-1.9-3.4-1.9-5.8V180c0-2.3,0.6-4.3,1.9-5.8c1.3-1.5,3.1-2.3,5.5-2.3
			c2,0,3.5,0.6,4.7,1.7s1.8,2.6,1.7,4.4l0,0.1h-3.9c0-0.8-0.2-1.5-0.7-2c-0.4-0.5-1.1-0.8-1.9-0.8c-1.1,0-1.9,0.4-2.4,1.3
			s-0.7,2-0.7,3.4v0.4c0,1.4,0.2,2.6,0.7,3.4C635.3,184.7,636.1,185.1,637.2,185.1z"/>
		<path class="st12" d="M651.2,168.4v3.9h2.7v3h-2.7v8.1c0,0.6,0.1,1.1,0.4,1.3s0.6,0.4,1,0.4c0.2,0,0.4,0,0.6,0
			c0.2,0,0.3-0.1,0.6-0.1l0.4,3.1c-0.4,0.1-0.8,0.3-1.3,0.3c-0.4,0.1-0.9,0.1-1.3,0.1c-1.5,0-2.6-0.4-3.4-1.2
			c-0.8-0.8-1.2-2.1-1.2-3.9v-8.1h-2.3v-3h2.3v-3.9H651.2z"/>
	</g>
	<g class="st11">
		<path class="st3" d="M869.3,252.9h-4.8v14.4H861v-14.4h-4.8v-2.6h13.1V252.9z"/>
		<path class="st3" d="M869.3,260.9c0-1.9,0.5-3.4,1.6-4.6s2.5-1.8,4.4-1.8c1.9,0,3.3,0.6,4.4,1.8s1.6,2.8,1.6,4.7v0.2
			c0,1.9-0.5,3.5-1.6,4.7s-2.5,1.8-4.4,1.8c-1.9,0-3.3-0.6-4.4-1.8s-1.6-2.8-1.6-4.7V260.9z M872.7,261.1c0,1.2,0.2,2.1,0.6,2.8
			s1.1,1,2,1c0.9,0,1.5-0.4,1.9-1.1s0.6-1.6,0.6-2.8v-0.2c0-1.1-0.2-2-0.6-2.7s-1.1-1.1-2-1.1c-0.9,0-1.5,0.4-1.9,1.1
			s-0.6,1.6-0.6,2.7V261.1z"/>
		<path class="st3" d="M894.8,261.4c0,1.9-0.4,3.4-1.3,4.5s-2.1,1.7-3.6,1.7c-0.7,0-1.3-0.1-1.8-0.4s-1-0.6-1.3-1.1v6.1h-3.4v-17.6
			h3.1l0.2,1.5c0.4-0.6,0.8-1,1.4-1.3s1.1-0.5,1.8-0.5c1.6,0,2.8,0.6,3.7,1.8s1.3,2.8,1.3,4.8V261.4z M891.4,261.1
			c0-1.2-0.2-2.2-0.6-2.9s-1-1.1-1.8-1.1c-0.5,0-1,0.1-1.3,0.3c-0.4,0.2-0.7,0.5-0.9,0.9v5.6c0.2,0.4,0.5,0.6,0.9,0.8
			c0.4,0.2,0.8,0.3,1.3,0.3c0.8,0,1.4-0.3,1.8-1s0.6-1.5,0.6-2.6V261.1z"/>
		<path class="st3" d="M906.2,257.4h1.9c0.8,0,1.4-0.2,1.8-0.6s0.6-1,0.6-1.8c0-0.7-0.2-1.2-0.6-1.7s-1-0.6-1.7-0.6
			c-0.6,0-1.2,0.2-1.6,0.6s-0.7,0.9-0.7,1.5h-3.3l0-0.1c0-1.3,0.5-2.4,1.5-3.3s2.4-1.3,4-1.3c1.8,0,3.2,0.4,4.2,1.3s1.6,2,1.6,3.6
			c0,0.7-0.2,1.4-0.7,2.1s-1.1,1.2-1.9,1.6c0.9,0.3,1.7,0.9,2.2,1.5s0.7,1.5,0.7,2.4c0,1.6-0.6,2.8-1.7,3.7s-2.6,1.3-4.4,1.3
			c-1.6,0-2.9-0.4-4.1-1.3s-1.7-2-1.6-3.6l0-0.1h3.3c0,0.7,0.2,1.2,0.7,1.6c0.5,0.4,1.1,0.6,1.8,0.6c0.8,0,1.4-0.2,1.9-0.7
			s0.7-1,0.7-1.8c0-0.9-0.2-1.6-0.7-2s-1.1-0.6-2-0.6h-1.9V257.4z"/>
		<path class="st3" d="M934,261.4c0,1.9-0.4,3.4-1.3,4.5s-2.1,1.7-3.6,1.7c-0.7,0-1.3-0.1-1.8-0.4s-1-0.6-1.3-1.1v6.1h-3.4v-17.6
			h3.1l0.2,1.5c0.4-0.6,0.8-1,1.4-1.3s1.1-0.5,1.8-0.5c1.6,0,2.8,0.6,3.7,1.8s1.3,2.8,1.3,4.8V261.4z M930.6,261.1
			c0-1.2-0.2-2.2-0.6-2.9s-1-1.1-1.8-1.1c-0.5,0-1,0.1-1.3,0.3c-0.4,0.2-0.7,0.5-0.9,0.9v5.6c0.2,0.4,0.5,0.6,0.9,0.8
			c0.4,0.2,0.8,0.3,1.3,0.3c0.8,0,1.4-0.3,1.8-1s0.6-1.5,0.6-2.6V261.1z"/>
		<path class="st3" d="M942.8,257.6l-1.3,0c-0.5,0-0.9,0.1-1.3,0.3s-0.6,0.5-0.8,0.9v8.6h-3.4v-12.7h3.2l0.2,1.9
			c0.3-0.7,0.7-1.2,1.2-1.6s1-0.6,1.6-0.6c0.2,0,0.3,0,0.5,0s0.3,0.1,0.4,0.1L942.8,257.6z"/>
		<path class="st3" d="M944,260.9c0-1.9,0.5-3.4,1.6-4.6s2.5-1.8,4.4-1.8c1.9,0,3.3,0.6,4.4,1.8s1.6,2.8,1.6,4.7v0.2
			c0,1.9-0.5,3.5-1.6,4.7s-2.5,1.8-4.4,1.8c-1.9,0-3.3-0.6-4.4-1.8s-1.6-2.8-1.6-4.7V260.9z M947.4,261.1c0,1.2,0.2,2.1,0.6,2.8
			s1.1,1,2,1c0.9,0,1.5-0.4,1.9-1.1s0.6-1.6,0.6-2.8v-0.2c0-1.1-0.2-2-0.6-2.7s-1.1-1.1-2-1.1c-0.9,0-1.5,0.4-1.9,1.1
			s-0.6,1.6-0.6,2.7V261.1z"/>
		<path class="st3" d="M957.6,261.1c0-2,0.4-3.6,1.3-4.8s2.1-1.8,3.7-1.8c0.6,0,1.2,0.1,1.7,0.4s1,0.7,1.3,1.2v-6.9h3.4v18.3h-2.9
			l-0.3-1.5c-0.4,0.6-0.9,1-1.4,1.3s-1.2,0.5-1.9,0.5c-1.6,0-2.8-0.6-3.6-1.7s-1.3-2.6-1.3-4.5V261.1z M961,261.4
			c0,1.1,0.2,2,0.6,2.6c0.4,0.6,1,1,1.8,1c0.5,0,0.9-0.1,1.3-0.3c0.4-0.2,0.7-0.5,0.9-0.9v-5.4c-0.2-0.4-0.5-0.7-0.9-0.9
			c-0.4-0.2-0.8-0.3-1.3-0.3c-0.8,0-1.4,0.4-1.8,1.1c-0.4,0.7-0.6,1.7-0.6,2.9V261.4z"/>
		<path class="st3" d="M979.4,265.5c-0.4,0.7-0.9,1.2-1.5,1.5s-1.3,0.5-2.1,0.5c-1.3,0-2.4-0.4-3.1-1.3s-1.1-2.2-1.1-4v-7.7h3.4v7.7
			c0,0.9,0.2,1.6,0.5,2s0.8,0.6,1.4,0.6c0.5,0,1-0.1,1.4-0.3c0.4-0.2,0.7-0.4,1-0.8v-9.2h3.4v12.7h-2.9L979.4,265.5z"/>
		<path class="st3" d="M990.5,265c0.6,0,1.1-0.2,1.5-0.5c0.4-0.4,0.6-0.8,0.6-1.4h3.1l0,0.1c0,1.3-0.5,2.4-1.4,3.2s-2.2,1.3-3.7,1.3
			c-1.9,0-3.3-0.6-4.4-1.8s-1.5-2.7-1.5-4.6v-0.4c0-1.9,0.5-3.4,1.5-4.6s2.5-1.8,4.4-1.8c1.6,0,2.8,0.4,3.8,1.3s1.4,2.1,1.4,3.5
			l0,0.1h-3.1c0-0.7-0.2-1.2-0.5-1.6s-0.9-0.7-1.5-0.7c-0.9,0-1.5,0.4-1.9,1.1s-0.6,1.6-0.6,2.7v0.4c0,1.1,0.2,2,0.6,2.7
			S989.6,265,990.5,265z"/>
		<path class="st3" d="M1001.7,251.6v3.1h2.1v2.4h-2.1v6.5c0,0.5,0.1,0.8,0.3,1.1s0.5,0.3,0.8,0.3c0.2,0,0.3,0,0.5,0
			s0.3-0.1,0.5-0.1l0.3,2.5c-0.3,0.1-0.7,0.2-1,0.3s-0.7,0.1-1.1,0.1c-1.2,0-2.1-0.3-2.7-1s-1-1.7-1-3.1v-6.5h-1.9v-2.4h1.9v-3.1
			H1001.7z"/>
	</g>
	<g class="st11">
		<path class="st3" d="M934.1,344c0-0.6-0.2-1.1-0.5-1.5s-1-0.8-1.9-1.1c-1.7-0.6-3-1.3-3.9-2.1s-1.3-1.9-1.3-3.3
			c0-1.3,0.4-2.4,1.3-3.2s2-1.3,3.4-1.5v-2.5h1.9v2.5c1.4,0.2,2.5,0.8,3.2,1.7s1.2,2.2,1.2,3.7l0,0.1h-3.3c0-0.9-0.2-1.6-0.6-2.1
			s-0.9-0.8-1.6-0.8c-0.7,0-1.2,0.2-1.5,0.6s-0.5,0.9-0.5,1.5c0,0.6,0.2,1.1,0.5,1.5s1,0.8,1.9,1.1c1.7,0.7,3,1.4,3.8,2.2
			s1.2,1.9,1.2,3.2c0,1.4-0.4,2.4-1.3,3.3s-2,1.3-3.4,1.4v2.3H931v-2.3c-1.5-0.1-2.7-0.7-3.6-1.6s-1.4-2.2-1.4-3.9l0-0.1h3.3
			c0,1,0.2,1.8,0.7,2.3s1.1,0.7,1.8,0.7c0.7,0,1.3-0.2,1.6-0.6S934.1,344.7,934.1,344z"/>
		<path class="st3" d="M950.9,336c0,0.9-0.2,1.6-0.7,2.3s-1.1,1.2-1.9,1.5c0.9,0.4,1.6,0.9,2.1,1.6s0.8,1.5,0.8,2.4
			c0,1.6-0.5,2.8-1.6,3.6s-2.5,1.3-4.2,1.3c-1.7,0-3.2-0.4-4.2-1.3s-1.6-2.1-1.6-3.6c0-0.9,0.3-1.7,0.8-2.4s1.2-1.3,2.2-1.6
			c-0.8-0.4-1.4-0.9-1.9-1.5s-0.7-1.4-0.7-2.3c0-1.5,0.5-2.7,1.5-3.5s2.3-1.2,3.9-1.2c1.6,0,2.9,0.4,3.9,1.2S950.9,334.4,950.9,336z
			 M947.9,343.6c0-0.8-0.2-1.4-0.7-1.8s-1-0.7-1.7-0.7c-0.7,0-1.3,0.2-1.7,0.7s-0.7,1.1-0.7,1.8c0,0.8,0.2,1.4,0.7,1.8
			s1,0.7,1.7,0.7c0.7,0,1.3-0.2,1.7-0.7S947.9,344.4,947.9,343.6z M947.5,336.1c0-0.7-0.2-1.2-0.5-1.7s-0.9-0.6-1.5-0.6
			c-0.6,0-1.1,0.2-1.5,0.6s-0.5,1-0.5,1.7c0,0.7,0.2,1.3,0.5,1.7s0.8,0.6,1.5,0.6c0.6,0,1.1-0.2,1.5-0.6S947.5,336.8,947.5,336.1z"
			/>
		<path class="st3" d="M965.1,341.9c0,2.3-0.5,4-1.6,5.1s-2.4,1.8-4.2,1.8c-1.8,0-3.2-0.6-4.2-1.8s-1.6-2.9-1.6-5.1v-3.8
			c0-2.3,0.5-4,1.6-5.1s2.4-1.8,4.2-1.8c1.8,0,3.2,0.6,4.2,1.8s1.6,2.9,1.6,5.1V341.9z M961.7,337.7c0-1.3-0.2-2.3-0.6-3
			c-0.4-0.6-1-0.9-1.8-0.9c-0.8,0-1.4,0.3-1.8,0.9c-0.4,0.6-0.6,1.6-0.6,3v4.4c0,1.4,0.2,2.4,0.6,3c0.4,0.6,1,0.9,1.8,0.9
			c0.8,0,1.3-0.3,1.7-0.9c0.4-0.6,0.6-1.6,0.6-3V337.7z"/>
	</g>
	<g class="st11">
		<path class="st3" d="M871.1,157.8h-8.9v8.9h-4.3v-21.3h14.7v3.3h-10.4v5.9h8.9V157.8z"/>
		<path class="st3" d="M882.7,154.5l-1.6,0c-0.6,0-1.2,0.1-1.6,0.4s-0.7,0.6-0.9,1.1v10.7h-4.3v-15.8h4l0.2,2.3
			c0.4-0.8,0.9-1.5,1.4-1.9c0.6-0.5,1.3-0.7,2-0.7c0.2,0,0.4,0,0.6,0.1c0.2,0,0.4,0.1,0.5,0.1L882.7,154.5z"/>
		<path class="st3" d="M891.9,167c-2.3,0-4.1-0.7-5.5-2.2s-2.1-3.3-2.1-5.6v-0.6c0-2.4,0.6-4.3,1.9-5.8c1.3-1.5,3-2.3,5.2-2.3
			c2.1,0,3.8,0.6,5,1.9s1.8,3,1.8,5.2v2.3h-9.5l0,0.1c0.1,1,0.4,1.9,1,2.6c0.6,0.7,1.5,1,2.5,1c0.9,0,1.7-0.1,2.4-0.3
			c0.6-0.2,1.3-0.5,2.1-0.9l1.2,2.6c-0.6,0.5-1.5,1-2.5,1.3S893.2,167,891.9,167z M891.5,153.8c-0.8,0-1.4,0.3-1.9,0.9
			s-0.7,1.4-0.8,2.4l0,0.1h5.2v-0.4c0-0.9-0.2-1.6-0.6-2.2C893,154.1,892.4,153.8,891.5,153.8z"/>
		<path class="st3" d="M907.8,167c-2.3,0-4.1-0.7-5.5-2.2s-2.1-3.3-2.1-5.6v-0.6c0-2.4,0.6-4.3,1.9-5.8c1.3-1.5,3-2.3,5.2-2.3
			c2.1,0,3.8,0.6,5,1.9s1.8,3,1.8,5.2v2.3h-9.5l0,0.1c0.1,1,0.4,1.9,1,2.6c0.6,0.7,1.5,1,2.5,1c0.9,0,1.7-0.1,2.4-0.3
			c0.6-0.2,1.3-0.5,2.1-0.9l1.2,2.6c-0.6,0.5-1.5,1-2.5,1.3S909.1,167,907.8,167z M907.4,153.8c-0.8,0-1.4,0.3-1.9,0.9
			s-0.7,1.4-0.8,2.4l0,0.1h5.2v-0.4c0-0.9-0.2-1.6-0.6-2.2C908.9,154.1,908.3,153.8,907.4,153.8z"/>
		<path class="st3" d="M936,161.1c0-0.8-0.3-1.5-0.9-2c-0.6-0.5-1.6-1-3.1-1.4c-2.5-0.7-4.5-1.6-5.8-2.6s-1.9-2.4-1.9-4.1
			s0.7-3.2,2.2-4.3c1.5-1.1,3.4-1.7,5.7-1.7c2.3,0,4.3,0.6,5.7,1.9c1.5,1.2,2.2,2.8,2.1,4.6l0,0.1H936c0-1-0.3-1.8-1-2.4
			c-0.7-0.6-1.6-0.9-2.8-0.9c-1.1,0-2,0.3-2.7,0.8s-0.9,1.2-0.9,1.9c0,0.7,0.3,1.3,1,1.8c0.7,0.5,1.8,1,3.5,1.5
			c2.4,0.7,4.1,1.5,5.3,2.6s1.8,2.5,1.8,4.2c0,1.8-0.7,3.3-2.2,4.3c-1.4,1.1-3.3,1.6-5.7,1.6c-2.3,0-4.4-0.6-6.1-1.8
			c-1.7-1.2-2.6-2.9-2.5-5l0-0.1h4.2c0,1.3,0.4,2.2,1.2,2.8c0.8,0.6,1.9,0.9,3.2,0.9c1.2,0,2.1-0.2,2.7-0.7S936,161.9,936,161.1z"/>
		<path class="st3" d="M947.3,152.8c0.5-0.7,1.1-1.3,1.8-1.7c0.7-0.4,1.5-0.6,2.4-0.6c1.7,0,2.9,0.5,3.9,1.6
			c0.9,1.1,1.4,2.8,1.4,5.1v9.4h-4.3v-9.5c0-1.2-0.2-2.1-0.7-2.6c-0.4-0.5-1.1-0.8-1.9-0.8c-0.6,0-1.1,0.1-1.6,0.3
			c-0.4,0.2-0.8,0.5-1.1,0.9v11.6H943v-22.9h4.3V152.8z"/>
		<path class="st3" d="M964.6,147h-4.3v-3.2h4.3V147z M964.6,166.7h-4.3v-15.8h4.3V166.7z"/>
		<path class="st3" d="M982.4,159.2c0,2.3-0.5,4.2-1.6,5.7s-2.6,2.1-4.5,2.1c-0.8,0-1.6-0.2-2.2-0.5c-0.6-0.3-1.2-0.8-1.7-1.4v7.6
			h-4.3v-21.9h3.9l0.2,1.9c0.5-0.7,1-1.2,1.7-1.6c0.7-0.4,1.4-0.6,2.3-0.6c2,0,3.5,0.8,4.6,2.3s1.6,3.5,1.6,6V159.2z M978.1,158.9
			c0-1.5-0.2-2.7-0.7-3.6s-1.3-1.4-2.3-1.4c-0.6,0-1.2,0.1-1.6,0.4c-0.5,0.3-0.8,0.6-1.1,1.1v7c0.3,0.5,0.6,0.8,1.1,1
			c0.5,0.2,1,0.4,1.7,0.4c1,0,1.8-0.4,2.3-1.2c0.5-0.8,0.7-1.9,0.7-3.3V158.9z"/>
		<path class="st3" d="M999.3,159.2c0,2.3-0.5,4.2-1.6,5.7s-2.6,2.1-4.5,2.1c-0.8,0-1.6-0.2-2.2-0.5c-0.6-0.3-1.2-0.8-1.7-1.4v7.6
			H985v-21.9h3.9l0.2,1.9c0.5-0.7,1-1.2,1.7-1.6c0.7-0.4,1.4-0.6,2.3-0.6c2,0,3.5,0.8,4.6,2.3s1.6,3.5,1.6,6V159.2z M995,158.9
			c0-1.5-0.2-2.7-0.7-3.6s-1.3-1.4-2.3-1.4c-0.6,0-1.2,0.1-1.6,0.4c-0.5,0.3-0.8,0.6-1.1,1.1v7c0.3,0.5,0.6,0.8,1.1,1
			c0.5,0.2,1,0.4,1.7,0.4c1,0,1.8-0.4,2.3-1.2c0.5-0.8,0.7-1.9,0.7-3.3V158.9z"/>
		<path class="st3" d="M1006.5,147h-4.3v-3.2h4.3V147z M1006.5,166.7h-4.3v-15.8h4.3V166.7z"/>
		<path class="st3" d="M1013.9,150.8l0.2,2.3c0.5-0.8,1.2-1.4,1.9-1.9s1.6-0.7,2.6-0.7c1.6,0,2.9,0.5,3.8,1.5s1.3,2.6,1.3,4.7v9.9
			h-4.3v-9.9c0-1.1-0.2-1.8-0.6-2.3s-1.1-0.7-1.9-0.7c-0.6,0-1.1,0.1-1.5,0.3c-0.4,0.2-0.8,0.6-1.1,1v11.5h-4.3v-15.8H1013.9z"/>
		<path class="st3" d="M1026.2,158.9c0-2.5,0.5-4.5,1.6-6c1.1-1.5,2.6-2.3,4.6-2.3c0.9,0,1.7,0.2,2.3,0.6s1.3,1,1.7,1.7l0.3-2h3.7
			v15.8c0,2.1-0.7,3.7-2,4.8c-1.4,1.1-3.2,1.7-5.6,1.7c-0.8,0-1.7-0.1-2.5-0.3c-0.9-0.2-1.7-0.5-2.5-0.9l0.8-3.2
			c0.7,0.3,1.3,0.5,2,0.7c0.7,0.2,1.4,0.2,2.2,0.2c1.2,0,2-0.2,2.6-0.7c0.6-0.5,0.8-1.3,0.8-2.3v-1.4c-0.5,0.6-1,1-1.7,1.4
			s-1.4,0.5-2.2,0.5c-1.9,0-3.5-0.7-4.5-2.1c-1.1-1.4-1.6-3.3-1.6-5.6V158.9z M1030.5,159.2c0,1.4,0.2,2.5,0.7,3.3
			c0.5,0.8,1.2,1.2,2.3,1.2c0.7,0,1.2-0.1,1.7-0.4c0.5-0.2,0.8-0.6,1.1-1.1v-6.9c-0.3-0.5-0.6-0.9-1.1-1.1c-0.5-0.3-1-0.4-1.6-0.4
			c-1,0-1.8,0.5-2.3,1.4c-0.5,0.9-0.7,2.2-0.7,3.7V159.2z"/>
		<path class="st3" d="M856.8,188.6c0-2.4,0.7-4.3,2-5.8c1.3-1.5,3.1-2.3,5.5-2.3c2.3,0,4.2,0.8,5.5,2.3s2,3.4,2,5.8v0.3
			c0,2.4-0.7,4.3-2,5.8c-1.3,1.5-3.2,2.2-5.5,2.2c-2.3,0-4.2-0.8-5.5-2.2c-1.3-1.5-2-3.4-2-5.8V188.6z M861.1,188.9
			c0,1.4,0.3,2.6,0.8,3.5c0.5,0.9,1.3,1.3,2.5,1.3c1.1,0,1.9-0.4,2.4-1.3c0.5-0.9,0.8-2,0.8-3.5v-0.3c0-1.4-0.3-2.5-0.8-3.4
			s-1.3-1.3-2.4-1.3c-1.1,0-1.9,0.4-2.4,1.3c-0.5,0.9-0.8,2-0.8,3.4V188.9z"/>
		<path class="st3" d="M879.9,190.8l0.3,1.5h0.1l0.3-1.5l2.6-9.9h4.5l-5.4,15.8h-4.1l-5.4-15.8h4.5L879.9,190.8z"/>
		<path class="st3" d="M896.3,197c-2.3,0-4.1-0.7-5.5-2.2s-2.1-3.3-2.1-5.6v-0.6c0-2.4,0.6-4.3,1.9-5.8c1.3-1.5,3-2.3,5.2-2.3
			c2.1,0,3.8,0.6,5,1.9s1.8,3,1.8,5.2v2.3h-9.5l0,0.1c0.1,1,0.4,1.9,1,2.6c0.6,0.7,1.5,1,2.5,1c0.9,0,1.7-0.1,2.4-0.3
			c0.6-0.2,1.3-0.5,2.1-0.9l1.2,2.6c-0.6,0.5-1.5,1-2.5,1.3S897.6,197,896.3,197z M895.9,183.8c-0.8,0-1.4,0.3-1.9,0.9
			s-0.7,1.4-0.8,2.4l0,0.1h5.2v-0.4c0-0.9-0.2-1.6-0.6-2.2C897.4,184.1,896.8,183.8,895.9,183.8z"/>
		<path class="st3" d="M913.5,184.5l-1.6,0c-0.6,0-1.2,0.1-1.6,0.4s-0.7,0.6-0.9,1.1v10.7h-4.3v-15.8h4l0.2,2.3
			c0.4-0.8,0.9-1.5,1.4-1.9c0.6-0.5,1.3-0.7,2-0.7c0.2,0,0.4,0,0.6,0.1c0.2,0,0.4,0.1,0.5,0.1L913.5,184.5z"/>
		<path class="st3" d="M933.1,191.1c0-0.8-0.2-1.4-0.7-1.9c-0.5-0.5-1.2-1-2.3-1.4c-2.2-0.8-3.8-1.7-4.8-2.6c-1.1-1-1.6-2.3-1.6-4.1
			c0-1.6,0.5-3,1.6-4c1-1.1,2.5-1.7,4.2-1.9V172h2.3v3.2c1.7,0.3,3.1,1,4,2.2c1,1.2,1.5,2.7,1.4,4.6l0,0.1h-4.2c0-1.2-0.2-2-0.7-2.7
			c-0.5-0.6-1.1-0.9-1.9-0.9c-0.8,0-1.5,0.2-1.9,0.7c-0.4,0.5-0.6,1.1-0.6,1.9c0,0.8,0.2,1.4,0.7,1.9c0.4,0.5,1.2,0.9,2.4,1.4
			c2.2,0.8,3.8,1.8,4.8,2.7c1,1,1.6,2.3,1.6,4.1c0,1.7-0.5,3.1-1.6,4.1s-2.5,1.6-4.3,1.8v2.9h-2.3v-2.9c-1.8-0.2-3.3-0.8-4.5-1.9
			c-1.2-1.1-1.8-2.7-1.7-4.9l0-0.1h4.2c0,1.3,0.3,2.2,0.9,2.8c0.6,0.6,1.4,0.8,2.3,0.8c0.9,0,1.6-0.2,2-0.7
			C932.8,192.5,933.1,191.9,933.1,191.1z"/>
		<path class="st3" d="M940.7,187.2l1.2-11.9h11.9v3.4h-8.4l-0.6,4.9c0.4-0.3,0.9-0.5,1.4-0.7c0.6-0.2,1.2-0.3,1.8-0.3
			c2.1,0,3.6,0.6,4.8,1.9c1.1,1.3,1.7,3,1.7,5.3c0,2.1-0.6,3.8-1.9,5.1c-1.2,1.4-3,2-5.3,2c-2,0-3.6-0.5-5-1.6s-2.1-2.5-2-4.4l0-0.1
			l4.1-0.2c0,0.9,0.3,1.7,0.8,2.2c0.5,0.5,1.2,0.8,2.1,0.8c1,0,1.7-0.4,2.2-1.1c0.5-0.7,0.7-1.6,0.7-2.8c0-1.2-0.3-2.2-0.8-3
			s-1.3-1.1-2.3-1.1c-0.8,0-1.4,0.2-1.9,0.5c-0.4,0.3-0.7,0.7-0.9,1.2L940.7,187.2z"/>
		<path class="st3" d="M971.8,188.4c0,2.8-0.6,5-1.9,6.4c-1.3,1.5-3,2.2-5.3,2.2c-2.2,0-4-0.7-5.3-2.2c-1.3-1.5-1.9-3.6-1.9-6.4
			v-4.7c0-2.8,0.6-5,1.9-6.4c1.3-1.5,3-2.2,5.3-2.2c2.2,0,4,0.7,5.3,2.2c1.3,1.5,2,3.6,2,6.4V188.4z M967.5,183.2
			c0-1.7-0.3-2.9-0.8-3.7c-0.5-0.8-1.2-1.2-2.2-1.2c-1,0-1.7,0.4-2.2,1.2c-0.5,0.8-0.7,2-0.7,3.7v5.5c0,1.7,0.3,3,0.8,3.7
			c0.5,0.8,1.2,1.2,2.2,1.2c1,0,1.7-0.4,2.2-1.2c0.5-0.8,0.7-2,0.7-3.7V183.2z"/>
	</g>
	<g class="st11">
		<path class="st12" d="M394.8,220.1c0-0.5-0.1-0.9-0.4-1.2s-0.7-0.6-1.4-0.8c-1.3-0.5-2.3-1-2.9-1.6c-0.6-0.6-0.9-1.4-0.9-2.5
			c0-1,0.3-1.8,0.9-2.4c0.6-0.6,1.5-1,2.5-1.1v-1.9h1.4v1.9c1,0.2,1.8,0.6,2.4,1.3s0.9,1.6,0.9,2.8l0,0h-2.5c0-0.7-0.1-1.2-0.4-1.6
			s-0.7-0.6-1.2-0.6c-0.5,0-0.9,0.1-1.1,0.4c-0.2,0.3-0.4,0.7-0.4,1.2c0,0.5,0.1,0.8,0.4,1.1c0.3,0.3,0.7,0.6,1.4,0.8
			c1.3,0.5,2.3,1.1,2.9,1.6s0.9,1.4,0.9,2.4c0,1-0.3,1.8-0.9,2.4s-1.5,1-2.6,1.1v1.7h-1.4v-1.7c-1.1-0.1-2-0.5-2.7-1.2
			c-0.7-0.7-1.1-1.6-1-2.9l0,0h2.5c0,0.8,0.2,1.3,0.5,1.7s0.8,0.5,1.4,0.5c0.5,0,0.9-0.1,1.2-0.4C394.7,221,394.8,220.6,394.8,220.1
			z"/>
		<path class="st12" d="M406.1,216h1.4c0.6,0,1.1-0.2,1.4-0.5c0.3-0.3,0.4-0.8,0.4-1.3c0-0.5-0.1-0.9-0.4-1.2s-0.7-0.5-1.3-0.5
			c-0.5,0-0.9,0.1-1.2,0.4s-0.5,0.7-0.5,1.1h-2.5l0-0.1c0-1,0.3-1.8,1.2-2.5s1.8-1,3-1c1.3,0,2.4,0.3,3.2,0.9s1.2,1.5,1.2,2.7
			c0,0.6-0.2,1.1-0.5,1.6c-0.4,0.5-0.8,0.9-1.4,1.2c0.7,0.3,1.2,0.6,1.6,1.2s0.6,1.1,0.6,1.8c0,1.2-0.4,2.1-1.3,2.8
			c-0.9,0.7-1.9,1-3.3,1c-1.2,0-2.2-0.3-3.1-0.9c-0.9-0.6-1.3-1.5-1.2-2.7l0-0.1h2.5c0,0.5,0.2,0.9,0.5,1.2c0.4,0.3,0.8,0.5,1.3,0.5
			c0.6,0,1.1-0.2,1.4-0.5c0.3-0.3,0.5-0.8,0.5-1.3c0-0.7-0.2-1.2-0.5-1.5c-0.3-0.3-0.8-0.5-1.5-0.5h-1.4V216z"/>
		<path class="st12" d="M419.7,223.5h-2.6v-10.5h-2.6v-1.8l5.2-0.5V223.5z"/>
		<path class="st12" d="M429.3,210.5c0.5,0,0.9,0,1.3,0.1c0.4,0.1,0.8,0.2,1.2,0.4l-0.5,1.9c-0.4-0.1-0.7-0.2-1-0.3
			c-0.3-0.1-0.7-0.1-1.1-0.1c-0.8,0-1.4,0.3-1.9,0.9c-0.5,0.6-0.7,1.4-0.7,2.4l0,0c0.3-0.3,0.7-0.5,1.1-0.7s0.9-0.3,1.5-0.3
			c1.1,0,2,0.4,2.7,1.2c0.6,0.8,1,1.8,1,3.1c0,1.3-0.4,2.4-1.2,3.2s-1.8,1.3-3.1,1.3c-1.4,0-2.5-0.5-3.3-1.4
			c-0.8-0.9-1.3-2.2-1.3-3.8V216c0-1.7,0.5-3,1.4-4S427.8,210.5,429.3,210.5z M428.8,216.8c-0.5,0-0.9,0.1-1.2,0.2s-0.6,0.4-0.8,0.6
			v0.9c0,1,0.2,1.8,0.5,2.3c0.4,0.5,0.9,0.8,1.5,0.8c0.5,0,1-0.2,1.3-0.7s0.5-1.1,0.5-1.8c0-0.7-0.2-1.3-0.5-1.7
			C429.7,217,429.3,216.8,428.8,216.8z"/>
		<path class="st12" d="M399.4,247.8c0-0.8-0.2-1.4-0.7-1.9s-1.2-1-2.3-1.4c-2.2-0.8-3.8-1.7-4.8-2.6c-1-1-1.6-2.3-1.6-4.1
			c0-1.6,0.5-3,1.6-4c1-1,2.5-1.7,4.2-1.9v-3.1h2.3v3.2c1.7,0.3,3.1,1,4,2.2s1.5,2.7,1.4,4.6l0,0.1h-4.2c0-1.2-0.2-2-0.7-2.7
			s-1.1-0.9-1.9-0.9c-0.8,0-1.5,0.2-1.9,0.7c-0.4,0.5-0.6,1.1-0.6,1.9c0,0.8,0.2,1.4,0.7,1.9c0.4,0.5,1.2,0.9,2.4,1.4
			c2.2,0.8,3.8,1.8,4.8,2.7s1.6,2.3,1.6,4.1c0,1.7-0.5,3.1-1.6,4.1s-2.5,1.6-4.3,1.8v2.9h-2.3v-2.9c-1.8-0.2-3.3-0.8-4.5-1.9
			c-1.2-1.1-1.8-2.7-1.7-4.9l0-0.1h4.2c0,1.3,0.3,2.2,0.9,2.8s1.4,0.8,2.3,0.8c0.9,0,1.6-0.2,2-0.7
			C399.2,249.3,399.4,248.6,399.4,247.8z"/>
		<path class="st12" d="M428.6,253.5H414v-2.8l6.9-7.4c1-1.1,1.7-2.1,2.1-2.9c0.4-0.8,0.6-1.5,0.6-2.2c0-0.9-0.2-1.6-0.7-2.2
			c-0.5-0.6-1.2-0.9-2.1-0.9c-1,0-1.7,0.3-2.2,1c-0.5,0.7-0.8,1.6-0.8,2.7h-4.2l0-0.1c0-1.9,0.6-3.6,1.9-4.9c1.3-1.3,3.1-2,5.3-2
			c2.2,0,3.9,0.6,5.2,1.7s1.9,2.7,1.9,4.6c0,1.3-0.4,2.5-1.1,3.6c-0.7,1.1-1.9,2.5-3.5,4.3l-3.8,4.1l0,0.1h9V253.5z"/>
		<path class="st12" d="M443.8,245.5h2.4v3.3h-2.4v4.6h-4.3v-4.6h-8.7l-0.2-2.6l8.8-14.1h4.3V245.5z M434.6,245.5h4.9v-7.7l-0.1,0
			l-0.3,0.6L434.6,245.5z"/>
		<path class="st12" d="M462.4,237.8c0,1.1-0.3,2-0.8,2.8s-1.3,1.5-2.3,1.9c1.1,0.5,2,1.2,2.7,2.1s1,1.9,1,3c0,2-0.7,3.5-2,4.5
			c-1.3,1.1-3.1,1.6-5.2,1.6c-2.2,0-3.9-0.5-5.3-1.6c-1.3-1.1-2-2.6-2-4.5c0-1.2,0.3-2.2,1-3.1c0.6-0.9,1.5-1.6,2.7-2.1
			c-1-0.5-1.8-1.1-2.3-1.9c-0.6-0.8-0.8-1.8-0.8-2.8c0-1.9,0.6-3.4,1.9-4.4c1.2-1,2.9-1.6,4.9-1.6c2,0,3.7,0.5,4.9,1.6
			C461.7,234.4,462.4,235.9,462.4,237.8z M458.6,247.3c0-1-0.3-1.7-0.8-2.3s-1.3-0.9-2.2-0.9c-0.9,0-1.6,0.3-2.2,0.9
			s-0.8,1.3-0.8,2.3c0,1,0.3,1.7,0.8,2.3s1.3,0.8,2.2,0.8c0.9,0,1.6-0.3,2.2-0.8C458.3,249.1,458.6,248.3,458.6,247.3z M458.1,238
			c0-0.9-0.2-1.5-0.7-2.1c-0.5-0.5-1.1-0.8-1.8-0.8c-0.8,0-1.4,0.3-1.8,0.8c-0.4,0.5-0.7,1.2-0.7,2.1c0,0.9,0.2,1.6,0.7,2.1
			c0.4,0.5,1.1,0.8,1.9,0.8c0.8,0,1.4-0.3,1.8-0.8C457.9,239.6,458.1,238.9,458.1,238z"/>
	</g>
	<path class="st9" d="M297.7,276v-70.6c0-5.5-4.5-10.1-10.1-10.1H217c-5.5,0-10.1,4.5-10.1,10.1V276c0,5.5,4.5,10.1,10.1,10.1h70.6
		C293.1,286.1,297.7,281.5,297.7,276z M234.6,248.2l12.6,15.2l17.7-22.8l22.7,30.3H217L234.6,248.2z"/>
	<path class="st25" d="M916.9,342.4v-46.7c0-3.7-3-6.7-6.7-6.7h-46.7c-3.7,0-6.7,3-6.7,6.7v46.7c0,3.7,3,6.7,6.7,6.7h46.7
		C913.9,349.1,916.9,346.1,916.9,342.4z M875.2,324.1l8.3,10l11.7-15l15,20h-46.7L875.2,324.1z"/>
	<rect x="377.4" y="215.2" class="st10" width="75" height="2.3"/>
	<path class="st10" d="M567,317.3H393.4c-1.7,0-3-1.4-3-3v-36.4c0-1.7,1.4-3,3-3H567c1.7,0,3,1.4,3,3v36.4
		C570,315.9,568.7,317.3,567,317.3z"/>
	<g>
		<path class="st3" d="M437.1,302.2c-0.1-0.3-0.2-0.5-0.3-0.8c-0.1-0.3-0.1-0.6-0.2-0.9c-0.3,0.5-0.7,1-1.2,1.3s-1.1,0.5-1.8,0.5
			c-1.2,0-2.1-0.3-2.7-0.9c-0.6-0.6-0.9-1.4-0.9-2.5c0-1.1,0.4-1.9,1.3-2.5c0.8-0.6,2.1-0.9,3.7-0.9h1.7v-0.9c0-0.5-0.1-0.9-0.4-1.2
			c-0.3-0.3-0.7-0.4-1.2-0.4c-0.5,0-0.9,0.1-1.1,0.4c-0.3,0.2-0.4,0.6-0.4,1l-2.9,0l0-0.1c0-0.9,0.4-1.7,1.2-2.4c0.9-0.7,2-1,3.4-1
			c1.3,0,2.4,0.3,3.2,1c0.8,0.7,1.2,1.6,1.2,2.9v4.6c0,0.5,0,1,0.1,1.5c0.1,0.5,0.2,0.9,0.4,1.4H437.1z M434.4,300.2
			c0.5,0,1-0.1,1.4-0.4c0.4-0.3,0.7-0.6,0.8-0.9v-1.6h-1.7c-0.6,0-1.1,0.2-1.4,0.5c-0.3,0.3-0.5,0.7-0.5,1.2c0,0.4,0.1,0.7,0.4,0.9
			C433.6,300,433.9,300.2,434.4,300.2z"/>
		<path class="st3" d="M441.4,296.7c0-1.8,0.4-3.2,1.1-4.2c0.8-1.1,1.8-1.6,3.2-1.6c0.6,0,1.1,0.1,1.5,0.4c0.4,0.2,0.8,0.6,1.2,1
			v-6.1h3v16h-2.6l-0.2-1.4c-0.3,0.5-0.8,0.9-1.2,1.2c-0.5,0.3-1,0.4-1.6,0.4c-1.4,0-2.4-0.5-3.2-1.5c-0.8-1-1.1-2.3-1.1-4V296.7z
			 M444.4,296.9c0,1,0.2,1.7,0.5,2.3c0.3,0.6,0.9,0.8,1.6,0.8c0.4,0,0.8-0.1,1.1-0.3c0.3-0.2,0.6-0.4,0.8-0.8v-4.8
			c-0.2-0.4-0.5-0.6-0.8-0.8c-0.3-0.2-0.7-0.3-1.1-0.3c-0.7,0-1.3,0.3-1.6,1c-0.3,0.7-0.5,1.5-0.5,2.6V296.9z"/>
		<path class="st3" d="M453.3,296.7c0-1.8,0.4-3.2,1.1-4.2c0.8-1.1,1.8-1.6,3.2-1.6c0.6,0,1.1,0.1,1.5,0.4c0.4,0.2,0.8,0.6,1.2,1
			v-6.1h3v16h-2.6l-0.2-1.4c-0.3,0.5-0.8,0.9-1.2,1.2c-0.5,0.3-1,0.4-1.6,0.4c-1.4,0-2.4-0.5-3.2-1.5c-0.8-1-1.1-2.3-1.1-4V296.7z
			 M456.3,296.9c0,1,0.2,1.7,0.5,2.3c0.3,0.6,0.9,0.8,1.6,0.8c0.4,0,0.8-0.1,1.1-0.3c0.3-0.2,0.6-0.4,0.8-0.8v-4.8
			c-0.2-0.4-0.5-0.6-0.8-0.8c-0.3-0.2-0.7-0.3-1.1-0.3c-0.7,0-1.3,0.3-1.6,1c-0.3,0.7-0.5,1.5-0.5,2.6V296.9z"/>
		<path class="st3" d="M474.5,288.3v2.7h1.9v2.1h-1.9v5.7c0,0.4,0.1,0.7,0.3,0.9c0.2,0.2,0.4,0.3,0.7,0.3c0.2,0,0.3,0,0.4,0
			c0.1,0,0.2,0,0.4-0.1l0.3,2.2c-0.3,0.1-0.6,0.2-0.9,0.2c-0.3,0.1-0.6,0.1-0.9,0.1c-1,0-1.8-0.3-2.4-0.9c-0.6-0.6-0.8-1.5-0.8-2.7
			v-5.7h-1.6V291h1.6v-2.7H474.5z"/>
		<path class="st3" d="M477.8,296.5c0-1.7,0.5-3,1.4-4.1c0.9-1.1,2.2-1.6,3.8-1.6c1.6,0,2.9,0.5,3.9,1.6c0.9,1.1,1.4,2.4,1.4,4.1
			v0.2c0,1.7-0.5,3-1.4,4.1c-0.9,1.1-2.2,1.6-3.9,1.6c-1.6,0-2.9-0.5-3.9-1.6c-0.9-1.1-1.4-2.4-1.4-4.1V296.5z M480.8,296.7
			c0,1,0.2,1.8,0.5,2.4c0.4,0.6,0.9,0.9,1.7,0.9c0.8,0,1.3-0.3,1.7-0.9c0.4-0.6,0.5-1.4,0.5-2.4v-0.2c0-1-0.2-1.8-0.5-2.4
			c-0.4-0.6-0.9-0.9-1.7-0.9c-0.8,0-1.3,0.3-1.7,0.9c-0.4,0.6-0.5,1.4-0.5,2.4V296.7z"/>
		<path class="st3" d="M500,300.1c0.5,0,1-0.2,1.3-0.5c0.3-0.3,0.5-0.7,0.5-1.2h2.7l0,0.1c0,1.1-0.4,2.1-1.3,2.8
			c-0.9,0.8-2,1.1-3.3,1.1c-1.7,0-2.9-0.5-3.8-1.6c-0.9-1-1.3-2.4-1.3-4v-0.3c0-1.6,0.4-3,1.3-4c0.9-1.1,2.2-1.6,3.8-1.6
			c1.4,0,2.5,0.4,3.3,1.2c0.8,0.8,1.2,1.8,1.2,3.1l0,0.1h-2.7c0-0.6-0.2-1.1-0.5-1.4c-0.3-0.4-0.8-0.6-1.3-0.6
			c-0.8,0-1.4,0.3-1.7,0.9c-0.3,0.6-0.5,1.4-0.5,2.4v0.3c0,1,0.2,1.8,0.5,2.4C498.7,299.8,499.2,300.1,500,300.1z"/>
		<path class="st3" d="M512.8,302.2c-0.1-0.3-0.2-0.5-0.3-0.8c-0.1-0.3-0.1-0.6-0.2-0.9c-0.3,0.5-0.7,1-1.2,1.3s-1.1,0.5-1.8,0.5
			c-1.2,0-2.1-0.3-2.7-0.9c-0.6-0.6-0.9-1.4-0.9-2.5c0-1.1,0.4-1.9,1.3-2.5c0.8-0.6,2.1-0.9,3.7-0.9h1.7v-0.9c0-0.5-0.1-0.9-0.4-1.2
			c-0.3-0.3-0.7-0.4-1.2-0.4c-0.5,0-0.9,0.1-1.1,0.4c-0.3,0.2-0.4,0.6-0.4,1l-2.9,0l0-0.1c0-0.9,0.4-1.7,1.2-2.4c0.9-0.7,2-1,3.4-1
			c1.3,0,2.4,0.3,3.2,1c0.8,0.7,1.2,1.6,1.2,2.9v4.6c0,0.5,0,1,0.1,1.5c0.1,0.5,0.2,0.9,0.4,1.4H512.8z M510.1,300.2
			c0.5,0,1-0.1,1.4-0.4c0.4-0.3,0.7-0.6,0.8-0.9v-1.6h-1.7c-0.6,0-1.1,0.2-1.4,0.5s-0.5,0.7-0.5,1.2c0,0.4,0.1,0.7,0.4,0.9
			C509.3,300,509.6,300.2,510.1,300.2z"/>
		<path class="st3" d="M523.4,293.6l-1.1,0c-0.4,0-0.8,0.1-1.1,0.3c-0.3,0.2-0.5,0.4-0.7,0.8v7.5h-3V291h2.8l0.1,1.6
			c0.3-0.6,0.6-1,1-1.4c0.4-0.3,0.9-0.5,1.4-0.5c0.2,0,0.3,0,0.4,0c0.1,0,0.3,0.1,0.4,0.1L523.4,293.6z"/>
		<path class="st3" d="M528.8,288.3v2.7h1.9v2.1h-1.9v5.7c0,0.4,0.1,0.7,0.3,0.9c0.2,0.2,0.4,0.3,0.7,0.3c0.2,0,0.3,0,0.4,0
			c0.1,0,0.2,0,0.4-0.1l0.3,2.2c-0.3,0.1-0.6,0.2-0.9,0.2c-0.3,0.1-0.6,0.1-0.9,0.1c-1,0-1.8-0.3-2.4-0.9c-0.6-0.6-0.8-1.5-0.8-2.7
			v-5.7h-1.6V291h1.6v-2.7H528.8z"/>
	</g>
	<g>
		<circle class="st24" cx="449.4" cy="350.4" r="8"/>
		<circle class="st24" cx="484.9" cy="350.4" r="8"/>
		<circle class="st24" cx="520.9" cy="350.4" r="8"/>
	</g>
	<g class="st26">
		<path class="st3" d="M934.3,293.5h-3.7v10.2h-1.5v-10.2h-3.6v-1.2h8.8V293.5z"/>
		<path class="st3" d="M937.2,296.3c0.3-0.4,0.6-0.7,1.1-0.9c0.4-0.2,0.9-0.3,1.4-0.3c0.9,0,1.6,0.3,2.1,0.8
			c0.5,0.5,0.8,1.4,0.8,2.5v5.3H941v-5.3c0-0.7-0.2-1.2-0.4-1.5c-0.3-0.3-0.7-0.5-1.3-0.5c-0.4,0-0.8,0.1-1.2,0.3
			c-0.3,0.2-0.6,0.5-0.9,0.8v6.2h-1.5v-12.2h1.5V296.3z"/>
		<path class="st3" d="M946.4,293h-1.5v-1.6h1.5V293z M946.4,303.6h-1.5v-8.5h1.5V303.6z"/>
		<path class="st3" d="M953.7,301.4c0-0.3-0.1-0.6-0.4-0.8s-0.7-0.4-1.5-0.6c-1-0.2-1.8-0.5-2.3-0.9c-0.5-0.4-0.8-0.9-0.8-1.6
			c0-0.7,0.3-1.3,0.9-1.8c0.6-0.5,1.3-0.7,2.3-0.7c1,0,1.8,0.3,2.3,0.8c0.6,0.5,0.9,1.1,0.8,1.8l0,0h-1.5c0-0.4-0.2-0.7-0.5-1
			c-0.3-0.3-0.7-0.4-1.2-0.4c-0.5,0-1,0.1-1.2,0.4c-0.3,0.2-0.4,0.5-0.4,0.9c0,0.3,0.1,0.6,0.4,0.8c0.2,0.2,0.7,0.4,1.4,0.5
			c1.1,0.2,1.9,0.5,2.4,0.9c0.5,0.4,0.8,0.9,0.8,1.6c0,0.8-0.3,1.4-0.9,1.8c-0.6,0.5-1.4,0.7-2.4,0.7c-1.1,0-1.9-0.3-2.5-0.8
			c-0.6-0.5-0.9-1.2-0.9-1.9l0,0h1.5c0,0.5,0.2,0.9,0.6,1.2c0.4,0.3,0.8,0.4,1.3,0.4c0.5,0,1-0.1,1.3-0.3
			C953.6,302,953.7,301.7,953.7,301.4z"/>
		<path class="st3" d="M962.8,293h-1.5v-1.6h1.5V293z M962.8,303.6h-1.5v-8.5h1.5V303.6z"/>
		<path class="st3" d="M970.1,301.4c0-0.3-0.1-0.6-0.4-0.8s-0.7-0.4-1.5-0.6c-1-0.2-1.8-0.5-2.3-0.9c-0.5-0.4-0.8-0.9-0.8-1.6
			c0-0.7,0.3-1.3,0.9-1.8c0.6-0.5,1.3-0.7,2.3-0.7c1,0,1.8,0.3,2.3,0.8c0.6,0.5,0.9,1.1,0.8,1.8l0,0H970c0-0.4-0.2-0.7-0.5-1
			c-0.3-0.3-0.7-0.4-1.2-0.4c-0.5,0-1,0.1-1.2,0.4c-0.3,0.2-0.4,0.5-0.4,0.9c0,0.3,0.1,0.6,0.4,0.8c0.2,0.2,0.7,0.4,1.4,0.5
			c1.1,0.2,1.9,0.5,2.4,0.9c0.5,0.4,0.8,0.9,0.8,1.6c0,0.8-0.3,1.4-0.9,1.8c-0.6,0.5-1.4,0.7-2.4,0.7c-1.1,0-1.9-0.3-2.5-0.8
			c-0.6-0.5-0.9-1.2-0.9-1.9l0,0h1.5c0,0.5,0.2,0.9,0.6,1.2c0.4,0.3,0.8,0.4,1.3,0.4c0.5,0,1-0.1,1.3-0.3
			C969.9,302,970.1,301.7,970.1,301.4z"/>
		<path class="st3" d="M982.7,303.6c-0.1-0.3-0.1-0.5-0.1-0.7c0-0.2,0-0.4-0.1-0.6c-0.3,0.4-0.7,0.7-1.1,1s-1,0.4-1.5,0.4
			c-0.9,0-1.6-0.2-2-0.7c-0.5-0.5-0.7-1.1-0.7-1.9c0-0.8,0.3-1.4,1-1.9c0.7-0.5,1.5-0.7,2.7-0.7h1.7v-0.8c0-0.5-0.2-0.9-0.5-1.2
			c-0.3-0.3-0.7-0.4-1.3-0.4c-0.5,0-0.9,0.1-1.2,0.4c-0.3,0.3-0.5,0.6-0.5,0.9h-1.5l0,0c0-0.6,0.3-1.2,0.9-1.7
			c0.6-0.5,1.4-0.8,2.4-0.8c1,0,1.7,0.2,2.3,0.7c0.6,0.5,0.9,1.2,0.9,2.1v4.1c0,0.3,0,0.6,0,0.9s0.1,0.6,0.2,0.8H982.7z
			 M980.2,302.5c0.6,0,1.1-0.1,1.5-0.4c0.4-0.3,0.7-0.6,0.9-1v-1.4h-1.7c-0.6,0-1.1,0.2-1.5,0.5c-0.4,0.3-0.6,0.7-0.6,1.1
			c0,0.4,0.1,0.7,0.4,0.9C979.4,302.4,979.7,302.5,980.2,302.5z"/>
		<path class="st3" d="M997.5,299.7c0,1.2-0.3,2.2-0.9,2.9c-0.6,0.7-1.4,1.1-2.4,1.1c-0.5,0-1-0.1-1.4-0.3c-0.4-0.2-0.7-0.4-1-0.8
			v4.1h-1.5v-11.7h1.2l0.2,1.1c0.3-0.4,0.6-0.7,1-0.9c0.4-0.2,0.9-0.3,1.4-0.3c1,0,1.9,0.4,2.4,1.2c0.6,0.8,0.9,1.9,0.9,3.3V299.7z
			 M996,299.6c0-1-0.2-1.7-0.6-2.4c-0.4-0.6-0.9-0.9-1.7-0.9c-0.4,0-0.8,0.1-1.1,0.3s-0.6,0.5-0.8,0.8v4.1c0.2,0.3,0.4,0.6,0.8,0.8
			s0.7,0.3,1.1,0.3c0.7,0,1.3-0.3,1.7-0.8s0.6-1.2,0.6-2.1V299.6z"/>
		<path class="st3" d="M999,299.3c0-1.3,0.3-2.3,1-3.1c0.7-0.8,1.6-1.2,2.8-1.2c1.2,0,2.1,0.4,2.8,1.2c0.7,0.8,1,1.8,1,3.1v0.2
			c0,1.3-0.3,2.3-1,3.1c-0.7,0.8-1.6,1.2-2.8,1.2c-1.2,0-2.1-0.4-2.8-1.2s-1-1.8-1-3.1V299.3z M1000.6,299.5c0,0.9,0.2,1.6,0.6,2.2
			c0.4,0.6,0.9,0.9,1.7,0.9c0.7,0,1.3-0.3,1.7-0.9c0.4-0.6,0.6-1.3,0.6-2.2v-0.2c0-0.9-0.2-1.6-0.6-2.2s-0.9-0.9-1.7-0.9
			c-0.7,0-1.3,0.3-1.7,0.9c-0.4,0.6-0.6,1.3-0.6,2.2V299.5z"/>
		<path class="st3" d="M1015.7,299.7c0,1.2-0.3,2.2-0.9,2.9c-0.6,0.7-1.4,1.1-2.4,1.1c-0.5,0-1-0.1-1.4-0.3c-0.4-0.2-0.7-0.4-1-0.8
			v4.1h-1.5v-11.7h1.2l0.2,1.1c0.3-0.4,0.6-0.7,1-0.9c0.4-0.2,0.9-0.3,1.4-0.3c1,0,1.9,0.4,2.4,1.2c0.6,0.8,0.9,1.9,0.9,3.3V299.7z
			 M1014.1,299.6c0-1-0.2-1.7-0.6-2.4c-0.4-0.6-0.9-0.9-1.7-0.9c-0.4,0-0.8,0.1-1.1,0.3s-0.6,0.5-0.8,0.8v4.1
			c0.2,0.3,0.4,0.6,0.8,0.8s0.7,0.3,1.1,0.3c0.7,0,1.3-0.3,1.7-0.8s0.6-1.2,0.6-2.1V299.6z"/>
		<path class="st3" d="M1022.9,302.4c-0.3,0.5-0.6,0.8-1,1c-0.4,0.2-0.9,0.4-1.4,0.4c-0.9,0-1.6-0.3-2.2-0.9
			c-0.5-0.6-0.8-1.5-0.8-2.8v-5h1.5v5c0,0.9,0.1,1.5,0.4,1.9c0.3,0.3,0.7,0.5,1.2,0.5c0.5,0,1-0.1,1.4-0.3c0.4-0.2,0.6-0.5,0.8-0.9
			v-6.1h1.5v8.5h-1.4L1022.9,302.4z"/>
		<path class="st3" d="M1028.3,303.6h-1.5v-12.2h1.5V303.6z"/>
		<path class="st3" d="M1035.9,303.6c-0.1-0.3-0.1-0.5-0.1-0.7s0-0.4-0.1-0.6c-0.3,0.4-0.7,0.7-1.1,1s-1,0.4-1.5,0.4
			c-0.9,0-1.6-0.2-2-0.7c-0.5-0.5-0.7-1.1-0.7-1.9c0-0.8,0.3-1.4,1-1.9c0.7-0.5,1.5-0.7,2.7-0.7h1.7v-0.8c0-0.5-0.2-0.9-0.5-1.2
			s-0.7-0.4-1.3-0.4c-0.5,0-0.9,0.1-1.2,0.4c-0.3,0.3-0.5,0.6-0.5,0.9h-1.5l0,0c0-0.6,0.3-1.2,0.9-1.7c0.6-0.5,1.4-0.8,2.4-0.8
			c1,0,1.7,0.2,2.3,0.7c0.6,0.5,0.9,1.2,0.9,2.1v4.1c0,0.3,0,0.6,0,0.9s0.1,0.6,0.2,0.8H1035.9z M1033.3,302.5
			c0.6,0,1.1-0.1,1.5-0.4c0.4-0.3,0.7-0.6,0.9-1v-1.4h-1.7c-0.6,0-1.1,0.2-1.5,0.5c-0.4,0.3-0.6,0.7-0.6,1.1c0,0.4,0.1,0.7,0.4,0.9
			C1032.5,302.4,1032.9,302.5,1033.3,302.5z"/>
		<path class="st3" d="M1043.5,296.5l-0.8,0c-0.4,0-0.7,0.1-1,0.3c-0.3,0.2-0.5,0.5-0.6,0.8v6h-1.5v-8.5h1.4l0.1,1.2
			c0.2-0.4,0.5-0.8,0.9-1c0.4-0.2,0.8-0.4,1.2-0.4c0.1,0,0.2,0,0.3,0c0.1,0,0.2,0,0.3,0.1L1043.5,296.5z"/>
		<path class="st3" d="M933.5,316.7c0,1.2-0.3,2.2-0.9,2.9c-0.6,0.7-1.4,1.1-2.4,1.1c-0.5,0-1-0.1-1.4-0.3c-0.4-0.2-0.7-0.4-1-0.8
			v4.1h-1.5v-11.7h1.2l0.2,1.1c0.3-0.4,0.6-0.7,1-0.9c0.4-0.2,0.9-0.3,1.4-0.3c1,0,1.9,0.4,2.4,1.2c0.6,0.8,0.9,1.9,0.9,3.3V316.7z
			 M932,316.6c0-1-0.2-1.7-0.6-2.4c-0.4-0.6-0.9-0.9-1.7-0.9c-0.4,0-0.8,0.1-1.1,0.3s-0.6,0.5-0.8,0.8v4.1c0.2,0.3,0.4,0.6,0.8,0.8
			s0.7,0.3,1.1,0.3c0.7,0,1.3-0.3,1.7-0.8s0.6-1.2,0.6-2.1V316.6z"/>
		<path class="st3" d="M939.4,313.5l-0.8,0c-0.4,0-0.8,0.1-1,0.3c-0.3,0.2-0.5,0.5-0.6,0.8v6h-1.5v-8.5h1.4l0.1,1.2
			c0.2-0.4,0.5-0.8,0.9-1c0.4-0.2,0.8-0.4,1.2-0.4c0.1,0,0.2,0,0.3,0c0.1,0,0.2,0,0.3,0.1L939.4,313.5z"/>
		<path class="st3" d="M940.4,316.3c0-1.3,0.3-2.3,1-3.1c0.7-0.8,1.6-1.2,2.8-1.2c1.2,0,2.1,0.4,2.8,1.2c0.7,0.8,1,1.8,1,3.1v0.2
			c0,1.3-0.3,2.3-1,3.1c-0.7,0.8-1.6,1.2-2.8,1.2c-1.2,0-2.1-0.4-2.8-1.2s-1-1.8-1-3.1V316.3z M941.9,316.5c0,0.9,0.2,1.6,0.6,2.2
			c0.4,0.6,0.9,0.9,1.7,0.9c0.7,0,1.3-0.3,1.7-0.9c0.4-0.6,0.6-1.3,0.6-2.2v-0.2c0-0.9-0.2-1.6-0.6-2.2s-0.9-0.9-1.7-0.9
			c-0.7,0-1.3,0.3-1.7,0.9c-0.4,0.6-0.6,1.3-0.6,2.2V316.5z"/>
		<path class="st3" d="M949.5,316.6c0-1.4,0.3-2.5,0.9-3.3c0.6-0.8,1.4-1.3,2.4-1.3c0.5,0,0.9,0.1,1.3,0.3c0.4,0.2,0.7,0.4,1,0.8
			v-4.6h1.5v12.2h-1.3l-0.2-1c-0.3,0.4-0.6,0.7-1,0.9c-0.4,0.2-0.9,0.3-1.4,0.3c-1,0-1.8-0.4-2.4-1.1c-0.6-0.7-0.9-1.7-0.9-2.9
			V316.6z M951,316.7c0,0.9,0.2,1.5,0.5,2.1c0.3,0.5,0.9,0.8,1.6,0.8c0.5,0,0.8-0.1,1.2-0.3c0.3-0.2,0.6-0.5,0.8-0.9v-3.9
			c-0.2-0.3-0.5-0.6-0.8-0.8c-0.3-0.2-0.7-0.3-1.1-0.3c-0.7,0-1.3,0.3-1.6,0.9s-0.5,1.4-0.5,2.4V316.7z"/>
		<path class="st3" d="M964.3,319.4c-0.3,0.5-0.6,0.8-1,1c-0.4,0.2-0.9,0.4-1.4,0.4c-0.9,0-1.6-0.3-2.2-0.9
			c-0.5-0.6-0.8-1.5-0.8-2.8v-5h1.5v5c0,0.9,0.1,1.5,0.4,1.9c0.3,0.3,0.7,0.5,1.2,0.5c0.5,0,1-0.1,1.4-0.3c0.4-0.2,0.6-0.5,0.8-0.9
			v-6.1h1.5v8.5h-1.4L964.3,319.4z"/>
		<path class="st3" d="M971.4,319.6c0.5,0,1-0.2,1.3-0.5c0.4-0.3,0.6-0.7,0.6-1.2h1.4l0,0c0,0.7-0.3,1.4-1,1.9
			c-0.7,0.6-1.5,0.9-2.4,0.9c-1.2,0-2.2-0.4-2.8-1.2c-0.7-0.8-1-1.8-1-3v-0.3c0-1.2,0.3-2.2,1-3c0.7-0.8,1.6-1.2,2.8-1.2
			c1,0,1.8,0.3,2.4,0.9c0.6,0.6,0.9,1.3,0.9,2.1l0,0h-1.4c0-0.5-0.2-1-0.5-1.3c-0.4-0.4-0.8-0.5-1.4-0.5c-0.8,0-1.4,0.3-1.7,0.9
			c-0.3,0.6-0.5,1.3-0.5,2.1v0.3c0,0.9,0.2,1.6,0.5,2.2C970.1,319.3,970.6,319.6,971.4,319.6z"/>
		<path class="st3" d="M978.5,310.1v2h1.6v1.1h-1.6v5.1c0,0.4,0.1,0.7,0.2,0.8c0.2,0.2,0.4,0.2,0.7,0.2c0.1,0,0.2,0,0.3,0
			c0.1,0,0.2,0,0.3-0.1l0.2,1.1c-0.1,0.1-0.3,0.2-0.5,0.2c-0.2,0.1-0.4,0.1-0.7,0.1c-0.6,0-1.1-0.2-1.5-0.6c-0.4-0.4-0.6-1-0.6-1.8
			v-5.1h-1.3v-1.1h1.3v-2H978.5z"/>
	</g>
	<g>
		<rect x="130" y="378.7" class="st5" width="232.8" height="195.3"/>
		<path class="st9" d="M283,500.3v-54.9c0-4.3-3.5-7.8-7.8-7.8h-54.9c-4.3,0-7.8,3.5-7.8,7.8v54.9c0,4.3,3.5,7.8,7.8,7.8h54.9
			C279.5,508.1,283,504.6,283,500.3z M234,478.7l9.8,11.8l13.7-17.7l17.7,23.5h-54.9L234,478.7z"/>
	</g>
	<g>
		<rect x="366.4" y="378.7" class="st5" width="232.8" height="195.3"/>
		<path class="st9" d="M519.4,500.3v-54.9c0-4.3-3.5-7.8-7.8-7.8h-54.9c-4.3,0-7.8,3.5-7.8,7.8v54.9c0,4.3,3.5,7.8,7.8,7.8h54.9
			C515.9,508.1,519.4,504.6,519.4,500.3z M470.4,478.7l9.8,11.8l13.7-17.7l17.7,23.5h-54.9L470.4,478.7z"/>
	</g>
	<g>
		<rect x="602.2" y="378.7" class="st5" width="232.8" height="195.3"/>
		<path class="st9" d="M755.2,500.3v-54.9c0-4.3-3.5-7.8-7.8-7.8h-54.9c-4.3,0-7.8,3.5-7.8,7.8v54.9c0,4.3,3.5,7.8,7.8,7.8h54.9
			C751.7,508.1,755.2,504.6,755.2,500.3z M706.2,478.7l9.8,11.8l13.7-17.7l17.7,23.5h-54.9L706.2,478.7z"/>
	</g>
	<g>
		<rect x="838.2" y="378.7" class="st5" width="232.8" height="195.3"/>
		<path class="st9" d="M991.2,500.3v-54.9c0-4.3-3.5-7.8-7.8-7.8h-54.9c-4.3,0-7.8,3.5-7.8,7.8v54.9c0,4.3,3.5,7.8,7.8,7.8h54.9
			C987.7,508.1,991.2,504.6,991.2,500.3z M942.2,478.7l9.8,11.8l13.7-17.7l17.7,23.5h-54.9L942.2,478.7z"/>
	</g>
	<g class="st11">
		<path class="st12" d="M187.1,547.2h-3.4l-6.9-11.7l-0.1,0v11.6h-3.4v-17.1h3.4l6.9,11.6l0.1,0v-11.6h3.4V547.2z"/>
		<path class="st12" d="M193.6,531.5h-3.4v-2.6h3.4V531.5z M193.6,547.2h-3.4v-12.7h3.4V547.2z"/>
		<path class="st12" d="M201.7,544.8c0.6,0,1.1-0.2,1.5-0.5c0.4-0.4,0.6-0.8,0.6-1.4h3.1l0,0.1c0,1.3-0.5,2.4-1.4,3.2
			s-2.2,1.3-3.7,1.3c-1.9,0-3.3-0.6-4.4-1.8s-1.5-2.7-1.5-4.6v-0.4c0-1.9,0.5-3.4,1.5-4.6s2.5-1.8,4.4-1.8c1.6,0,2.8,0.4,3.8,1.3
			s1.4,2.1,1.4,3.5l0,0.1h-3.1c0-0.7-0.2-1.2-0.5-1.6s-0.9-0.7-1.5-0.7c-0.9,0-1.5,0.4-1.9,1.1s-0.6,1.6-0.6,2.7v0.4
			c0,1.1,0.2,2,0.6,2.7S200.8,544.8,201.7,544.8z"/>
		<path class="st12" d="M214.5,547.4c-1.8,0-3.3-0.6-4.4-1.8s-1.6-2.7-1.6-4.5v-0.5c0-1.9,0.5-3.4,1.6-4.7s2.4-1.8,4.2-1.8
			c1.7,0,3,0.5,4,1.5s1.4,2.4,1.4,4.2v1.9H212l0,0.1c0.1,0.8,0.3,1.5,0.8,2.1c0.5,0.5,1.2,0.8,2,0.8c0.8,0,1.4-0.1,1.9-0.2
			s1-0.4,1.6-0.7l0.9,2.1c-0.5,0.4-1.2,0.8-2,1.1C216.4,547.3,215.5,547.4,214.5,547.4z M214.2,536.9c-0.6,0-1.1,0.2-1.5,0.7
			s-0.6,1.1-0.7,1.9l0,0.1h4.2v-0.3c0-0.7-0.2-1.3-0.5-1.7S214.8,536.9,214.2,536.9z"/>
		<path class="st12" d="M239,541.2c0,1.9-0.4,3.4-1.3,4.5s-2.1,1.7-3.6,1.7c-0.7,0-1.3-0.1-1.8-0.4s-1-0.6-1.3-1.1v6.1h-3.4v-17.6
			h3.1l0.2,1.5c0.4-0.6,0.8-1,1.4-1.3s1.1-0.5,1.8-0.5c1.6,0,2.8,0.6,3.7,1.8s1.3,2.8,1.3,4.8V541.2z M235.5,540.9
			c0-1.2-0.2-2.2-0.6-2.9s-1-1.1-1.8-1.1c-0.5,0-1,0.1-1.3,0.3c-0.4,0.2-0.7,0.5-0.9,0.9v5.6c0.2,0.4,0.5,0.6,0.9,0.8
			c0.4,0.2,0.8,0.3,1.3,0.3c0.8,0,1.4-0.3,1.8-1s0.6-1.5,0.6-2.6V540.9z"/>
		<path class="st12" d="M247.7,537.5l-1.3,0c-0.5,0-0.9,0.1-1.3,0.3s-0.6,0.5-0.8,0.9v8.6h-3.4v-12.7h3.2l0.2,1.9
			c0.3-0.7,0.7-1.2,1.2-1.6s1-0.6,1.6-0.6c0.2,0,0.3,0,0.5,0c0.1,0,0.3,0.1,0.4,0.1L247.7,537.5z"/>
		<path class="st12" d="M248.9,540.7c0-1.9,0.5-3.4,1.6-4.6s2.5-1.8,4.4-1.8c1.9,0,3.3,0.6,4.4,1.8s1.6,2.8,1.6,4.7v0.2
			c0,1.9-0.5,3.5-1.6,4.7s-2.5,1.8-4.4,1.8c-1.9,0-3.3-0.6-4.4-1.8s-1.6-2.8-1.6-4.7V540.7z M252.4,541c0,1.2,0.2,2.1,0.6,2.8
			s1.1,1,2,1c0.9,0,1.5-0.4,1.9-1.1s0.6-1.6,0.6-2.8v-0.2c0-1.1-0.2-2-0.6-2.7s-1.1-1.1-2-1.1c-0.9,0-1.5,0.4-1.9,1.1
			s-0.6,1.6-0.6,2.7V541z"/>
		<path class="st12" d="M262.5,541c0-2,0.4-3.6,1.3-4.8s2.1-1.8,3.7-1.8c0.6,0,1.2,0.1,1.7,0.4s1,0.7,1.3,1.2v-6.9h3.4v18.3H271
			l-0.3-1.5c-0.4,0.6-0.9,1-1.4,1.3s-1.2,0.5-1.9,0.5c-1.6,0-2.8-0.6-3.6-1.7s-1.3-2.6-1.3-4.5V541z M265.9,541.2
			c0,1.1,0.2,2,0.6,2.6c0.4,0.6,1,1,1.8,1c0.5,0,0.9-0.1,1.3-0.3c0.4-0.2,0.7-0.5,0.9-0.9v-5.4c-0.2-0.4-0.5-0.7-0.9-0.9
			c-0.4-0.2-0.8-0.3-1.3-0.3c-0.8,0-1.4,0.4-1.8,1.1c-0.4,0.7-0.6,1.7-0.6,2.9V541.2z"/>
		<path class="st12" d="M284.3,545.4c-0.4,0.7-0.9,1.2-1.5,1.5s-1.3,0.5-2.1,0.5c-1.3,0-2.4-0.4-3.1-1.3s-1.1-2.2-1.1-4v-7.7h3.4
			v7.7c0,0.9,0.2,1.6,0.5,2s0.8,0.6,1.4,0.6c0.5,0,1-0.1,1.4-0.3c0.4-0.2,0.7-0.4,1-0.8v-9.2h3.4v12.7h-2.9L284.3,545.4z"/>
		<path class="st12" d="M295.4,544.8c0.6,0,1.1-0.2,1.5-0.5c0.4-0.4,0.6-0.8,0.6-1.4h3.1l0,0.1c0,1.3-0.5,2.4-1.4,3.2
			s-2.2,1.3-3.7,1.3c-1.9,0-3.3-0.6-4.4-1.8s-1.5-2.7-1.5-4.6v-0.4c0-1.9,0.5-3.4,1.5-4.6s2.5-1.8,4.4-1.8c1.6,0,2.8,0.4,3.8,1.3
			s1.4,2.1,1.4,3.5l0,0.1h-3.1c0-0.7-0.2-1.2-0.5-1.6s-0.9-0.7-1.5-0.7c-0.9,0-1.5,0.4-1.9,1.1s-0.6,1.6-0.6,2.7v0.4
			c0,1.1,0.2,2,0.6,2.7S294.5,544.8,295.4,544.8z"/>
		<path class="st12" d="M306.6,531.4v3.1h2.1v2.4h-2.1v6.5c0,0.5,0.1,0.8,0.3,1.1s0.5,0.3,0.8,0.3c0.2,0,0.3,0,0.5,0
			s0.3-0.1,0.5-0.1l0.3,2.5c-0.3,0.1-0.7,0.2-1,0.3s-0.7,0.1-1.1,0.1c-1.2,0-2.1-0.3-2.7-1s-1-1.7-1-3.1v-6.5h-1.9v-2.4h1.9v-3.1
			H306.6z"/>
		<path class="st12" d="M317.8,543.7c0-0.4-0.2-0.7-0.5-1s-1-0.5-2-0.7c-1.5-0.3-2.6-0.8-3.4-1.4s-1.1-1.4-1.1-2.4
			c0-1.1,0.5-2,1.4-2.8s2.1-1.1,3.7-1.1c1.6,0,2.9,0.4,3.9,1.1s1.4,1.7,1.4,2.9l0,0.1h-3.3c0-0.5-0.2-0.9-0.5-1.2s-0.8-0.5-1.4-0.5
			c-0.6,0-1,0.1-1.3,0.4s-0.5,0.6-0.5,1c0,0.4,0.2,0.7,0.5,1s1,0.5,2,0.7c1.6,0.3,2.7,0.8,3.5,1.4s1.1,1.4,1.1,2.5
			c0,1.1-0.5,2.1-1.5,2.8s-2.3,1.1-3.9,1.1c-1.7,0-3-0.4-4-1.3s-1.4-1.8-1.4-2.9l0-0.1h3.1c0,0.7,0.2,1.2,0.7,1.5s1,0.5,1.7,0.5
			c0.6,0,1.1-0.1,1.4-0.4S317.8,544.1,317.8,543.7z"/>
	</g>
	<g class="st11">
		<path class="st12" d="M410.1,544.9c-0.5,0.7-1.3,1.3-2.4,1.8s-2.4,0.8-4.1,0.8c-2.1,0-3.8-0.6-5.1-1.9s-2-3-2-5.1v-3.6
			c0-2.1,0.6-3.7,1.9-5s2.9-2,4.9-2c2.1,0,3.7,0.5,4.8,1.5s1.7,2.3,1.7,4l0,0.1h-3.2c-0.1-0.9-0.4-1.6-0.9-2.2s-1.3-0.8-2.3-0.8
			c-1,0-1.9,0.4-2.5,1.2s-1,1.8-1,3.1v3.6c0,1.3,0.3,2.3,1,3.2c0.7,0.8,1.6,1.2,2.7,1.2c0.8,0,1.4-0.1,1.9-0.2
			c0.5-0.2,0.9-0.4,1.1-0.6v-3.2h-3v-2.4h6.4V544.9z"/>
		<path class="st12" d="M416.4,547.2h-3.4v-18.3h3.4V547.2z"/>
		<path class="st12" d="M418.6,540.7c0-1.9,0.5-3.4,1.6-4.6s2.5-1.8,4.4-1.8c1.9,0,3.3,0.6,4.4,1.8s1.6,2.8,1.6,4.7v0.2
			c0,1.9-0.5,3.5-1.6,4.7s-2.5,1.8-4.4,1.8c-1.9,0-3.3-0.6-4.4-1.8s-1.6-2.8-1.6-4.7V540.7z M422.1,541c0,1.2,0.2,2.1,0.6,2.8
			s1.1,1,2,1c0.9,0,1.5-0.4,1.9-1.1s0.6-1.6,0.6-2.8v-0.2c0-1.1-0.2-2-0.6-2.7s-1.1-1.1-2-1.1c-0.9,0-1.5,0.4-1.9,1.1
			s-0.6,1.6-0.6,2.7V541z"/>
		<path class="st12" d="M439.6,543.7c0-0.4-0.2-0.7-0.5-1s-1-0.5-2-0.7c-1.5-0.3-2.6-0.8-3.4-1.4s-1.1-1.4-1.1-2.4
			c0-1.1,0.5-2,1.4-2.8s2.1-1.1,3.7-1.1c1.6,0,2.9,0.4,3.9,1.1s1.4,1.7,1.4,2.9l0,0.1h-3.3c0-0.5-0.2-0.9-0.5-1.2s-0.8-0.5-1.4-0.5
			c-0.6,0-1,0.1-1.3,0.4s-0.5,0.6-0.5,1c0,0.4,0.2,0.7,0.5,1s1,0.5,2,0.7c1.6,0.3,2.7,0.8,3.5,1.4s1.1,1.4,1.1,2.5
			c0,1.1-0.5,2.1-1.5,2.8s-2.3,1.1-3.9,1.1c-1.7,0-3-0.4-4-1.3s-1.4-1.8-1.4-2.9l0-0.1h3.1c0,0.7,0.2,1.2,0.7,1.5s1,0.5,1.7,0.5
			c0.6,0,1.1-0.1,1.4-0.4S439.6,544.1,439.6,543.7z"/>
		<path class="st12" d="M452,543.7c0-0.4-0.2-0.7-0.5-1s-1-0.5-2-0.7c-1.5-0.3-2.6-0.8-3.4-1.4s-1.1-1.4-1.1-2.4
			c0-1.1,0.5-2,1.4-2.8s2.1-1.1,3.7-1.1c1.6,0,2.9,0.4,3.9,1.1s1.4,1.7,1.4,2.9l0,0.1h-3.3c0-0.5-0.2-0.9-0.5-1.2s-0.8-0.5-1.4-0.5
			c-0.6,0-1,0.1-1.3,0.4s-0.5,0.6-0.5,1c0,0.4,0.2,0.7,0.5,1s1,0.5,2,0.7c1.6,0.3,2.7,0.8,3.5,1.4s1.1,1.4,1.1,2.5
			c0,1.1-0.5,2.1-1.5,2.8s-2.3,1.1-3.9,1.1c-1.7,0-3-0.4-4-1.3s-1.4-1.8-1.4-2.9l0-0.1h3.1c0,0.7,0.2,1.2,0.7,1.5s1,0.5,1.7,0.5
			c0.6,0,1.1-0.1,1.4-0.4S452,544.1,452,543.7z"/>
		<path class="st12" d="M462,541.9l0.1,0.7h0.1l2.4-8.1h3.7l-5.1,14.6c-0.4,0.9-0.8,1.7-1.5,2.3s-1.5,0.9-2.8,0.9
			c-0.3,0-0.6,0-0.8-0.1s-0.5-0.1-0.9-0.2l0.4-2.5c0.1,0,0.2,0,0.3,0s0.2,0,0.3,0c0.6,0,1-0.1,1.3-0.4s0.5-0.6,0.7-1l0.4-1
			l-4.5-12.7h3.7L462,541.9z"/>
		<path class="st12" d="M487.1,541.2c0,1.9-0.4,3.4-1.3,4.5s-2.1,1.7-3.6,1.7c-0.7,0-1.3-0.1-1.8-0.4s-1-0.6-1.3-1.1v6.1h-3.4v-17.6
			h3.1l0.2,1.5c0.4-0.6,0.8-1,1.4-1.3s1.1-0.5,1.8-0.5c1.6,0,2.8,0.6,3.7,1.8s1.3,2.8,1.3,4.8V541.2z M483.7,540.9
			c0-1.2-0.2-2.2-0.6-2.9s-1-1.1-1.8-1.1c-0.5,0-1,0.1-1.3,0.3c-0.4,0.2-0.7,0.5-0.9,0.9v5.6c0.2,0.4,0.5,0.6,0.9,0.8
			c0.4,0.2,0.8,0.3,1.3,0.3c0.8,0,1.4-0.3,1.8-1s0.6-1.5,0.6-2.6V540.9z"/>
		<path class="st12" d="M495.9,537.5l-1.3,0c-0.5,0-0.9,0.1-1.3,0.3s-0.6,0.5-0.8,0.9v8.6h-3.4v-12.7h3.2l0.2,1.9
			c0.3-0.7,0.7-1.2,1.2-1.6s1-0.6,1.6-0.6c0.2,0,0.3,0,0.5,0s0.3,0.1,0.4,0.1L495.9,537.5z"/>
		<path class="st12" d="M497.1,540.7c0-1.9,0.5-3.4,1.6-4.6s2.5-1.8,4.4-1.8c1.9,0,3.3,0.6,4.4,1.8s1.6,2.8,1.6,4.7v0.2
			c0,1.9-0.5,3.5-1.6,4.7s-2.5,1.8-4.4,1.8c-1.9,0-3.3-0.6-4.4-1.8s-1.6-2.8-1.6-4.7V540.7z M500.5,541c0,1.2,0.2,2.1,0.6,2.8
			s1.1,1,2,1c0.9,0,1.5-0.4,1.9-1.1s0.6-1.6,0.6-2.8v-0.2c0-1.1-0.2-2-0.6-2.7s-1.1-1.1-2-1.1c-0.9,0-1.5,0.4-1.9,1.1
			s-0.6,1.6-0.6,2.7V541z"/>
		<path class="st12" d="M510.7,541c0-2,0.4-3.6,1.3-4.8c0.9-1.2,2.1-1.8,3.7-1.8c0.6,0,1.2,0.1,1.7,0.4s1,0.7,1.3,1.2v-6.9h3.4v18.3
			h-2.9l-0.3-1.5c-0.4,0.6-0.9,1-1.4,1.3s-1.2,0.5-1.9,0.5c-1.6,0-2.8-0.6-3.6-1.7c-0.9-1.1-1.3-2.6-1.3-4.5V541z M514.1,541.2
			c0,1.1,0.2,2,0.6,2.6c0.4,0.6,1,1,1.8,1c0.5,0,0.9-0.1,1.3-0.3c0.4-0.2,0.7-0.5,0.9-0.9v-5.4c-0.2-0.4-0.5-0.7-0.9-0.9
			c-0.4-0.2-0.8-0.3-1.3-0.3c-0.8,0-1.4,0.4-1.8,1.1c-0.4,0.7-0.6,1.7-0.6,2.9V541.2z"/>
		<path class="st12" d="M532.5,545.4c-0.4,0.7-0.9,1.2-1.5,1.5s-1.3,0.5-2.1,0.5c-1.3,0-2.4-0.4-3.1-1.3s-1.1-2.2-1.1-4v-7.7h3.4
			v7.7c0,0.9,0.2,1.6,0.5,2s0.8,0.6,1.4,0.6c0.5,0,1-0.1,1.4-0.3c0.4-0.2,0.7-0.4,1-0.8v-9.2h3.4v12.7h-2.9L532.5,545.4z"/>
		<path class="st12" d="M543.6,544.8c0.6,0,1.1-0.2,1.5-0.5c0.4-0.4,0.6-0.8,0.6-1.4h3.1l0,0.1c0,1.3-0.5,2.4-1.4,3.2
			s-2.2,1.3-3.7,1.3c-1.9,0-3.3-0.6-4.4-1.8s-1.5-2.7-1.5-4.6v-0.4c0-1.9,0.5-3.4,1.5-4.6s2.5-1.8,4.4-1.8c1.6,0,2.8,0.4,3.8,1.3
			s1.4,2.1,1.4,3.5l0,0.1h-3.1c0-0.7-0.2-1.2-0.5-1.6s-0.9-0.7-1.5-0.7c-0.9,0-1.5,0.4-1.9,1.1s-0.6,1.6-0.6,2.7v0.4
			c0,1.1,0.2,2,0.6,2.7S542.7,544.8,543.6,544.8z"/>
		<path class="st12" d="M554.8,531.4v3.1h2.1v2.4h-2.1v6.5c0,0.5,0.1,0.8,0.3,1.1s0.5,0.3,0.8,0.3c0.2,0,0.3,0,0.5,0
			s0.3-0.1,0.5-0.1l0.3,2.5c-0.3,0.1-0.7,0.2-1,0.3s-0.7,0.1-1.1,0.1c-1.2,0-2.1-0.3-2.7-1s-1-1.7-1-3.1v-6.5h-1.9v-2.4h1.9v-3.1
			H554.8z"/>
		<path class="st12" d="M566,543.7c0-0.4-0.2-0.7-0.5-1s-1-0.5-2-0.7c-1.5-0.3-2.6-0.8-3.4-1.4s-1.1-1.4-1.1-2.4
			c0-1.1,0.5-2,1.4-2.8s2.1-1.1,3.7-1.1c1.6,0,2.9,0.4,3.9,1.1s1.4,1.7,1.4,2.9l0,0.1h-3.3c0-0.5-0.2-0.9-0.5-1.2s-0.8-0.5-1.4-0.5
			c-0.6,0-1,0.1-1.3,0.4s-0.5,0.6-0.5,1c0,0.4,0.2,0.7,0.5,1s1,0.5,2,0.7c1.6,0.3,2.7,0.8,3.5,1.4s1.1,1.4,1.1,2.5
			c0,1.1-0.5,2.1-1.5,2.8s-2.3,1.1-3.9,1.1c-1.7,0-3-0.4-4-1.3s-1.4-1.8-1.4-2.9l0-0.1h3.1c0,0.7,0.2,1.2,0.7,1.5s1,0.5,1.7,0.5
			c0.6,0,1.1-0.1,1.4-0.4S566,544.1,566,543.7z"/>
	</g>
	<g class="st11">
		<path class="st12" d="M647.9,540.1h-7.1v7.1h-3.4v-17.1h11.8v2.6h-8.3v4.7h7.1V540.1z"/>
		<path class="st12" d="M657.5,547.2c-0.1-0.3-0.2-0.6-0.3-0.9s-0.2-0.6-0.2-1c-0.4,0.6-0.8,1.1-1.4,1.5s-1.3,0.6-2.1,0.6
			c-1.3,0-2.4-0.3-3.1-1s-1.1-1.6-1.1-2.8c0-1.2,0.5-2.2,1.4-2.9s2.4-1,4.2-1h1.9v-1c0-0.6-0.2-1.1-0.5-1.4s-0.8-0.5-1.4-0.5
			c-0.6,0-1,0.1-1.3,0.4s-0.5,0.6-0.5,1.1l-3.3,0l0-0.1c-0.1-1.1,0.4-2,1.4-2.8s2.3-1.2,3.9-1.2c1.5,0,2.7,0.4,3.7,1.2
			s1.4,1.9,1.4,3.3v5.2c0,0.6,0,1.2,0.1,1.7s0.2,1,0.4,1.6H657.5z M654.4,544.9c0.6,0,1.1-0.1,1.6-0.4s0.8-0.6,0.9-1v-1.8h-1.9
			c-0.7,0-1.3,0.2-1.7,0.5s-0.6,0.8-0.6,1.3c0,0.4,0.1,0.8,0.4,1S653.9,544.9,654.4,544.9z"/>
		<path class="st12" d="M666.1,534.5l0.2,1.8c0.4-0.6,0.9-1.2,1.6-1.5s1.3-0.5,2.1-0.5c1.3,0,2.3,0.4,3,1.2s1.1,2.1,1.1,3.8v7.9
			h-3.4v-7.9c0-0.9-0.2-1.5-0.5-1.8c-0.3-0.4-0.9-0.5-1.6-0.5c-0.5,0-0.9,0.1-1.2,0.3s-0.7,0.4-0.9,0.8v9.2h-3.4v-12.7H666.1z"/>
		<path class="st12" d="M681.9,544.8c0.6,0,1.1-0.2,1.5-0.5c0.4-0.4,0.6-0.8,0.6-1.4h3.1l0,0.1c0,1.3-0.5,2.4-1.4,3.2
			s-2.2,1.3-3.7,1.3c-1.9,0-3.3-0.6-4.4-1.8s-1.5-2.7-1.5-4.6v-0.4c0-1.9,0.5-3.4,1.5-4.6s2.5-1.8,4.4-1.8c1.6,0,2.8,0.4,3.8,1.3
			s1.4,2.1,1.4,3.5l0,0.1h-3.1c0-0.7-0.2-1.2-0.5-1.6s-0.9-0.7-1.5-0.7c-0.9,0-1.5,0.4-1.9,1.1s-0.6,1.6-0.6,2.7v0.4
			c0,1.1,0.2,2,0.6,2.7S680.9,544.8,681.9,544.8z"/>
		<path class="st12" d="M693.5,541.9l0.1,0.7h0.1l2.4-8.1h3.7l-5.1,14.6c-0.4,0.9-0.8,1.7-1.5,2.3s-1.5,0.9-2.8,0.9
			c-0.3,0-0.6,0-0.8-0.1s-0.5-0.1-0.9-0.2l0.4-2.5c0.1,0,0.2,0,0.3,0s0.2,0,0.3,0c0.6,0,1-0.1,1.3-0.4s0.5-0.6,0.7-1l0.4-1
			l-4.5-12.7h3.7L693.5,541.9z"/>
		<path class="st12" d="M718.6,541.2c0,1.9-0.4,3.4-1.3,4.5s-2.1,1.7-3.6,1.7c-0.7,0-1.3-0.1-1.8-0.4s-1-0.6-1.3-1.1v6.1h-3.4v-17.6
			h3.1l0.2,1.5c0.4-0.6,0.8-1,1.4-1.3s1.1-0.5,1.8-0.5c1.6,0,2.8,0.6,3.7,1.8s1.3,2.8,1.3,4.8V541.2z M715.2,540.9
			c0-1.2-0.2-2.2-0.6-2.9s-1-1.1-1.8-1.1c-0.5,0-1,0.1-1.3,0.3c-0.4,0.2-0.7,0.5-0.9,0.9v5.6c0.2,0.4,0.5,0.6,0.9,0.8
			c0.4,0.2,0.8,0.3,1.3,0.3c0.8,0,1.4-0.3,1.8-1s0.6-1.5,0.6-2.6V540.9z"/>
		<path class="st12" d="M727.4,537.5l-1.3,0c-0.5,0-0.9,0.1-1.3,0.3s-0.6,0.5-0.8,0.9v8.6h-3.4v-12.7h3.2l0.2,1.9
			c0.3-0.7,0.7-1.2,1.2-1.6s1-0.6,1.6-0.6c0.2,0,0.3,0,0.5,0s0.3,0.1,0.4,0.1L727.4,537.5z"/>
		<path class="st12" d="M728.6,540.7c0-1.9,0.5-3.4,1.6-4.6s2.5-1.8,4.4-1.8c1.9,0,3.3,0.6,4.4,1.8s1.6,2.8,1.6,4.7v0.2
			c0,1.9-0.5,3.5-1.6,4.7s-2.5,1.8-4.4,1.8c-1.9,0-3.3-0.6-4.4-1.8s-1.6-2.8-1.6-4.7V540.7z M732,541c0,1.2,0.2,2.1,0.6,2.8
			s1.1,1,2,1c0.9,0,1.5-0.4,1.9-1.1s0.6-1.6,0.6-2.8v-0.2c0-1.1-0.2-2-0.6-2.7s-1.1-1.1-2-1.1c-0.9,0-1.5,0.4-1.9,1.1
			s-0.6,1.6-0.6,2.7V541z"/>
		<path class="st12" d="M742.2,541c0-2,0.4-3.6,1.3-4.8s2.1-1.8,3.7-1.8c0.6,0,1.2,0.1,1.7,0.4s1,0.7,1.3,1.2v-6.9h3.4v18.3h-2.9
			l-0.3-1.5c-0.4,0.6-0.9,1-1.4,1.3s-1.2,0.5-1.9,0.5c-1.6,0-2.8-0.6-3.6-1.7s-1.3-2.6-1.3-4.5V541z M745.6,541.2
			c0,1.1,0.2,2,0.6,2.6c0.4,0.6,1,1,1.8,1c0.5,0,0.9-0.1,1.3-0.3c0.4-0.2,0.7-0.5,0.9-0.9v-5.4c-0.2-0.4-0.5-0.7-0.9-0.9
			c-0.4-0.2-0.8-0.3-1.3-0.3c-0.8,0-1.4,0.4-1.8,1.1c-0.4,0.7-0.6,1.7-0.6,2.9V541.2z"/>
		<path class="st12" d="M764,545.4c-0.4,0.7-0.9,1.2-1.5,1.5s-1.3,0.5-2.1,0.5c-1.3,0-2.4-0.4-3.1-1.3s-1.1-2.2-1.1-4v-7.7h3.4v7.7
			c0,0.9,0.2,1.6,0.5,2s0.8,0.6,1.4,0.6c0.5,0,1-0.1,1.4-0.3c0.4-0.2,0.7-0.4,1-0.8v-9.2h3.4v12.7h-2.9L764,545.4z"/>
		<path class="st12" d="M775.1,544.8c0.6,0,1.1-0.2,1.5-0.5c0.4-0.4,0.6-0.8,0.6-1.4h3.1l0,0.1c0,1.3-0.5,2.4-1.4,3.2
			s-2.2,1.3-3.7,1.3c-1.9,0-3.3-0.6-4.4-1.8s-1.5-2.7-1.5-4.6v-0.4c0-1.9,0.5-3.4,1.5-4.6s2.5-1.8,4.4-1.8c1.6,0,2.8,0.4,3.8,1.3
			s1.4,2.1,1.4,3.5l0,0.1h-3.1c0-0.7-0.2-1.2-0.5-1.6s-0.9-0.7-1.5-0.7c-0.9,0-1.5,0.4-1.9,1.1s-0.6,1.6-0.6,2.7v0.4
			c0,1.1,0.2,2,0.6,2.7S774.2,544.8,775.1,544.8z"/>
		<path class="st12" d="M786.3,531.4v3.1h2.1v2.4h-2.1v6.5c0,0.5,0.1,0.8,0.3,1.1s0.5,0.3,0.8,0.3c0.2,0,0.3,0,0.5,0
			s0.3-0.1,0.5-0.1l0.3,2.5c-0.3,0.1-0.7,0.2-1,0.3s-0.7,0.1-1.1,0.1c-1.2,0-2.1-0.3-2.7-1s-1-1.7-1-3.1v-6.5H781v-2.4h1.9v-3.1
			H786.3z"/>
		<path class="st12" d="M797.4,543.7c0-0.4-0.2-0.7-0.5-1s-1-0.5-2-0.7c-1.5-0.3-2.6-0.8-3.4-1.4s-1.1-1.4-1.1-2.4
			c0-1.1,0.5-2,1.4-2.8s2.1-1.1,3.7-1.1c1.6,0,2.9,0.4,3.9,1.1s1.4,1.7,1.4,2.9l0,0.1h-3.3c0-0.5-0.2-0.9-0.5-1.2s-0.8-0.5-1.4-0.5
			c-0.6,0-1,0.1-1.3,0.4s-0.5,0.6-0.5,1c0,0.4,0.2,0.7,0.5,1s1,0.5,2,0.7c1.6,0.3,2.7,0.8,3.5,1.4s1.1,1.4,1.1,2.5
			c0,1.1-0.5,2.1-1.5,2.8s-2.3,1.1-3.9,1.1c-1.7,0-3-0.4-4-1.3s-1.4-1.8-1.4-2.9l0-0.1h3.1c0,0.7,0.2,1.2,0.7,1.5s1,0.5,1.7,0.5
			c0.6,0,1.1-0.1,1.4-0.4S797.4,544.1,797.4,543.7z"/>
	</g>
	<g class="st11">
		<path class="st12" d="M893.3,547.2h-3.4l-6.9-11.7l-0.1,0v11.6h-3.4v-17.1h3.4l6.9,11.6l0.1,0v-11.6h3.4V547.2z"/>
		<path class="st12" d="M901.8,547.4c-1.8,0-3.3-0.6-4.4-1.8s-1.6-2.7-1.6-4.5v-0.5c0-1.9,0.5-3.4,1.6-4.7s2.4-1.8,4.2-1.8
			c1.7,0,3,0.5,4,1.5s1.4,2.4,1.4,4.2v1.9h-7.6l0,0.1c0.1,0.8,0.3,1.5,0.8,2.1c0.5,0.5,1.2,0.8,2,0.8c0.8,0,1.4-0.1,1.9-0.2
			s1-0.4,1.6-0.7l0.9,2.1c-0.5,0.4-1.2,0.8-2,1.1C903.8,547.3,902.8,547.4,901.8,547.4z M901.5,536.9c-0.6,0-1.1,0.2-1.5,0.7
			s-0.6,1.1-0.7,1.9l0,0.1h4.2v-0.3c0-0.7-0.2-1.3-0.5-1.7S902.2,536.9,901.5,536.9z"/>
		<path class="st12" d="M916.4,547.2c-0.1-0.3-0.2-0.6-0.3-0.9s-0.2-0.6-0.2-1c-0.4,0.6-0.8,1.1-1.4,1.5s-1.3,0.6-2.1,0.6
			c-1.3,0-2.4-0.3-3.1-1s-1.1-1.6-1.1-2.8c0-1.2,0.5-2.2,1.4-2.9s2.4-1,4.2-1h1.9v-1c0-0.6-0.2-1.1-0.5-1.4s-0.8-0.5-1.4-0.5
			c-0.6,0-1,0.1-1.3,0.4s-0.5,0.6-0.5,1.1l-3.3,0l0-0.1c-0.1-1.1,0.4-2,1.4-2.8s2.3-1.2,3.9-1.2c1.5,0,2.7,0.4,3.7,1.2
			s1.4,1.9,1.4,3.3v5.2c0,0.6,0,1.2,0.1,1.7s0.2,1,0.4,1.6H916.4z M913.2,544.9c0.6,0,1.1-0.1,1.6-0.4s0.8-0.6,0.9-1v-1.8h-1.9
			c-0.7,0-1.3,0.2-1.7,0.5s-0.6,0.8-0.6,1.3c0,0.4,0.1,0.8,0.4,1S912.7,544.9,913.2,544.9z"/>
		<path class="st12" d="M925.9,531.4v3.1h2.1v2.4h-2.1v6.5c0,0.5,0.1,0.8,0.3,1.1s0.5,0.3,0.8,0.3c0.2,0,0.3,0,0.5,0
			s0.3-0.1,0.5-0.1l0.3,2.5c-0.3,0.1-0.7,0.2-1,0.3s-0.7,0.1-1.1,0.1c-1.2,0-2.1-0.3-2.7-1s-1-1.7-1-3.1v-6.5h-1.9v-2.4h1.9v-3.1
			H925.9z"/>
		<path class="st12" d="M947.6,541.2c0,1.9-0.4,3.4-1.3,4.5s-2.1,1.7-3.6,1.7c-0.7,0-1.3-0.1-1.8-0.4s-1-0.6-1.3-1.1v6.1h-3.4v-17.6
			h3.1l0.2,1.5c0.4-0.6,0.8-1,1.4-1.3s1.1-0.5,1.8-0.5c1.6,0,2.8,0.6,3.7,1.8s1.3,2.8,1.3,4.8V541.2z M944.2,540.9
			c0-1.2-0.2-2.2-0.6-2.9s-1-1.1-1.8-1.1c-0.5,0-1,0.1-1.3,0.3c-0.4,0.2-0.7,0.5-0.9,0.9v5.6c0.2,0.4,0.5,0.6,0.9,0.8
			c0.4,0.2,0.8,0.3,1.3,0.3c0.8,0,1.4-0.3,1.8-1s0.6-1.5,0.6-2.6V540.9z"/>
		<path class="st12" d="M956.4,537.5l-1.3,0c-0.5,0-0.9,0.1-1.3,0.3s-0.6,0.5-0.8,0.9v8.6h-3.4v-12.7h3.2l0.2,1.9
			c0.3-0.7,0.7-1.2,1.2-1.6s1-0.6,1.6-0.6c0.2,0,0.3,0,0.5,0s0.3,0.1,0.4,0.1L956.4,537.5z"/>
		<path class="st12" d="M957.6,540.7c0-1.9,0.5-3.4,1.6-4.6s2.5-1.8,4.4-1.8c1.9,0,3.3,0.6,4.4,1.8s1.6,2.8,1.6,4.7v0.2
			c0,1.9-0.5,3.5-1.6,4.7s-2.5,1.8-4.4,1.8c-1.9,0-3.3-0.6-4.4-1.8s-1.6-2.8-1.6-4.7V540.7z M961,541c0,1.2,0.2,2.1,0.6,2.8
			s1.1,1,2,1c0.9,0,1.5-0.4,1.9-1.1s0.6-1.6,0.6-2.8v-0.2c0-1.1-0.2-2-0.6-2.7s-1.1-1.1-2-1.1c-0.9,0-1.5,0.4-1.9,1.1
			s-0.6,1.6-0.6,2.7V541z"/>
		<path class="st12" d="M971.1,541c0-2,0.4-3.6,1.3-4.8s2.1-1.8,3.7-1.8c0.6,0,1.2,0.1,1.7,0.4s1,0.7,1.3,1.2v-6.9h3.4v18.3h-2.9
			l-0.3-1.5c-0.4,0.6-0.9,1-1.4,1.3s-1.2,0.5-1.9,0.5c-1.6,0-2.8-0.6-3.6-1.7s-1.3-2.6-1.3-4.5V541z M974.5,541.2
			c0,1.1,0.2,2,0.6,2.6c0.4,0.6,1,1,1.8,1c0.5,0,0.9-0.1,1.3-0.3c0.4-0.2,0.7-0.5,0.9-0.9v-5.4c-0.2-0.4-0.5-0.7-0.9-0.9
			c-0.4-0.2-0.8-0.3-1.3-0.3c-0.8,0-1.4,0.4-1.8,1.1c-0.4,0.7-0.6,1.7-0.6,2.9V541.2z"/>
		<path class="st12" d="M992.9,545.4c-0.4,0.7-0.9,1.2-1.5,1.5s-1.3,0.5-2.1,0.5c-1.3,0-2.4-0.4-3.1-1.3s-1.1-2.2-1.1-4v-7.7h3.4
			v7.7c0,0.9,0.2,1.6,0.5,2s0.8,0.6,1.4,0.6c0.5,0,1-0.1,1.4-0.3c0.4-0.2,0.7-0.4,1-0.8v-9.2h3.4v12.7h-2.9L992.9,545.4z"/>
		<path class="st12" d="M1004.1,544.8c0.6,0,1.1-0.2,1.5-0.5c0.4-0.4,0.6-0.8,0.6-1.4h3.1l0,0.1c0,1.3-0.5,2.4-1.4,3.2
			s-2.2,1.3-3.7,1.3c-1.9,0-3.3-0.6-4.4-1.8s-1.5-2.7-1.5-4.6v-0.4c0-1.9,0.5-3.4,1.5-4.6s2.5-1.8,4.4-1.8c1.6,0,2.8,0.4,3.8,1.3
			s1.4,2.1,1.4,3.5l0,0.1h-3.1c0-0.7-0.2-1.2-0.5-1.6s-0.9-0.7-1.5-0.7c-0.9,0-1.5,0.4-1.9,1.1s-0.6,1.6-0.6,2.7v0.4
			c0,1.1,0.2,2,0.6,2.7S1003.2,544.8,1004.1,544.8z"/>
		<path class="st12" d="M1015.2,531.4v3.1h2.1v2.4h-2.1v6.5c0,0.5,0.1,0.8,0.3,1.1s0.5,0.3,0.8,0.3c0.2,0,0.3,0,0.5,0
			s0.3-0.1,0.5-0.1l0.3,2.5c-0.3,0.1-0.7,0.2-1,0.3s-0.7,0.1-1.1,0.1c-1.2,0-2.1-0.3-2.7-1s-1-1.7-1-3.1v-6.5h-1.9v-2.4h1.9v-3.1
			H1015.2z"/>
		<path class="st12" d="M1026.4,543.7c0-0.4-0.2-0.7-0.5-1s-1-0.5-2-0.7c-1.5-0.3-2.6-0.8-3.4-1.4s-1.1-1.4-1.1-2.4
			c0-1.1,0.5-2,1.4-2.8s2.1-1.1,3.7-1.1c1.6,0,2.9,0.4,3.9,1.1s1.4,1.7,1.4,2.9l0,0.1h-3.3c0-0.5-0.2-0.9-0.5-1.2s-0.8-0.5-1.4-0.5
			c-0.6,0-1,0.1-1.3,0.4s-0.5,0.6-0.5,1c0,0.4,0.2,0.7,0.5,1s1,0.5,2,0.7c1.6,0.3,2.7,0.8,3.5,1.4s1.1,1.4,1.1,2.5
			c0,1.1-0.5,2.1-1.5,2.8s-2.3,1.1-3.9,1.1c-1.7,0-3-0.4-4-1.3s-1.4-1.8-1.4-2.9l0-0.1h3.1c0,0.7,0.2,1.2,0.7,1.5s1,0.5,1.7,0.5
			c0.6,0,1.1-0.1,1.4-0.4S1026.4,544.1,1026.4,543.7z"/>
	</g>
	<g>
		<rect x="50" class="st5" width="1100" height="43.9"/>
		<circle class="st29" cx="75.7" cy="22.1" r="7.6"/>
		<circle class="st29" cx="105.1" cy="22.1" r="7.6"/>
		<circle class="st29" cx="134.1" cy="22.1" r="7.6"/>
		<path class="st29" d="M864,29.7H196.9c-4.2,0-7.6-3.4-7.6-7.6v0c0-4.2,3.4-7.6,7.6-7.6H864c4.2,0,7.6,3.4,7.6,7.6v0
			C871.6,26.3,868.2,29.7,864,29.7z"/>
		<path class="st29" d="M1129.5,21.9l6.7-6.7c0.8-0.8,0.8-2,0-2.8s-2-0.8-2.8,0l-6.7,6.7l-6.7-6.7c-0.8-0.8-2-0.8-2.8,0
			s-0.8,2,0,2.8l6.7,6.7l-6.7,6.7c-0.8,0.8-0.8,2,0,2.8c0.4,0.4,0.9,0.6,1.4,0.6s1-0.2,1.4-0.6l6.7-6.7l6.7,6.7
			c0.4,0.4,0.9,0.6,1.4,0.6s1-0.2,1.4-0.6c0.8-0.8,0.8-2,0-2.8L1129.5,21.9z"/>
	</g>
</g>
<g id="Layer_3" class="st32">
</g>
</svg>
