<?xml version="1.0" encoding="utf-8"?>
<!-- Generator: Adobe Illustrator 20.0.0, SVG Export Plug-In . SVG Version: 6.00 Build 0)  -->
<svg version="1.1" xmlns="http://www.w3.org/2000/svg" xmlns:xlink="http://www.w3.org/1999/xlink" x="0px" y="0px"
	 viewBox="0 0 223 140.2" style="enable-background:new 0 0 223 140.2;" xml:space="preserve">
<style type="text/css">
	.st0{fill:#F1F2F2;}
	.st1{fill:#FFFFFF;stroke:#FFFFFF;stroke-miterlimit:10;}
	.st2{fill:#6D6E71;}
	.st3{fill:#FFFFFF;}
	.st4{fill:#FFFFFF;stroke:#231F20;stroke-miterlimit:10;}
	.st5{fill:#D1D3D4;}
	.st6{fill:none;stroke:#000000;stroke-miterlimit:10;}
	.st7{fill:#E6E7E8;}
	.st8{fill:none;stroke:#939598;stroke-miterlimit:10;}
	.st9{fill:#939598;}
	.st10{fill:#70758D;}
	.st11{opacity:0.6;}
	.st12{fill:#2E375D;}
	.st13{opacity:0.6;fill:#2E375D;}
	.st14{opacity:0.3;fill:none;stroke:#2E375D;stroke-miterlimit:10;}
	.st15{fill:#2CE5B5;}
	.st16{fill:#00C6AD;}
	.st17{fill:#25B0E5;}
	.st18{fill:#4275F4;}
	.st19{fill:none;}
	.st20{fill:none;stroke:#AFAFAF;stroke-miterlimit:10;}
	.st21{fill:none;stroke:#FFFFFF;stroke-miterlimit:10;}
	.st22{fill:#DCDCDC;}
	.st23{fill:none;stroke:#DCDCDC;stroke-miterlimit:10;}
	.st24{fill:#A7A9AC;}
	.st25{opacity:0.3;fill:none;stroke:#2E375D;stroke-width:3;stroke-miterlimit:10;}
	.st26{fill:none;stroke:#70758D;stroke-width:5;stroke-miterlimit:10;}
	.st27{opacity:0.3;fill:#2E375D;}
	.st28{fill:#808285;}
	.st29{fill:#58595B;}
	.st30{fill:#58595B;stroke:#414042;stroke-miterlimit:10;}
	.st31{fill:#414042;stroke:#414042;stroke-miterlimit:10;}
	.st32{fill:#58595B;stroke:#414042;stroke-width:2;stroke-miterlimit:10;}
	.st33{fill:#414042;}
	.st34{fill:#BC6D4F;}
	.st35{fill:#E23940;}
	.st36{fill:#5161AC;}
	.st37{fill:none;stroke:#58595B;stroke-miterlimit:10;}
	.st38{fill:#6CC06A;}
	.st39{fill:#F47320;}
	.st40{fill:#58595B;stroke:#000000;stroke-miterlimit:10;}
	.st41{fill:#FFE01B;}
	.st42{fill:#58595B;stroke:#231F20;stroke-miterlimit:10;}
	.st43{stroke:#231F20;stroke-miterlimit:10;}
	.st44{fill:none;stroke:#58595B;stroke-width:0.5;stroke-miterlimit:10;}
	.st45{fill:#7D351F;}
	.st46{fill:#58595B;stroke:#BCBEC0;stroke-miterlimit:10;}
	.st47{fill:none;stroke:#BCBEC0;stroke-width:0.5;stroke-miterlimit:10;}
	.st48{fill:none;stroke:#58595B;stroke-width:8;stroke-miterlimit:10;}
	.st49{fill:none;stroke:#58595B;stroke-width:2;stroke-miterlimit:10;}
	.st50{fill:#414042;stroke:#414042;stroke-width:2;stroke-miterlimit:10;}
	.st51{fill:#414042;stroke:#414042;stroke-width:0.25;stroke-miterlimit:10;}
	.st52{fill:#808285;stroke:#414042;stroke-width:0.25;stroke-miterlimit:10;}
	.st53{fill:none;stroke:#414042;stroke-width:0.25;stroke-miterlimit:10;}
	.st54{fill:none;stroke:#808285;stroke-width:0.15;stroke-miterlimit:10;}
	.st55{fill:#F2E651;}
	.st56{fill:#231F20;}
	.st57{fill:url(#SVGID_1_);}
	.st58{fill:url(#SVGID_2_);}
	.st59{fill:none;stroke:#BCBEC0;stroke-width:9;stroke-miterlimit:10;}
	.st60{fill:url(#SVGID_3_);}
	.st61{fill:url(#SVGID_4_);}
	.st62{fill:#8B5E3C;}
	.st63{fill:url(#SVGID_5_);}
	.st64{fill:url(#SVGID_6_);}
	.st65{fill:url(#SVGID_7_);}
	.st66{fill:url(#SVGID_8_);}
	.st67{fill:url(#SVGID_9_);}
	.st68{fill:url(#SVGID_10_);}
	.st69{fill:url(#SVGID_11_);}
	.st70{fill:url(#SVGID_12_);}
	.st71{fill:url(#SVGID_13_);}
	.st72{fill:url(#SVGID_14_);}
	.st73{fill:url(#SVGID_15_);}
	.st74{fill:url(#SVGID_16_);}
	.st75{fill:url(#SVGID_17_);}
	.st76{fill:url(#SVGID_18_);}
	.st77{fill:url(#SVGID_19_);}
	.st78{fill:url(#SVGID_20_);}
	.st79{fill:url(#SVGID_21_);}
	.st80{fill:url(#SVGID_22_);}
	.st81{fill:url(#SVGID_23_);}
	.st82{fill:url(#SVGID_24_);}
	.st83{fill:url(#SVGID_25_);}
	.st84{fill:url(#SVGID_26_);}
	.st85{fill:url(#SVGID_27_);}
	.st86{fill:url(#SVGID_28_);}
	.st87{fill:#BCBEC0;}
	.st88{opacity:0.6;fill:#FFFFFF;}
	.st89{opacity:0.3;}
	.st90{fill:none;stroke:#2E375D;stroke-width:4;stroke-linecap:round;stroke-miterlimit:10;}
	.st91{fill:url(#SVGID_29_);}
	.st92{fill:#E1E1E1;}
	.st93{fill:#00AEEF;}
	.st94{fill:none;stroke:#414042;stroke-width:7;stroke-miterlimit:10;}
	.st95{fill:none;stroke:#414042;stroke-width:5;stroke-miterlimit:10;}
	.st96{fill:none;stroke:#231F20;stroke-width:6;stroke-miterlimit:10;}
	.st97{fill:#A97C50;}
	.st98{fill:none;stroke:#FFFFFF;stroke-width:0.75;stroke-miterlimit:10;}
	.st99{fill:none;stroke:#58595B;stroke-width:7;stroke-miterlimit:10;}
	.st100{fill:#FFFFFF;stroke:#2CE5B5;stroke-width:2;stroke-miterlimit:10;}
	.st101{fill:#2D3340;}
	.st102{fill:url(#SVGID_30_);}
	.st103{fill:url(#SVGID_31_);}
	.st104{fill:url(#SVGID_32_);}
	.st105{fill:url(#SVGID_33_);}
	.st106{fill:url(#SVGID_34_);}
	.st107{fill:url(#SVGID_35_);}
	.st108{fill:url(#SVGID_36_);}
	.st109{fill:url(#SVGID_37_);}
	.st110{fill:none;stroke:#BCBEC0;stroke-width:15;stroke-miterlimit:10;}
	.st111{fill:#3E46D7;}
	.st112{fill:#F3F3F3;}
	.st113{fill:url(#SVGID_38_);}
	.st114{fill:url(#SVGID_39_);}
	.st115{fill:#EEBDEF;}
	.st116{fill:#E6CC81;}
	.st117{opacity:0.8;fill:#E8A0E8;}
	.st118{fill:#EE2A7B;}
	.st119{fill:url(#SVGID_40_);}
	.st120{fill:url(#SVGID_41_);}
	.st121{fill:url(#SVGID_42_);}
	.st122{fill:#EC008C;}
	.st123{opacity:0.8;fill:url(#SVGID_43_);}
	.st124{opacity:0.8;fill:url(#SVGID_44_);}
	.st125{opacity:0.8;fill:url(#SVGID_45_);}
	.st126{fill:#F28CBB;}
	.st127{fill:#FAF6F3;}
	.st128{fill:url(#SVGID_46_);}
	.st129{fill:#2D271A;}
	.st130{fill:#514E3F;}
	.st131{fill:url(#SVGID_47_);}
	.st132{fill:url(#SVGID_48_);}
</style>
<g id="Layer_2">
</g>
<g id="Layer_1">
	<g>
		<g>
			<linearGradient id="SVGID_1_" gradientUnits="userSpaceOnUse" x1="52.1752" y1="69.7188" x2="114.9251" y2="69.7188">
				<stop  offset="0.2992" style="stop-color:#2D3340"/>
				<stop  offset="0.5396" style="stop-color:#2D3343"/>
				<stop  offset="0.7405" style="stop-color:#2D354E"/>
				<stop  offset="0.91" style="stop-color:#2E375D"/>
			</linearGradient>
			<path class="st57" d="M69.4,22.3c-9.7,0.7-17,13.3-17.2,23.6c-0.1,5.4,1.7,9.3,5.2,16.7c3.6,7.7,5.4,8.6,11.7,18.8
				c9.8,15.8,14.7,23.7,16.1,26.6c1,2.1,3,6.7,7.6,8.4c2.7,1.1,5.2,0.7,6.8,0.5c1.7-0.2,7-1.2,11.1-5.9c1.2-1.3,4-4.6,4.1-9
				c0.1-4.3-2.3-6.9-7.3-13.7c-2.8-3.9-6.4-8.9-8.7-12.9c-4.4-7.8-2.6-10.1-7.4-27.1c-3.8-13.6-6.2-16.7-8-18.7
				C81.8,27.6,76.3,21.8,69.4,22.3z"/>
			<linearGradient id="SVGID_2_" gradientUnits="userSpaceOnUse" x1="60.5979" y1="64.59" x2="83.9952" y2="64.59">
				<stop  offset="0" style="stop-color:#2CE5B5"/>
				<stop  offset="0.38" style="stop-color:#00C6AD"/>
			</linearGradient>
			<path class="st58" d="M82.7,91.9c0.3-0.4,0.7-1.1,1-2c0.3-1.2,0.3-2.1,0.2-2.7c-2.2-0.7-11.3-3.8-15.6-11.8
				c-1.9-3.5-2.6-7.6-2.7-8.2c-0.1-0.8-0.7-4.2-0.2-8.3c0.9-7.9,4.6-13.4,6.7-16.1c-0.6-1.8-1.3-3.6-1.9-5.4
				c-2.3,2.2-7.9,8.2-9.3,17.5c-1.2,8.1,1.8,14.4,5,21.6c2.6,5.6,4.7,8,5.7,9C75.6,89.4,80,91.1,82.7,91.9z"/>
			<linearGradient id="SVGID_3_" gradientUnits="userSpaceOnUse" x1="70.1575" y1="60.6652" x2="100.6645" y2="60.6652">
				<stop  offset="0" style="stop-color:#2CE5B5"/>
				<stop  offset="0.68" style="stop-color:#00C6AD"/>
			</linearGradient>
			<path class="st60" d="M94.8,78.5c0.2,0.9,0.6,2,1.4,3.2c0.8,1.3,1.7,2.3,2.4,3c5.7-21.1-0.4-39.8-12.4-45.9
				c-2.4-1.2-7.6-3.2-15.9-1.5c0.6,1.8,1.3,3.6,1.9,5.4c4.1-1.2,7.2-0.8,8.8-0.4c2.4,0.6,4.1,1.6,7.4,3.6c2.5,1.5,4.6,2.9,5.1,3.3
				C97.7,52.7,97.9,64.7,94.8,78.5z"/>
		</g>
		<g>
			
				<linearGradient id="SVGID_4_" gradientUnits="userSpaceOnUse" x1="311.7449" y1="54.8921" x2="374.4948" y2="54.8921" gradientTransform="matrix(-0.9772 0.2124 0.2124 0.9772 468.3333 -54.7197)">
				<stop  offset="0.2992" style="stop-color:#2D3340"/>
				<stop  offset="0.5396" style="stop-color:#2D3343"/>
				<stop  offset="0.7405" style="stop-color:#2D354E"/>
				<stop  offset="0.91" style="stop-color:#2E375D"/>
			</linearGradient>
			<path class="st61" d="M148.5,22.4c9.6-1.4,19.4,9.4,21.8,19.4c1.3,5.2,0.3,9.5-1.5,17.5c-1.9,8.3-3.4,9.6-7.5,20.9
				c-6.2,17.5-9.3,26.3-10.1,29.4c-0.5,2.3-1.6,7.1-5.6,9.9c-2.4,1.6-4.9,1.8-6.6,1.9c-1.7,0.1-7.1,0.3-12.2-3.4
				c-1.4-1.1-4.9-3.6-6-7.9c-1-4.1,0.8-7.2,4.2-15c1.9-4.4,4.4-10.1,5.7-14.5c2.6-8.5,0.4-10.5,1.4-28c0.8-14.1,2.5-17.7,3.9-20
				C137.5,30.3,141.6,23.4,148.5,22.4z"/>
			
				<linearGradient id="SVGID_5_" gradientUnits="userSpaceOnUse" x1="320.1676" y1="49.7633" x2="343.5649" y2="49.7633" gradientTransform="matrix(-0.9772 0.2124 0.2124 0.9772 468.3333 -54.7197)">
				<stop  offset="0" style="stop-color:#2CE5B5"/>
				<stop  offset="0.38" style="stop-color:#00C6AD"/>
			</linearGradient>
			<path class="st63" d="M150.2,93.3c-0.4-0.3-1-0.9-1.4-1.8c-0.6-1.1-0.7-2-0.8-2.6c2-1.1,10.2-6.1,12.7-14.8c1.1-3.9,1-8,0.9-8.6
				c0-0.8-0.2-4.2-1.5-8.2c-2.5-7.5-7.4-12.1-10-14.3c0.2-1.9,0.5-3.8,0.7-5.7c2.7,1.7,9.4,6.3,12.8,15.1c2.9,7.6,1.3,14.5-0.3,22.2
				c-1.3,6.1-2.9,8.8-3.7,10C156.7,89.3,152.7,91.9,150.2,93.3z"/>
			
				<linearGradient id="SVGID_6_" gradientUnits="userSpaceOnUse" x1="329.7272" y1="45.8385" x2="360.2342" y2="45.8385" gradientTransform="matrix(-0.9772 0.2124 0.2124 0.9772 468.3333 -54.7197)">
				<stop  offset="0" style="stop-color:#2CE5B5"/>
				<stop  offset="0.68" style="stop-color:#00C6AD"/>
			</linearGradient>
			<path class="st64" d="M135.6,82.8c-0.1,0.9-0.2,2.1-0.7,3.4c-0.5,1.5-1.2,2.6-1.7,3.4c-10-19.4-8.1-39,2.4-47.5
				c2.1-1.7,6.8-4.7,15.2-4.8c-0.2,1.9-0.5,3.8-0.7,5.7c-4.3-0.3-7.2,0.8-8.7,1.5c-2.2,1.1-3.7,2.5-6.5,5.1c-2.2,2-3.8,3.8-4.2,4.3
				C127.2,58.2,129.6,69.9,135.6,82.8z"/>
		</g>
	</g>
</g>
<g id="Layer_3">
</g>
</svg>
