<?xml version="1.0" encoding="utf-8"?>
<!-- Generator: Adobe Illustrator 20.0.0, SVG Export Plug-In . SVG Version: 6.00 Build 0)  -->
<svg version="1.1" xmlns="http://www.w3.org/2000/svg" xmlns:xlink="http://www.w3.org/1999/xlink" x="0px" y="0px"
	 viewBox="0 0 224.7 140.2" style="enable-background:new 0 0 224.7 140.2;" xml:space="preserve">
<style type="text/css">
	.st0{fill:#F1F2F2;}
	.st1{fill:#FFFFFF;stroke:#FFFFFF;stroke-miterlimit:10;}
	.st2{fill:#6D6E71;}
	.st3{fill:none;stroke:#231F20;stroke-miterlimit:10;}
	.st4{fill:#FFFFFF;}
	.st5{fill:#FFFFFF;stroke:#231F20;stroke-miterlimit:10;}
	.st6{fill:#D1D3D4;}
	.st7{fill:none;stroke:#000000;stroke-miterlimit:10;}
	.st8{fill:#E6E7E8;}
	.st9{fill:none;stroke:#939598;stroke-miterlimit:10;}
	.st10{fill:#939598;}
	.st11{fill:#70758D;}
	.st12{opacity:0.6;}
	.st13{fill:#2E375D;}
	.st14{opacity:0.6;fill:#2E375D;}
	.st15{opacity:0.3;fill:none;stroke:#2E375D;stroke-miterlimit:10;}
	.st16{fill:#2CE5B5;}
	.st17{fill:#00C6AD;}
	.st18{fill:#25B0E5;}
	.st19{fill:#4275F4;}
	.st20{fill:none;}
	.st21{fill:none;stroke:#AFAFAF;stroke-miterlimit:10;}
	.st22{fill:none;stroke:#FFFFFF;stroke-miterlimit:10;}
	.st23{fill:#DCDCDC;}
	.st24{fill:none;stroke:#DCDCDC;stroke-miterlimit:10;}
	.st25{fill:#A7A9AC;}
	.st26{fill:#00AEEF;}
	.st27{fill:#BCBEC0;}
	.st28{opacity:0.6;fill:#FFFFFF;}
	.st29{opacity:0.3;fill:none;stroke:#2E375D;stroke-width:3;stroke-miterlimit:10;}
	.st30{fill:none;stroke:#70758D;stroke-width:5;stroke-miterlimit:10;}
	.st31{opacity:0.3;fill:#2E375D;}
	.st32{opacity:0.3;}
	.st33{fill:none;stroke:#2E375D;stroke-width:4;stroke-linecap:round;stroke-miterlimit:10;}
	.st34{fill:#808285;}
	.st35{fill:#58595B;}
	.st36{fill:#58595B;stroke:#414042;stroke-miterlimit:10;}
	.st37{fill:#414042;stroke:#414042;stroke-miterlimit:10;}
	.st38{fill:#58595B;stroke:#414042;stroke-width:2;stroke-miterlimit:10;}
	.st39{fill:#414042;}
	.st40{fill:#BC6D4F;}
	.st41{fill:#E23940;}
	.st42{fill:#5161AC;}
	.st43{fill:none;stroke:#58595B;stroke-miterlimit:10;}
	.st44{fill:#6CC06A;}
	.st45{fill:#F47320;}
	.st46{fill:#58595B;stroke:#000000;stroke-miterlimit:10;}
	.st47{fill:#FFE01B;}
	.st48{fill:#58595B;stroke:#231F20;stroke-miterlimit:10;}
	.st49{stroke:#231F20;stroke-miterlimit:10;}
	.st50{fill:none;stroke:#58595B;stroke-width:0.5;stroke-miterlimit:10;}
	.st51{fill:#7D351F;}
	.st52{fill:#58595B;stroke:#BCBEC0;stroke-miterlimit:10;}
	.st53{fill:none;stroke:#BCBEC0;stroke-width:0.5;stroke-miterlimit:10;}
	.st54{fill:none;stroke:#58595B;stroke-width:8;stroke-miterlimit:10;}
	.st55{fill:none;stroke:#58595B;stroke-width:2;stroke-miterlimit:10;}
	.st56{fill:#414042;stroke:#414042;stroke-width:2;stroke-miterlimit:10;}
	.st57{fill:#414042;stroke:#414042;stroke-width:0.25;stroke-miterlimit:10;}
	.st58{fill:#808285;stroke:#414042;stroke-width:0.25;stroke-miterlimit:10;}
	.st59{fill:none;stroke:#414042;stroke-width:0.25;stroke-miterlimit:10;}
	.st60{fill:none;stroke:#808285;stroke-width:0.15;stroke-miterlimit:10;}
	.st61{fill:#F2E651;}
	.st62{fill:#231F20;}
	.st63{fill:url(#SVGID_1_);}
	.st64{fill:url(#SVGID_2_);}
	.st65{fill:none;stroke:#BCBEC0;stroke-width:9;stroke-miterlimit:10;}
	.st66{fill:#8B5E3C;}
	.st67{fill:url(#SVGID_3_);}
	.st68{fill:url(#SVGID_4_);}
	.st69{fill:url(#SVGID_5_);}
	.st70{fill:url(#SVGID_6_);}
	.st71{fill:url(#SVGID_7_);}
	.st72{fill:url(#SVGID_8_);}
	.st73{fill:url(#SVGID_9_);}
	.st74{fill:url(#SVGID_10_);}
	.st75{fill:url(#SVGID_11_);}
	.st76{fill:url(#SVGID_12_);}
	.st77{fill:url(#SVGID_13_);}
	.st78{fill:url(#SVGID_14_);}
	.st79{fill:url(#SVGID_15_);}
	.st80{fill:none;stroke:#414042;stroke-width:7;stroke-miterlimit:10;}
	.st81{fill:none;stroke:#414042;stroke-width:5;stroke-miterlimit:10;}
	.st82{fill:none;stroke:#231F20;stroke-width:6;stroke-miterlimit:10;}
	.st83{fill:#A97C50;}
	.st84{fill:none;stroke:#FFFFFF;stroke-width:0.75;stroke-miterlimit:10;}
	.st85{fill:none;stroke:#58595B;stroke-width:7;stroke-miterlimit:10;}
	.st86{fill:#FFFFFF;stroke:#2CE5B5;stroke-width:2;stroke-miterlimit:10;}
	.st87{fill:#2D3340;}
	.st88{fill:url(#SVGID_16_);}
	.st89{fill:url(#SVGID_17_);}
	.st90{fill:url(#SVGID_18_);}
	.st91{fill:url(#SVGID_19_);}
	.st92{fill:url(#SVGID_20_);}
	.st93{fill:url(#SVGID_21_);}
	.st94{fill:url(#SVGID_22_);}
	.st95{fill:url(#SVGID_23_);}
	.st96{fill:none;stroke:#BCBEC0;stroke-width:15;stroke-miterlimit:10;}
	.st97{fill:#3E46D7;}
	.st98{fill:#E1E1E1;}
	.st99{opacity:0.15;fill:url(#SVGID_24_);}
	.st100{opacity:0.5;fill:url(#SVGID_25_);}
	.st101{fill:url(#SVGID_26_);}
	.st102{opacity:3.000000e-02;fill:none;stroke:#FFFFFF;stroke-width:2;stroke-miterlimit:10;}
	.st103{fill:#FBDB84;}
	.st104{fill:#F3F3F3;}
	.st105{fill:url(#SVGID_27_);}
	.st106{fill:url(#SVGID_28_);}
	.st107{fill:#EEBDEF;}
	.st108{fill:#E6CC81;}
	.st109{opacity:0.8;fill:#E8A0E8;}
	.st110{fill:#EE2A7B;}
	.st111{fill:url(#SVGID_29_);}
	.st112{fill:url(#SVGID_30_);}
	.st113{fill:url(#SVGID_31_);}
	.st114{fill:#EC008C;}
	.st115{opacity:0.8;fill:url(#SVGID_32_);}
	.st116{opacity:0.8;fill:url(#SVGID_33_);}
	.st117{opacity:0.8;fill:url(#SVGID_34_);}
	.st118{fill:#F28CBB;}
	.st119{fill:#FAF6F3;}
	.st120{fill:url(#SVGID_35_);}
	.st121{fill:#2D271A;}
	.st122{fill:#514E3F;}
	.st123{fill:url(#SVGID_36_);}
	.st124{fill:url(#SVGID_37_);}
</style>
<g id="Layer_2">
</g>
<g id="Layer_1">
	<g>
		<path class="st41" d="M153.8,129.7c-30.2,0-62.4-0.8-79.8,0c-17.4,0.8-23.2-110,0-111.9s56.7,0.4,79.8,0S184,129.7,153.8,129.7z"
			/>
		<path class="st47" d="M200.9,89.6l2.4-2c2.8-2.3,3.2-6.5,0.9-9.3l-0.9-1.1c-2.3-2.8-6.5-3.2-9.3-0.9l-2.4,2
			c-2.8,2.3-3.2,6.5-0.9,9.3l0.9,1.1C193.9,91.5,198.1,91.9,200.9,89.6z"/>
		<rect x="113.7" y="17.3" class="st48" width="1" height="111.6"/>
		<path class="st47" d="M188.1,89.6l0.7-0.6c1.9-1.5,2.1-4.3,0.6-6.2l-1.5-1.8c-1.5-1.9-4.3-2.1-6.2-0.6L181,81
			c-1.9,1.5-2.1,4.3-0.6,6.2l1.5,1.8C183.4,90.8,186.2,91.1,188.1,89.6z"/>
		<path class="st41" d="M190.9,82.4l2.4-2c6.3-5.2,7.2-14.5,2-20.8l-30.6-37c-5.2-6.3-14.5-7.2-20.8-2l-2.4,2
			c-6.3,5.2-7.2,14.5-2,20.8l30.6,37C175.3,86.8,184.6,87.6,190.9,82.4z"/>
		<path class="st47" d="M28.4,88.1l-2.4-2c-2.8-2.3-3.2-6.5-0.9-9.3l0.9-1.1c2.3-2.8,6.5-3.2,9.3-0.9l2.4,2c2.8,2.3,3.2,6.5,0.9,9.3
			l-0.9,1.1C35.4,90.1,31.2,90.5,28.4,88.1z"/>
		<path class="st47" d="M41.2,88.1l-0.7-0.6c-1.9-1.5-2.1-4.3-0.6-6.2l1.5-1.8c1.5-1.9,4.3-2.1,6.2-0.6l0.7,0.6
			c1.9,1.5,2.1,4.3,0.6,6.2l-1.5,1.8C45.9,89.4,43.1,89.7,41.2,88.1z"/>
		<path class="st41" d="M37.6,82.4l-2.4-2c-6.3-5.2-7.2-14.5-2-20.8l30.6-37c5.2-6.3,14.5-7.2,20.8-2l2.4,2c6.3,5.2,7.2,14.5,2,20.8
			l-30.6,37C53.2,86.8,43.9,87.6,37.6,82.4z"/>
		<circle class="st49" cx="107.3" cy="30.8" r="1.7"/>
		<circle class="st49" cx="110.7" cy="60.5" r="1.7"/>
		<circle class="st49" cx="110.2" cy="90.2" r="1.7"/>
		<ellipse transform="matrix(0.7071 -0.7071 0.7071 0.7071 -52.8018 110.7569)" cx="107.3" cy="119.1" rx="1.7" ry="1.7"/>
		<path class="st2" d="M107.6,21.1c-1.4-0.1-29.3-2.5-29.3-2.5c-3.3-0.3-5.7-2.3-5.3-4.4v0c0.4-2.2-0.5-4,6.6-3.4s27,2.3,29.3,2.5
			c2.3,0.2,5.7,2.3,5.3,4.4v0C113.8,19.8,109,21.2,107.6,21.1z"/>
		<path class="st2" d="M120.8,21.1c1.4-0.1,29.6-2.6,29.6-2.6c3.3-0.3,5.7-2.3,5.4-4.4v0c-0.4-2.2,0.5-4-6.7-3.4s-27.3,2.4-29.6,2.6
			s-5.7,2.3-5.4,4.4v0C114.5,19.8,119.4,21.2,120.8,21.1z"/>
	</g>
</g>
<g id="Layer_3">
</g>
</svg>
