<?xml version="1.0" encoding="utf-8"?>
<!-- Generator: Adobe Illustrator 20.0.0, SVG Export Plug-In . SVG Version: 6.00 Build 0)  -->
<svg version="1.1" xmlns="http://www.w3.org/2000/svg" xmlns:xlink="http://www.w3.org/1999/xlink" x="0px" y="0px"
	 viewBox="0 0 224.7 140.2" style="enable-background:new 0 0 224.7 140.2;" xml:space="preserve">
<style type="text/css">
	.st0{fill:#F1F2F2;}
	.st1{fill:#FFFFFF;stroke:#FFFFFF;stroke-miterlimit:10;}
	.st2{fill:#6D6E71;}
	.st3{fill:none;stroke:#231F20;stroke-miterlimit:10;}
	.st4{fill:#FFFFFF;}
	.st5{fill:#FFFFFF;stroke:#231F20;stroke-miterlimit:10;}
	.st6{fill:#D1D3D4;}
	.st7{fill:none;stroke:#000000;stroke-miterlimit:10;}
	.st8{fill:#E6E7E8;}
	.st9{fill:none;stroke:#939598;stroke-miterlimit:10;}
	.st10{fill:#939598;}
	.st11{fill:#70758D;}
	.st12{opacity:0.6;}
	.st13{fill:#2E375D;}
	.st14{opacity:0.6;fill:#2E375D;}
	.st15{opacity:0.3;fill:none;stroke:#2E375D;stroke-miterlimit:10;}
	.st16{fill:#2CE5B5;}
	.st17{fill:#00C6AD;}
	.st18{fill:#25B0E5;}
	.st19{fill:#4275F4;}
	.st20{fill:none;}
	.st21{fill:none;stroke:#AFAFAF;stroke-miterlimit:10;}
	.st22{fill:none;stroke:#FFFFFF;stroke-miterlimit:10;}
	.st23{fill:#DCDCDC;}
	.st24{fill:none;stroke:#DCDCDC;stroke-miterlimit:10;}
	.st25{fill:#A7A9AC;}
	.st26{fill:#00AEEF;}
	.st27{fill:#BCBEC0;}
	.st28{opacity:0.6;fill:#FFFFFF;}
	.st29{opacity:0.3;fill:none;stroke:#2E375D;stroke-width:3;stroke-miterlimit:10;}
	.st30{fill:none;stroke:#70758D;stroke-width:5;stroke-miterlimit:10;}
	.st31{opacity:0.3;fill:#2E375D;}
	.st32{opacity:0.3;}
	.st33{fill:none;stroke:#2E375D;stroke-width:4;stroke-linecap:round;stroke-miterlimit:10;}
	.st34{fill:#808285;}
	.st35{fill:#58595B;}
	.st36{fill:#58595B;stroke:#414042;stroke-miterlimit:10;}
	.st37{fill:#414042;stroke:#414042;stroke-miterlimit:10;}
	.st38{fill:#58595B;stroke:#414042;stroke-width:2;stroke-miterlimit:10;}
	.st39{fill:#414042;}
	.st40{fill:#BC6D4F;}
	.st41{fill:#E23940;}
	.st42{fill:#5161AC;}
	.st43{fill:none;stroke:#58595B;stroke-miterlimit:10;}
	.st44{fill:#6CC06A;}
	.st45{fill:#F47320;}
	.st46{fill:#58595B;stroke:#000000;stroke-miterlimit:10;}
	.st47{fill:#FFE01B;}
	.st48{fill:#58595B;stroke:#231F20;stroke-miterlimit:10;}
	.st49{stroke:#231F20;stroke-miterlimit:10;}
	.st50{fill:none;stroke:#58595B;stroke-width:0.5;stroke-miterlimit:10;}
	.st51{fill:#7D351F;}
	.st52{fill:#58595B;stroke:#BCBEC0;stroke-miterlimit:10;}
	.st53{fill:none;stroke:#BCBEC0;stroke-width:0.5;stroke-miterlimit:10;}
	.st54{fill:none;stroke:#58595B;stroke-width:8;stroke-miterlimit:10;}
	.st55{fill:none;stroke:#58595B;stroke-width:2;stroke-miterlimit:10;}
	.st56{fill:#414042;stroke:#414042;stroke-width:2;stroke-miterlimit:10;}
	.st57{fill:#414042;stroke:#414042;stroke-width:0.25;stroke-miterlimit:10;}
	.st58{fill:#808285;stroke:#414042;stroke-width:0.25;stroke-miterlimit:10;}
	.st59{fill:none;stroke:#414042;stroke-width:0.25;stroke-miterlimit:10;}
	.st60{fill:none;stroke:#808285;stroke-width:0.15;stroke-miterlimit:10;}
	.st61{fill:#F2E651;}
	.st62{fill:#231F20;}
	.st63{fill:url(#SVGID_1_);}
	.st64{fill:url(#SVGID_2_);}
	.st65{fill:none;stroke:#BCBEC0;stroke-width:9;stroke-miterlimit:10;}
	.st66{fill:#8B5E3C;}
	.st67{fill:url(#SVGID_3_);}
	.st68{fill:url(#SVGID_4_);}
	.st69{fill:url(#SVGID_5_);}
	.st70{fill:url(#SVGID_6_);}
	.st71{fill:url(#SVGID_7_);}
	.st72{fill:url(#SVGID_8_);}
	.st73{fill:url(#SVGID_9_);}
	.st74{fill:url(#SVGID_10_);}
	.st75{fill:url(#SVGID_11_);}
	.st76{fill:url(#SVGID_12_);}
	.st77{fill:url(#SVGID_13_);}
	.st78{fill:url(#SVGID_14_);}
	.st79{fill:url(#SVGID_15_);}
	.st80{fill:none;stroke:#414042;stroke-width:7;stroke-miterlimit:10;}
	.st81{fill:none;stroke:#414042;stroke-width:5;stroke-miterlimit:10;}
	.st82{fill:none;stroke:#231F20;stroke-width:6;stroke-miterlimit:10;}
	.st83{fill:#A97C50;}
	.st84{fill:none;stroke:#FFFFFF;stroke-width:0.75;stroke-miterlimit:10;}
	.st85{fill:none;stroke:#58595B;stroke-width:7;stroke-miterlimit:10;}
	.st86{fill:#FFFFFF;stroke:#2CE5B5;stroke-width:2;stroke-miterlimit:10;}
	.st87{fill:#2D3340;}
	.st88{fill:url(#SVGID_16_);}
	.st89{fill:url(#SVGID_17_);}
	.st90{fill:url(#SVGID_18_);}
	.st91{fill:url(#SVGID_19_);}
	.st92{fill:url(#SVGID_20_);}
	.st93{fill:url(#SVGID_21_);}
	.st94{fill:url(#SVGID_22_);}
	.st95{fill:url(#SVGID_23_);}
	.st96{fill:none;stroke:#BCBEC0;stroke-width:15;stroke-miterlimit:10;}
	.st97{fill:#3E46D7;}
	.st98{fill:#E1E1E1;}
	.st99{opacity:0.15;fill:url(#SVGID_24_);}
	.st100{opacity:0.5;fill:url(#SVGID_25_);}
	.st101{fill:url(#SVGID_26_);}
	.st102{opacity:3.000000e-02;fill:none;stroke:#FFFFFF;stroke-width:2;stroke-miterlimit:10;}
	.st103{fill:#FBDB84;}
	.st104{fill:#F3F3F3;}
	.st105{fill:url(#SVGID_27_);}
	.st106{fill:url(#SVGID_28_);}
	.st107{fill:#EEBDEF;}
	.st108{fill:#E6CC81;}
	.st109{opacity:0.8;fill:#E8A0E8;}
	.st110{fill:#EE2A7B;}
	.st111{fill:url(#SVGID_29_);}
	.st112{fill:url(#SVGID_30_);}
	.st113{fill:url(#SVGID_31_);}
	.st114{fill:#EC008C;}
	.st115{opacity:0.8;fill:url(#SVGID_32_);}
	.st116{opacity:0.8;fill:url(#SVGID_33_);}
	.st117{opacity:0.8;fill:url(#SVGID_34_);}
	.st118{fill:#F28CBB;}
	.st119{fill:#FAF6F3;}
	.st120{fill:url(#SVGID_35_);}
	.st121{fill:#2D271A;}
	.st122{fill:#514E3F;}
	.st123{fill:url(#SVGID_36_);}
	.st124{fill:url(#SVGID_37_);}
</style>
<g id="Layer_2">
</g>
<g id="Layer_1">
	<g>
		<path class="st45" d="M139,129.5c-3.8,0.1-54.7,1.2-57.9,0s0-81.2,0-81.2H139C139,48.4,142.8,129.5,139,129.5z"/>
		<path class="st51" d="M56.5,100l-9-7.5c-1-0.8-1.1-2.2-0.3-3.2h0c0.8-1,2.2-1.1,3.2-0.3l9,7.5c1,0.8,1.1,2.2,0.3,3.2v0
			C58.9,100.7,57.5,100.8,56.5,100z"/>
		<path class="st45" d="M53.9,94.4L53.9,94.4c-5-4.2-5.7-11.7-1.6-16.7l20.8-25.1c4.2-5,11.7-5.7,16.7-1.6l0,0
			c5,4.2,5.7,11.7,1.6,16.7L70.6,92.9C66.4,97.9,58.9,98.6,53.9,94.4z"/>
		<path class="st51" d="M164,100.2l9-7.5c1-0.8,1.1-2.2,0.3-3.2l0,0c-0.8-1-2.2-1.1-3.2-0.3l-9,7.5c-1,0.8-1.1,2.2-0.3,3.2h0
			C161.6,100.9,163,101,164,100.2z"/>
		<path class="st45" d="M166.8,94.4L166.8,94.4c5-4.2,5.7-11.7,1.6-16.7l-20.8-25.1c-4.2-5-11.7-5.7-16.7-1.6l0,0
			c-5,4.2-5.7,11.7-1.6,16.7l20.8,25.1C154.3,97.9,161.8,98.6,166.8,94.4z"/>
		<ellipse class="st45" cx="110.1" cy="32.5" rx="25.9" ry="24.8"/>
		<path class="st51" d="M128.9,34.8c0,8.7-1.6,15.7-18.3,15.7s-18.3-7-18.3-15.7s10.8-15.7,18.3-15.7S128.9,26.1,128.9,34.8z"/>
		<rect x="109.9" y="56.4" class="st52" width="0.4" height="70.8"/>
		<path class="st53" d="M110.2,50.4c0.8,1.3,1.8,3,2.7,5.1c0.7,1.5,0.9,2.2,1.6,3.6c0.7,1.4,1.6,3.1,3,5.1"/>
		<path class="st53" d="M110.2,50.2c-1.6,7.3-4.2,12.9-5.9,12.5"/>
	</g>
</g>
<g id="Layer_3">
</g>
</svg>
