<?xml version="1.0" encoding="utf-8"?>
<!-- Generator: Adobe Illustrator 20.0.0, SVG Export Plug-In . SVG Version: 6.00 Build 0)  -->
<svg version="1.1" xmlns="http://www.w3.org/2000/svg" xmlns:xlink="http://www.w3.org/1999/xlink" x="0px" y="0px"
	 viewBox="0 0 224.7 140.2" style="enable-background:new 0 0 224.7 140.2;" xml:space="preserve">
<style type="text/css">
	.st0{fill:#F1F2F2;}
	.st1{fill:#FFFFFF;stroke:#FFFFFF;stroke-miterlimit:10;}
	.st2{fill:#6D6E71;}
	.st3{fill:#FFFFFF;}
	.st4{fill:#FFFFFF;stroke:#231F20;stroke-miterlimit:10;}
	.st5{fill:#D1D3D4;}
	.st6{fill:none;stroke:#000000;stroke-miterlimit:10;}
	.st7{fill:#E6E7E8;}
	.st8{fill:none;stroke:#939598;stroke-miterlimit:10;}
	.st9{fill:#939598;}
	.st10{fill:#70758D;}
	.st11{opacity:0.6;}
	.st12{fill:#2E375D;}
	.st13{opacity:0.6;fill:#2E375D;}
	.st14{opacity:0.3;fill:none;stroke:#2E375D;stroke-miterlimit:10;}
	.st15{fill:#2CE5B5;}
	.st16{fill:#00C6AD;}
	.st17{fill:#25B0E5;}
	.st18{fill:#4275F4;}
	.st19{fill:none;}
	.st20{fill:none;stroke:#AFAFAF;stroke-miterlimit:10;}
	.st21{fill:none;stroke:#FFFFFF;stroke-miterlimit:10;}
	.st22{fill:#DCDCDC;}
	.st23{fill:none;stroke:#DCDCDC;stroke-miterlimit:10;}
	.st24{fill:#A7A9AC;}
	.st25{fill:#00AEEF;}
	.st26{fill:#BCBEC0;}
	.st27{opacity:0.6;fill:#FFFFFF;}
	.st28{opacity:0.3;fill:none;stroke:#2E375D;stroke-width:3;stroke-miterlimit:10;}
	.st29{fill:none;stroke:#70758D;stroke-width:5;stroke-miterlimit:10;}
	.st30{opacity:0.3;fill:#2E375D;}
	.st31{opacity:0.3;}
	.st32{fill:none;stroke:#2E375D;stroke-width:4;stroke-linecap:round;stroke-miterlimit:10;}
	.st33{fill:#808285;}
	.st34{fill:#58595B;}
	.st35{fill:#58595B;stroke:#414042;stroke-miterlimit:10;}
	.st36{fill:#414042;stroke:#414042;stroke-miterlimit:10;}
	.st37{fill:#58595B;stroke:#414042;stroke-width:2;stroke-miterlimit:10;}
	.st38{fill:#414042;}
	.st39{fill:#BC6D4F;}
	.st40{fill:#E23940;}
	.st41{fill:#5161AC;}
	.st42{fill:none;stroke:#58595B;stroke-miterlimit:10;}
	.st43{fill:#6CC06A;}
	.st44{fill:#F47320;}
	.st45{fill:#58595B;stroke:#000000;stroke-miterlimit:10;}
	.st46{fill:#FFE01B;}
	.st47{fill:#58595B;stroke:#231F20;stroke-miterlimit:10;}
	.st48{stroke:#231F20;stroke-miterlimit:10;}
	.st49{fill:none;stroke:#58595B;stroke-width:0.5;stroke-miterlimit:10;}
	.st50{fill:#7D351F;}
	.st51{fill:#58595B;stroke:#BCBEC0;stroke-miterlimit:10;}
	.st52{fill:none;stroke:#BCBEC0;stroke-width:0.5;stroke-miterlimit:10;}
	.st53{fill:none;stroke:#58595B;stroke-width:8;stroke-miterlimit:10;}
	.st54{fill:none;stroke:#58595B;stroke-width:2;stroke-miterlimit:10;}
	.st55{fill:#414042;stroke:#414042;stroke-width:2;stroke-miterlimit:10;}
	.st56{fill:#414042;stroke:#414042;stroke-width:0.25;stroke-miterlimit:10;}
	.st57{fill:#808285;stroke:#414042;stroke-width:0.25;stroke-miterlimit:10;}
	.st58{fill:none;stroke:#414042;stroke-width:0.25;stroke-miterlimit:10;}
	.st59{fill:none;stroke:#808285;stroke-width:0.15;stroke-miterlimit:10;}
	.st60{fill:#F2E651;}
	.st61{fill:#231F20;}
	.st62{fill:url(#SVGID_1_);}
	.st63{fill:url(#SVGID_2_);}
	.st64{fill:none;stroke:#BCBEC0;stroke-width:9;stroke-miterlimit:10;}
	.st65{fill:#8B5E3C;}
	.st66{fill:url(#SVGID_3_);}
	.st67{fill:url(#SVGID_4_);}
	.st68{fill:url(#SVGID_5_);}
	.st69{fill:url(#SVGID_6_);}
	.st70{fill:url(#SVGID_7_);}
	.st71{fill:url(#SVGID_8_);}
	.st72{fill:url(#SVGID_9_);}
	.st73{fill:url(#SVGID_10_);}
	.st74{fill:url(#SVGID_11_);}
	.st75{fill:url(#SVGID_12_);}
	.st76{fill:url(#SVGID_13_);}
	.st77{fill:url(#SVGID_14_);}
	.st78{fill:url(#SVGID_15_);}
	.st79{fill:none;stroke:#414042;stroke-width:7;stroke-miterlimit:10;}
	.st80{fill:none;stroke:#414042;stroke-width:5;stroke-miterlimit:10;}
	.st81{fill:none;stroke:#231F20;stroke-width:6;stroke-miterlimit:10;}
	.st82{fill:#A97C50;}
	.st83{fill:none;stroke:#FFFFFF;stroke-width:0.75;stroke-miterlimit:10;}
	.st84{fill:none;stroke:#58595B;stroke-width:7;stroke-miterlimit:10;}
	.st85{fill:#FFFFFF;stroke:#2CE5B5;stroke-width:2;stroke-miterlimit:10;}
	.st86{fill:#2D3340;}
	.st87{fill:url(#SVGID_16_);}
	.st88{fill:url(#SVGID_17_);}
	.st89{fill:url(#SVGID_18_);}
	.st90{fill:url(#SVGID_19_);}
	.st91{fill:url(#SVGID_20_);}
	.st92{fill:url(#SVGID_21_);}
	.st93{fill:url(#SVGID_22_);}
	.st94{fill:url(#SVGID_23_);}
	.st95{fill:none;stroke:#BCBEC0;stroke-width:15;stroke-miterlimit:10;}
	.st96{fill:#3E46D7;}
	.st97{fill:#E1E1E1;}
	.st98{opacity:0.15;fill:url(#SVGID_24_);}
	.st99{opacity:0.5;fill:url(#SVGID_25_);}
	.st100{fill:url(#SVGID_26_);}
	.st101{opacity:3.000000e-02;fill:none;stroke:#FFFFFF;stroke-width:2;stroke-miterlimit:10;}
	.st102{fill:#FBDB84;}
	.st103{fill:#F3F3F3;}
	.st104{fill:url(#SVGID_27_);}
	.st105{fill:url(#SVGID_28_);}
	.st106{fill:#EEBDEF;}
	.st107{fill:#E6CC81;}
	.st108{opacity:0.8;fill:#E8A0E8;}
	.st109{fill:#EE2A7B;}
	.st110{fill:url(#SVGID_29_);}
	.st111{fill:url(#SVGID_30_);}
	.st112{fill:url(#SVGID_31_);}
	.st113{fill:#EC008C;}
	.st114{opacity:0.8;fill:url(#SVGID_32_);}
	.st115{opacity:0.8;fill:url(#SVGID_33_);}
	.st116{opacity:0.8;fill:url(#SVGID_34_);}
	.st117{fill:#F28CBB;}
	.st118{fill:#FAF6F3;}
	.st119{fill:url(#SVGID_35_);}
	.st120{fill:#2D271A;}
	.st121{fill:#514E3F;}
	.st122{fill:url(#SVGID_36_);}
	.st123{fill:url(#SVGID_37_);}
</style>
<g id="Layer_2">
</g>
<g id="Layer_1">
	<path class="st60" d="M178.8,109L51.5,120.1c-11.3,1-21.4-7.5-22.4-18.8L25.9,65c-1-11.3,7.5-21.4,18.8-22.4L172,31.5
		c11.3-1,21.4,7.5,22.4,18.8l3.2,36.4C198.6,98,190.1,108,178.8,109z"/>
	
		<rect x="44.2" y="21.9" transform="matrix(0.9962 -8.707573e-02 8.707573e-02 0.9962 -4.9842 10.6608)" class="st60" width="150.9" height="81.2"/>
	
		<rect x="24.6" y="30" transform="matrix(0.9962 -8.707573e-02 8.707573e-02 0.9962 -3.6427 8.8877)" class="st60" width="150.9" height="32.4"/>
	<g>
		<path class="st61" d="M40.7,114.6L40.7,114.6c-3.2,0.3-6-2.1-6.3-5.3L29,46.8c-0.3-3.2,2.1-6,5.3-6.3h0c3.2-0.3,6,2.1,6.3,5.3
			l5.5,62.5C46.3,111.5,43.9,114.3,40.7,114.6z"/>
		
			<rect x="29" y="38.5" transform="matrix(0.9962 -8.707574e-02 8.707574e-02 0.9962 -3.9434 3.2088)" class="st61" width="11.6" height="16.7"/>
	</g>
	<g>
		<path d="M111.2,28.4l-1.8,0.2l0.1-1l4.7-0.4l-0.1,1l-1.8,0.2l-0.9,9.2l-1.1,0.1L111.2,28.4z"/>
		<path d="M114,37.3l1-10.5l1.1-0.1l-0.4,4.2l0,0c0.4-0.8,1-1.2,1.7-1.3c0.9-0.1,1.3,0.6,1.3,1.3c0,0.4,0,0.7,0,1.2l-0.5,4.7
			l-1.1,0.1l0.5-4.8c0-0.3,0-0.6,0-1c0-0.4-0.3-0.7-0.7-0.7c-0.7,0.1-1.4,1.2-1.5,2.4l-0.4,4.2L114,37.3z"/>
		<path d="M123.7,36.1c-0.5,0.3-1,0.5-1.7,0.6c-1.5,0.1-2.1-1-2.2-2.4c-0.2-1.9,0.7-5,2.7-5.1c1.1-0.1,1.6,0.7,1.6,1.5
			c0.2,1.7-1.3,2.6-3.3,2.8c0,0.2,0,1,0.2,1.4c0.2,0.6,0.6,0.9,1.2,0.8c0.6,0,0.9-0.3,1.2-0.5L123.7,36.1z M122.5,30.1
			c-0.6,0.1-1.3,0.9-1.5,2.5c1.1-0.1,2.3-0.6,2.2-1.8C123.1,30.3,122.9,30.1,122.5,30.1z"/>
		<path d="M74.6,51.5c0.6-0.2,1.3-0.3,2-0.4c1.4-0.1,2.5,0.3,3.1,1.1c0.7,0.8,1.1,1.9,1.2,3.2c0.3,3.2-0.7,6.4-2,7.9
			c-1,1.1-2.3,1.6-3.6,1.7c-0.8,0.1-1.5,0.1-2,0L74.6,51.5z M74.8,63.7c0.2,0,0.5,0,0.8,0c1-0.1,1.9-0.7,2.7-1.9
			c0.9-1.3,1.4-3.9,1.2-6.4c-0.2-2.1-1-3.2-2.7-3.1c-0.4,0-0.6,0.1-0.8,0.1L74.8,63.7z"/>
		<path d="M83.7,60l-1.3,4.2L81,64.4l4.4-14l1.6-0.1l1.6,13.5l-1.4,0.1l-0.5-4.1L83.7,60z M86.7,58.6l-0.4-3.5
			C86.2,54.2,86.1,53,86,52L86,52c-0.3,1.1-0.5,2.3-0.8,3.2L84,58.9L86.7,58.6z"/>
		<path d="M93,49.7l-1.4,13.7l-1.4,0.1l1.4-13.7L93,49.7z"/>
		<path d="M95.5,49.5l1.4-0.1l-1.3,12.4l3.7-0.3l-0.1,1.3l-5.1,0.5L95.5,49.5z"/>
		<path d="M101,62.6l0.6-5.8l-2.1-7.7L101,49l1,3.9c0.2,1,0.4,1.9,0.5,2.4l0,0c0.3-0.8,0.6-1.6,1-2.5l1.8-4.2l1.6-0.1l-3.8,8.2
			l-0.6,5.8L101,62.6z"/>
		<path d="M111.2,48.3c0.6-0.2,1.4-0.3,2.1-0.4c0.8-0.1,2,0.1,2.6,0.7c0.6,0.5,0.9,1.3,0.9,2.1c0.1,1.5-0.4,2.9-1,3.7
			c-0.8,1-2,1.5-3.1,1.6c-0.3,0-0.6,0-0.9,0l-0.6,5.6l-1.4,0.1L111.2,48.3z M112,54.8c0.2,0,0.5,0,0.8,0c2.1-0.2,2.8-2.3,2.7-3.8
			c-0.1-1.2-0.7-2-2.1-1.9c-0.3,0-0.5,0.1-0.8,0.1L112,54.8z"/>
		<path d="M119.1,47.6c0.7-0.2,1.4-0.3,2.1-0.4c1.1-0.1,2,0.1,2.5,0.6c0.5,0.5,0.9,1.2,0.9,2c0.2,1.9-0.9,3.7-2.5,4.4l0,0
			c0.9,0.2,1.3,1.2,1.5,2.9c0.2,1.9,0.4,3,0.5,3.4l-1.5,0.1c-0.1-0.4-0.3-1.7-0.4-3.3c-0.2-1.9-0.7-2.6-2-2.5l-0.6,0.1l-0.6,6
			l-1.4,0.1L119.1,47.6z M119.8,53.8l0.7-0.1c1.6-0.1,2.7-1.7,2.6-3.7c-0.1-1-0.6-1.8-1.9-1.7c-0.3,0-0.6,0.1-0.8,0.2L119.8,53.8z"
			/>
		<path d="M133.5,50.4c0.2,2.5-0.4,6.7-2,8.6c-0.7,0.8-1.5,1.3-2.4,1.4c-2.6,0.2-3.1-2.6-3.3-4c-0.2-2.6,0.4-6.7,2.1-8.7
			c0.7-0.8,1.5-1.2,2.4-1.3C132.8,46.1,133.3,48.7,133.5,50.4z M129,48.3c-1.4,1.6-1.8,5.8-1.7,7.8c0.1,1.1,0.3,3,1.9,2.9
			c0.4,0,0.8-0.3,1.2-0.7c1.4-1.7,1.7-6.2,1.6-7.7c-0.1-1.6-0.4-3.1-1.8-3C129.7,47.7,129.3,47.9,129,48.3z"/>
		<path d="M135.9,46.1c0.6-0.2,1.4-0.3,2.1-0.4c0.8-0.1,2,0.1,2.6,0.7c0.6,0.5,0.9,1.3,0.9,2.1c0.1,1.5-0.4,2.9-1,3.7
			c-0.8,1-2,1.5-3.1,1.6c-0.3,0-0.6,0-0.9,0l-0.6,5.6l-1.4,0.1L135.9,46.1z M136.7,52.7c0.2,0,0.5,0,0.8,0c2.1-0.2,2.8-2.3,2.7-3.8
			c-0.1-1.2-0.7-2-2.1-1.9c-0.3,0-0.5,0.1-0.8,0.1L136.7,52.7z"/>
		<path d="M145.2,45.2l-0.6,5.9l3.8-0.3l0.6-5.9l1.4-0.1L149,58.4l-1.4,0.1l0.6-6.5l-3.7,0.3l-0.6,6.5l-1.4,0.1l1.4-13.7L145.2,45.2
			z"/>
		<path d="M156.9,51.3l-3.3,0.3l-0.5,5.2l3.8-0.3l-0.1,1.3l-5.2,0.5l1.4-13.7l5-0.4l-0.1,1.3l-3.5,0.3l-0.5,4.6L157,50L156.9,51.3z"
			/>
		<path d="M161.1,45.1l-2.4,0.2l0.1-1.4l6.3-0.6l-0.1,1.4l-2.4,0.2l-1.2,12.4l-1.4,0.1L161.1,45.1z"/>
	</g>
	<rect x="51.9" y="34.7" transform="matrix(0.9962 -8.707573e-02 8.707573e-02 0.9962 -2.8139 6.5982)" width="44.7" height="1.7"/>
	<rect x="55.4" y="74.5" transform="matrix(0.9962 -8.707573e-02 8.707573e-02 0.9962 -6.3136 7.0585)" width="44.7" height="2.9"/>
	<rect x="56.1" y="82.5" transform="matrix(0.9962 -8.707573e-02 8.707573e-02 0.9962 -7.0065 7.1496)" width="44.7" height="2.9"/>
	<rect x="56.8" y="90.4" transform="matrix(0.9962 -8.707573e-02 8.707573e-02 0.9962 -7.6994 7.2408)" width="44.7" height="2.9"/>
	<rect x="57.5" y="98.4" transform="matrix(0.9962 -8.707573e-02 8.707573e-02 0.9962 -8.3924 7.3319)" width="44.7" height="2.9"/>
	
		<rect x="34.8" y="42.7" transform="matrix(0.9962 -8.707573e-02 8.707573e-02 0.9962 -6.5505 3.3529)" class="st60" width="0.7" height="68.2"/>
	
		<rect x="39.4" y="42.3" transform="matrix(0.9962 -8.707573e-02 8.707573e-02 0.9962 -6.498 3.7522)" class="st60" width="0.7" height="68.2"/>
</g>
<g id="Layer_3">
</g>
</svg>
