<?xml version="1.0" encoding="utf-8"?>
<!-- Generator: Adobe Illustrator 20.0.0, SVG Export Plug-In . SVG Version: 6.00 Build 0)  -->
<svg version="1.1" xmlns="http://www.w3.org/2000/svg" xmlns:xlink="http://www.w3.org/1999/xlink" x="0px" y="0px"
	 viewBox="0 0 223 140.2" style="enable-background:new 0 0 223 140.2;" xml:space="preserve">
<style type="text/css">
	.st0{fill:#F1F2F2;}
	.st1{fill:#FFFFFF;stroke:#FFFFFF;stroke-miterlimit:10;}
	.st2{fill:#6D6E71;}
	.st3{fill:#FFFFFF;}
	.st4{fill:#FFFFFF;stroke:#231F20;stroke-miterlimit:10;}
	.st5{fill:#D1D3D4;}
	.st6{fill:none;stroke:#000000;stroke-miterlimit:10;}
	.st7{fill:#E6E7E8;}
	.st8{fill:none;stroke:#939598;stroke-miterlimit:10;}
	.st9{fill:#939598;}
	.st10{fill:#70758D;}
	.st11{opacity:0.6;}
	.st12{fill:#2E375D;}
	.st13{opacity:0.6;fill:#2E375D;}
	.st14{opacity:0.3;fill:none;stroke:#2E375D;stroke-miterlimit:10;}
	.st15{fill:#2CE5B5;}
	.st16{fill:#00C6AD;}
	.st17{fill:#25B0E5;}
	.st18{fill:#4275F4;}
	.st19{fill:none;}
	.st20{fill:none;stroke:#AFAFAF;stroke-miterlimit:10;}
	.st21{fill:none;stroke:#FFFFFF;stroke-miterlimit:10;}
	.st22{fill:#DCDCDC;}
	.st23{fill:none;stroke:#DCDCDC;stroke-miterlimit:10;}
	.st24{fill:#A7A9AC;}
	.st25{opacity:0.3;fill:none;stroke:#2E375D;stroke-width:3;stroke-miterlimit:10;}
	.st26{fill:none;stroke:#70758D;stroke-width:5;stroke-miterlimit:10;}
	.st27{opacity:0.3;fill:#2E375D;}
	.st28{fill:#808285;}
	.st29{fill:#58595B;}
	.st30{fill:#58595B;stroke:#414042;stroke-miterlimit:10;}
	.st31{fill:#414042;stroke:#414042;stroke-miterlimit:10;}
	.st32{fill:#58595B;stroke:#414042;stroke-width:2;stroke-miterlimit:10;}
	.st33{fill:#414042;}
	.st34{fill:#BC6D4F;}
	.st35{fill:#E23940;}
	.st36{fill:#5161AC;}
	.st37{fill:none;stroke:#58595B;stroke-miterlimit:10;}
	.st38{fill:#6CC06A;}
	.st39{fill:#F47320;}
	.st40{fill:#58595B;stroke:#000000;stroke-miterlimit:10;}
	.st41{fill:#FFE01B;}
	.st42{fill:#58595B;stroke:#231F20;stroke-miterlimit:10;}
	.st43{stroke:#231F20;stroke-miterlimit:10;}
	.st44{fill:none;stroke:#58595B;stroke-width:0.5;stroke-miterlimit:10;}
	.st45{fill:#7D351F;}
	.st46{fill:#58595B;stroke:#BCBEC0;stroke-miterlimit:10;}
	.st47{fill:none;stroke:#BCBEC0;stroke-width:0.5;stroke-miterlimit:10;}
	.st48{fill:none;stroke:#58595B;stroke-width:8;stroke-miterlimit:10;}
	.st49{fill:none;stroke:#58595B;stroke-width:2;stroke-miterlimit:10;}
	.st50{fill:#414042;stroke:#414042;stroke-width:2;stroke-miterlimit:10;}
	.st51{fill:#414042;stroke:#414042;stroke-width:0.25;stroke-miterlimit:10;}
	.st52{fill:#808285;stroke:#414042;stroke-width:0.25;stroke-miterlimit:10;}
	.st53{fill:none;stroke:#414042;stroke-width:0.25;stroke-miterlimit:10;}
	.st54{fill:none;stroke:#808285;stroke-width:0.15;stroke-miterlimit:10;}
	.st55{fill:#F2E651;}
	.st56{fill:#231F20;}
	.st57{fill:url(#SVGID_1_);}
	.st58{fill:url(#SVGID_2_);}
	.st59{fill:none;stroke:#BCBEC0;stroke-width:9;stroke-miterlimit:10;}
	.st60{fill:url(#SVGID_3_);}
	.st61{fill:url(#SVGID_4_);}
	.st62{fill:#8B5E3C;}
	.st63{fill:url(#SVGID_5_);}
	.st64{fill:url(#SVGID_6_);}
	.st65{fill:url(#SVGID_7_);}
	.st66{fill:url(#SVGID_8_);}
	.st67{fill:url(#SVGID_9_);}
	.st68{fill:url(#SVGID_10_);}
	.st69{fill:url(#SVGID_11_);}
	.st70{fill:url(#SVGID_12_);}
	.st71{fill:url(#SVGID_13_);}
	.st72{fill:url(#SVGID_14_);}
	.st73{fill:url(#SVGID_15_);}
	.st74{fill:url(#SVGID_16_);}
	.st75{fill:url(#SVGID_17_);}
	.st76{fill:url(#SVGID_18_);}
	.st77{fill:url(#SVGID_19_);}
	.st78{fill:url(#SVGID_20_);}
	.st79{fill:url(#SVGID_21_);}
	.st80{fill:url(#SVGID_22_);}
	.st81{fill:url(#SVGID_23_);}
	.st82{fill:url(#SVGID_24_);}
	.st83{fill:url(#SVGID_25_);}
	.st84{fill:url(#SVGID_26_);}
	.st85{fill:url(#SVGID_27_);}
	.st86{fill:url(#SVGID_28_);}
	.st87{fill:#BCBEC0;}
	.st88{opacity:0.6;fill:#FFFFFF;}
	.st89{opacity:0.3;}
	.st90{fill:none;stroke:#2E375D;stroke-width:4;stroke-linecap:round;stroke-miterlimit:10;}
	.st91{fill:url(#SVGID_29_);}
	.st92{fill:#E1E1E1;}
	.st93{fill:#00AEEF;}
	.st94{fill:none;stroke:#414042;stroke-width:7;stroke-miterlimit:10;}
	.st95{fill:none;stroke:#414042;stroke-width:5;stroke-miterlimit:10;}
	.st96{fill:none;stroke:#231F20;stroke-width:6;stroke-miterlimit:10;}
	.st97{fill:#A97C50;}
	.st98{fill:none;stroke:#FFFFFF;stroke-width:0.75;stroke-miterlimit:10;}
	.st99{fill:none;stroke:#58595B;stroke-width:7;stroke-miterlimit:10;}
	.st100{fill:#FFFFFF;stroke:#2CE5B5;stroke-width:2;stroke-miterlimit:10;}
	.st101{fill:#2D3340;}
	.st102{fill:url(#SVGID_30_);}
	.st103{fill:url(#SVGID_31_);}
	.st104{fill:url(#SVGID_32_);}
	.st105{fill:url(#SVGID_33_);}
	.st106{fill:url(#SVGID_34_);}
	.st107{fill:url(#SVGID_35_);}
	.st108{fill:url(#SVGID_36_);}
	.st109{fill:url(#SVGID_37_);}
	.st110{fill:none;stroke:#BCBEC0;stroke-width:15;stroke-miterlimit:10;}
	.st111{fill:#3E46D7;}
	.st112{fill:#F3F3F3;}
	.st113{fill:url(#SVGID_38_);}
	.st114{fill:url(#SVGID_39_);}
	.st115{fill:#EEBDEF;}
	.st116{fill:#E6CC81;}
	.st117{opacity:0.8;fill:#E8A0E8;}
	.st118{fill:#EE2A7B;}
	.st119{opacity:0.6;fill:#58595B;}
	.st120{fill:url(#SVGID_40_);}
	.st121{fill:url(#SVGID_41_);}
	.st122{fill:url(#SVGID_42_);}
	.st123{opacity:0.8;fill:url(#SVGID_43_);}
	.st124{opacity:0.8;fill:url(#SVGID_44_);}
	.st125{opacity:0.8;fill:url(#SVGID_45_);}
	.st126{fill:#F28CBB;}
	.st127{fill:#FAF6F3;}
	.st128{fill:url(#SVGID_46_);}
	.st129{fill:#2D271A;}
	.st130{fill:#514E3F;}
	.st131{fill:url(#SVGID_47_);}
	.st132{fill:url(#SVGID_48_);}
	.st133{fill:url(#SVGID_49_);}
	.st134{fill:url(#SVGID_50_);}
</style>
<g id="Layer_2">
</g>
<g id="Layer_1">
</g>
<g id="Layer_3">
	<g>
		<path class="st3" d="M158.7,19.4c6.3,1.2,10.2,8.6,10.2,14.4c0,5.8-3.8,13.2-10.2,14.5c-6.6,1.4-15.7-3.8-25.6-9.5
			c0,0-7.6-4.4-8.4-3.4c0,0-0.2,0.3-0.2,0.6c0,0.5,0-6.5,0-5c0,0,0,0.2,0.2,0.4c0.7,1,8.5-2.7,8.5-2.7
			C147.2,21.8,154.2,18.5,158.7,19.4z"/>
		<g>
			<path class="st126" d="M110.8,35.4c-0.1,0-0.2,0-0.3,0C110.4,35.4,110.5,35.4,110.8,35.4z"/>
			<path class="st126" d="M130.2,53.7c0,0-8.3-13.7-7.7-17.2c2-0.4,3.6-2.2,3.6-4.4c0-2.3-1.8-4.3-4.1-4.4v-6.2c0-2.4-2-4.5-4.5-4.5
				s-4.5,2-4.5,4.5v6.2c-2.3,0.2-4.1,2.1-4.1,4.4c0,2.1,1.5,3.9,3.4,4.3c0.5,3.4-9.5,17.1-9.5,17.1c-15.1,20.7-29,39.9-25.3,53.8
				c3.5,13.4,23.2,21.5,38.7,21.4c15.4-0.1,35.1-8.1,38.4-21.4C157,98,148,83.3,130.2,53.7z"/>
		</g>
		<path class="st22" d="M112.6,27.7h9.6c2.1,0,3.8,1.7,3.8,3.8v2.7c0,2.1-1.7,3.8-3.8,3.8h-9.6c-2.1,0-3.8-1.7-3.8-3.8v-2.7
			C108.9,29.4,110.6,27.7,112.6,27.7z"/>
		<path class="st22" d="M121.9,20.4V31c0,1.8-1.5,3.3-3.3,3.3h-2.3c-1.8,0-3.3-1.5-3.3-3.3V20.4c0-1.8,1.5-3.3,3.3-3.3h2.3
			C120.4,17.1,121.9,18.6,121.9,20.4z"/>
		<path class="st3" d="M136.8,88.9c-0.8,0.7-2.4,0.8-3.3,0.2c-0.6-0.3-0.8-0.9-1.3-1.8c-2.1-4.5-2.9-6-3.6-7.1
			c-0.3-0.5-0.2-0.3-1-1.6c-3.4-5.6-3.2-5.8-5.1-8.8c-1.9-3.1-3.9-5.7-3.5-7.4c0.3-1.1,1-1.6,1-1.6c0.6-0.4,1.2-0.5,1.3-0.5
			c1.8-0.1,3.5,1.2,4.9,2.7c2.7,2.8,4.4,5.7,6.5,9.4c3,5.4,3.5,6.9,3.8,7.8C137.3,82.5,138.8,87.3,136.8,88.9z"/>
		<path class="st3" d="M118.9,23.2h-0.7c-0.6,0-1-0.5-1-1v-1.7c0-0.6,0.5-1,1-1h0.7c0.6,0,1,0.5,1,1v1.7
			C119.9,22.8,119.4,23.2,118.9,23.2z"/>
	</g>
</g>
</svg>
