<?xml version="1.0" encoding="utf-8"?>
<!-- Generator: Adobe Illustrator 20.0.0, SVG Export Plug-In . SVG Version: 6.00 Build 0)  -->
<svg version="1.1" xmlns="http://www.w3.org/2000/svg" xmlns:xlink="http://www.w3.org/1999/xlink" x="0px" y="0px"
	 viewBox="0 0 1200 447.9" style="enable-background:new 0 0 1200 447.9;" xml:space="preserve">
<style type="text/css">
	.st0{fill:#F1F2F2;}
	.st1{fill:#FFFFFF;stroke:#FFFFFF;stroke-miterlimit:10;}
	.st2{fill:#6D6E71;}
	.st3{fill:#FFFFFF;}
	.st4{fill:#FFFFFF;stroke:#231F20;stroke-miterlimit:10;}
	.st5{fill:#D1D3D4;}
	.st6{fill:none;stroke:#000000;stroke-miterlimit:10;}
	.st7{fill:#E6E7E8;}
	.st8{fill:none;stroke:#939598;stroke-miterlimit:10;}
	.st9{fill:#939598;}
	.st10{fill:#70758D;}
	.st11{opacity:0.6;}
	.st12{fill:#2E375D;}
	.st13{opacity:0.6;fill:#2E375D;}
	.st14{opacity:0.3;fill:none;stroke:#2E375D;stroke-miterlimit:10;}
	.st15{fill:#2CE5B5;}
	.st16{fill:#00C6AD;}
	.st17{fill:#25B0E5;}
	.st18{fill:#4275F4;}
	.st19{fill:none;}
	.st20{fill:none;stroke:#AFAFAF;stroke-miterlimit:10;}
	.st21{fill:none;stroke:#FFFFFF;stroke-miterlimit:10;}
	.st22{fill:#DCDCDC;}
	.st23{fill:none;stroke:#DCDCDC;stroke-miterlimit:10;}
	.st24{fill:#A7A9AC;}
	.st25{opacity:0.6;fill:#FFFFFF;}
	.st26{opacity:0.8;}
	.st27{opacity:0.3;fill:none;stroke:#2E375D;stroke-width:3;stroke-miterlimit:10;}
	.st28{fill:none;stroke:#70758D;stroke-width:5;stroke-miterlimit:10;}
	.st29{opacity:0.3;fill:#2E375D;}
	.st30{opacity:0.3;}
	.st31{fill:none;stroke:#2E375D;stroke-width:4;stroke-linecap:round;stroke-miterlimit:10;}
	.st32{display:none;}
	.st33{display:inline;fill:#00AEEF;}
	.st34{display:inline;fill:#2E375D;}
</style>
<g id="Layer_2">
	<rect class="st0" width="1200" height="447.9"/>
</g>
<g id="Layer_1">
	<rect x="50" y="43.9" class="st3" width="1100" height="404.1"/>
	<g class="st11">
		<path class="st12" d="M605.7,200.1l0.3,0.9h0l0.3-0.9l2.9-8.5h1.7l-4.2,11.4h-1.3l-4.2-11.4h1.7L605.7,200.1z"/>
		<path class="st12" d="M613.8,192.3h-1.5v-1.6h1.5V192.3z M613.8,203h-1.5v-8.5h1.5V203z"/>
		<path class="st12" d="M619,200.5l0.1,0.6h0l0.1-0.6l1.9-6h1.6l-3.1,8.5h-1.2l-3.1-8.5h1.6L619,200.5z"/>
		<path class="st12" d="M629.3,203c-0.1-0.3-0.1-0.5-0.1-0.7s0-0.4-0.1-0.6c-0.3,0.4-0.7,0.7-1.1,1s-1,0.4-1.5,0.4
			c-0.9,0-1.6-0.2-2-0.7c-0.5-0.5-0.7-1.1-0.7-1.9c0-0.8,0.3-1.4,1-1.9c0.7-0.5,1.5-0.7,2.7-0.7h1.7v-0.8c0-0.5-0.2-0.9-0.5-1.2
			s-0.7-0.4-1.3-0.4c-0.5,0-0.9,0.1-1.2,0.4c-0.3,0.3-0.5,0.6-0.5,0.9h-1.5l0,0c0-0.6,0.3-1.2,0.9-1.7c0.6-0.5,1.4-0.8,2.4-0.8
			c1,0,1.7,0.2,2.3,0.7c0.6,0.5,0.9,1.2,0.9,2.1v4.1c0,0.3,0,0.6,0,0.9s0.1,0.6,0.2,0.8H629.3z M626.8,201.8c0.6,0,1.1-0.1,1.5-0.4
			c0.4-0.3,0.7-0.6,0.9-1v-1.4h-1.7c-0.6,0-1.1,0.2-1.5,0.5s-0.6,0.7-0.6,1.1c0,0.4,0.1,0.7,0.4,0.9
			C625.9,201.7,626.3,201.8,626.8,201.8z"/>
		<path class="st12" d="M634.3,194.5l0.1,1.1c0.3-0.4,0.6-0.7,1.1-0.9c0.4-0.2,0.9-0.3,1.5-0.3s1,0.1,1.4,0.4
			c0.4,0.3,0.7,0.7,0.9,1.2c0.3-0.5,0.6-0.9,1.1-1.1s0.9-0.4,1.5-0.4c0.9,0,1.5,0.3,2,0.9c0.5,0.6,0.8,1.5,0.8,2.7v5.1h-1.5v-5.1
			c0-0.8-0.1-1.4-0.4-1.8c-0.3-0.3-0.7-0.5-1.3-0.5c-0.5,0-1,0.2-1.3,0.5c-0.3,0.4-0.5,0.8-0.6,1.4v0.1v5.4H638v-5.1
			c0-0.8-0.1-1.4-0.4-1.7s-0.7-0.6-1.3-0.6c-0.5,0-0.9,0.1-1.2,0.3c-0.3,0.2-0.5,0.5-0.7,0.8v6.3h-1.5v-8.5H634.3z"/>
		<path class="st12" d="M652.3,201.7c-0.3,0.5-0.6,0.8-1,1c-0.4,0.2-0.9,0.4-1.4,0.4c-0.9,0-1.6-0.3-2.2-0.9
			c-0.5-0.6-0.8-1.5-0.8-2.8v-5h1.5v5c0,0.9,0.1,1.5,0.4,1.9c0.3,0.3,0.7,0.5,1.2,0.5c0.5,0,1-0.1,1.4-0.3c0.4-0.2,0.6-0.5,0.8-0.9
			v-6.1h1.5v8.5h-1.4L652.3,201.7z"/>
		<path class="st12" d="M660.9,200.7c0-0.3-0.1-0.6-0.4-0.8s-0.7-0.4-1.5-0.6c-1-0.2-1.8-0.5-2.3-0.9c-0.5-0.4-0.8-0.9-0.8-1.6
			c0-0.7,0.3-1.3,0.9-1.8s1.3-0.7,2.3-0.7c1,0,1.8,0.3,2.3,0.8c0.6,0.5,0.9,1.1,0.8,1.8l0,0h-1.5c0-0.4-0.2-0.7-0.5-1
			c-0.3-0.3-0.7-0.4-1.2-0.4c-0.5,0-1,0.1-1.2,0.4c-0.3,0.2-0.4,0.5-0.4,0.9c0,0.3,0.1,0.6,0.4,0.8c0.2,0.2,0.7,0.4,1.4,0.5
			c1.1,0.2,1.9,0.5,2.4,0.9c0.5,0.4,0.8,0.9,0.8,1.6c0,0.8-0.3,1.4-0.9,1.8c-0.6,0.5-1.4,0.7-2.4,0.7c-1.1,0-1.9-0.3-2.5-0.8
			s-0.9-1.2-0.9-1.9l0,0h1.5c0,0.5,0.2,0.9,0.6,1.2c0.4,0.3,0.8,0.4,1.3,0.4c0.5,0,1-0.1,1.3-0.3
			C660.7,201.4,660.9,201.1,660.9,200.7z"/>
		<path class="st12" d="M671.8,201.9c0.5,0,1-0.2,1.3-0.5c0.4-0.3,0.6-0.7,0.6-1.2h1.4l0,0c0,0.7-0.3,1.4-1,1.9
			c-0.7,0.6-1.5,0.9-2.4,0.9c-1.2,0-2.2-0.4-2.8-1.2c-0.7-0.8-1-1.8-1-3v-0.3c0-1.2,0.3-2.2,1-3s1.6-1.2,2.8-1.2
			c1,0,1.8,0.3,2.4,0.9c0.6,0.6,0.9,1.3,0.9,2.1l0,0h-1.4c0-0.5-0.2-1-0.5-1.3c-0.4-0.4-0.8-0.5-1.4-0.5c-0.8,0-1.4,0.3-1.7,0.9
			s-0.5,1.3-0.5,2.1v0.3c0,0.9,0.2,1.6,0.5,2.2C670.4,201.6,671,201.9,671.8,201.9z"/>
		<path class="st12" d="M676.5,198.7c0-1.3,0.3-2.3,1-3.1c0.7-0.8,1.6-1.2,2.8-1.2c1.2,0,2.1,0.4,2.8,1.2c0.7,0.8,1,1.8,1,3.1v0.2
			c0,1.3-0.3,2.3-1,3.1c-0.7,0.8-1.6,1.2-2.8,1.2s-2.1-0.4-2.8-1.2s-1-1.8-1-3.1V198.7z M678,198.8c0,0.9,0.2,1.6,0.6,2.2
			c0.4,0.6,0.9,0.9,1.7,0.9c0.7,0,1.3-0.3,1.7-0.9c0.4-0.6,0.6-1.3,0.6-2.2v-0.2c0-0.9-0.2-1.6-0.6-2.2s-0.9-0.9-1.7-0.9
			c-0.7,0-1.3,0.3-1.7,0.9s-0.6,1.3-0.6,2.2V198.8z"/>
		<path class="st12" d="M687.3,194.5l0.1,1.3c0.3-0.4,0.6-0.8,1.1-1c0.4-0.2,0.9-0.4,1.4-0.4c0.9,0,1.6,0.3,2.1,0.8
			c0.5,0.5,0.8,1.4,0.8,2.5v5.3h-1.5v-5.3c0-0.7-0.1-1.3-0.4-1.6s-0.7-0.5-1.3-0.5c-0.4,0-0.8,0.1-1.2,0.3c-0.3,0.2-0.6,0.5-0.8,0.9
			v6.2h-1.5v-8.5H687.3z"/>
		<path class="st12" d="M694.7,198.9c0-1.4,0.3-2.5,0.9-3.3c0.6-0.8,1.4-1.3,2.5-1.3c0.5,0,1,0.1,1.4,0.3c0.4,0.2,0.7,0.5,1,0.9
			l0.2-1.1h1.2v8.5c0,1.1-0.3,1.9-0.9,2.5c-0.6,0.6-1.5,0.9-2.7,0.9c-0.4,0-0.8-0.1-1.3-0.2s-0.9-0.3-1.2-0.5l0.4-1.2
			c0.3,0.2,0.6,0.3,1,0.4s0.8,0.1,1.2,0.1c0.8,0,1.3-0.2,1.6-0.5s0.5-0.9,0.5-1.6v-1c-0.3,0.4-0.6,0.6-1,0.8s-0.8,0.3-1.3,0.3
			c-1,0-1.9-0.4-2.4-1.1s-0.9-1.7-0.9-2.9V198.9z M696.2,199.1c0,0.8,0.2,1.5,0.5,2s0.9,0.8,1.6,0.8c0.5,0,0.9-0.1,1.2-0.3
			s0.6-0.5,0.8-0.9v-3.9c-0.2-0.4-0.5-0.6-0.8-0.9s-0.7-0.3-1.1-0.3c-0.7,0-1.3,0.3-1.6,0.9c-0.4,0.6-0.5,1.4-0.5,2.4V199.1z"/>
		<path class="st12" d="M709.5,201.7c-0.3,0.5-0.6,0.8-1,1c-0.4,0.2-0.9,0.4-1.4,0.4c-0.9,0-1.6-0.3-2.2-0.9
			c-0.5-0.6-0.8-1.5-0.8-2.8v-5h1.5v5c0,0.9,0.1,1.5,0.4,1.9c0.3,0.3,0.7,0.5,1.2,0.5c0.5,0,1-0.1,1.4-0.3c0.4-0.2,0.6-0.5,0.8-0.9
			v-6.1h1.5v8.5h-1.4L709.5,201.7z"/>
		<path class="st12" d="M716.7,203.1c-1.2,0-2.1-0.4-2.8-1.2c-0.7-0.8-1-1.8-1-3.1v-0.3c0-1.2,0.4-2.2,1.1-3
			c0.7-0.8,1.6-1.2,2.5-1.2c1.1,0,2,0.3,2.6,1s0.9,1.6,0.9,2.8v1h-5.5l0,0c0,0.8,0.2,1.5,0.6,2c0.4,0.5,1,0.8,1.7,0.8
			c0.5,0,1-0.1,1.4-0.2s0.7-0.4,1-0.6l0.6,1c-0.3,0.3-0.7,0.5-1.2,0.7S717.4,203.1,716.7,203.1z M716.5,195.6c-0.5,0-1,0.2-1.3,0.7
			s-0.6,1-0.7,1.6l0,0h3.9v-0.2c0-0.6-0.2-1.1-0.5-1.5C717.6,195.8,717.1,195.6,716.5,195.6z"/>
		<path class="st12" d="M730.5,200.7c0-0.3-0.1-0.6-0.4-0.8s-0.7-0.4-1.5-0.6c-1-0.2-1.8-0.5-2.3-0.9c-0.5-0.4-0.8-0.9-0.8-1.6
			c0-0.7,0.3-1.3,0.9-1.8s1.3-0.7,2.3-0.7c1,0,1.8,0.3,2.3,0.8c0.6,0.5,0.9,1.1,0.8,1.8l0,0h-1.5c0-0.4-0.2-0.7-0.5-1
			c-0.3-0.3-0.7-0.4-1.2-0.4c-0.5,0-1,0.1-1.2,0.4c-0.3,0.2-0.4,0.5-0.4,0.9c0,0.3,0.1,0.6,0.4,0.8c0.2,0.2,0.7,0.4,1.4,0.5
			c1.1,0.2,1.9,0.5,2.4,0.9c0.5,0.4,0.8,0.9,0.8,1.6c0,0.8-0.3,1.4-0.9,1.8c-0.6,0.5-1.4,0.7-2.4,0.7c-1.1,0-1.9-0.3-2.5-0.8
			s-0.9-1.2-0.9-1.9l0,0h1.5c0,0.5,0.2,0.9,0.6,1.2c0.4,0.3,0.8,0.4,1.3,0.4c0.5,0,1-0.1,1.3-0.3
			C730.4,201.4,730.5,201.1,730.5,200.7z"/>
		<path class="st12" d="M739.4,201.7c-0.3,0.5-0.6,0.8-1,1c-0.4,0.2-0.9,0.4-1.4,0.4c-0.9,0-1.6-0.3-2.2-0.9
			c-0.5-0.6-0.8-1.5-0.8-2.8v-5h1.5v5c0,0.9,0.1,1.5,0.4,1.9c0.3,0.3,0.7,0.5,1.2,0.5c0.5,0,1-0.1,1.4-0.3c0.4-0.2,0.6-0.5,0.8-0.9
			v-6.1h1.5v8.5h-1.4L739.4,201.7z"/>
		<path class="st12" d="M748,200.7c0-0.3-0.1-0.6-0.4-0.8s-0.7-0.4-1.5-0.6c-1-0.2-1.8-0.5-2.3-0.9c-0.5-0.4-0.8-0.9-0.8-1.6
			c0-0.7,0.3-1.3,0.9-1.8s1.3-0.7,2.3-0.7c1,0,1.8,0.3,2.3,0.8c0.6,0.5,0.9,1.1,0.8,1.8l0,0h-1.5c0-0.4-0.2-0.7-0.5-1
			c-0.3-0.3-0.7-0.4-1.2-0.4c-0.5,0-1,0.1-1.2,0.4c-0.3,0.2-0.4,0.5-0.4,0.9c0,0.3,0.1,0.6,0.4,0.8c0.2,0.2,0.7,0.4,1.4,0.5
			c1.1,0.2,1.9,0.5,2.4,0.9c0.5,0.4,0.8,0.9,0.8,1.6c0,0.8-0.3,1.4-0.9,1.8c-0.6,0.5-1.4,0.7-2.4,0.7c-1.1,0-1.9-0.3-2.5-0.8
			s-0.9-1.2-0.9-1.9l0,0h1.5c0,0.5,0.2,0.9,0.6,1.2c0.4,0.3,0.8,0.4,1.3,0.4c0.5,0,1-0.1,1.3-0.3C747.9,201.4,748,201.1,748,200.7z"
			/>
		<path class="st12" d="M754.9,201.9c0.5,0,1-0.2,1.3-0.5c0.4-0.3,0.6-0.7,0.6-1.2h1.4l0,0c0,0.7-0.3,1.4-1,1.9
			c-0.7,0.6-1.5,0.9-2.4,0.9c-1.2,0-2.2-0.4-2.8-1.2c-0.7-0.8-1-1.8-1-3v-0.3c0-1.2,0.3-2.2,1-3s1.6-1.2,2.8-1.2
			c1,0,1.8,0.3,2.4,0.9c0.6,0.6,0.9,1.3,0.9,2.1l0,0h-1.4c0-0.5-0.2-1-0.5-1.3c-0.4-0.4-0.8-0.5-1.4-0.5c-0.8,0-1.4,0.3-1.7,0.9
			s-0.5,1.3-0.5,2.1v0.3c0,0.9,0.2,1.6,0.5,2.2C753.5,201.6,754.1,201.9,754.9,201.9z"/>
		<path class="st12" d="M761.6,192.3h-1.5v-1.6h1.5V192.3z M761.6,203h-1.5v-8.5h1.5V203z"/>
		<path class="st12" d="M771.2,199.1c0,1.2-0.3,2.2-0.9,2.9c-0.6,0.7-1.4,1.1-2.4,1.1c-0.5,0-1-0.1-1.4-0.3c-0.4-0.2-0.7-0.4-1-0.8
			v4.1H764v-11.7h1.2l0.2,1.1c0.3-0.4,0.6-0.7,1-0.9c0.4-0.2,0.9-0.3,1.4-0.3c1,0,1.9,0.4,2.4,1.2c0.6,0.8,0.9,1.9,0.9,3.3V199.1z
			 M769.7,198.9c0-1-0.2-1.7-0.6-2.4s-0.9-0.9-1.7-0.9c-0.4,0-0.8,0.1-1.1,0.3s-0.6,0.5-0.8,0.8v4.1c0.2,0.3,0.4,0.6,0.8,0.8
			c0.3,0.2,0.7,0.3,1.1,0.3c0.7,0,1.3-0.3,1.7-0.8s0.6-1.2,0.6-2.1V198.9z"/>
		<path class="st12" d="M774.7,192.3h-1.5v-1.6h1.5V192.3z M774.7,203h-1.5v-8.5h1.5V203z"/>
		<path class="st12" d="M779.1,192.5v2h1.6v1.1h-1.6v5.1c0,0.4,0.1,0.7,0.2,0.8c0.2,0.2,0.4,0.2,0.7,0.2c0.1,0,0.2,0,0.3,0
			c0.1,0,0.2,0,0.3-0.1l0.2,1.1c-0.1,0.1-0.3,0.2-0.5,0.2s-0.4,0.1-0.7,0.1c-0.6,0-1.1-0.2-1.5-0.6c-0.4-0.4-0.6-1-0.6-1.8v-5.1
			h-1.3v-1.1h1.3v-2H779.1z"/>
		<path class="st12" d="M788.4,194.5v9.1c0,0.9-0.2,1.5-0.7,2s-1.1,0.7-1.9,0.7c-0.2,0-0.3,0-0.4,0s-0.3-0.1-0.4-0.1l0.1-1.2
			c0.1,0,0.2,0,0.3,0.1s0.2,0,0.3,0c0.3,0,0.6-0.1,0.8-0.3s0.3-0.6,0.3-1.1v-9.1H788.4z M788.3,192.3h-1.5v-1.5h1.5V192.3z"/>
		<path class="st12" d="M796.1,201.7c-0.3,0.5-0.6,0.8-1,1c-0.4,0.2-0.9,0.4-1.4,0.4c-0.9,0-1.6-0.3-2.2-0.9
			c-0.5-0.6-0.8-1.5-0.8-2.8v-5h1.5v5c0,0.9,0.1,1.5,0.4,1.9c0.3,0.3,0.7,0.5,1.2,0.5c0.5,0,1-0.1,1.4-0.3c0.4-0.2,0.6-0.5,0.8-0.9
			v-6.1h1.5v8.5h-1.4L796.1,201.7z"/>
		<path class="st12" d="M804.8,200.7c0-0.3-0.1-0.6-0.4-0.8s-0.7-0.4-1.5-0.6c-1-0.2-1.8-0.5-2.3-0.9c-0.5-0.4-0.8-0.9-0.8-1.6
			c0-0.7,0.3-1.3,0.9-1.8s1.3-0.7,2.3-0.7c1,0,1.8,0.3,2.3,0.8c0.6,0.5,0.9,1.1,0.8,1.8l0,0h-1.5c0-0.4-0.2-0.7-0.5-1
			c-0.3-0.3-0.7-0.4-1.2-0.4c-0.5,0-1,0.1-1.2,0.4c-0.3,0.2-0.4,0.5-0.4,0.9c0,0.3,0.1,0.6,0.4,0.8c0.2,0.2,0.7,0.4,1.4,0.5
			c1.1,0.2,1.9,0.5,2.4,0.9c0.5,0.4,0.8,0.9,0.8,1.6c0,0.8-0.3,1.4-0.9,1.8c-0.6,0.5-1.4,0.7-2.4,0.7c-1.1,0-1.9-0.3-2.5-0.8
			s-0.9-1.2-0.9-1.9l0,0h1.5c0,0.5,0.2,0.9,0.6,1.2c0.4,0.3,0.8,0.4,1.3,0.4c0.5,0,1-0.1,1.3-0.3
			C804.6,201.4,804.8,201.1,804.8,200.7z"/>
		<path class="st12" d="M810.3,192.5v2h1.6v1.1h-1.6v5.1c0,0.4,0.1,0.7,0.2,0.8c0.2,0.2,0.4,0.2,0.7,0.2c0.1,0,0.2,0,0.3,0
			c0.1,0,0.2,0,0.3-0.1l0.2,1.1c-0.1,0.1-0.3,0.2-0.5,0.2s-0.4,0.1-0.7,0.1c-0.6,0-1.1-0.2-1.5-0.6c-0.4-0.4-0.6-1-0.6-1.8v-5.1
			h-1.3v-1.1h1.3v-2H810.3z"/>
		<path class="st12" d="M813.4,198.7c0-1.3,0.3-2.3,1-3.1c0.7-0.8,1.6-1.2,2.8-1.2c1.2,0,2.1,0.4,2.8,1.2c0.7,0.8,1,1.8,1,3.1v0.2
			c0,1.3-0.3,2.3-1,3.1c-0.7,0.8-1.6,1.2-2.8,1.2s-2.1-0.4-2.8-1.2s-1-1.8-1-3.1V198.7z M814.9,198.8c0,0.9,0.2,1.6,0.6,2.2
			c0.4,0.6,0.9,0.9,1.7,0.9c0.7,0,1.3-0.3,1.7-0.9c0.4-0.6,0.6-1.3,0.6-2.2v-0.2c0-0.9-0.2-1.6-0.6-2.2s-0.9-0.9-1.7-0.9
			c-0.7,0-1.3,0.3-1.7,0.9s-0.6,1.3-0.6,2.2V198.8z"/>
		<path class="st12" d="M824.2,202.6L823,205h-0.9l0.5-2.5v-1.3h1.5V202.6z"/>
		<path class="st12" d="M835.3,201.7c-0.3,0.5-0.6,0.8-1,1c-0.4,0.2-0.9,0.4-1.4,0.4c-0.9,0-1.6-0.3-2.2-0.9
			c-0.5-0.6-0.8-1.5-0.8-2.8v-5h1.5v5c0,0.9,0.1,1.5,0.4,1.9c0.3,0.3,0.7,0.5,1.2,0.5c0.5,0,1-0.1,1.4-0.3c0.4-0.2,0.6-0.5,0.8-0.9
			v-6.1h1.5v8.5h-1.4L835.3,201.7z"/>
		<path class="st12" d="M841.1,192.5v2h1.6v1.1h-1.6v5.1c0,0.4,0.1,0.7,0.2,0.8c0.2,0.2,0.4,0.2,0.7,0.2c0.1,0,0.2,0,0.3,0
			c0.1,0,0.2,0,0.3-0.1l0.2,1.1c-0.1,0.1-0.3,0.2-0.5,0.2s-0.4,0.1-0.7,0.1c-0.6,0-1.1-0.2-1.5-0.6c-0.4-0.4-0.6-1-0.6-1.8v-5.1
			h-1.3v-1.1h1.3v-2H841.1z"/>
		<path class="st12" d="M851.4,200.5l0.1,0.6h0l0.1-0.6l1.9-6h1.6l-3.1,8.5H851l-3.1-8.5h1.6L851.4,200.5z"/>
		<path class="st12" d="M862,201.7c-0.3,0.5-0.6,0.8-1,1c-0.4,0.2-0.9,0.4-1.4,0.4c-0.9,0-1.6-0.3-2.2-0.9c-0.5-0.6-0.8-1.5-0.8-2.8
			v-5h1.5v5c0,0.9,0.1,1.5,0.4,1.9c0.3,0.3,0.7,0.5,1.2,0.5c0.5,0,1-0.1,1.4-0.3c0.4-0.2,0.6-0.5,0.8-0.9v-6.1h1.5v8.5h-1.4
			L862,201.7z"/>
		<path class="st12" d="M867.4,203h-1.5v-12.2h1.5V203z"/>
		<path class="st12" d="M877,199.1c0,1.2-0.3,2.2-0.9,2.9c-0.6,0.7-1.4,1.1-2.4,1.1c-0.5,0-1-0.1-1.4-0.3c-0.4-0.2-0.7-0.4-1-0.8
			v4.1h-1.5v-11.7h1.2l0.2,1.1c0.3-0.4,0.6-0.7,1-0.9c0.4-0.2,0.9-0.3,1.4-0.3c1,0,1.9,0.4,2.4,1.2c0.6,0.8,0.9,1.9,0.9,3.3V199.1z
			 M875.4,198.9c0-1-0.2-1.7-0.6-2.4s-0.9-0.9-1.7-0.9c-0.4,0-0.8,0.1-1.1,0.3s-0.6,0.5-0.8,0.8v4.1c0.2,0.3,0.4,0.6,0.8,0.8
			c0.3,0.2,0.7,0.3,1.1,0.3c0.7,0,1.3-0.3,1.7-0.8s0.6-1.2,0.6-2.1V198.9z"/>
		<path class="st12" d="M884.2,201.7c-0.3,0.5-0.6,0.8-1,1c-0.4,0.2-0.9,0.4-1.4,0.4c-0.9,0-1.6-0.3-2.2-0.9
			c-0.5-0.6-0.8-1.5-0.8-2.8v-5h1.5v5c0,0.9,0.1,1.5,0.4,1.9c0.3,0.3,0.7,0.5,1.2,0.5c0.5,0,1-0.1,1.4-0.3c0.4-0.2,0.6-0.5,0.8-0.9
			v-6.1h1.5v8.5h-1.4L884.2,201.7z"/>
		<path class="st12" d="M890,192.5v2h1.6v1.1H890v5.1c0,0.4,0.1,0.7,0.2,0.8c0.2,0.2,0.4,0.2,0.7,0.2c0.1,0,0.2,0,0.3,0
			c0.1,0,0.2,0,0.3-0.1l0.2,1.1c-0.1,0.1-0.3,0.2-0.5,0.2s-0.4,0.1-0.7,0.1c-0.6,0-1.1-0.2-1.5-0.6c-0.4-0.4-0.6-1-0.6-1.8v-5.1
			h-1.3v-1.1h1.3v-2H890z"/>
		<path class="st12" d="M898.7,203c-0.1-0.3-0.1-0.5-0.1-0.7s0-0.4-0.1-0.6c-0.3,0.4-0.7,0.7-1.1,1s-1,0.4-1.5,0.4
			c-0.9,0-1.6-0.2-2-0.7c-0.5-0.5-0.7-1.1-0.7-1.9c0-0.8,0.3-1.4,1-1.9c0.7-0.5,1.5-0.7,2.7-0.7h1.7v-0.8c0-0.5-0.2-0.9-0.5-1.2
			s-0.7-0.4-1.3-0.4c-0.5,0-0.9,0.1-1.2,0.4c-0.3,0.3-0.5,0.6-0.5,0.9h-1.5l0,0c0-0.6,0.3-1.2,0.9-1.7c0.6-0.5,1.4-0.8,2.4-0.8
			c1,0,1.7,0.2,2.3,0.7c0.6,0.5,0.9,1.2,0.9,2.1v4.1c0,0.3,0,0.6,0,0.9s0.1,0.6,0.2,0.8H898.7z M896.1,201.8c0.6,0,1.1-0.1,1.5-0.4
			c0.4-0.3,0.7-0.6,0.9-1v-1.4h-1.7c-0.6,0-1.1,0.2-1.5,0.5s-0.6,0.7-0.6,1.1c0,0.4,0.1,0.7,0.4,0.9
			C895.3,201.7,895.7,201.8,896.1,201.8z"/>
		<path class="st12" d="M904.3,192.5v2h1.6v1.1h-1.6v5.1c0,0.4,0.1,0.7,0.2,0.8c0.2,0.2,0.4,0.2,0.7,0.2c0.1,0,0.2,0,0.3,0
			c0.1,0,0.2,0,0.3-0.1l0.2,1.1c-0.1,0.1-0.3,0.2-0.5,0.2s-0.4,0.1-0.7,0.1c-0.6,0-1.1-0.2-1.5-0.6c-0.4-0.4-0.6-1-0.6-1.8v-5.1
			h-1.3v-1.1h1.3v-2H904.3z"/>
		<path class="st12" d="M911.3,203.1c-1.2,0-2.1-0.4-2.8-1.2c-0.7-0.8-1-1.8-1-3.1v-0.3c0-1.2,0.4-2.2,1.1-3
			c0.7-0.8,1.6-1.2,2.5-1.2c1.1,0,2,0.3,2.6,1s0.9,1.6,0.9,2.8v1H909l0,0c0,0.8,0.2,1.5,0.6,2c0.4,0.5,1,0.8,1.7,0.8
			c0.5,0,1-0.1,1.4-0.2s0.7-0.4,1-0.6l0.6,1c-0.3,0.3-0.7,0.5-1.2,0.7S912,203.1,911.3,203.1z M911.1,195.6c-0.5,0-1,0.2-1.3,0.7
			s-0.6,1-0.7,1.6l0,0h3.9v-0.2c0-0.6-0.2-1.1-0.5-1.5C912.2,195.8,911.7,195.6,911.1,195.6z"/>
		<path class="st12" d="M921.6,194.5l0.1,1.3c0.3-0.4,0.6-0.8,1.1-1c0.4-0.2,0.9-0.4,1.4-0.4c0.9,0,1.6,0.3,2.1,0.8
			c0.5,0.5,0.8,1.4,0.8,2.5v5.3h-1.5v-5.3c0-0.7-0.1-1.3-0.4-1.6s-0.7-0.5-1.3-0.5c-0.4,0-0.8,0.1-1.2,0.3c-0.3,0.2-0.6,0.5-0.8,0.9
			v6.2h-1.5v-8.5H921.6z"/>
		<path class="st12" d="M934.7,201.7c-0.3,0.5-0.6,0.8-1,1c-0.4,0.2-0.9,0.4-1.4,0.4c-0.9,0-1.6-0.3-2.2-0.9
			c-0.5-0.6-0.8-1.5-0.8-2.8v-5h1.5v5c0,0.9,0.1,1.5,0.4,1.9c0.3,0.3,0.7,0.5,1.2,0.5c0.5,0,1-0.1,1.4-0.3c0.4-0.2,0.6-0.5,0.8-0.9
			v-6.1h1.5v8.5h-1.4L934.7,201.7z"/>
		<path class="st12" d="M939.8,194.5l0.1,1.3c0.3-0.4,0.6-0.8,1.1-1c0.4-0.2,0.9-0.4,1.4-0.4c0.9,0,1.6,0.3,2.1,0.8
			c0.5,0.5,0.8,1.4,0.8,2.5v5.3h-1.5v-5.3c0-0.7-0.1-1.3-0.4-1.6s-0.7-0.5-1.3-0.5c-0.4,0-0.8,0.1-1.2,0.3c-0.3,0.2-0.6,0.5-0.8,0.9
			v6.2h-1.5v-8.5H939.8z"/>
		<path class="st12" d="M951,201.9c0.5,0,1-0.2,1.3-0.5c0.4-0.3,0.6-0.7,0.6-1.2h1.4l0,0c0,0.7-0.3,1.4-1,1.9
			c-0.7,0.6-1.5,0.9-2.4,0.9c-1.2,0-2.2-0.4-2.8-1.2c-0.7-0.8-1-1.8-1-3v-0.3c0-1.2,0.3-2.2,1-3s1.6-1.2,2.8-1.2
			c1,0,1.8,0.3,2.4,0.9c0.6,0.6,0.9,1.3,0.9,2.1l0,0h-1.4c0-0.5-0.2-1-0.5-1.3c-0.4-0.4-0.8-0.5-1.4-0.5c-0.8,0-1.4,0.3-1.7,0.9
			s-0.5,1.3-0.5,2.1v0.3c0,0.9,0.2,1.6,0.5,2.2C949.6,201.6,950.1,201.9,951,201.9z"/>
		<path class="st12" d="M963.4,201.9c0.5,0,1-0.2,1.3-0.5c0.4-0.3,0.6-0.7,0.6-1.2h1.4l0,0c0,0.7-0.3,1.4-1,1.9
			c-0.7,0.6-1.5,0.9-2.4,0.9c-1.2,0-2.2-0.4-2.8-1.2c-0.7-0.8-1-1.8-1-3v-0.3c0-1.2,0.3-2.2,1-3s1.6-1.2,2.8-1.2
			c1,0,1.8,0.3,2.4,0.9c0.6,0.6,0.9,1.3,0.9,2.1l0,0h-1.4c0-0.5-0.2-1-0.5-1.3c-0.4-0.4-0.8-0.5-1.4-0.5c-0.8,0-1.4,0.3-1.7,0.9
			s-0.5,1.3-0.5,2.1v0.3c0,0.9,0.2,1.6,0.5,2.2C962,201.6,962.6,201.9,963.4,201.9z"/>
		<path class="st12" d="M968.1,198.7c0-1.3,0.3-2.3,1-3.1c0.7-0.8,1.6-1.2,2.8-1.2c1.2,0,2.1,0.4,2.8,1.2c0.7,0.8,1,1.8,1,3.1v0.2
			c0,1.3-0.3,2.3-1,3.1c-0.7,0.8-1.6,1.2-2.8,1.2s-2.1-0.4-2.8-1.2s-1-1.8-1-3.1V198.7z M969.7,198.8c0,0.9,0.2,1.6,0.6,2.2
			c0.4,0.6,0.9,0.9,1.7,0.9c0.7,0,1.3-0.3,1.7-0.9c0.4-0.6,0.6-1.3,0.6-2.2v-0.2c0-0.9-0.2-1.6-0.6-2.2s-0.9-0.9-1.7-0.9
			c-0.7,0-1.3,0.3-1.7,0.9s-0.6,1.3-0.6,2.2V198.8z"/>
		<path class="st12" d="M978.9,194.5l0.1,1.3c0.3-0.4,0.6-0.8,1.1-1c0.4-0.2,0.9-0.4,1.4-0.4c0.9,0,1.6,0.3,2.1,0.8
			c0.5,0.5,0.8,1.4,0.8,2.5v5.3h-1.5v-5.3c0-0.7-0.1-1.3-0.4-1.6s-0.7-0.5-1.3-0.5c-0.4,0-0.8,0.1-1.2,0.3c-0.3,0.2-0.6,0.5-0.8,0.9
			v6.2h-1.5v-8.5H978.9z"/>
		<path class="st12" d="M991.6,200.7c0-0.3-0.1-0.6-0.4-0.8s-0.7-0.4-1.5-0.6c-1-0.2-1.8-0.5-2.3-0.9c-0.5-0.4-0.8-0.9-0.8-1.6
			c0-0.7,0.3-1.3,0.9-1.8s1.3-0.7,2.3-0.7c1,0,1.8,0.3,2.3,0.8c0.6,0.5,0.9,1.1,0.8,1.8l0,0h-1.5c0-0.4-0.2-0.7-0.5-1
			c-0.3-0.3-0.7-0.4-1.2-0.4c-0.5,0-1,0.1-1.2,0.4c-0.3,0.2-0.4,0.5-0.4,0.9c0,0.3,0.1,0.6,0.4,0.8c0.2,0.2,0.7,0.4,1.4,0.5
			c1.1,0.2,1.9,0.5,2.4,0.9c0.5,0.4,0.8,0.9,0.8,1.6c0,0.8-0.3,1.4-0.9,1.8c-0.6,0.5-1.4,0.7-2.4,0.7c-1.1,0-1.9-0.3-2.5-0.8
			s-0.9-1.2-0.9-1.9l0,0h1.5c0,0.5,0.2,0.9,0.6,1.2c0.4,0.3,0.8,0.4,1.3,0.4c0.5,0,1-0.1,1.3-0.3
			C991.4,201.4,991.6,201.1,991.6,200.7z"/>
		<path class="st12" d="M998.5,203.1c-1.2,0-2.1-0.4-2.8-1.2c-0.7-0.8-1-1.8-1-3.1v-0.3c0-1.2,0.4-2.2,1.1-3
			c0.7-0.8,1.6-1.2,2.5-1.2c1.1,0,2,0.3,2.6,1s0.9,1.6,0.9,2.8v1h-5.5l0,0c0,0.8,0.2,1.5,0.6,2c0.4,0.5,1,0.8,1.7,0.8
			c0.5,0,1-0.1,1.4-0.2s0.7-0.4,1-0.6l0.6,1c-0.3,0.3-0.7,0.5-1.2,0.7S999.2,203.1,998.5,203.1z M998.3,195.6c-0.5,0-1,0.2-1.3,0.7
			s-0.6,1-0.7,1.6l0,0h3.9v-0.2c0-0.6-0.2-1.1-0.5-1.5C999.4,195.8,998.9,195.6,998.3,195.6z"/>
		<path class="st12" d="M1003.1,198.9c0-1.4,0.3-2.5,0.9-3.3c0.6-0.8,1.4-1.3,2.4-1.3c0.5,0,1,0.1,1.4,0.3s0.7,0.5,1,0.9l0.2-1h1.2
			v11.7h-1.5v-4c-0.3,0.3-0.6,0.6-1,0.7s-0.8,0.2-1.3,0.2c-1,0-1.8-0.4-2.4-1.1c-0.6-0.7-0.9-1.7-0.9-2.9V198.9z M1004.7,199.1
			c0,0.9,0.2,1.5,0.5,2.1c0.4,0.5,0.9,0.8,1.6,0.8c0.4,0,0.8-0.1,1.1-0.3c0.3-0.2,0.6-0.5,0.8-0.8v-4.3c-0.2-0.3-0.5-0.6-0.8-0.7
			c-0.3-0.2-0.7-0.3-1.1-0.3c-0.7,0-1.3,0.3-1.6,0.9c-0.4,0.6-0.5,1.4-0.5,2.4V199.1z"/>
		<path class="st12" d="M1018,201.7c-0.3,0.5-0.6,0.8-1,1c-0.4,0.2-0.9,0.4-1.4,0.4c-0.9,0-1.6-0.3-2.2-0.9
			c-0.5-0.6-0.8-1.5-0.8-2.8v-5h1.5v5c0,0.9,0.1,1.5,0.4,1.9c0.3,0.3,0.7,0.5,1.2,0.5c0.5,0,1-0.1,1.4-0.3c0.4-0.2,0.6-0.5,0.8-0.9
			v-6.1h1.5v8.5h-1.4L1018,201.7z"/>
		<path class="st12" d="M1026.9,203c-0.1-0.3-0.1-0.5-0.1-0.7s0-0.4-0.1-0.6c-0.3,0.4-0.7,0.7-1.1,1s-1,0.4-1.5,0.4
			c-0.9,0-1.6-0.2-2-0.7c-0.5-0.5-0.7-1.1-0.7-1.9c0-0.8,0.3-1.4,1-1.9c0.7-0.5,1.5-0.7,2.7-0.7h1.7v-0.8c0-0.5-0.2-0.9-0.5-1.2
			s-0.7-0.4-1.3-0.4c-0.5,0-0.9,0.1-1.2,0.4c-0.3,0.3-0.5,0.6-0.5,0.9h-1.5l0,0c0-0.6,0.3-1.2,0.9-1.7c0.6-0.5,1.4-0.8,2.4-0.8
			c1,0,1.7,0.2,2.3,0.7c0.6,0.5,0.9,1.2,0.9,2.1v4.1c0,0.3,0,0.6,0,0.9s0.1,0.6,0.2,0.8H1026.9z M1024.3,201.8
			c0.6,0,1.1-0.1,1.5-0.4c0.4-0.3,0.7-0.6,0.9-1v-1.4h-1.7c-0.6,0-1.1,0.2-1.5,0.5s-0.6,0.7-0.6,1.1c0,0.4,0.1,0.7,0.4,0.9
			C1023.5,201.7,1023.9,201.8,1024.3,201.8z"/>
		<path class="st12" d="M1032.5,192.5v2h1.6v1.1h-1.6v5.1c0,0.4,0.1,0.7,0.2,0.8c0.2,0.2,0.4,0.2,0.7,0.2c0.1,0,0.2,0,0.3,0
			c0.1,0,0.2,0,0.3-0.1l0.2,1.1c-0.1,0.1-0.3,0.2-0.5,0.2s-0.4,0.1-0.7,0.1c-0.6,0-1.1-0.2-1.5-0.6c-0.4-0.4-0.6-1-0.6-1.8v-5.1
			h-1.3v-1.1h1.3v-2H1032.5z"/>
		<path class="st12" d="M603.4,213.7l0.1,1.3c0.3-0.4,0.6-0.8,1.1-1c0.4-0.2,0.9-0.4,1.4-0.4c0.9,0,1.6,0.3,2.1,0.8
			c0.5,0.5,0.8,1.4,0.8,2.5v5.3h-1.5v-5.3c0-0.7-0.1-1.3-0.4-1.6s-0.7-0.5-1.3-0.5c-0.4,0-0.8,0.1-1.2,0.3c-0.3,0.2-0.6,0.5-0.8,0.9
			v6.2H602v-8.5H603.4z"/>
		<path class="st12" d="M614.6,222.3c-1.2,0-2.1-0.4-2.8-1.2c-0.7-0.8-1-1.8-1-3.1v-0.3c0-1.2,0.4-2.2,1.1-3
			c0.7-0.8,1.6-1.2,2.5-1.2c1.1,0,2,0.3,2.6,1s0.9,1.6,0.9,2.8v1h-5.5l0,0c0,0.8,0.2,1.5,0.6,2c0.4,0.5,1,0.8,1.7,0.8
			c0.5,0,1-0.1,1.4-0.2s0.7-0.4,1-0.6l0.6,1c-0.3,0.3-0.7,0.5-1.2,0.7S615.3,222.3,614.6,222.3z M614.4,214.8c-0.5,0-1,0.2-1.3,0.7
			s-0.6,1-0.7,1.6l0,0h3.9v-0.2c0-0.6-0.2-1.1-0.5-1.5C615.5,215,615,214.8,614.4,214.8z"/>
		<path class="st12" d="M623,221.1c0.5,0,1-0.2,1.3-0.5c0.4-0.3,0.6-0.7,0.6-1.2h1.4l0,0c0,0.7-0.3,1.4-1,1.9
			c-0.7,0.6-1.5,0.9-2.4,0.9c-1.2,0-2.2-0.4-2.8-1.2c-0.7-0.8-1-1.8-1-3v-0.3c0-1.2,0.3-2.2,1-3s1.6-1.2,2.8-1.2
			c1,0,1.8,0.3,2.4,0.9c0.6,0.6,0.9,1.3,0.9,2.1l0,0H625c0-0.5-0.2-1-0.5-1.3c-0.4-0.4-0.8-0.5-1.4-0.5c-0.8,0-1.4,0.3-1.7,0.9
			s-0.5,1.3-0.5,2.1v0.3c0,0.9,0.2,1.6,0.5,2.2C621.6,220.8,622.2,221.1,623,221.1z"/>
		<path class="st12" d="M629.8,222.2h-1.5v-1.6h1.5V222.2z"/>
		<path class="st12" d="M644.7,218.5L644.7,218.5c0,1.1-0.3,2-1.1,2.7c-0.8,0.7-1.8,1.1-3.1,1.1c-1.3,0-2.3-0.5-3.1-1.4
			c-0.8-0.9-1.2-2.1-1.2-3.5v-2c0-1.4,0.4-2.6,1.2-3.5s1.9-1.4,3.1-1.4s2.3,0.3,3.1,1c0.8,0.7,1.1,1.6,1.1,2.7l0,0h-1.5
			c0-0.8-0.2-1.4-0.7-1.9c-0.5-0.5-1.1-0.7-2-0.7c-0.9,0-1.5,0.3-2.1,1c-0.5,0.7-0.8,1.6-0.8,2.6v2c0,1,0.3,1.9,0.8,2.6s1.2,1,2.1,1
			c0.9,0,1.5-0.2,2-0.7s0.7-1.1,0.7-1.9H644.7z"/>
		<path class="st12" d="M651.8,220.9c-0.3,0.5-0.6,0.8-1,1c-0.4,0.2-0.9,0.4-1.4,0.4c-0.9,0-1.6-0.3-2.2-0.9
			c-0.5-0.6-0.8-1.5-0.8-2.8v-5h1.5v5c0,0.9,0.1,1.5,0.4,1.9c0.3,0.3,0.7,0.5,1.2,0.5c0.5,0,1-0.1,1.4-0.3c0.4-0.2,0.6-0.5,0.8-0.9
			v-6.1h1.5v8.5h-1.4L651.8,220.9z"/>
		<path class="st12" d="M659.6,215.1l-0.8,0c-0.4,0-0.7,0.1-1,0.3c-0.3,0.2-0.5,0.5-0.6,0.8v6h-1.5v-8.5h1.4l0.1,1.2
			c0.2-0.4,0.5-0.8,0.9-1c0.4-0.2,0.8-0.4,1.2-0.4c0.1,0,0.2,0,0.3,0c0.1,0,0.2,0,0.3,0.1L659.6,215.1z"/>
		<path class="st12" d="M666.2,222.2c-0.1-0.3-0.1-0.5-0.1-0.7s0-0.4-0.1-0.6c-0.3,0.4-0.7,0.7-1.1,1s-1,0.4-1.5,0.4
			c-0.9,0-1.6-0.2-2-0.7c-0.5-0.5-0.7-1.1-0.7-1.9c0-0.8,0.3-1.4,1-1.9c0.7-0.5,1.5-0.7,2.7-0.7h1.7v-0.8c0-0.5-0.2-0.9-0.5-1.2
			s-0.7-0.4-1.3-0.4c-0.5,0-0.9,0.1-1.2,0.4c-0.3,0.3-0.5,0.6-0.5,0.9h-1.5l0,0c0-0.6,0.3-1.2,0.9-1.7c0.6-0.5,1.4-0.8,2.4-0.8
			c1,0,1.7,0.2,2.3,0.7c0.6,0.5,0.9,1.2,0.9,2.1v4.1c0,0.3,0,0.6,0,0.9s0.1,0.6,0.2,0.8H666.2z M663.7,221c0.6,0,1.1-0.1,1.5-0.4
			c0.4-0.3,0.7-0.6,0.9-1v-1.4h-1.7c-0.6,0-1.1,0.2-1.5,0.5s-0.6,0.7-0.6,1.1c0,0.4,0.1,0.7,0.4,0.9
			C662.9,220.9,663.2,221,663.7,221z"/>
		<path class="st12" d="M677.1,218.3c0,1.2-0.3,2.2-0.9,2.9c-0.6,0.7-1.4,1.1-2.4,1.1c-0.6,0-1-0.1-1.5-0.3s-0.8-0.5-1-1l-0.2,1.1
			h-1.3V210h1.5v4.7c0.3-0.4,0.6-0.7,1-0.9c0.4-0.2,0.9-0.3,1.4-0.3c1,0,1.9,0.4,2.4,1.3c0.6,0.8,0.9,1.9,0.9,3.3V218.3z
			 M675.5,218.1c0-1-0.2-1.8-0.5-2.4c-0.4-0.6-0.9-0.9-1.6-0.9c-0.5,0-0.9,0.1-1.2,0.3c-0.3,0.2-0.6,0.5-0.8,0.9v3.7
			c0.2,0.4,0.5,0.7,0.8,1s0.7,0.4,1.2,0.4c0.7,0,1.3-0.3,1.6-0.8s0.5-1.2,0.5-2V218.1z"/>
		<path class="st12" d="M680.6,211.5h-1.5V210h1.5V211.5z M680.6,222.2h-1.5v-8.5h1.5V222.2z"/>
		<path class="st12" d="M685,211.7v2h1.6v1.1H685v5.1c0,0.4,0.1,0.7,0.2,0.8c0.2,0.2,0.4,0.2,0.7,0.2c0.1,0,0.2,0,0.3,0
			c0.1,0,0.2,0,0.3-0.1l0.2,1.1c-0.1,0.1-0.3,0.2-0.5,0.2s-0.4,0.1-0.7,0.1c-0.6,0-1.1-0.2-1.5-0.6c-0.4-0.4-0.6-1-0.6-1.8v-5.1
			h-1.3v-1.1h1.3v-2H685z"/>
		<path class="st12" d="M693.9,220.9c-0.3,0.5-0.6,0.8-1,1c-0.4,0.2-0.9,0.4-1.4,0.4c-0.9,0-1.6-0.3-2.2-0.9
			c-0.5-0.6-0.8-1.5-0.8-2.8v-5h1.5v5c0,0.9,0.1,1.5,0.4,1.9c0.3,0.3,0.7,0.5,1.2,0.5c0.5,0,1-0.1,1.4-0.3c0.4-0.2,0.6-0.5,0.8-0.9
			v-6.1h1.5v8.5H694L693.9,220.9z"/>
		<path class="st12" d="M701.6,215.1l-0.8,0c-0.4,0-0.7,0.1-1,0.3c-0.3,0.2-0.5,0.5-0.6,0.8v6h-1.5v-8.5h1.4l0.1,1.2
			c0.2-0.4,0.5-0.8,0.9-1c0.4-0.2,0.8-0.4,1.2-0.4c0.1,0,0.2,0,0.3,0c0.1,0,0.2,0,0.3,0.1L701.6,215.1z"/>
		<path class="st12" d="M709.9,219.7l0.1,0.6h0l0.1-0.6l1.9-6h1.6l-3.1,8.5h-1.2l-3.1-8.5h1.6L709.9,219.7z"/>
		<path class="st12" d="M714.6,217.9c0-1.3,0.3-2.3,1-3.1c0.7-0.8,1.6-1.2,2.8-1.2c1.2,0,2.1,0.4,2.8,1.2c0.7,0.8,1,1.8,1,3.1v0.2
			c0,1.3-0.3,2.3-1,3.1c-0.7,0.8-1.6,1.2-2.8,1.2s-2.1-0.4-2.8-1.2s-1-1.8-1-3.1V217.9z M716.2,218c0,0.9,0.2,1.6,0.6,2.2
			c0.4,0.6,0.9,0.9,1.7,0.9c0.7,0,1.3-0.3,1.7-0.9c0.4-0.6,0.6-1.3,0.6-2.2v-0.2c0-0.9-0.2-1.6-0.6-2.2s-0.9-0.9-1.7-0.9
			c-0.7,0-1.3,0.3-1.7,0.9s-0.6,1.3-0.6,2.2V218z"/>
		<path class="st12" d="M725.7,222.2h-1.5V210h1.5V222.2z"/>
		<path class="st12" d="M733.5,220.9c-0.3,0.5-0.6,0.8-1,1c-0.4,0.2-0.9,0.4-1.4,0.4c-0.9,0-1.6-0.3-2.2-0.9
			c-0.5-0.6-0.8-1.5-0.8-2.8v-5h1.5v5c0,0.9,0.1,1.5,0.4,1.9c0.3,0.3,0.7,0.5,1.2,0.5c0.5,0,1-0.1,1.4-0.3c0.4-0.2,0.6-0.5,0.8-0.9
			v-6.1h1.5v8.5h-1.4L733.5,220.9z"/>
		<path class="st12" d="M739.2,211.7v2h1.6v1.1h-1.6v5.1c0,0.4,0.1,0.7,0.2,0.8c0.2,0.2,0.4,0.2,0.7,0.2c0.1,0,0.2,0,0.3,0
			c0.1,0,0.2,0,0.3-0.1l0.2,1.1c-0.1,0.1-0.3,0.2-0.5,0.2s-0.4,0.1-0.7,0.1c-0.6,0-1.1-0.2-1.5-0.6c-0.4-0.4-0.6-1-0.6-1.8v-5.1
			h-1.3v-1.1h1.3v-2H739.2z"/>
		<path class="st12" d="M749.9,218.3c0,1.2-0.3,2.2-0.9,2.9c-0.6,0.7-1.4,1.1-2.4,1.1c-0.5,0-1-0.1-1.4-0.3c-0.4-0.2-0.7-0.4-1-0.8
			v4.1h-1.5v-11.7h1.2l0.2,1.1c0.3-0.4,0.6-0.7,1-0.9c0.4-0.2,0.9-0.3,1.4-0.3c1,0,1.9,0.4,2.4,1.2c0.6,0.8,0.9,1.9,0.9,3.3V218.3z
			 M748.4,218.1c0-1-0.2-1.7-0.6-2.4s-0.9-0.9-1.7-0.9c-0.4,0-0.8,0.1-1.1,0.3s-0.6,0.5-0.8,0.8v4.1c0.2,0.3,0.4,0.6,0.8,0.8
			c0.3,0.2,0.7,0.3,1.1,0.3c0.7,0,1.3-0.3,1.7-0.8s0.6-1.2,0.6-2.1V218.1z"/>
		<path class="st12" d="M757,222.2c-0.1-0.3-0.1-0.5-0.1-0.7s0-0.4-0.1-0.6c-0.3,0.4-0.7,0.7-1.1,1s-1,0.4-1.5,0.4
			c-0.9,0-1.6-0.2-2-0.7c-0.5-0.5-0.7-1.1-0.7-1.9c0-0.8,0.3-1.4,1-1.9c0.7-0.5,1.5-0.7,2.7-0.7h1.7v-0.8c0-0.5-0.2-0.9-0.5-1.2
			s-0.7-0.4-1.3-0.4c-0.5,0-0.9,0.1-1.2,0.4c-0.3,0.3-0.5,0.6-0.5,0.9H752l0,0c0-0.6,0.3-1.2,0.9-1.7c0.6-0.5,1.4-0.8,2.4-0.8
			c1,0,1.7,0.2,2.3,0.7c0.6,0.5,0.9,1.2,0.9,2.1v4.1c0,0.3,0,0.6,0,0.9s0.1,0.6,0.2,0.8H757z M754.5,221c0.6,0,1.1-0.1,1.5-0.4
			c0.4-0.3,0.7-0.6,0.9-1v-1.4h-1.7c-0.6,0-1.1,0.2-1.5,0.5s-0.6,0.7-0.6,1.1c0,0.4,0.1,0.7,0.4,0.9C753.7,220.9,754,221,754.5,221z
			"/>
		<path class="st12" d="M762.7,211.7v2h1.6v1.1h-1.6v5.1c0,0.4,0.1,0.7,0.2,0.8c0.2,0.2,0.4,0.2,0.7,0.2c0.1,0,0.2,0,0.3,0
			c0.1,0,0.2,0,0.3-0.1l0.2,1.1c-0.1,0.1-0.3,0.2-0.5,0.2s-0.4,0.1-0.7,0.1c-0.6,0-1.1-0.2-1.5-0.6c-0.4-0.4-0.6-1-0.6-1.8v-5.1
			h-1.3v-1.1h1.3v-2H762.7z"/>
		<path class="st12" d="M771.8,222.2h-1.5V210h1.5V222.2z"/>
		<path class="st12" d="M775.8,211.5h-1.5V210h1.5V211.5z M775.8,222.2h-1.5v-8.5h1.5V222.2z"/>
		<path class="st12" d="M785.4,218.3c0,1.2-0.3,2.2-0.9,2.9c-0.6,0.7-1.4,1.1-2.4,1.1c-0.6,0-1-0.1-1.5-0.3s-0.8-0.5-1-1l-0.2,1.1
			h-1.3V210h1.5v4.7c0.3-0.4,0.6-0.7,1-0.9c0.4-0.2,0.9-0.3,1.4-0.3c1,0,1.9,0.4,2.4,1.3c0.6,0.8,0.9,1.9,0.9,3.3V218.3z
			 M783.9,218.1c0-1-0.2-1.8-0.5-2.4c-0.4-0.6-0.9-0.9-1.6-0.9c-0.5,0-0.9,0.1-1.2,0.3c-0.3,0.2-0.6,0.5-0.8,0.9v3.7
			c0.2,0.4,0.5,0.7,0.8,1s0.7,0.4,1.2,0.4c0.7,0,1.3-0.3,1.6-0.8s0.5-1.2,0.5-2V218.1z"/>
		<path class="st12" d="M790.8,222.3c-1.2,0-2.1-0.4-2.8-1.2c-0.7-0.8-1-1.8-1-3.1v-0.3c0-1.2,0.4-2.2,1.1-3
			c0.7-0.8,1.6-1.2,2.5-1.2c1.1,0,2,0.3,2.6,1s0.9,1.6,0.9,2.8v1h-5.5l0,0c0,0.8,0.2,1.5,0.6,2c0.4,0.5,1,0.8,1.7,0.8
			c0.5,0,1-0.1,1.4-0.2s0.7-0.4,1-0.6l0.6,1c-0.3,0.3-0.7,0.5-1.2,0.7S791.5,222.3,790.8,222.3z M790.6,214.8c-0.5,0-1,0.2-1.3,0.7
			s-0.6,1-0.7,1.6l0,0h3.9v-0.2c0-0.6-0.2-1.1-0.5-1.5C791.7,215,791.2,214.8,790.6,214.8z"/>
		<path class="st12" d="M799.8,215.1l-0.8,0c-0.4,0-0.7,0.1-1,0.3c-0.3,0.2-0.5,0.5-0.6,0.8v6h-1.5v-8.5h1.4l0.1,1.2
			c0.2-0.4,0.5-0.8,0.9-1c0.4-0.2,0.8-0.4,1.2-0.4c0.1,0,0.2,0,0.3,0c0.1,0,0.2,0,0.3,0.1L799.8,215.1z"/>
		<path class="st12" d="M800.7,217.9c0-1.3,0.3-2.3,1-3.1c0.7-0.8,1.6-1.2,2.8-1.2c1.2,0,2.1,0.4,2.8,1.2c0.7,0.8,1,1.8,1,3.1v0.2
			c0,1.3-0.3,2.3-1,3.1c-0.7,0.8-1.6,1.2-2.8,1.2s-2.1-0.4-2.8-1.2s-1-1.8-1-3.1V217.9z M802.3,218c0,0.9,0.2,1.6,0.6,2.2
			c0.4,0.6,0.9,0.9,1.7,0.9c0.7,0,1.3-0.3,1.7-0.9c0.4-0.6,0.6-1.3,0.6-2.2v-0.2c0-0.9-0.2-1.6-0.6-2.2s-0.9-0.9-1.7-0.9
			c-0.7,0-1.3,0.3-1.7,0.9s-0.6,1.3-0.6,2.2V218z"/>
		<path class="st12" d="M817.7,222.3c-1.2,0-2.1-0.4-2.8-1.2c-0.7-0.8-1-1.8-1-3.1v-0.3c0-1.2,0.4-2.2,1.1-3
			c0.7-0.8,1.6-1.2,2.5-1.2c1.1,0,2,0.3,2.6,1s0.9,1.6,0.9,2.8v1h-5.5l0,0c0,0.8,0.2,1.5,0.6,2c0.4,0.5,1,0.8,1.7,0.8
			c0.5,0,1-0.1,1.4-0.2s0.7-0.4,1-0.6l0.6,1c-0.3,0.3-0.7,0.5-1.2,0.7S818.4,222.3,817.7,222.3z M817.4,214.8c-0.5,0-1,0.2-1.3,0.7
			s-0.6,1-0.7,1.6l0,0h3.9v-0.2c0-0.6-0.2-1.1-0.5-1.5C818.5,215,818.1,214.8,817.4,214.8z"/>
		<path class="st12" d="M824.6,211.7v2h1.6v1.1h-1.6v5.1c0,0.4,0.1,0.7,0.2,0.8c0.2,0.2,0.4,0.2,0.7,0.2c0.1,0,0.2,0,0.3,0
			c0.1,0,0.2,0,0.3-0.1l0.2,1.1c-0.1,0.1-0.3,0.2-0.5,0.2s-0.4,0.1-0.7,0.1c-0.6,0-1.1-0.2-1.5-0.6c-0.4-0.4-0.6-1-0.6-1.8v-5.1
			h-1.3v-1.1h1.3v-2H824.6z"/>
		<path class="st12" d="M831.8,217.9c0-1.3,0.3-2.3,1-3.1c0.7-0.8,1.6-1.2,2.8-1.2c1.2,0,2.1,0.4,2.8,1.2c0.7,0.8,1,1.8,1,3.1v0.2
			c0,1.3-0.3,2.3-1,3.1c-0.7,0.8-1.6,1.2-2.8,1.2s-2.1-0.4-2.8-1.2s-1-1.8-1-3.1V217.9z M833.3,218c0,0.9,0.2,1.6,0.6,2.2
			c0.4,0.6,0.9,0.9,1.7,0.9c0.7,0,1.3-0.3,1.7-0.9c0.4-0.6,0.6-1.3,0.6-2.2v-0.2c0-0.9-0.2-1.6-0.6-2.2s-0.9-0.9-1.7-0.9
			c-0.7,0-1.3,0.3-1.7,0.9s-0.6,1.3-0.6,2.2V218z"/>
		<path class="st12" d="M840.9,218.1c0-1.4,0.3-2.5,0.9-3.3c0.6-0.8,1.4-1.3,2.4-1.3c0.5,0,0.9,0.1,1.3,0.3c0.4,0.2,0.7,0.4,1,0.8
			V210h1.5v12.2h-1.3l-0.2-1c-0.3,0.4-0.6,0.7-1,0.9s-0.9,0.3-1.4,0.3c-1,0-1.8-0.4-2.4-1.1c-0.6-0.7-0.9-1.7-0.9-2.9V218.1z
			 M842.4,218.3c0,0.9,0.2,1.5,0.5,2.1c0.3,0.5,0.9,0.8,1.6,0.8c0.5,0,0.8-0.1,1.2-0.3c0.3-0.2,0.6-0.5,0.8-0.9v-3.9
			c-0.2-0.3-0.5-0.6-0.8-0.8c-0.3-0.2-0.7-0.3-1.1-0.3c-0.7,0-1.3,0.3-1.6,0.9s-0.5,1.4-0.5,2.4V218.3z"/>
		<path class="st12" d="M852,211.5h-1.5V210h1.5V211.5z M852,222.2h-1.5v-8.5h1.5V222.2z"/>
		<path class="st12" d="M854,217.9c0-1.3,0.3-2.3,1-3.1c0.7-0.8,1.6-1.2,2.8-1.2c1.2,0,2.1,0.4,2.8,1.2c0.7,0.8,1,1.8,1,3.1v0.2
			c0,1.3-0.3,2.3-1,3.1c-0.7,0.8-1.6,1.2-2.8,1.2s-2.1-0.4-2.8-1.2s-1-1.8-1-3.1V217.9z M855.5,218c0,0.9,0.2,1.6,0.6,2.2
			c0.4,0.6,0.9,0.9,1.7,0.9c0.7,0,1.3-0.3,1.7-0.9c0.4-0.6,0.6-1.3,0.6-2.2v-0.2c0-0.9-0.2-1.6-0.6-2.2s-0.9-0.9-1.7-0.9
			c-0.7,0-1.3,0.3-1.7,0.9s-0.6,1.3-0.6,2.2V218z"/>
		<path class="st12" d="M870.8,221.1c0.5,0,1-0.2,1.3-0.5c0.4-0.3,0.6-0.7,0.6-1.2h1.4l0,0c0,0.7-0.3,1.4-1,1.9
			c-0.7,0.6-1.5,0.9-2.4,0.9c-1.2,0-2.2-0.4-2.8-1.2c-0.7-0.8-1-1.8-1-3v-0.3c0-1.2,0.3-2.2,1-3s1.6-1.2,2.8-1.2
			c1,0,1.8,0.3,2.4,0.9c0.6,0.6,0.9,1.3,0.9,2.1l0,0h-1.4c0-0.5-0.2-1-0.5-1.3c-0.4-0.4-0.8-0.5-1.4-0.5c-0.8,0-1.4,0.3-1.7,0.9
			s-0.5,1.3-0.5,2.1v0.3c0,0.9,0.2,1.6,0.5,2.2C869.5,220.8,870,221.1,870.8,221.1z"/>
		<path class="st12" d="M875.5,217.9c0-1.3,0.3-2.3,1-3.1c0.7-0.8,1.6-1.2,2.8-1.2c1.2,0,2.1,0.4,2.8,1.2c0.7,0.8,1,1.8,1,3.1v0.2
			c0,1.3-0.3,2.3-1,3.1c-0.7,0.8-1.6,1.2-2.8,1.2s-2.1-0.4-2.8-1.2s-1-1.8-1-3.1V217.9z M877.1,218c0,0.9,0.2,1.6,0.6,2.2
			c0.4,0.6,0.9,0.9,1.7,0.9c0.7,0,1.3-0.3,1.7-0.9c0.4-0.6,0.6-1.3,0.6-2.2v-0.2c0-0.9-0.2-1.6-0.6-2.2s-0.9-0.9-1.7-0.9
			c-0.7,0-1.3,0.3-1.7,0.9s-0.6,1.3-0.6,2.2V218z"/>
		<path class="st12" d="M886.4,213.7l0.1,1.1c0.3-0.4,0.6-0.7,1.1-0.9c0.4-0.2,0.9-0.3,1.5-0.3s1,0.1,1.4,0.4
			c0.4,0.3,0.7,0.7,0.9,1.2c0.3-0.5,0.6-0.9,1.1-1.1s0.9-0.4,1.5-0.4c0.9,0,1.5,0.3,2,0.9c0.5,0.6,0.8,1.5,0.8,2.7v5.1h-1.5v-5.1
			c0-0.8-0.1-1.4-0.4-1.8c-0.3-0.3-0.7-0.5-1.3-0.5c-0.5,0-1,0.2-1.3,0.5c-0.3,0.4-0.5,0.8-0.6,1.4v0.1v5.4h-1.5v-5.1
			c0-0.8-0.1-1.4-0.4-1.7s-0.7-0.6-1.3-0.6c-0.5,0-0.9,0.1-1.2,0.3c-0.3,0.2-0.5,0.5-0.7,0.8v6.3H885v-8.5H886.4z"/>
		<path class="st12" d="M900.4,213.7l0.1,1.1c0.3-0.4,0.6-0.7,1.1-0.9c0.4-0.2,0.9-0.3,1.5-0.3s1,0.1,1.4,0.4
			c0.4,0.3,0.7,0.7,0.9,1.2c0.3-0.5,0.6-0.9,1.1-1.1s0.9-0.4,1.5-0.4c0.9,0,1.5,0.3,2,0.9c0.5,0.6,0.8,1.5,0.8,2.7v5.1h-1.5v-5.1
			c0-0.8-0.1-1.4-0.4-1.8c-0.3-0.3-0.7-0.5-1.3-0.5c-0.5,0-1,0.2-1.3,0.5c-0.3,0.4-0.5,0.8-0.6,1.4v0.1v5.4h-1.5v-5.1
			c0-0.8-0.1-1.4-0.4-1.7s-0.7-0.6-1.3-0.6c-0.5,0-0.9,0.1-1.2,0.3c-0.3,0.2-0.5,0.5-0.7,0.8v6.3H899v-8.5H900.4z"/>
		<path class="st12" d="M912.6,217.9c0-1.3,0.3-2.3,1-3.1c0.7-0.8,1.6-1.2,2.8-1.2c1.2,0,2.1,0.4,2.8,1.2c0.7,0.8,1,1.8,1,3.1v0.2
			c0,1.3-0.3,2.3-1,3.1c-0.7,0.8-1.6,1.2-2.8,1.2s-2.1-0.4-2.8-1.2s-1-1.8-1-3.1V217.9z M914.1,218c0,0.9,0.2,1.6,0.6,2.2
			c0.4,0.6,0.9,0.9,1.7,0.9c0.7,0,1.3-0.3,1.7-0.9c0.4-0.6,0.6-1.3,0.6-2.2v-0.2c0-0.9-0.2-1.6-0.6-2.2s-0.9-0.9-1.7-0.9
			c-0.7,0-1.3,0.3-1.7,0.9s-0.6,1.3-0.6,2.2V218z"/>
		<path class="st12" d="M921.7,218.1c0-1.4,0.3-2.5,0.9-3.3c0.6-0.8,1.4-1.3,2.4-1.3c0.5,0,0.9,0.1,1.3,0.3c0.4,0.2,0.7,0.4,1,0.8
			V210h1.5v12.2h-1.3l-0.2-1c-0.3,0.4-0.6,0.7-1,0.9s-0.9,0.3-1.4,0.3c-1,0-1.8-0.4-2.4-1.1c-0.6-0.7-0.9-1.7-0.9-2.9V218.1z
			 M923.2,218.3c0,0.9,0.2,1.5,0.5,2.1c0.3,0.5,0.9,0.8,1.6,0.8c0.5,0,0.8-0.1,1.2-0.3c0.3-0.2,0.6-0.5,0.8-0.9v-3.9
			c-0.2-0.3-0.5-0.6-0.8-0.8c-0.3-0.2-0.7-0.3-1.1-0.3c-0.7,0-1.3,0.3-1.6,0.9s-0.5,1.4-0.5,2.4V218.3z"/>
		<path class="st12" d="M930.8,217.9c0-1.3,0.3-2.3,1-3.1c0.7-0.8,1.6-1.2,2.8-1.2c1.2,0,2.1,0.4,2.8,1.2c0.7,0.8,1,1.8,1,3.1v0.2
			c0,1.3-0.3,2.3-1,3.1c-0.7,0.8-1.6,1.2-2.8,1.2s-2.1-0.4-2.8-1.2s-1-1.8-1-3.1V217.9z M932.3,218c0,0.9,0.2,1.6,0.6,2.2
			c0.4,0.6,0.9,0.9,1.7,0.9c0.7,0,1.3-0.3,1.7-0.9c0.4-0.6,0.6-1.3,0.6-2.2v-0.2c0-0.9-0.2-1.6-0.6-2.2s-0.9-0.9-1.7-0.9
			c-0.7,0-1.3,0.3-1.7,0.9s-0.6,1.3-0.6,2.2V218z"/>
		<path class="st12" d="M941.6,221.8l-1.2,2.4h-0.9l0.5-2.5v-1.3h1.5V221.8z"/>
		<path class="st12" d="M950.2,219.7l0.1,0.6h0l0.1-0.6l1.9-6h1.6l-3.1,8.5h-1.2l-3.1-8.5h1.6L950.2,219.7z"/>
		<path class="st12" d="M957.1,211.5h-1.5V210h1.5V211.5z M957.1,222.2h-1.5v-8.5h1.5V222.2z"/>
		<path class="st12" d="M961.5,211.7v2h1.6v1.1h-1.6v5.1c0,0.4,0.1,0.7,0.2,0.8c0.2,0.2,0.4,0.2,0.7,0.2c0.1,0,0.2,0,0.3,0
			c0.1,0,0.2,0,0.3-0.1l0.2,1.1c-0.1,0.1-0.3,0.2-0.5,0.2s-0.4,0.1-0.7,0.1c-0.6,0-1.1-0.2-1.5-0.6c-0.4-0.4-0.6-1-0.6-1.8v-5.1
			h-1.3v-1.1h1.3v-2H961.5z"/>
		<path class="st12" d="M970.2,222.2c-0.1-0.3-0.1-0.5-0.1-0.7s0-0.4-0.1-0.6c-0.3,0.4-0.7,0.7-1.1,1s-1,0.4-1.5,0.4
			c-0.9,0-1.6-0.2-2-0.7c-0.5-0.5-0.7-1.1-0.7-1.9c0-0.8,0.3-1.4,1-1.9c0.7-0.5,1.5-0.7,2.7-0.7h1.7v-0.8c0-0.5-0.2-0.9-0.5-1.2
			s-0.7-0.4-1.3-0.4c-0.5,0-0.9,0.1-1.2,0.4c-0.3,0.3-0.5,0.6-0.5,0.9h-1.5l0,0c0-0.6,0.3-1.2,0.9-1.7c0.6-0.5,1.4-0.8,2.4-0.8
			c1,0,1.7,0.2,2.3,0.7c0.6,0.5,0.9,1.2,0.9,2.1v4.1c0,0.3,0,0.6,0,0.9s0.1,0.6,0.2,0.8H970.2z M967.6,221c0.6,0,1.1-0.1,1.5-0.4
			c0.4-0.3,0.7-0.6,0.9-1v-1.4h-1.7c-0.6,0-1.1,0.2-1.5,0.5s-0.6,0.7-0.6,1.1c0,0.4,0.1,0.7,0.4,0.9
			C966.8,220.9,967.2,221,967.6,221z"/>
		<path class="st12" d="M977.3,222.3c-1.2,0-2.1-0.4-2.8-1.2c-0.7-0.8-1-1.8-1-3.1v-0.3c0-1.2,0.4-2.2,1.1-3
			c0.7-0.8,1.6-1.2,2.5-1.2c1.1,0,2,0.3,2.6,1s0.9,1.6,0.9,2.8v1H975l0,0c0,0.8,0.2,1.5,0.6,2c0.4,0.5,1,0.8,1.7,0.8
			c0.5,0,1-0.1,1.4-0.2s0.7-0.4,1-0.6l0.6,1c-0.3,0.3-0.7,0.5-1.2,0.7S978,222.3,977.3,222.3z M977.1,214.8c-0.5,0-1,0.2-1.3,0.7
			s-0.6,1-0.7,1.6l0,0h3.9v-0.2c0-0.6-0.2-1.1-0.5-1.5C978.2,215,977.7,214.8,977.1,214.8z"/>
		<path class="st12" d="M988.3,211.7v2h1.6v1.1h-1.6v5.1c0,0.4,0.1,0.7,0.2,0.8c0.2,0.2,0.4,0.2,0.7,0.2c0.1,0,0.2,0,0.3,0
			c0.1,0,0.2,0,0.3-0.1l0.2,1.1c-0.1,0.1-0.3,0.2-0.5,0.2s-0.4,0.1-0.7,0.1c-0.6,0-1.1-0.2-1.5-0.6c-0.4-0.4-0.6-1-0.6-1.8v-5.1
			h-1.3v-1.1h1.3v-2H988.3z"/>
		<path class="st12" d="M995.8,215.1l-0.8,0c-0.4,0-0.7,0.1-1,0.3c-0.3,0.2-0.5,0.5-0.6,0.8v6h-1.5v-8.5h1.4l0.1,1.2
			c0.2-0.4,0.5-0.8,0.9-1c0.4-0.2,0.8-0.4,1.2-0.4c0.1,0,0.2,0,0.3,0c0.1,0,0.2,0,0.3,0.1L995.8,215.1z"/>
		<path class="st12" d="M998.9,211.5h-1.5V210h1.5V211.5z M998.9,222.2h-1.5v-8.5h1.5V222.2z"/>
		<path class="st12" d="M1006.2,219.9c0-0.3-0.1-0.6-0.4-0.8s-0.7-0.4-1.5-0.6c-1-0.2-1.8-0.5-2.3-0.9c-0.5-0.4-0.8-0.9-0.8-1.6
			c0-0.7,0.3-1.3,0.9-1.8s1.3-0.7,2.3-0.7c1,0,1.8,0.3,2.3,0.8c0.6,0.5,0.9,1.1,0.8,1.8l0,0h-1.5c0-0.4-0.2-0.7-0.5-1
			c-0.3-0.3-0.7-0.4-1.2-0.4c-0.5,0-1,0.1-1.2,0.4c-0.3,0.2-0.4,0.5-0.4,0.9c0,0.3,0.1,0.6,0.4,0.8c0.2,0.2,0.7,0.4,1.4,0.5
			c1.1,0.2,1.9,0.5,2.4,0.9c0.5,0.4,0.8,0.9,0.8,1.6c0,0.8-0.3,1.4-0.9,1.8c-0.6,0.5-1.4,0.7-2.4,0.7c-1.1,0-1.9-0.3-2.5-0.8
			s-0.9-1.2-0.9-1.9l0,0h1.5c0,0.5,0.2,0.9,0.6,1.2c0.4,0.3,0.8,0.4,1.3,0.4c0.5,0,1-0.1,1.3-0.3
			C1006,220.6,1006.2,220.3,1006.2,219.9z"/>
		<path class="st12" d="M1011.7,211.7v2h1.6v1.1h-1.6v5.1c0,0.4,0.1,0.7,0.2,0.8c0.2,0.2,0.4,0.2,0.7,0.2c0.1,0,0.2,0,0.3,0
			c0.1,0,0.2,0,0.3-0.1l0.2,1.1c-0.1,0.1-0.3,0.2-0.5,0.2s-0.4,0.1-0.7,0.1c-0.6,0-1.1-0.2-1.5-0.6c-0.4-0.4-0.6-1-0.6-1.8v-5.1
			h-1.3v-1.1h1.3v-2H1011.7z"/>
		<path class="st12" d="M1016.8,211.5h-1.5V210h1.5V211.5z M1016.8,222.2h-1.5v-8.5h1.5V222.2z"/>
		<path class="st12" d="M1018.8,218.1c0-1.4,0.3-2.5,0.9-3.3c0.6-0.8,1.4-1.3,2.4-1.3c0.5,0,1,0.1,1.4,0.3s0.7,0.5,1,0.9l0.2-1h1.2
			v11.7h-1.5v-4c-0.3,0.3-0.6,0.6-1,0.7s-0.8,0.2-1.3,0.2c-1,0-1.8-0.4-2.4-1.1c-0.6-0.7-0.9-1.7-0.9-2.9V218.1z M1020.4,218.3
			c0,0.9,0.2,1.5,0.5,2.1c0.4,0.5,0.9,0.8,1.6,0.8c0.4,0,0.8-0.1,1.1-0.3c0.3-0.2,0.6-0.5,0.8-0.8v-4.3c-0.2-0.3-0.5-0.6-0.8-0.7
			c-0.3-0.2-0.7-0.3-1.1-0.3c-0.7,0-1.3,0.3-1.6,0.9c-0.4,0.6-0.5,1.4-0.5,2.4V218.3z"/>
		<path class="st12" d="M1033.7,220.9c-0.3,0.5-0.6,0.8-1,1c-0.4,0.2-0.9,0.4-1.4,0.4c-0.9,0-1.6-0.3-2.2-0.9
			c-0.5-0.6-0.8-1.5-0.8-2.8v-5h1.5v5c0,0.9,0.1,1.5,0.4,1.9c0.3,0.3,0.7,0.5,1.2,0.5c0.5,0,1-0.1,1.4-0.3c0.4-0.2,0.6-0.5,0.8-0.9
			v-6.1h1.5v8.5h-1.4L1033.7,220.9z"/>
		<path class="st12" d="M1040.9,222.3c-1.2,0-2.1-0.4-2.8-1.2c-0.7-0.8-1-1.8-1-3.1v-0.3c0-1.2,0.4-2.2,1.1-3
			c0.7-0.8,1.6-1.2,2.5-1.2c1.1,0,2,0.3,2.6,1s0.9,1.6,0.9,2.8v1h-5.5l0,0c0,0.8,0.2,1.5,0.6,2c0.4,0.5,1,0.8,1.7,0.8
			c0.5,0,1-0.1,1.4-0.2s0.7-0.4,1-0.6l0.6,1c-0.3,0.3-0.7,0.5-1.2,0.7S1041.6,222.3,1040.9,222.3z M1040.7,214.8
			c-0.5,0-1,0.2-1.3,0.7s-0.6,1-0.7,1.6l0,0h3.9v-0.2c0-0.6-0.2-1.1-0.5-1.5C1041.8,215,1041.3,214.8,1040.7,214.8z"/>
	</g>
	<g>
		<path class="st13" d="M603.8,280.1v3.6h-2v-10h4c1.1,0,2,0.3,2.7,0.9s1,1.4,1,2.3s-0.3,1.7-1,2.3s-1.6,0.9-2.7,0.9H603.8z
			 M603.8,278.5h2c0.6,0,1-0.2,1.3-0.5c0.3-0.3,0.4-0.7,0.4-1.2c0-0.5-0.1-0.9-0.4-1.2c-0.3-0.3-0.7-0.5-1.3-0.5h-2V278.5z"/>
		<path class="st13" d="M614.7,278l-0.7,0c-0.3,0-0.5,0.1-0.7,0.2s-0.3,0.3-0.4,0.5v5h-2v-7.4h1.9l0.1,1.1c0.2-0.4,0.4-0.7,0.7-0.9
			c0.3-0.2,0.6-0.3,1-0.3c0.1,0,0.2,0,0.3,0c0.1,0,0.2,0,0.3,0.1L614.7,278z"/>
		<path class="st13" d="M617.8,274.5h-2V273h2V274.5z M617.8,283.7h-2v-7.4h2V283.7z"/>
		<path class="st13" d="M622.5,282.3c0.4,0,0.6-0.1,0.9-0.3c0.2-0.2,0.3-0.5,0.3-0.8h1.8l0,0c0,0.7-0.3,1.4-0.8,1.9
			c-0.6,0.5-1.3,0.8-2.2,0.8c-1.1,0-2-0.3-2.5-1c-0.6-0.7-0.9-1.6-0.9-2.7v-0.2c0-1.1,0.3-2,0.9-2.7s1.4-1.1,2.5-1.1
			c0.9,0,1.6,0.3,2.2,0.8c0.6,0.5,0.8,1.2,0.8,2.1l0,0h-1.8c0-0.4-0.1-0.7-0.3-1c-0.2-0.3-0.5-0.4-0.9-0.4c-0.5,0-0.9,0.2-1.1,0.6
			c-0.2,0.4-0.3,0.9-0.3,1.6v0.2c0,0.7,0.1,1.2,0.3,1.6C621.6,282.1,622,282.3,622.5,282.3z"/>
		<path class="st13" d="M630,283.8c-1.1,0-1.9-0.3-2.6-1c-0.6-0.7-1-1.6-1-2.6v-0.3c0-1.1,0.3-2,0.9-2.7c0.6-0.7,1.4-1.1,2.4-1.1
			c1,0,1.8,0.3,2.3,0.9c0.6,0.6,0.8,1.4,0.8,2.4v1.1h-4.4l0,0c0,0.5,0.2,0.9,0.5,1.2c0.3,0.3,0.7,0.5,1.2,0.5c0.4,0,0.8,0,1.1-0.1
			c0.3-0.1,0.6-0.2,1-0.4l0.5,1.2c-0.3,0.2-0.7,0.5-1.2,0.6C631.1,283.8,630.6,283.8,630,283.8z M629.8,277.7
			c-0.4,0-0.7,0.1-0.9,0.4c-0.2,0.3-0.3,0.7-0.4,1.1l0,0h2.4v-0.2c0-0.4-0.1-0.8-0.3-1C630.5,277.8,630.2,277.7,629.8,277.7z"/>
		<path class="st13" d="M616.3,316.2c0-1.1-0.3-1.9-0.9-2.6s-1.6-1.3-3.1-1.9c-2.9-1.1-5-2.2-6.4-3.5c-1.4-1.3-2.1-3.1-2.1-5.5
			c0-2.2,0.7-4,2.1-5.4c1.4-1.4,3.3-2.2,5.7-2.5v-4.2h3.1v4.2c2.3,0.3,4.1,1.3,5.4,2.9c1.3,1.6,2,3.6,1.9,6.1l-0.1,0.1h-5.6
			c0-1.5-0.3-2.7-0.9-3.6c-0.6-0.8-1.5-1.3-2.6-1.3c-1.1,0-2,0.3-2.5,1s-0.8,1.5-0.8,2.6c0,1,0.3,1.8,0.9,2.5
			c0.6,0.6,1.6,1.3,3.2,1.9c2.9,1.1,5,2.3,6.4,3.6s2.1,3.1,2.1,5.4c0,2.3-0.7,4.1-2.1,5.4c-1.4,1.4-3.3,2.2-5.7,2.4v3.9h-3.1V324
			c-2.4-0.2-4.4-1.1-6-2.6c-1.6-1.5-2.4-3.6-2.3-6.5l0-0.1h5.6c0,1.7,0.4,3,1.2,3.8c0.8,0.8,1.8,1.1,3.1,1.1c1.2,0,2.1-0.3,2.7-0.9
			C616,318.1,616.3,317.3,616.3,316.2z"/>
		<path class="st13" d="M655.2,323.7h-19.4V320l9.2-9.9c1.3-1.5,2.3-2.8,2.8-3.9c0.6-1,0.8-2,0.8-2.9c0-1.2-0.3-2.2-1-2.9
			s-1.6-1.1-2.7-1.1c-1.3,0-2.3,0.4-3,1.3c-0.7,0.9-1,2.1-1,3.6h-5.5l0-0.1c-0.1-2.6,0.8-4.7,2.5-6.5s4.1-2.7,7.1-2.7
			c2.9,0,5.2,0.8,6.9,2.3s2.5,3.6,2.5,6.1c0,1.7-0.5,3.3-1.4,4.8c-0.9,1.5-2.5,3.4-4.7,5.7l-5.1,5.5l0,0.1h12V323.7z"/>
		<path class="st13" d="M675.4,313.1h3.2v4.4h-3.2v6.2h-5.7v-6.2h-11.6l-0.3-3.4l11.8-18.8h5.7V313.1z M663.2,313.1h6.5v-10.3
			l-0.1,0l-0.4,0.8L663.2,313.1z"/>
		<path class="st13" d="M700.2,302.8c0,1.4-0.4,2.7-1.1,3.8s-1.8,1.9-3.1,2.6c1.5,0.6,2.7,1.5,3.6,2.7c0.9,1.2,1.3,2.5,1.3,4.1
			c0,2.6-0.9,4.7-2.7,6.1c-1.8,1.4-4.1,2.1-7,2.1c-2.9,0-5.3-0.7-7-2.1c-1.8-1.4-2.7-3.4-2.7-6.1c0-1.5,0.4-2.9,1.3-4.1
			c0.9-1.2,2.1-2.1,3.6-2.7c-1.3-0.6-2.4-1.5-3.1-2.5c-0.7-1.1-1.1-2.3-1.1-3.8c0-2.5,0.8-4.5,2.5-5.9s3.8-2.1,6.5-2.1
			c2.7,0,4.9,0.7,6.5,2.1S700.2,300.3,700.2,302.8z M695.2,315.5c0-1.3-0.4-2.3-1.1-3.1s-1.7-1.1-2.9-1.1c-1.2,0-2.2,0.4-2.9,1.1
			s-1.1,1.8-1.1,3.1c0,1.3,0.4,2.3,1.1,3.1s1.7,1.1,2.9,1.1c1.2,0,2.1-0.4,2.9-1.1C694.8,317.8,695.2,316.8,695.2,315.5z M694.5,303
			c0-1.1-0.3-2.1-0.9-2.8c-0.6-0.7-1.4-1-2.5-1c-1,0-1.9,0.3-2.4,1s-0.9,1.6-0.9,2.8c0,1.2,0.3,2.1,0.9,2.8c0.6,0.7,1.4,1,2.5,1
			c1,0,1.8-0.3,2.4-1C694.3,305.2,694.5,304.2,694.5,303z"/>
	</g>
	<path class="st5" d="M577.9,416.4H284.4c-1.7,0-3-1.3-3-3V107.9c0-1.7,1.3-3,3-3h293.5c1.7,0,3,1.3,3,3v305.5
		C580.9,415,579.5,416.4,577.9,416.4z"/>
	<path class="st5" d="M260.4,198.8H133c-1.7,0-3-1.3-3-3v-87.9c0-1.7,1.3-3,3-3h127.4c1.7,0,3,1.3,3,3v87.9
		C263.4,197.4,262,198.8,260.4,198.8z"/>
	<path class="st5" d="M260.4,306.3H133c-1.7,0-3-1.3-3-3v-87.9c0-1.7,1.3-3,3-3h127.4c1.7,0,3,1.3,3,3v87.9
		C263.4,305,262,306.3,260.4,306.3z"/>
	<path class="st5" d="M260.4,416.4H133c-1.7,0-3-1.3-3-3v-87.9c0-1.7,1.3-3,3-3h127.4c1.7,0,3,1.3,3,3v87.9
		C263.4,415,262,416.4,260.4,416.4z"/>
	<g class="st11">
		<path class="st12" d="M606.3,123.7v7.7H602v-21.3h8.5c2.5,0,4.4,0.6,5.8,1.9s2.1,2.9,2.1,4.9s-0.7,3.7-2.1,4.9s-3.3,1.9-5.8,1.9
			H606.3z M606.3,120.4h4.2c1.2,0,2.1-0.3,2.7-1s0.9-1.5,0.9-2.5c0-1-0.3-1.9-0.9-2.5c-0.6-0.7-1.5-1-2.7-1h-4.2V120.4z"/>
		<path class="st12" d="M629.5,119.2l-1.6,0c-0.6,0-1.2,0.1-1.6,0.4s-0.7,0.6-0.9,1.1v10.7h-4.3v-15.8h4l0.2,2.3
			c0.4-0.8,0.9-1.5,1.4-1.9c0.6-0.5,1.3-0.7,2-0.7c0.2,0,0.4,0,0.6,0.1c0.2,0,0.4,0.1,0.5,0.1L629.5,119.2z"/>
		<path class="st12" d="M631,123.3c0-2.4,0.7-4.3,2-5.8s3.1-2.3,5.5-2.3c2.3,0,4.2,0.8,5.5,2.3s2,3.4,2,5.8v0.3c0,2.4-0.7,4.3-2,5.8
			c-1.3,1.5-3.2,2.2-5.5,2.2c-2.3,0-4.2-0.8-5.5-2.2c-1.3-1.5-2-3.4-2-5.8V123.3z M635.3,123.6c0,1.4,0.3,2.6,0.8,3.5
			c0.5,0.9,1.3,1.3,2.5,1.3c1.1,0,1.9-0.4,2.4-1.3c0.5-0.9,0.8-2,0.8-3.5v-0.3c0-1.4-0.3-2.5-0.8-3.4s-1.3-1.3-2.4-1.3
			c-1.1,0-1.9,0.4-2.4,1.3c-0.5,0.9-0.8,2-0.8,3.4V123.6z"/>
		<path class="st12" d="M648,123.6c0-2.5,0.5-4.5,1.6-6c1.1-1.5,2.6-2.3,4.6-2.3c0.8,0,1.5,0.2,2.1,0.5s1.2,0.8,1.7,1.5v-8.7h4.3
			v22.9h-3.7l-0.4-1.9c-0.5,0.7-1.1,1.3-1.8,1.7c-0.7,0.4-1.5,0.6-2.3,0.6c-1.9,0-3.5-0.7-4.5-2.1c-1.1-1.4-1.6-3.3-1.6-5.7V123.6z
			 M652.2,123.9c0,1.4,0.2,2.5,0.7,3.3s1.2,1.2,2.3,1.2c0.6,0,1.2-0.1,1.6-0.4c0.5-0.3,0.8-0.6,1.1-1.1v-6.8
			c-0.3-0.5-0.7-0.9-1.1-1.2c-0.5-0.3-1-0.4-1.6-0.4c-1,0-1.8,0.5-2.3,1.4c-0.5,0.9-0.7,2.2-0.7,3.7V123.9z"/>
		<path class="st12" d="M675.2,129.1c-0.5,0.8-1.1,1.5-1.9,1.9s-1.6,0.7-2.6,0.7c-1.7,0-3-0.5-3.9-1.6c-0.9-1.1-1.4-2.7-1.4-5v-9.6
			h4.3v9.6c0,1.2,0.2,2,0.6,2.5s1,0.8,1.7,0.8c0.7,0,1.3-0.1,1.8-0.3c0.5-0.2,0.9-0.5,1.2-1v-11.6h4.3v15.8h-3.6L675.2,129.1z"/>
		<path class="st12" d="M689.1,128.4c0.8,0,1.4-0.2,1.8-0.7c0.5-0.4,0.7-1,0.7-1.8h3.9l0,0.1c0,1.6-0.6,2.9-1.8,4
			c-1.2,1.1-2.8,1.6-4.6,1.6c-2.4,0-4.2-0.7-5.5-2.2s-1.9-3.4-1.9-5.8v-0.4c0-2.3,0.6-4.3,1.9-5.8c1.3-1.5,3.1-2.3,5.5-2.3
			c2,0,3.5,0.6,4.7,1.7c1.2,1.1,1.8,2.6,1.7,4.4l0,0.1h-3.9c0-0.8-0.2-1.5-0.7-2s-1.1-0.8-1.9-0.8c-1.1,0-1.9,0.4-2.4,1.3
			c-0.5,0.9-0.7,2-0.7,3.4v0.4c0,1.4,0.2,2.6,0.7,3.4C687.2,128,688,128.4,689.1,128.4z"/>
		<path class="st12" d="M703.1,111.7v3.9h2.7v3h-2.7v8.1c0,0.6,0.1,1.1,0.4,1.3s0.6,0.4,1,0.4c0.2,0,0.4,0,0.6,0
			c0.2,0,0.3-0.1,0.6-0.1l0.4,3.1c-0.4,0.1-0.8,0.3-1.3,0.3s-0.9,0.1-1.3,0.1c-1.5,0-2.6-0.4-3.4-1.2c-0.8-0.8-1.2-2.1-1.2-3.9v-8.1
			h-2.3v-3h2.3v-3.9H703.1z"/>
		<path class="st12" d="M721,111.7v3.9h2.7v3H721v8.1c0,0.6,0.1,1.1,0.4,1.3s0.6,0.4,1,0.4c0.2,0,0.4,0,0.6,0c0.2,0,0.3-0.1,0.6-0.1
			l0.4,3.1c-0.4,0.1-0.8,0.3-1.3,0.3s-0.9,0.1-1.3,0.1c-1.5,0-2.6-0.4-3.4-1.2c-0.8-0.8-1.2-2.1-1.2-3.9v-8.1h-2.3v-3h2.3v-3.9H721z
			"/>
		<path class="st12" d="M730.9,111.7h-4.3v-3.2h4.3V111.7z M730.9,131.4h-4.3v-15.8h4.3V131.4z"/>
		<path class="st12" d="M739.5,111.7v3.9h2.7v3h-2.7v8.1c0,0.6,0.1,1.1,0.4,1.3s0.6,0.4,1,0.4c0.2,0,0.4,0,0.6,0
			c0.2,0,0.3-0.1,0.6-0.1l0.4,3.1c-0.4,0.1-0.8,0.3-1.3,0.3s-0.9,0.1-1.3,0.1c-1.5,0-2.6-0.4-3.4-1.2c-0.8-0.8-1.2-2.1-1.2-3.9v-8.1
			h-2.3v-3h2.3v-3.9H739.5z"/>
		<path class="st12" d="M749.4,131.4h-4.3v-22.9h4.3V131.4z"/>
		<path class="st12" d="M759.9,131.7c-2.3,0-4.1-0.7-5.5-2.2s-2.1-3.3-2.1-5.6v-0.6c0-2.4,0.6-4.3,1.9-5.8c1.3-1.5,3-2.3,5.2-2.3
			c2.1,0,3.8,0.6,5,1.9s1.8,3,1.8,5.2v2.3h-9.5l0,0.1c0.1,1,0.4,1.9,1,2.6c0.6,0.7,1.5,1,2.5,1c0.9,0,1.7-0.1,2.4-0.3
			s1.3-0.5,2.1-0.9l1.2,2.6c-0.6,0.5-1.5,1-2.5,1.3C762.4,131.5,761.2,131.7,759.9,131.7z M759.6,118.5c-0.8,0-1.4,0.3-1.9,0.9
			s-0.7,1.4-0.8,2.4l0,0.1h5.2v-0.4c0-0.9-0.2-1.6-0.6-2.2C761.1,118.8,760.4,118.5,759.6,118.5z"/>
	</g>
	<rect x="600" y="359.9" class="st14" width="56.5" height="56.5"/>
	<path class="st5" d="M901.9,416.4H669c-1.7,0-3-1.4-3-3V363c0-1.7,1.4-3,3-3h232.8c1.7,0,3,1.4,3,3v50.4
		C904.9,415,903.5,416.4,901.9,416.4z"/>
	<g class="st11">
		<path class="st12" d="M728.2,396.3c-0.1-0.3-0.3-0.7-0.4-1.1c-0.1-0.4-0.2-0.8-0.2-1.1c-0.4,0.7-0.9,1.3-1.6,1.8s-1.5,0.7-2.4,0.7
			c-1.5,0-2.7-0.4-3.6-1.2c-0.8-0.8-1.3-1.9-1.3-3.3c0-1.4,0.6-2.6,1.7-3.4c1.1-0.8,2.7-1.2,4.9-1.2h2.2v-1.2c0-0.7-0.2-1.3-0.6-1.7
			c-0.4-0.4-0.9-0.6-1.7-0.6c-0.6,0-1.1,0.2-1.5,0.5c-0.4,0.3-0.5,0.8-0.5,1.3l-3.9,0l0-0.1c-0.1-1.2,0.5-2.3,1.6-3.2
			c1.1-0.9,2.7-1.4,4.5-1.4c1.8,0,3.2,0.4,4.3,1.3c1.1,0.9,1.7,2.2,1.7,3.8v6.1c0,0.7,0.1,1.3,0.2,2c0.1,0.6,0.3,1.2,0.5,1.8H728.2z
			 M724.5,393.6c0.7,0,1.3-0.2,1.9-0.5c0.5-0.3,0.9-0.7,1.1-1.2v-2.1h-2.2c-0.8,0-1.5,0.2-1.9,0.6s-0.7,0.9-0.7,1.5
			c0,0.5,0.2,0.9,0.5,1.2S723.9,393.6,724.5,393.6z"/>
		<path class="st12" d="M733.9,389c0-2.3,0.5-4.2,1.5-5.6c1-1.4,2.4-2.1,4.3-2.1c0.7,0,1.4,0.2,2,0.5c0.6,0.3,1.1,0.8,1.6,1.4v-8.1
			h4v21.3h-3.4l-0.3-1.8c-0.5,0.7-1,1.2-1.6,1.6c-0.6,0.4-1.4,0.5-2.2,0.5c-1.8,0-3.2-0.7-4.2-2c-1-1.3-1.5-3.1-1.5-5.3V389z
			 M737.9,389.3c0,1.3,0.2,2.3,0.7,3.1c0.4,0.7,1.1,1.1,2.1,1.1c0.6,0,1.1-0.1,1.5-0.4c0.4-0.2,0.8-0.6,1.1-1v-6.3
			c-0.3-0.5-0.6-0.8-1-1.1c-0.4-0.3-0.9-0.4-1.5-0.4c-1,0-1.7,0.4-2.1,1.3s-0.7,2-0.7,3.4V389.3z"/>
		<path class="st12" d="M749.7,389c0-2.3,0.5-4.2,1.5-5.6c1-1.4,2.4-2.1,4.3-2.1c0.7,0,1.4,0.2,2,0.5c0.6,0.3,1.1,0.8,1.6,1.4v-8.1
			h4v21.3h-3.4l-0.3-1.8c-0.5,0.7-1,1.2-1.6,1.6c-0.6,0.4-1.4,0.5-2.2,0.5c-1.8,0-3.2-0.7-4.2-2c-1-1.3-1.5-3.1-1.5-5.3V389z
			 M753.7,389.3c0,1.3,0.2,2.3,0.7,3.1c0.4,0.7,1.1,1.1,2.1,1.1c0.6,0,1.1-0.1,1.5-0.4c0.4-0.2,0.8-0.6,1.1-1v-6.3
			c-0.3-0.5-0.6-0.8-1-1.1c-0.4-0.3-0.9-0.4-1.5-0.4c-1,0-1.7,0.4-2.1,1.3s-0.7,2-0.7,3.4V389.3z"/>
		<path class="st12" d="M777.8,377.8v3.6h2.5v2.8h-2.5v7.5c0,0.6,0.1,1,0.4,1.2c0.2,0.2,0.6,0.4,1,0.4c0.2,0,0.4,0,0.5,0
			c0.2,0,0.3-0.1,0.5-0.1l0.3,2.9c-0.4,0.1-0.8,0.2-1.2,0.3s-0.8,0.1-1.2,0.1c-1.4,0-2.4-0.4-3.2-1.1c-0.7-0.8-1.1-2-1.1-3.6v-7.5
			h-2.2v-2.8h2.2v-3.6H777.8z"/>
		<path class="st12" d="M782.3,388.7c0-2.2,0.6-4,1.8-5.4s2.9-2.1,5.1-2.1c2.2,0,3.9,0.7,5.1,2.1c1.2,1.4,1.9,3.2,1.9,5.4v0.3
			c0,2.2-0.6,4-1.9,5.4c-1.2,1.4-2.9,2.1-5.1,2.1c-2.2,0-3.9-0.7-5.1-2.1c-1.2-1.4-1.9-3.2-1.9-5.4V388.7z M786.2,389
			c0,1.3,0.2,2.4,0.7,3.2c0.5,0.8,1.2,1.2,2.3,1.2c1,0,1.8-0.4,2.3-1.2c0.5-0.8,0.7-1.9,0.7-3.2v-0.3c0-1.3-0.2-2.4-0.7-3.2
			c-0.5-0.8-1.2-1.2-2.3-1.2c-1,0-1.8,0.4-2.3,1.2c-0.5,0.8-0.7,1.9-0.7,3.2V389z"/>
		<path class="st12" d="M811.9,393.5c0.7,0,1.3-0.2,1.7-0.6c0.4-0.4,0.6-1,0.6-1.7h3.6l0,0.1c0,1.5-0.5,2.7-1.7,3.8
			c-1.2,1-2.6,1.5-4.3,1.5c-2.2,0-3.9-0.7-5.1-2.1c-1.2-1.4-1.8-3.2-1.8-5.4v-0.4c0-2.2,0.6-4,1.8-5.4c1.2-1.4,2.9-2.1,5.1-2.1
			c1.8,0,3.3,0.5,4.4,1.6c1.1,1,1.7,2.4,1.6,4.1l0,0.1h-3.6c0-0.8-0.2-1.4-0.6-1.9c-0.4-0.5-1-0.8-1.7-0.8c-1.1,0-1.8,0.4-2.2,1.2
			c-0.4,0.8-0.7,1.9-0.7,3.2v0.4c0,1.3,0.2,2.4,0.7,3.2C810,393.1,810.8,393.5,811.9,393.5z"/>
		<path class="st12" d="M828.8,396.3c-0.1-0.3-0.3-0.7-0.4-1.1c-0.1-0.4-0.2-0.8-0.2-1.1c-0.4,0.7-0.9,1.3-1.6,1.8s-1.5,0.7-2.4,0.7
			c-1.5,0-2.7-0.4-3.6-1.2c-0.8-0.8-1.3-1.9-1.3-3.3c0-1.4,0.6-2.6,1.7-3.4c1.1-0.8,2.7-1.2,4.9-1.2h2.2v-1.2c0-0.7-0.2-1.3-0.6-1.7
			c-0.4-0.4-0.9-0.6-1.7-0.6c-0.6,0-1.1,0.2-1.5,0.5c-0.4,0.3-0.5,0.8-0.5,1.3l-3.9,0l0-0.1c-0.1-1.2,0.5-2.3,1.6-3.2
			c1.1-0.9,2.7-1.4,4.5-1.4c1.8,0,3.2,0.4,4.3,1.3c1.1,0.9,1.7,2.2,1.7,3.8v6.1c0,0.7,0.1,1.3,0.2,2c0.1,0.6,0.3,1.2,0.5,1.8H828.8z
			 M825.2,393.6c0.7,0,1.3-0.2,1.9-0.5c0.5-0.3,0.9-0.7,1.1-1.2v-2.1h-2.2c-0.8,0-1.5,0.2-1.9,0.6s-0.7,0.9-0.7,1.5
			c0,0.5,0.2,0.9,0.5,1.2S824.6,393.6,825.2,393.6z"/>
		<path class="st12" d="M843,384.9l-1.5,0c-0.6,0-1.1,0.1-1.5,0.4s-0.7,0.6-0.9,1v10h-4v-14.8h3.7l0.2,2.2c0.3-0.8,0.8-1.4,1.3-1.8
			c0.6-0.4,1.2-0.6,1.9-0.6c0.2,0,0.4,0,0.6,0c0.2,0,0.3,0.1,0.5,0.1L843,384.9z"/>
		<path class="st12" d="M850.1,377.8v3.6h2.5v2.8h-2.5v7.5c0,0.6,0.1,1,0.4,1.2c0.2,0.2,0.6,0.4,1,0.4c0.2,0,0.4,0,0.5,0
			c0.2,0,0.3-0.1,0.5-0.1l0.3,2.9c-0.4,0.1-0.8,0.2-1.2,0.3s-0.8,0.1-1.2,0.1c-1.4,0-2.4-0.4-3.2-1.1c-0.7-0.8-1.1-2-1.1-3.6v-7.5
			h-2.2v-2.8h2.2v-3.6H850.1z"/>
	</g>
	<g class="st11">
		<path class="st12" d="M631.6,401.4h-5.7V378h-5.8v-4l11.5-1V401.4z"/>
	</g>
	<rect x="599.5" y="410.5" class="st5" width="57.3" height="6.3"/>
	<rect x="284.9" y="90.5" class="st5" width="92.6" height="3.2"/>
	<path class="st9" d="M476.5,290.2v-70.6c0-5.5-4.5-10.1-10.1-10.1h-70.6c-5.5,0-10.1,4.5-10.1,10.1v70.6c0,5.5,4.5,10.1,10.1,10.1
		h70.6C472,300.3,476.5,295.8,476.5,290.2z M413.5,262.5l12.6,15.2l17.7-22.8l22.7,30.3h-70.6L413.5,262.5z"/>
	<path class="st9" d="M216.1,167v-30.2c0-2.4-1.9-4.3-4.3-4.3h-30.2c-2.4,0-4.3,1.9-4.3,4.3V167c0,2.4,1.9,4.3,4.3,4.3h30.2
		C214.2,171.3,216.1,169.3,216.1,167z M189.1,155.1l5.4,6.5l7.6-9.7l9.7,13h-30.2L189.1,155.1z"/>
	<path class="st9" d="M216.1,275.8v-30.2c0-2.4-1.9-4.3-4.3-4.3h-30.2c-2.4,0-4.3,1.9-4.3,4.3v30.2c0,2.4,1.9,4.3,4.3,4.3h30.2
		C214.2,280.1,216.1,278.1,216.1,275.8z M189.1,263.9l5.4,6.5l7.6-9.7l9.7,13h-30.2L189.1,263.9z"/>
	<path class="st9" d="M216.1,386v-30.2c0-2.4-1.9-4.3-4.3-4.3h-30.2c-2.4,0-4.3,1.9-4.3,4.3V386c0,2.4,1.9,4.3,4.3,4.3h30.2
		C214.2,390.4,216.1,388.4,216.1,386z M189.1,374.2l5.4,6.5l7.6-9.7l9.7,13h-30.2L189.1,374.2z"/>
	<g class="st11">
		<path class="st12" d="M132.9,79.4v4.6h-1.5V72.5h4.4c1.2,0,2.2,0.3,2.8,0.9s1,1.4,1,2.5c0,1-0.3,1.9-1,2.5s-1.6,0.9-2.8,0.9H132.9
			z M132.9,78.1h2.8c0.8,0,1.3-0.2,1.7-0.6c0.4-0.4,0.6-0.9,0.6-1.6s-0.2-1.2-0.6-1.6s-1-0.6-1.7-0.6h-2.8V78.1z"/>
		<path class="st12" d="M145.4,76.8l-0.8,0c-0.4,0-0.7,0.1-1,0.3c-0.3,0.2-0.5,0.5-0.6,0.8v6h-1.5v-8.5h1.4l0.1,1.2
			c0.2-0.4,0.5-0.8,0.9-1c0.4-0.2,0.8-0.4,1.2-0.4c0.1,0,0.2,0,0.3,0c0.1,0,0.2,0,0.3,0.1L145.4,76.8z"/>
		<path class="st12" d="M146.3,79.6c0-1.3,0.3-2.3,1-3.1c0.7-0.8,1.6-1.2,2.8-1.2c1.2,0,2.1,0.4,2.8,1.2c0.7,0.8,1,1.8,1,3.1v0.2
			c0,1.3-0.3,2.3-1,3.1c-0.7,0.8-1.6,1.2-2.8,1.2s-2.1-0.4-2.8-1.2s-1-1.8-1-3.1V79.6z M147.9,79.8c0,0.9,0.2,1.6,0.6,2.2
			c0.4,0.6,0.9,0.9,1.7,0.9c0.7,0,1.3-0.3,1.7-0.9c0.4-0.6,0.6-1.3,0.6-2.2v-0.2c0-0.9-0.2-1.6-0.6-2.2s-0.9-0.9-1.7-0.9
			c-0.7,0-1.3,0.3-1.7,0.9s-0.6,1.3-0.6,2.2V79.8z"/>
		<path class="st12" d="M155.4,79.8c0-1.4,0.3-2.5,0.9-3.3c0.6-0.8,1.4-1.3,2.4-1.3c0.5,0,0.9,0.1,1.3,0.3c0.4,0.2,0.7,0.4,1,0.8
			v-4.6h1.5v12.2h-1.3l-0.2-1c-0.3,0.4-0.6,0.7-1,0.9s-0.9,0.3-1.4,0.3c-1,0-1.8-0.4-2.4-1.1c-0.6-0.7-0.9-1.7-0.9-2.9V79.8z
			 M157,80c0,0.9,0.2,1.5,0.5,2.1c0.3,0.5,0.9,0.8,1.6,0.8c0.5,0,0.8-0.1,1.2-0.3c0.3-0.2,0.6-0.5,0.8-0.9v-3.9
			c-0.2-0.3-0.5-0.6-0.8-0.8c-0.3-0.2-0.7-0.3-1.1-0.3c-0.7,0-1.3,0.3-1.6,0.9s-0.5,1.4-0.5,2.4V80z"/>
		<path class="st12" d="M170.2,82.7c-0.3,0.5-0.6,0.8-1,1c-0.4,0.2-0.9,0.4-1.4,0.4c-0.9,0-1.6-0.3-2.2-0.9
			c-0.5-0.6-0.8-1.5-0.8-2.8v-5h1.5v5c0,0.9,0.1,1.5,0.4,1.9c0.3,0.3,0.7,0.5,1.2,0.5c0.5,0,1-0.1,1.4-0.3c0.4-0.2,0.6-0.5,0.8-0.9
			v-6.1h1.5v8.5h-1.4L170.2,82.7z"/>
		<path class="st12" d="M177.4,82.9c0.5,0,1-0.2,1.3-0.5c0.4-0.3,0.6-0.7,0.6-1.2h1.4l0,0c0,0.7-0.3,1.4-1,1.9
			c-0.7,0.6-1.5,0.9-2.4,0.9c-1.2,0-2.2-0.4-2.8-1.2c-0.7-0.8-1-1.8-1-3v-0.3c0-1.2,0.3-2.2,1-3s1.6-1.2,2.8-1.2
			c1,0,1.8,0.3,2.4,0.9c0.6,0.6,0.9,1.3,0.9,2.1l0,0h-1.4c0-0.5-0.2-1-0.5-1.3c-0.4-0.4-0.8-0.5-1.4-0.5c-0.8,0-1.4,0.3-1.7,0.9
			s-0.5,1.3-0.5,2.1v0.3c0,0.9,0.2,1.6,0.5,2.2C176,82.6,176.6,82.9,177.4,82.9z"/>
		<path class="st12" d="M184.5,73.4v2h1.6v1.1h-1.6v5.1c0,0.4,0.1,0.7,0.2,0.8c0.2,0.2,0.4,0.2,0.7,0.2c0.1,0,0.2,0,0.3,0
			c0.1,0,0.2,0,0.3-0.1l0.2,1.1c-0.1,0.1-0.3,0.2-0.5,0.2s-0.4,0.1-0.7,0.1c-0.6,0-1.1-0.2-1.5-0.6c-0.4-0.4-0.6-1-0.6-1.8v-5.1
			h-1.3v-1.1h1.3v-2H184.5z"/>
		<path class="st12" d="M192.9,81.7c0-0.3-0.1-0.6-0.4-0.8s-0.7-0.4-1.5-0.6c-1-0.2-1.8-0.5-2.3-0.9c-0.5-0.4-0.8-0.9-0.8-1.6
			c0-0.7,0.3-1.3,0.9-1.8s1.3-0.7,2.3-0.7c1,0,1.8,0.3,2.3,0.8c0.6,0.5,0.9,1.1,0.8,1.8l0,0h-1.5c0-0.4-0.2-0.7-0.5-1
			c-0.3-0.3-0.7-0.4-1.2-0.4c-0.5,0-1,0.1-1.2,0.4c-0.3,0.2-0.4,0.5-0.4,0.9c0,0.3,0.1,0.6,0.4,0.8c0.2,0.2,0.7,0.4,1.4,0.5
			c1.1,0.2,1.9,0.5,2.4,0.9c0.5,0.4,0.8,0.9,0.8,1.6c0,0.8-0.3,1.4-0.9,1.8c-0.6,0.5-1.4,0.7-2.4,0.7c-1.1,0-1.9-0.3-2.5-0.8
			s-0.9-1.2-0.9-1.9l0,0h1.5c0,0.5,0.2,0.9,0.6,1.2c0.4,0.3,0.8,0.4,1.3,0.4c0.5,0,1-0.1,1.3-0.3C192.8,82.3,192.9,82,192.9,81.7z"
			/>
		<path class="st12" d="M200.7,84.9h-1.3l4.8-12.4h1.3L200.7,84.9z"/>
		<path class="st12" d="M214.4,82.9c0.5,0,1-0.2,1.3-0.5c0.4-0.3,0.6-0.7,0.6-1.2h1.4l0,0c0,0.7-0.3,1.4-1,1.9
			c-0.7,0.6-1.5,0.9-2.4,0.9c-1.2,0-2.2-0.4-2.8-1.2c-0.7-0.8-1-1.8-1-3v-0.3c0-1.2,0.3-2.2,1-3s1.6-1.2,2.8-1.2
			c1,0,1.8,0.3,2.4,0.9c0.6,0.6,0.9,1.3,0.9,2.1l0,0h-1.4c0-0.5-0.2-1-0.5-1.3c-0.4-0.4-0.8-0.5-1.4-0.5c-0.8,0-1.4,0.3-1.7,0.9
			s-0.5,1.3-0.5,2.1v0.3c0,0.9,0.2,1.6,0.5,2.2C213,82.6,213.6,82.9,214.4,82.9z"/>
		<path class="st12" d="M224.6,83.9c-0.1-0.3-0.1-0.5-0.1-0.7s0-0.4-0.1-0.6c-0.3,0.4-0.7,0.7-1.1,1s-1,0.4-1.5,0.4
			c-0.9,0-1.6-0.2-2-0.7c-0.5-0.5-0.7-1.1-0.7-1.9c0-0.8,0.3-1.4,1-1.9c0.7-0.5,1.5-0.7,2.7-0.7h1.7v-0.8c0-0.5-0.2-0.9-0.5-1.2
			s-0.7-0.4-1.3-0.4c-0.5,0-0.9,0.1-1.2,0.4c-0.3,0.3-0.5,0.6-0.5,0.9h-1.5l0,0c0-0.6,0.3-1.2,0.9-1.7c0.6-0.5,1.4-0.8,2.4-0.8
			c1,0,1.7,0.2,2.3,0.7c0.6,0.5,0.9,1.2,0.9,2.1v4.1c0,0.3,0,0.6,0,0.9s0.1,0.6,0.2,0.8H224.6z M222.1,82.8c0.6,0,1.1-0.1,1.5-0.4
			c0.4-0.3,0.7-0.6,0.9-1V80h-1.7c-0.6,0-1.1,0.2-1.5,0.5s-0.6,0.7-0.6,1.1c0,0.4,0.1,0.7,0.4,0.9C221.3,82.7,221.6,82.8,222.1,82.8
			z"/>
		<path class="st12" d="M230.3,73.4v2h1.6v1.1h-1.6v5.1c0,0.4,0.1,0.7,0.2,0.8c0.2,0.2,0.4,0.2,0.7,0.2c0.1,0,0.2,0,0.3,0
			c0.1,0,0.2,0,0.3-0.1l0.2,1.1c-0.1,0.1-0.3,0.2-0.5,0.2c-0.2,0.1-0.4,0.1-0.7,0.1c-0.6,0-1.1-0.2-1.5-0.6c-0.4-0.4-0.6-1-0.6-1.8
			v-5.1h-1.3v-1.1h1.3v-2H230.3z"/>
		<path class="st12" d="M237.3,84.1c-1.2,0-2.1-0.4-2.8-1.2c-0.7-0.8-1-1.8-1-3.1v-0.3c0-1.2,0.4-2.2,1.1-3c0.7-0.8,1.6-1.2,2.5-1.2
			c1.1,0,2,0.3,2.6,1c0.6,0.7,0.9,1.6,0.9,2.8v1H235l0,0c0,0.8,0.2,1.5,0.6,2c0.4,0.5,0.9,0.8,1.7,0.8c0.5,0,1-0.1,1.4-0.2
			c0.4-0.1,0.7-0.4,1-0.6l0.6,1c-0.3,0.3-0.7,0.5-1.2,0.7C238.6,84,238,84.1,237.3,84.1z M237.1,76.5c-0.5,0-1,0.2-1.3,0.7
			c-0.4,0.4-0.6,1-0.7,1.6l0,0h3.9v-0.2c0-0.6-0.2-1.1-0.5-1.5C238.2,76.7,237.7,76.5,237.1,76.5z"/>
		<path class="st12" d="M241.9,79.8c0-1.4,0.3-2.5,0.9-3.3c0.6-0.8,1.4-1.3,2.5-1.3c0.5,0,1,0.1,1.4,0.3c0.4,0.2,0.7,0.5,1,0.9
			l0.2-1.1h1.2V84c0,1.1-0.3,1.9-0.9,2.5c-0.6,0.6-1.5,0.9-2.7,0.9c-0.4,0-0.8-0.1-1.3-0.2c-0.5-0.1-0.9-0.3-1.2-0.5l0.4-1.2
			c0.3,0.2,0.6,0.3,1,0.4s0.8,0.1,1.2,0.1c0.8,0,1.3-0.2,1.6-0.5c0.3-0.3,0.5-0.9,0.5-1.6v-1c-0.3,0.4-0.6,0.6-1,0.8
			c-0.4,0.2-0.8,0.3-1.3,0.3c-1,0-1.9-0.4-2.4-1.1s-0.9-1.7-0.9-2.9V79.8z M243.4,80c0,0.8,0.2,1.5,0.5,2s0.9,0.8,1.6,0.8
			c0.5,0,0.9-0.1,1.2-0.3s0.6-0.5,0.8-0.9v-3.9c-0.2-0.4-0.5-0.6-0.8-0.9c-0.3-0.2-0.7-0.3-1.1-0.3c-0.7,0-1.3,0.3-1.6,0.9
			c-0.4,0.6-0.5,1.4-0.5,2.4V80z"/>
		<path class="st12" d="M251,79.6c0-1.3,0.3-2.3,1-3.1c0.7-0.8,1.6-1.2,2.8-1.2c1.2,0,2.1,0.4,2.8,1.2c0.7,0.8,1,1.8,1,3.1v0.2
			c0,1.3-0.3,2.3-1,3.1c-0.7,0.8-1.6,1.2-2.8,1.2c-1.2,0-2.1-0.4-2.8-1.2s-1-1.8-1-3.1V79.6z M252.5,79.8c0,0.9,0.2,1.6,0.6,2.2
			c0.4,0.6,0.9,0.9,1.7,0.9c0.7,0,1.3-0.3,1.7-0.9c0.4-0.6,0.6-1.3,0.6-2.2v-0.2c0-0.9-0.2-1.6-0.6-2.2s-0.9-0.9-1.7-0.9
			c-0.7,0-1.3,0.3-1.7,0.9c-0.4,0.6-0.6,1.3-0.6,2.2V79.8z"/>
		<path class="st12" d="M264.4,76.8l-0.8,0c-0.4,0-0.8,0.1-1,0.3c-0.3,0.2-0.5,0.5-0.6,0.8v6h-1.5v-8.5h1.4l0.1,1.2
			c0.2-0.4,0.5-0.8,0.9-1c0.4-0.2,0.8-0.4,1.2-0.4c0.1,0,0.2,0,0.3,0c0.1,0,0.2,0,0.3,0.1L264.4,76.8z"/>
		<path class="st12" d="M268.6,80.8l0.3,1.1h0l2.1-6.4h1.7l-3.6,9.8c-0.2,0.6-0.5,1.1-0.9,1.5s-0.9,0.6-1.6,0.6c-0.1,0-0.3,0-0.5,0
			c-0.2,0-0.3-0.1-0.4-0.1l0.2-1.2c0,0,0.1,0,0.3,0c0.2,0,0.4,0,0.4,0c0.3,0,0.6-0.1,0.8-0.4c0.2-0.3,0.4-0.6,0.5-1l0.4-0.9
			l-3.1-8.3h1.7L268.6,80.8z"/>
		<path class="st12" d="M278.4,84.9h-1.3l4.8-12.4h1.3L278.4,84.9z"/>
		<path class="st12" d="M295.9,80c0,1.2-0.3,2.2-0.9,2.9c-0.6,0.7-1.4,1.1-2.4,1.1c-0.5,0-1-0.1-1.4-0.3c-0.4-0.2-0.7-0.4-1-0.8v4.1
			h-1.5V75.5h1.2l0.2,1.1c0.3-0.4,0.6-0.7,1-0.9c0.4-0.2,0.9-0.3,1.4-0.3c1,0,1.9,0.4,2.4,1.2c0.6,0.8,0.9,1.9,0.9,3.3V80z
			 M294.4,79.8c0-1-0.2-1.7-0.6-2.4c-0.4-0.6-0.9-0.9-1.7-0.9c-0.4,0-0.8,0.1-1.1,0.3s-0.6,0.5-0.8,0.8v4.1c0.2,0.3,0.4,0.6,0.8,0.8
			c0.3,0.2,0.7,0.3,1.1,0.3c0.7,0,1.3-0.3,1.7-0.8s0.6-1.2,0.6-2.1V79.8z"/>
		<path class="st12" d="M301.8,76.8l-0.8,0c-0.4,0-0.8,0.1-1,0.3c-0.3,0.2-0.5,0.5-0.6,0.8v6h-1.5v-8.5h1.4l0.1,1.2
			c0.2-0.4,0.5-0.8,0.9-1c0.4-0.2,0.8-0.4,1.2-0.4c0.1,0,0.2,0,0.3,0c0.1,0,0.2,0,0.3,0.1L301.8,76.8z"/>
		<path class="st12" d="M302.8,79.6c0-1.3,0.3-2.3,1-3.1c0.7-0.8,1.6-1.2,2.8-1.2c1.2,0,2.1,0.4,2.8,1.2c0.7,0.8,1,1.8,1,3.1v0.2
			c0,1.3-0.3,2.3-1,3.1c-0.7,0.8-1.6,1.2-2.8,1.2c-1.2,0-2.1-0.4-2.8-1.2s-1-1.8-1-3.1V79.6z M304.3,79.8c0,0.9,0.2,1.6,0.6,2.2
			c0.4,0.6,0.9,0.9,1.7,0.9c0.7,0,1.3-0.3,1.7-0.9c0.4-0.6,0.6-1.3,0.6-2.2v-0.2c0-0.9-0.2-1.6-0.6-2.2s-0.9-0.9-1.7-0.9
			c-0.7,0-1.3,0.3-1.7,0.9c-0.4,0.6-0.6,1.3-0.6,2.2V79.8z"/>
		<path class="st12" d="M311.9,79.8c0-1.4,0.3-2.5,0.9-3.3c0.6-0.8,1.4-1.3,2.4-1.3c0.5,0,0.9,0.1,1.3,0.3c0.4,0.2,0.7,0.4,1,0.8
			v-4.6h1.5v12.2h-1.3l-0.2-1c-0.3,0.4-0.6,0.7-1,0.9c-0.4,0.2-0.9,0.3-1.4,0.3c-1,0-1.8-0.4-2.4-1.1c-0.6-0.7-0.9-1.7-0.9-2.9V79.8
			z M313.4,80c0,0.9,0.2,1.5,0.5,2.1c0.3,0.5,0.9,0.8,1.6,0.8c0.5,0,0.8-0.1,1.2-0.3c0.3-0.2,0.6-0.5,0.8-0.9v-3.9
			c-0.2-0.3-0.5-0.6-0.8-0.8c-0.3-0.2-0.7-0.3-1.1-0.3c-0.7,0-1.3,0.3-1.6,0.9s-0.5,1.4-0.5,2.4V80z"/>
		<path class="st12" d="M326.7,82.7c-0.3,0.5-0.6,0.8-1,1c-0.4,0.2-0.9,0.4-1.4,0.4c-0.9,0-1.6-0.3-2.2-0.9
			c-0.5-0.6-0.8-1.5-0.8-2.8v-5h1.5v5c0,0.9,0.1,1.5,0.4,1.9c0.3,0.3,0.7,0.5,1.2,0.5c0.5,0,1-0.1,1.4-0.3c0.4-0.2,0.6-0.5,0.8-0.9
			v-6.1h1.5v8.5h-1.4L326.7,82.7z"/>
		<path class="st12" d="M333.8,82.9c0.5,0,1-0.2,1.3-0.5c0.4-0.3,0.6-0.7,0.6-1.2h1.4l0,0c0,0.7-0.3,1.4-1,1.9
			c-0.7,0.6-1.5,0.9-2.4,0.9c-1.2,0-2.2-0.4-2.8-1.2c-0.7-0.8-1-1.8-1-3v-0.3c0-1.2,0.3-2.2,1-3c0.7-0.8,1.6-1.2,2.8-1.2
			c1,0,1.8,0.3,2.4,0.9c0.6,0.6,0.9,1.3,0.9,2.1l0,0h-1.4c0-0.5-0.2-1-0.5-1.3c-0.4-0.4-0.8-0.5-1.4-0.5c-0.8,0-1.4,0.3-1.7,0.9
			c-0.3,0.6-0.5,1.3-0.5,2.1v0.3c0,0.9,0.2,1.6,0.5,2.2C332.4,82.6,333,82.9,333.8,82.9z"/>
		<path class="st12" d="M340.9,73.4v2h1.6v1.1h-1.6v5.1c0,0.4,0.1,0.7,0.2,0.8c0.2,0.2,0.4,0.2,0.7,0.2c0.1,0,0.2,0,0.3,0
			c0.1,0,0.2,0,0.3-0.1l0.2,1.1c-0.1,0.1-0.3,0.2-0.5,0.2c-0.2,0.1-0.4,0.1-0.7,0.1c-0.6,0-1.1-0.2-1.5-0.6c-0.4-0.4-0.6-1-0.6-1.8
			v-5.1H338v-1.1h1.3v-2H340.9z"/>
		<path class="st12" d="M350.4,73.4v2h1.6v1.1h-1.6v5.1c0,0.4,0.1,0.7,0.2,0.8c0.2,0.2,0.4,0.2,0.7,0.2c0.1,0,0.2,0,0.3,0
			c0.1,0,0.2,0,0.3-0.1l0.2,1.1c-0.1,0.1-0.3,0.2-0.5,0.2c-0.2,0.1-0.4,0.1-0.7,0.1c-0.6,0-1.1-0.2-1.5-0.6c-0.4-0.4-0.6-1-0.6-1.8
			v-5.1h-1.3v-1.1h1.3v-2H350.4z"/>
		<path class="st12" d="M355.6,73.3h-1.5v-1.6h1.5V73.3z M355.6,83.9h-1.5v-8.5h1.5V83.9z"/>
		<path class="st12" d="M360,73.4v2h1.6v1.1H360v5.1c0,0.4,0.1,0.7,0.2,0.8c0.2,0.2,0.4,0.2,0.7,0.2c0.1,0,0.2,0,0.3,0
			c0.1,0,0.2,0,0.3-0.1l0.2,1.1c-0.1,0.1-0.3,0.2-0.5,0.2c-0.2,0.1-0.4,0.1-0.7,0.1c-0.6,0-1.1-0.2-1.5-0.6c-0.4-0.4-0.6-1-0.6-1.8
			v-5.1h-1.3v-1.1h1.3v-2H360z"/>
		<path class="st12" d="M365.2,83.9h-1.5V71.7h1.5V83.9z"/>
		<path class="st12" d="M371,84.1c-1.2,0-2.1-0.4-2.8-1.2c-0.7-0.8-1-1.8-1-3.1v-0.3c0-1.2,0.4-2.2,1.1-3c0.7-0.8,1.6-1.2,2.5-1.2
			c1.1,0,2,0.3,2.6,1c0.6,0.7,0.9,1.6,0.9,2.8v1h-5.5l0,0c0,0.8,0.2,1.5,0.6,2c0.4,0.5,0.9,0.8,1.7,0.8c0.5,0,1-0.1,1.4-0.2
			c0.4-0.1,0.7-0.4,1-0.6l0.6,1c-0.3,0.3-0.7,0.5-1.2,0.7C372.3,84,371.7,84.1,371,84.1z M370.8,76.5c-0.5,0-1,0.2-1.3,0.7
			c-0.4,0.4-0.6,1-0.7,1.6l0,0h3.9v-0.2c0-0.6-0.2-1.1-0.5-1.5C371.9,76.7,371.4,76.5,370.8,76.5z"/>
	</g>
	<g>
		<rect x="50" class="st5" width="1100" height="43.9"/>
		<circle class="st29" cx="75.7" cy="22.1" r="7.6"/>
		<circle class="st29" cx="105.1" cy="22.1" r="7.6"/>
		<circle class="st29" cx="134.1" cy="22.1" r="7.6"/>
		<path class="st29" d="M864,29.7H196.9c-4.2,0-7.6-3.4-7.6-7.6v0c0-4.2,3.4-7.6,7.6-7.6H864c4.2,0,7.6,3.4,7.6,7.6v0
			C871.6,26.3,868.2,29.7,864,29.7z"/>
		<path class="st29" d="M1129.5,21.9l6.7-6.7c0.8-0.8,0.8-2,0-2.8s-2-0.8-2.8,0l-6.7,6.7l-6.7-6.7c-0.8-0.8-2-0.8-2.8,0
			s-0.8,2,0,2.8l6.7,6.7l-6.7,6.7c-0.8,0.8-0.8,2,0,2.8c0.4,0.4,0.9,0.6,1.4,0.6s1-0.2,1.4-0.6l6.7-6.7l6.7,6.7
			c0.4,0.4,0.9,0.6,1.4,0.6s1-0.2,1.4-0.6c0.8-0.8,0.8-2,0-2.8L1129.5,21.9z"/>
	</g>
</g>
<g id="Layer_3" class="st32">
</g>
</svg>
