<?xml version="1.0" encoding="utf-8"?>
<!-- Generator: Adobe Illustrator 20.0.0, SVG Export Plug-In . SVG Version: 6.00 Build 0)  -->
<svg version="1.1" xmlns="http://www.w3.org/2000/svg" xmlns:xlink="http://www.w3.org/1999/xlink" x="0px" y="0px"
	 viewBox="0 0 224.7 140.2" style="enable-background:new 0 0 224.7 140.2;" xml:space="preserve">
<style type="text/css">
	.st0{fill:#F1F2F2;}
	.st1{fill:#FFFFFF;stroke:#FFFFFF;stroke-miterlimit:10;}
	.st2{fill:#6D6E71;}
	.st3{fill:none;stroke:#231F20;stroke-miterlimit:10;}
	.st4{fill:#FFFFFF;}
	.st5{fill:#FFFFFF;stroke:#231F20;stroke-miterlimit:10;}
	.st6{fill:#D1D3D4;}
	.st7{fill:none;stroke:#000000;stroke-miterlimit:10;}
	.st8{fill:#E6E7E8;}
	.st9{fill:none;stroke:#939598;stroke-miterlimit:10;}
	.st10{fill:#939598;}
	.st11{fill:#70758D;}
	.st12{opacity:0.6;}
	.st13{fill:#2E375D;}
	.st14{opacity:0.6;fill:#2E375D;}
	.st15{opacity:0.3;fill:none;stroke:#2E375D;stroke-miterlimit:10;}
	.st16{fill:#2CE5B5;}
	.st17{fill:#00C6AD;}
	.st18{fill:#25B0E5;}
	.st19{fill:#4275F4;}
	.st20{fill:none;}
	.st21{fill:none;stroke:#AFAFAF;stroke-miterlimit:10;}
	.st22{fill:none;stroke:#FFFFFF;stroke-miterlimit:10;}
	.st23{fill:#DCDCDC;}
	.st24{fill:none;stroke:#DCDCDC;stroke-miterlimit:10;}
	.st25{fill:#A7A9AC;}
	.st26{fill:#00AEEF;}
	.st27{fill:#BCBEC0;}
	.st28{opacity:0.6;fill:#FFFFFF;}
	.st29{opacity:0.3;fill:none;stroke:#2E375D;stroke-width:3;stroke-miterlimit:10;}
	.st30{fill:none;stroke:#70758D;stroke-width:5;stroke-miterlimit:10;}
	.st31{opacity:0.3;fill:#2E375D;}
	.st32{opacity:0.3;}
	.st33{fill:none;stroke:#2E375D;stroke-width:4;stroke-linecap:round;stroke-miterlimit:10;}
	.st34{fill:#808285;}
	.st35{fill:#58595B;}
	.st36{fill:#58595B;stroke:#414042;stroke-miterlimit:10;}
	.st37{fill:#414042;stroke:#414042;stroke-miterlimit:10;}
	.st38{fill:#58595B;stroke:#414042;stroke-width:2;stroke-miterlimit:10;}
	.st39{fill:#414042;}
	.st40{fill:#BC6D4F;}
	.st41{fill:#E23940;}
	.st42{fill:#5161AC;}
	.st43{fill:none;stroke:#58595B;stroke-miterlimit:10;}
	.st44{fill:#6CC06A;}
	.st45{fill:#F47320;}
	.st46{fill:#58595B;stroke:#000000;stroke-miterlimit:10;}
	.st47{fill:#FFE01B;}
	.st48{fill:#58595B;stroke:#231F20;stroke-miterlimit:10;}
	.st49{stroke:#231F20;stroke-miterlimit:10;}
	.st50{fill:none;stroke:#58595B;stroke-width:0.5;stroke-miterlimit:10;}
	.st51{fill:#7D351F;}
	.st52{fill:#58595B;stroke:#BCBEC0;stroke-miterlimit:10;}
	.st53{fill:none;stroke:#BCBEC0;stroke-width:0.5;stroke-miterlimit:10;}
	.st54{fill:none;stroke:#58595B;stroke-width:8;stroke-miterlimit:10;}
	.st55{fill:none;stroke:#58595B;stroke-width:2;stroke-miterlimit:10;}
	.st56{fill:#414042;stroke:#414042;stroke-width:2;stroke-miterlimit:10;}
	.st57{fill:#414042;stroke:#414042;stroke-width:0.25;stroke-miterlimit:10;}
	.st58{fill:#808285;stroke:#414042;stroke-width:0.25;stroke-miterlimit:10;}
	.st59{fill:none;stroke:#414042;stroke-width:0.25;stroke-miterlimit:10;}
	.st60{fill:none;stroke:#808285;stroke-width:0.15;stroke-miterlimit:10;}
	.st61{fill:#F2E651;}
	.st62{fill:#231F20;}
	.st63{fill:url(#SVGID_1_);}
	.st64{fill:url(#SVGID_2_);}
	.st65{fill:none;stroke:#BCBEC0;stroke-width:9;stroke-miterlimit:10;}
	.st66{fill:#8B5E3C;}
	.st67{fill:url(#SVGID_3_);}
	.st68{fill:url(#SVGID_4_);}
	.st69{fill:url(#SVGID_5_);}
	.st70{fill:url(#SVGID_6_);}
	.st71{fill:url(#SVGID_7_);}
	.st72{fill:url(#SVGID_8_);}
	.st73{fill:url(#SVGID_9_);}
	.st74{fill:url(#SVGID_10_);}
	.st75{fill:url(#SVGID_11_);}
	.st76{fill:url(#SVGID_12_);}
	.st77{fill:url(#SVGID_13_);}
	.st78{fill:url(#SVGID_14_);}
	.st79{fill:url(#SVGID_15_);}
	.st80{fill:none;stroke:#414042;stroke-width:7;stroke-miterlimit:10;}
	.st81{fill:none;stroke:#414042;stroke-width:5;stroke-miterlimit:10;}
	.st82{fill:none;stroke:#231F20;stroke-width:6;stroke-miterlimit:10;}
	.st83{fill:#A97C50;}
	.st84{fill:none;stroke:#FFFFFF;stroke-width:0.75;stroke-miterlimit:10;}
	.st85{fill:none;stroke:#58595B;stroke-width:7;stroke-miterlimit:10;}
	.st86{fill:#FFFFFF;stroke:#2CE5B5;stroke-width:2;stroke-miterlimit:10;}
	.st87{fill:#2D3340;}
	.st88{fill:url(#SVGID_16_);}
	.st89{fill:url(#SVGID_17_);}
	.st90{fill:url(#SVGID_18_);}
	.st91{fill:url(#SVGID_19_);}
	.st92{fill:url(#SVGID_20_);}
	.st93{fill:url(#SVGID_21_);}
	.st94{fill:url(#SVGID_22_);}
	.st95{fill:url(#SVGID_23_);}
	.st96{fill:none;stroke:#BCBEC0;stroke-width:15;stroke-miterlimit:10;}
	.st97{fill:#3E46D7;}
	.st98{fill:#E1E1E1;}
	.st99{opacity:0.15;fill:url(#SVGID_24_);}
	.st100{opacity:0.5;fill:url(#SVGID_25_);}
	.st101{fill:url(#SVGID_26_);}
	.st102{opacity:3.000000e-02;fill:none;stroke:#FFFFFF;stroke-width:2;stroke-miterlimit:10;}
	.st103{fill:#FBDB84;}
	.st104{fill:#F3F3F3;}
	.st105{fill:url(#SVGID_27_);}
	.st106{fill:url(#SVGID_28_);}
	.st107{fill:#EEBDEF;}
	.st108{fill:#E6CC81;}
	.st109{opacity:0.8;fill:#E8A0E8;}
	.st110{fill:#EE2A7B;}
	.st111{fill:url(#SVGID_29_);}
	.st112{fill:url(#SVGID_30_);}
	.st113{fill:url(#SVGID_31_);}
	.st114{fill:#EC008C;}
	.st115{opacity:0.8;fill:url(#SVGID_32_);}
	.st116{opacity:0.8;fill:url(#SVGID_33_);}
	.st117{opacity:0.8;fill:url(#SVGID_34_);}
	.st118{fill:#F28CBB;}
	.st119{fill:#FAF6F3;}
	.st120{fill:url(#SVGID_35_);}
	.st121{fill:#2D271A;}
	.st122{fill:#514E3F;}
	.st123{fill:url(#SVGID_36_);}
	.st124{fill:url(#SVGID_37_);}
</style>
<g id="Layer_2">
</g>
<g id="Layer_1">
	<g>
		<path class="st44" d="M197.7,87.8l2.5-2.1c2.9-2.4,3.3-6.7,0.9-9.5l-0.9-1.1c-2.4-2.9-6.7-3.3-9.5-0.9l-2.5,2.1
			c-2.9,2.4-3.3,6.7-0.9,9.5l0.9,1.1C190.5,89.8,194.8,90.2,197.7,87.8z"/>
		<path class="st44" d="M184.9,87.5L184.9,87.5c2.1-1.8,2.4-4.9,0.7-7l-0.9-1.1c-1.8-2.1-4.9-2.4-7-0.7l0,0c-2.1,1.8-2.4,4.9-0.7,7
			l0.9,1.1C179.6,88.9,182.8,89.2,184.9,87.5z"/>
		<path class="st45" d="M189.3,79L189.3,79c7.1-5.9,8.1-16.5,2.2-23.6l-29.4-35.5c-5.9-7.1-16.5-8.1-23.6-2.2l0,0
			c-7.1,5.9-8.1,16.5-2.2,23.6l29.4,35.5C171.6,83.9,182.2,84.9,189.3,79z"/>
		<path class="st44" d="M25,86.6l-2.5-2.1c-2.9-2.4-3.3-6.7-0.9-9.5l0.9-1.1c2.4-2.9,6.7-3.3,9.5-0.9l2.5,2.1
			c2.9,2.4,3.3,6.7,0.9,9.5l-0.9,1.1C32.1,88.5,27.9,88.9,25,86.6z"/>
		<path class="st44" d="M37.8,86.2L37.8,86.2c-2.1-1.8-2.4-4.9-0.7-7l0.9-1.1c1.8-2.1,4.9-2.4,7-0.7l0,0c2.1,1.8,2.4,4.9,0.7,7
			l-0.9,1.1C43.1,87.7,39.9,88,37.8,86.2z"/>
		<path class="st45" d="M33.8,79.4L33.8,79.4c-7.1-5.9-8.1-16.5-2.2-23.6L61,20.3c5.9-7.1,16.5-8.1,23.6-2.2l0,0
			c7.1,5.9,8.1,16.5,2.2,23.6L57.4,77.2C51.5,84.4,40.9,85.4,33.8,79.4z"/>
		<path class="st45" d="M146,133.2H77c-1.4-0.2-3.3-0.8-5.2-2.1c-5.4-3.9-5.6-10.8-5.6-11.7c1.2-32.6,2.3-65.2,3.5-97.8
			c0-4,3.3-7.3,7.3-7.3c9.8,1.6,21.5,2.7,34.6,2.7c13,0,24.6-1.2,34.4-2.7c0.5,0,3.1,0.1,5.2,2.1c1.3,1.3,2.1,3.2,2.1,5.2
			c0.9,33.7,1.8,67.5,2.7,101.2c-0.2,1-0.9,5.4-4.9,8.3C149.2,132.5,147.2,133,146,133.2z"/>
		<rect x="110.2" y="16.9" class="st46" width="0.9" height="116.3"/>
		<g>
			<rect x="82.1" y="37.9" class="st7" width="20.7" height="20.7"/>
			
				<rect x="90" y="43.3" transform="matrix(0.7071 -0.7071 0.7071 0.7071 -2.4343 81.4005)" class="st46" width="14.1" height="0.6"/>
			
				<rect x="80.8" y="43.2" transform="matrix(0.7071 0.7071 -0.7071 0.7071 56.439 -49.1503)" class="st46" width="13.4" height="0.8"/>
		</g>
		<g>
			<rect x="118.8" y="37.9" class="st7" width="20.7" height="20.7"/>
			
				<rect x="126.7" y="43.2" transform="matrix(0.7071 -0.7071 0.7071 0.7071 8.4028 107.421)" class="st46" width="14.4" height="0.6"/>
			
				<rect x="117.3" y="43" transform="matrix(0.7071 0.7071 -0.7071 0.7071 67.0815 -75.066)" class="st46" width="13.8" height="0.8"/>
		</g>
	</g>
</g>
<g id="Layer_3">
</g>
</svg>
