<?xml version="1.0" encoding="utf-8"?>
<!-- Generator: Adobe Illustrator 20.0.0, SVG Export Plug-In . SVG Version: 6.00 Build 0)  -->
<svg version="1.1" xmlns="http://www.w3.org/2000/svg" xmlns:xlink="http://www.w3.org/1999/xlink" x="0px" y="0px"
	 viewBox="0 0 223 140.2" style="enable-background:new 0 0 223 140.2;" xml:space="preserve">
<style type="text/css">
	.st0{fill:#F1F2F2;}
	.st1{fill:#FFFFFF;stroke:#FFFFFF;stroke-miterlimit:10;}
	.st2{fill:#6D6E71;}
	.st3{fill:#FFFFFF;}
	.st4{fill:#FFFFFF;stroke:#231F20;stroke-miterlimit:10;}
	.st5{fill:#D1D3D4;}
	.st6{fill:none;stroke:#000000;stroke-miterlimit:10;}
	.st7{fill:#E6E7E8;}
	.st8{fill:none;stroke:#939598;stroke-miterlimit:10;}
	.st9{fill:#939598;}
	.st10{fill:#70758D;}
	.st11{opacity:0.6;}
	.st12{fill:#2E375D;}
	.st13{opacity:0.6;fill:#2E375D;}
	.st14{opacity:0.3;fill:none;stroke:#2E375D;stroke-miterlimit:10;}
	.st15{fill:#2CE5B5;}
	.st16{fill:#00C6AD;}
	.st17{fill:#25B0E5;}
	.st18{fill:#4275F4;}
	.st19{fill:none;}
	.st20{fill:none;stroke:#AFAFAF;stroke-miterlimit:10;}
	.st21{fill:none;stroke:#FFFFFF;stroke-miterlimit:10;}
	.st22{fill:#DCDCDC;}
	.st23{fill:none;stroke:#DCDCDC;stroke-miterlimit:10;}
	.st24{fill:#A7A9AC;}
	.st25{opacity:0.3;fill:none;stroke:#2E375D;stroke-width:3;stroke-miterlimit:10;}
	.st26{fill:none;stroke:#70758D;stroke-width:5;stroke-miterlimit:10;}
	.st27{opacity:0.3;fill:#2E375D;}
	.st28{fill:#808285;}
	.st29{fill:#58595B;}
	.st30{fill:#58595B;stroke:#414042;stroke-miterlimit:10;}
	.st31{fill:#414042;stroke:#414042;stroke-miterlimit:10;}
	.st32{fill:#58595B;stroke:#414042;stroke-width:2;stroke-miterlimit:10;}
	.st33{fill:#414042;}
	.st34{fill:#BC6D4F;}
	.st35{fill:#E23940;}
	.st36{fill:#5161AC;}
	.st37{fill:none;stroke:#58595B;stroke-miterlimit:10;}
	.st38{fill:#6CC06A;}
	.st39{fill:#F47320;}
	.st40{fill:#58595B;stroke:#000000;stroke-miterlimit:10;}
	.st41{fill:#FFE01B;}
	.st42{fill:#58595B;stroke:#231F20;stroke-miterlimit:10;}
	.st43{stroke:#231F20;stroke-miterlimit:10;}
	.st44{fill:none;stroke:#58595B;stroke-width:0.5;stroke-miterlimit:10;}
	.st45{fill:#7D351F;}
	.st46{fill:#58595B;stroke:#BCBEC0;stroke-miterlimit:10;}
	.st47{fill:none;stroke:#BCBEC0;stroke-width:0.5;stroke-miterlimit:10;}
	.st48{fill:none;stroke:#58595B;stroke-width:8;stroke-miterlimit:10;}
	.st49{fill:none;stroke:#58595B;stroke-width:2;stroke-miterlimit:10;}
	.st50{fill:#414042;stroke:#414042;stroke-width:2;stroke-miterlimit:10;}
	.st51{fill:#414042;stroke:#414042;stroke-width:0.25;stroke-miterlimit:10;}
	.st52{fill:#808285;stroke:#414042;stroke-width:0.25;stroke-miterlimit:10;}
	.st53{fill:none;stroke:#414042;stroke-width:0.25;stroke-miterlimit:10;}
	.st54{fill:none;stroke:#808285;stroke-width:0.15;stroke-miterlimit:10;}
	.st55{fill:#F2E651;}
	.st56{fill:#231F20;}
	.st57{fill:url(#SVGID_1_);}
	.st58{fill:url(#SVGID_2_);}
	.st59{fill:none;stroke:#BCBEC0;stroke-width:9;stroke-miterlimit:10;}
	.st60{fill:url(#SVGID_3_);}
	.st61{fill:url(#SVGID_4_);}
	.st62{fill:#8B5E3C;}
	.st63{fill:url(#SVGID_5_);}
	.st64{fill:url(#SVGID_6_);}
	.st65{fill:url(#SVGID_7_);}
	.st66{fill:url(#SVGID_8_);}
	.st67{fill:url(#SVGID_9_);}
	.st68{fill:url(#SVGID_10_);}
	.st69{fill:url(#SVGID_11_);}
	.st70{fill:url(#SVGID_12_);}
	.st71{fill:url(#SVGID_13_);}
	.st72{fill:url(#SVGID_14_);}
	.st73{fill:url(#SVGID_15_);}
	.st74{fill:url(#SVGID_16_);}
	.st75{fill:url(#SVGID_17_);}
	.st76{fill:url(#SVGID_18_);}
	.st77{fill:url(#SVGID_19_);}
	.st78{fill:url(#SVGID_20_);}
	.st79{fill:url(#SVGID_21_);}
	.st80{fill:url(#SVGID_22_);}
	.st81{fill:url(#SVGID_23_);}
	.st82{fill:url(#SVGID_24_);}
	.st83{fill:url(#SVGID_25_);}
	.st84{fill:url(#SVGID_26_);}
	.st85{fill:url(#SVGID_27_);}
	.st86{fill:url(#SVGID_28_);}
	.st87{fill:#BCBEC0;}
	.st88{opacity:0.6;fill:#FFFFFF;}
	.st89{opacity:0.3;}
	.st90{fill:none;stroke:#2E375D;stroke-width:4;stroke-linecap:round;stroke-miterlimit:10;}
	.st91{fill:url(#SVGID_29_);}
	.st92{fill:#E1E1E1;}
	.st93{fill:#00AEEF;}
	.st94{fill:none;stroke:#414042;stroke-width:7;stroke-miterlimit:10;}
	.st95{fill:none;stroke:#414042;stroke-width:5;stroke-miterlimit:10;}
	.st96{fill:none;stroke:#231F20;stroke-width:6;stroke-miterlimit:10;}
	.st97{fill:#A97C50;}
	.st98{fill:none;stroke:#FFFFFF;stroke-width:0.75;stroke-miterlimit:10;}
	.st99{fill:none;stroke:#58595B;stroke-width:7;stroke-miterlimit:10;}
	.st100{fill:#FFFFFF;stroke:#2CE5B5;stroke-width:2;stroke-miterlimit:10;}
	.st101{fill:#2D3340;}
	.st102{fill:url(#SVGID_30_);}
	.st103{fill:url(#SVGID_31_);}
	.st104{fill:url(#SVGID_32_);}
	.st105{fill:url(#SVGID_33_);}
	.st106{fill:url(#SVGID_34_);}
	.st107{fill:url(#SVGID_35_);}
	.st108{fill:url(#SVGID_36_);}
	.st109{fill:url(#SVGID_37_);}
	.st110{fill:none;stroke:#BCBEC0;stroke-width:15;stroke-miterlimit:10;}
	.st111{fill:#3E46D7;}
	.st112{fill:#F3F3F3;}
	.st113{fill:url(#SVGID_38_);}
	.st114{fill:url(#SVGID_39_);}
	.st115{fill:#EEBDEF;}
	.st116{fill:#E6CC81;}
	.st117{opacity:0.8;fill:#E8A0E8;}
	.st118{fill:#EE2A7B;}
	.st119{fill:url(#SVGID_40_);}
	.st120{fill:url(#SVGID_41_);}
	.st121{fill:url(#SVGID_42_);}
	.st122{fill:#EC008C;}
	.st123{opacity:0.8;fill:url(#SVGID_43_);}
	.st124{opacity:0.8;fill:url(#SVGID_44_);}
	.st125{opacity:0.8;fill:url(#SVGID_45_);}
	.st126{fill:#F28CBB;}
	.st127{fill:#FAF6F3;}
	.st128{fill:url(#SVGID_46_);}
	.st129{fill:#2D271A;}
	.st130{fill:#514E3F;}
	.st131{fill:url(#SVGID_47_);}
	.st132{fill:url(#SVGID_48_);}
</style>
<g id="Layer_2">
</g>
<g id="Layer_1">
	<g>
		<rect x="80.6" y="41.7" class="st62" width="63.9" height="1.5"/>
		<path class="st62" d="M125.8,60.8c-0.3-0.8-2.2-6.2-7.8-8.2c-4.2-1.5-7.9-0.2-9.3,0.3c-4.5,1.7-6.8,5.1-7.6,6.3
			c-0.6-1.3-1.2-2.6-1.8-3.9c1.4-1.4,4.4-3.8,8.8-5c1.8-0.5,5.7-1.5,10.4,0c4.3,1.4,6.9,4.1,8,5.4C126.2,57.5,126,59.1,125.8,60.8z"
			/>
		<path class="st7" d="M100.8,74.1c-0.1-0.1-0.8-0.9-1.8-0.9c-1.2,0.1-2.3,1.2-2.5,2.8c-2.9,4.9-5.9,9.9-8.8,14.8
			c-0.1,0.1-0.7,0.7-0.5,1.4c0.2,0.8,1.1,1,1.4,1.1c1.4,0.4,2.6-0.6,2.9-0.7c3.1-4.9,6.2-9.7,9.3-14.6
			C101.7,76.6,101.6,75,100.8,74.1z"/>
		<path class="st7" d="M126.2,74.1c0.1-0.1,0.8-0.9,1.8-0.9c1.2,0.1,2.3,1.2,2.5,2.8c2.9,4.9,5.9,9.9,8.8,14.8
			c0.1,0.1,0.7,0.7,0.5,1.4c-0.2,0.8-1.1,1-1.4,1.1c-1.4,0.4-2.6-0.6-2.9-0.7c-3.1-4.9-6.2-9.7-9.3-14.6
			C125.4,76.6,125.4,75,126.2,74.1z"/>
		<linearGradient id="SVGID_1_" gradientUnits="userSpaceOnUse" x1="17.7524" y1="77.3257" x2="101.4486" y2="77.3257">
			<stop  offset="6.250000e-02" style="stop-color:#8B5E3C"/>
			<stop  offset="0.3023" style="stop-color:#88603E"/>
			<stop  offset="0.4583" style="stop-color:#806745"/>
			<stop  offset="0.5904" style="stop-color:#717251"/>
			<stop  offset="0.7092" style="stop-color:#5C8163"/>
			<stop  offset="0.819" style="stop-color:#409679"/>
			<stop  offset="0.9209" style="stop-color:#1FAF94"/>
			<stop  offset="1" style="stop-color:#00C6AD"/>
		</linearGradient>
		<path class="st57" d="M18,81c-1.3-11.4,2.2-26.4,12.9-33.8c2.3-1.6,4.2-2.3,8-3.7c11.3-4.2,21.6-3.4,41.8-1.8
			c3.4,0.3,6.9,0.6,10.7,2.8c0.7,0.4,6.7,3.9,9.2,10.1c0.7,1.8,2.7,7.9-4,21.8C92,86,83,104.6,62.2,111.4
			c-5.2,1.7-12.9,4.3-21.5,1.5C26.6,108.5,19.3,93,18,81z"/>
		<path class="st62" d="M17.8,76.8h-3c-1.4,0-2.5-1.1-2.5-2.5l0,0c0-1.4,1.1-2.5,2.5-2.5h3c1.4,0,2.5,1.1,2.5,2.5l0,0
			C20.3,75.7,19.2,76.8,17.8,76.8z"/>
		<path class="st62" d="M211.2,76.8h-3c-1.4,0-2.5-1.1-2.5-2.5l0,0c0-1.4,1.1-2.5,2.5-2.5h3c1.4,0,2.5,1.1,2.5,2.5l0,0
			C213.7,75.7,212.6,76.8,211.2,76.8z"/>
		<linearGradient id="SVGID_2_" gradientUnits="userSpaceOnUse" x1="125.5911" y1="77.3257" x2="209.2873" y2="77.3257">
			<stop  offset="6.250000e-02" style="stop-color:#8B5E3C"/>
			<stop  offset="0.3023" style="stop-color:#88603E"/>
			<stop  offset="0.4583" style="stop-color:#806745"/>
			<stop  offset="0.5904" style="stop-color:#717251"/>
			<stop  offset="0.7092" style="stop-color:#5C8163"/>
			<stop  offset="0.819" style="stop-color:#409679"/>
			<stop  offset="0.9209" style="stop-color:#1FAF94"/>
			<stop  offset="1" style="stop-color:#00C6AD"/>
		</linearGradient>
		<path class="st58" d="M209,81c1.3-11.4-2.2-26.4-12.9-33.8c-2.3-1.6-4.2-2.3-8-3.7c-11.3-4.2-21.6-3.4-41.8-1.8
			c-3.4,0.3-6.9,0.6-10.7,2.8c-0.7,0.4-6.7,3.9-9.2,10.1c-0.7,1.8-2.7,7.9,4,21.8c4.6,9.6,13.6,28.1,34.4,35
			c5.2,1.7,12.9,4.3,21.5,1.5C200.5,108.5,207.7,93,209,81z"/>
	</g>
</g>
<g id="Layer_3">
</g>
</svg>
