<?xml version="1.0" encoding="utf-8"?>
<!-- Generator: Adobe Illustrator 20.0.0, SVG Export Plug-In . SVG Version: 6.00 Build 0)  -->
<svg version="1.1" xmlns="http://www.w3.org/2000/svg" xmlns:xlink="http://www.w3.org/1999/xlink" x="0px" y="0px"
	 viewBox="0 0 223 140.2" style="enable-background:new 0 0 223 140.2;" xml:space="preserve">
<style type="text/css">
	.st0{fill:#F1F2F2;}
	.st1{fill:#FFFFFF;stroke:#FFFFFF;stroke-miterlimit:10;}
	.st2{fill:#6D6E71;}
	.st3{fill:#FFFFFF;}
	.st4{fill:#FFFFFF;stroke:#231F20;stroke-miterlimit:10;}
	.st5{fill:#D1D3D4;}
	.st6{fill:none;stroke:#000000;stroke-miterlimit:10;}
	.st7{fill:#E6E7E8;}
	.st8{fill:none;stroke:#939598;stroke-miterlimit:10;}
	.st9{fill:#939598;}
	.st10{fill:#70758D;}
	.st11{opacity:0.6;}
	.st12{fill:#2E375D;}
	.st13{opacity:0.6;fill:#2E375D;}
	.st14{opacity:0.3;fill:none;stroke:#2E375D;stroke-miterlimit:10;}
	.st15{fill:#2CE5B5;}
	.st16{fill:#00C6AD;}
	.st17{fill:#25B0E5;}
	.st18{fill:#4275F4;}
	.st19{fill:none;}
	.st20{fill:none;stroke:#AFAFAF;stroke-miterlimit:10;}
	.st21{fill:none;stroke:#FFFFFF;stroke-miterlimit:10;}
	.st22{fill:#DCDCDC;}
	.st23{fill:none;stroke:#DCDCDC;stroke-miterlimit:10;}
	.st24{fill:#A7A9AC;}
	.st25{fill:#00AEEF;}
	.st26{fill:#BCBEC0;}
	.st27{opacity:0.6;fill:#FFFFFF;}
	.st28{opacity:0.3;fill:none;stroke:#2E375D;stroke-width:3;stroke-miterlimit:10;}
	.st29{fill:none;stroke:#70758D;stroke-width:5;stroke-miterlimit:10;}
	.st30{opacity:0.3;fill:#2E375D;}
	.st31{opacity:0.3;}
	.st32{fill:none;stroke:#2E375D;stroke-width:4;stroke-linecap:round;stroke-miterlimit:10;}
	.st33{fill:#808285;}
	.st34{fill:#58595B;}
	.st35{fill:#58595B;stroke:#414042;stroke-miterlimit:10;}
	.st36{fill:#414042;stroke:#414042;stroke-miterlimit:10;}
	.st37{fill:#58595B;stroke:#414042;stroke-width:2;stroke-miterlimit:10;}
	.st38{fill:#414042;}
	.st39{fill:#BC6D4F;}
	.st40{fill:#E23940;}
	.st41{fill:#5161AC;}
	.st42{fill:none;stroke:#58595B;stroke-miterlimit:10;}
	.st43{fill:#6CC06A;}
	.st44{fill:#F47320;}
	.st45{fill:#58595B;stroke:#000000;stroke-miterlimit:10;}
	.st46{fill:#FFE01B;}
	.st47{fill:#58595B;stroke:#231F20;stroke-miterlimit:10;}
	.st48{stroke:#231F20;stroke-miterlimit:10;}
	.st49{fill:none;stroke:#58595B;stroke-width:0.5;stroke-miterlimit:10;}
	.st50{fill:#7D351F;}
	.st51{fill:#58595B;stroke:#BCBEC0;stroke-miterlimit:10;}
	.st52{fill:none;stroke:#BCBEC0;stroke-width:0.5;stroke-miterlimit:10;}
	.st53{fill:none;stroke:#58595B;stroke-width:8;stroke-miterlimit:10;}
	.st54{fill:none;stroke:#58595B;stroke-width:2;stroke-miterlimit:10;}
	.st55{fill:#414042;stroke:#414042;stroke-width:2;stroke-miterlimit:10;}
	.st56{fill:#414042;stroke:#414042;stroke-width:0.25;stroke-miterlimit:10;}
	.st57{fill:#808285;stroke:#414042;stroke-width:0.25;stroke-miterlimit:10;}
	.st58{fill:none;stroke:#414042;stroke-width:0.25;stroke-miterlimit:10;}
	.st59{fill:none;stroke:#808285;stroke-width:0.15;stroke-miterlimit:10;}
	.st60{fill:#F2E651;}
	.st61{fill:#231F20;}
	.st62{fill:url(#SVGID_1_);}
	.st63{fill:url(#SVGID_2_);}
	.st64{fill:none;stroke:#BCBEC0;stroke-width:9;stroke-miterlimit:10;}
	.st65{fill:#8B5E3C;}
	.st66{fill:url(#SVGID_3_);}
	.st67{fill:url(#SVGID_4_);}
	.st68{fill:url(#SVGID_5_);}
	.st69{fill:url(#SVGID_6_);}
	.st70{fill:url(#SVGID_7_);}
	.st71{fill:url(#SVGID_8_);}
	.st72{fill:url(#SVGID_9_);}
	.st73{fill:url(#SVGID_10_);}
	.st74{fill:url(#SVGID_11_);}
	.st75{fill:url(#SVGID_12_);}
	.st76{fill:url(#SVGID_13_);}
	.st77{fill:url(#SVGID_14_);}
	.st78{fill:url(#SVGID_15_);}
	.st79{fill:none;stroke:#414042;stroke-width:7;stroke-miterlimit:10;}
	.st80{fill:none;stroke:#414042;stroke-width:5;stroke-miterlimit:10;}
	.st81{fill:none;stroke:#231F20;stroke-width:6;stroke-miterlimit:10;}
	.st82{fill:#A97C50;}
	.st83{fill:none;stroke:#FFFFFF;stroke-width:0.75;stroke-miterlimit:10;}
	.st84{fill:none;stroke:#58595B;stroke-width:7;stroke-miterlimit:10;}
	.st85{fill:#FFFFFF;stroke:#2CE5B5;stroke-width:2;stroke-miterlimit:10;}
	.st86{fill:#2D3340;}
	.st87{fill:url(#SVGID_16_);}
	.st88{fill:url(#SVGID_17_);}
	.st89{fill:url(#SVGID_18_);}
	.st90{fill:url(#SVGID_19_);}
	.st91{fill:url(#SVGID_20_);}
	.st92{fill:url(#SVGID_21_);}
	.st93{fill:url(#SVGID_22_);}
	.st94{fill:url(#SVGID_23_);}
	.st95{fill:none;stroke:#BCBEC0;stroke-width:15;stroke-miterlimit:10;}
	.st96{fill:#3E46D7;}
	.st97{fill:#E1E1E1;}
	.st98{opacity:0.15;fill:url(#SVGID_24_);}
	.st99{opacity:0.5;fill:url(#SVGID_25_);}
	.st100{fill:url(#SVGID_26_);}
	.st101{opacity:3.000000e-02;fill:none;stroke:#FFFFFF;stroke-width:2;stroke-miterlimit:10;}
	.st102{fill:#FBDB84;}
	.st103{fill:#F3F3F3;}
	.st104{fill:url(#SVGID_27_);}
	.st105{fill:url(#SVGID_28_);}
	.st106{fill:#EEBDEF;}
	.st107{fill:#E6CC81;}
	.st108{opacity:0.8;fill:#E8A0E8;}
	.st109{fill:#EE2A7B;}
	.st110{fill:url(#SVGID_29_);}
	.st111{fill:url(#SVGID_30_);}
	.st112{fill:url(#SVGID_31_);}
	.st113{fill:#EC008C;}
	.st114{opacity:0.8;fill:url(#SVGID_32_);}
	.st115{opacity:0.8;fill:url(#SVGID_33_);}
	.st116{opacity:0.8;fill:url(#SVGID_34_);}
	.st117{fill:#F28CBB;}
	.st118{fill:#FAF6F3;}
	.st119{fill:url(#SVGID_35_);}
	.st120{fill:#2D271A;}
	.st121{fill:#514E3F;}
	.st122{fill:url(#SVGID_36_);}
	.st123{fill:url(#SVGID_37_);}
</style>
<g id="Layer_2">
</g>
<g id="Layer_1">
</g>
<g id="Layer_3">
	<g>
		<path class="st65" d="M86,119.7l-0.4-0.2c-1.5-0.7-3.4-0.1-4.1,1.5l-2.1,4.5c-0.7,1.5-0.1,3.4,1.5,4.1l0.4,0.2
			c1.5,0.7,3.4,0.1,4.1-1.5l2.1-4.5C88.2,122.3,87.5,120.5,86,119.7z"/>
		<path class="st65" d="M132,119.7l0.4-0.2c1.5-0.7,3.4-0.1,4.1,1.5l2.1,4.5c0.7,1.5,0.1,3.4-1.5,4.1l-0.4,0.2
			c-1.5,0.7-3.4,0.1-4.1-1.5l-2.1-4.5C129.8,122.3,130.5,120.5,132,119.7z"/>
		<path class="st82" d="M135.4,56.7H81.9c-1.7,0-3.1-1.4-3.1-3.1v-0.5c0-1.7,1.4-3.1,3.1-3.1h53.5c1.7,0,3.1,1.4,3.1,3.1v0.5
			C138.5,55.3,137.1,56.7,135.4,56.7z"/>
		<path class="st21" d="M103.4,19.9L103.4,19.9c-2.7,0-4.9-2.2-4.9-4.9v0c0-2.7,2.2-4.9,4.9-4.9h0c2.7,0,4.9,2.2,4.9,4.9v0
			C108.3,17.7,106.1,19.9,103.4,19.9z"/>
		<circle class="st21" cx="102" cy="36.6" r="2.6"/>
		<circle class="st21" cx="116.6" cy="28.3" r="4.9"/>
		<path class="st83" d="M100.4,36.9c0-1,0.8-1.8,1.7-1.8"/>
		<path class="st83" d="M112.8,28.8c0-2.3,1.9-4.2,4.1-4.2"/>
		<path class="st83" d="M99.9,15.3c0-2.1,1.7-3.7,3.7-3.7"/>
		<path class="st82" d="M156.6,97c-3.2,18.8-27.1,30.1-46,30.8c-20,0.7-46.2-10.3-49.8-30.6C57,75.1,81.4,51,106.7,50
			C134,49,160.4,74.7,156.6,97z"/>
		<path class="st3" d="M111.1,58.7H87.8c-0.5,0-0.9-0.4-0.9-0.9v-0.1c0-0.5,0.4-0.9,0.9-0.9h23.3c0.5,0,0.9,0.4,0.9,0.9v0.1
			C112,58.3,111.6,58.7,111.1,58.7z"/>
	</g>
</g>
</svg>
