<?xml version="1.0" encoding="utf-8"?>
<!-- Generator: Adobe Illustrator 20.0.0, SVG Export Plug-In . SVG Version: 6.00 Build 0)  -->
<svg version="1.1" xmlns="http://www.w3.org/2000/svg" xmlns:xlink="http://www.w3.org/1999/xlink" x="0px" y="0px"
	 viewBox="0 0 223 140.2" style="enable-background:new 0 0 223 140.2;" xml:space="preserve">
<style type="text/css">
	.st0{fill:#F1F2F2;}
	.st1{fill:#FFFFFF;stroke:#FFFFFF;stroke-miterlimit:10;}
	.st2{fill:#6D6E71;}
	.st3{fill:#FFFFFF;}
	.st4{fill:#FFFFFF;stroke:#231F20;stroke-miterlimit:10;}
	.st5{fill:#D1D3D4;}
	.st6{fill:none;stroke:#000000;stroke-miterlimit:10;}
	.st7{fill:#E6E7E8;}
	.st8{fill:none;stroke:#939598;stroke-miterlimit:10;}
	.st9{fill:#939598;}
	.st10{fill:#70758D;}
	.st11{opacity:0.6;}
	.st12{fill:#2E375D;}
	.st13{opacity:0.6;fill:#2E375D;}
	.st14{opacity:0.3;fill:none;stroke:#2E375D;stroke-miterlimit:10;}
	.st15{fill:#2CE5B5;}
	.st16{fill:#00C6AD;}
	.st17{fill:#25B0E5;}
	.st18{fill:#4275F4;}
	.st19{fill:none;}
	.st20{fill:none;stroke:#AFAFAF;stroke-miterlimit:10;}
	.st21{fill:none;stroke:#FFFFFF;stroke-miterlimit:10;}
	.st22{fill:#DCDCDC;}
	.st23{fill:none;stroke:#DCDCDC;stroke-miterlimit:10;}
	.st24{fill:#A7A9AC;}
	.st25{opacity:0.3;fill:none;stroke:#2E375D;stroke-width:3;stroke-miterlimit:10;}
	.st26{fill:none;stroke:#70758D;stroke-width:5;stroke-miterlimit:10;}
	.st27{opacity:0.3;fill:#2E375D;}
	.st28{fill:#808285;}
	.st29{fill:#58595B;}
	.st30{fill:#58595B;stroke:#414042;stroke-miterlimit:10;}
	.st31{fill:#414042;stroke:#414042;stroke-miterlimit:10;}
	.st32{fill:#58595B;stroke:#414042;stroke-width:2;stroke-miterlimit:10;}
	.st33{fill:#414042;}
	.st34{fill:#BC6D4F;}
	.st35{fill:#E23940;}
	.st36{fill:#5161AC;}
	.st37{fill:none;stroke:#58595B;stroke-miterlimit:10;}
	.st38{fill:#6CC06A;}
	.st39{fill:#F47320;}
	.st40{fill:#58595B;stroke:#000000;stroke-miterlimit:10;}
	.st41{fill:#FFE01B;}
	.st42{fill:#58595B;stroke:#231F20;stroke-miterlimit:10;}
	.st43{stroke:#231F20;stroke-miterlimit:10;}
	.st44{fill:none;stroke:#58595B;stroke-width:0.5;stroke-miterlimit:10;}
	.st45{fill:#7D351F;}
	.st46{fill:#58595B;stroke:#BCBEC0;stroke-miterlimit:10;}
	.st47{fill:none;stroke:#BCBEC0;stroke-width:0.5;stroke-miterlimit:10;}
	.st48{fill:none;stroke:#58595B;stroke-width:8;stroke-miterlimit:10;}
	.st49{fill:none;stroke:#58595B;stroke-width:2;stroke-miterlimit:10;}
	.st50{fill:#414042;stroke:#414042;stroke-width:2;stroke-miterlimit:10;}
	.st51{fill:#414042;stroke:#414042;stroke-width:0.25;stroke-miterlimit:10;}
	.st52{fill:#808285;stroke:#414042;stroke-width:0.25;stroke-miterlimit:10;}
	.st53{fill:none;stroke:#414042;stroke-width:0.25;stroke-miterlimit:10;}
	.st54{fill:none;stroke:#808285;stroke-width:0.15;stroke-miterlimit:10;}
	.st55{fill:#F2E651;}
	.st56{fill:#231F20;}
	.st57{fill:url(#SVGID_1_);}
	.st58{fill:url(#SVGID_2_);}
	.st59{fill:none;stroke:#BCBEC0;stroke-width:9;stroke-miterlimit:10;}
	.st60{fill:url(#SVGID_3_);}
	.st61{fill:url(#SVGID_4_);}
	.st62{fill:#8B5E3C;}
	.st63{fill:url(#SVGID_5_);}
	.st64{fill:url(#SVGID_6_);}
	.st65{fill:url(#SVGID_7_);}
	.st66{fill:url(#SVGID_8_);}
	.st67{fill:url(#SVGID_9_);}
	.st68{fill:url(#SVGID_10_);}
	.st69{fill:url(#SVGID_11_);}
	.st70{fill:url(#SVGID_12_);}
	.st71{fill:url(#SVGID_13_);}
	.st72{fill:url(#SVGID_14_);}
	.st73{fill:url(#SVGID_15_);}
	.st74{fill:url(#SVGID_16_);}
	.st75{fill:url(#SVGID_17_);}
	.st76{fill:url(#SVGID_18_);}
	.st77{fill:url(#SVGID_19_);}
	.st78{fill:url(#SVGID_20_);}
	.st79{fill:url(#SVGID_21_);}
	.st80{fill:url(#SVGID_22_);}
	.st81{fill:url(#SVGID_23_);}
	.st82{fill:url(#SVGID_24_);}
	.st83{fill:url(#SVGID_25_);}
	.st84{fill:url(#SVGID_26_);}
	.st85{fill:url(#SVGID_27_);}
	.st86{fill:url(#SVGID_28_);}
	.st87{fill:#BCBEC0;}
	.st88{opacity:0.6;fill:#FFFFFF;}
	.st89{opacity:0.3;}
	.st90{fill:none;stroke:#2E375D;stroke-width:4;stroke-linecap:round;stroke-miterlimit:10;}
	.st91{fill:url(#SVGID_29_);}
	.st92{fill:#E1E1E1;}
	.st93{fill:#00AEEF;}
	.st94{fill:none;stroke:#414042;stroke-width:7;stroke-miterlimit:10;}
	.st95{fill:none;stroke:#414042;stroke-width:5;stroke-miterlimit:10;}
	.st96{fill:none;stroke:#231F20;stroke-width:6;stroke-miterlimit:10;}
	.st97{fill:#A97C50;}
	.st98{fill:none;stroke:#FFFFFF;stroke-width:0.75;stroke-miterlimit:10;}
	.st99{fill:none;stroke:#58595B;stroke-width:7;stroke-miterlimit:10;}
	.st100{fill:#FFFFFF;stroke:#2CE5B5;stroke-width:2;stroke-miterlimit:10;}
	.st101{fill:#2D3340;}
	.st102{fill:url(#SVGID_30_);}
	.st103{fill:url(#SVGID_31_);}
	.st104{fill:url(#SVGID_32_);}
	.st105{fill:url(#SVGID_33_);}
	.st106{fill:url(#SVGID_34_);}
	.st107{fill:url(#SVGID_35_);}
	.st108{fill:url(#SVGID_36_);}
	.st109{fill:url(#SVGID_37_);}
	.st110{fill:none;stroke:#BCBEC0;stroke-width:15;stroke-miterlimit:10;}
	.st111{fill:#3E46D7;}
	.st112{fill:#F3F3F3;}
	.st113{fill:url(#SVGID_38_);}
	.st114{fill:url(#SVGID_39_);}
	.st115{fill:#EEBDEF;}
	.st116{fill:#E6CC81;}
	.st117{opacity:0.8;fill:#E8A0E8;}
	.st118{fill:#EE2A7B;}
	.st119{fill:url(#SVGID_40_);}
	.st120{fill:url(#SVGID_41_);}
	.st121{fill:url(#SVGID_42_);}
	.st122{fill:#EC008C;}
	.st123{opacity:0.8;fill:url(#SVGID_43_);}
	.st124{opacity:0.8;fill:url(#SVGID_44_);}
	.st125{opacity:0.8;fill:url(#SVGID_45_);}
	.st126{fill:#F28CBB;}
	.st127{fill:#FAF6F3;}
	.st128{fill:url(#SVGID_46_);}
	.st129{fill:#2D271A;}
	.st130{fill:#514E3F;}
	.st131{fill:url(#SVGID_47_);}
	.st132{fill:url(#SVGID_48_);}
</style>
<g id="Layer_2">
</g>
<g id="Layer_1">
	<g>
		<circle class="st3" cx="105" cy="71.8" r="39.9"/>
		<linearGradient id="SVGID_1_" gradientUnits="userSpaceOnUse" x1="65.0416" y1="78.3003" x2="126.271" y2="78.3003">
			<stop  offset="0" style="stop-color:#25B0E5"/>
			<stop  offset="0.1799" style="stop-color:#28ACE4"/>
			<stop  offset="0.3633" style="stop-color:#30A0E3"/>
			<stop  offset="0.5483" style="stop-color:#3D8BE0"/>
			<stop  offset="0.7346" style="stop-color:#506FDD"/>
			<stop  offset="0.92" style="stop-color:#684AD8"/>
			<stop  offset="1" style="stop-color:#7438D6"/>
		</linearGradient>
		<path class="st57" d="M79.7,102.7c3.4-0.9,8.4-2.6,13.8-5.7c3.6-2.1,5.8-4,10.2-7.7c9.3-7.7,24.4-20.6,22.3-24.3
			c-0.2-0.4-1-1.1-1.7-2.7c-0.7-1.6-0.9-2.9-0.9-3.2c-1.1-4.9-50.6-11.3-57.4,7.2c-0.4,1.1-0.5,2.1-0.7,3.6
			C64,79.7,68,87.4,69.9,90.8C72.9,96.2,76.6,100,79.7,102.7z"/>
		<linearGradient id="SVGID_2_" gradientUnits="userSpaceOnUse" x1="122.8914" y1="84.9295" x2="144.8294" y2="84.9295">
			<stop  offset="0" style="stop-color:#25B0E5"/>
			<stop  offset="0.1799" style="stop-color:#28ACE4"/>
			<stop  offset="0.3633" style="stop-color:#30A0E3"/>
			<stop  offset="0.5483" style="stop-color:#3D8BE0"/>
			<stop  offset="0.7346" style="stop-color:#506FDD"/>
			<stop  offset="0.92" style="stop-color:#684AD8"/>
			<stop  offset="1" style="stop-color:#7438D6"/>
		</linearGradient>
		<path class="st58" d="M135.4,62.6c0.4,0.2,3.7,1.9,5.8,4c1.1,1,2,2.3,2,2.3c0.3,0.3,0.6,0.7,0.9,1.3c0.4,0.6,1,2.1,0.6,6.3
			c-0.3,2.7-0.8,4.7-1.2,6c-0.5,1.8-1,3.2-1.3,3.9c-0.6,1.4-1.1,2.7-1.7,3.8c-0.4,0.8-1.1,2-1.9,3.3c-6.2,9.6-15.4,14.2-15.7,13.9
			c-0.2-0.2,2.6-1.7,5.3-5.6c2.6-3.8,3.4-7.5,4-10c1.1-5,0.9-9.1,0.6-12.6c-0.2-3.1-0.7-5.5-0.9-6.4c-0.4-2-0.9-3.7-1.4-5.1
			c0.3,0,2.3-0.1,3.7-1.8C135.3,64.4,135.4,63,135.4,62.6z"/>
		<linearGradient id="SVGID_3_" gradientUnits="userSpaceOnUse" x1="99.4381" y1="42.7856" x2="134.4691" y2="42.7856">
			<stop  offset="0" style="stop-color:#25B0E5"/>
			<stop  offset="0.1799" style="stop-color:#28ACE4"/>
			<stop  offset="0.3633" style="stop-color:#30A0E3"/>
			<stop  offset="0.5483" style="stop-color:#3D8BE0"/>
			<stop  offset="0.7346" style="stop-color:#506FDD"/>
			<stop  offset="0.92" style="stop-color:#684AD8"/>
			<stop  offset="1" style="stop-color:#7438D6"/>
		</linearGradient>
		<path class="st60" d="M131.7,53.6c0.7-0.9,3.8-4.9,2.4-8.5c-0.4-1.1-1.3-1.9-3-3.4c-1.7-1.6-3.3-2.6-4.7-3.5
			c-1.9-1.2-3.5-2-4.1-2.3c-3.9-1.9-7.4-2.8-9.7-3.2c-1.1-0.2-3.4-0.6-6.4-0.7c-2.7-0.1-6.9,0-7,0.6c-0.1,0.6,4.1,0.6,9.1,2.6
			c7.8,3.2,12.1,8.9,13.4,10.8c1.8,2.5,2.8,4.9,3.4,6.5C127.5,52.9,129.6,53.2,131.7,53.6z"/>
		<linearGradient id="SVGID_4_" gradientUnits="userSpaceOnUse" x1="121.9738" y1="59.9442" x2="135.4111" y2="59.9442">
			<stop  offset="3.583334e-02" style="stop-color:#DCDCDC"/>
			<stop  offset="1" style="stop-color:#FFFFFF"/>
		</linearGradient>
		<path class="st61" d="M122.9,54.6c1.3-1.9,3.6-2.5,5.5-2.3c2.4,0.2,3.8,1.8,4.6,2.7c2,2.2,2.3,4.7,2.4,5.6
			c0.2,1.7,0.4,3.9-1.2,5.5c-1.7,1.7-4.2,1.5-4.6,1.5c-2.5-0.2-4.1-2-5-3C124,64,122.3,62,122,59C121.9,57.9,121.8,56.2,122.9,54.6z
			"/>
	</g>
</g>
<g id="Layer_3">
</g>
</svg>
