<?xml version="1.0" encoding="utf-8"?>
<!-- Generator: Adobe Illustrator 21.1.0, SVG Export Plug-In . SVG Version: 6.00 Build 0)  -->
<svg version="1.1" id="Layer_1" xmlns="http://www.w3.org/2000/svg" xmlns:xlink="http://www.w3.org/1999/xlink" x="0px" y="0px"
	 viewBox="0 0 108.5 11.2" style="enable-background:new 0 0 108.5 11.2;" xml:space="preserve">
<style type="text/css">
	.st0{fill:#F37B20;}
	.st1{fill:#FAB37C;}
	.st2{fill:#171113;}
	.st3{fill:none;stroke:#2CE5B5;stroke-width:2;stroke-linecap:round;stroke-miterlimit:10;}
	.st4{fill:none;stroke:#2CE5B5;stroke-width:2;stroke-linecap:round;stroke-miterlimit:10;stroke-dasharray:0,6.1324;}
	.st5{fill:none;stroke:#2CE5B5;stroke-miterlimit:10;}
	.st6{fill:#2CE5B5;}
</style>
<g>
	<g>
		<path class="st6" d="M1.1,6.6c-0.1,0-0.3,0-0.4-0.1C0.6,6.5,0.5,6.4,0.4,6.3C0.2,6.1,0.1,5.9,0.1,5.6c0-0.3,0.1-0.5,0.3-0.7
			c0.1-0.1,0.2-0.2,0.3-0.2c0.2-0.1,0.5-0.1,0.8,0c0.1,0.1,0.2,0.1,0.3,0.2c0,0,0.1,0.1,0.1,0.2C2,5.1,2,5.2,2,5.2
			c0,0.1,0.1,0.1,0.1,0.2c0,0.1,0,0.1,0,0.2c0,0.3-0.1,0.5-0.3,0.7C1.7,6.4,1.6,6.5,1.5,6.5C1.3,6.6,1.2,6.6,1.1,6.6z"/>
		<path class="st6" d="M91.9,5.6c0-0.6,0.5-1,1-1l0,0c0.5,0,1,0.4,1,1l0,0c0,0.5-0.5,1-1,1l0,0C92.4,6.6,91.9,6.2,91.9,5.6z
			 M85.8,5.6c0-0.6,0.4-1,1-1l0,0c0.5,0,1,0.4,1,1l0,0c0,0.5-0.5,1-1,1l0,0C86.2,6.6,85.8,6.2,85.8,5.6z M79.7,5.6c0-0.6,0.4-1,1-1
			l0,0c0.5,0,1,0.4,1,1l0,0c0,0.5-0.4,1-1,1l0,0C80.1,6.6,79.7,6.2,79.7,5.6z M73.5,5.6c0-0.6,0.5-1,1-1l0,0c0.6,0,1,0.4,1,1l0,0
			c0,0.5-0.4,1-1,1l0,0C74,6.6,73.5,6.2,73.5,5.6z M67.4,5.6c0-0.6,0.5-1,1-1l0,0c0.5,0,1,0.4,1,1l0,0c0,0.5-0.5,1-1,1l0,0
			C67.9,6.6,67.4,6.2,67.4,5.6z M61.3,5.6c0-0.6,0.5-1,1-1l0,0c0.5,0,1,0.4,1,1l0,0c0,0.5-0.5,1-1,1l0,0C61.8,6.6,61.3,6.2,61.3,5.6
			z M55.2,5.6c0-0.6,0.4-1,1-1l0,0c0.6,0,1,0.4,1,1l0,0c0,0.5-0.4,1-1,1l0,0C55.6,6.6,55.2,6.2,55.2,5.6z M49.1,5.6c0-0.6,0.4-1,1-1
			l0,0c0.6,0,1,0.4,1,1l0,0c0,0.5-0.4,1-1,1l0,0C49.5,6.6,49.1,6.2,49.1,5.6z M42.9,5.6c0-0.6,0.5-1,1-1l0,0c0.6,0,1,0.4,1,1l0,0
			c0,0.5-0.4,1-1,1l0,0C43.4,6.6,42.9,6.2,42.9,5.6z M36.8,5.6c0-0.6,0.5-1,1-1l0,0c0.5,0,1,0.4,1,1l0,0c0,0.5-0.5,1-1,1l0,0
			C37.3,6.6,36.8,6.2,36.8,5.6z M30.7,5.6c0-0.6,0.5-1,1-1l0,0c0.6,0,1,0.4,1,1l0,0c0,0.5-0.4,1-1,1l0,0C31.1,6.6,30.7,6.2,30.7,5.6
			z M24.6,5.6c0-0.6,0.5-1,1-1l0,0c0.6,0,1,0.4,1,1l0,0c0,0.5-0.4,1-1,1l0,0C25,6.6,24.6,6.2,24.6,5.6z M18.5,5.6c0-0.6,0.4-1,1-1
			l0,0c0.6,0,1,0.4,1,1l0,0c0,0.5-0.5,1-1,1l0,0C18.9,6.6,18.5,6.2,18.5,5.6z M12.3,5.6c0-0.6,0.5-1,1-1l0,0c0.6,0,1,0.4,1,1l0,0
			c0,0.5-0.4,1-1,1l0,0C12.8,6.6,12.3,6.2,12.3,5.6z M6.2,5.6c0-0.6,0.4-1,1-1l0,0c0.5,0,1,0.4,1,1l0,0c0,0.5-0.5,1-1,1l0,0
			C6.7,6.6,6.2,6.2,6.2,5.6z"/>
	</g>
	<circle class="st5" cx="103" cy="5.6" r="4.8"/>
	<path class="st6" d="M103,10.9c-2.9,0-5.3-2.4-5.3-5.3s2.4-5.3,5.3-5.3s5.3,2.4,5.3,5.3S105.9,10.9,103,10.9z M103,1.3
		c-2.4,0-4.3,1.9-4.3,4.3s1.9,4.3,4.3,4.3s4.3-1.9,4.3-4.3S105.4,1.3,103,1.3z"/>
</g>
</svg>
