<?xml version="1.0" encoding="utf-8"?>
<!-- Generator: Adobe Illustrator 19.2.1, SVG Export Plug-In . SVG Version: 6.00 Build 0)  -->
<svg version="1.1" id="Layer_1" xmlns="http://www.w3.org/2000/svg" xmlns:xlink="http://www.w3.org/1999/xlink" x="0px" y="0px"
	 viewBox="0 0 792.2 481.9" style="enable-background:new 0 0 792.2 481.9;" xml:space="preserve">
<style type="text/css">
	.st0{clip-path:url(#SVGID_2_);}
	.st1{opacity:0.2;}
	.st2{clip-path:url(#SVGID_4_);}
	.st3{fill:url(#SVGID_5_);}
	.st4{fill:url(#SVGID_6_);}
	.st5{fill:url(#SVGID_7_);}
	.st6{fill:url(#SVGID_8_);}
	.st7{opacity:0.6;}
	.st8{fill:#FFFFFF;}
	.st9{opacity:0.1;}
	.st10{clip-path:url(#SVGID_10_);}
	.st11{fill:url(#SVGID_11_);}
	.st12{fill:url(#SVGID_12_);}
	.st13{fill:url(#SVGID_13_);}
	.st14{fill:url(#SVGID_14_);}
</style>
<g>
	<defs>
		<rect id="SVGID_1_" width="792.2" height="481.9"/>
	</defs>
	<clipPath id="SVGID_2_">
		<use xlink:href="#SVGID_1_"  style="overflow:visible;"/>
	</clipPath>
	<g class="st0">
		<g class="st1">
			<defs>
				
					<rect id="SVGID_3_" x="8.5" y="-27.8" transform="matrix(-1 -1.224647e-016 1.224647e-016 -1 143.4172 613.5745)" class="st1" width="126.5" height="669.2"/>
			</defs>
			<clipPath id="SVGID_4_">
				<use xlink:href="#SVGID_3_"  style="overflow:visible;"/>
			</clipPath>
			<g class="st2">
				<g>
					<g>
						<g>
							<g>
								<g>
									
										<linearGradient id="SVGID_5_" gradientUnits="userSpaceOnUse" x1="9754.7686" y1="625.869" x2="10475.4668" y2="625.869" gradientTransform="matrix(-1 0 0 -1 10483.9189 595.6173)">
										<stop  offset="0" style="stop-color:#FFFFFF;stop-opacity:0"/>
										<stop  offset="1" style="stop-color:#FFFFFF"/>
									</linearGradient>
									<path class="st3" d="M627.3,385.6v-0.1l101.5-58.9l0.3-772.7L8.5-27.9v56L627.3,385.6z M634.1-281.2l-0.2,561.1L149.6,0
										L634.1-281.2z"/>
									
										<linearGradient id="SVGID_6_" gradientUnits="userSpaceOnUse" x1="9849.7725" y1="295.4126" x2="9849.7725" y2="295.4126" gradientTransform="matrix(-1 0 0 -1 10483.9189 595.6173)">
										<stop  offset="0" style="stop-color:#35BCA8"/>
										<stop  offset="1" style="stop-color:#4C56A6"/>
									</linearGradient>
									<path class="st4" d="M634.1,300.2"/>
									
										<linearGradient id="SVGID_7_" gradientUnits="userSpaceOnUse" x1="10278.4814" y1="448.9731" x2="10529.8789" y2="357.472" gradientTransform="matrix(-1 0 0 -1 10483.9189 595.6173)">
										<stop  offset="0" style="stop-color:#FFFFFF;stop-opacity:0"/>
										<stop  offset="1" style="stop-color:#FFFFFF"/>
									</linearGradient>
									<polygon class="st5" points="149.8,0.1 55.8,-55.2 8.5,-27.9 8.5,28.1 8.7,388.3 103.4,440.1 103.5,332.7 103.6,82.3 
										110.2,86.2 152.7,1.8 									"/>
									
										<linearGradient id="SVGID_8_" gradientUnits="userSpaceOnUse" x1="10071.4404" y1="272.1585" x2="10380.5322" y2="272.1585" gradientTransform="matrix(-1 0 0 -1 10483.9189 595.6173)">
										<stop  offset="0" style="stop-color:#FFFFFF;stop-opacity:0"/>
										<stop  offset="1" style="stop-color:#FFFFFF"/>
									</linearGradient>
									<polygon class="st6" points="103.5,332.7 103.4,341.3 103.4,440.1 412.5,261.5 318,206.9 									"/>
								</g>
							</g>
						</g>
						<g class="st7">
							<path class="st8" d="M22.3-124.9C31.4-115.7,42.8-111,56-111s24.6-4.7,33.7-13.9c9.2-9.2,13.8-20.7,13.8-34
								c0-13.3-4.7-24.7-13.8-34c-9.2-9.3-20.5-13.9-33.7-13.9s-24.6,4.7-33.7,13.9c-9.2,9.2-13.8,20.7-13.8,34
								C8.5-145.6,13.1-134.2,22.3-124.9z M22.5-158.9c0-9.7,3.2-17.6,9.8-24.1c6.6-6.5,14.3-9.7,23.7-9.7s17.1,3.2,23.7,9.7
								c6.6,6.5,9.8,14.4,9.8,24.1c0,9.5-3.3,17.6-9.7,24.1c-6.5,6.5-14.4,9.7-23.8,9.7c-9.4,0-17.2-3.2-23.8-9.7
								C25.8-141.3,22.5-149.4,22.5-158.9z"/>
							<path class="st8" d="M39.2-134.2c4.5,3.8,10.2,5.7,16.8,5.7c7.9,0,14.6-3,19.9-8.9c5.3-5.8,7.9-12.9,7.9-21.1
								c0-8.2-2.7-15.3-7.9-21.1c-5.3-5.9-12-8.9-19.9-8.9c-6.6,0-12.3,1.9-16.8,5.7c-4.5,3.8-7.4,8.7-8.6,14.8l-0.5,2.5h14.3
								l0.4-1.6c0.5-2.3,1.7-4,3.8-5.2c2.2-1.4,4.6-2,7.4-2c3.9,0,7.1,1.5,9.7,4.7c2.7,3.3,4,7,4,11.2c0,4.2-1.3,7.9-4,11.2
								c-2.6,3.2-5.8,4.7-9.7,4.7c-2.7,0-5.1-0.7-7.4-2c-2-1.2-3.3-3-3.8-5.2l-0.4-1.6H30.2l0.5,2.5C31.8-143,34.7-138,39.2-134.2z"
								/>
						</g>
					</g>
				</g>
			</g>
		</g>
		<g class="st9">
			<defs>
				
					<rect id="SVGID_9_" x="135" y="-27.8" transform="matrix(-1 -1.224647e-016 1.224647e-016 -1 863.9438 613.5745)" class="st9" width="594" height="669.2"/>
			</defs>
			<clipPath id="SVGID_10_">
				<use xlink:href="#SVGID_9_"  style="overflow:visible;"/>
			</clipPath>
			<g class="st10">
				<g>
					<g>
						<g>
							<g>
								<g>
									
										<linearGradient id="SVGID_11_" gradientUnits="userSpaceOnUse" x1="9754.7686" y1="625.869" x2="10475.4668" y2="625.869" gradientTransform="matrix(-1 0 0 -1 10483.9189 595.6173)">
										<stop  offset="0" style="stop-color:#FFFFFF;stop-opacity:0"/>
										<stop  offset="1" style="stop-color:#FFFFFF"/>
									</linearGradient>
									<path class="st11" d="M627.3,385.6v-0.1l101.5-58.9l0.3-772.7L8.5-27.9v56L627.3,385.6z M634.1-281.2l-0.2,561.1L149.6,0
										L634.1-281.2z"/>
									
										<linearGradient id="SVGID_12_" gradientUnits="userSpaceOnUse" x1="9849.7725" y1="295.4126" x2="9849.7725" y2="295.4126" gradientTransform="matrix(-1 0 0 -1 10483.9189 595.6173)">
										<stop  offset="0" style="stop-color:#35BCA8"/>
										<stop  offset="1" style="stop-color:#4C56A6"/>
									</linearGradient>
									<path class="st12" d="M634.1,300.2"/>
									
										<linearGradient id="SVGID_13_" gradientUnits="userSpaceOnUse" x1="10278.4814" y1="448.9731" x2="10529.8789" y2="357.472" gradientTransform="matrix(-1 0 0 -1 10483.9189 595.6173)">
										<stop  offset="0" style="stop-color:#FFFFFF;stop-opacity:0"/>
										<stop  offset="1" style="stop-color:#FFFFFF"/>
									</linearGradient>
									<polygon class="st13" points="149.8,0.1 55.8,-55.2 8.5,-27.9 8.5,28.1 8.7,388.3 103.4,440.1 103.5,332.7 103.6,82.3 
										110.2,86.2 152.7,1.8 									"/>
									
										<linearGradient id="SVGID_14_" gradientUnits="userSpaceOnUse" x1="10071.4404" y1="272.1585" x2="10380.5322" y2="272.1585" gradientTransform="matrix(-1 0 0 -1 10483.9189 595.6173)">
										<stop  offset="0" style="stop-color:#FFFFFF;stop-opacity:0"/>
										<stop  offset="1" style="stop-color:#FFFFFF"/>
									</linearGradient>
									<polygon class="st14" points="103.5,332.7 103.4,341.3 103.4,440.1 412.5,261.5 318,206.9 									"/>
								</g>
							</g>
						</g>
						<g class="st7">
							<path class="st8" d="M22.3-124.9C31.4-115.7,42.8-111,56-111s24.6-4.7,33.7-13.9c9.2-9.2,13.8-20.7,13.8-34
								c0-13.3-4.7-24.7-13.8-34c-9.2-9.3-20.5-13.9-33.7-13.9s-24.6,4.7-33.7,13.9c-9.2,9.2-13.8,20.7-13.8,34
								C8.5-145.6,13.1-134.2,22.3-124.9z M22.5-158.9c0-9.7,3.2-17.6,9.8-24.1c6.6-6.5,14.3-9.7,23.7-9.7s17.1,3.2,23.7,9.7
								c6.6,6.5,9.8,14.4,9.8,24.1c0,9.5-3.3,17.6-9.7,24.1c-6.5,6.5-14.4,9.7-23.8,9.7c-9.4,0-17.2-3.2-23.8-9.7
								C25.8-141.3,22.5-149.4,22.5-158.9z"/>
							<path class="st8" d="M39.2-134.2c4.5,3.8,10.2,5.7,16.8,5.7c7.9,0,14.6-3,19.9-8.9c5.3-5.8,7.9-12.9,7.9-21.1
								c0-8.2-2.7-15.3-7.9-21.1c-5.3-5.9-12-8.9-19.9-8.9c-6.6,0-12.3,1.9-16.8,5.7c-4.5,3.8-7.4,8.7-8.6,14.8l-0.5,2.5h14.3
								l0.4-1.6c0.5-2.3,1.7-4,3.8-5.2c2.2-1.4,4.6-2,7.4-2c3.9,0,7.1,1.5,9.7,4.7c2.7,3.3,4,7,4,11.2c0,4.2-1.3,7.9-4,11.2
								c-2.6,3.2-5.8,4.7-9.7,4.7c-2.7,0-5.1-0.7-7.4-2c-2-1.2-3.3-3-3.8-5.2l-0.4-1.6H30.2l0.5,2.5C31.8-143,34.7-138,39.2-134.2z"
								/>
						</g>
					</g>
				</g>
			</g>
		</g>
	</g>
</g>
</svg>
