<svg xmlns="http://www.w3.org/2000/svg" xmlns:xlink="http://www.w3.org/1999/xlink" viewBox="0 0 175.99 112.18"><defs><style>.cls-1{isolation:isolate;}.cls-2{fill:#ebeded;}.cls-3{opacity:0.3;fill:url(#linear-gradient);}.cls-4{fill:#96d6da;}.cls-5{fill:#bdc0c0;}.cls-5,.cls-6,.cls-7{mix-blend-mode:multiply;}.cls-6{fill:#a9a9a9;opacity:0.23;}.cls-7{opacity:0.76;fill:url(#linear-gradient-2);}.cls-8{fill:none;stroke:#edeeee;stroke-miterlimit:10;}</style><linearGradient id="linear-gradient" x1="130.67" y1="40.48" x2="119.83" y2="70.26" gradientUnits="userSpaceOnUse"><stop offset="0.08" stop-color="#231f20" stop-opacity="0"/><stop offset="1" stop-color="#231f20"/></linearGradient><linearGradient id="linear-gradient-2" x1="6484.44" y1="2079.79" x2="6533.35" y2="2065.65" gradientUnits="userSpaceOnUse"><stop offset="0" stop-color="#b3b2b3"/><stop offset="0.86" stop-color="#fff"/><stop offset="0.92" stop-color="#fff"/></linearGradient></defs><g class="cls-1"><g id="Layer_4" data-name="Layer 4"><polygon id="_Path_" data-name="&lt;Path&gt;" class="cls-2" points="0 53.45 73.33 10.12 175.99 69.39 101.86 112.18 0 53.45"/><polygon class="cls-3" points="148.07 53.27 113.69 73.78 101.09 61.15 119.32 36.67 148.07 53.27"/><g id="_Group_" data-name="&lt;Group&gt;"><path id="_Path_2" data-name="&lt;Path&gt;" class="cls-4" d="M6550.9,2042.3a14.61,14.61,0,0,0,.67-5.14l-.14-.35-1.54.39,1.91.2c0-11.76-16.31-20.67-36.09-20.67s-36.05,7.88-36.09,21.88h0l.06-.25a11.54,11.54,0,0,0,.34,3.1l6.39,42.31v-.38c0,9.11,13.18,16.43,28.5,16.43s28.5-7.42,28.5-16.53v-.07Z" transform="translate(-6427.16 -2016.73)"/><ellipse id="_Path_3" data-name="&lt;Path&gt;" class="cls-5" cx="88.58" cy="20.46" rx="28.33" ry="16.84"/><path id="_Path_4" data-name="&lt;Path&gt;" class="cls-6" d="M6489.76,2030.09s29.58-5.85,33.12,23c0,0,19.66-1.77,21.19-15.92,0,0,.41-15.25-27-17C6517,2020.17,6500.56,2019.11,6489.76,2030.09Z" transform="translate(-6427.16 -2016.73)"/><path id="_Path_5" data-name="&lt;Path&gt;" class="cls-7" d="M6544.69,2073.57l-.56.68c-1.94-8.11-10.09-10.5-17.44-10.92a71.57,71.57,0,0,1-11.23.88l-1.53,0-.77.15.35-.15c-16.89-1-25.63-6.27-32-14.3l5.13,33.73h-.26v-.22c0,9.11,13.39,16.43,28.71,16.43,10.27,0,19.47-3.33,24.47-8.26a11.59,11.59,0,0,0,3.82-8.26v-.07Z" transform="translate(-6427.16 -2016.73)"/><line id="_Path_6" data-name="&lt;Path&gt;" class="cls-8" x1="63.78" y1="48.31" x2="66.61" y2="51.62"/><line id="_Path_7" data-name="&lt;Path&gt;" class="cls-8" x1="69.45" y1="62.01" x2="75.12" y2="55.87"/><line id="_Path_8" data-name="&lt;Path&gt;" class="cls-8" x1="76.06" y1="65.32" x2="79.37" y2="69.57"/><line id="_Path_9" data-name="&lt;Path&gt;" class="cls-8" x1="83.15" y1="59.18" x2="85.51" y2="62.01"/><line id="_Path_10" data-name="&lt;Path&gt;" class="cls-8" x1="93.54" y1="53.98" x2="96.37" y2="50.2"/><line id="_Path_11" data-name="&lt;Path&gt;" class="cls-8" x1="96.37" y1="64.85" x2="98.73" y2="61.07"/><line id="_Path_12" data-name="&lt;Path&gt;" class="cls-8" x1="86.92" y1="70.99" x2="90.23" y2="74.29"/><line id="_Path_13" data-name="&lt;Path&gt;" class="cls-8" x1="99.68" y1="70.99" x2="102.51" y2="72.88"/><line id="_Path_14" data-name="&lt;Path&gt;" class="cls-8" x1="107.71" y1="55.4" x2="109.6" y2="53.04"/><line id="_Path_15" data-name="&lt;Path&gt;" class="cls-8" x1="104.87" y1="51.62" x2="106.76" y2="49.26"/><line id="_Path_16" data-name="&lt;Path&gt;" class="cls-8" x1="69.92" y1="69.57" x2="71.81" y2="73.35"/><line id="_Path_17" data-name="&lt;Path&gt;" class="cls-8" x1="62.36" y1="60.12" x2="65.2" y2="64.37"/><line id="_Path_18" data-name="&lt;Path&gt;" class="cls-8" x1="109.6" y1="64.85" x2="114.32" y2="60.6"/></g></g></g></svg>