<svg xmlns="http://www.w3.org/2000/svg" viewBox="0 0 190.87 115.93"><defs><style>.cls-1{isolation:isolate;}.cls-2{fill:#dcddd8;mix-blend-mode:multiply;}.cls-3{fill:#cecdc9;}</style></defs><g class="cls-1"><g id="Layer_1" data-name="Layer 1"><polygon id="_Path_" data-name="&lt;Path&gt;" class="cls-2" points="0 53.04 91.87 0 188.43 54.36 95.56 107.98 0 53.04"/><path class="cls-3" d="M302.22,475a1.43,1.43,0,0,1-.72-2.66l89.17-51.58a1.43,1.43,0,0,1,1.43,2.47l-89.17,51.58A1.42,1.42,0,0,1,302.22,475Z" transform="translate(-201.95 -363.47)"/><path class="cls-3" d="M307.75,479.4a1.43,1.43,0,0,1-.72-2.66l50.48-29.48a1.43,1.43,0,0,1,1.44,2.47L308.47,479.2A1.42,1.42,0,0,1,307.75,479.4Z" transform="translate(-201.95 -363.47)"/></g></g></svg>