<?xml version="1.0" encoding="utf-8"?>
<!-- Generator: Adobe Illustrator 20.0.0, SVG Export Plug-In . SVG Version: 6.00 Build 0)  -->
<svg version="1.1" id="Layer_1" xmlns="http://www.w3.org/2000/svg" xmlns:xlink="http://www.w3.org/1999/xlink" x="0px" y="0px"
	 viewBox="0 0 138.7 97.9" style="enable-background:new 0 0 138.7 97.9;" xml:space="preserve">
<style type="text/css">
	.st0{fill:#2FE0E0;}
	.st1{opacity:0.59;fill:url(#XMLID_2_);}
	.st2{fill:url(#XMLID_3_);}
	.st3{fill:url(#XMLID_4_);}
	.st4{fill:#001168;}
	.st5{fill:#CBDFF7;}
	.st6{opacity:0.76;fill:url(#XMLID_5_);}
	.st7{fill:#2070B2;}
	.st8{opacity:0.45;fill:#E8ECEF;}
	.st9{fill:#0D475F;}
	.st10{opacity:0.29;fill:#5193BC;}
</style>
<g id="XMLID_5668_">
	<path id="XMLID_5679_" class="st0" d="M128.8,42.1L67.8,6.7c-1.8-1-4-1-5.7,0l-50.2,29c-2.9,1.6-3.6,5.2-2.1,7.7
		c-3.1,2.5-2.9,7.4,0.7,9.5l62.2,36.2c1.8,1,4,1,5.8,0l50.2-29.7c0,0,0,0,0,0l0,0c0.4-0.3,0.7-0.4,0.9-0.7c1.1-1.4,1.4-1.8,1.8-3.3
		c1.9-4.5,0.9-8.2-0.4-10.6c-0.2-0.5-0.5-1-0.9-1.5C129.4,42.4,128.8,42.1,128.8,42.1"/>
	<linearGradient id="XMLID_2_" gradientUnits="userSpaceOnUse" x1="7.6078" y1="47.9105" x2="132.6023" y2="47.9105">
		<stop  offset="1.969677e-03" style="stop-color:#808080"/>
		<stop  offset="0.9934" style="stop-color:#E3DF7F"/>
	</linearGradient>
	<path id="XMLID_5678_" class="st1" d="M128.8,42.1L67.8,6.7c-1.8-1-4-1-5.7,0l-50.2,29c-2.9,1.6-3.6,5.2-2.1,7.7
		c-3.1,2.5-2.9,7.4,0.7,9.5l62.2,36.2c1.8,1,4,1,5.8,0l50.2-29.7c0,0,0,0,0,0l0,0c0.4-0.3,0.7-0.4,0.9-0.7c1.1-1.4,1.4-1.8,1.8-3.3
		c1.9-4.5,0.9-8.2-0.4-10.6c-0.2-0.5-0.5-1-0.9-1.5C129.4,42.4,128.8,42.1,128.8,42.1"/>
	<linearGradient id="XMLID_3_" gradientUnits="userSpaceOnUse" x1="29.6738" y1="12.3141" x2="58.869" y2="32.2421">
		<stop  offset="0" style="stop-color:#0071BC"/>
		<stop  offset="1" style="stop-color:#0048BC"/>
	</linearGradient>
	<path id="XMLID_5677_" class="st2" d="M64.4,25.6c0,5.5-7.3,9.9-16.2,9.9s-22.3-6.2-18.4-10c1.1-1.1,13.6-7.8,20.4-11.8
		C56.5,10.1,64.4,20.1,64.4,25.6z"/>
	<linearGradient id="XMLID_4_" gradientUnits="userSpaceOnUse" x1="28.4446" y1="11.6011" x2="61.2687" y2="34.006">
		<stop  offset="0" style="stop-color:#4275F4"/>
		<stop  offset="1" style="stop-color:#3E46D7"/>
	</linearGradient>
	<path id="XMLID_5676_" class="st3" d="M67.5,26.6c0,6.2-8.2,11.2-18.3,11.2s-25.1-6.9-20.7-11.3c1.2-1.2,15.2-8.8,23-13.3
		C58.6,9.1,67.5,20.4,67.5,26.6z"/>
	<path id="XMLID_5675_" class="st4" d="M63.8,28.4c-1.3,2,0.8-0.3-4.2-7.3c-5.4-7.6-7.4-4.9-27.1,4.5c-1.3,0.6,13-7.5,19.6-11.3
		C58.1,10.9,67.2,23.2,63.8,28.4z"/>
	<polygon id="XMLID_5674_" class="st5" points="38.4,23.4 42,25.2 49.8,20.9 46.1,18.7 	"/>
	<linearGradient id="XMLID_5_" gradientUnits="userSpaceOnUse" x1="7.5741" y1="62.6075" x2="74.5622" y2="62.6075">
		<stop  offset="0" style="stop-color:#0071BC"/>
		<stop  offset="0.9934" style="stop-color:#E3DF7F"/>
	</linearGradient>
	<path id="XMLID_5673_" class="st6" d="M9.8,43.4l64.8,38.4L7.6,47.6C7.6,47.6,7.1,44.8,9.8,43.4z"/>
	<polygon id="XMLID_5672_" class="st7" points="75.2,29.5 87.3,22.5 99.5,29.5 87.3,36.5 	"/>
	<polygon id="XMLID_5671_" class="st8" points="77.4,30.8 89.4,23.7 90.4,24.2 78.5,31.4 	"/>
	<path id="XMLID_5670_" class="st9" d="M75.7,29.2l-0.6,0.3l12.1,7l12.3-7l-1-0.6C98.5,28.9,85.7,37.2,75.7,29.2z"/>
	<path id="XMLID_5669_" class="st10" d="M10.8,36.9c0,0,75.6,41.9,114.4,8.7c3-2.6,7.2,2.8,7.2,2.8s1.6,6.4-3.6,11.1L80.1,88.2
		c0,0-4.1,4.1-11.6-1.2l-58-34.1c0,0-6.3-3.5-0.7-9.5C9.8,43.4,7.6,39.2,10.8,36.9z"/>
</g>
</svg>
