<?xml version="1.0" encoding="utf-8"?>
<!-- Generator: Adobe Illustrator 19.2.1, SVG Export Plug-In . SVG Version: 6.00 Build 0)  -->
<svg version="1.1" id="Layer_1" xmlns="http://www.w3.org/2000/svg" xmlns:xlink="http://www.w3.org/1999/xlink" x="0px" y="0px"
	 viewBox="0 0 612 734" style="enable-background:new 0 0 612 734;" xml:space="preserve">
<style type="text/css">
	.st0{fill:url(#SVGID_1_);}
	.st1{fill:url(#SVGID_2_);}
	.st2{fill:url(#SVGID_3_);}
	.st3{fill:url(#SVGID_4_);}
	.st4{opacity:0.6;}
	.st5{fill:#FFFFFF;}
</style>
<g>
	<g>
		<g>
			<g>
				<g>
					<g>
						
							<linearGradient id="SVGID_1_" gradientUnits="userSpaceOnUse" x1="-7708.02" y1="1302.9664" x2="-7999.4341" y2="1807.7102" gradientTransform="matrix(-1 0 0 -1 -7663.5181 2008.0309)">
							<stop  offset="0" style="stop-color:#FFFFFF;stop-opacity:0"/>
							<stop  offset="1" style="stop-color:#FFFFFF"/>
						</linearGradient>
						<path class="st0" d="M112,71L112,71l-76.7,44.6L35,699.6l544.6-316.1v-42.3L112,71z M106.8,575l0.2-424l366,211.4L106.8,575z"
							/>
						
							<linearGradient id="SVGID_2_" gradientUnits="userSpaceOnUse" x1="18578.8906" y1="-2907.3523" x2="18578.8906" y2="-2907.3523" gradientTransform="matrix(1 0 0 1 -18472.0566 3042.96)">
							<stop  offset="0" style="stop-color:#35BCA8"/>
							<stop  offset="1" style="stop-color:#4C56A6"/>
						</linearGradient>
						<path class="st1" d="M106.8,135.6"/>
						
							<linearGradient id="SVGID_3_" gradientUnits="userSpaceOnUse" x1="18921.9336" y1="-2853.5793" x2="19098.9219" y2="-2789.1611" gradientTransform="matrix(1 0 0 1 -18472.0566 3042.96)">
							<stop  offset="0" style="stop-color:#FFFFFF;stop-opacity:0"/>
							<stop  offset="1" style="stop-color:#FFFFFF"/>
						</linearGradient>
						<polygon class="st2" points="472.9,362.4 543.8,404.2 579.7,383.5 579.7,341.2 579.5,69 507.9,29.9 507.8,111.1 507.8,300.3 
							502.7,297.4 470.6,361.1 						"/>
						
							<linearGradient id="SVGID_4_" gradientUnits="userSpaceOnUse" x1="18746.3984" y1="-2924.9248" x2="18979.9707" y2="-2924.9248" gradientTransform="matrix(1 0 0 1 -18472.0566 3042.96)">
							<stop  offset="0" style="stop-color:#FFFFFF;stop-opacity:0"/>
							<stop  offset="1" style="stop-color:#FFFFFF"/>
						</linearGradient>
						<polygon class="st3" points="507.8,111.1 507.9,104.5 507.9,29.9 274.3,164.9 345.8,206.1 						"/>
					</g>
				</g>
			</g>
			<g class="st4">
				<path class="st5" d="M569.2,456.9c-6.9-7-15.5-10.5-25.5-10.5c-10,0-18.6,3.5-25.5,10.5c-6.9,7-10.4,15.6-10.4,25.7
					c0,10,3.5,18.7,10.4,25.7c6.9,7,15.5,10.5,25.5,10.5c10,0,18.6-3.5,25.5-10.5c6.9-7,10.4-15.6,10.4-25.7
					C579.7,472.5,576.1,463.9,569.2,456.9z M569,482.5c0,7.3-2.4,13.3-7.4,18.2c-5,4.9-10.8,7.4-17.9,7.4s-12.9-2.4-17.9-7.4
					c-5-4.9-7.4-10.9-7.4-18.2c0-7.2,2.5-13.3,7.3-18.2c4.9-4.9,10.9-7.3,18-7.3c7.1,0,13,2.4,18,7.3
					C566.5,469.2,569,475.3,569,482.5z"/>
				<path class="st5" d="M556.4,463.9c-3.4-2.8-7.7-4.3-12.7-4.3c-6,0-11,2.3-15,6.7c-4,4.4-6,9.8-6,16c0,6.2,2,11.6,6,16
					c4,4.5,9.1,6.7,15,6.7c5,0,9.3-1.4,12.7-4.3c3.4-2.8,5.6-6.6,6.5-11.2l0.4-1.9h-10.8l-0.3,1.2c-0.4,1.7-1.3,3-2.9,4
					c-1.7,1-3.5,1.5-5.6,1.5c-3,0-5.4-1.2-7.3-3.6c-2.1-2.5-3-5.3-3-8.5c0-3.2,1-6,3-8.5c2-2.4,4.4-3.6,7.3-3.6
					c2.1,0,3.9,0.5,5.6,1.5c1.5,0.9,2.5,2.2,2.9,4l0.3,1.2h10.8l-0.4-1.9C562,470.5,559.8,466.7,556.4,463.9z"/>
			</g>
		</g>
	</g>
</g>
</svg>
