<?xml version="1.0" encoding="utf-8"?>
<!-- Generator: Adobe Illustrator 20.0.0, SVG Export Plug-In . SVG Version: 6.00 Build 0)  -->
<svg version="1.1" xmlns="http://www.w3.org/2000/svg" xmlns:xlink="http://www.w3.org/1999/xlink" x="0px" y="0px"
	 viewBox="0 0 112.3 65.7" style="enable-background:new 0 0 112.3 65.7;" xml:space="preserve">
<style type="text/css">
	.st0{fill:#2E375D;}
	.st1{fill:#4275F4;}
	.st2{opacity:0.2;fill:url(#SVGID_1_);}
	.st3{opacity:0.1;fill:url(#SVGID_2_);}
	.st4{opacity:0.1;}
	.st5{clip-path:url(#SVGID_4_);}
	.st6{fill:url(#SVGID_5_);}
	.st7{fill:url(#SVGID_6_);}
	.st8{fill:url(#SVGID_7_);}
	.st9{fill:url(#SVGID_8_);}
	.st10{opacity:0.6;}
	.st11{fill:#FFFFFF;}
	.st12{clip-path:url(#SVGID_10_);}
	.st13{fill:url(#SVGID_11_);}
	.st14{fill:url(#SVGID_12_);}
	.st15{fill:url(#SVGID_13_);}
	.st16{fill:url(#SVGID_14_);}
	.st17{fill:url(#SVGID_15_);}
	.st18{fill:#F2F2F5;}
	.st19{fill:#DCDCDC;}
	.st20{fill:#F3F3F3;}
	.st21{fill:#C1C0BF;}
	.st22{fill:#97999D;}
	.st23{fill:url(#SVGID_16_);}
	.st24{fill:url(#SVGID_17_);}
	.st25{fill:url(#SVGID_18_);}
	.st26{fill:#00C6AD;}
	.st27{fill:url(#SVGID_19_);}
	.st28{fill:url(#SVGID_20_);}
	.st29{fill:url(#SVGID_21_);}
	.st30{fill:url(#SVGID_22_);}
	.st31{fill:url(#SVGID_23_);}
	.st32{fill:url(#SVGID_24_);}
	.st33{fill:url(#SVGID_25_);}
	.st34{opacity:0.3;}
	.st35{fill:url(#SVGID_26_);}
	.st36{fill:url(#SVGID_27_);}
	.st37{fill:url(#SVGID_28_);}
	.st38{fill:url(#SVGID_29_);}
	.st39{fill:url(#SVGID_30_);}
	.st40{fill:url(#SVGID_31_);}
	.st41{fill:url(#SVGID_32_);}
	.st42{fill:url(#SVGID_33_);}
	.st43{fill:url(#SVGID_34_);}
	.st44{fill:url(#SVGID_35_);}
	.st45{fill:url(#SVGID_36_);}
	.st46{fill:url(#SVGID_37_);}
	.st47{fill:url(#SVGID_38_);}
	.st48{fill:url(#SVGID_39_);}
	.st49{fill:url(#SVGID_40_);}
	.st50{fill:url(#SVGID_41_);}
	.st51{fill:url(#SVGID_42_);}
	.st52{fill:url(#SVGID_43_);}
	.st53{fill:url(#SVGID_44_);}
	.st54{fill:url(#SVGID_45_);}
	.st55{fill:#3E46D7;}
	.st56{fill:url(#SVGID_46_);}
	.st57{fill:url(#SVGID_47_);}
	.st58{fill:url(#SVGID_48_);}
	.st59{fill:url(#SVGID_49_);}
	.st60{fill:url(#SVGID_50_);}
	.st61{fill:url(#SVGID_51_);}
	.st62{fill:url(#SVGID_52_);}
	.st63{fill:url(#SVGID_53_);}
	.st64{fill:url(#SVGID_54_);}
	.st65{fill:url(#SVGID_55_);}
	.st66{fill:url(#SVGID_56_);}
	.st67{fill:url(#SVGID_57_);}
	.st68{fill:url(#SVGID_58_);}
	.st69{fill:#2CE5B5;}
	.st70{fill:url(#SVGID_59_);}
	.st71{fill:url(#SVGID_60_);}
	.st72{fill:url(#SVGID_61_);}
	.st73{fill:url(#SVGID_62_);}
	.st74{fill:url(#SVGID_63_);}
	.st75{fill:url(#SVGID_64_);}
	.st76{fill:url(#SVGID_65_);}
	.st77{fill:url(#SVGID_66_);}
	.st78{fill:url(#SVGID_67_);}
	.st79{fill:url(#SVGID_68_);}
	.st80{fill:url(#SVGID_69_);}
	.st81{fill:url(#SVGID_70_);}
	.st82{fill:url(#SVGID_71_);}
	.st83{fill:url(#SVGID_72_);}
	.st84{fill:url(#SVGID_73_);}
	.st85{fill:url(#SVGID_74_);}
	.st86{fill:url(#SVGID_75_);}
	.st87{fill:#51555B;}
	.st88{fill:url(#SVGID_76_);}
	.st89{fill:url(#SVGID_77_);}
	.st90{fill:url(#SVGID_78_);}
	.st91{fill:url(#SVGID_79_);}
	.st92{fill:url(#SVGID_80_);}
	.st93{fill:url(#SVGID_81_);}
	.st94{fill:url(#SVGID_82_);}
	.st95{fill:url(#SVGID_83_);}
	.st96{fill:url(#SVGID_84_);}
	.st97{fill:url(#SVGID_85_);}
	.st98{fill:url(#SVGID_86_);}
	.st99{fill:url(#SVGID_87_);}
	.st100{fill:url(#SVGID_88_);}
	.st101{fill:url(#SVGID_89_);}
	.st102{fill:url(#SVGID_90_);}
	.st103{fill:url(#SVGID_91_);}
	.st104{fill:url(#SVGID_92_);}
	.st105{fill:url(#SVGID_93_);}
	.st106{fill:url(#SVGID_94_);}
	.st107{fill:url(#SVGID_95_);}
	.st108{fill:url(#SVGID_96_);}
	.st109{fill:url(#SVGID_97_);}
	.st110{fill:url(#SVGID_98_);}
	.st111{fill:url(#SVGID_99_);}
	.st112{fill:url(#SVGID_100_);}
	.st113{fill:url(#SVGID_101_);}
	.st114{fill:url(#SVGID_102_);}
	.st115{fill:url(#SVGID_103_);}
	.st116{fill:url(#SVGID_104_);}
	.st117{fill:url(#SVGID_105_);}
	.st118{fill:url(#SVGID_106_);}
	.st119{fill:url(#SVGID_107_);}
	.st120{fill:url(#SVGID_108_);}
	.st121{fill:url(#SVGID_109_);}
	.st122{fill:#97999D;stroke:#97999D;stroke-width:0.2;stroke-miterlimit:10;}
	.st123{fill:url(#SVGID_110_);}
	.st124{fill:url(#SVGID_111_);}
	.st125{fill:url(#SVGID_112_);}
	.st126{fill:url(#SVGID_113_);}
	.st127{fill:url(#SVGID_114_);}
	.st128{fill:url(#SVGID_115_);}
	.st129{fill:url(#SVGID_116_);}
	.st130{fill:url(#SVGID_117_);}
	.st131{fill:url(#SVGID_118_);}
	.st132{fill:url(#SVGID_119_);}
	.st133{fill:url(#SVGID_120_);}
	.st134{fill:url(#SVGID_121_);}
	.st135{fill:url(#SVGID_122_);}
	.st136{fill:url(#SVGID_123_);}
	.st137{fill:url(#SVGID_124_);}
	.st138{fill:url(#SVGID_125_);}
	.st139{fill:url(#SVGID_126_);}
	.st140{fill:url(#SVGID_127_);}
	.st141{fill:url(#SVGID_128_);}
	.st142{fill:url(#SVGID_129_);}
	.st143{fill:url(#SVGID_130_);}
	.st144{fill:url(#SVGID_131_);}
	.st145{fill:url(#SVGID_132_);}
	.st146{fill:url(#SVGID_133_);}
	.st147{fill:url(#SVGID_134_);}
	.st148{fill-rule:evenodd;clip-rule:evenodd;fill:#347EB1;}
	.st149{fill-rule:evenodd;clip-rule:evenodd;fill:#7CB946;}
	.st150{fill:#727272;}
	.st151{fill:#9A9A99;}
	.st152{fill-rule:evenodd;clip-rule:evenodd;fill:#2CE5B5;}
	.st153{fill:url(#SVGID_135_);}
	.st154{fill:url(#SVGID_136_);}
	.st155{fill:url(#SVGID_137_);}
	.st156{fill:url(#SVGID_138_);}
	.st157{fill:url(#SVGID_139_);}
	.st158{fill:url(#SVGID_140_);}
	.st159{fill:url(#SVGID_141_);}
	.st160{fill:url(#SVGID_142_);}
	.st161{fill:url(#SVGID_143_);}
	.st162{fill:url(#SVGID_144_);}
	.st163{fill:none;stroke:#00AEEF;stroke-miterlimit:10;}
	.st164{fill:url(#SVGID_145_);}
	.st165{fill:url(#SVGID_146_);}
	.st166{fill:url(#SVGID_147_);}
	.st167{fill:url(#SVGID_148_);}
	.st168{fill:url(#SVGID_149_);}
	.st169{fill:url(#SVGID_150_);}
	.st170{fill:url(#SVGID_151_);}
	.st171{fill:url(#SVGID_152_);}
	.st172{fill:url(#SVGID_153_);}
	.st173{fill:url(#SVGID_154_);}
	.st174{fill:url(#SVGID_155_);}
	.st175{fill:url(#SVGID_156_);}
	.st176{fill:url(#SVGID_157_);}
	.st177{fill:url(#SVGID_158_);}
	.st178{fill:url(#SVGID_159_);}
	.st179{fill:url(#SVGID_160_);}
	.st180{fill:url(#SVGID_161_);}
	.st181{fill:url(#SVGID_162_);}
	.st182{fill:url(#SVGID_163_);}
	.st183{fill:url(#SVGID_164_);}
	.st184{fill:url(#SVGID_165_);}
	.st185{fill:url(#SVGID_166_);}
	.st186{fill:url(#SVGID_167_);}
	.st187{fill:url(#SVGID_168_);}
	.st188{fill:url(#SVGID_169_);}
	.st189{fill:url(#SVGID_170_);}
	.st190{fill:url(#SVGID_171_);}
	.st191{fill:url(#SVGID_172_);}
	.st192{fill:url(#SVGID_173_);}
	.st193{fill:url(#SVGID_174_);}
	.st194{fill:url(#SVGID_175_);}
	.st195{fill:url(#SVGID_176_);}
	.st196{fill:url(#SVGID_177_);}
	.st197{fill:url(#SVGID_178_);}
	.st198{fill:url(#SVGID_179_);}
	.st199{fill:url(#SVGID_180_);}
	.st200{fill:url(#SVGID_181_);}
	.st201{fill:url(#SVGID_182_);}
	.st202{fill:url(#SVGID_183_);}
	.st203{fill:url(#SVGID_184_);}
	.st204{fill:url(#SVGID_185_);}
	.st205{fill:url(#SVGID_186_);}
	.st206{fill:url(#SVGID_187_);}
	.st207{fill:url(#SVGID_188_);}
	.st208{fill:url(#SVGID_189_);}
	.st209{fill:url(#SVGID_190_);}
	.st210{fill:url(#SVGID_191_);}
	.st211{fill:url(#SVGID_192_);}
	.st212{fill:url(#SVGID_193_);}
	.st213{fill:url(#SVGID_194_);}
	.st214{fill:url(#SVGID_195_);}
	.st215{fill:url(#SVGID_196_);}
	.st216{fill:url(#SVGID_197_);}
	.st217{fill:url(#SVGID_198_);}
	.st218{fill:url(#SVGID_199_);}
	.st219{fill:url(#SVGID_200_);}
	.st220{fill:url(#SVGID_201_);}
	.st221{fill:url(#SVGID_202_);}
	.st222{fill:url(#SVGID_203_);}
	.st223{fill:url(#SVGID_204_);}
	.st224{fill:url(#SVGID_205_);}
	.st225{fill:url(#SVGID_206_);}
	.st226{fill:url(#SVGID_207_);}
	.st227{fill:url(#SVGID_208_);}
	.st228{fill:url(#SVGID_209_);}
	.st229{fill:url(#SVGID_210_);}
	.st230{fill:url(#SVGID_211_);}
	.st231{fill:url(#SVGID_212_);}
	.st232{fill:url(#SVGID_213_);}
	.st233{fill:url(#SVGID_214_);}
	.st234{fill:url(#SVGID_215_);}
	.st235{fill:url(#SVGID_216_);}
	.st236{fill:url(#SVGID_217_);}
	.st237{fill:url(#SVGID_218_);}
	.st238{fill:url(#SVGID_219_);}
	.st239{fill:url(#SVGID_220_);}
	.st240{fill:url(#SVGID_221_);}
	.st241{fill:url(#SVGID_222_);}
	.st242{fill:url(#SVGID_223_);}
	.st243{fill:url(#SVGID_224_);}
	.st244{fill:url(#SVGID_225_);}
	.st245{fill:url(#SVGID_226_);}
	.st246{fill:url(#SVGID_227_);}
	.st247{fill:url(#SVGID_228_);}
	.st248{fill:url(#SVGID_229_);}
	.st249{fill:url(#SVGID_230_);}
	.st250{fill:url(#SVGID_231_);}
	.st251{fill:url(#SVGID_232_);}
	.st252{fill:url(#SVGID_233_);}
	.st253{fill:url(#SVGID_234_);}
	.st254{fill:url(#SVGID_235_);}
	.st255{fill:url(#SVGID_236_);}
	.st256{fill:url(#SVGID_237_);}
	.st257{fill:url(#SVGID_238_);}
	.st258{fill:url(#SVGID_239_);}
	.st259{fill:url(#SVGID_240_);}
	.st260{fill:url(#SVGID_241_);}
	.st261{fill:url(#SVGID_242_);}
	.st262{fill:url(#SVGID_243_);}
	.st263{fill:url(#SVGID_244_);}
	.st264{fill:url(#SVGID_245_);}
	.st265{fill:url(#SVGID_246_);}
	.st266{fill:url(#SVGID_247_);}
	.st267{fill:url(#SVGID_248_);}
	.st268{fill:url(#SVGID_249_);}
	.st269{fill:url(#SVGID_250_);}
	.st270{fill:url(#SVGID_251_);}
	.st271{fill:url(#SVGID_252_);}
	.st272{fill:url(#SVGID_253_);}
	.st273{fill:url(#SVGID_254_);}
	.st274{fill:url(#SVGID_255_);}
	.st275{fill-rule:evenodd;clip-rule:evenodd;fill:#4275F4;}
	.st276{fill-rule:evenodd;clip-rule:evenodd;fill:url(#SVGID_256_);}
	.st277{fill-rule:evenodd;clip-rule:evenodd;fill:url(#SVGID_257_);}
	.st278{fill:url(#SVGID_258_);}
	.st279{fill:url(#SVGID_259_);}
	.st280{fill:url(#SVGID_260_);}
	.st281{fill:url(#SVGID_261_);}
	.st282{fill:url(#SVGID_262_);}
	.st283{fill:url(#SVGID_263_);}
	.st284{fill:url(#SVGID_264_);}
	.st285{fill:url(#SVGID_265_);}
	.st286{fill:url(#SVGID_266_);}
	.st287{fill:url(#SVGID_267_);}
	.st288{fill:url(#SVGID_268_);}
	.st289{fill:url(#SVGID_269_);}
	.st290{fill:url(#SVGID_270_);}
	.st291{fill:url(#SVGID_271_);}
	.st292{fill:url(#SVGID_272_);}
	.st293{fill:url(#SVGID_273_);}
	.st294{fill:url(#SVGID_274_);}
	.st295{display:none;}
	.st296{display:inline;fill:#97999D;}
	.st297{display:inline;}
</style>
<g id="Layer_1">
</g>
<g id="Layer_3">
</g>
<g id="Layer_2">
</g>
<g id="Layer_4">
	<g>
		<g>
			<g>
				<path class="st11" d="M52.5,47.8c-0.7-0.7-1.5-1-2.5-1s-1.8,0.3-2.5,1c-0.7,0.7-1,1.5-1,2.5c0,1,0.3,1.8,1,2.5
					c0.7,0.7,1.5,1,2.5,1s1.8-0.3,2.5-1c0.7-0.7,1-1.5,1-2.5C53.5,49.4,53.2,48.5,52.5,47.8z M52.5,50.4c0,0.7-0.2,1.3-0.7,1.8
					c-0.5,0.5-1.1,0.7-1.8,0.7s-1.3-0.2-1.8-0.7c-0.5-0.5-0.7-1.1-0.7-1.8c0-0.7,0.2-1.3,0.7-1.8c0.5-0.5,1.1-0.7,1.8-0.7
					c0.7,0,1.3,0.2,1.8,0.7C52.2,49,52.5,49.6,52.5,50.4z"/>
				<path class="st11" d="M51.3,48.5c-0.3-0.3-0.8-0.4-1.3-0.4c-0.6,0-1.1,0.2-1.5,0.7c-0.4,0.4-0.6,1-0.6,1.6
					c0,0.6,0.2,1.1,0.6,1.6c0.4,0.4,0.9,0.7,1.5,0.7c0.5,0,0.9-0.1,1.3-0.4c0.3-0.3,0.6-0.7,0.6-1.1l0-0.2h-1.1l0,0.1
					c0,0.2-0.1,0.3-0.3,0.4c-0.2,0.1-0.3,0.1-0.5,0.1c-0.3,0-0.5-0.1-0.7-0.4c-0.2-0.2-0.3-0.5-0.3-0.8c0-0.3,0.1-0.6,0.3-0.8
					c0.2-0.2,0.4-0.4,0.7-0.4c0.2,0,0.4,0,0.5,0.1c0.2,0.1,0.2,0.2,0.3,0.4l0,0.1h1.1l0-0.2C51.8,49.2,51.6,48.8,51.3,48.5z"/>
			</g>
			<linearGradient id="SVGID_1_" gradientUnits="userSpaceOnUse" x1="46.3456" y1="8.6888" x2="23.4443" y2="8.6888">
				<stop  offset="0" style="stop-color:#4275F4"/>
				<stop  offset="1" style="stop-color:#7438D6"/>
			</linearGradient>
			<polygon style="fill:url(#SVGID_1_);" points="46.3,8.2 46.3,0 23.4,13.3 30.5,17.4 			"/>
			<linearGradient id="SVGID_2_" gradientUnits="userSpaceOnUse" x1="44.9061" y1="16.3588" x2="3.2917" y2="23.6965">
				<stop  offset="0" style="stop-color:#4275F4"/>
				<stop  offset="0.3468" style="stop-color:#5163EB"/>
				<stop  offset="1" style="stop-color:#7438D6"/>
			</linearGradient>
			<polygon style="fill:url(#SVGID_2_);" points="46.7,34.9 0.6,8.2 7.5,4.1 46.7,26.7 			"/>
			<linearGradient id="SVGID_4_" gradientUnits="userSpaceOnUse" x1="49.8567" y1="5.578478e-02" x2="49.8567" y2="24.8477">
				<stop  offset="9.693877e-02" style="stop-color:#25B0E5"/>
				<stop  offset="0.815" style="stop-color:#4275F4"/>
			</linearGradient>
			<polygon style="fill:url(#SVGID_4_);" points="46.3,24.8 49.9,24.8 53.4,24.8 53.4,3.9 46.3,0.1 46.3,8 			"/>
			<polygon class="st26" points="53.4,34.7 49.9,36.8 46.7,34.9 46.3,24.4 53.4,24.4 			"/>
			<linearGradient id="SVGID_5_" gradientUnits="userSpaceOnUse" x1="0" y1="36.9194" x2="49.8609" y2="36.9194">
				<stop  offset="0" style="stop-color:#25B0E5"/>
				<stop  offset="0.4859" style="stop-color:#4275F4"/>
				<stop  offset="1" style="stop-color:#7438D6"/>
			</linearGradient>
			<polygon class="st6" points="42.9,32.7 49.9,36.8 0,65.7 0,8.5 0.5,8.1 7,11.9 7,53.5 			"/>
			<polyline class="st1" points="46.3,34.7 49.9,36.8 53.4,34.7 53.4,23.1 46.3,23.1 46.3,34.7 			"/>
		</g>
		<g>
			<path class="st11" d="M66.1,53.9V53h0c-0.5,0.9-1.5,1.2-2.5,1.2c-2.5,0-4.2-2-4.2-4.5c0-2.4,1.6-4.4,4.1-4.4c1,0,1.8,0.3,2.4,1
				v-3.5h2.5v11.1H66.1z M64,47.6c-1.2,0-2.1,0.9-2.1,2.1s0.8,2.1,2.1,2.1s2.1-0.9,2.1-2.1C66.1,48.5,65.2,47.6,64,47.6z"/>
			<path class="st11" d="M70.2,44.7v-1.9h2.5v1.9H70.2z M70.2,53.9v-8.3h2.5v8.3H70.2z"/>
			<path class="st11" d="M82.7,55.6c-0.8,1.4-2.7,2-4.2,2c-1.4,0-2.8-0.4-3.6-1.6c-0.3-0.4-0.5-0.8-0.5-1.3h2.9
				c0.3,0.6,0.8,0.8,1.5,0.8c1.4,0,2-0.9,2-2.3V53h0c-0.4,0.8-1.4,1.2-2.3,1.2c-2.5,0-4.2-1.9-4.2-4.4c0-2.4,1.7-4.5,4.2-4.5
				c0.9,0,1.8,0.3,2.3,1h0v-0.8h2.5v7.3C83.2,53.8,83.1,54.8,82.7,55.6z M78.6,47.6c-1.2,0-2,0.9-2,2.1c0,1.2,0.8,2.1,2,2.1
				c1.2,0,2-0.9,2-2.1S79.9,47.6,78.6,47.6z"/>
			<path class="st11" d="M85.1,44.7v-1.9h2.5v1.9H85.1z M85.1,53.9v-8.3h2.5v8.3H85.1z"/>
			<path class="st11" d="M93.4,54.2c-2.5,0-4.5-2-4.5-4.5c0-2.5,1.9-4.4,4.4-4.4c2.1,0,4,1.4,4.4,3.5h-2.5c-0.4-0.8-1-1.2-1.9-1.2
				c-1.2,0-1.9,1-1.9,2.1c0,1.2,0.8,2.1,2,2.1c0.8,0,1.4-0.4,1.8-1.1h2.5C97.3,52.8,95.5,54.2,93.4,54.2z"/>
			<path class="st11" d="M105.4,53.9V53h0c-0.5,0.9-1.5,1.2-2.4,1.2c-2.6,0-4.2-2-4.2-4.5c0-2.4,1.7-4.4,4.2-4.4
				c0.9,0,1.9,0.3,2.4,1.2h0v-0.9h2.5v8.3H105.4z M103.3,47.6c-1.2,0-2.1,1-2.1,2.1c0,1.2,0.9,2.1,2.1,2.1c1.2,0,2.1-0.9,2.1-2.1
				C105.4,48.5,104.5,47.6,103.3,47.6z"/>
			<path class="st11" d="M109.8,53.9V42.8h2.5v11.1H109.8z"/>
		</g>
		<g>
			<path class="st11" d="M62.7,38.9h-2.6l1.3-3.2l-3.1-7.9H61l1.7,4.8h0l1.6-4.8h2.6L62.7,38.9z"/>
			<path class="st11" d="M73.2,36.2v-0.9h0c-0.4,0.9-1.2,1.2-2.2,1.2c-0.9,0-1.8-0.3-2.4-1c-0.7-0.8-0.8-1.5-0.8-2.6v-5h2.5v4.6
				c0,0.9,0.2,1.7,1.3,1.7c1,0,1.4-0.7,1.4-1.7v-4.6h2.5v8.3H73.2z"/>
			<path class="st11" d="M80.2,36.4c-1.7,0-3.2-0.9-3.4-2.8h2.5c0.1,0.5,0.5,0.8,0.9,0.8c0.4,0,0.9-0.2,0.9-0.6c0-0.6-0.7-0.8-1.1-1
				c-0.4-0.1-0.7-0.2-1.1-0.4c-1-0.4-2-1-2-2.2c0-1.7,1.6-2.7,3.2-2.7c1.7,0,3,0.9,3.2,2.6h-2.4c0-0.5-0.3-0.6-0.8-0.6
				c-0.3,0-0.7,0.2-0.7,0.6c0,1.3,4.2,0.6,4.2,3.5C83.6,35.5,81.9,36.4,80.2,36.4z"/>
			<path class="st11" d="M89.8,36.4c-1,0-1.8-0.3-2.5-1v3.5h-2.5V27.8h2.3v0.9h0h0c0.6-0.8,1.6-1.2,2.6-1.2c2.6,0,4.1,2.1,4.1,4.5
				C93.9,34.4,92.3,36.4,89.8,36.4z M89.3,29.9c-1.2,0-2.1,0.9-2.1,2.1c0,1.2,0.9,2.1,2.1,2.1c1.2,0,2.1-0.9,2.1-2.1
				C91.4,30.8,90.5,29.9,89.3,29.9z"/>
		</g>
	</g>
</g>
<g id="Layer_5" class="st295">
</g>
</svg>
