<?xml version="1.0" encoding="utf-8"?>
<!-- Generator: Adobe Illustrator 20.0.0, SVG Export Plug-In . SVG Version: 6.00 Build 0)  -->
<svg version="1.1" id="Layer_1" xmlns="http://www.w3.org/2000/svg" xmlns:xlink="http://www.w3.org/1999/xlink" x="0px" y="0px"
	 viewBox="0 0 182.3 296.2" style="enable-background:new 0 0 182.3 296.2;" xml:space="preserve">
<style type="text/css">
	.st0{opacity:0.7;}
	.st1{fill:#FFFFFF;}
	.st2{opacity:0.6;}
	.st3{fill:url(#SVGID_1_);}
	.st4{fill:url(#SVGID_2_);}
	.st5{fill:url(#SVGID_3_);}
	.st6{fill:#00C6AD;}
	.st7{fill:url(#SVGID_4_);}
	.st8{fill:url(#SVGID_5_);}
</style>
<g>
	<g class="st0">
		<path class="st1" d="M171.6,156.5c-2.1-2.2-4.8-3.2-7.8-3.2s-5.7,1.1-7.8,3.2c-2.1,2.1-3.2,4.8-3.2,7.9c0,3.1,1.1,5.7,3.2,7.9
			c2.1,2.2,4.8,3.2,7.8,3.2s5.7-1.1,7.8-3.2c2.1-2.1,3.2-4.8,3.2-7.9C174.8,161.3,173.7,158.7,171.6,156.5z M171.5,164.4
			c0,2.2-0.7,4.1-2.3,5.6c-1.5,1.5-3.3,2.3-5.5,2.3s-4-0.7-5.5-2.3c-1.5-1.5-2.3-3.4-2.3-5.6c0-2.2,0.8-4.1,2.3-5.6
			c1.5-1.5,3.4-2.3,5.5-2.3c2.2,0,4,0.7,5.5,2.3C170.8,160.3,171.5,162.2,171.5,164.4z"/>
		<path class="st1" d="M167.7,158.7c-1-0.9-2.4-1.3-3.9-1.3c-1.8,0-3.4,0.7-4.6,2.1c-1.2,1.4-1.8,3-1.8,4.9c0,1.9,0.6,3.6,1.8,4.9
			c1.2,1.4,2.8,2.1,4.6,2.1c1.5,0,2.9-0.4,3.9-1.3c1-0.9,1.7-2,2-3.4l0.1-0.6h-3.3l-0.1,0.4c-0.1,0.5-0.4,0.9-0.9,1.2
			c-0.5,0.3-1.1,0.5-1.7,0.5c-0.9,0-1.7-0.4-2.3-1.1c-0.6-0.8-0.9-1.6-0.9-2.6c0-1,0.3-1.8,0.9-2.6c0.6-0.7,1.3-1.1,2.3-1.1
			c0.6,0,1.2,0.2,1.7,0.5c0.5,0.3,0.8,0.7,0.9,1.2l0.1,0.4h3.3l-0.1-0.6C169.4,160.7,168.7,159.6,167.7,158.7z"/>
	</g>
	<g class="st2">
		<g>
			<path class="st1" d="M22.7,266.9l1.3,4.5h0.2l11.5-32.3h4.7L24,283.3c-1,2.6-2.3,4.8-3.8,6.6c-1.6,1.8-3.9,2.7-6.9,2.7
				c-0.5,0-1.1-0.1-1.8-0.2c-0.7-0.1-1.2-0.2-1.6-0.3l0.5-3.5c0.3,0,0.7,0.1,1.4,0.2c0.6,0.1,1.1,0.1,1.4,0.1c1.8,0,3.3-0.7,4.4-2
				c1.1-1.3,2-3,2.8-5l2-5.1L7.6,239.1h4.7L22.7,266.9z"/>
			<path class="st1" d="M125,267.5c0-1.8-0.7-3.3-2.2-4.7c-1.5-1.3-4.1-2.4-7.9-3.3c-4.6-1-7.9-2.3-10.1-3.9
				c-2.2-1.6-3.3-3.9-3.3-6.9c0-2.9,1.2-5.4,3.7-7.4c2.5-2,5.7-3,9.7-3c4.3,0,7.7,1.1,10.2,3.2c2.5,2.1,3.7,4.8,3.6,8l-0.1,0.2h-3.9
				c0-2.1-0.9-3.9-2.7-5.5c-1.8-1.6-4.2-2.3-7.2-2.3c-3.1,0-5.4,0.7-6.9,2c-1.5,1.3-2.3,2.9-2.3,4.6c0,1.8,0.7,3.2,2,4.3
				c1.3,1.1,4,2.2,7.9,3c4.5,1,7.9,2.4,10.2,4.2s3.4,4.1,3.4,7.2c0,3.2-1.3,5.8-3.9,7.7c-2.6,2-6,3-10.2,3c-4.6,0-8.3-1.1-10.9-3.3
				c-2.6-2.2-3.9-4.8-3.8-7.9l0.1-0.2h3.9c0.2,2.7,1.3,4.7,3.4,6c2.1,1.2,4.5,1.9,7.3,1.9c3.1,0,5.5-0.7,7.2-2
				C124.1,271,125,269.4,125,267.5z"/>
			<path class="st1" d="M174.8,258.9c0-5.9-1.3-10.7-3.9-14.3c-2.5-3.6-6.1-5.4-10.5-5.5h-1.9c-4.3,0-7.7,1.6-10.2,4.7v-4.8h-4.2
				v18.9v0.7v33.9h4.2v-19.2c2.5,3.3,5.9,5,10.2,5h1.9c4.5,0,8-1.7,10.5-5.1c2.6-3.4,3.9-7.9,3.9-13.7V258.9
				C174.8,259,174.8,259,174.8,258.9L174.8,258.9z M167.7,270.7c-1.7,2.5-4.2,3.8-7.3,4.1c0,0-0.7,0-1,0c-0.3,0-0.9,0-0.9,0
				c-3.1-0.3-5.6-1.7-7.3-4.5c-1.9-2.9-2.8-6.7-2.9-11.4l0-1c0-4.6,1-8.3,2.9-11c1.7-2.5,4.2-3.8,7.3-4.1c0,0,0.7,0,1,0
				c0.3,0,0.9,0,0.9,0c3.1,0.3,5.6,1.7,7.3,4.5c1.9,2.9,2.8,6.7,2.9,11.4h0c0,0.1,0,1,0,1C170.6,264.3,169.6,267.9,167.7,270.7z"/>
		</g>
		<path class="st1" d="M80.9,239.1v23.3v1v0c0,5.7-4.6,10.4-10.4,10.4c-5.7,0-10.4-4.6-10.4-10.4v0v-1.1v-23.1h-4.2v24.1
			c0,0,0,0.1,0,0.1h0c0,0,0,0,0,0.1c0,8.1,6.5,14.6,14.6,14.6c8,0,14.5-6.5,14.6-14.5h0v-24.4H80.9z"/>
	</g>
	<g>
		<linearGradient id="SVGID_1_" gradientUnits="userSpaceOnUse" x1="152.3562" y1="34.3729" x2="80.8742" y2="34.3729">
			<stop  offset="0.1173" style="stop-color:#00C6AD"/>
			<stop  offset="1" style="stop-color:#3E46D7"/>
		</linearGradient>
		<polygon class="st3" points="152.4,32.7 152.4,7.3 80.9,48.7 102.8,61.5 		"/>
		<linearGradient id="SVGID_2_" gradientUnits="userSpaceOnUse" x1="147.863" y1="58.3134" x2="17.9719" y2="81.2167">
			<stop  offset="0" style="stop-color:#00C6AD"/>
			<stop  offset="0.3619" style="stop-color:#2CE5B5"/>
			<stop  offset="1" style="stop-color:#4275F4"/>
		</linearGradient>
		<polygon class="st4" points="153.6,116.1 9.4,32.7 31.2,20 153.6,90.7 		"/>
		<linearGradient id="SVGID_3_" gradientUnits="userSpaceOnUse" x1="163.3153" y1="7.4268" x2="163.3153" y2="84.8099">
			<stop  offset="9.693877e-02" style="stop-color:#2CE5B5"/>
			<stop  offset="0.815" style="stop-color:#00C6AD"/>
		</linearGradient>
		<polygon class="st5" points="152.4,84.7 163.3,84.7 174.3,84.8 174.2,19.4 152.4,7.4 152.3,32.2 		"/>
		<polygon class="st6" points="174.3,115.6 163.3,122 153.6,116.1 152.4,83.4 174.3,83.4 		"/>
		<linearGradient id="SVGID_4_" gradientUnits="userSpaceOnUse" x1="7.6976" y1="122.4891" x2="163.3285" y2="122.4891">
			<stop  offset="0" style="stop-color:#2CE5B5"/>
			<stop  offset="0.305" style="stop-color:#00C6AD"/>
			<stop  offset="1" style="stop-color:#3E46D7"/>
		</linearGradient>
		<polygon class="st7" points="141.5,109.3 163.3,122 7.7,212.3 7.7,33.7 9.4,32.7 29.7,44.4 29.7,174.2 		"/>
		<linearGradient id="SVGID_5_" gradientUnits="userSpaceOnUse" x1="152.3562" y1="67.8025" x2="9.3921" y2="67.8025">
			<stop  offset="0" style="stop-color:#00C6AD"/>
			<stop  offset="3.202707e-03" style="stop-color:#01C6AD"/>
			<stop  offset="0.1417" style="stop-color:#19D7B1"/>
			<stop  offset="0.2701" style="stop-color:#27E1B4"/>
			<stop  offset="0.3781" style="stop-color:#2CE5B5"/>
			<stop  offset="0.5063" style="stop-color:#2FD3BF"/>
			<stop  offset="0.7614" style="stop-color:#39A5D9"/>
			<stop  offset="1" style="stop-color:#4275F4"/>
		</linearGradient>
		<polyline class="st8" points="9.4,32.7 152.4,115.6 152.4,90.2 31.2,20 9.4,32.7 		"/>
		<polyline class="st6" points="152.4,115.6 163.3,122 174.3,115.6 174.3,79.2 152.4,79.2 152.4,115.6 		"/>
	</g>
</g>
</svg>
