<?xml version="1.0" encoding="utf-8"?>
<!-- Generator: Adobe Illustrator 21.1.0, SVG Export Plug-In . SVG Version: 6.00 Build 0)  -->
<svg version="1.1" id="Layer_1" xmlns="http://www.w3.org/2000/svg" xmlns:xlink="http://www.w3.org/1999/xlink" x="0px" y="0px"
	 viewBox="0 0 1674 605" style="enable-background:new 0 0 1674 605;" xml:space="preserve">
<style type="text/css">
	.st0{fill:#65C08A;}
	.st1{fill:url(#SVGID_1_);}
	.st2{fill:url(#SVGID_2_);}
	.st3{fill:url(#SVGID_3_);}
	.st4{fill:#2AFFA3;}
	.st5{opacity:0.5;fill:url(#SVGID_4_);enable-background:new    ;}
	.st6{opacity:0.7;}
	.st7{opacity:0.7;fill:url(#SVGID_5_);enable-background:new    ;}
	.st8{opacity:0.8;fill:url(#SVGID_6_);enable-background:new    ;}
	.st9{opacity:0.8;}
	.st10{fill:url(#SVGID_7_);}
	.st11{fill:#8D99A3;}
	.st12{fill:#6AC083;}
</style>
<g id="Layer_1_3_">
	<g>
		<g>
			<path class="st0" d="M482,440.7c-6.4-6.4-14-9.5-22.9-9.5c-8.9,0-16.5,3.2-22.9,9.5c-6.4,6.4-9.5,14-9.5,22.9
				c0,8.9,3.2,17.2,9.5,22.9c6.4,6.4,14,9.5,22.9,9.5c8.9,0,16.5-3.2,22.9-9.5c6.4-6.4,9.5-14,9.5-22.9
				C490.9,454.7,487.7,447.1,482,440.7z M481.4,463.6c0,6.4-1.9,12.1-7,16.5c-4.4,4.4-9.5,6.4-15.9,6.4c-6.4,0-11.4-1.9-15.9-6.4
				c-4.4-4.4-7-9.5-7-16.5c0-6.4,2.5-12.1,6.4-16.5c4.4-4.4,10.2-6.4,16.5-6.4c6.4,0,11.4,1.9,16.5,6.4
				C479.5,451.5,481.4,457.3,481.4,463.6z"/>
			<path class="st0" d="M469.9,449c-3.2-2.5-7-3.8-11.4-3.8c-5.1,0-10.2,1.9-13.3,5.7c-3.8,3.8-5.7,8.3-5.7,13.3
				c0,5.1,1.9,9.5,5.7,13.3c3.8,3.8,8.3,5.7,13.3,5.7c4.4,0,8.3-1.3,11.4-3.8s5.1-5.7,5.7-9.5l0.6-1.3h-9.5v1.3
				c-0.6,1.3-1.3,2.5-2.5,3.2c-1.3,0.6-3.2,1.3-5.1,1.3c-2.5,0-5.1-1.3-6.4-3.2c-1.9-1.9-2.5-4.4-2.5-7s0.6-5.1,2.5-7
				c1.9-1.9,3.8-3.2,6.4-3.2c1.9,0,3.8,0.6,5.1,1.3c1.3,0.6,2.5,1.9,2.5,3.2v1.3h9.5l-0.6-1.3C475,454.7,473.1,451.5,469.9,449z"/>
		</g>
		<polygon class="st0" points="224.4,118.4 224.7,118.6 288.9,156.1 425.5,76.7 425.5,2.3 		"/>
		
			<linearGradient id="SVGID_1_" gradientUnits="userSpaceOnUse" x1="457.2288" y1="603.6761" x2="457.2288" y2="386.0426" gradientTransform="matrix(1 0 0 -1 0 606)">
			<stop  offset="0" style="stop-color:#6AC083"/>
			<stop  offset="1" style="stop-color:#2AFFA3"/>
		</linearGradient>
		<polygon class="st1" points="425.5,219.6 457.2,219.6 489.6,219.6 489.6,37.9 425.5,2.3 424.8,75.4 		"/>
		<g>
			
				<linearGradient id="SVGID_2_" gradientUnits="userSpaceOnUse" x1="0.39" y1="265.6535" x2="447.6981" y2="265.6535" gradientTransform="matrix(1 0 0 -1 0 606)">
				<stop  offset="0" style="stop-color:#6AC083"/>
				<stop  offset="1" style="stop-color:#2AFFA3"/>
			</linearGradient>
			<polygon class="st2" points="383.5,307.3 65.2,492.2 65.2,111.6 5.5,76.7 0.4,79.8 0.4,604 447.7,344.8 			"/>
		</g>
		
			<linearGradient id="SVGID_3_" gradientUnits="userSpaceOnUse" x1="5.473" y1="424.4987" x2="430.5428" y2="424.4987" gradientTransform="matrix(1 0 0 -1 0 606)">
			<stop  offset="0" style="stop-color:#6AC083"/>
			<stop  offset="1" style="stop-color:#2AFFA3"/>
		</linearGradient>
		<polyline class="st3" points="5.5,76.7 430.5,323.2 428,247.6 69.6,39.8 5.5,76.7 		"/>
		<polyline class="st4" points="425.5,320.6 457.2,339.1 489.6,320 489.6,213.3 425.5,213.3 425.5,320.6 		"/>
		
			<linearGradient id="SVGID_4_" gradientUnits="userSpaceOnUse" x1="221.6692" y1="502.9048" x2="436.5476" y2="540.7939" gradientTransform="matrix(1 0 0 -1 0 606)">
			<stop  offset="0.5128" style="stop-color:#47525A;stop-opacity:0"/>
			<stop  offset="1" style="stop-color:#47525A"/>
		</linearGradient>
		<polygon class="st5" points="425.5,2.3 224.4,118.4 224.7,118.6 288.9,156.1 288.9,156.1 424.8,77 		"/>
		<g class="st6">
			
				<linearGradient id="SVGID_5_" gradientUnits="userSpaceOnUse" x1="71.9875" y1="-24.0889" x2="242.0744" y2="443.2206" gradientTransform="matrix(1 0 0 -1 0 606)">
				<stop  offset="0.5128" style="stop-color:#47525A;stop-opacity:0"/>
				<stop  offset="1" style="stop-color:#47525A"/>
			</linearGradient>
			<polygon class="st7" points="383.5,307.3 65.2,492.2 65.2,111.6 5.5,76.7 0.4,79.8 0.4,604 447.7,344.8 			"/>
		</g>
		
			<linearGradient id="SVGID_6_" gradientUnits="userSpaceOnUse" x1="413.2455" y1="613.925" x2="272.9988" y2="446.785" gradientTransform="matrix(1 0 0 -1 0 606)">
			<stop  offset="0.5128" style="stop-color:#47525A;stop-opacity:0"/>
			<stop  offset="1" style="stop-color:#47525A"/>
		</linearGradient>
		<polygon class="st8" points="224.4,118.4 224.7,118.6 288.9,156.1 288.9,156.1 424.8,77 425.5,2.3 		"/>
		<g class="st9">
			
				<linearGradient id="SVGID_7_" gradientUnits="userSpaceOnUse" x1="224.044" y1="1.9705" x2="224.044" y2="529.3365" gradientTransform="matrix(1 0 0 -1 0 606)">
				<stop  offset="0.5128" style="stop-color:#47525A;stop-opacity:0"/>
				<stop  offset="1" style="stop-color:#47525A"/>
			</linearGradient>
			<polygon class="st10" points="383.5,307.3 65.2,492.2 65.2,111.6 5.5,76.7 0.4,79.8 0.4,604 447.7,344.8 			"/>
		</g>
	</g>
</g>
<g>
	<path class="st11" d="M645.5,311.4c0,13.3-3,23.8-9,31.7c-6,7.9-14.3,11.8-24.8,11.8c-6.2,0-11.7-1.2-16.3-3.5s-8.5-5.7-11.4-10.1
		v45.9h-9.8V264.7h8.3l1.2,13.7c2.9-4.9,6.7-8.7,11.4-11.4c4.7-2.7,10.2-4,16.5-4c10.6,0,18.9,4.2,24.9,12.7c6,8.5,9,19.8,9,33.9
		V311.4z M635.7,309.5c0-11.2-2.2-20.4-6.7-27.5c-4.5-7.1-11-10.6-19.6-10.6c-6.6,0-12,1.6-16.1,4.7c-4.1,3.1-7.2,7.2-9.3,12.2v42.6
		c2.2,4.9,5.5,8.7,9.7,11.5c4.2,2.8,9.5,4.2,15.8,4.2c8.6,0,15.1-3.2,19.5-9.7c4.4-6.4,6.7-15,6.7-25.6V309.5z"/>
	<path class="st11" d="M700.7,354.9c-11.1,0-20.3-4.1-27.6-12.3c-7.3-8.2-11-18.5-11-31.1V307c0-12.6,3.6-23.1,10.9-31.5
		c7.3-8.3,16.1-12.5,26.5-12.5c10.9,0,19.4,3.4,25.6,10.3c6.2,6.9,9.3,16,9.3,27.5v8.3h-62.5v2.4c0,10,2.6,18.3,7.9,25
		c5.3,6.7,12.2,10,20.9,10c6.1,0,11.3-0.8,15.6-2.5c4.3-1.7,8-4.1,11-7.3l4.2,6.7c-3.3,3.5-7.5,6.3-12.6,8.4
		C713.8,353.8,707.7,354.9,700.7,354.9z M699.5,271.4c-7.3,0-13.3,2.8-18.2,8.3c-4.9,5.5-7.8,12.4-8.6,20.8l0.2,0.4h51.9v-2.4
		c0-7.7-2.3-14.1-6.8-19.2C713.4,273.9,707.2,271.4,699.5,271.4z"/>
	<path class="st11" d="M794.5,273.1l-7.3-0.5c-6.2,0-11.2,1.7-15.2,5.2c-4,3.5-6.8,8.2-8.5,14.3v61.1h-9.8v-88.5h8.6l1.2,14.7v1
		c2.6-5.5,6-9.7,10.3-12.8c4.3-3.1,9.4-4.6,15.4-4.6c1.3,0,2.5,0.1,3.6,0.3c1.2,0.2,2.1,0.4,2.9,0.6L794.5,273.1z"/>
	<path class="st11" d="M863.8,330.6c0-4.1-1.7-7.8-5.1-10.9c-3.4-3.1-9.6-5.6-18.4-7.6c-10.6-2.3-18.4-5.3-23.4-9.1
		c-5-3.8-7.6-9.1-7.6-15.9c0-6.8,2.8-12.5,8.5-17.1c5.7-4.7,13.2-7,22.6-7c10,0,17.9,2.5,23.7,7.4c5.8,4.9,8.6,11.1,8.3,18.5
		l-0.2,0.5h-9.1c0-4.9-2.1-9.1-6.2-12.7c-4.1-3.6-9.7-5.4-16.6-5.4c-7.1,0-12.5,1.5-16.1,4.6c-3.6,3.1-5.4,6.7-5.4,10.8
		c0,4.1,1.5,7.4,4.6,10.1c3.1,2.7,9.2,5,18.4,7c10.5,2.4,18.4,5.6,23.6,9.6s7.9,9.6,7.9,16.6c0,7.4-3,13.4-9,17.9
		c-6,4.6-13.9,6.9-23.7,6.9c-10.7,0-19.2-2.6-25.3-7.7c-6.1-5.1-9-11.2-8.7-18.3l0.2-0.5h9c0.4,6.4,3,11,7.8,13.8
		c4.8,2.9,10.5,4.3,17.1,4.3c7.1,0,12.7-1.6,16.8-4.7C861.8,338.8,863.8,335,863.8,330.6z"/>
	<path class="st11" d="M890.6,307.6c0-13,3.6-23.7,10.7-32.1c7.1-8.3,16.6-12.5,28.4-12.5c11.8,0,21.3,4.2,28.5,12.5
		c7.1,8.3,10.7,19,10.7,32.1v2.7c0,13.1-3.6,23.8-10.7,32.1c-7.1,8.3-16.6,12.5-28.3,12.5c-11.9,0-21.4-4.2-28.5-12.5
		c-7.1-8.3-10.7-19-10.7-32.1V307.6z M900.4,310.3c0,10.2,2.6,18.8,7.8,25.8c5.2,7,12.4,10.5,21.7,10.5c9.1,0,16.3-3.5,21.5-10.5
		c5.2-7,7.8-15.6,7.8-25.8v-2.7c0-10.1-2.6-18.6-7.9-25.7c-5.2-7-12.4-10.5-21.6-10.5s-16.3,3.5-21.5,10.5c-5.2,7-7.8,15.6-7.8,25.7
		V310.3z"/>
	<path class="st11" d="M998,264.7l0.9,15.5c2.8-5.5,6.7-9.7,11.5-12.6c4.8-3,10.5-4.5,17.1-4.5c9.6,0,16.9,2.9,21.9,8.8
		c5,5.9,7.5,15,7.5,27.4v53.9h-9.8v-53.9c0-10.2-1.9-17.3-5.7-21.6c-3.8-4.2-9.2-6.3-16.2-6.3c-6.9,0-12.5,1.8-16.8,5.5
		c-4.3,3.6-7.5,8.5-9.4,14.5v61.9h-9.8v-88.5H998z"/>
	<path class="st11" d="M1138.6,353.2c-0.7-3-1.1-5.6-1.4-7.8c-0.3-2.2-0.4-4.4-0.4-6.6c-3.3,4.6-7.6,8.5-13.1,11.5
		c-5.5,3.1-11.6,4.6-18.4,4.6c-8.6,0-15.3-2.3-20.1-6.9c-4.8-4.6-7.2-10.7-7.2-18.4c0-8.2,3.5-14.7,10.6-19.6
		c7.1-4.9,16.6-7.4,28.6-7.4h19.5v-11c0-6.3-2-11.3-6.1-14.9c-4.1-3.6-9.7-5.4-17.1-5.4c-6.8,0-12.5,1.7-17,5.2
		c-4.5,3.4-6.7,7.6-6.7,12.6l-9-0.1l-0.2-0.5c-0.3-6.6,2.7-12.5,9-17.7c6.4-5.2,14.4-7.8,24.3-7.8c9.8,0,17.6,2.5,23.6,7.4
		c5.9,5,8.9,12.1,8.9,21.3v43.5c0,3.1,0.2,6.1,0.5,9.1c0.4,2.9,0.9,5.9,1.8,8.8H1138.6z M1106.5,346.2c7,0,13.3-1.6,18.6-4.9
		c5.4-3.3,9.3-7.5,11.7-12.6v-18.5h-19.7c-8.9,0-16,1.9-21.3,5.7c-5.3,3.8-8,8.5-8,14.1c0,4.8,1.6,8.7,4.9,11.7
		C1096.1,344.7,1100.6,346.2,1106.5,346.2z"/>
	<path class="st11" d="M1183.6,353.2h-9.7V225.6h9.7V353.2z"/>
	<path class="st11" d="M1221.6,239.3h-9.7v-13.7h9.7V239.3z M1221.6,353.2h-9.7v-88.5h9.7V353.2z"/>
	<path class="st11" d="M1255.3,344.8h57.5v8.3h-69.6v-7.3l53.3-72.9h-51.7v-8.3h64v7.2L1255.3,344.8z"/>
	<path class="st11" d="M1386.7,353.2c-0.7-3-1.1-5.6-1.4-7.8c-0.3-2.2-0.4-4.4-0.4-6.6c-3.3,4.6-7.6,8.5-13.1,11.5
		c-5.5,3.1-11.6,4.6-18.4,4.6c-8.6,0-15.3-2.3-20.1-6.9c-4.8-4.6-7.2-10.7-7.2-18.4c0-8.2,3.5-14.7,10.6-19.6
		c7.1-4.9,16.6-7.4,28.6-7.4h19.5v-11c0-6.3-2-11.3-6.1-14.9c-4.1-3.6-9.7-5.4-17.1-5.4c-6.8,0-12.5,1.7-17,5.2
		c-4.5,3.4-6.7,7.6-6.7,12.6l-9-0.1l-0.2-0.5c-0.3-6.6,2.7-12.5,9-17.7c6.4-5.2,14.4-7.8,24.3-7.8c9.8,0,17.6,2.5,23.6,7.4
		c5.9,5,8.9,12.1,8.9,21.3v43.5c0,3.1,0.2,6.1,0.5,9.1c0.4,2.9,0.9,5.9,1.8,8.8H1386.7z M1354.6,346.2c7,0,13.3-1.6,18.6-4.9
		c5.4-3.3,9.3-7.5,11.7-12.6v-18.5h-19.7c-8.9,0-16,1.9-21.3,5.7c-5.3,3.8-8,8.5-8,14.1c0,4.8,1.6,8.7,4.9,11.7
		C1344.2,344.7,1348.7,346.2,1354.6,346.2z"/>
	<path class="st11" d="M1436.1,242v22.7h19.5v8h-19.5v57.7c0,5.8,1,9.9,3.1,12.3c2.1,2.4,4.9,3.6,8.4,3.6c1.6,0,3.1-0.1,4.6-0.2
		c1.5-0.1,3.2-0.4,5.2-0.7l1.5,7.3c-1.6,0.7-3.6,1.3-6,1.6c-2.3,0.4-4.7,0.6-7,0.6c-6.2,0-11.1-2-14.5-5.9
		c-3.5-3.9-5.2-10.1-5.2-18.6v-57.7h-15.3v-8h15.3V242H1436.1z"/>
	<path class="st11" d="M1487.3,239.3h-9.7v-13.7h9.7V239.3z M1487.3,353.2h-9.7v-88.5h9.7V353.2z"/>
	<path class="st11" d="M1508.9,307.6c0-13,3.6-23.7,10.7-32.1c7.1-8.3,16.6-12.5,28.4-12.5c11.8,0,21.3,4.2,28.5,12.5
		c7.1,8.3,10.7,19,10.7,32.1v2.7c0,13.1-3.6,23.8-10.7,32.1c-7.1,8.3-16.6,12.5-28.3,12.5c-11.9,0-21.4-4.2-28.5-12.5
		c-7.1-8.3-10.7-19-10.7-32.1V307.6z M1518.7,310.3c0,10.2,2.6,18.8,7.8,25.8c5.2,7,12.4,10.5,21.7,10.5c9.1,0,16.3-3.5,21.5-10.5
		c5.2-7,7.8-15.6,7.8-25.8v-2.7c0-10.1-2.6-18.6-7.9-25.7c-5.2-7-12.4-10.5-21.6-10.5s-16.3,3.5-21.5,10.5c-5.2,7-7.8,15.6-7.8,25.7
		V310.3z"/>
	<path class="st11" d="M1616.3,264.7l0.9,15.5c2.8-5.5,6.7-9.7,11.5-12.6c4.8-3,10.5-4.5,17.1-4.5c9.6,0,16.9,2.9,21.9,8.8
		c5,5.9,7.5,15,7.5,27.4v53.9h-9.8v-53.9c0-10.2-1.9-17.3-5.7-21.6c-3.8-4.2-9.2-6.3-16.2-6.3c-6.9,0-12.5,1.8-16.8,5.5
		c-4.3,3.6-7.5,8.5-9.4,14.5v61.9h-9.8v-88.5H1616.3z"/>
	<path class="st11" d="M607.5,496.2c-11.1,0-20.3-4.1-27.6-12.3c-7.3-8.2-11-18.5-11-31.1v-4.5c0-12.6,3.6-23.1,10.9-31.5
		s16.1-12.5,26.5-12.5c10.9,0,19.4,3.4,25.6,10.3c6.2,6.9,9.3,16,9.3,27.5v8.3h-62.5v2.4c0,10,2.6,18.3,7.9,25
		c5.3,6.7,12.2,10,20.9,10c6.1,0,11.3-0.8,15.6-2.5c4.3-1.7,8-4.1,11-7.3l4.2,6.7c-3.3,3.5-7.5,6.3-12.6,8.4
		C620.6,495.2,614.5,496.2,607.5,496.2z M606.2,412.7c-7.3,0-13.3,2.8-18.2,8.3c-4.9,5.5-7.8,12.4-8.6,20.8l0.2,0.4h51.9v-2.4
		c0-7.7-2.3-14.1-6.8-19.2C620.1,415.3,614,412.7,606.2,412.7z"/>
	<path class="st11" d="M669.2,406l0.9,15.5c2.8-5.5,6.7-9.7,11.5-12.6c4.8-3,10.5-4.5,17.1-4.5c9.6,0,16.9,2.9,21.9,8.8
		c5,5.9,7.5,15,7.5,27.4v53.9h-9.8v-53.9c0-10.2-1.9-17.3-5.7-21.6c-3.8-4.2-9.2-6.3-16.2-6.3c-6.9,0-12.5,1.8-16.8,5.5
		c-4.3,3.6-7.5,8.5-9.4,14.5v61.9h-9.8V406H669.2z"/>
	<path class="st11" d="M749.9,451c0-14.1,3-25.4,9-33.9c6-8.5,14.4-12.7,25.2-12.7c6.3,0,11.7,1.4,16.3,4.1
		c4.6,2.8,8.4,6.6,11.4,11.7l1.1-14.2h8.3v87.4c0,11.4-3.1,20.4-9.4,27c-6.3,6.6-15.1,9.9-26.3,9.9c-4.3,0-8.8-0.5-13.6-1.6
		c-4.8-1-9-2.5-12.6-4.3l2.5-8.3c3.5,1.7,7.2,3.1,11,4c3.9,0.9,8,1.3,12.4,1.3c8.6,0,15.1-2.5,19.5-7.4c4.4-5,6.6-11.9,6.6-20.7
		v-11.1c-3,4.5-6.8,7.9-11.4,10.3s-9.9,3.6-16,3.6c-10.6,0-19-4-25-11.9c-6-7.9-9-18.5-9-31.7V451z M759.8,452.7
		c0,10.7,2.2,19.2,6.5,25.6c4.4,6.4,10.9,9.6,19.5,9.6c6.3,0,11.6-1.5,15.8-4.4c4.2-2.9,7.5-6.9,9.8-12.1v-41.1
		c-2.1-5.2-5.2-9.4-9.4-12.7c-4.1-3.3-9.5-5-16.1-5c-8.6,0-15.1,3.6-19.5,10.7s-6.6,16.3-6.6,27.6V452.7z"/>
	<path class="st11" d="M858.1,380.6h-9.7v-13.7h9.7V380.6z M858.1,494.5h-9.7V406h9.7V494.5z"/>
	<path class="st11" d="M893.8,406l0.9,15.5c2.8-5.5,6.7-9.7,11.5-12.6c4.8-3,10.5-4.5,17.1-4.5c9.6,0,16.9,2.9,21.9,8.8
		c5,5.9,7.5,15,7.5,27.4v53.9H943v-53.9c0-10.2-1.9-17.3-5.7-21.6c-3.8-4.2-9.2-6.3-16.2-6.3c-6.9,0-12.5,1.8-16.8,5.5
		c-4.3,3.6-7.5,8.5-9.4,14.5v61.9h-9.8V406H893.8z"/>
	<path class="st11" d="M1011.6,496.2c-11.1,0-20.3-4.1-27.6-12.3c-7.3-8.2-11-18.5-11-31.1v-4.5c0-12.6,3.6-23.1,10.9-31.5
		s16.1-12.5,26.5-12.5c10.9,0,19.4,3.4,25.6,10.3s9.3,16,9.3,27.5v8.3h-62.5v2.4c0,10,2.6,18.3,7.9,25c5.3,6.7,12.2,10,20.9,10
		c6.1,0,11.3-0.8,15.6-2.5c4.3-1.7,8-4.1,11-7.3l4.2,6.7c-3.3,3.5-7.5,6.3-12.6,8.4C1024.7,495.2,1018.6,496.2,1011.6,496.2z
		 M1010.4,412.7c-7.3,0-13.3,2.8-18.2,8.3c-4.9,5.5-7.8,12.4-8.6,20.8l0.2,0.4h51.9v-2.4c0-7.7-2.3-14.1-6.8-19.2
		C1024.3,415.3,1018.1,412.7,1010.4,412.7z"/>
</g>
<g>
	<g>
		<path class="st12" d="M615.2,183.5l3.3,11.7h0.6l29.5-82.3h12.2l-42.3,112.9c-2.8,6.7-5.6,12.2-10,16.7c-3.9,4.4-10,6.7-17.8,6.7
			c-1.1,0-2.8,0-4.4-0.6c-1.7,0-3.3-0.6-3.9-1.1l1.1-8.9c0.6,0,1.7,0,3.3,0.6c1.7,0,2.8,0,3.3,0c4.4,0,8.3-1.7,11.1-5
			c2.8-3.3,5-7.8,7.2-12.8l5-13.3l-37.8-96.2h12.2L615.2,183.5z"/>
		<path class="st12" d="M876,185.2c0-4.4-1.7-8.3-5.6-11.7c-3.9-3.3-10.6-6.1-20-8.3c-11.7-2.8-20-6.1-25.6-10
			c-5.6-3.9-8.3-10-8.3-17.8c0-7.2,3.3-13.9,9.5-18.9c6.1-5,14.5-7.8,25-7.8c11.1,0,19.5,2.8,26.1,8.3c6.7,5.6,9.5,12.2,8.9,20.6
			v0.6h-10c0-5.6-2.2-10-6.7-13.9s-10.6-6.1-18.4-6.1c-7.8,0-13.9,1.7-17.8,5c-3.9,3.3-6.1,7.2-6.1,11.7c0,4.4,1.7,8.3,5,11.1
			c3.3,2.8,10,5.6,20,7.8c11.7,2.8,20,6.1,26.1,10.6c5.6,4.4,8.9,10.6,8.9,18.4c0,8.3-3.3,14.5-10,19.5c-6.7,5-15,7.8-26.1,7.8
			c-11.7,0-21.1-2.8-27.8-8.3c-6.7-5.6-10-12.2-9.5-20v-0.6h10c0.6,7.2,3.3,12.2,8.3,15c5.6,3.3,11.7,5,18.9,5
			c7.8,0,13.9-1.7,18.4-5C873.8,194.1,876,189.6,876,185.2z"/>
		<path class="st12" d="M1003.4,162.9c0-15-3.3-27.3-10-36.7c-6.7-8.9-15.6-13.9-26.7-13.9h-5c-11.1,0-19.5,3.9-26.1,12.2v-12.2
			h-10.6v48.4v1.7v86.8h10.6v-48.9c6.7,8.3,15,12.8,26.1,12.8h5c11.1,0,20.6-4.4,26.7-12.8c6.7-8.9,10-20,10-35V162.9
			C1003.4,163.5,1003.4,163.5,1003.4,162.9L1003.4,162.9z M985,193.5c-4.4,6.1-10.6,9.5-18.9,10.6c0,0-1.7,0-2.8,0
			c-1.1,0-2.2,0-2.2,0c-7.8-0.6-14.5-4.4-18.4-11.1c-5-7.8-7.2-17.2-7.2-28.9v-2.8c0-11.7,2.2-21.1,7.2-28.4
			c4.4-6.1,10.6-9.5,18.9-10.6c0,0,1.7,0,2.8,0s2.2,0,2.2,0c7.8,0.6,14.5,4.4,18.4,11.1c5,7.8,7.2,17.2,7.2,28.9l0,0v2.8
			C992.2,176.8,990,186.3,985,193.5z"/>
	</g>
	<path class="st12" d="M763.7,112.3v59.5v2.2l0,0c0,14.5-11.7,26.7-26.7,26.7c-14.5,0-26.7-11.7-26.7-26.7l0,0v-2.8v-59h-10.6V174
		c0,0,0,0,0,0.6l0,0l0,0c0,20.6,16.7,37.3,37.3,37.3s37.3-16.7,37.3-36.7l0,0v-62.3h-10.6V112.3z"/>
</g>
</svg>
