<?xml version="1.0" encoding="utf-8"?>
<!-- Generator: Adobe Illustrator 20.0.0, SVG Export Plug-In . SVG Version: 6.00 Build 0)  -->
<svg version="1.1" xmlns="http://www.w3.org/2000/svg" xmlns:xlink="http://www.w3.org/1999/xlink" x="0px" y="0px"
	 viewBox="0 0 168.8 291.8" style="enable-background:new 0 0 168.8 291.8;" xml:space="preserve">
<style type="text/css">
	.st0{fill:#F2F2F5;}
	.st1{fill:#DCDCDC;}
	.st2{fill:#FFFFFF;}
	.st3{fill:#F3F3F3;}
	.st4{fill:#C1C0BF;}
	.st5{fill:#97999D;}
	.st6{fill:url(#SVGID_1_);}
	.st7{fill:url(#SVGID_2_);}
	.st8{fill:url(#SVGID_3_);}
	.st9{fill:#00C6AD;}
	.st10{fill:url(#SVGID_4_);}
	.st11{fill:url(#SVGID_5_);}
	.st12{fill:url(#SVGID_6_);}
	.st13{fill:url(#SVGID_7_);}
	.st14{fill:url(#SVGID_8_);}
	.st15{fill:url(#SVGID_9_);}
	.st16{fill:url(#SVGID_10_);}
	.st17{fill:url(#SVGID_11_);}
	.st18{fill:url(#SVGID_12_);}
	.st19{fill:url(#SVGID_13_);}
	.st20{fill:url(#SVGID_14_);}
	.st21{fill:url(#SVGID_15_);}
	.st22{fill:#4275F4;}
	.st23{opacity:0.3;}
	.st24{opacity:0.6;}
	.st25{fill:url(#SVGID_16_);}
	.st26{fill:url(#SVGID_17_);}
	.st27{fill:url(#SVGID_18_);}
	.st28{fill:url(#SVGID_19_);}
	.st29{fill:url(#SVGID_20_);}
	.st30{fill:url(#SVGID_21_);}
	.st31{fill:url(#SVGID_22_);}
	.st32{fill:url(#SVGID_23_);}
	.st33{fill:url(#SVGID_24_);}
	.st34{fill:url(#SVGID_25_);}
	.st35{fill:url(#SVGID_26_);}
	.st36{fill:url(#SVGID_27_);}
	.st37{fill:url(#SVGID_28_);}
	.st38{fill:url(#SVGID_29_);}
	.st39{fill:url(#SVGID_30_);}
	.st40{fill:url(#SVGID_31_);}
	.st41{fill:url(#SVGID_32_);}
	.st42{fill:url(#SVGID_33_);}
	.st43{fill:url(#SVGID_34_);}
	.st44{fill:url(#SVGID_35_);}
	.st45{fill:#3E46D7;}
	.st46{fill:url(#SVGID_36_);}
	.st47{fill:url(#SVGID_37_);}
	.st48{fill:url(#SVGID_38_);}
	.st49{fill:url(#SVGID_39_);}
	.st50{fill:url(#SVGID_40_);}
	.st51{fill:url(#SVGID_41_);}
	.st52{fill:url(#SVGID_42_);}
	.st53{fill:url(#SVGID_43_);}
	.st54{fill:url(#SVGID_44_);}
	.st55{fill:url(#SVGID_45_);}
	.st56{fill:url(#SVGID_46_);}
	.st57{fill:url(#SVGID_47_);}
	.st58{fill:url(#SVGID_48_);}
	.st59{fill:url(#SVGID_49_);}
	.st60{fill:url(#SVGID_50_);}
	.st61{fill:url(#SVGID_51_);}
	.st62{fill:url(#SVGID_52_);}
	.st63{fill:#2CE5B5;}
	.st64{fill:url(#SVGID_53_);}
	.st65{fill:url(#SVGID_54_);}
	.st66{fill:url(#SVGID_55_);}
	.st67{fill:url(#SVGID_56_);}
	.st68{fill:url(#SVGID_57_);}
	.st69{fill:url(#SVGID_58_);}
	.st70{fill:url(#SVGID_59_);}
	.st71{fill:url(#SVGID_60_);}
	.st72{fill:url(#SVGID_61_);}
	.st73{fill:url(#SVGID_62_);}
	.st74{fill:url(#SVGID_63_);}
	.st75{fill:url(#SVGID_64_);}
	.st76{fill:url(#SVGID_65_);}
	.st77{fill:url(#SVGID_66_);}
	.st78{fill:url(#SVGID_67_);}
	.st79{fill:url(#SVGID_68_);}
	.st80{fill:url(#SVGID_69_);}
	.st81{fill:#51555B;}
	.st82{fill:url(#SVGID_70_);}
	.st83{fill:url(#SVGID_71_);}
	.st84{fill:url(#SVGID_72_);}
	.st85{fill:url(#SVGID_73_);}
	.st86{fill:url(#SVGID_74_);}
	.st87{fill:url(#SVGID_75_);}
	.st88{fill:url(#SVGID_76_);}
	.st89{fill:url(#SVGID_77_);}
	.st90{fill:url(#SVGID_78_);}
	.st91{fill:url(#SVGID_79_);}
	.st92{fill:url(#SVGID_80_);}
	.st93{fill:url(#SVGID_81_);}
	.st94{fill:url(#SVGID_82_);}
	.st95{fill:url(#SVGID_83_);}
	.st96{fill:none;stroke:#FFFFFF;stroke-miterlimit:10;}
	.st97{fill:url(#SVGID_84_);}
	.st98{fill:url(#SVGID_85_);}
	.st99{fill:url(#SVGID_86_);}
	.st100{fill:url(#SVGID_87_);}
	.st101{fill:url(#SVGID_88_);}
	.st102{fill:url(#SVGID_89_);}
	.st103{fill:url(#SVGID_90_);}
	.st104{fill:url(#SVGID_91_);}
	.st105{fill:url(#SVGID_92_);}
	.st106{fill:url(#SVGID_93_);}
	.st107{fill:url(#SVGID_94_);}
	.st108{fill:url(#SVGID_95_);}
	.st109{fill:url(#SVGID_96_);}
	.st110{fill:url(#SVGID_97_);}
	.st111{fill:url(#SVGID_98_);}
	.st112{fill:url(#SVGID_99_);}
	.st113{fill:url(#SVGID_100_);}
	.st114{fill:url(#SVGID_101_);}
	.st115{fill:url(#SVGID_102_);}
	.st116{fill:url(#SVGID_103_);}
	.st117{fill:url(#SVGID_104_);}
	.st118{fill:url(#SVGID_105_);}
	.st119{fill:url(#SVGID_106_);}
	.st120{fill:url(#SVGID_107_);}
	.st121{fill:url(#SVGID_108_);}
	.st122{fill:url(#SVGID_109_);}
	.st123{fill:url(#SVGID_110_);}
	.st124{fill:url(#SVGID_111_);}
	.st125{fill:url(#SVGID_112_);}
	.st126{fill:url(#SVGID_113_);}
	.st127{fill:#97999D;stroke:#97999D;stroke-width:0.2;stroke-miterlimit:10;}
	.st128{fill:url(#SVGID_114_);}
	.st129{fill:url(#SVGID_115_);}
	.st130{fill:url(#SVGID_116_);}
	.st131{fill:url(#SVGID_117_);}
	.st132{fill:url(#SVGID_118_);}
	.st133{fill:url(#SVGID_119_);}
	.st134{fill:url(#SVGID_120_);}
	.st135{fill:url(#SVGID_121_);}
	.st136{fill:url(#SVGID_122_);}
	.st137{fill:url(#SVGID_123_);}
	.st138{fill:url(#SVGID_124_);}
	.st139{fill:url(#SVGID_125_);}
	.st140{fill:url(#SVGID_126_);}
	.st141{fill:url(#SVGID_127_);}
	.st142{fill:url(#SVGID_128_);}
	.st143{fill:url(#SVGID_129_);}
	.st144{fill:url(#SVGID_130_);}
	.st145{fill:url(#SVGID_131_);}
	.st146{fill:url(#SVGID_132_);}
	.st147{fill:url(#SVGID_133_);}
	.st148{fill-rule:evenodd;clip-rule:evenodd;fill:#347EB1;}
	.st149{fill-rule:evenodd;clip-rule:evenodd;fill:#7CB946;}
	.st150{fill:#727272;}
	.st151{fill:#9A9A99;}
	.st152{fill-rule:evenodd;clip-rule:evenodd;fill:#2CE5B5;}
	.st153{fill:url(#SVGID_134_);}
	.st154{fill:url(#SVGID_135_);}
	.st155{fill:url(#SVGID_136_);}
	.st156{fill:url(#SVGID_137_);}
	.st157{fill:url(#SVGID_138_);}
	.st158{opacity:0.7;}
	.st159{fill:url(#SVGID_139_);}
	.st160{fill:url(#SVGID_140_);}
	.st161{fill:url(#SVGID_141_);}
	.st162{fill:url(#SVGID_142_);}
	.st163{fill:url(#SVGID_143_);}
</style>
<g id="Layer_1">
</g>
<g id="Layer_3">
</g>
<g id="Layer_2">
</g>
<g id="Layer_4">
	<g>
		<g>
			<path class="st4" d="M163.9,152.2c-2.1-2.2-4.8-3.2-7.8-3.2s-5.7,1.1-7.8,3.2c-2.1,2.1-3.2,4.8-3.2,7.9c0,3.1,1.1,5.7,3.2,7.9
				c2.1,2.2,4.8,3.2,7.8,3.2s5.7-1.1,7.8-3.2c2.1-2.1,3.2-4.8,3.2-7.9C167.1,157,166,154.3,163.9,152.2z M163.8,160.1
				c0,2.2-0.7,4.1-2.3,5.6c-1.5,1.5-3.3,2.3-5.5,2.3s-4-0.7-5.5-2.3c-1.5-1.5-2.3-3.4-2.3-5.6c0-2.2,0.8-4.1,2.3-5.6
				c1.5-1.5,3.4-2.3,5.5-2.3c2.2,0,4,0.7,5.5,2.3C163.1,156,163.8,157.9,163.8,160.1z"/>
			<path class="st4" d="M160,154.3c-1-0.9-2.4-1.3-3.9-1.3c-1.8,0-3.4,0.7-4.6,2.1c-1.2,1.4-1.8,3-1.8,4.9c0,1.9,0.6,3.6,1.8,4.9
				c1.2,1.4,2.8,2.1,4.6,2.1c1.5,0,2.9-0.4,3.9-1.3c1-0.9,1.7-2,2-3.4l0.1-0.6h-3.3l-0.1,0.4c-0.1,0.5-0.4,0.9-0.9,1.2
				c-0.5,0.3-1.1,0.5-1.7,0.5c-0.9,0-1.7-0.4-2.3-1.1c-0.6-0.8-0.9-1.6-0.9-2.6c0-1,0.3-1.8,0.9-2.6c0.6-0.7,1.3-1.1,2.3-1.1
				c0.6,0,1.2,0.2,1.7,0.5c0.5,0.3,0.8,0.7,0.9,1.2l0.1,0.4h3.3l-0.1-0.6C161.7,156.4,161,155.2,160,154.3z"/>
		</g>
		<g>
			<g>
				<path class="st5" d="M15,262.5l1.3,4.5h0.2l11.5-32.3h4.7l-16.6,44.2c-1,2.6-2.3,4.8-3.8,6.6c-1.6,1.8-3.9,2.7-6.9,2.7
					c-0.5,0-1.1-0.1-1.8-0.2c-0.7-0.1-1.2-0.2-1.6-0.3l0.5-3.5c0.3,0,0.7,0.1,1.4,0.2c0.6,0.1,1.1,0.1,1.4,0.1c1.8,0,3.3-0.7,4.4-2
					c1.1-1.3,2-3,2.8-5l2-5.1l-14.7-37.6h4.7L15,262.5z"/>
				<path class="st5" d="M117.3,263.1c0-1.8-0.7-3.3-2.2-4.7c-1.5-1.3-4.1-2.4-7.9-3.3c-4.6-1-7.9-2.3-10.1-3.9
					c-2.2-1.6-3.3-3.9-3.3-6.9c0-2.9,1.2-5.4,3.7-7.4c2.5-2,5.7-3,9.7-3c4.3,0,7.7,1.1,10.2,3.2c2.5,2.1,3.7,4.8,3.6,8l-0.1,0.2H117
					c0-2.1-0.9-3.9-2.7-5.5c-1.8-1.6-4.2-2.3-7.2-2.3c-3.1,0-5.4,0.7-6.9,2c-1.5,1.3-2.3,2.9-2.3,4.6c0,1.8,0.7,3.2,2,4.3
					c1.3,1.1,4,2.2,7.9,3c4.5,1,7.9,2.4,10.2,4.2c2.3,1.8,3.4,4.1,3.4,7.2c0,3.2-1.3,5.8-3.9,7.7c-2.6,2-6,3-10.2,3
					c-4.6,0-8.3-1.1-10.9-3.3c-2.6-2.2-3.9-4.8-3.8-7.9l0.1-0.2h3.9c0.2,2.7,1.3,4.7,3.4,6c2.1,1.2,4.5,1.9,7.3,1.9
					c3.1,0,5.5-0.7,7.2-2C116.4,266.6,117.3,265,117.3,263.1z"/>
				<path class="st5" d="M167.1,254.6c0-5.9-1.3-10.7-3.9-14.3c-2.5-3.6-6.1-5.4-10.5-5.5h-1.9c-4.3,0-7.7,1.6-10.2,4.7v-4.8h-4.2
					v18.9v0.7v33.9h4.2v-19.2c2.5,3.3,5.9,5,10.2,5h1.9c4.5,0,8-1.7,10.5-5.1c2.6-3.4,3.9-7.9,3.9-13.7V254.6
					C167.1,254.6,167.1,254.6,167.1,254.6L167.1,254.6z M160,266.4c-1.7,2.5-4.2,3.8-7.3,4.1c0,0-0.7,0-1,0c-0.3,0-0.9,0-0.9,0
					c-3.1-0.3-5.6-1.7-7.3-4.5c-1.9-2.9-2.8-6.7-2.9-11.4l0-1c0-4.6,1-8.3,2.9-11c1.7-2.5,4.2-3.8,7.3-4.1c0,0,0.7,0,1,0
					c0.3,0,0.9,0,0.9,0c3.1,0.3,5.6,1.7,7.3,4.5c1.9,2.9,2.8,6.7,2.9,11.4h0c0,0.1,0,1,0,1C162.9,259.9,161.9,263.6,160,266.4z"/>
			</g>
			<path class="st5" d="M73.2,234.7V258v1v0c0,5.7-4.6,10.4-10.4,10.4c-5.7,0-10.4-4.6-10.4-10.4v0v-1.1v-23.1h-4.2v24.1
				c0,0,0,0.1,0,0.1h0c0,0,0,0,0,0.1c0,8.1,6.5,14.6,14.6,14.6c8,0,14.5-6.5,14.6-14.5h0v-24.4H73.2z"/>
		</g>
		<g>
			<linearGradient id="SVGID_1_" gradientUnits="userSpaceOnUse" x1="144.6562" y1="30.0266" x2="73.1742" y2="30.0266">
				<stop  offset="0.1173" style="stop-color:#00C6AD"/>
				<stop  offset="1" style="stop-color:#3E46D7"/>
			</linearGradient>
			<polygon class="st6" points="144.7,28.4 144.7,2.9 73.2,44.4 95.1,57.1 			"/>
			<linearGradient id="SVGID_2_" gradientUnits="userSpaceOnUse" x1="140.163" y1="53.9671" x2="10.2719" y2="76.8704">
				<stop  offset="0" style="stop-color:#00C6AD"/>
				<stop  offset="0.3619" style="stop-color:#2CE5B5"/>
				<stop  offset="1" style="stop-color:#4275F4"/>
			</linearGradient>
			<polygon class="st7" points="145.9,111.8 1.7,28.4 23.5,15.7 145.9,86.3 			"/>
			<linearGradient id="SVGID_3_" gradientUnits="userSpaceOnUse" x1="155.6153" y1="3.0805" x2="155.6153" y2="80.4637">
				<stop  offset="9.693877e-02" style="stop-color:#2CE5B5"/>
				<stop  offset="0.815" style="stop-color:#00C6AD"/>
			</linearGradient>
			<polygon class="st8" points="144.7,80.3 155.6,80.4 166.6,80.5 166.5,15 144.7,3.1 144.6,27.9 			"/>
			<polygon class="st9" points="166.6,111.2 155.6,117.6 145.9,111.8 144.7,79.1 166.6,79.1 			"/>
			<linearGradient id="SVGID_4_" gradientUnits="userSpaceOnUse" x1="-2.439711e-03" y1="118.1428" x2="155.6285" y2="118.1428">
				<stop  offset="0" style="stop-color:#2CE5B5"/>
				<stop  offset="0.305" style="stop-color:#00C6AD"/>
				<stop  offset="1" style="stop-color:#3E46D7"/>
			</linearGradient>
			<polygon class="st10" points="133.8,104.9 155.6,117.6 0,207.9 0,29.3 1.7,28.3 22,40.1 22,169.8 			"/>
			<linearGradient id="SVGID_5_" gradientUnits="userSpaceOnUse" x1="144.6562" y1="63.4562" x2="1.6921" y2="63.4562">
				<stop  offset="0" style="stop-color:#00C6AD"/>
				<stop  offset="3.202707e-03" style="stop-color:#01C6AD"/>
				<stop  offset="0.1417" style="stop-color:#19D7B1"/>
				<stop  offset="0.2701" style="stop-color:#27E1B4"/>
				<stop  offset="0.3781" style="stop-color:#2CE5B5"/>
				<stop  offset="0.5063" style="stop-color:#2FD3BF"/>
				<stop  offset="0.7614" style="stop-color:#39A5D9"/>
				<stop  offset="1" style="stop-color:#4275F4"/>
			</linearGradient>
			<polyline class="st11" points="1.7,28.3 144.7,111.3 144.7,85.9 23.5,15.7 1.7,28.3 			"/>
			<polyline class="st9" points="144.7,111.3 155.6,117.6 166.6,111.2 166.6,74.9 144.7,74.9 144.7,111.3 			"/>
		</g>
	</g>
</g>
<g id="Layer_5">
</g>
</svg>
