<?xml version="1.0" encoding="utf-8"?>
<!-- Generator: Adobe Illustrator 21.1.0, SVG Export Plug-In . SVG Version: 6.00 Build 0)  -->
<svg version="1.1" id="Capa_1" xmlns="http://www.w3.org/2000/svg" xmlns:xlink="http://www.w3.org/1999/xlink" x="0px" y="0px"
	 viewBox="0 0 463 463" style="enable-background:new 0 0 463 463;" xml:space="preserve">
<style type="text/css">
	.st0{fill:#6AC183;}
</style>
<g>
	<path class="st0" d="M455.5,412H447V211.5c0-2.7-1.5-5.2-3.8-6.5c-2.4-1.3-5.2-1.3-7.6,0.1L367,246.3v-34.8c0-2.7-1.5-5.2-3.8-6.5
		c-2.4-1.3-5.2-1.3-7.6,0.1L287,246.3v-34.8c0-2.7-1.5-5.2-3.8-6.5c-2.4-1.3-5.2-1.3-7.6,0.1L207,246.3v-34.8c0-2.7-1.5-5.2-3.8-6.5
		c-2.4-1.3-5.2-1.3-7.6,0.1L117.4,252h-6.7l-7.4-201h0.2c4.1,0,7.5-3.4,7.5-7.5s-3.4-7.5-7.5-7.5h-64c-4.1,0-7.5,3.4-7.5,7.5
		s3.4,7.5,7.5,7.5h0.2l-7.4,201h-8.8c-4.1,0-7.5,3.4-7.5,7.5V412H7.5c-4.1,0-7.5,3.4-7.5,7.5s3.4,7.5,7.5,7.5h448
		c4.1,0,7.5-3.4,7.5-7.5S459.6,412,455.5,412z M287,380v-17h65v17H287z M207,380v-17h65v17H207z M167,380v-17h25v17H167z M367,363
		h65v17h-65V363z M287,316v-17h65v17H287z M207,316v-17h65v17H207z M167,316v-17h25v17H167z M367,299h65v17h-65V299z M195.8,266
		c2.4,1.3,5.2,1.3,7.6-0.1l68.6-41.2v34.8c0,2.7,1.5,5.2,3.8,6.5c2.4,1.3,5.2,1.3,7.6-0.1l68.6-41.2v34.8c0,2.7,1.5,5.2,3.8,6.5
		c2.4,1.3,5.2,1.3,7.6-0.1l68.6-41.2V284H159.5c-4.1,0-7.5,3.4-7.5,7.5v32c0,4.1,3.4,7.5,7.5,7.5H432v17H159.5
		c-4.1,0-7.5,3.4-7.5,7.5v32c0,4.1,3.4,7.5,7.5,7.5H432v17H127V263.7l65-39v34.8C192,262.2,193.5,264.7,195.8,266z M49.1,203h44.8
		l0.6,17H48.5L49.1,203z M88.3,51l5.1,137H49.7l5.1-137H88.3z M47.9,235h47.2l0.6,17H47.3L47.9,235z M31,412V267h81v145H31z"/>
	<path class="st0" d="M95.5,284h-48c-4.1,0-7.5,3.4-7.5,7.5v32c0,4.1,3.4,7.5,7.5,7.5h48c4.1,0,7.5-3.4,7.5-7.5v-32
		C103,287.4,99.6,284,95.5,284z M88,316H55v-17h33V316z"/>
	<path class="st0" d="M95.5,348h-48c-4.1,0-7.5,3.4-7.5,7.5v32c0,4.1,3.4,7.5,7.5,7.5h48c4.1,0,7.5-3.4,7.5-7.5v-32
		C103,351.4,99.6,348,95.5,348z M88,380H55v-17h33V380z"/>
</g>
</svg>
