<?xml version="1.0" encoding="utf-8"?>
<!-- Generator: Adobe Illustrator 22.1.0, SVG Export Plug-In . SVG Version: 6.00 Build 0)  -->
<svg version="1.1" xmlns="http://www.w3.org/2000/svg" xmlns:xlink="http://www.w3.org/1999/xlink" x="0px" y="0px"
	 viewBox="0 0 286 95.8" style="enable-background:new 0 0 286 95.8;" xml:space="preserve">
<style type="text/css">
	.st0{fill:#5C6AC4;}
	.st1{fill:#231F20;}
	.st2{fill:#2CE5B5;}
	.st3{fill:#FFFFFF;}
	.st4{fill:url(#SVGID_3_);}
	.st5{opacity:0.8;fill:url(#SVGID_4_);}
	.st6{fill:#5D6AB0;}
	.st7{fill:url(#SVGID_5_);}
	.st8{opacity:0.5;fill:url(#SVGID_6_);}
	.st9{fill:url(#SVGID_7_);}
	.st10{fill:url(#SVGID_8_);}
	.st11{fill:url(#SVGID_9_);}
	.st12{fill:url(#SVGID_10_);}
	.st13{fill:url(#SVGID_11_);}
	.st14{fill:url(#SVGID_12_);}
	.st15{fill:url(#SVGID_13_);}
	.st16{fill:#61C2A6;}
	.st17{fill:url(#SVGID_14_);}
	.st18{fill:url(#SVGID_15_);}
	.st19{fill:url(#SVGID_16_);}
	.st20{fill:url(#SVGID_17_);}
	.st21{fill:url(#SVGID_18_);}
	.st22{fill:url(#SVGID_19_);}
	.st23{fill:url(#SVGID_20_);}
	.st24{fill:url(#SVGID_21_);}
	.st25{fill:url(#SVGID_22_);}
	.st26{fill:url(#SVGID_23_);}
	.st27{fill:url(#SVGID_24_);}
	.st28{fill:url(#SVGID_25_);}
	.st29{opacity:0.2;fill:url(#SVGID_26_);}
	.st30{fill:#5170B5;}
	.st31{fill:#38A3D9;}
	.st32{opacity:0.98;}
	.st33{fill:url(#SVGID_27_);}
	.st34{fill:url(#SVGID_28_);}
	.st35{fill:url(#SVGID_29_);}
	.st36{fill:url(#SVGID_30_);}
	.st37{fill:url(#SVGID_31_);}
	.st38{fill:url(#SVGID_32_);}
	.st39{fill:url(#SVGID_33_);}
	.st40{fill:url(#SVGID_34_);}
	.st41{fill:#4275F4;}
	.st42{fill:#3BCC56;}
	.st43{fill:#2DE283;}
	.st44{fill:#64B276;}
	.st45{fill:#3BB73B;}
	.st46{fill:url(#SVGID_35_);}
	.st47{fill:url(#SVGID_36_);}
	.st48{fill:url(#SVGID_37_);}
	.st49{fill:url(#SVGID_38_);}
	.st50{fill:url(#SVGID_39_);}
	.st51{fill:url(#SVGID_40_);}
	.st52{fill:url(#SVGID_41_);}
	.st53{fill:url(#SVGID_42_);}
	.st54{fill:url(#SVGID_43_);}
	.st55{fill:url(#SVGID_44_);}
	.st56{fill:url(#SVGID_45_);}
	.st57{fill:url(#SVGID_46_);}
	.st58{fill:url(#SVGID_47_);}
	.st59{fill:url(#SVGID_48_);}
	.st60{fill:url(#SVGID_49_);}
	.st61{fill:url(#SVGID_50_);}
	.st62{fill:url(#SVGID_51_);}
	.st63{fill:url(#SVGID_52_);}
	.st64{fill:url(#SVGID_53_);}
	.st65{fill:url(#SVGID_54_);}
	.st66{fill:url(#SVGID_55_);}
	.st67{fill:url(#SVGID_56_);}
	.st68{opacity:0.5;fill:url(#SVGID_57_);}
	.st69{fill:url(#SVGID_58_);}
	.st70{opacity:0.5;fill:url(#SVGID_59_);}
	.st71{opacity:0.4;fill:url(#SVGID_60_);}
	.st72{fill:url(#SVGID_61_);}
	.st73{fill:url(#SVGID_62_);}
	.st74{fill:none;stroke:#231F20;stroke-width:3;stroke-miterlimit:10;}
	.st75{fill:url(#SVGID_63_);}
	.st76{fill:url(#SVGID_64_);}
	.st77{fill:url(#SVGID_65_);}
	.st78{fill:url(#SVGID_66_);}
	.st79{fill:url(#SVGID_67_);}
	.st80{fill:url(#SVGID_68_);}
	.st81{fill:url(#SVGID_69_);}
	.st82{fill:url(#SVGID_70_);}
	.st83{fill:url(#SVGID_71_);}
	.st84{fill:url(#SVGID_72_);}
	.st85{fill:url(#SVGID_73_);}
	.st86{fill:url(#SVGID_74_);}
	.st87{fill:url(#SVGID_75_);}
	.st88{fill:url(#SVGID_76_);}
	.st89{fill:url(#SVGID_77_);}
	.st90{fill:url(#SVGID_78_);}
	.st91{fill:url(#SVGID_79_);}
	.st92{fill:url(#SVGID_80_);}
	.st93{fill:url(#SVGID_81_);}
	.st94{fill:url(#SVGID_82_);}
	.st95{fill:url(#SVGID_83_);}
	.st96{fill:url(#SVGID_84_);}
	.st97{fill:url(#SVGID_85_);}
	.st98{fill:url(#SVGID_86_);}
	.st99{fill:url(#SVGID_87_);}
	.st100{fill:url(#SVGID_88_);}
	.st101{fill:url(#SVGID_89_);}
	.st102{fill:url(#SVGID_90_);}
	.st103{fill:url(#SVGID_91_);}
	.st104{fill:url(#SVGID_92_);}
	.st105{fill:url(#SVGID_93_);}
	.st106{fill:url(#SVGID_94_);}
	.st107{fill:url(#SVGID_95_);}
	.st108{fill:url(#SVGID_96_);}
	.st109{fill:url(#SVGID_97_);}
	.st110{fill:url(#SVGID_98_);}
	.st111{fill:url(#SVGID_99_);}
	.st112{fill:url(#SVGID_100_);}
	.st113{fill:url(#SVGID_101_);}
	.st114{fill:url(#SVGID_102_);}
	.st115{fill:url(#SVGID_103_);}
	.st116{fill:url(#SVGID_104_);}
	.st117{fill:url(#SVGID_105_);}
	.st118{fill:url(#SVGID_106_);}
	.st119{fill:url(#SVGID_107_);}
	.st120{fill:url(#SVGID_108_);}
	.st121{fill:url(#SVGID_109_);}
	.st122{fill:url(#SVGID_110_);}
	.st123{fill:url(#SVGID_111_);}
	.st124{fill:url(#SVGID_112_);}
	.st125{fill:url(#SVGID_113_);}
	.st126{fill:url(#SVGID_114_);}
	.st127{fill:url(#SVGID_115_);}
	.st128{fill:url(#SVGID_116_);}
	.st129{fill:url(#SVGID_117_);}
	.st130{fill:url(#SVGID_118_);}
	.st131{fill:url(#SVGID_119_);}
	.st132{fill:url(#SVGID_120_);}
	.st133{fill:url(#SVGID_121_);}
	.st134{fill:url(#SVGID_122_);}
	.st135{fill:url(#SVGID_123_);}
	.st136{fill:url(#SVGID_124_);}
	.st137{fill:url(#SVGID_125_);}
	.st138{fill:url(#SVGID_126_);}
	.st139{fill:url(#SVGID_127_);}
	.st140{fill:url(#SVGID_128_);}
	.st141{fill:url(#SVGID_129_);}
	.st142{fill:url(#SVGID_130_);}
	.st143{fill:url(#SVGID_131_);}
	.st144{fill:url(#SVGID_132_);}
	.st145{fill:url(#SVGID_133_);}
	.st146{fill:url(#SVGID_134_);}
	.st147{fill:url(#SVGID_135_);}
	.st148{fill:url(#SVGID_136_);}
	.st149{fill:#42B029;}
	.st150{fill:#87BD26;}
	.st151{fill:#C4D600;}
	.st152{opacity:0.2;fill:#4275F4;}
	.st153{fill:#62C157;}
	.st154{opacity:0.8;fill:#42A15E;}
	.st155{opacity:0.8;fill:#75AB5B;}
	.st156{opacity:0.8;fill:#A2BD40;}
	.st157{fill:#5DBF5D;}
	.st158{fill:url(#SVGID_137_);}
	.st159{fill:url(#SVGID_138_);}
	.st160{fill:url(#SVGID_139_);}
	.st161{fill:url(#SVGID_140_);}
	.st162{fill:url(#SVGID_141_);}
	.st163{fill:url(#SVGID_142_);}
	.st164{fill:url(#SVGID_143_);}
	.st165{fill:url(#SVGID_144_);}
	.st166{fill:url(#SVGID_145_);}
	.st167{fill:url(#SVGID_146_);}
	.st168{fill:url(#SVGID_147_);}
	.st169{fill:url(#SVGID_148_);}
	.st170{fill:url(#SVGID_149_);}
	.st171{fill:url(#SVGID_150_);}
	.st172{fill:url(#SVGID_151_);}
	.st173{fill:url(#SVGID_152_);}
	.st174{fill:url(#SVGID_153_);}
	.st175{fill:url(#SVGID_154_);}
	.st176{fill:url(#SVGID_155_);}
	.st177{fill:url(#SVGID_156_);}
	.st178{fill:url(#SVGID_157_);}
	.st179{fill:url(#SVGID_158_);}
	.st180{fill:url(#SVGID_159_);}
	.st181{fill:url(#SVGID_160_);}
	.st182{fill:url(#SVGID_161_);}
	.st183{fill:url(#SVGID_162_);}
	.st184{fill:url(#SVGID_163_);}
	.st185{fill:url(#SVGID_164_);}
	.st186{fill:url(#SVGID_165_);}
	.st187{fill:url(#SVGID_166_);}
	.st188{fill:url(#SVGID_167_);}
	.st189{fill:url(#SVGID_168_);}
	.st190{fill:url(#SVGID_169_);}
	.st191{fill:url(#SVGID_170_);}
	.st192{fill:url(#SVGID_171_);}
	.st193{fill:url(#SVGID_172_);}
	.st194{fill:url(#SVGID_173_);}
</style>
<g id="Layer_4">
</g>
<g id="Layer_1">
	<g>
		<g>
			<g>
				<path class="st0" d="M186.5,35.1c-1.4-0.6-3.4-1-6.1-1c-3.3,0-6.2,0.8-8.3,2.4c-1.9,1.3-3,3.2-3,6c0,2,0.7,3.5,1.9,4.7
					c2,2,4.8,3,7.3,4.5c1.7,1,3,2,3,3.6c0,1.4-0.6,2.2-1.4,2.9c-1,0.7-2.4,0.9-3.8,0.9c-2.3,0-3.8-0.6-5.1-1.2
					c-0.9-0.4-1.8-0.9-2.6-0.9c-1.4,0-2.5,0.9-2.5,2.3c0,1.2,0.9,2.2,2.2,2.8c1.9,1.1,4.5,1.5,7.6,1.5c3.3,0,6.2-0.7,8.2-2.2
					c2.2-1.5,3.3-3.7,3.3-6.6c0-2.3-0.9-4-2.3-5.1c-2-1.9-4.5-2.8-6.8-3.9c-1.9-1-3.2-1.9-3.2-3.6c0-1,0.6-1.8,1.4-2.3
					c1.1-0.6,2.5-0.9,3.6-0.9c1.9,0,2.9,0.3,4,0.7c0.9,0.3,1.6,0.6,2.2,0.6c1.4,0,2.4-1.1,2.4-2.4C188.6,36.8,188,35.8,186.5,35.1z
					 M132.1,34.1c-1.2,0-2.4,0.6-2.8,1.8l-10,20.9h-0.2l-5-19.5c-0.4-1.9-1.4-3.2-3.3-3.2c-2.2,0-3.4,1.2-3.4,3.3
					c0,0.6,0.2,1.4,0.4,2l7.4,25.2c-1.2,2-2.6,3.6-3.8,4.7c-2,1.7-4,2.2-6,2.2c-1.6,0-3,1.2-3,3c0,1.7,1.2,2.9,3,2.9
					c3.2,0,6.4-0.8,9.6-3.7c2.7-2.3,4.8-5.5,6.8-9.3l13-25.6c0.3-0.6,0.4-1.1,0.4-1.8C135.1,35.3,133.8,34.1,132.1,34.1z
					 M161.6,34.3c-1.5,0-2.9,0.9-3.1,2.9l-2,14c-0.3,2-0.9,3.8-2,5c-1.2,1.4-3,2.2-5.5,2.2c-1.8,0-3.3-0.5-4.2-1.5
					c-0.7-0.9-1.1-2.1-1.1-3.6c0-0.8,0.2-2.2,0.3-3.3l1.4-10.5c0.1-0.7,0.2-1.4,0.2-2.2c0-2.1-1.4-3-3-3c-1.5,0-2.9,0.9-3.2,2.9
					L137.8,50c-0.2,1.2-0.4,2.9-0.4,3.9c0,3.1,0.9,5.4,2.5,6.9c1.9,1.8,4.8,2.6,8.7,2.6c4.3,0,7.6-1.1,10-3.3c2.2-2,3.6-5,4.1-8.7
					l1.7-12.1c0.1-0.7,0.2-1.4,0.2-2.2C164.7,35.1,163.2,34.3,161.6,34.3z M207.8,34.1c-2.9,0-5.3,0.9-7.2,2.1c-0.2-1.4-1.4-2-2.7-2
					c-1.4,0-2.7,0.8-2.9,2.6l-4.9,35.3c-0.1,0.9-0.2,1.6-0.2,2.3c0,2.1,1.4,3,3.1,3c1.5,0,2.9-0.9,3.2-2.9l1.6-11.5
					c1,0.2,2.1,0.2,2.8,0.2c5,0,9.5-1.5,12.8-4.4c3.2-2.9,5.1-7.1,5.1-12.7c0-3.8-1.1-6.8-3.2-9C213.4,35.3,210.9,34.1,207.8,34.1z
					 M209,55.3c-1.9,1.9-4.6,2.9-7.7,2.9c-0.7,0-1.9-0.1-2.9-0.2l2.3-16.3c1.4-1.1,3.3-2,5.3-2c1.9,0,3.3,0.7,4.4,1.9
					c1.1,1.3,1.6,3.1,1.6,5.1C212.1,50.3,210.9,53.3,209,55.3z M231.2,18.1c-2.1,0-3.8,1.7-3.8,3.8s1.7,3.8,3.8,3.8
					c2.1,0,3.8-1.7,3.8-3.8S233.3,18.1,231.2,18.1z M278.6,34.4c-1.2,0-2.4,0.6-2.8,1.8l-10,20.9h-0.2l-5-19.5
					c-0.1-0.6-0.3-1.1-0.5-1.5c-0.1-0.1-0.1-0.2-0.2-0.3c-0.4-0.7-1.2-1.1-2-1.1h-10.5l0.4-3c0.3-1.9,0.7-3.5,1.7-4.7
					c0.8-1,2-1.5,3.7-1.5c1.9,0,2.9,0.5,3.9,0.9c0.6,0.2,1.1,0.5,1.7,0.5c1.5,0,2.6-1.2,2.6-2.8c0-1.2-0.7-2-2-2.7
					c-1.7-0.9-4-1.3-6.3-1.3c-3.4,0-6,1-7.9,2.7c-1.8,1.7-2.9,4.2-3.4,7.2l-0.7,4.7h-2.8c-1.4,0-2.5,1.2-2.5,2.5
					c0,1.4,1.1,2.5,2.5,2.5h2l-4.5,32.6c-0.1,0.8-0.2,1.6-0.2,2.3c0,2.1,1.4,3,3.1,3c1.5,0,2.9-0.9,3.1-2.9l4.9-35h7.6c0,0,0,0,0,0
					l7.4,25.2c-1.2,2-2.6,3.6-3.8,4.7c-2,1.7-4,2.2-6,2.2c-1.6,0-3,1.2-3,3c0,1.7,1.2,2.9,3,2.9c3.2,0,6.4-0.8,9.6-3.7
					c2.7-2.3,4.8-5.5,6.8-9.3l13-25.6c0.3-0.6,0.4-1.1,0.4-1.8C281.6,35.6,280.3,34.4,278.6,34.4z M228.9,34.3
					c-1.6,0-2.9,0.9-3.2,2.9l-3,21.1c-0.1,0.9-0.2,1.6-0.2,2.4c0,2.1,1.4,2.9,3,2.9c1.6,0,2.9-0.8,3.2-2.9l2.9-21.1
					c0.1-0.8,0.2-1.5,0.2-2.3C231.9,35.1,230.5,34.3,228.9,34.3z"/>
			</g>
		</g>
		<g>
			<linearGradient id="SVGID_2_" gradientUnits="userSpaceOnUse" x1="60.0847" y1="11.7692" x2="72.0948" y2="24.392">
				<stop  offset="0.2135" style="stop-color:#556DD1"/>
				<stop  offset="0.2595" style="stop-color:#556DD1"/>
				<stop  offset="0.5005" style="stop-color:#526ED6"/>
				<stop  offset="0.7892" style="stop-color:#4A71E5"/>
				<stop  offset="1" style="stop-color:#4275F4"/>
			</linearGradient>
			<path style="fill:url(#SVGID_2_);" d="M49.9,27.2c-1.8,0-3.6-0.9-4.6-2.6c-1.5-2.5-0.7-5.8,1.9-7.3l25.3-15
				c2.5-1.5,5.8-0.7,7.3,1.9c1.5,2.5,0.7,5.8-1.9,7.3l-25.3,15C51.8,26.9,50.8,27.2,49.9,27.2z"/>
			<linearGradient id="SVGID_3_" gradientUnits="userSpaceOnUse" x1="31.5682" y1="76.0168" x2="59.5101" y2="58.5327">
				<stop  offset="0" style="stop-color:#2CE5B5"/>
				<stop  offset="0.3383" style="stop-color:#2FD8BC"/>
				<stop  offset="0.9655" style="stop-color:#36B5D0"/>
				<stop  offset="1" style="stop-color:#36B3D1"/>
			</linearGradient>
			<path class="st4" d="M9.8,94.3c-1.8,0-3.6-0.9-4.6-2.6c-1.5-2.5-0.7-5.8,1.8-7.3l52.1-31.3c2.5-1.5,5.8-0.7,7.3,1.8
				c1.5,2.5,0.7,5.8-1.8,7.3L12.5,93.6C11.7,94.1,10.7,94.3,9.8,94.3z"/>
			<linearGradient id="SVGID_4_" gradientUnits="userSpaceOnUse" x1="23.6696" y1="28.6822" x2="58.3241" y2="28.6822">
				<stop  offset="0" style="stop-color:#4275F4"/>
				<stop  offset="0.4962" style="stop-color:#506FDA"/>
				<stop  offset="1" style="stop-color:#5C6AC4"/>
			</linearGradient>
			<path style="fill:url(#SVGID_4_);" d="M75.2,1.5c-1.1,0-2.2,0.4-3,1l0,0l-2.3,1.4v9.3v3.2v25L12.5,7.9C9.9,6.5,6.6,7.3,5.2,9.9
				c-1.5,2.6-0.6,5.8,1.9,7.3l65.4,38c0,0,0,0,0,0c0.2,0.1,0.4,0.2,0.6,0.3c0,0,0,0,0,0c0.1,0,0.2,0.1,0.3,0.1c0,0,0,0,0.1,0
				c0.1,0,0.2,0.1,0.3,0.1c0,0,0,0,0.1,0c0.1,0,0.2,0,0.3,0.1c0,0,0.1,0,0.1,0c0.1,0,0.1,0,0.2,0c0.1,0,0.1,0,0.2,0c0,0,0.1,0,0.1,0
				c0.1,0,0.1,0,0.2,0c0,0,0.1,0,0.1,0c0.1,0,0.1,0,0.2,0c0,0,0.1,0,0.1,0c0.1,0,0.1,0,0.2,0c0,0,0.1,0,0.1,0c0.1,0,0.1,0,0.2,0
				c0,0,0.1,0,0.1,0c0.1,0,0.2,0,0.3,0c0,0,0,0,0,0c0.2,0,0.4-0.1,0.7-0.2c0,0,0,0,0,0c0.1,0,0.2-0.1,0.3-0.1c0,0,0,0,0,0
				c0.2-0.1,0.4-0.2,0.6-0.3c0,0,0.1,0,0.1,0c0.1,0,0.1-0.1,0.2-0.1c0,0,0.1,0,0.1-0.1c0.1,0,0.1-0.1,0.2-0.1c0.1,0,0.1-0.1,0.2-0.1
				c0,0,0.1-0.1,0.1-0.1c0,0,0.1-0.1,0.1-0.1c0,0,0.1-0.1,0.1-0.1c0,0,0.1-0.1,0.1-0.1c0.1-0.1,0.1-0.1,0.2-0.2c0,0,0.1-0.1,0.1-0.1
				c0-0.1,0.1-0.1,0.1-0.2c0,0,0-0.1,0.1-0.1c0.1-0.2,0.3-0.4,0.4-0.6c0,0,0,0,0,0c0,0,0,0,0,0c0-0.1,0.1-0.1,0.1-0.2c0,0,0,0,0,0
				c0-0.1,0.1-0.1,0.1-0.2c0,0,0,0,0,0c0-0.1,0.1-0.1,0.1-0.2c0,0,0,0,0-0.1c0-0.1,0-0.1,0.1-0.2c0,0,0-0.1,0-0.1c0,0,0-0.1,0-0.1
				c0,0,0-0.1,0-0.1c0,0,0-0.1,0-0.1c0,0,0-0.1,0-0.1c0,0,0-0.1,0-0.1c0-0.1,0-0.1,0-0.2c0,0,0,0,0-0.1c0-0.1,0-0.1,0-0.2
				c0,0,0,0,0-0.1c0-0.1,0-0.1,0-0.2c0,0,0,0,0,0c0-0.1,0-0.1,0-0.2c0,0,0,0,0,0V6.8C80.5,3.9,78.1,1.5,75.2,1.5z"/>
			<linearGradient id="SVGID_5_" gradientUnits="userSpaceOnUse" x1="9.7798" y1="94.3207" x2="9.7798" y2="7.2156">
				<stop  offset="2.702703e-02" style="stop-color:#2CE5B5"/>
				<stop  offset="0.1188" style="stop-color:#30D2C0"/>
				<stop  offset="0.3399" style="stop-color:#38AAD6"/>
				<stop  offset="0.5419" style="stop-color:#3D8DE7"/>
				<stop  offset="0.7163" style="stop-color:#417BF0"/>
				<stop  offset="0.8432" style="stop-color:#4275F4"/>
			</linearGradient>
			<path class="st7" d="M15.1,79.5v-6.2V12.6c0-3-2.4-5.4-5.4-5.4c-3,0-5.4,2.4-5.4,5.4V89c0,3,2.4,5.4,5.4,5.4c1.2,0,2.2-0.4,3.1-1
				l0,0l2.3-1.3V79.5z"/>
			<linearGradient id="SVGID_6_" gradientUnits="userSpaceOnUse" x1="82.3766" y1="14.577" x2="67.6703" y2="24.0543">
				<stop  offset="0" style="stop-color:#4A84FF"/>
				<stop  offset="0.3997" style="stop-color:#467CF9;stop-opacity:0.6003"/>
				<stop  offset="1" style="stop-color:#4275F4;stop-opacity:0"/>
			</linearGradient>
			<path style="fill:url(#SVGID_6_);" d="M80.5,6.4c0-0.1,0-0.1,0-0.2c0-0.1,0-0.2,0-0.3c0-0.1,0-0.2,0-0.2c0-0.1,0-0.2-0.1-0.3
				c0-0.1,0-0.2-0.1-0.3c0-0.1-0.1-0.1-0.1-0.2c0-0.1-0.1-0.2-0.1-0.3C80,4.6,80,4.5,80,4.5c0-0.1-0.1-0.2-0.2-0.3c0,0,0-0.1,0-0.1
				c0,0,0-0.1-0.1-0.1c-0.1-0.1-0.1-0.2-0.2-0.3c0-0.1-0.1-0.1-0.1-0.2c-0.1-0.1-0.1-0.1-0.2-0.2c-0.1-0.1-0.1-0.1-0.2-0.2
				C79,3.1,78.9,3,78.9,3c-0.1-0.1-0.1-0.1-0.2-0.2c-0.1,0-0.1-0.1-0.2-0.1c-0.1-0.1-0.2-0.1-0.2-0.2c-0.1,0-0.1-0.1-0.2-0.1
				c-0.1,0-0.2-0.1-0.2-0.1c-0.1,0-0.2-0.1-0.2-0.1C77.5,2,77.4,2,77.4,2c-0.1,0-0.2-0.1-0.3-0.1c-0.1,0-0.1-0.1-0.2-0.1
				c-0.1,0-0.2-0.1-0.3-0.1c-0.1,0-0.1,0-0.2-0.1c-0.1,0-0.2,0-0.3-0.1c-0.1,0-0.2,0-0.3,0c-0.1,0-0.2,0-0.2,0c-0.1,0-0.2,0-0.3,0
				c0,0-0.1,0-0.1,0c0,0-0.1,0-0.1,0c-0.1,0-0.1,0-0.2,0c-0.1,0-0.2,0-0.3,0c-0.1,0-0.1,0-0.2,0c-0.1,0-0.2,0-0.4,0.1
				c-0.1,0-0.1,0-0.2,0c-0.1,0-0.2,0.1-0.3,0.1c-0.1,0-0.1,0-0.2,0.1c-0.1,0-0.2,0.1-0.3,0.1C73,2,72.9,2,72.8,2
				c-0.1,0.1-0.2,0.1-0.3,0.2c0,0-0.1,0-0.1,0.1L46.7,17.5c0.5,0,3.7,2.4,13.1,2.1c4.2-0.2,10-3.4,10-3.4v23.1
				c3.8,0,7.6-1.3,10.7-3.6V6.8c0,0,0-0.1,0-0.1C80.5,6.6,80.5,6.5,80.5,6.4z"/>
			<linearGradient id="SVGID_7_" gradientUnits="userSpaceOnUse" x1="5.0293" y1="86.1171" x2="16.059" y2="68.7147">
				<stop  offset="0" style="stop-color:#2CE5B5"/>
				<stop  offset="1" style="stop-color:#2CE5B5;stop-opacity:0"/>
			</linearGradient>
			<path class="st9" d="M34.8,67.7L15.1,79.5v-6.2V43.7c-3.8,0-7.4,0.8-10.7,2.3v43c0,0,0,0.1,0,0.1c0,0.1,0,0.2,0,0.3
				c0,0.1,0,0.2,0,0.2c0,0.1,0,0.2,0,0.3c0,0.1,0,0.2,0.1,0.3c0,0.1,0,0.1,0.1,0.2c0,0.1,0.1,0.2,0.1,0.3c0,0.1,0,0.1,0.1,0.2
				c0,0.1,0.1,0.2,0.1,0.3c0,0.1,0,0.1,0.1,0.2c0.1,0.1,0.1,0.2,0.2,0.3c0,0,0,0,0,0.1c0,0,0,0,0,0.1c0.1,0.2,0.2,0.3,0.3,0.5
				c0,0,0,0.1,0.1,0.1c0.1,0.2,0.3,0.3,0.4,0.5c0,0,0.1,0.1,0.1,0.1c0.1,0.1,0.2,0.2,0.4,0.3c0,0,0.1,0.1,0.2,0.1
				c0.1,0.1,0.3,0.2,0.5,0.3c0,0,0,0,0.1,0c0.2,0.1,0.4,0.2,0.6,0.3c0,0,0.1,0,0.1,0C8,94,8.2,94.1,8.4,94.1c0,0,0.1,0,0.1,0
				c0.2,0,0.3,0.1,0.5,0.1c0,0,0.1,0,0.1,0c0.2,0,0.4,0,0.6,0c0,0,0,0,0,0c0,0,0,0,0,0c0,0,0,0,0,0c0.2,0,0.4,0,0.6,0
				c0,0,0.1,0,0.1,0c0.2,0,0.4-0.1,0.6-0.1c0,0,0.1,0,0.1,0c0.2-0.1,0.4-0.1,0.6-0.2c0,0,0.1,0,0.1-0.1c0.2-0.1,0.3-0.2,0.5-0.2
				c0,0,0.1,0,0.1,0l22.3-13.4V67.7z"/>
		</g>
	</g>
</g>
<g id="Layer_3">
</g>
<g id="Layer_2">
</g>
</svg>
