<?xml version="1.0" encoding="utf-8"?>
<!-- Generator: Adobe Illustrator 21.1.0, SVG Export Plug-In . SVG Version: 6.00 Build 0)  -->
<svg version="1.1" id="Layer_1" xmlns="http://www.w3.org/2000/svg" xmlns:xlink="http://www.w3.org/1999/xlink" x="0px" y="0px"
	 viewBox="0 0 150 100" style="enable-background:new 0 0 150 100;" xml:space="preserve">
<style type="text/css">
	.st0{fill:#65C08A;}
	.st1{fill:url(#SVGID_1_);}
	.st2{fill:url(#SVGID_2_);}
	.st3{fill:url(#SVGID_3_);}
	.st4{fill:#2AFFA3;}
	.st5{opacity:0.5;fill:url(#SVGID_4_);enable-background:new    ;}
	.st6{opacity:0.7;}
	.st7{opacity:0.7;fill:url(#SVGID_5_);enable-background:new    ;}
	.st8{opacity:0.8;fill:url(#SVGID_6_);enable-background:new    ;}
	.st9{opacity:0.8;}
	.st10{fill:url(#SVGID_7_);}
	.st11{fill:#6AC083;}
</style>
<g id="Layer_2">
</g>
<g id="Layer_1_1_">
	<g>
		<g>
			<path class="st0" d="M101,53.6c-0.7-0.7-1.5-1-2.5-1s-1.8,0.3-2.5,1s-1,1.5-1,2.5s0.3,1.9,1,2.5c0.7,0.7,1.5,1,2.5,1
				s1.8-0.3,2.5-1s1-1.5,1-2.5S101.6,54.3,101,53.6z M100.9,56.1c0,0.7-0.2,1.3-0.8,1.8c-0.5,0.5-1,0.7-1.7,0.7s-1.3-0.2-1.7-0.7
				s-0.8-1-0.8-1.8c0-0.7,0.3-1.3,0.7-1.8c0.5-0.5,1.1-0.7,1.8-0.7s1.3,0.2,1.8,0.7C100.7,54.8,100.9,55.4,100.9,56.1z"/>
			<path class="st0" d="M99.7,54.5c-0.3-0.3-0.8-0.4-1.3-0.4c-0.6,0-1.1,0.2-1.5,0.6c-0.4,0.4-0.6,0.9-0.6,1.5s0.2,1,0.6,1.5
				c0.4,0.4,0.9,0.6,1.5,0.6c0.5,0,0.9-0.1,1.3-0.4c0.3-0.3,0.6-0.6,0.6-1l0.1-0.1h-1v0.1c-0.1,0.1-0.1,0.3-0.3,0.3
				c-0.1,0.1-0.3,0.1-0.6,0.1c-0.3,0-0.6-0.1-0.7-0.3c-0.2-0.2-0.3-0.5-0.3-0.8s0.1-0.6,0.3-0.8c0.2-0.2,0.4-0.3,0.7-0.3
				c0.2,0,0.4,0.1,0.6,0.1c0.1,0.1,0.3,0.2,0.3,0.3v0.1h1l-0.1-0.1C100.2,55.1,100,54.8,99.7,54.5z"/>
		</g>
		<polygon class="st0" points="72.7,18.3 72.8,18.3 79.8,22.4 94.8,13.7 94.8,5.6 		"/>
		
			<linearGradient id="SVGID_1_" gradientUnits="userSpaceOnUse" x1="98.25" y1="1887.2" x2="98.25" y2="1911.0393" gradientTransform="matrix(1 0 0 1 0 -1881.6)">
			<stop  offset="0" style="stop-color:#6AC083"/>
			<stop  offset="1" style="stop-color:#2AFFA3"/>
		</linearGradient>
		<polygon class="st1" points="94.8,29.4 98.3,29.4 101.8,29.4 101.8,9.5 94.8,5.6 94.7,13.6 		"/>
		<g>
			
				<linearGradient id="SVGID_2_" gradientUnits="userSpaceOnUse" x1="48.25" y1="1924.2" x2="97.2477" y2="1924.2" gradientTransform="matrix(1 0 0 1 0 -1881.6)">
				<stop  offset="0" style="stop-color:#6AC083"/>
				<stop  offset="1" style="stop-color:#2AFFA3"/>
			</linearGradient>
			<polygon class="st2" points="90.2,39 55.3,59.2 55.3,17.6 48.8,13.7 48.3,14.1 48.3,71.5 97.2,43.1 			"/>
		</g>
		
			<linearGradient id="SVGID_3_" gradientUnits="userSpaceOnUse" x1="48.8" y1="1906.8" x2="95.4" y2="1906.8" gradientTransform="matrix(1 0 0 1 0 -1881.6)">
			<stop  offset="0" style="stop-color:#6AC083"/>
			<stop  offset="1" style="stop-color:#2AFFA3"/>
		</linearGradient>
		<polyline class="st3" points="48.8,13.7 95.4,40.7 95.1,32.4 55.8,9.7 48.8,13.7 		"/>
		<polyline class="st4" points="94.8,40.4 98.3,42.5 101.8,40.4 101.8,28.7 94.8,28.7 94.8,40.4 		"/>
		
			<linearGradient id="SVGID_4_" gradientUnits="userSpaceOnUse" x1="72.4493" y1="1898.2186" x2="96.025" y2="1894.0615" gradientTransform="matrix(1 0 0 1 0 -1881.6)">
			<stop  offset="0.5128" style="stop-color:#47525A;stop-opacity:0"/>
			<stop  offset="1" style="stop-color:#47525A"/>
		</linearGradient>
		<polygon class="st5" points="94.8,5.6 72.7,18.3 72.8,18.3 79.8,22.4 79.8,22.4 94.7,13.8 		"/>
		<g class="st6">
			
				<linearGradient id="SVGID_5_" gradientUnits="userSpaceOnUse" x1="56.102" y1="1955.9397" x2="74.7371" y2="1904.7404" gradientTransform="matrix(1 0 0 1 0 -1881.6)">
				<stop  offset="0.5128" style="stop-color:#47525A;stop-opacity:0"/>
				<stop  offset="1" style="stop-color:#47525A"/>
			</linearGradient>
			<polygon class="st7" points="90.2,39 55.3,59.2 55.3,17.6 48.8,13.7 48.3,14.1 48.3,71.5 97.2,43.1 			"/>
		</g>
		
			<linearGradient id="SVGID_6_" gradientUnits="userSpaceOnUse" x1="93.4319" y1="1886.052" x2="78.0472" y2="1904.3868" gradientTransform="matrix(1 0 0 1 0 -1881.6)">
			<stop  offset="0.5128" style="stop-color:#47525A;stop-opacity:0"/>
			<stop  offset="1" style="stop-color:#47525A"/>
		</linearGradient>
		<polygon class="st8" points="94.1,5.9 72.7,18.3 72.8,18.3 79.8,22.4 79.8,22.4 94.7,13.8 94.8,5.6 		"/>
		<g class="st9">
			
				<linearGradient id="SVGID_7_" gradientUnits="userSpaceOnUse" x1="72.75" y1="1953.1" x2="72.75" y2="1895.3" gradientTransform="matrix(1 0 0 1 0 -1881.6)">
				<stop  offset="0.5128" style="stop-color:#47525A;stop-opacity:0"/>
				<stop  offset="1" style="stop-color:#47525A"/>
			</linearGradient>
			<polygon class="st10" points="90.2,39 55.3,59.2 55.3,17.6 48.8,13.7 48.3,14.1 48.3,71.5 97.2,43.1 			"/>
		</g>
	</g>
	<g>
		<g>
			<path class="st11" d="M53.2,86.1l0.4,1.5h0.1l3.7-10.3h1.5l-5.3,14.1c-0.3,0.8-0.7,1.5-1.3,2.1c-0.5,0.6-1.3,0.8-2.2,0.8
				c-0.1,0-0.3,0-0.6-0.1c-0.2,0-0.4-0.1-0.5-0.1l0.1-1.1c0.1,0,0.2,0,0.4,0.1c0.2,0,0.3,0,0.4,0c0.6,0,1-0.2,1.4-0.6
				c0.3-0.4,0.6-1,0.9-1.6l0.6-1.7l-4.7-12h1.5L53.2,86.1z"/>
			<path class="st11" d="M85.8,86.3c0-0.6-0.2-1-0.7-1.5s-1.3-0.8-2.5-1c-1.5-0.3-2.5-0.8-3.2-1.3c-0.7-0.5-1-1.3-1-2.2
				c0-0.9,0.4-1.7,1.2-2.4c0.8-0.6,1.8-1,3.1-1c1.4,0,2.4,0.3,3.3,1c0.8,0.7,1.2,1.5,1.1,2.6v0.1h-1.3c0-0.7-0.3-1.3-0.8-1.7
				c-0.6-0.5-1.3-0.8-2.3-0.8s-1.7,0.2-2.2,0.6s-0.8,0.9-0.8,1.5s0.2,1,0.6,1.4c0.4,0.3,1.3,0.7,2.5,1c1.5,0.3,2.5,0.8,3.3,1.3
				c0.7,0.6,1.1,1.3,1.1,2.3s-0.4,1.8-1.3,2.4c-0.8,0.6-1.9,1-3.3,1c-1.5,0-2.6-0.3-3.5-1c-0.8-0.7-1.3-1.5-1.2-2.5V86h1.3
				c0.1,0.9,0.4,1.5,1,1.9c0.7,0.4,1.5,0.6,2.4,0.6c1,0,1.7-0.2,2.3-0.6C85.6,87.4,85.8,86.9,85.8,86.3z"/>
			<path class="st11" d="M101.8,83.5c0-1.9-0.4-3.4-1.3-4.6c-0.8-1.1-1.9-1.7-3.3-1.7h-0.6c-1.4,0-2.4,0.5-3.3,1.5v-1.5H92v6.1v0.2
				v10.9h1.3v-6.1c0.8,1,1.9,1.6,3.3,1.6h0.6c1.4,0,2.6-0.6,3.3-1.6c0.8-1.1,1.3-2.5,1.3-4.4L101.8,83.5
				C101.8,83.6,101.8,83.6,101.8,83.5L101.8,83.5z M99.5,87.4c-0.6,0.8-1.3,1.2-2.4,1.3c0,0-0.2,0-0.3,0c-0.1,0-0.3,0-0.3,0
				c-1-0.1-1.8-0.6-2.3-1.4c-0.6-1-0.9-2.2-0.9-3.6v-0.3c0-1.5,0.3-2.6,0.9-3.5c0.6-0.8,1.3-1.2,2.4-1.3c0,0,0.2,0,0.3,0
				s0.3,0,0.3,0c1,0.1,1.8,0.6,2.3,1.4c0.6,1,0.9,2.2,0.9,3.6l0,0v0.3C100.4,85.3,100.1,86.5,99.5,87.4z"/>
		</g>
		<path class="st11" d="M71.8,77.2v7.4v0.3l0,0c0,1.8-1.5,3.3-3.3,3.3s-3.3-1.5-3.3-3.3l0,0v-0.3v-7.4h-1.3v7.7c0,0,0,0,0,0.1l0,0
			l0,0c0,2.6,2.1,4.7,4.7,4.7c2.6,0,4.7-2.1,4.7-4.6l0,0v-7.8L71.8,77.2L71.8,77.2z"/>
	</g>
</g>
<g id="Layer_3">
</g>
</svg>
