<?xml version="1.0" encoding="utf-8"?>
<!-- Generator: Adobe Illustrator 21.1.0, SVG Export Plug-In . SVG Version: 6.00 Build 0)  -->
<svg version="1.1" id="Layer_1" xmlns="http://www.w3.org/2000/svg" xmlns:xlink="http://www.w3.org/1999/xlink" x="0px" y="0px"
	 viewBox="0 0 1491.7 601.7" style="enable-background:new 0 0 1491.7 601.7;" xml:space="preserve">
<style type="text/css">
	.st0{fill:#33C3EA;}
	.st1{fill:#2A323A;}
	.st2{fill:#313B45;}
	.st3{fill:#404852;}
	.st4{fill:#6AC083;}
	.st5{fill:#47525A;}
	.st6{opacity:0.2;}
	.st7{clip-path:url(#SVGID_2_);}
	.st8{fill:url(#SVGID_3_);}
	.st9{fill:url(#SVGID_4_);}
	.st10{fill:url(#SVGID_5_);}
	.st11{fill:url(#SVGID_6_);}
	.st12{opacity:0.6;}
	.st13{fill:#FFFFFF;}
	.st14{opacity:0.1;}
	.st15{clip-path:url(#SVGID_8_);}
	.st16{fill:url(#SVGID_9_);}
	.st17{fill:url(#SVGID_10_);}
	.st18{fill:url(#SVGID_11_);}
	.st19{fill:url(#SVGID_12_);}
	.st20{fill-rule:evenodd;clip-rule:evenodd;fill:none;stroke:#A7A8AB;stroke-miterlimit:10;}
	.st21{fill:url(#SVGID_13_);}
	.st22{fill:url(#SVGID_14_);}
	.st23{fill:#31BAA6;}
	.st24{fill:url(#SVGID_15_);}
	.st25{fill:url(#SVGID_16_);}
	.st26{opacity:0.85;fill:url(#SVGID_17_);}
	.st27{clip-path:url(#SVGID_19_);}
	.st28{fill:url(#SVGID_20_);}
	.st29{fill:url(#SVGID_21_);}
	.st30{fill:url(#SVGID_22_);}
	.st31{fill:url(#SVGID_23_);}
	.st32{clip-path:url(#SVGID_25_);}
	.st33{fill:url(#SVGID_26_);}
	.st34{fill:url(#SVGID_27_);}
	.st35{fill:url(#SVGID_28_);}
	.st36{fill:url(#SVGID_29_);}
	.st37{fill:url(#SVGID_30_);}
	.st38{fill:url(#SVGID_31_);}
	.st39{fill:url(#SVGID_32_);}
	.st40{fill:url(#SVGID_33_);}
	.st41{opacity:0.7;fill:url(#SVGID_34_);}
	.st42{fill:url(#SVGID_35_);}
	.st43{fill:#74C48D;}
	.st44{fill:url(#SVGID_36_);}
	.st45{opacity:0.5;fill:url(#SVGID_37_);}
	.st46{fill:url(#SVGID_38_);}
	.st47{fill:url(#SVGID_39_);}
	.st48{fill:url(#SVGID_40_);}
	.st49{fill:url(#SVGID_41_);}
	.st50{opacity:0.7;fill:url(#SVGID_42_);}
	.st51{fill:url(#SVGID_43_);}
	.st52{fill:url(#SVGID_44_);}
	.st53{opacity:0.5;fill:url(#SVGID_45_);}
	.st54{fill:#C9D6E1;}
	.st55{fill:url(#SVGID_46_);}
	.st56{fill:url(#SVGID_47_);}
	.st57{fill:url(#SVGID_48_);}
	.st58{fill:#8D99A3;}
	.st59{fill:url(#SVGID_49_);}
	.st60{fill:url(#SVGID_50_);}
	.st61{fill:url(#SVGID_51_);}
	.st62{fill:url(#SVGID_52_);}
	.st63{opacity:0.7;fill:url(#SVGID_53_);}
	.st64{fill:url(#SVGID_54_);}
	.st65{opacity:0.5;fill:url(#SVGID_55_);}
	.st66{fill:url(#SVGID_56_);}
	.st67{fill:url(#SVGID_57_);}
	.st68{opacity:0.3;fill:url(#SVGID_58_);}
	.st69{opacity:0.3;fill:url(#SVGID_59_);}
	.st70{opacity:0.3;fill:url(#SVGID_60_);}
	.st71{fill:#9DA5AE;}
	.st72{fill:#AEBECD;}
	.st73{fill:url(#SVGID_61_);}
	.st74{fill:url(#SVGID_62_);}
	.st75{fill:url(#SVGID_63_);}
	.st76{fill:url(#SVGID_64_);}
	.st77{opacity:0.7;fill:url(#SVGID_65_);}
	.st78{fill:url(#SVGID_66_);}
	.st79{fill:url(#SVGID_67_);}
	.st80{opacity:0.5;fill:url(#SVGID_68_);}
	.st81{fill:url(#SVGID_69_);}
	.st82{fill:url(#SVGID_70_);}
	.st83{fill:url(#SVGID_71_);}
	.st84{fill:url(#SVGID_72_);}
	.st85{fill:url(#SVGID_73_);}
	.st86{fill:url(#SVGID_74_);}
	.st87{fill:url(#SVGID_75_);}
	.st88{opacity:0.7;fill:url(#SVGID_76_);}
	.st89{fill:url(#SVGID_77_);}
	.st90{opacity:0.5;fill:url(#SVGID_78_);}
	.st91{fill:url(#SVGID_79_);}
	.st92{fill:url(#SVGID_80_);}
	.st93{fill:url(#SVGID_81_);}
	.st94{fill:url(#SVGID_82_);}
	.st95{opacity:0.7;fill:url(#SVGID_83_);}
	.st96{fill:url(#SVGID_84_);}
	.st97{fill:url(#SVGID_85_);}
	.st98{opacity:0.5;fill:url(#SVGID_86_);}
	.st99{fill:url(#SVGID_87_);}
	.st100{fill:url(#SVGID_88_);}
	.st101{fill:url(#SVGID_89_);}
	.st102{fill:url(#SVGID_90_);}
	.st103{fill:url(#SVGID_91_);}
	.st104{fill:url(#SVGID_92_);}
	.st105{fill:url(#SVGID_93_);}
	.st106{opacity:0.7;fill:url(#SVGID_94_);}
	.st107{fill:url(#SVGID_95_);}
	.st108{opacity:0.5;fill:url(#SVGID_96_);}
	.st109{fill:url(#SVGID_97_);}
	.st110{fill:url(#SVGID_98_);}
	.st111{fill:url(#SVGID_99_);}
	.st112{fill:url(#SVGID_100_);}
	.st113{opacity:0.7;fill:url(#SVGID_101_);}
	.st114{fill:url(#SVGID_102_);}
	.st115{fill:url(#SVGID_103_);}
	.st116{opacity:0.5;fill:url(#SVGID_104_);}
	.st117{fill:url(#SVGID_105_);}
	.st118{fill:url(#SVGID_106_);}
	.st119{fill:url(#SVGID_107_);}
	.st120{fill:url(#SVGID_108_);}
	.st121{fill:url(#SVGID_109_);}
	.st122{fill:url(#SVGID_110_);}
	.st123{fill:url(#SVGID_111_);}
	.st124{fill:url(#SVGID_112_);}
	.st125{fill:#65C08A;}
	.st126{opacity:0.5;fill:url(#SVGID_113_);}
	.st127{opacity:0.6;fill:url(#SVGID_114_);}
	.st128{opacity:0.7;fill:url(#SVGID_115_);}
	.st129{fill:url(#SVGID_116_);}
	.st130{fill:url(#SVGID_117_);}
	.st131{fill:url(#SVGID_118_);}
	.st132{fill:url(#SVGID_119_);}
	.st133{fill:#2AFFA3;}
	.st134{opacity:0.5;fill:url(#SVGID_120_);enable-background:new    ;}
	.st135{opacity:0.7;}
	.st136{opacity:0.7;fill:url(#SVGID_121_);enable-background:new    ;}
	.st137{opacity:0.8;fill:url(#SVGID_122_);enable-background:new    ;}
	.st138{opacity:0.8;}
	.st139{fill:url(#SVGID_123_);}
	.st140{fill:url(#SVGID_124_);}
	.st141{fill:url(#SVGID_125_);}
	.st142{opacity:0.5;fill:url(#SVGID_126_);enable-background:new    ;}
	.st143{opacity:0.7;fill:url(#SVGID_127_);enable-background:new    ;}
	.st144{fill:url(#SVGID_128_);}
	.st145{fill:url(#SVGID_129_);}
	.st146{fill:url(#SVGID_130_);}
	.st147{opacity:0.5;fill:url(#SVGID_131_);enable-background:new    ;}
	.st148{opacity:0.7;fill:url(#SVGID_132_);enable-background:new    ;}
	.st149{fill:url(#SVGID_133_);}
	.st150{fill:#475259;}
	.st151{fill:url(#SVGID_134_);}
	.st152{fill:url(#SVGID_135_);}
	.st153{fill:url(#SVGID_136_);}
	.st154{fill:url(#SVGID_137_);}
	.st155{fill:url(#SVGID_138_);}
	.st156{fill:url(#SVGID_139_);}
	.st157{fill:url(#SVGID_140_);}
	.st158{fill:url(#SVGID_141_);}
	.st159{fill:url(#SVGID_142_);}
	.st160{fill:url(#SVGID_143_);}
	.st161{fill:url(#SVGID_144_);}
	.st162{opacity:0.5;fill:url(#SVGID_145_);enable-background:new    ;}
	.st163{opacity:0.7;fill:url(#SVGID_146_);enable-background:new    ;}
	.st164{opacity:0.8;fill:url(#SVGID_147_);enable-background:new    ;}
	.st165{fill:url(#SVGID_148_);}
	.st166{fill:url(#SVGID_149_);}
	.st167{fill:url(#SVGID_150_);}
	.st168{fill:url(#SVGID_151_);}
	.st169{opacity:0.5;fill:url(#SVGID_152_);enable-background:new    ;}
	.st170{opacity:0.7;fill:url(#SVGID_153_);enable-background:new    ;}
	.st171{opacity:0.8;fill:url(#SVGID_154_);enable-background:new    ;}
	.st172{fill:url(#SVGID_155_);}
	.st173{fill:url(#SVGID_156_);}
	.st174{fill:url(#SVGID_157_);}
	.st175{fill:url(#SVGID_158_);}
	.st176{opacity:0.5;fill:url(#SVGID_159_);enable-background:new    ;}
	.st177{opacity:0.7;fill:url(#SVGID_160_);enable-background:new    ;}
	.st178{opacity:0.8;fill:url(#SVGID_161_);enable-background:new    ;}
	.st179{fill:url(#SVGID_162_);}
	.st180{fill:url(#SVGID_163_);}
	.st181{fill:url(#SVGID_164_);}
	.st182{fill:url(#SVGID_165_);}
	.st183{opacity:0.5;fill:url(#SVGID_166_);enable-background:new    ;}
	.st184{opacity:0.7;fill:url(#SVGID_167_);enable-background:new    ;}
	.st185{opacity:0.8;fill:url(#SVGID_168_);enable-background:new    ;}
	.st186{fill:url(#SVGID_169_);}
	.st187{fill:url(#SVGID_170_);}
</style>
<g id="Layer_1_7_">
	<g>
		<g>
			<path class="st125" d="M481.6,438.4c-6.4-6.4-14-9.5-22.9-9.5c-8.9,0-16.5,3.2-22.9,9.5c-6.4,6.4-9.5,14-9.5,22.9
				c0,8.9,3.2,17.2,9.5,22.9c6.4,6.4,14,9.5,22.9,9.5c8.9,0,16.5-3.2,22.9-9.5c6.4-6.4,9.5-14,9.5-22.9
				C490.5,452.4,487.3,444.8,481.6,438.4z M481,461.3c0,6.4-1.9,12.1-7,16.5c-4.4,4.4-9.5,6.4-15.9,6.4c-6.4,0-11.4-1.9-15.9-6.4
				c-4.4-4.4-7-9.5-7-16.5c0-6.4,2.5-12.1,6.4-16.5c4.4-4.4,10.2-6.4,16.5-6.4c6.4,0,11.4,1.9,16.5,6.4
				C479.1,449.2,481,454.9,481,461.3z"/>
			<path class="st125" d="M469.5,446.7c-3.2-2.5-7-3.8-11.4-3.8c-5.1,0-10.2,1.9-13.3,5.7c-3.8,3.8-5.7,8.3-5.7,13.3
				s1.9,9.5,5.7,13.3c3.8,3.8,8.3,5.7,13.3,5.7c4.4,0,8.3-1.3,11.4-3.8s5.1-5.7,5.7-9.5l0.6-1.3h-9.5v1.3c-0.6,1.3-1.3,2.5-2.5,3.2
				c-1.3,0.6-3.2,1.3-5.1,1.3c-2.5,0-5.1-1.3-6.4-3.2c-1.9-1.9-2.5-4.4-2.5-7c0-2.5,0.6-5.1,2.5-7c1.9-1.9,3.8-3.2,6.4-3.2
				c1.9,0,3.8,0.6,5.1,1.3c1.3,0.6,2.5,1.9,2.5,3.2v1.3h9.5l-0.6-1.3C474.6,452.4,472.7,449.2,469.5,446.7z"/>
		</g>
		<polygon class="st125" points="224,116.1 224.3,116.3 288.5,153.8 425.1,74.3 425.1,0 		"/>
		
			<linearGradient id="SVGID_2_" gradientUnits="userSpaceOnUse" x1="456.8388" y1="634.2518" x2="456.8388" y2="416.6183" gradientTransform="matrix(1 0 0 -1 0 634.2518)">
			<stop  offset="0" style="stop-color:#6AC083"/>
			<stop  offset="1" style="stop-color:#2AFFA3"/>
		</linearGradient>
		<polygon style="fill:url(#SVGID_2_);" points="425.1,217.3 456.8,217.3 489.2,217.3 489.2,35.6 425.1,0 424.4,73.1 		"/>
		<g>
			
				<linearGradient id="SVGID_3_" gradientUnits="userSpaceOnUse" x1="0" y1="296.2292" x2="447.3081" y2="296.2292" gradientTransform="matrix(1 0 0 -1 0 634.2518)">
				<stop  offset="0" style="stop-color:#6AC083"/>
				<stop  offset="1" style="stop-color:#2AFFA3"/>
			</linearGradient>
			<polygon class="st8" points="383.1,305 64.8,489.9 64.8,109.3 5.1,74.3 0,77.5 0,601.7 447.3,342.5 			"/>
		</g>
		
			<linearGradient id="SVGID_4_" gradientUnits="userSpaceOnUse" x1="5.083" y1="455.0744" x2="430.1528" y2="455.0744" gradientTransform="matrix(1 0 0 -1 0 634.2518)">
			<stop  offset="0" style="stop-color:#6AC083"/>
			<stop  offset="1" style="stop-color:#2AFFA3"/>
		</linearGradient>
		<polyline class="st9" points="5.1,74.3 430.2,320.9 427.6,245.3 69.3,37.5 5.1,74.3 		"/>
		<polyline class="st133" points="425.1,318.3 456.8,336.8 489.2,317.7 489.2,210.9 425.1,210.9 425.1,318.3 		"/>
		
			<linearGradient id="SVGID_5_" gradientUnits="userSpaceOnUse" x1="221.2793" y1="533.4805" x2="436.1577" y2="571.3696" gradientTransform="matrix(1 0 0 -1 0 634.2518)">
			<stop  offset="0.5128" style="stop-color:#47525A;stop-opacity:0"/>
			<stop  offset="1" style="stop-color:#47525A"/>
		</linearGradient>
		<polygon style="opacity:0.5;fill:url(#SVGID_5_);enable-background:new    ;" points="425.1,0 224,116.1 224.3,116.3 288.5,153.8 
			288.5,153.8 424.4,74.7 		"/>
		<g class="st135">
			
				<linearGradient id="SVGID_6_" gradientUnits="userSpaceOnUse" x1="71.5975" y1="6.4867" x2="241.6844" y2="473.7963" gradientTransform="matrix(1 0 0 -1 0 634.2518)">
				<stop  offset="0.5128" style="stop-color:#47525A;stop-opacity:0"/>
				<stop  offset="1" style="stop-color:#47525A"/>
			</linearGradient>
			<polygon style="opacity:0.7;fill:url(#SVGID_6_);enable-background:new    ;" points="383.1,305 64.8,489.9 64.8,109.3 5.1,74.3 
				0,77.5 0,601.7 447.3,342.5 			"/>
		</g>
		
			<linearGradient id="SVGID_8_" gradientUnits="userSpaceOnUse" x1="412.8555" y1="644.5007" x2="272.6088" y2="477.3606" gradientTransform="matrix(1 0 0 -1 0 634.2518)">
			<stop  offset="0.5128" style="stop-color:#47525A;stop-opacity:0"/>
			<stop  offset="1" style="stop-color:#47525A"/>
		</linearGradient>
		<polygon style="opacity:0.8;fill:url(#SVGID_8_);enable-background:new    ;" points="224,116.1 224.3,116.3 288.5,153.8 
			288.5,153.8 424.4,74.7 425.1,0 		"/>
		<g class="st138">
			
				<linearGradient id="SVGID_9_" gradientUnits="userSpaceOnUse" x1="223.6541" y1="32.5461" x2="223.6541" y2="559.9122" gradientTransform="matrix(1 0 0 -1 0 634.2518)">
				<stop  offset="0.5128" style="stop-color:#47525A;stop-opacity:0"/>
				<stop  offset="1" style="stop-color:#47525A"/>
			</linearGradient>
			<polygon class="st16" points="383.1,305 64.8,489.9 64.8,109.3 5.1,74.3 0,77.5 0,601.7 447.3,342.5 			"/>
		</g>
	</g>
</g>
<g>
	<g>
		<path class="st4" d="M614.8,181.2l3.3,11.7h0.6l29.5-82.3h12.2l-42.3,112.9c-2.8,6.7-5.6,12.2-10,16.7c-3.9,4.4-10,6.7-17.8,6.7
			c-1.1,0-2.8,0-4.4-0.6c-1.7,0-3.3-0.6-3.9-1.1l1.1-8.9c0.6,0,1.7,0,3.3,0.6c1.7,0,2.8,0,3.3,0c4.4,0,8.3-1.7,11.1-5
			c2.8-3.3,5-7.8,7.2-12.8l5-13.3l-37.8-96.2h12.2L614.8,181.2z"/>
		<path class="st4" d="M875.6,182.8c0-4.4-1.7-8.3-5.6-11.7c-3.9-3.3-10.6-6.1-20-8.3c-11.7-2.8-20-6.1-25.6-10
			c-5.6-3.9-8.3-10-8.3-17.8c0-7.2,3.3-13.9,9.5-18.9s14.5-7.8,25-7.8c11.1,0,19.5,2.8,26.1,8.3c6.7,5.6,9.5,12.2,8.9,20.6v0.6h-10
			c0-5.6-2.2-10-6.7-13.9c-4.4-3.9-10.6-6.1-18.4-6.1c-7.8,0-13.9,1.7-17.8,5c-3.9,3.3-6.1,7.2-6.1,11.7c0,4.4,1.7,8.3,5,11.1
			c3.3,2.8,10,5.6,20,7.8c11.7,2.8,20,6.1,26.1,10.6c5.6,4.4,8.9,10.6,8.9,18.4c0,8.3-3.3,14.5-10,19.5c-6.7,5-15,7.8-26.1,7.8
			c-11.7,0-21.1-2.8-27.8-8.3c-6.7-5.6-10-12.2-9.5-20v-0.6h10c0.6,7.2,3.3,12.2,8.3,15c5.6,3.3,11.7,5,18.9,5
			c7.8,0,13.9-1.7,18.4-5C873.4,191.7,875.6,187.3,875.6,182.8z"/>
		<path class="st4" d="M1003,160.6c0-15-3.3-27.3-10-36.7c-6.7-8.9-15.6-13.9-26.7-13.9h-5c-11.1,0-19.5,3.9-26.1,12.2V110h-10.6
			v48.4v1.7v86.8h10.6v-48.9c6.7,8.3,15,12.8,26.1,12.8h5c11.1,0,20.6-4.4,26.7-12.8c6.7-8.9,10-20,10-35V160.6
			C1003,161.2,1003,161.2,1003,160.6L1003,160.6z M984.6,191.2c-4.4,6.1-10.6,9.5-18.9,10.6c0,0-1.7,0-2.8,0s-2.2,0-2.2,0
			c-7.8-0.6-14.5-4.4-18.4-11.1c-5-7.8-7.2-17.2-7.2-28.9v-2.8c0-11.7,2.2-21.1,7.2-28.4c4.4-6.1,10.6-9.5,18.9-10.6
			c0,0,1.7,0,2.8,0s2.2,0,2.2,0c7.8,0.6,14.5,4.4,18.4,11.1c5,7.8,7.2,17.2,7.2,28.9l0,0v2.8C991.8,174.5,989.6,184,984.6,191.2z"/>
	</g>
	<path class="st4" d="M763.3,110v59.5v2.2l0,0c0,14.5-11.7,26.7-26.7,26.7c-14.5,0-26.7-11.7-26.7-26.7l0,0v-2.8v-59h-10.6v61.7
		c0,0,0,0,0,0.6l0,0l0,0c0,20.6,16.7,37.3,37.3,37.3s37.3-16.7,37.3-36.7l0,0v-62.3h-10.6V110z"/>
</g>
<g>
	<path class="st58" d="M632.4,339.3c0,11.1-2.5,19.9-7.5,26.4c-5,6.6-11.9,9.9-20.7,9.9c-5.2,0-9.7-1-13.6-2.9
		c-3.9-2-7.1-4.8-9.5-8.4v38.3h-8.2V300.4h6.9l1,11.5c2.5-4.1,5.6-7.3,9.5-9.5c3.9-2.2,8.5-3.3,13.8-3.3c8.9,0,15.8,3.5,20.8,10.6
		c5,7.1,7.5,16.5,7.5,28.3V339.3z M624.2,337.8c0-9.4-1.9-17-5.6-23c-3.7-5.9-9.2-8.9-16.4-8.9c-5.5,0-10,1.3-13.4,3.9
		c-3.4,2.6-6,6-7.7,10.2v35.5c1.9,4.1,4.6,7.2,8.1,9.6c3.5,2.3,7.9,3.5,13.2,3.5c7.1,0,12.6-2.7,16.3-8.1c3.7-5.4,5.6-12.5,5.6-21.4
		V337.8z"/>
	<path class="st58" d="M678.5,375.6c-9.2,0-16.9-3.4-23-10.2c-6.1-6.8-9.2-15.5-9.2-25.9v-3.8c0-10.6,3-19.3,9.1-26.3
		c6.1-7,13.4-10.4,22.1-10.4c9.1,0,16.2,2.9,21.4,8.6c5.2,5.7,7.8,13.4,7.8,22.9v7h-52.1v2c0,8.3,2.2,15.3,6.6,20.8
		c4.4,5.6,10.2,8.4,17.4,8.4c5.1,0,9.4-0.7,13-2.1c3.6-1.4,6.7-3.4,9.2-6.1l3.5,5.6c-2.8,2.9-6.3,5.2-10.5,7
		C689.4,374.8,684.4,375.6,678.5,375.6z M677.5,306c-6.1,0-11.1,2.3-15.2,6.9c-4.1,4.6-6.5,10.4-7.2,17.3l0.1,0.3h43.3v-2
		c0-6.4-1.9-11.8-5.7-16.1C689,308.1,683.9,306,677.5,306z"/>
	<path class="st58" d="M756.8,307.4l-6.1-0.4c-5.1,0-9.4,1.4-12.7,4.3c-3.3,2.9-5.7,6.9-7.1,11.9v51h-8.2v-73.8h7.2l1,12.3v0.8
		c2.1-4.5,5-8.1,8.6-10.6c3.6-2.5,7.9-3.8,12.8-3.8c1,0,2.1,0.1,3,0.2c1,0.2,1.8,0.3,2.4,0.5L756.8,307.4z"/>
	<path class="st58" d="M814.6,355.4c0-3.4-1.4-6.5-4.3-9.1c-2.8-2.6-8-4.7-15.4-6.3c-8.8-1.9-15.3-4.4-19.6-7.6
		c-4.2-3.1-6.3-7.6-6.3-13.3c0-5.6,2.4-10.4,7.1-14.3c4.8-3.9,11-5.8,18.9-5.8c8.3,0,14.9,2.1,19.8,6.2c4.9,4.1,7.2,9.3,7,15.5
		l-0.1,0.4h-7.6c0-4-1.7-7.6-5.2-10.6c-3.4-3-8.1-4.5-13.9-4.5c-6,0-10.4,1.3-13.4,3.8c-3,2.6-4.5,5.6-4.5,9c0,3.4,1.3,6.2,3.9,8.4
		c2.6,2.2,7.7,4.2,15.4,5.8c8.8,2,15.4,4.6,19.7,8c4.4,3.4,6.6,8,6.6,13.9c0,6.2-2.5,11.1-7.5,15c-5,3.8-11.6,5.7-19.8,5.7
		c-9,0-16-2.1-21.1-6.4c-5.1-4.3-7.5-9.4-7.3-15.3l0.1-0.4h7.5c0.3,5.3,2.5,9.2,6.5,11.6c4,2.4,8.8,3.6,14.2,3.6
		c5.9,0,10.6-1.3,14-3.9C812.9,362.2,814.6,359.1,814.6,355.4z"/>
	<path class="st58" d="M837,336.2c0-10.9,3-19.8,8.9-26.8c6-7,13.9-10.4,23.7-10.4c9.9,0,17.8,3.5,23.8,10.4c6,7,8.9,15.9,8.9,26.8
		v2.3c0,10.9-3,19.9-8.9,26.8c-5.9,6.9-13.8,10.4-23.6,10.4c-9.9,0-17.9-3.5-23.8-10.4c-6-6.9-8.9-15.9-8.9-26.8V336.2z
		 M845.2,338.4c0,8.5,2.2,15.7,6.5,21.5c4.3,5.8,10.4,8.7,18.1,8.7c7.6,0,13.6-2.9,17.9-8.7c4.3-5.8,6.5-13,6.5-21.5v-2.3
		c0-8.4-2.2-15.5-6.6-21.4s-10.4-8.8-18-8.8c-7.6,0-13.6,2.9-18,8.8c-4.3,5.9-6.5,13-6.5,21.4V338.4z"/>
	<path class="st58" d="M926.6,300.4l0.8,12.9c2.4-4.5,5.6-8.1,9.6-10.5c4-2.5,8.8-3.7,14.3-3.7c8,0,14.1,2.4,18.3,7.3
		c4.2,4.9,6.3,12.5,6.3,22.9v45h-8.2v-45c0-8.5-1.6-14.5-4.7-18c-3.2-3.5-7.7-5.3-13.5-5.3c-5.7,0-10.4,1.5-14,4.5
		c-3.6,3-6.2,7.1-7.8,12.1v51.6h-8.2v-73.8H926.6z"/>
	<path class="st58" d="M1043.9,374.2c-0.5-2.5-0.9-4.7-1.2-6.5c-0.2-1.8-0.3-3.7-0.3-5.5c-2.7,3.9-6.4,7.1-10.9,9.6
		c-4.6,2.5-9.7,3.8-15.4,3.8c-7.2,0-12.8-1.9-16.8-5.7c-4-3.8-6-8.9-6-15.4c0-6.8,2.9-12.3,8.8-16.4c5.9-4.1,13.8-6.1,23.9-6.1h16.3
		v-9.1c0-5.3-1.7-9.4-5.1-12.4c-3.4-3-8.1-4.5-14.2-4.5c-5.7,0-10.4,1.4-14.2,4.3c-3.8,2.9-5.6,6.4-5.6,10.5l-7.5-0.1l-0.1-0.4
		c-0.3-5.5,2.2-10.4,7.5-14.8c5.3-4.3,12-6.5,20.2-6.5c8.1,0,14.7,2.1,19.7,6.2c5,4.1,7.4,10.1,7.4,17.8v36.3c0,2.6,0.1,5.1,0.4,7.6
		c0.3,2.5,0.8,4.9,1.5,7.3H1043.9z M1017.1,368.4c5.9,0,11.1-1.4,15.6-4.1c4.5-2.8,7.8-6.3,9.8-10.5v-15.4H1026
		c-7.4,0-13.3,1.6-17.8,4.7c-4.4,3.2-6.7,7.1-6.7,11.8c0,4,1.4,7.3,4.1,9.8C1008.4,367.1,1012.2,368.4,1017.1,368.4z"/>
	<path class="st58" d="M1081.5,374.2h-8.1V267.7h8.1V374.2z"/>
	<path class="st58" d="M1113.2,279.2h-8.1v-11.5h8.1V279.2z M1113.2,374.2h-8.1v-73.8h8.1V374.2z"/>
	<path class="st58" d="M1141.2,367.2h48v7h-58.1v-6.1l44.5-60.8h-43.1v-7h53.4v6L1141.2,367.2z"/>
	<path class="st58" d="M1250.9,374.2c-0.5-2.5-0.9-4.7-1.2-6.5c-0.2-1.8-0.3-3.7-0.3-5.5c-2.7,3.9-6.4,7.1-10.9,9.6
		c-4.6,2.5-9.7,3.8-15.4,3.8c-7.2,0-12.8-1.9-16.8-5.7c-4-3.8-6-8.9-6-15.4c0-6.8,2.9-12.3,8.8-16.4c5.9-4.1,13.8-6.1,23.9-6.1h16.3
		v-9.1c0-5.3-1.7-9.4-5.1-12.4c-3.4-3-8.1-4.5-14.2-4.5c-5.7,0-10.4,1.4-14.2,4.3c-3.8,2.9-5.6,6.4-5.6,10.5l-7.5-0.1l-0.1-0.4
		c-0.3-5.5,2.2-10.4,7.5-14.8c5.3-4.3,12-6.5,20.2-6.5c8.1,0,14.7,2.1,19.7,6.2c5,4.1,7.4,10.1,7.4,17.8v36.3c0,2.6,0.1,5.1,0.4,7.6
		c0.3,2.5,0.8,4.9,1.5,7.3H1250.9z M1224.1,368.4c5.9,0,11.1-1.4,15.6-4.1c4.5-2.8,7.8-6.3,9.8-10.5v-15.4H1233
		c-7.4,0-13.3,1.6-17.8,4.7c-4.4,3.2-6.7,7.1-6.7,11.8c0,4,1.4,7.3,4.1,9.8C1215.4,367.1,1219.2,368.4,1224.1,368.4z"/>
	<path class="st58" d="M1292.2,281.5v18.9h16.2v6.7h-16.2v48.1c0,4.8,0.9,8.2,2.6,10.3c1.8,2,4.1,3,7,3c1.3,0,2.6-0.1,3.9-0.2
		c1.3-0.1,2.7-0.3,4.3-0.6l1.2,6.1c-1.4,0.6-3,1-5,1.4c-2,0.3-3.9,0.5-5.9,0.5c-5.2,0-9.2-1.6-12.1-4.9c-2.9-3.3-4.3-8.5-4.3-15.6
		v-48.1h-12.8v-6.7h12.8v-18.9H1292.2z"/>
	<path class="st58" d="M1334.9,279.2h-8.1v-11.5h8.1V279.2z M1334.9,374.2h-8.1v-73.8h8.1V374.2z"/>
	<path class="st58" d="M1352.9,336.2c0-10.9,3-19.8,8.9-26.8c6-7,13.9-10.4,23.7-10.4c9.9,0,17.8,3.5,23.8,10.4
		c6,7,8.9,15.9,8.9,26.8v2.3c0,10.9-3,19.9-8.9,26.8c-5.9,6.9-13.8,10.4-23.6,10.4c-9.9,0-17.9-3.5-23.8-10.4
		c-6-6.9-8.9-15.9-8.9-26.8V336.2z M1361.1,338.4c0,8.5,2.2,15.7,6.5,21.5c4.3,5.8,10.4,8.7,18.1,8.7c7.6,0,13.6-2.9,17.9-8.7
		c4.3-5.8,6.5-13,6.5-21.5v-2.3c0-8.4-2.2-15.5-6.6-21.4s-10.4-8.8-18-8.8c-7.6,0-13.6,2.9-18,8.8c-4.3,5.9-6.5,13-6.5,21.4V338.4z"
		/>
	<path class="st58" d="M1442.5,300.4l0.8,12.9c2.4-4.5,5.6-8.1,9.6-10.5c4-2.5,8.8-3.7,14.3-3.7c8,0,14.1,2.4,18.3,7.3
		c4.2,4.9,6.3,12.5,6.3,22.9v45h-8.2v-45c0-8.5-1.6-14.5-4.7-18c-3.2-3.5-7.7-5.3-13.5-5.3c-5.7,0-10.4,1.5-14,4.5
		c-3.6,3-6.2,7.1-7.8,12.1v51.6h-8.2v-73.8H1442.5z"/>
	<path class="st58" d="M600.7,493.6c-9.2,0-16.9-3.4-23-10.2c-6.1-6.8-9.2-15.5-9.2-25.9v-3.8c0-10.6,3-19.3,9.1-26.3
		c6.1-7,13.4-10.4,22.1-10.4c9.1,0,16.2,2.9,21.4,8.6c5.2,5.7,7.8,13.4,7.8,22.9v7h-52.1v2c0,8.3,2.2,15.3,6.6,20.8
		c4.4,5.6,10.2,8.4,17.4,8.4c5.1,0,9.4-0.7,13-2.1c3.6-1.4,6.7-3.4,9.2-6.1l3.5,5.6c-2.8,2.9-6.3,5.2-10.5,7
		C611.6,492.7,606.6,493.6,600.7,493.6z M599.7,423.9c-6.1,0-11.1,2.3-15.2,6.9c-4.1,4.6-6.5,10.4-7.2,17.3l0.1,0.3h43.3v-2
		c0-6.4-1.9-11.8-5.7-16.1C611.2,426.1,606.1,423.9,599.7,423.9z"/>
	<path class="st58" d="M652.2,418.3l0.8,12.9c2.4-4.5,5.6-8.1,9.6-10.5c4-2.5,8.8-3.7,14.3-3.7c8,0,14.1,2.4,18.3,7.3
		c4.2,4.9,6.3,12.5,6.3,22.9v45h-8.2v-45c0-8.5-1.6-14.5-4.7-18c-3.2-3.5-7.7-5.3-13.5-5.3c-5.7,0-10.4,1.5-14,4.5
		c-3.6,3-6.2,7.1-7.8,12.1v51.6H645v-73.8H652.2z"/>
	<path class="st58" d="M719.6,455.8c0-11.8,2.5-21.2,7.5-28.3c5-7.1,12-10.6,21-10.6c5.2,0,9.8,1.1,13.6,3.4c3.8,2.3,7,5.5,9.5,9.7
		l1-11.8h6.9v72.9c0,9.5-2.6,17-7.9,22.5c-5.3,5.5-12.6,8.3-21.9,8.3c-3.5,0-7.3-0.4-11.3-1.3c-4-0.9-7.5-2-10.5-3.5l2.1-6.9
		c2.9,1.5,6,2.6,9.2,3.3c3.2,0.8,6.7,1.1,10.4,1.1c7.2,0,12.6-2.1,16.3-6.2c3.7-4.1,5.5-9.9,5.5-17.3v-9.3c-2.5,3.7-5.7,6.6-9.5,8.6
		s-8.3,3-13.4,3c-8.9,0-15.8-3.3-20.9-9.9c-5-6.6-7.5-15.4-7.5-26.4V455.8z M727.8,457.3c0,8.9,1.8,16,5.5,21.4
		c3.6,5.3,9.1,8,16.2,8c5.3,0,9.7-1.2,13.2-3.7c3.5-2.4,6.2-5.8,8.2-10.1v-34.3c-1.8-4.3-4.4-7.9-7.8-10.6
		c-3.4-2.8-7.9-4.1-13.4-4.1c-7.2,0-12.6,3-16.3,8.9s-5.5,13.6-5.5,23V457.3z"/>
	<path class="st58" d="M809.8,397.1h-8.1v-11.5h8.1V397.1z M809.8,492.2h-8.1v-73.8h8.1V492.2z"/>
	<path class="st58" d="M839.6,418.3l0.8,12.9c2.4-4.5,5.6-8.1,9.6-10.5c4-2.5,8.8-3.7,14.3-3.7c8,0,14.1,2.4,18.3,7.3
		c4.2,4.9,6.3,12.5,6.3,22.9v45h-8.2v-45c0-8.5-1.6-14.5-4.7-18c-3.2-3.5-7.7-5.3-13.5-5.3c-5.7,0-10.4,1.5-14,4.5
		c-3.6,3-6.2,7.1-7.8,12.1v51.6h-8.2v-73.8H839.6z"/>
	<path class="st58" d="M937.9,493.6c-9.2,0-16.9-3.4-23-10.2c-6.1-6.8-9.2-15.5-9.2-25.9v-3.8c0-10.6,3-19.3,9.1-26.3
		c6.1-7,13.4-10.4,22.1-10.4c9.1,0,16.2,2.9,21.4,8.6c5.2,5.7,7.8,13.4,7.8,22.9v7h-52.1v2c0,8.3,2.2,15.3,6.6,20.8
		c4.4,5.6,10.2,8.4,17.4,8.4c5.1,0,9.4-0.7,13-2.1c3.6-1.4,6.7-3.4,9.2-6.1l3.5,5.6c-2.8,2.9-6.3,5.2-10.5,7
		C948.9,492.7,943.8,493.6,937.9,493.6z M936.9,423.9c-6.1,0-11.1,2.3-15.2,6.9c-4.1,4.6-6.5,10.4-7.2,17.3l0.1,0.3h43.3v-2
		c0-6.4-1.9-11.8-5.7-16.1C948.5,426.1,943.4,423.9,936.9,423.9z"/>
</g>
</svg>
