<?xml version="1.0" encoding="utf-8"?>
<!-- Generator: Adobe Illustrator 22.1.0, SVG Export Plug-In . SVG Version: 6.00 Build 0)  -->
<svg version="1.1" id="Layer_1" xmlns="http://www.w3.org/2000/svg" xmlns:xlink="http://www.w3.org/1999/xlink" x="0px" y="0px"
	 viewBox="0 0 750 500" style="enable-background:new 0 0 750 500;" xml:space="preserve">
<style type="text/css">
	.st0{fill:url(#SVGID_1_);}
	.st1{fill:url(#SVGID_2_);}
	.st2{fill:url(#SVGID_3_);}
	.st3{fill:url(#SVGID_4_);}
	.st4{fill:url(#SVGID_5_);}
	.st5{fill:url(#SVGID_6_);}
	.st6{fill:url(#SVGID_7_);}
</style>
<g id="Layer_4">
</g>
<g id="Layer_1_1_">
	<g>
		<g>
			<g>
				
					<linearGradient id="SVGID_1_" gradientUnits="userSpaceOnUse" x1="260.4" y1="90.05" x2="489.7" y2="90.05" gradientTransform="matrix(1 0 0 -1 0 500)">
					<stop  offset="0" style="stop-color:#4275F4"/>
					<stop  offset="0.4962" style="stop-color:#506FDA"/>
					<stop  offset="1" style="stop-color:#5C6AC4"/>
				</linearGradient>
				<path class="st0" d="M368,393.6c-1.8-0.7-4.4-1.3-7.8-1.3c-4.2,0-7.9,1-10.6,3c-2.5,1.7-3.9,4.1-3.9,7.6c0,2.6,1,4.5,2.5,6
					c2.5,2.5,6.2,3.9,9.3,5.7c2.2,1.3,3.9,2.5,3.9,4.6c0,1.7-0.7,2.9-1.8,3.6c-1.3,0.9-3.1,1.2-4.8,1.2c-2.9,0-4.9-0.8-6.5-1.5
					c-1.2-0.5-2.3-1.1-3.3-1.1c-1.7,0-3.2,1.1-3.2,2.9c0,1.6,1.2,2.8,2.9,3.6c2.5,1.3,5.8,1.9,9.7,1.9c4.3,0,7.9-1,10.5-2.9
					c2.8-1.9,4.3-4.8,4.3-8.4c0-2.9-1.2-5.1-2.9-6.6c-2.5-2.4-5.7-3.6-8.6-5c-2.5-1.3-4-2.5-4-4.6c0-1.3,0.7-2.3,1.7-2.9
					c1.3-0.8,3.2-1.1,4.6-1.1c2.4,0,3.6,0.4,5.1,0.9c1.1,0.4,2,0.7,2.8,0.7c1.7,0,3.1-1.3,3.1-3.1
					C370.7,395.7,369.9,394.5,368,393.6z M336.1,392.5c-1.9,0-3.6,1.1-4,3.7l-2.5,17.8c-0.4,2.6-1.2,4.8-2.5,6.4
					c-1.6,1.8-3.8,2.8-7,2.8c-2.3,0-4.3-0.6-5.4-2c-0.9-1.1-1.3-2.7-1.3-4.6c0-1,0.2-2.9,0.4-4.2l1.8-13.4c0.2-0.9,0.2-1.7,0.2-2.8
					c0-2.7-1.7-3.8-3.9-3.8c-1.9,0-3.6,1.1-4,3.7l-2.2,16.4c-0.2,1.6-0.5,3.6-0.5,5c0,4,1.1,6.9,3.2,8.9c2.5,2.3,6.2,3.3,11.2,3.3
					c5.6,0,9.8-1.3,12.8-4.2c2.8-2.5,4.6-6.3,5.2-11.1l2.2-15.5c0.1-0.9,0.2-1.7,0.2-2.8C340.1,393.6,338.3,392.5,336.1,392.5z
					 M298.4,392.4c-1.6,0-3,0.8-3.6,2.3L282,421.4h-0.2l-6.3-24.9c-0.6-2.5-1.7-4.1-4.3-4.1c-2.8,0-4.4,1.6-4.4,4.3
					c0,0.8,0.3,1.8,0.6,2.5l9.4,32.3c-1.6,2.5-3.3,4.6-4.9,6c-2.6,2.2-5.2,2.8-7.7,2.8c-2.1,0-3.8,1.6-3.8,3.8
					c0,2.2,1.5,3.6,3.8,3.6c4,0,8.2-1,12.3-4.7c3.4-2.9,6.1-7,8.6-11.9l16.7-32.8c0.4-0.7,0.6-1.4,0.6-2.3
					C302.3,393.9,300.6,392.4,298.4,392.4z M425.1,371.8c-2.7,0-4.9,2.1-4.9,4.8c0,2.7,2.2,4.8,4.9,4.8c2.7,0,4.8-2.1,4.8-4.8
					C430,374,427.8,371.8,425.1,371.8z M485.8,392.7c-1.6,0-3,0.8-3.6,2.3l-12.8,26.7h-0.2l-6.3-24.9c-0.2-0.7-0.4-1.4-0.7-1.9
					c-0.1-0.1-0.1-0.3-0.2-0.4c-0.6-0.9-1.5-1.4-2.6-1.4h-2.7H446l0.6-3.8c0.4-2.4,1-4.4,2.2-5.9c1-1.3,2.6-2,4.7-2
					c2.4,0,3.7,0.6,5,1.2c0.7,0.3,1.3,0.6,2.1,0.6c1.9,0,3.3-1.6,3.3-3.6c0-1.5-0.9-2.5-2.5-3.4c-2.1-1.1-5.2-1.7-8.1-1.7
					c-4.4,0-7.7,1.3-10.1,3.4c-2.3,2.2-3.7,5.4-4.4,9.2l-0.9,5.9h-3.6c-1.8,0-3.3,1.5-3.3,3.3s1.3,3.2,3.2,3.2h2.6l-5.8,41.7
					c-0.1,1-0.2,2-0.2,2.9c0,2.7,1.8,3.8,4,3.8c1.9,0,3.6-1.1,4-3.6l6.2-44.8h9.7c0,0,0,0,0,0.1l9.4,32.3c-1.6,2.5-3.3,4.6-4.9,6
					c-2.6,2.2-5.2,2.8-7.7,2.8c-2.1,0-3.8,1.6-3.8,3.8c0,2.2,1.5,3.6,3.8,3.6c4,0,8.2-1,12.3-4.7c3.4-2.9,6.1-7,8.6-11.9l16.7-32.8
					c0.4-0.7,0.6-1.4,0.6-2.3C489.6,394.2,488,392.7,485.8,392.7z M422.2,392.5c-2,0-3.6,1.1-4,3.7l-3.8,27c-0.2,1.1-0.2,2-0.2,3
					c0,2.7,1.8,3.7,3.9,3.7c2,0,3.7-1,4.1-3.6l3.7-27c0.2-1,0.2-1.9,0.2-2.9C426.1,393.6,424.3,392.5,422.2,392.5z M395.3,392.4
					c-3.7,0-6.8,1.2-9.2,2.7c-0.3-1.7-1.8-2.5-3.5-2.5s-3.4,1-3.7,3.3l-6.3,45.2c-0.2,1.1-0.3,2-0.3,2.9c0,2.7,1.8,3.8,4,3.8
					c1.9,0,3.6-1.1,4-3.6l2.1-14.8c1.3,0.2,2.7,0.3,3.6,0.3c6.3,0,12.2-1.9,16.4-5.6c4-3.6,6.6-9,6.6-16.3c0-4.8-1.4-8.7-4-11.5
					C402.5,393.8,399.2,392.4,395.3,392.4z M396.7,419.4c-2.4,2.5-5.9,3.7-9.8,3.7c-0.9,0-2.4-0.1-3.6-0.3l2.9-20.9
					c1.7-1.4,4.2-2.6,6.8-2.6c2.5,0,4.3,1,5.6,2.5c1.3,1.7,2.1,4,2.1,6.6C400.7,413,399.3,416.9,396.7,419.4z"/>
			</g>
		</g>
		
			<linearGradient id="SVGID_2_" gradientUnits="userSpaceOnUse" x1="431.9691" y1="414.7783" x2="470.8272" y2="373.9376" gradientTransform="matrix(1 0 0 -1 0 500)">
			<stop  offset="0.2135" style="stop-color:#556DD1"/>
			<stop  offset="0.2595" style="stop-color:#556DD1"/>
			<stop  offset="0.5005" style="stop-color:#526ED6"/>
			<stop  offset="0.7892" style="stop-color:#4A71E5"/>
			<stop  offset="1" style="stop-color:#4275F4"/>
		</linearGradient>
		<path class="st1" d="M399,135.1c-5.9,0-11.7-3-14.9-8.5c-4.9-8.2-2.2-18.8,6.1-23.7L472,54.4c8.2-4.9,18.8-2.2,23.7,6.1
			c4.9,8.2,2.2,18.8-6.1,23.7l-81.8,48.5C405.1,134.3,402,135.1,399,135.1z"/>
		
			<linearGradient id="SVGID_3_" gradientUnits="userSpaceOnUse" x1="339.7317" y1="206.9222" x2="430.1364" y2="263.4912" gradientTransform="matrix(1 0 0 -1 0 500)">
			<stop  offset="0" style="stop-color:#2CE5B5"/>
			<stop  offset="0.3383" style="stop-color:#2FD8BC"/>
			<stop  offset="0.9655" style="stop-color:#36B5D0"/>
			<stop  offset="1" style="stop-color:#36B3D1"/>
		</linearGradient>
		<path class="st2" d="M269.3,352.3c-5.9,0-11.6-3-14.9-8.4c-4.9-8.2-2.3-18.8,5.9-23.8L429,219c8.2-4.9,18.8-2.3,23.8,5.9
			c4.9,8.2,2.3,18.8-5.9,23.8L278.1,349.8C275.4,351.5,272.3,352.3,269.3,352.3z"/>
		
			<linearGradient id="SVGID_4_" gradientUnits="userSpaceOnUse" x1="314.1718" y1="360.15" x2="426.2949" y2="360.15" gradientTransform="matrix(1 0 0 -1 0 500)">
			<stop  offset="0" style="stop-color:#4275F4"/>
			<stop  offset="0.4962" style="stop-color:#506FDA"/>
			<stop  offset="1" style="stop-color:#5C6AC4"/>
		</linearGradient>
		<path class="st3" d="M480.8,51.9c-3.7,0-7.1,1.1-9.9,3.1l0,0l-7.4,4.4v30v10.3v80.9L277.9,72.8c-8.3-4.8-18.9-2-23.7,6.3
			s-2,18.9,6.3,23.7L472,225.6c0,0,0,0,0.1,0c0.7,0.4,1.3,0.7,2,1l0,0c0.3,0.1,0.6,0.2,0.9,0.3c0.1,0,0.2,0.1,0.2,0.1
			c0.3,0.1,0.5,0.2,0.8,0.2c0.1,0,0.1,0,0.2,0.1c0.3,0.1,0.6,0.2,1,0.2c0.1,0,0.3,0,0.4,0.1c0.2,0,0.4,0.1,0.6,0.1s0.3,0,0.5,0.1
			c0.2,0,0.3,0,0.5,0s0.4,0,0.5,0s0.3,0,0.4,0c0.2,0,0.3,0,0.5,0c0.1,0,0.2,0,0.4,0c0.2,0,0.4,0,0.6,0c0.1,0,0.2,0,0.4,0
			c0.2,0,0.5,0,0.7-0.1c0.1,0,0.2,0,0.3,0c0.3,0,0.6-0.1,0.9-0.2c0,0,0,0,0.1,0c0.7-0.1,1.4-0.3,2.1-0.6l0,0c0.3-0.1,0.7-0.2,1-0.4
			l0,0c0.7-0.3,1.3-0.6,1.9-0.9c0.1,0,0.2-0.1,0.2-0.1c0.2-0.1,0.4-0.2,0.6-0.4c0.1-0.1,0.2-0.1,0.3-0.2c0.2-0.1,0.4-0.3,0.6-0.4
			c0.2-0.1,0.4-0.3,0.6-0.4c0.1-0.1,0.2-0.2,0.4-0.3c0.1-0.1,0.3-0.2,0.4-0.4c0.1-0.1,0.2-0.2,0.3-0.3c0.1-0.1,0.3-0.3,0.4-0.4
			c0.2-0.2,0.4-0.4,0.6-0.6c0.1-0.1,0.2-0.2,0.3-0.3c0.1-0.2,0.3-0.3,0.4-0.5c0.1-0.1,0.2-0.2,0.2-0.3c0.4-0.6,0.8-1.2,1.2-1.8l0,0
			v-0.1c0.1-0.2,0.2-0.4,0.4-0.7c0,0,0-0.1,0.1-0.1c0.1-0.2,0.2-0.4,0.3-0.7c0,0,0-0.1,0.1-0.1c0.1-0.2,0.2-0.4,0.3-0.6
			c0-0.1,0.1-0.1,0.1-0.2c0.1-0.2,0.1-0.4,0.2-0.6c0-0.1,0.1-0.2,0.1-0.3c0.1-0.2,0.1-0.3,0.1-0.5c0-0.1,0.1-0.3,0.1-0.4
			c0-0.1,0.1-0.3,0.1-0.4c0-0.2,0.1-0.3,0.1-0.5c0-0.1,0-0.2,0.1-0.3c0-0.2,0.1-0.4,0.1-0.6c0-0.1,0-0.2,0-0.2
			c0-0.2,0.1-0.4,0.1-0.7c0-0.1,0-0.1,0-0.2c0-0.2,0-0.5,0.1-0.7c0-0.1,0-0.1,0-0.2c0-0.2,0-0.5,0-0.7v-0.1V69.2
			C498.1,59.7,490.3,51.9,480.8,51.9z"/>
		
			<linearGradient id="SVGID_5_" gradientUnits="userSpaceOnUse" x1="269.2" y1="147.7" x2="269.2" y2="429.5" gradientTransform="matrix(1 0 0 -1 0 500)">
			<stop  offset="2.702703e-02" style="stop-color:#2CE5B5"/>
			<stop  offset="0.1188" style="stop-color:#30D2C0"/>
			<stop  offset="0.3399" style="stop-color:#38AAD6"/>
			<stop  offset="0.5419" style="stop-color:#3D8DE7"/>
			<stop  offset="0.7163" style="stop-color:#417BF0"/>
			<stop  offset="0.8432" style="stop-color:#4275F4"/>
		</linearGradient>
		<path class="st4" d="M286.5,304.4v-20V87.8c0-9.6-7.8-17.3-17.3-17.3c-9.6,0-17.3,7.8-17.3,17.3V335c0,9.6,7.8,17.3,17.3,17.3
			c3.7,0,7.2-1.2,10-3.2l0,0l7.3-4.3V304.4z"/>
		
			<linearGradient id="SVGID_6_" gradientUnits="userSpaceOnUse" x1="504.2381" y1="405.5246" x2="456.6566" y2="374.861" gradientTransform="matrix(1 0 0 -1 0 500)">
			<stop  offset="0" style="stop-color:#4A84FF"/>
			<stop  offset="0.3997" style="stop-color:#467CF9;stop-opacity:0.6003"/>
			<stop  offset="1" style="stop-color:#4275F4;stop-opacity:0"/>
		</linearGradient>
		<path class="st5" d="M498,67.9c0-0.2,0-0.5-0.1-0.7c0-0.3-0.1-0.7-0.1-1c0-0.2-0.1-0.5-0.1-0.7c-0.1-0.3-0.1-0.6-0.2-0.8
			c-0.1-0.3-0.2-0.6-0.2-0.8c-0.1-0.2-0.2-0.5-0.3-0.7c-0.1-0.3-0.2-0.6-0.4-0.9c-0.1-0.2-0.2-0.4-0.3-0.6c-0.2-0.3-0.3-0.6-0.5-0.9
			c0-0.1-0.1-0.2-0.1-0.2c-0.1-0.1-0.2-0.2-0.2-0.3c-0.2-0.3-0.4-0.6-0.6-0.8s-0.3-0.4-0.5-0.6c-0.2-0.2-0.3-0.4-0.5-0.6
			c-0.2-0.2-0.4-0.5-0.6-0.7s-0.3-0.3-0.5-0.5s-0.5-0.4-0.7-0.7c-0.2-0.2-0.4-0.3-0.5-0.4c-0.3-0.2-0.5-0.4-0.8-0.6
			c-0.2-0.1-0.4-0.3-0.6-0.4c-0.2-0.2-0.5-0.3-0.7-0.5c-0.2-0.1-0.5-0.3-0.8-0.4c-0.2-0.1-0.5-0.2-0.7-0.3c-0.3-0.1-0.6-0.2-0.9-0.4
			c-0.2-0.1-0.4-0.2-0.7-0.2c-0.3-0.1-0.6-0.2-0.9-0.3c-0.2-0.1-0.5-0.1-0.7-0.2c-0.3-0.1-0.6-0.1-0.9-0.2c-0.3,0-0.6-0.1-0.8-0.1
			c-0.3,0-0.5-0.1-0.8-0.1s-0.7,0-1-0.1c-0.1,0-0.3,0-0.4,0s-0.2,0-0.3,0c-0.2,0-0.5,0-0.7,0c-0.3,0-0.6,0-0.9,0.1
			c-0.2,0-0.4,0-0.7,0.1c-0.4,0.1-0.8,0.1-1.2,0.2c-0.2,0-0.4,0.1-0.6,0.1c-0.4,0.1-0.7,0.2-1.1,0.3c-0.2,0.1-0.4,0.1-0.6,0.2
			c-0.3,0.1-0.6,0.2-0.9,0.4c-0.2,0.1-0.4,0.2-0.6,0.3c-0.4,0.2-0.7,0.4-1,0.5c-0.1,0.1-0.2,0.1-0.3,0.2L388.9,104
			c1.5,0.1,11.8,7.9,42.4,6.7c13.7-0.5,32.3-10.9,32.3-10.9v74.8c12.4-0.1,24.6-4.1,34.6-11.6V69.2c0-0.1,0-0.2,0-0.3
			C498.1,68.6,498,68.3,498,67.9z"/>
		
			<linearGradient id="SVGID_7_" gradientUnits="userSpaceOnUse" x1="253.8989" y1="174.227" x2="289.5849" y2="230.5317" gradientTransform="matrix(1 0 0 -1 0 500)">
			<stop  offset="0" style="stop-color:#2CE5B5"/>
			<stop  offset="1" style="stop-color:#2CE5B5;stop-opacity:0"/>
		</linearGradient>
		<path class="st6" d="M350.3,266.2l-63.7,38.2v-20v-95.9c-12.3,0-24.1,2.7-34.6,7.4V335c0,0.1,0,0.2,0,0.4c0,0.3,0,0.6,0,0.9
			s0,0.5,0.1,0.8c0,0.3,0.1,0.6,0.1,0.8c0.1,0.3,0.1,0.6,0.2,0.9c0.1,0.2,0.1,0.5,0.2,0.7c0.1,0.3,0.2,0.7,0.3,1
			c0.1,0.2,0.1,0.4,0.2,0.6c0.1,0.4,0.3,0.7,0.4,1c0.1,0.2,0.2,0.3,0.2,0.5c0.2,0.4,0.4,0.7,0.6,1.1c0,0.1,0.1,0.1,0.1,0.2
			s0.1,0.1,0.1,0.2c0.3,0.5,0.7,1,1.1,1.5c0.1,0.1,0.1,0.2,0.2,0.2c0.4,0.5,0.9,1,1.4,1.5c0.1,0.1,0.3,0.2,0.4,0.4
			c0.4,0.3,0.8,0.7,1.2,1c0.2,0.1,0.3,0.2,0.5,0.4c0.5,0.3,1,0.7,1.5,1c0.1,0,0.1,0.1,0.2,0.1c0.6,0.3,1.2,0.6,1.9,0.9
			c0.1,0,0.2,0.1,0.3,0.1c0.6,0.2,1.1,0.4,1.7,0.6c0.1,0,0.3,0.1,0.4,0.1c0.5,0.1,1.1,0.2,1.6,0.3c0.1,0,0.3,0,0.4,0.1
			c0.7,0.1,1.4,0.1,2,0.1l0,0l0,0l0,0c0.7,0,1.3-0.1,2-0.1c0.1,0,0.3,0,0.4-0.1c0.6-0.1,1.3-0.2,1.9-0.4c0.2,0,0.3-0.1,0.5-0.1
			c0.6-0.2,1.2-0.4,1.8-0.6c0.1-0.1,0.3-0.1,0.4-0.2c0.5-0.2,1-0.5,1.5-0.8c0.1-0.1,0.2-0.1,0.3-0.2l72.1-43.2v-40.5H350.3z"/>
	</g>
</g>
<g id="Layer_3">
</g>
<g id="Layer_2_1_">
</g>
</svg>
