<?xml version="1.0" encoding="utf-8"?>
<!-- Generator: Adobe Illustrator 21.1.0, SVG Export Plug-In . SVG Version: 6.00 Build 0)  -->
<svg version="1.1" id="Layer_1" xmlns="http://www.w3.org/2000/svg" xmlns:xlink="http://www.w3.org/1999/xlink" x="0px" y="0px"
	 viewBox="0 0 192.8 192.8" style="enable-background:new 0 0 192.8 192.8;" xml:space="preserve">
<style type="text/css">
	.st0{fill-rule:evenodd;clip-rule:evenodd;fill:#FFFFFF;}
	.st1{fill-rule:evenodd;clip-rule:evenodd;fill:#005BAA;}
	.st2{fill-rule:evenodd;clip-rule:evenodd;fill:#ED1C24;}
</style>
<g>
	<path class="st0" d="M96.4,24.3c-48.5,0-87.9,32.3-87.9,72c0,39.8,39.3,72,87.9,72c48.5,0,87.9-32.3,87.9-72
		C184.3,56.6,144.9,24.3,96.4,24.3L96.4,24.3z"/>
	<path class="st1" d="M9.5,96.4c0-39.1,38.9-70.8,86.9-70.8c48,0,86.9,31.7,86.9,70.8c0,39.1-38.9,70.8-86.9,70.8
		C48.4,167.2,9.5,135.5,9.5,96.4L9.5,96.4z M96.4,149.6c45.2,0,81.8-23.8,81.8-53.2c0-29.4-36.6-53.2-81.8-53.2
		c-45.2,0-81.8,23.8-81.8,53.2C14.6,125.8,51.2,149.6,96.4,149.6L96.4,149.6z"/>
	<path class="st2" d="M50.7,88.4h10.5C60.7,82.8,55.1,74,42.5,74c-12.6,0-20.3,9.5-20.3,21.6c0,12.1,9.3,21.2,21,21.2
		c11.7,0,18.1-7.7,18.4-15.4h-10c-1.4,3.7-2.3,7.2-8.9,7.2c-4.9,0-10-3-10-13.1c0-10.2,5.4-13.3,9.8-13.3
		C46.9,82.1,50.4,85.2,50.7,88.4L50.7,88.4z"/>
	<path class="st2" d="M106.8,75.2v40.9l10.7,0.2V92.4c0.7-5.1,5.1-9.1,12.1-9.1v-8.6c-5.4,0-8.1,0.9-12.3,5.8v-5.3H106.8L106.8,75.2
		z"/>
	<path class="st2" d="M83.5,73.8c9.6,0,21.4,7,21.4,22.6c0,15.6-13.9,20.7-21,20.7c-7.2,0-21.9-4.2-21.9-21.9
		C61.9,79.6,74.6,73.8,83.5,73.8L83.5,73.8z M72.5,95.2c0,11.7,6.8,14,11,14c4.7,0,11-3.3,11-13.7c0-10.3-6.7-14-11.4-14
		C78.4,81.6,72.5,85.6,72.5,95.2L72.5,95.2z"/>
	<path class="st2" d="M147.5,74c16.5,0,18.1,10,18.1,13v21.4c0,1.1,0.4,6,2.1,7.7h-10.3c-0.9-1.1-1.6-3-1.6-3
		c-1.6,0.5-3.9,3.9-12.8,3.9c-8.9,0-15.4-5.1-15.4-11.9c0-6.8,4.9-11,15.3-13c10.3-1.9,11.9-2.5,11.9-5.3c0-2.8-3-5.3-7.4-5.3
		c-4.4,0-7.5,2.1-7.9,6H130C129.8,85.2,131,74,147.5,74L147.5,74z M146.3,97.7c-4,0.8-8.2,2.7-8.2,6.5c0,3.7,3.3,5.4,7.7,5.4
		c4.4,0,9.3-2.5,9.3-6.3v-7.7C153.8,96.3,149.8,97,146.3,97.7L146.3,97.7z"/>
</g>
</svg>
