<?xml version="1.0" encoding="utf-8"?>
<!-- Generator: Adobe Illustrator 21.1.0, SVG Export Plug-In . SVG Version: 6.00 Build 0)  -->
<svg version="1.1" id="Layer_1" xmlns="http://www.w3.org/2000/svg" xmlns:xlink="http://www.w3.org/1999/xlink" x="0px" y="0px"
	 viewBox="0 0 1638 841.9" style="enable-background:new 0 0 1638 841.9;" xml:space="preserve">
<style type="text/css">
	.st0{fill:#F7AB00;}
	.st1{fill:#006EB5;}
	.st2{fill:#E62B37;}
	.st3{fill:#81BA25;}
	.st4{fill:#DB9900;}
	.st5{fill:#75A722;}
	.st6{fill:#B02728;}
	.st7{fill:#08568C;}
	.st8{fill:#9C9C9B;}
</style>
<g>
	<path d="M1568.4,376.8c-3,4.5-5.9,4.6-10.5,2.7c-6.4-2.7-13.1-3.2-20-2.3c-8.5,1-15.6,4.5-22,10c-7,6.1-11.4,13.6-13.6,22.5
		c-0.4,1.7-0.7,3.5-0.7,5.4c0.1,16.6,0,33.1,0,49.7c0,1.9-0.2,3.7-1.3,5.3c-1.6,2.4-4.7,3.7-7.1,2.6c-2.3-1-4.1-2.4-4.1-5.8
		c0-32.2,0.1-64.3,0-96.5c0-3.6,2.3-5.8,5.4-6c4.2-0.2,6,1.6,6.7,5.2c0.9,4.4,0.1,8.8,0.5,13.4c3.9-3.7,7.8-6.9,12.2-9.7
		c7.3-4.7,15.1-7.6,23.7-8.6c8.3-0.9,16.2-0.1,24.1,2.5c2.7,0.9,5.2,2.1,6.7,4.8C1568.4,373.6,1568.4,375.2,1568.4,376.8z"/>
	<path class="st0" d="M379.9,364.4c0.8,0,1.6-0.1,2.4-0.1c42.7,0,85.4,0,128.1,0c0.8,0,1.5,0,2.8,0c-3.1,4.5-5.9,8.7-8.7,12.9
		c-7.5,11-14.9,22-22.5,33c-6.5,9.5-13,18.9-19.5,28.4c-7.5,11-15,21.9-22.5,32.9c-0.9,1.3-1.8,1.2-3,1.2c-35.3,0-70.7,0-106,0
		c-0.8,0.3-1.7,0.3-2.6,0.3c-21.9,0-43.8,0-65.7,0c-1,0-1.9,0-2.9-0.2c-1.9-0.6-1.1-1.8-0.5-2.8c1.9-2.9,3.7-5.8,5.7-8.6
		c4.8-6.8,9.2-13.8,13.9-20.6c0.6-0.9,1.1-1.8,1.3-2.8c4.6-7.2,9.5-14.2,14.2-21.4c0.5-0.8,1-1.6,1.7-2.3c1.2-0.9,2.1-0.2,3,0.5
		c10.3,7.3,21.1,13.9,31.3,21.3c1.2,0.1,1.4-1,1.8-1.7c12.8-19.2,25.8-38.3,38.7-57.4C373.9,372.9,376.6,368.4,379.9,364.4z"/>
	<path class="st1" d="M173.5,472.7c-0.8,0-1.6,0.1-2.4,0.1c-42.2,0-84.3,0-126.5,0c-0.8,0-1.7,0-3.1,0c2.5-3.8,4.7-7.3,7-10.7
		c8.3-12.4,16.7-24.7,25-37.1c11-16.3,21.8-32.7,32.9-48.9c2.2-3.3,4.5-6.6,6.7-9.9c1-1.5,2-1.9,3.6-1.9c35.2,0,70.4,0,105.6,0
		c0.8-0.3,1.7-0.3,2.6-0.3c22.2,0,44.4,0,66.7,0c1,0,1.9,0,2.9,0.2c1.9,0.6,1.1,1.8,0.5,2.8c-2,3.2-4.1,6.3-6.2,9.4
		c-5.3,7.5-10.2,15.2-15.3,22.8c-5,7.2-9.8,14.5-14.7,21.8c-0.5,0.7-0.9,1.5-1.6,2.1c-1.5,0.5-2.4-0.5-3.4-1.2
		c-10.1-7.1-20.6-13.7-30.7-20.7c-1.2,0.1-1.5,1.1-2,1.9c-4.8,7-9.5,14.1-14.2,21.1c-10.5,15.5-20.9,31-31.4,46.5
		C174.8,471.4,174.3,472.2,173.5,472.7z"/>
	<path class="st2" d="M223,400.4c8.7,5.9,17.4,11.8,26.2,17.6c2.6,1.7,4.7,4,7.9,4.8c0.9-0.5,1.5,0.1,2.2,0.5
		c6.7,4.5,13.5,8.9,20.2,13.6c0.5,0.4,1.1,0.7,1.2,1.4c0.6,1-0.2,1.6-0.7,2.3c-6.8,10.1-13.6,20.3-20.4,30.4
		c-0.3,0.4-0.6,0.7-0.5,1.3c0.2,1.1,1.2,1.4,2,1.9c16.9,11.3,33.8,22.8,50.7,34.1c5.8,3.9,11.5,7.8,17.3,11.6c0.7,0.5,1.4,1,2,1.7
		c0,0.6,0.1,1.1,0.1,1.7c0,42.9,0,85.7,0,128.6c0,0.5,0,0.9,0,1.8c-2.9-1.9-5.8-3.5-8.4-5.4c-8-5.9-16.4-11.1-24.7-16.7
		c-16.2-11-32.6-21.7-48.7-32.8c-8.2-5.6-16.5-11-24.7-16.6c-1.5-1-2.1-2.1-2-3.9c0-35.2,0-70.4,0-105.6c-0.3-0.9-0.3-1.9-0.3-2.8
		c0-21.9,0-43.7,0-65.6C222.2,403.1,221.9,401.6,223,400.4z"/>
	<path class="st3" d="M272.9,398.9c7.3-10.9,14.6-21.9,21.9-32.8c0.3-0.4,0.6-0.7,0.5-1.3c-15.5-10.5-31.1-21-46.6-31.4
		c-7.5-5.1-15.1-10.1-22.7-15.2c-1.2-0.8-2.6-1.6-3.6-2.8c0-0.9-0.1-1.8-0.1-2.6c0-42.1,0-84.1,0-126.2c0-0.9-0.5-2.1,0.4-2.6
		c0.9-0.5,1.6,0.6,2.2,1c18.5,12.4,37,24.8,55.5,37.3c16,10.8,32,21.7,48.1,32.4c1.6,1.1,2.2,2.1,2.2,4c0,35.2,0,70.4,0,105.5
		c0.3,0.8,0.3,1.7,0.3,2.6c0,22,0,44,0,66c0,1.3,0.3,2.7-0.8,3.9c-10.6-7.1-21.1-14.3-31.7-21.4c-0.7-0.5-1.3-1.2-2.3-0.7
		c-0.9,0.1-1.5-0.4-2.2-0.9c-6.6-4.5-13.4-8.8-19.9-13.4C273.8,400,273.1,399.6,272.9,398.9z"/>
	<path d="M816.7,408.9c0,9.8-0.2,19.5,0.1,29.3c0.1,6.1,2.1,11.8,6.7,16.2c3.5,3.3,7.9,4.6,12.5,5.6c2.9,0.6,5.8-0.2,8.6,0.8
		c2.8,1,4.2,3.6,3.8,7.2c-0.2,2.1-3,4.8-5.4,4.8c-9.2,0.1-18.2-0.9-26-6.6c-6.5-4.7-10.2-11.2-11.8-18.9c-1.4-6.8-1.5-13.8-1.5-20.7
		c0-15.8,0-31.7,0.1-47.5c0-1.8-0.4-2.2-2.2-2.2c-19.4,0.1-38.7,0.1-58.1,0c-1.8,0-2.2,0.4-2.2,2.2c0.1,18.4-0.1,36.8,0.1,55.2
		c0.1,6.1,0.8,12.3,4.7,17.5c3,4.1,7.1,6.5,11.9,7.7c3.2,0.8,6.5,1.1,9.8,1.1c3.1-0.1,5.5,2.8,5.7,5.9c0.2,3.4-2.5,6.4-5.4,6.5
		c-9.2,0.1-18.1-1.1-26-6.5c-6.7-4.6-10-11.2-11.8-18.8c-1-4.4-1.4-9-1.4-13.5c-0.1-18.3,0-36.6,0-55c0-1.8-0.4-2.3-2.2-2.2
		c-2.5,0.2-5,0.1-7.4,0c-3.7,0-6.1-2.7-6.3-6.4c-0.1-2.9,3.2-6.4,6.4-6.1c2.5,0.2,5-0.1,7.4,0.1c1.7,0.1,2.1-0.4,2.1-2.1
		c-0.1-10.6-0.1-21.3,0-31.9c0-4,1.5-5.9,5.5-6.9c3.5-0.9,7,1.7,7,5.3c0,11.1,0,22.2,0,33.4c0,1.8,0.3,2.2,2.2,2.2
		c19.4-0.1,38.7-0.1,58.1,0c1.8,0,2.3-0.4,2.2-2.2c-0.1-10.4,0-20.8-0.1-31.2c0-1.9,0.3-3.7,1.5-5.3c1.6-2.2,4.4-3.1,7.5-2.1
		c2.1,0.7,4,3.6,4,6.4c0,10.6,0.1,21.3,0,31.9c0,2,0.5,2.5,2.5,2.5c5-0.2,10.1,0,15.1-0.1c3.5-0.1,6.4,2.5,6.4,6.2
		c0,3.8-3,6.4-6.4,6.3c-5.2-0.1-10.4,0.1-15.6-0.1c-1.8,0-2.1,0.5-2,2.1C816.7,388.9,816.7,398.9,816.7,408.9z"/>
	<path d="M1332.7,456.3c-8.8,8.1-19,12.9-30.2,15.4c-9.5,2.1-19.2,1.4-28.6-1.3c-6.2-1.8-12-4.3-17.3-8.1
		c-5.4-3.9-9.5-8.7-12.9-14.3c-3.1-5.1-4.7-10.7-6-16.4c-0.4-1.8-0.5-3.7-0.5-5.6c0-18.4,0-36.8,0-55.2c0-3.9,2.4-6.4,6.1-6.5
		c3.7,0,6.4,2.6,6.4,6.5c0,16.1,0.1,32.2,0,48.2c0,6.3,0.3,12.5,2.9,18.4c2.9,6.6,7.3,12,13.5,15.8c8.7,5.4,18.4,7.7,28.6,6.9
		c12-0.9,22.7-5,30.5-14.7c5-6.2,7.7-13.4,7.7-21.5c0-17.5,0-35,0-52.6c0-2.5,0.5-4.9,3.1-6.3c2.6-1.4,5-1.3,7.4,0.5
		c2.1,1.6,2.4,4,2.4,6.5c0,11.9,0,23.8,0,35.8c0,19.5,0,39,0,58.6c0,6.9-0.2,13.8-2.9,20.3c-2.8,6.9-7,12.5-12.7,17.3
		c-4.1,3.4-8.4,6.4-13.2,8.7c-5.1,2.4-10.5,3.9-16.2,4.7c-4.9,0.7-9.7,0.7-14.5,0.3c-10.4-0.7-19.9-4.3-28.3-10.6
		c-6.3-4.7-11.7-10.2-15.9-16.9c-1.4-2.2-3-4.5-2.2-7.5c0.7-2.7,2.4-4.2,4.9-4.7c2.9-0.6,5.3,0.7,6.8,3.2c2.7,4.5,5.7,8.8,9.7,12.3
		c6.7,6,14.4,10.1,23.5,11.3c8.2,1.1,16.2,0.7,24-2.4c4.9-1.9,9.2-4.7,13.2-8.1c5.5-4.8,8.7-10.9,10.6-17.8c0.5-1.7,0.2-3.3,0.2-5
		C1332.7,466.7,1332.7,461.7,1332.7,456.3z"/>
	<path class="st4" d="M330.5,436.8c0-23.2,0-46.4,0-69.6c0-1-0.4-2.1,0.5-3c15.4,0,30.7,0,46.1,0.1c1,0,1.9,0.1,2.9,0.1
		c-1.5,3.7-4.1,6.8-6.3,10.1c-4.5,6.9-9.2,13.7-13.9,20.6c-9.3,13.7-18.5,27.4-27.8,41.1C331.7,436.6,331.6,438.1,330.5,436.8z"/>
	<path class="st5" d="M222.5,315.4c3.5,1.5,6.3,4,9.4,6c11.9,7.9,23.8,16,35.7,24c8.9,6,17.8,12,26.7,18.1c0.4,0.3,1.7,0.2,1.1,1.3
		c-23.4,0-46.9,0-70.3,0c-0.9,0-1.9,0.4-2.7-0.5c0-15.2,0.1-30.4,0.1-45.6C222.5,317.6,222.5,316.5,222.5,315.4z"/>
	<path class="st6" d="M330.9,521.8c-5.7-3.2-10.9-7.1-16.4-10.6c-6.4-4.2-12.7-8.6-19-12.8c-12-8.1-24-16.2-36-24.3
		c-0.3-0.2-2.6-0.4-0.5-1.7c23.1,0,46.2,0,69.3,0.1c0.9,0,1.9-0.4,2.7,0.5c0,15.3,0,30.6-0.1,45.8
		C330.9,519.7,330.9,520.7,330.9,521.8z"/>
	<path class="st7" d="M223,400.4c0,23.3,0,46.6,0,69.8c0,0.9,0.4,1.9-0.5,2.7c-15,0-29.9-0.1-44.9-0.1c-1.4,0-2.7-0.1-4.1-0.1
		c2.6-5.1,6.3-9.5,9.4-14.3c7.9-11.9,15.9-23.8,23.9-35.6c4.7-6.9,9.3-13.8,14-20.8C221.4,401.3,221.6,400,223,400.4z"/>
	<path d="M867.1,418.3c0-15.9,0-31.8,0-47.7c0-3.7,2.5-6.2,6.1-6.3c3.7,0,6.4,2.6,6.4,6.3c0,32,0,64,0,96c0,3.6-2.8,6.3-6.4,6.3
		c-3.6,0-6.1-2.6-6.1-6.3C867.1,450.5,867.1,434.4,867.1,418.3z"/>
	<path d="M1048.1,418.7c0,16,0,32,0,48c0,3.6-2.5,6.1-6.2,6.1c-3.6,0-6.2-2.5-6.2-6.1c0-32.1,0-64.1,0-96.2c0-3.5,2.7-6.2,6.3-6.2
		c3.5,0,6.2,2.6,6.2,6.2C1048.1,386.6,1048.1,402.6,1048.1,418.7z"/>
	<path d="M693.8,418.6c0,16,0,32,0,48c0,3.7-2.5,6.2-6.1,6.2c-3.7,0-6.4-2.6-6.4-6.3c0-31.8,0-63.7,0-95.5c0-3.3,1.4-5.4,4.3-6.5
		c2.2-0.8,5,0,7,2.1c1,1.1,1.2,2.3,1.2,3.7C693.8,386.4,693.8,402.5,693.8,418.6z"/>
	<path d="M1212.2,418.6c0,16.1,0,32.1,0,48.2c0,3.5-2.5,6-6.1,6c-3.6,0-6.4-2.6-6.4-6c0-32.1,0-64.3,0-96.4c0-3.5,2.8-6.1,6.4-6.1
		c3.4,0,6.1,2.7,6.1,6C1212.2,386.4,1212.2,402.5,1212.2,418.6z"/>
	<path class="st8" d="M864.5,619.9c1,0.5,2,0.2,3,0.6c1.7,0.6,2.8,1.7,2.9,3.4c0.1,1.6-1,2.8-2.4,3.5c-3,1.5-6,1.1-9.1,0.4
		c-0.9-0.2-0.8-0.9-0.6-1.7c0.3-0.9,0.5-1,1.4-0.8c1.7,0.4,3.5,1.1,5.3,0.3c0.9-0.4,1.4-0.9,1.3-1.6c-0.1-0.8-0.8-1.3-1.7-1.3
		c-0.6,0-1.3,0.1-1.9,0c-0.7-0.1-1.5,1-2.2,0c-0.7-1,0.2-1.8,0.7-2.6c0.1-0.3,0.3-0.5,0.5-0.9c-2.1-0.9-4.3-0.8-6.2-1.7
		c-2.7-1.3-4.8-3-5-6.3c0-0.6-0.9-1.6,0.1-1.7c1.2-0.2,3.1-1,3.7,0.5c1.6,4.7,5.3,5.2,9.4,5.1c2.4,0,4.8,0.3,7-0.9
		c1.6-0.9,2.5-2,2.5-3.9c0-1.9-1.3-2.7-2.7-3.2c-3.1-1.1-6.3-1.1-9.5-1.6c-3-0.4-6.2-0.6-8.2-3.1c-2.7-3.3-2.4-9,2.7-11.4
		c5.6-2.6,11.5-2.3,17.2,0.3c2.1,1,3.1,3,3.8,5.2c0.2,0.8,0.7,2-0.5,2.1c-1.1,0.2-2.6,0.7-3.5-0.7c-2.4-3.9-6-5.7-10.4-4.9
		c-1.4,0.3-2.9,0.4-4.3,1.2c-1.7,0.9-1.7,2.3-1.7,3.9c0,1.4,1,1.8,2.1,2.2c3.9,1.4,8.1,1.4,12.1,2.3c1.8,0.4,3.7,0.8,5.3,2
		c3.9,2.8,2.8,10.5-1.4,12.5c-2.2,1.1-4.5,1.9-7,1.8C866,618.7,865,618.7,864.5,619.9z"/>
	<path class="st8" d="M915.6,602.7c3.9-3.1,7.4-5.8,10.8-8.5c1.6-1.3,3.1-2.7,4.8-3.8c2-1.2,4.3-0.2,6.5-0.6c0,1-0.7,1.4-1.2,1.8
		c-3.6,2.8-7.2,5.6-10.9,8.3c-0.9,0.6-0.7,0.9-0.2,1.6c2.2,2.6,4.3,5.3,6.5,7.8c2.2,2.7,4.6,5.3,6.8,7.9c-4.1,1.4-6.4,0.3-9.7-4.1
		c-2.1-2.8-4.5-5.5-6.8-8.2c-0.3-0.4-0.8-0.9-1.3-0.9c-1.3-0.2-5.4,3.9-5.4,5.3c0,2.3,0,4.6,0,7c0,2.2-1.6,1.3-2.6,1.4
		c-1,0.1-2.3,0.5-2.3-1.4c0-12.3,0-24.6,0-36.9c0-2.3,1.7-1.2,2.8-1.4c1.2-0.2,2.1,0,2.1,1.7c-0.1,6.6,0,13.3,0,19.9
		C915.6,600.4,915.6,601.2,915.6,602.7z"/>
	<path d="M1212.2,336.8c0,2.5,0,5,0,7.4c0,2.9-2.7,5.5-5.7,5.7c-3.8,0.3-6.6-2.6-6.7-5.4c-0.2-5.2-0.2-10.4,0-15.6
		c0.1-3.3,3.1-6,6.3-5.9c3.6,0.1,6.1,2.7,6.2,6.3C1212.2,331.8,1212.2,334.3,1212.2,336.8z"/>
	<path d="M1048.1,337c-0.3,2.6,0.6,5.8-0.4,8.9c-0.9,2.7-3.8,4.4-6.9,4c-2.6-0.4-5.1-3-5.1-5.6c-0.1-5.2-0.1-10.4,0-15.6
		c0-3,3.1-5.7,6.3-5.7c3.2,0,6.1,2.8,6.2,5.8C1048.1,331.4,1048.1,333.9,1048.1,337z"/>
	<path d="M879.6,336.7c0,2.5,0.1,4.9,0,7.4c-0.1,3-2.3,5.8-6.6,5.8c-3.3,0-5.9-2.6-5.9-5.9c0-4.9,0-9.7,0-14.6c0-3.6,2.7-6.4,6-6.4
		c3.3,0,6.4,2.9,6.5,6.2C879.6,331.7,879.6,334.2,879.6,336.7z"/>
	<path d="M693.8,336.9c0,2.2,0,4.5,0,6.7c0,3.5-2.5,6.3-5.8,6.3c-3.8,0.1-6.6-2.3-6.6-6c-0.1-5-0.1-9.9,0-14.9c0.1-3.2,3-6,6.2-6
		c3.6,0,6.2,2.7,6.3,6.4C693.8,331.9,693.8,334.4,693.8,336.9z"/>
	<path class="st8" d="M976.5,603.9c0-2.9-0.1-5.8,0-8.6c0.1-1.5-0.4-2.2-2-2c-0.8,0.1-1.6,0-2.4,0c-1.3,0.1-1.4-0.6-1.4-1.6
		c0-1.1,0.1-1.7,1.5-1.8c4.3-0.2,4.3-0.3,4.3-4.7c0-0.5,0-1,0-1.4c-0.2-1.7,0.1-2.6,2.2-2.6c2,0,2.2,0.8,2.1,2.4
		c-0.1,2-0.6,4.5,0.3,5.8c1.1,1.4,3.7,0.4,5.7,0.5c1.3,0,1.6,0.4,1.7,1.7c0,1.4-0.4,1.8-1.8,1.8c-1.5-0.1-3,0-4.5,0
		c-1,0-1.4,0.4-1.4,1.4c0,5.5,0,11,0,16.5c0,2.5,1.8,3.8,4.5,3.3c2.8-0.5,3.3-0.1,3.1,2.4c-0.1,1.1-0.5,1.4-1.5,1.4
		c-1.8,0-3.5,0-5.3,0c-3.2-0.1-5.2-2.2-5.3-5.5C976.5,609.8,976.5,606.9,976.5,603.9z"/>
	<path class="st8" d="M595.9,594.9c2.5-3.6,5.4-5.4,9.1-5.9c2.6-0.4,3.8,0.7,3.9,3.1c0,1.7-0.8,1.7-2.1,1.7
		c-3.1-0.1-6.2-0.2-8.5,2.6c-1.5,1.8-2.4,3.7-2.4,6c0,4.5-0.1,9,0,13.4c0.1,2.2-1.2,1.9-2.6,2c-1.4,0.1-2.4,0-2.3-2
		c0.1-7.9,0.1-15.8,0-23.7c0-2.2,1-2.2,2.6-2.2c1.7-0.1,2.6,0.3,2.3,2.2C595.8,592.8,595.9,593.5,595.9,594.9z"/>
	<path class="st8" d="M1052,595.1c1.6-4.1,5.1-5.4,9-6.1c1.1-0.2,2.4-0.3,3.1,0.6c0.7,1,0.5,2.4,0.2,3.5c-0.3,1.2-1.7,0.7-2.5,0.6
		c-4-0.3-7,1.1-8.9,4.6c-1.1,1.9-1.4,4-1.4,6.1c-0.1,3.8-0.1,7.5,0,11.3c0.1,1.8-0.7,2.1-2.2,2c-1.4,0-2.2-0.1-2.2-1.9
		c0.1-8.1,0.1-16.1,0-24.2c0-1.9,0.9-1.8,2.2-1.8c1.3,0,2.4,0,2.2,1.9c-0.1,1,0,2,0,3.1C1051.6,594.9,1051.8,595,1052,595.1z"/>
	<path class="st8" d="M895.9,594.7c2.5-3.4,5.5-5.3,9.3-5.7c1.3-0.1,2.6-0.1,3.3,0.7c0.8,0.7,0.3,2.1,0.2,3.2
		c-0.1,1.2-1.2,0.7-1.9,0.8c-2.4,0.1-4.8-0.2-7.1,1.4c-2.5,1.8-3.8,4.2-3.9,7.2c-0.1,4.4-0.1,8.8,0,13.2c0.1,1.8-0.4,2.3-2.3,2.3
		c-1.7,0-2.2-0.5-2.1-2.2c0.1-7.9,0.1-15.8,0-23.7c0-1.8,0.7-2.1,2.2-2.1c1.6,0,2.4,0.4,2.2,2.1
		C895.8,592.7,895.9,593.5,895.9,594.7z"/>
	<path class="st8" d="M581.5,603.8c0-4.1,0.1-8.2,0-12.2c-0.1-2,1.1-1.6,2.3-1.7c1.3-0.1,2.1,0,2.1,1.7c-0.1,8.2-0.1,16.3,0,24.5
		c0,2-1.1,1.6-2.3,1.7c-1.3,0.1-2.1,0-2.1-1.7C581.6,612,581.5,607.9,581.5,603.8z"/>
	<path class="st8" d="M885.8,603.8c0,4.1-0.1,8.2,0,12.2c0.1,2-1.1,1.7-2.3,1.7c-1.2,0-2.1,0-2.1-1.7c0.1-8.2,0.1-16.3,0-24.5
		c0-2,1.1-1.7,2.3-1.7c1.2,0,2.1,0,2.1,1.7C885.7,595.7,885.8,599.8,885.8,603.8z"/>
	<path class="st8" d="M996.7,603.9c0,3.9-0.1,7.8,0,11.7c0.1,1.7-0.4,2.2-2.1,2.2c-1.5,0-2.3-0.2-2.3-2c0.1-8,0.1-16,0-24
		c0-1.7,0.7-1.9,2.1-1.9c1.5,0,2.3,0.2,2.3,2C996.6,595.9,996.7,599.9,996.7,603.9z"/>
	<path class="st8" d="M1041.8,603.6c0,4.1-0.1,8.2,0,12.2c0.1,1.7-0.7,1.9-2.1,1.9c-1.5,0-2.3-0.1-2.3-2c0.1-8,0.1-16,0-24
		c0-1.7,0.7-1.9,2.1-1.9c1.5,0,2.4,0.1,2.3,2C1041.7,595.8,1041.8,599.7,1041.8,603.6z"/>
	<path class="st8" d="M1041.8,584.6c-0.6,0.8,1.2,2.9-1.5,3c-2,0.1-3.2-0.3-2.8-2.7c0.1-0.4,0.1-0.8,0-1.2c-0.2-1.7,0.2-2.5,2.3-2.5
		c2,0,2.2,0.9,2.1,2.5C1041.8,583.9,1041.8,584.1,1041.8,584.6z"/>
	<path class="st8" d="M581.5,584.3c0.1-1.4-0.7-3.3,2.1-3.1c1.8,0.1,2.5,0.6,2.2,2.3c-0.1,0.5,0,1,0,1.4c0.1,1.6,0.1,2.7-2.1,2.6
		c-2.1,0-2.4-1-2.2-2.6C581.5,584.8,581.5,584.5,581.5,584.3z"/>
	<path class="st8" d="M992.4,584.2c0.3-1.1-0.9-3,1.9-3c2,0,2.8,0.5,2.5,2.5c-0.1,0.4,0,0.8,0,1.2c0.1,1.5,0.2,2.7-2.1,2.7
		c-2.4,0-2.4-1.2-2.2-2.8C992.4,584.7,992.4,584.5,992.4,584.2z"/>
	<path class="st8" d="M881.5,584.2c0.5-0.8-1.2-2.9,1.6-3c2.1-0.1,3.2,0.4,2.8,2.7c-0.1,0.4-0.1,0.8,0,1.2c0.2,1.8-0.3,2.5-2.3,2.5
		c-2.1,0-2.2-1-2-2.5C881.5,584.9,881.5,584.6,881.5,584.2z"/>
	<path class="st8" d="M839,589.9c-3.4,0-6.9,0.1-10.3,0c-1.3,0-1.9,0.5-2.5,1.6c-1.5,3.2-3.1,6.2-4.7,9.4
		c-4.4,8.8-8.8,17.6-13.2,26.4c-0.9-0.6-1-1.4-1.4-2.1c-5.6-11.1-11.2-22.3-16.7-33.4c-0.7-1.3-1.4-1.9-2.9-1.8
		c-3.1,0.1-6.2,0.1-9.4,0c-1.8-0.1-2.7,0.3-1.5,2.2c0.2,0.3,0.4,0.5,0.2,0.9c-1.1-0.1-1.8-1.1-2.8-1.5c-10.2-4.5-20.6-4.9-31-1.3
		c-5.5,1.9-9.1,5.8-10.4,11.6c-0.4,1.8,0.1,2.1,1.7,2c2.6-0.1,5.3-0.1,7.9,0c1.8,0.1,2.7-0.4,3.3-2.1c0.5-1.6,1.9-2.7,3.3-3.7
		c3.4-2.5,7.3-2.1,11-1.9c7.5,0.5,10.1,3.9,11,10c0.2,1.4-0.3,1.9-1.8,1.9c-6.2,0.1-12.4-0.3-18.6,0.4c-7.4,0.9-14.4,2.4-19.9,8.7
		c0.8-12.6-3.8-22-15.4-26.8c-11-4.6-21.5-2.9-31.1,4.8c0-7,0-13.5,0-20c0-2.2,1-5-0.5-6.5c-1.3-1.3-4.1-0.4-6.3-0.4
		c-5.3,0-5.3,0-5.3,5.2c0,10.9,0,21.9,0,32.8c-2.7-8.8-8.3-14.7-17.2-17c-5-1.3-10.1-1.6-15.3-0.9c-8,1-14.9,3.7-19.4,10.7
		c-4.7,7.3-5.3,15.3-3.5,23.5c1.6,7.3,5.7,12.8,12.7,15.8c10,4.2,20.1,3.9,30.1,0.3c5.5-2,9.5-5.8,11.3-11.7
		c0.5-1.7,0.1-2.1-1.6-2.1c-2.9,0.1-5.8,0.1-8.6,0c-1.1,0-1.7,0.3-2.2,1.4c-0.7,1.4-1.5,2.8-2.8,3.8c-9.4,6.9-24.8,3.6-27.5-9.9
		c-0.4-2,0.1-2.5,2-2.5c13.4,0.1,26.9,0.1,40.3,0c1.7,0,2.2,0.4,2.2,2.1c-0.1,4.7-0.2,9.4-0.4,14.1c-0.3,5.9-0.1,5.9,5.9,5.9
		c5.4,0,5.4,0,5.6-5.5c0-0.1,0.2-0.2,0.3-0.3c6.4,6.6,14.6,8,23.2,7.2c10.1-1,17.7-5.8,21.9-16c0.6,7,3.9,11.5,9.9,13.9
		c2.3,1,4.8,1.8,7.3,1.9c6,0.4,12,0.5,17.8-2c3-1.4,5.4-3.5,8-6.1c0,1.9,0.1,3.3,0,4.6c-0.1,1.5,0.5,1.9,1.9,1.9
		c2.4-0.1,4.8-0.1,7.2,0c1.6,0.1,1.9-0.6,2-2.1c0.2-4-0.3-8-0.2-12.1c0.2-6.1,0.6-12.3-0.3-18.4c-0.2-1.2,0-2.4,0-4.2
		c6.4,12.1,12.5,23.5,18.5,34.9c0.6,1.1,0.7,2,0.1,3.1c-1.5,2.5-2.6,5.2-4.1,7.8c-1.8,3.1-3.3,6.5-4.9,9.7c4.5,0,9,0,13.4,0
		c0-0.8,0.4-1.3,0.8-2c2.9-5.6,5.7-11.3,8.6-16.9c8.1-15.6,15.8-31.3,23.7-46.9C838.7,591.6,839.3,590.9,839,589.9z M658.3,609.6
		c-4.7,0-9.4,0-14.1,0c-4.8,0-9.6,0-14.4,0c-1.6,0-1.9-0.4-1.5-2c1.7-6.7,7.7-11.4,14.7-11.5c5-0.1,9.7,0.6,13.3,4.5
		c1.9,2.1,3.1,4.5,3.6,7.3C660.2,609.7,659.5,609.6,658.3,609.6z M716.6,622.6c-2.8,7-8.6,10.9-16,10.5c-9,0.6-15-6-16.4-13.9
		c-0.8-4.7-0.4-9.2,1.5-13.7c3.5-8.2,13.6-10.7,20.7-8.7c7.5,2.2,10.6,8.4,11.4,15.3C718.2,615.6,717.9,619.2,716.6,622.6z
		 M770.6,618.4c-0.8,8.1-3.9,12.6-11.5,14.6c-4.9,1.3-9.9,1.3-14.4-1.8c-4.4-3-5.6-9.9,0.7-12.7c3.1-1.3,6.2-2.1,9.6-2.2
		c2.2-0.1,4.3,0,6.5,0c2.4,0,4.8,0.1,7.2,0C770.3,616.2,770.8,616.8,770.6,618.4z"/>
	<path d="M1012.1,418c0-5.7-1-11.4-2.7-16.8c-3.4-10.7-10.1-19.2-18.8-26c-8.9-7-19.1-10.4-30.3-10.9c-2.9-0.1-5.8,0-8.8,0.3
		c-6,0.6-11.7,2.1-17.1,4.7c-8.1,3.9-14.7,9.6-20.2,16.7c-6.9,8.9-10.2,19.1-10.5,30.2c-0.1,3.2,0,6.5,0.4,9.7
		c0.7,5.3,2,10.3,4.2,15.1c4.8,10.6,12.5,18.8,22.5,24.7c6.9,4.1,14.5,6.3,22.4,6.8c5.3,0.3,10.6,0.2,15.8-0.9
		c4.9-1,9.7-2.5,14.1-4.9c6-3.4,11.6-7.5,16.6-13.2c0,1.2,0,2,0,2.7c0,5.6,0.1,11.2,0,16.8c0,1.8-0.3,3.6-0.7,5.3
		c-2.7,10.9-9.6,18.4-19.3,23.5c-8.6,4.5-17.8,5.7-27.5,4.4c-9.4-1.3-17.4-5.2-24.3-11.6c-3.8-3.6-7.1-7.6-9.6-12.1
		c-1.6-3.1-6.2-4.2-9.4-2.2c-2.5,1.6-3.3,5.4-1.7,8.6c3.2,6.3,8.1,11.2,13.1,16c4.8,4.6,10.4,8,16.5,10.4c9.4,3.6,19.2,4.7,29.3,3.5
		c6.4-0.8,12.5-2.3,18.2-5.1c7.3-3.6,13.6-8.5,18.8-14.8c5.9-7.3,9-15.5,9.1-24.8C1012.2,455.4,1012.1,436.7,1012.1,418z
		 M957.7,460.3c-21.8,1-43.1-19.3-41.7-44c1.1-20.1,18.7-40.5,43.5-39.6c21.3,0.8,40.2,18.6,40.1,42.7
		C999.5,441.5,979.9,461.2,957.7,460.3z"/>
	<path d="M654.5,413.1c-0.3-5.9-1.9-11.4-4.2-16.8c-3.6-8.3-9.3-14.9-16.3-20.6c-8.9-7.2-19.1-10.8-30.4-11.4
		c-3.1-0.2-6.1,0-9.2,0.3c-6,0.6-11.7,2.1-17.1,4.7c-8.2,3.9-14.9,9.6-20.3,16.9c-6.5,8.6-9.9,18.4-10.4,29.1
		c-0.2,3.7-0.1,7.4,0.4,11.2c1,7.4,3.4,14.3,7.3,20.6c4.8,7.6,11,13.8,18.8,18.4c7.5,4.5,15.5,6.9,24.2,7.3
		c3.5,0.2,7.1,0.1,10.7-0.4c4.9-0.7,9.6-1.8,14.1-3.7c7.8-3.4,14.5-8.2,20.6-14.9c0,4.7,0,8.7,0,12.8c0,3.9,0.4,7.8-0.6,11.6
		c-2.1,8.3-6.7,15-13.6,20.1c-8.2,6-17.4,8.8-27.5,8.6c-2,0-4.1-0.1-6.1-0.4c-5.1-0.7-10-2.1-14.5-4.6c-8.3-4.6-14.8-11.2-19.4-19.6
		c-1.4-2.6-5.5-3.6-8.6-2.3c-2.2,0.9-3.4,4.1-2.9,6.9c0.5,2.6,2,4.7,3.4,6.8c3.7,5.3,8.3,9.8,13.3,13.8c9.3,7.5,20.1,11.2,31.9,11.9
		c3.7,0.2,7.4,0.1,11.2-0.3c6.3-0.7,12.3-2.4,18-5.1c7.2-3.5,13.5-8.4,18.6-14.6c5.8-7,9.2-15.1,9.2-24.1
		C654.9,454.5,655.5,433.8,654.5,413.1z M600.4,460.3c-21.5,1.1-43.2-19.3-41.5-44.4c1.3-19.8,18.7-40.2,43.6-39.1
		c21.3,0.9,39.8,18.1,40,42.1C642.6,441.3,623.1,461.2,600.4,460.3z"/>
	<path d="M1175.3,393.8c0-21.6,0-43.2,0-64.8c0-2.5-1.8-5.2-3.9-5.5c-5-0.7-8.5,0.9-8.6,7.1c-0.1,17.4,0,34.7,0,52.7
		c-4.5-4.8-8.9-8.8-14.2-11.9c-5.9-3.5-12.3-5.7-19.1-6.6c-4.8-0.6-9.7-0.7-14.6-0.1c-5.6,0.7-10.9,2-16,4.3
		c-8.2,3.7-14.8,9.2-20.4,16.1c-3.8,4.7-6.7,10-8.7,15.7c-2.3,6.6-2.7,13.5-2.5,20.4c0.2,7.5,1.9,14.6,5.2,21.3
		c3.6,7.1,8.6,13.2,14.8,18.3c9.3,7.6,19.9,11.5,31.8,11.9c3,0.1,6,0,9-0.4c5.4-0.6,10.6-2,15.6-4.2c8.1-3.6,14.7-9.1,20.3-16
		c7-8.7,11.1-18.6,11.3-29.8C1175.4,412.9,1175.3,403.4,1175.3,393.8z M1118.8,460.3c-11.1-0.7-20.4-5.3-28-13.2
		c-7.7-8-11.5-17.7-11.5-28.6c0.1-11.4,4.3-21.6,12.6-29.6c8.7-8.4,19.1-12.5,31.3-12.1c20.1,0.7,40.3,18.7,39.5,41.9
		C1163.7,440.8,1143.6,461.9,1118.8,460.3z"/>
	<path d="M1420.4,364.3c-32.6-1.6-58,25.1-57,54.3c-0.9,30.2,24.7,53.1,51,54.3c33.6,1.5,57.3-25.1,57.5-53.6
		C1472.1,388,1447.4,365.6,1420.4,364.3z M1445.4,449.6c-8,7.1-17.3,10.9-28.6,10.7c-20.8,0.6-42.8-19.1-41-45
		c1.3-18.6,18.6-39.8,43.6-38.6c11.5,0.6,21,5.2,28.8,13.5c7.5,7.9,11.2,17.6,11.1,28.3C1459.3,430.8,1454.6,441.4,1445.4,449.6z"/>
	<path class="st8" d="M574.8,595.5c-2.7-4.3-6.8-5.8-11.6-6.3c-4.9-0.5-8.8,1.5-12.4,5.1c0-5.1-0.1-9.7,0-14.3
		c0-1.8-0.6-2.1-2.2-2.1c-1.6,0-2.2,0.4-2.2,2.1c0.1,5.8,0,11.7,0,17.5c0,6.1,0,12.1,0,18.2c0,0.7-0.4,1.6,0.7,2
		c2.2,0.8,3.6-0.1,3.6-2.5c0-0.5,0-0.9,0-2c4.2,6.5,15.5,7.4,21.7,2C577.3,611.2,578.8,602,574.8,595.5z M561.7,615
		c-6.2,0-11.5-5.2-10.9-10.8c-0.3-6.9,4.6-11.3,10.7-11.2c6.7,0.1,11,3.8,11.1,10.9C572.7,610,569.2,615,561.7,615z"/>
	<path class="st8" d="M1031.8,580.1c0-1.6-0.3-2.2-2.1-2.2c-1.7,0-2.4,0.4-2.3,2.2c0.1,4.6,0,9.2,0,14.5c-3.1-4.1-7-5.5-11.1-5.6
		c-4.2,0-8.2,1.2-11.2,4.3c-4.9,5-5,16.1-0.2,21c2.3,2.4,5,3.9,8.2,4.3c5.3,0.5,10.3,0.1,14.2-5c0.1,0.9,0.1,1.2,0.1,1.5
		c-0.2,1.8,0.1,2.7,2.3,2.7c2.4,0,2-1.4,2-2.8C1031.7,603.4,1031.7,591.8,1031.8,580.1z M1016.3,614.9c-5.8,0.8-10.8-5.1-10.5-11
		c0.3-6.6,4.8-11.1,10.9-10.9c7.3,0.2,10.9,4.2,11.2,11C1028,610.8,1022.6,615.4,1016.3,614.9z"/>
	<path class="st8" d="M944.5,605.3c3.9,0,7.8,0,11.8,0c4,0,8,0,12,0c0.8,0,2,0,1.5-1.1c-0.6-1.6-0.3-3.3-0.7-4.9
		c-2.7-10.8-16.4-12.1-23.7-8.1c-4,2.3-5.9,6-6.6,10.5c-0.7,4.7,0.9,11.6,5.8,14.7c4.6,2.9,9.5,2.9,14.4,1.9
		c4.5-0.9,7.6-3.7,9.4-7.9c0.2-0.6,0.8-1.1,0-1.6c-1-0.6-3.7,0.1-4.3,1.3c-1.4,2.8-3.7,4.3-6.6,4.8c-1.4,0.2-2.9,0.1-4.3,0.1
		c-5.1,0-8.8-3.1-9.9-8.2C943,605.3,943.4,605.3,944.5,605.3z M943.5,600c1-3,3.2-5,6.1-6.3c5.7-2.5,13.6,0.5,15,6.2
		c0.4,1.6,0.3,2-1.3,1.9c-3.1-0.1-6.2,0-9.4,0c-3,0-6.1-0.2-9.1,0.1C942.9,602.1,943.2,601,943.5,600z"/>
</g>
</svg>
